<?xml version="1.0" encoding="utf-8" standalone="no"?>
<!DOCTYPE svg PUBLIC "-//W3C//DTD SVG 1.1//EN"
  "http://www.w3.org/Graphics/SVG/1.1/DTD/svg11.dtd">
<!-- Created with matplotlib (https://matplotlib.org/) -->
<svg height="288pt" version="1.1" viewBox="0 0 432 288" width="432pt" xmlns="http://www.w3.org/2000/svg" xmlns:xlink="http://www.w3.org/1999/xlink">
 <defs>
  <style type="text/css">
*{stroke-linecap:butt;stroke-linejoin:round;}
  </style>
 </defs>
 <g id="figure_1">
  <g id="patch_1">
   <path d="M 0 288 
L 432 288 
L 432 0 
L 0 0 
z
" style="fill:#ffffff;"/>
  </g>
  <g id="axes_1">
   <g id="patch_2">
    <path d="M 54 256.32 
L 388.8 256.32 
L 388.8 34.56 
L 54 34.56 
z
" style="fill:#ffffff;"/>
   </g>
   <g id="matplotlib.axis_1">
    <g id="xtick_1">
     <g id="line2d_1">
      <path clip-path="url(#pdec807aa94)" d="M 69.218182 256.32 
L 69.218182 34.56 
" style="fill:none;stroke:#cccccc;stroke-linecap:round;stroke-width:0.8;"/>
     </g>
     <g id="text_1">
      <!-- 0 -->
      <defs>
       <path d="M 31.78125 66.40625 
Q 24.171875 66.40625 20.328125 58.90625 
Q 16.5 51.421875 16.5 36.375 
Q 16.5 21.390625 20.328125 13.890625 
Q 24.171875 6.390625 31.78125 6.390625 
Q 39.453125 6.390625 43.28125 13.890625 
Q 47.125 21.390625 47.125 36.375 
Q 47.125 51.421875 43.28125 58.90625 
Q 39.453125 66.40625 31.78125 66.40625 
z
M 31.78125 74.21875 
Q 44.046875 74.21875 50.515625 64.515625 
Q 56.984375 54.828125 56.984375 36.375 
Q 56.984375 17.96875 50.515625 8.265625 
Q 44.046875 -1.421875 31.78125 -1.421875 
Q 19.53125 -1.421875 13.0625 8.265625 
Q 6.59375 17.96875 6.59375 36.375 
Q 6.59375 54.828125 13.0625 64.515625 
Q 19.53125 74.21875 31.78125 74.21875 
z
" id="DejaVuSans-48"/>
      </defs>
      <g style="fill:#262626;" transform="translate(66.036932 270.918437)scale(0.1 -0.1)">
       <use xlink:href="#DejaVuSans-48"/>
      </g>
     </g>
    </g>
    <g id="xtick_2">
     <g id="line2d_2">
      <path clip-path="url(#pdec807aa94)" d="M 130.090909 256.32 
L 130.090909 34.56 
" style="fill:none;stroke:#cccccc;stroke-linecap:round;stroke-width:0.8;"/>
     </g>
     <g id="text_2">
      <!-- 20 -->
      <defs>
       <path d="M 19.1875 8.296875 
L 53.609375 8.296875 
L 53.609375 0 
L 7.328125 0 
L 7.328125 8.296875 
Q 12.9375 14.109375 22.625 23.890625 
Q 32.328125 33.6875 34.8125 36.53125 
Q 39.546875 41.84375 41.421875 45.53125 
Q 43.3125 49.21875 43.3125 52.78125 
Q 43.3125 58.59375 39.234375 62.25 
Q 35.15625 65.921875 28.609375 65.921875 
Q 23.96875 65.921875 18.8125 64.3125 
Q 13.671875 62.703125 7.8125 59.421875 
L 7.8125 69.390625 
Q 13.765625 71.78125 18.9375 73 
Q 24.125 74.21875 28.421875 74.21875 
Q 39.75 74.21875 46.484375 68.546875 
Q 53.21875 62.890625 53.21875 53.421875 
Q 53.21875 48.921875 51.53125 44.890625 
Q 49.859375 40.875 45.40625 35.40625 
Q 44.1875 33.984375 37.640625 27.21875 
Q 31.109375 20.453125 19.1875 8.296875 
z
" id="DejaVuSans-50"/>
      </defs>
      <g style="fill:#262626;" transform="translate(123.728409 270.918437)scale(0.1 -0.1)">
       <use xlink:href="#DejaVuSans-50"/>
       <use x="63.623047" xlink:href="#DejaVuSans-48"/>
      </g>
     </g>
    </g>
    <g id="xtick_3">
     <g id="line2d_3">
      <path clip-path="url(#pdec807aa94)" d="M 190.963636 256.32 
L 190.963636 34.56 
" style="fill:none;stroke:#cccccc;stroke-linecap:round;stroke-width:0.8;"/>
     </g>
     <g id="text_3">
      <!-- 40 -->
      <defs>
       <path d="M 37.796875 64.3125 
L 12.890625 25.390625 
L 37.796875 25.390625 
z
M 35.203125 72.90625 
L 47.609375 72.90625 
L 47.609375 25.390625 
L 58.015625 25.390625 
L 58.015625 17.1875 
L 47.609375 17.1875 
L 47.609375 0 
L 37.796875 0 
L 37.796875 17.1875 
L 4.890625 17.1875 
L 4.890625 26.703125 
z
" id="DejaVuSans-52"/>
      </defs>
      <g style="fill:#262626;" transform="translate(184.601136 270.918437)scale(0.1 -0.1)">
       <use xlink:href="#DejaVuSans-52"/>
       <use x="63.623047" xlink:href="#DejaVuSans-48"/>
      </g>
     </g>
    </g>
    <g id="xtick_4">
     <g id="line2d_4">
      <path clip-path="url(#pdec807aa94)" d="M 251.836364 256.32 
L 251.836364 34.56 
" style="fill:none;stroke:#cccccc;stroke-linecap:round;stroke-width:0.8;"/>
     </g>
     <g id="text_4">
      <!-- 60 -->
      <defs>
       <path d="M 33.015625 40.375 
Q 26.375 40.375 22.484375 35.828125 
Q 18.609375 31.296875 18.609375 23.390625 
Q 18.609375 15.53125 22.484375 10.953125 
Q 26.375 6.390625 33.015625 6.390625 
Q 39.65625 6.390625 43.53125 10.953125 
Q 47.40625 15.53125 47.40625 23.390625 
Q 47.40625 31.296875 43.53125 35.828125 
Q 39.65625 40.375 33.015625 40.375 
z
M 52.59375 71.296875 
L 52.59375 62.3125 
Q 48.875 64.0625 45.09375 64.984375 
Q 41.3125 65.921875 37.59375 65.921875 
Q 27.828125 65.921875 22.671875 59.328125 
Q 17.53125 52.734375 16.796875 39.40625 
Q 19.671875 43.65625 24.015625 45.921875 
Q 28.375 48.1875 33.59375 48.1875 
Q 44.578125 48.1875 50.953125 41.515625 
Q 57.328125 34.859375 57.328125 23.390625 
Q 57.328125 12.15625 50.6875 5.359375 
Q 44.046875 -1.421875 33.015625 -1.421875 
Q 20.359375 -1.421875 13.671875 8.265625 
Q 6.984375 17.96875 6.984375 36.375 
Q 6.984375 53.65625 15.1875 63.9375 
Q 23.390625 74.21875 37.203125 74.21875 
Q 40.921875 74.21875 44.703125 73.484375 
Q 48.484375 72.75 52.59375 71.296875 
z
" id="DejaVuSans-54"/>
      </defs>
      <g style="fill:#262626;" transform="translate(245.473864 270.918437)scale(0.1 -0.1)">
       <use xlink:href="#DejaVuSans-54"/>
       <use x="63.623047" xlink:href="#DejaVuSans-48"/>
      </g>
     </g>
    </g>
    <g id="xtick_5">
     <g id="line2d_5">
      <path clip-path="url(#pdec807aa94)" d="M 312.709091 256.32 
L 312.709091 34.56 
" style="fill:none;stroke:#cccccc;stroke-linecap:round;stroke-width:0.8;"/>
     </g>
     <g id="text_5">
      <!-- 80 -->
      <defs>
       <path d="M 31.78125 34.625 
Q 24.75 34.625 20.71875 30.859375 
Q 16.703125 27.09375 16.703125 20.515625 
Q 16.703125 13.921875 20.71875 10.15625 
Q 24.75 6.390625 31.78125 6.390625 
Q 38.8125 6.390625 42.859375 10.171875 
Q 46.921875 13.96875 46.921875 20.515625 
Q 46.921875 27.09375 42.890625 30.859375 
Q 38.875 34.625 31.78125 34.625 
z
M 21.921875 38.8125 
Q 15.578125 40.375 12.03125 44.71875 
Q 8.5 49.078125 8.5 55.328125 
Q 8.5 64.0625 14.71875 69.140625 
Q 20.953125 74.21875 31.78125 74.21875 
Q 42.671875 74.21875 48.875 69.140625 
Q 55.078125 64.0625 55.078125 55.328125 
Q 55.078125 49.078125 51.53125 44.71875 
Q 48 40.375 41.703125 38.8125 
Q 48.828125 37.15625 52.796875 32.3125 
Q 56.78125 27.484375 56.78125 20.515625 
Q 56.78125 9.90625 50.3125 4.234375 
Q 43.84375 -1.421875 31.78125 -1.421875 
Q 19.734375 -1.421875 13.25 4.234375 
Q 6.78125 9.90625 6.78125 20.515625 
Q 6.78125 27.484375 10.78125 32.3125 
Q 14.796875 37.15625 21.921875 38.8125 
z
M 18.3125 54.390625 
Q 18.3125 48.734375 21.84375 45.5625 
Q 25.390625 42.390625 31.78125 42.390625 
Q 38.140625 42.390625 41.71875 45.5625 
Q 45.3125 48.734375 45.3125 54.390625 
Q 45.3125 60.0625 41.71875 63.234375 
Q 38.140625 66.40625 31.78125 66.40625 
Q 25.390625 66.40625 21.84375 63.234375 
Q 18.3125 60.0625 18.3125 54.390625 
z
" id="DejaVuSans-56"/>
      </defs>
      <g style="fill:#262626;" transform="translate(306.346591 270.918437)scale(0.1 -0.1)">
       <use xlink:href="#DejaVuSans-56"/>
       <use x="63.623047" xlink:href="#DejaVuSans-48"/>
      </g>
     </g>
    </g>
    <g id="xtick_6">
     <g id="line2d_6">
      <path clip-path="url(#pdec807aa94)" d="M 373.581818 256.32 
L 373.581818 34.56 
" style="fill:none;stroke:#cccccc;stroke-linecap:round;stroke-width:0.8;"/>
     </g>
     <g id="text_6">
      <!-- 100 -->
      <defs>
       <path d="M 12.40625 8.296875 
L 28.515625 8.296875 
L 28.515625 63.921875 
L 10.984375 60.40625 
L 10.984375 69.390625 
L 28.421875 72.90625 
L 38.28125 72.90625 
L 38.28125 8.296875 
L 54.390625 8.296875 
L 54.390625 0 
L 12.40625 0 
z
" id="DejaVuSans-49"/>
      </defs>
      <g style="fill:#262626;" transform="translate(364.038068 270.918437)scale(0.1 -0.1)">
       <use xlink:href="#DejaVuSans-49"/>
       <use x="63.623047" xlink:href="#DejaVuSans-48"/>
       <use x="127.246094" xlink:href="#DejaVuSans-48"/>
      </g>
     </g>
    </g>
    <g id="text_7">
     <!-- epochs -->
     <defs>
      <path d="M 56.203125 29.59375 
L 56.203125 25.203125 
L 14.890625 25.203125 
Q 15.484375 15.921875 20.484375 11.0625 
Q 25.484375 6.203125 34.421875 6.203125 
Q 39.59375 6.203125 44.453125 7.46875 
Q 49.3125 8.734375 54.109375 11.28125 
L 54.109375 2.78125 
Q 49.265625 0.734375 44.1875 -0.34375 
Q 39.109375 -1.421875 33.890625 -1.421875 
Q 20.796875 -1.421875 13.15625 6.1875 
Q 5.515625 13.8125 5.515625 26.8125 
Q 5.515625 40.234375 12.765625 48.109375 
Q 20.015625 56 32.328125 56 
Q 43.359375 56 49.78125 48.890625 
Q 56.203125 41.796875 56.203125 29.59375 
z
M 47.21875 32.234375 
Q 47.125 39.59375 43.09375 43.984375 
Q 39.0625 48.390625 32.421875 48.390625 
Q 24.90625 48.390625 20.390625 44.140625 
Q 15.875 39.890625 15.1875 32.171875 
z
" id="DejaVuSans-101"/>
      <path d="M 18.109375 8.203125 
L 18.109375 -20.796875 
L 9.078125 -20.796875 
L 9.078125 54.6875 
L 18.109375 54.6875 
L 18.109375 46.390625 
Q 20.953125 51.265625 25.265625 53.625 
Q 29.59375 56 35.59375 56 
Q 45.5625 56 51.78125 48.09375 
Q 58.015625 40.1875 58.015625 27.296875 
Q 58.015625 14.40625 51.78125 6.484375 
Q 45.5625 -1.421875 35.59375 -1.421875 
Q 29.59375 -1.421875 25.265625 0.953125 
Q 20.953125 3.328125 18.109375 8.203125 
z
M 48.6875 27.296875 
Q 48.6875 37.203125 44.609375 42.84375 
Q 40.53125 48.484375 33.40625 48.484375 
Q 26.265625 48.484375 22.1875 42.84375 
Q 18.109375 37.203125 18.109375 27.296875 
Q 18.109375 17.390625 22.1875 11.75 
Q 26.265625 6.109375 33.40625 6.109375 
Q 40.53125 6.109375 44.609375 11.75 
Q 48.6875 17.390625 48.6875 27.296875 
z
" id="DejaVuSans-112"/>
      <path d="M 30.609375 48.390625 
Q 23.390625 48.390625 19.1875 42.75 
Q 14.984375 37.109375 14.984375 27.296875 
Q 14.984375 17.484375 19.15625 11.84375 
Q 23.34375 6.203125 30.609375 6.203125 
Q 37.796875 6.203125 41.984375 11.859375 
Q 46.1875 17.53125 46.1875 27.296875 
Q 46.1875 37.015625 41.984375 42.703125 
Q 37.796875 48.390625 30.609375 48.390625 
z
M 30.609375 56 
Q 42.328125 56 49.015625 48.375 
Q 55.71875 40.765625 55.71875 27.296875 
Q 55.71875 13.875 49.015625 6.21875 
Q 42.328125 -1.421875 30.609375 -1.421875 
Q 18.84375 -1.421875 12.171875 6.21875 
Q 5.515625 13.875 5.515625 27.296875 
Q 5.515625 40.765625 12.171875 48.375 
Q 18.84375 56 30.609375 56 
z
" id="DejaVuSans-111"/>
      <path d="M 48.78125 52.59375 
L 48.78125 44.1875 
Q 44.96875 46.296875 41.140625 47.34375 
Q 37.3125 48.390625 33.40625 48.390625 
Q 24.65625 48.390625 19.8125 42.84375 
Q 14.984375 37.3125 14.984375 27.296875 
Q 14.984375 17.28125 19.8125 11.734375 
Q 24.65625 6.203125 33.40625 6.203125 
Q 37.3125 6.203125 41.140625 7.25 
Q 44.96875 8.296875 48.78125 10.40625 
L 48.78125 2.09375 
Q 45.015625 0.34375 40.984375 -0.53125 
Q 36.96875 -1.421875 32.421875 -1.421875 
Q 20.0625 -1.421875 12.78125 6.34375 
Q 5.515625 14.109375 5.515625 27.296875 
Q 5.515625 40.671875 12.859375 48.328125 
Q 20.21875 56 33.015625 56 
Q 37.15625 56 41.109375 55.140625 
Q 45.0625 54.296875 48.78125 52.59375 
z
" id="DejaVuSans-99"/>
      <path d="M 54.890625 33.015625 
L 54.890625 0 
L 45.90625 0 
L 45.90625 32.71875 
Q 45.90625 40.484375 42.875 44.328125 
Q 39.84375 48.1875 33.796875 48.1875 
Q 26.515625 48.1875 22.3125 43.546875 
Q 18.109375 38.921875 18.109375 30.90625 
L 18.109375 0 
L 9.078125 0 
L 9.078125 75.984375 
L 18.109375 75.984375 
L 18.109375 46.1875 
Q 21.34375 51.125 25.703125 53.5625 
Q 30.078125 56 35.796875 56 
Q 45.21875 56 50.046875 50.171875 
Q 54.890625 44.34375 54.890625 33.015625 
z
" id="DejaVuSans-104"/>
      <path d="M 44.28125 53.078125 
L 44.28125 44.578125 
Q 40.484375 46.53125 36.375 47.5 
Q 32.28125 48.484375 27.875 48.484375 
Q 21.1875 48.484375 17.84375 46.4375 
Q 14.5 44.390625 14.5 40.28125 
Q 14.5 37.15625 16.890625 35.375 
Q 19.28125 33.59375 26.515625 31.984375 
L 29.59375 31.296875 
Q 39.15625 29.25 43.1875 25.515625 
Q 47.21875 21.78125 47.21875 15.09375 
Q 47.21875 7.46875 41.1875 3.015625 
Q 35.15625 -1.421875 24.609375 -1.421875 
Q 20.21875 -1.421875 15.453125 -0.5625 
Q 10.6875 0.296875 5.421875 2 
L 5.421875 11.28125 
Q 10.40625 8.6875 15.234375 7.390625 
Q 20.0625 6.109375 24.8125 6.109375 
Q 31.15625 6.109375 34.5625 8.28125 
Q 37.984375 10.453125 37.984375 14.40625 
Q 37.984375 18.0625 35.515625 20.015625 
Q 33.0625 21.96875 24.703125 23.78125 
L 21.578125 24.515625 
Q 13.234375 26.265625 9.515625 29.90625 
Q 5.8125 33.546875 5.8125 39.890625 
Q 5.8125 47.609375 11.28125 51.796875 
Q 16.75 56 26.8125 56 
Q 31.78125 56 36.171875 55.265625 
Q 40.578125 54.546875 44.28125 53.078125 
z
" id="DejaVuSans-115"/>
     </defs>
     <g style="fill:#262626;" transform="translate(203.567188 284.596563)scale(0.1 -0.1)">
      <use xlink:href="#DejaVuSans-101"/>
      <use x="61.523438" xlink:href="#DejaVuSans-112"/>
      <use x="125" xlink:href="#DejaVuSans-111"/>
      <use x="186.181641" xlink:href="#DejaVuSans-99"/>
      <use x="241.162109" xlink:href="#DejaVuSans-104"/>
      <use x="304.541016" xlink:href="#DejaVuSans-115"/>
     </g>
    </g>
   </g>
   <g id="matplotlib.axis_2">
    <g id="ytick_1">
     <g id="line2d_7">
      <path clip-path="url(#pdec807aa94)" d="M 54 234.542509 
L 388.8 234.542509 
" style="fill:none;stroke:#cccccc;stroke-linecap:round;stroke-width:0.8;"/>
     </g>
     <g id="text_8">
      <!-- −20 -->
      <defs>
       <path d="M 10.59375 35.5 
L 73.1875 35.5 
L 73.1875 27.203125 
L 10.59375 27.203125 
z
" id="DejaVuSans-8722"/>
      </defs>
      <g style="fill:#262626;" transform="translate(25.895312 238.341728)scale(0.1 -0.1)">
       <use xlink:href="#DejaVuSans-8722"/>
       <use x="83.789062" xlink:href="#DejaVuSans-50"/>
       <use x="147.412109" xlink:href="#DejaVuSans-48"/>
      </g>
     </g>
    </g>
    <g id="ytick_2">
     <g id="line2d_8">
      <path clip-path="url(#pdec807aa94)" d="M 54 192.197511 
L 388.8 192.197511 
" style="fill:none;stroke:#cccccc;stroke-linecap:round;stroke-width:0.8;"/>
     </g>
     <g id="text_9">
      <!-- −10 -->
      <g style="fill:#262626;" transform="translate(25.895312 195.996729)scale(0.1 -0.1)">
       <use xlink:href="#DejaVuSans-8722"/>
       <use x="83.789062" xlink:href="#DejaVuSans-49"/>
       <use x="147.412109" xlink:href="#DejaVuSans-48"/>
      </g>
     </g>
    </g>
    <g id="ytick_3">
     <g id="line2d_9">
      <path clip-path="url(#pdec807aa94)" d="M 54 149.852512 
L 388.8 149.852512 
" style="fill:none;stroke:#cccccc;stroke-linecap:round;stroke-width:0.8;"/>
     </g>
     <g id="text_10">
      <!-- 0 -->
      <g style="fill:#262626;" transform="translate(40.6375 153.651731)scale(0.1 -0.1)">
       <use xlink:href="#DejaVuSans-48"/>
      </g>
     </g>
    </g>
    <g id="ytick_4">
     <g id="line2d_10">
      <path clip-path="url(#pdec807aa94)" d="M 54 107.507513 
L 388.8 107.507513 
" style="fill:none;stroke:#cccccc;stroke-linecap:round;stroke-width:0.8;"/>
     </g>
     <g id="text_11">
      <!-- 10 -->
      <g style="fill:#262626;" transform="translate(34.275 111.306732)scale(0.1 -0.1)">
       <use xlink:href="#DejaVuSans-49"/>
       <use x="63.623047" xlink:href="#DejaVuSans-48"/>
      </g>
     </g>
    </g>
    <g id="ytick_5">
     <g id="line2d_11">
      <path clip-path="url(#pdec807aa94)" d="M 54 65.162514 
L 388.8 65.162514 
" style="fill:none;stroke:#cccccc;stroke-linecap:round;stroke-width:0.8;"/>
     </g>
     <g id="text_12">
      <!-- 20 -->
      <g style="fill:#262626;" transform="translate(34.275 68.961733)scale(0.1 -0.1)">
       <use xlink:href="#DejaVuSans-50"/>
       <use x="63.623047" xlink:href="#DejaVuSans-48"/>
      </g>
     </g>
    </g>
    <g id="text_13">
     <!-- score -->
     <defs>
      <path d="M 41.109375 46.296875 
Q 39.59375 47.171875 37.8125 47.578125 
Q 36.03125 48 33.890625 48 
Q 26.265625 48 22.1875 43.046875 
Q 18.109375 38.09375 18.109375 28.8125 
L 18.109375 0 
L 9.078125 0 
L 9.078125 54.6875 
L 18.109375 54.6875 
L 18.109375 46.1875 
Q 20.953125 51.171875 25.484375 53.578125 
Q 30.03125 56 36.53125 56 
Q 37.453125 56 38.578125 55.875 
Q 39.703125 55.765625 41.0625 55.515625 
z
" id="DejaVuSans-114"/>
     </defs>
     <g style="fill:#262626;" transform="translate(19.815625 158.872813)rotate(-90)scale(0.1 -0.1)">
      <use xlink:href="#DejaVuSans-115"/>
      <use x="52.099609" xlink:href="#DejaVuSans-99"/>
      <use x="107.080078" xlink:href="#DejaVuSans-111"/>
      <use x="168.261719" xlink:href="#DejaVuSans-114"/>
      <use x="207.125" xlink:href="#DejaVuSans-101"/>
     </g>
    </g>
   </g>
   <g id="PolyCollection_1">
    <defs>
     <path d="M 69.218182 -49.222991 
L 69.218182 -49.222991 
L 72.261818 -48.771311 
L 75.305455 -49.139756 
L 78.349091 -48.920527 
L 81.392727 -48.940691 
L 84.436364 -49.089646 
L 87.48 -49.026268 
L 90.523636 -49.280141 
L 93.567273 -48.217491 
L 96.610909 -47.041147 
L 99.654545 -46.776803 
L 102.698182 -55.019462 
L 105.741818 -59.878609 
L 108.785455 -59.558123 
L 111.829091 -57.783193 
L 114.872727 -64.109043 
L 117.916364 -69.616684 
L 120.96 -72.976692 
L 124.003636 -67.009626 
L 127.047273 -67.826714 
L 130.090909 -62.850408 
L 133.134545 -66.217181 
L 136.178182 -65.450628 
L 139.221818 -72.782803 
L 142.265455 -82.856196 
L 145.309091 -70.564454 
L 148.352727 -73.134219 
L 151.396364 -72.278472 
L 154.44 -77.670356 
L 157.483636 -79.609203 
L 160.527273 -92.680307 
L 163.570909 -82.605615 
L 166.614545 -83.310453 
L 169.658182 -94.653105 
L 172.701818 -96.253369 
L 175.745455 -116.626187 
L 178.789091 -104.884543 
L 181.832727 -134.722169 
L 184.876364 -114.87298 
L 187.92 -102.995021 
L 190.963636 -133.811938 
L 194.007273 -128.481387 
L 197.050909 -148.863133 
L 200.094545 -150.965711 
L 203.138182 -145.628569 
L 206.181818 -154.198651 
L 209.225455 -165.859769 
L 212.269091 -176.120606 
L 215.312727 -159.377044 
L 218.356364 -160.839801 
L 221.4 -176.471376 
L 224.443636 -176.979277 
L 227.487273 -182.949963 
L 230.530909 -186.152781 
L 233.574545 -174.39885 
L 236.618182 -186.020663 
L 239.661818 -178.225132 
L 242.705455 -195.014943 
L 245.749091 -189.394043 
L 248.792727 -198.428127 
L 251.836364 -203.367853 
L 254.88 -201.221618 
L 257.923636 -199.184011 
L 260.967273 -205.103288 
L 264.010909 -209.649807 
L 267.054545 -195.186262 
L 270.098182 -205.57773 
L 273.141818 -197.019711 
L 276.185455 -212.389497 
L 279.229091 -206.437009 
L 282.272727 -205.639517 
L 285.316364 -212.815836 
L 288.36 -207.2084 
L 291.403636 -184.735197 
L 294.447273 -210.906561 
L 297.490909 -210.864659 
L 300.534545 -216.062286 
L 303.578182 -197.008081 
L 306.621818 -211.351101 
L 309.665455 -212.214012 
L 312.709091 -213.071091 
L 315.752727 -210.784668 
L 318.796364 -211.325602 
L 321.84 -211.680227 
L 324.883636 -188.527971 
L 327.927273 -206.87078 
L 330.970909 -203.3378 
L 334.014545 -212.51302 
L 337.058182 -211.89311 
L 340.101818 -210.736395 
L 343.145455 -210.746659 
L 346.189091 -215.58101 
L 349.232727 -213.04642 
L 352.276364 -211.497625 
L 355.32 -202.64418 
L 358.363636 -199.365984 
L 361.407273 -204.171158 
L 364.450909 -212.918726 
L 367.494545 -211.187953 
L 370.538182 -182.176709 
L 373.581818 -210.730229 
L 373.581818 -218.3697 
L 373.581818 -218.3697 
L 370.538182 -223.270513 
L 367.494545 -218.678219 
L 364.450909 -219.205846 
L 361.407273 -216.830794 
L 358.363636 -224.176668 
L 355.32 -214.800792 
L 352.276364 -216.957047 
L 349.232727 -219.199138 
L 346.189091 -219.084261 
L 343.145455 -219.401813 
L 340.101818 -219.129777 
L 337.058182 -218.537662 
L 334.014545 -219.450237 
L 330.970909 -220.712992 
L 327.927273 -212.832592 
L 324.883636 -221.633661 
L 321.84 -217.903645 
L 318.796364 -218.911593 
L 315.752727 -218.799204 
L 312.709091 -220.46498 
L 309.665455 -217.53924 
L 306.621818 -218.515071 
L 303.578182 -220.860342 
L 300.534545 -217.756086 
L 297.490909 -218.098153 
L 294.447273 -218.507931 
L 291.403636 -223.845556 
L 288.36 -219.487946 
L 285.316364 -213.945036 
L 282.272727 -214.967215 
L 279.229091 -217.500863 
L 276.185455 -218.162261 
L 273.141818 -219.013761 
L 270.098182 -217.230942 
L 267.054545 -225.404339 
L 264.010909 -218.240265 
L 260.967273 -216.180964 
L 257.923636 -217.244681 
L 254.88 -220.965995 
L 251.836364 -216.279059 
L 248.792727 -210.717226 
L 245.749091 -207.499489 
L 242.705455 -209.33131 
L 239.661818 -207.602241 
L 236.618182 -215.27675 
L 233.574545 -199.233164 
L 230.530909 -208.341202 
L 227.487273 -203.32909 
L 224.443636 -194.591946 
L 221.4 -197.668778 
L 218.356364 -199.382963 
L 215.312727 -191.44513 
L 212.269091 -205.189967 
L 209.225455 -182.280555 
L 206.181818 -171.075374 
L 203.138182 -183.597656 
L 200.094545 -169.085764 
L 197.050909 -167.094992 
L 194.007273 -165.739639 
L 190.963636 -167.184287 
L 187.92 -151.845156 
L 184.876364 -153.094147 
L 181.832727 -171.073157 
L 178.789091 -144.309634 
L 175.745455 -131.297641 
L 172.701818 -117.65331 
L 169.658182 -115.668363 
L 166.614545 -102.366226 
L 163.570909 -115.689874 
L 160.527273 -119.250271 
L 157.483636 -108.777556 
L 154.44 -131.634833 
L 151.396364 -87.652448 
L 148.352727 -95.94322 
L 145.309091 -87.785586 
L 142.265455 -97.315633 
L 139.221818 -98.242506 
L 136.178182 -87.140492 
L 133.134545 -87.700749 
L 130.090909 -89.345492 
L 127.047273 -85.950066 
L 124.003636 -92.836604 
L 120.96 -84.978128 
L 117.916364 -79.897366 
L 114.872727 -79.533167 
L 111.829091 -78.886208 
L 108.785455 -102.066597 
L 105.741818 -87.461731 
L 102.698182 -72.744046 
L 99.654545 -69.496888 
L 96.610909 -64.113376 
L 93.567273 -54.43476 
L 90.523636 -54.23111 
L 87.48 -52.162057 
L 84.436364 -50.238523 
L 81.392727 -50.069891 
L 78.349091 -50.130384 
L 75.305455 -51.063543 
L 72.261818 -50.578031 
L 69.218182 -49.222991 
z
" id="m32ba0598ca" style="stroke:#ffffff;stroke-opacity:0.5;"/>
    </defs>
    <g clip-path="url(#pdec807aa94)">
     <use style="fill:#1f77b4;fill-opacity:0.5;stroke:#ffffff;stroke-opacity:0.5;" x="0" xlink:href="#m32ba0598ca" y="288"/>
    </g>
   </g>
   <g id="PolyCollection_2">
    <defs>
     <path d="M 69.218182 -49.222991 
L 69.218182 -49.222991 
L 72.261818 -49.222991 
L 75.305455 -49.227929 
L 78.349091 -48.688226 
L 81.392727 -48.446666 
L 84.436364 -48.567148 
L 87.48 -49.523063 
L 90.523636 -49.936939 
L 93.567273 -49.233911 
L 96.610909 -49.713294 
L 99.654545 -49.234131 
L 102.698182 -54.443926 
L 105.741818 -57.929957 
L 108.785455 -58.378122 
L 111.829091 -63.435365 
L 114.872727 -63.988847 
L 117.916364 -67.006002 
L 120.96 -67.508908 
L 124.003636 -62.048705 
L 127.047273 -74.068487 
L 130.090909 -71.939006 
L 133.134545 -64.388085 
L 136.178182 -73.990582 
L 139.221818 -71.711371 
L 142.265455 -69.086279 
L 145.309091 -80.352946 
L 148.352727 -77.533565 
L 151.396364 -68.70169 
L 154.44 -89.598812 
L 157.483636 -83.292851 
L 160.527273 -72.041669 
L 163.570909 -86.012797 
L 166.614545 -72.425936 
L 169.658182 -76.841292 
L 172.701818 -93.454845 
L 175.745455 -88.824958 
L 178.789091 -111.467631 
L 181.832727 -107.698399 
L 184.876364 -106.339918 
L 187.92 -129.37126 
L 190.963636 -109.393699 
L 194.007273 -113.655072 
L 197.050909 -114.498559 
L 200.094545 -135.241832 
L 203.138182 -124.211482 
L 206.181818 -126.037927 
L 209.225455 -135.61462 
L 212.269091 -144.721294 
L 215.312727 -137.94119 
L 218.356364 -141.060039 
L 221.4 -155.749637 
L 224.443636 -152.035348 
L 227.487273 -147.269195 
L 230.530909 -164.865526 
L 233.574545 -164.031538 
L 236.618182 -162.137934 
L 239.661818 -166.933915 
L 242.705455 -184.467318 
L 245.749091 -196.054081 
L 248.792727 -184.13703 
L 251.836364 -152.303556 
L 254.88 -184.344622 
L 257.923636 -193.922937 
L 260.967273 -205.070983 
L 264.010909 -170.781096 
L 267.054545 -205.22329 
L 270.098182 -205.862854 
L 273.141818 -213.072205 
L 276.185455 -206.180701 
L 279.229091 -196.209668 
L 282.272727 -208.008135 
L 285.316364 -189.853656 
L 288.36 -205.275213 
L 291.403636 -206.144258 
L 294.447273 -213.910094 
L 297.490909 -206.341117 
L 300.534545 -210.959042 
L 303.578182 -203.120968 
L 306.621818 -207.621021 
L 309.665455 -209.979017 
L 312.709091 -211.798019 
L 315.752727 -208.692355 
L 318.796364 -210.547371 
L 321.84 -207.030199 
L 324.883636 -213.944605 
L 327.927273 -189.576277 
L 330.970909 -205.742405 
L 334.014545 -206.409018 
L 337.058182 -204.43333 
L 340.101818 -208.597659 
L 343.145455 -214.683204 
L 346.189091 -211.945655 
L 349.232727 -211.625238 
L 352.276364 -213.191425 
L 355.32 -207.096146 
L 358.363636 -212.424804 
L 361.407273 -211.304971 
L 364.450909 -207.851721 
L 367.494545 -213.105821 
L 370.538182 -211.008131 
L 373.581818 -210.509308 
L 373.581818 -219.300404 
L 373.581818 -219.300404 
L 370.538182 -218.29344 
L 367.494545 -218.494479 
L 364.450909 -217.158891 
L 361.407273 -216.641561 
L 358.363636 -215.465268 
L 355.32 -212.663686 
L 352.276364 -218.650847 
L 349.232727 -217.918305 
L 346.189091 -217.55756 
L 343.145455 -217.723668 
L 340.101818 -215.904813 
L 337.058182 -217.246142 
L 334.014545 -214.423554 
L 330.970909 -216.162908 
L 327.927273 -221.488715 
L 324.883636 -218.663909 
L 321.84 -216.512453 
L 318.796364 -216.495801 
L 315.752727 -216.657017 
L 312.709091 -218.794067 
L 309.665455 -217.790069 
L 306.621818 -214.058451 
L 303.578182 -216.638864 
L 300.534545 -219.18943 
L 297.490909 -216.185255 
L 294.447273 -218.666158 
L 291.403636 -216.438574 
L 288.36 -216.686559 
L 285.316364 -216.553386 
L 282.272727 -214.687617 
L 279.229091 -215.165855 
L 276.185455 -217.192572 
L 273.141818 -217.802181 
L 270.098182 -216.494138 
L 267.054545 -216.060962 
L 264.010909 -214.876897 
L 260.967273 -215.535749 
L 257.923636 -209.689335 
L 254.88 -212.802981 
L 251.836364 -217.235107 
L 248.792727 -211.175623 
L 245.749091 -212.300832 
L 242.705455 -203.900755 
L 239.661818 -199.781748 
L 236.618182 -197.54846 
L 233.574545 -207.031545 
L 230.530909 -206.112868 
L 227.487273 -207.900399 
L 224.443636 -194.806396 
L 221.4 -192.418917 
L 218.356364 -192.203075 
L 215.312727 -188.490265 
L 212.269091 -179.423531 
L 209.225455 -187.118705 
L 206.181818 -174.393699 
L 203.138182 -175.373244 
L 200.094545 -176.481793 
L 197.050909 -151.633618 
L 194.007273 -139.491305 
L 190.963636 -176.358327 
L 187.92 -157.368816 
L 184.876364 -168.825859 
L 181.832727 -122.863979 
L 178.789091 -167.085745 
L 175.745455 -119.209881 
L 172.701818 -122.286783 
L 169.658182 -134.101237 
L 166.614545 -123.695843 
L 163.570909 -123.659382 
L 160.527273 -142.090849 
L 157.483636 -104.501078 
L 154.44 -103.982267 
L 151.396364 -92.41489 
L 148.352727 -84.994514 
L 145.309091 -92.055634 
L 142.265455 -91.042251 
L 139.221818 -84.464959 
L 136.178182 -84.585298 
L 133.134545 -86.001095 
L 130.090909 -80.934414 
L 127.047273 -82.107843 
L 124.003636 -79.165725 
L 120.96 -79.097452 
L 117.916364 -84.201849 
L 114.872727 -74.289664 
L 111.829091 -71.794306 
L 108.785455 -65.587779 
L 105.741818 -75.464764 
L 102.698182 -63.042274 
L 99.654545 -54.041197 
L 96.610909 -52.63875 
L 93.567273 -53.742701 
L 90.523636 -52.808801 
L 87.48 -51.075844 
L 84.436364 -54.932314 
L 81.392727 -51.551966 
L 78.349091 -51.324521 
L 75.305455 -50.025632 
L 72.261818 -49.222991 
L 69.218182 -49.222991 
z
" id="m2526cc2574" style="stroke:#ffffff;stroke-opacity:0.5;"/>
    </defs>
    <g clip-path="url(#pdec807aa94)">
     <use style="fill:#ff7f0e;fill-opacity:0.5;stroke:#ffffff;stroke-opacity:0.5;" x="0" xlink:href="#m2526cc2574" y="288"/>
    </g>
   </g>
   <g id="PolyCollection_3">
    <defs>
     <path d="M 69.218182 -49.222991 
L 69.218182 -49.222991 
L 72.261818 -48.021662 
L 75.305455 -49.064197 
L 78.349091 -49.047923 
L 81.392727 -49.166531 
L 84.436364 -49.570934 
L 87.48 -47.920068 
L 90.523636 -49.363144 
L 93.567273 -47.929657 
L 96.610909 -51.562139 
L 99.654545 -49.441647 
L 102.698182 -49.667229 
L 105.741818 -55.783716 
L 108.785455 -57.597447 
L 111.829091 -69.26483 
L 114.872727 -64.802584 
L 117.916364 -66.393907 
L 120.96 -67.542809 
L 124.003636 -69.27104 
L 127.047273 -63.430784 
L 130.090909 -72.963509 
L 133.134545 -65.513818 
L 136.178182 -72.261055 
L 139.221818 -71.830536 
L 142.265455 -74.492578 
L 145.309091 -73.231346 
L 148.352727 -73.376191 
L 151.396364 -71.170647 
L 154.44 -71.565182 
L 157.483636 -66.621574 
L 160.527273 -73.24111 
L 163.570909 -62.801349 
L 166.614545 -72.711103 
L 169.658182 -66.288815 
L 172.701818 -71.312138 
L 175.745455 -80.654892 
L 178.789091 -71.503565 
L 181.832727 -74.335101 
L 184.876364 -78.741395 
L 187.92 -72.949493 
L 190.963636 -81.593303 
L 194.007273 -80.754616 
L 197.050909 -84.166348 
L 200.094545 -79.820894 
L 203.138182 -77.354655 
L 206.181818 -88.426396 
L 209.225455 -81.433064 
L 212.269091 -91.875533 
L 215.312727 -91.239167 
L 218.356364 -112.290709 
L 221.4 -109.504628 
L 224.443636 -110.897598 
L 227.487273 -116.53904 
L 230.530909 -147.817145 
L 233.574545 -128.951621 
L 236.618182 -126.842661 
L 239.661818 -129.828042 
L 242.705455 -150.284337 
L 245.749091 -151.480094 
L 248.792727 -135.53433 
L 251.836364 -182.93585 
L 254.88 -170.98549 
L 257.923636 -173.247033 
L 260.967273 -172.56526 
L 264.010909 -187.18162 
L 267.054545 -189.341609 
L 270.098182 -178.345198 
L 273.141818 -188.450035 
L 276.185455 -178.737319 
L 279.229091 -206.492316 
L 282.272727 -170.559065 
L 285.316364 -205.382475 
L 288.36 -178.30446 
L 291.403636 -182.252651 
L 294.447273 -190.680404 
L 297.490909 -188.093433 
L 300.534545 -192.534806 
L 303.578182 -204.148387 
L 306.621818 -202.618521 
L 309.665455 -184.648693 
L 312.709091 -196.310578 
L 315.752727 -207.511926 
L 318.796364 -206.591859 
L 321.84 -168.314737 
L 324.883636 -203.775644 
L 327.927273 -205.480742 
L 330.970909 -206.214097 
L 334.014545 -208.626969 
L 337.058182 -210.911095 
L 340.101818 -198.787206 
L 343.145455 -211.081707 
L 346.189091 -211.135128 
L 349.232727 -211.090281 
L 352.276364 -209.763053 
L 355.32 -200.158791 
L 358.363636 -212.198712 
L 361.407273 -212.440108 
L 364.450909 -211.947842 
L 367.494545 -201.882678 
L 370.538182 -206.842224 
L 373.581818 -196.72158 
L 373.581818 -213.891733 
L 373.581818 -213.891733 
L 370.538182 -215.909988 
L 367.494545 -219.006354 
L 364.450909 -217.63603 
L 361.407273 -215.732264 
L 358.363636 -219.07896 
L 355.32 -217.60881 
L 352.276364 -218.860999 
L 349.232727 -214.259091 
L 346.189091 -218.731044 
L 343.145455 -221.405821 
L 340.101818 -216.342906 
L 337.058182 -217.261277 
L 334.014545 -216.440103 
L 330.970909 -211.287335 
L 327.927273 -222.409329 
L 324.883636 -215.024368 
L 321.84 -226.687386 
L 318.796364 -213.337353 
L 315.752727 -214.449846 
L 312.709091 -212.383094 
L 309.665455 -209.87352 
L 306.621818 -214.036011 
L 303.578182 -214.595165 
L 300.534545 -218.417266 
L 297.490909 -211.84894 
L 294.447273 -217.759198 
L 291.403636 -213.624602 
L 288.36 -209.866003 
L 285.316364 -213.925677 
L 282.272727 -217.865468 
L 279.229091 -217.106796 
L 276.185455 -211.014024 
L 273.141818 -215.162238 
L 270.098182 -210.389865 
L 267.054545 -224.828683 
L 264.010909 -210.191823 
L 260.967273 -209.140533 
L 257.923636 -221.1058 
L 254.88 -213.345693 
L 251.836364 -211.304063 
L 248.792727 -196.373744 
L 245.749091 -195.05112 
L 242.705455 -190.318577 
L 239.661818 -180.201784 
L 236.618182 -170.342515 
L 233.574545 -173.314955 
L 230.530909 -170.39938 
L 227.487273 -165.966536 
L 224.443636 -160.457128 
L 221.4 -154.651449 
L 218.356364 -135.774268 
L 215.312727 -170.94081 
L 212.269091 -146.308945 
L 209.225455 -132.332465 
L 206.181818 -106.989633 
L 203.138182 -138.386973 
L 200.094545 -123.922984 
L 197.050909 -97.275832 
L 194.007273 -126.376863 
L 190.963636 -113.258126 
L 187.92 -106.064906 
L 184.876364 -114.388004 
L 181.832727 -115.463158 
L 178.789091 -97.771485 
L 175.745455 -103.723207 
L 172.701818 -96.127961 
L 169.658182 -88.984155 
L 166.614545 -89.901666 
L 163.570909 -100.206641 
L 160.527273 -91.99705 
L 157.483636 -83.485307 
L 154.44 -97.371107 
L 151.396364 -92.486633 
L 148.352727 -100.443888 
L 145.309091 -104.710314 
L 142.265455 -86.482852 
L 139.221818 -98.884244 
L 136.178182 -80.527675 
L 133.134545 -74.543182 
L 130.090909 -80.615661 
L 127.047273 -81.001866 
L 124.003636 -81.51336 
L 120.96 -85.528221 
L 117.916364 -89.641273 
L 114.872727 -76.968381 
L 111.829091 -80.587981 
L 108.785455 -69.981894 
L 105.741818 -65.895555 
L 102.698182 -62.17456 
L 99.654545 -61.92512 
L 96.610909 -54.394366 
L 93.567273 -54.201623 
L 90.523636 -51.75873 
L 87.48 -53.13176 
L 84.436364 -52.159204 
L 81.392727 -49.392371 
L 78.349091 -50.228827 
L 75.305455 -49.699372 
L 72.261818 -54.293113 
L 69.218182 -49.222991 
z
" id="m91c25ee998" style="stroke:#ffffff;stroke-opacity:0.5;"/>
    </defs>
    <g clip-path="url(#pdec807aa94)">
     <use style="fill:#2ca02c;fill-opacity:0.5;stroke:#ffffff;stroke-opacity:0.5;" x="0" xlink:href="#m91c25ee998" y="288"/>
    </g>
   </g>
   <g id="PolyCollection_4">
    <defs>
     <path d="M 69.218182 -49.392371 
L 69.218182 -49.166531 
L 72.261818 -49.064197 
L 75.305455 -49.201397 
L 78.349091 -49.252621 
L 81.392727 -49.262625 
L 84.436364 -49.214886 
L 87.48 -49.096119 
L 90.523636 -49.110071 
L 93.567273 -49.043667 
L 96.610909 -48.904587 
L 99.654545 -48.552792 
L 102.698182 -49.281373 
L 105.741818 -49.772582 
L 108.785455 -48.707609 
L 111.829091 -48.721344 
L 114.872727 -49.413408 
L 117.916364 -48.616598 
L 120.96 -49.393676 
L 124.003636 -48.369843 
L 127.047273 -50.436228 
L 130.090909 -48.518872 
L 133.134545 -49.233944 
L 136.178182 -48.711322 
L 139.221818 -49.356666 
L 142.265455 -49.162537 
L 145.309091 -49.091671 
L 148.352727 -50.095939 
L 151.396364 -51.369924 
L 154.44 -49.026763 
L 157.483636 -51.162147 
L 160.527273 -50.760325 
L 163.570909 -56.813136 
L 166.614545 -58.91138 
L 169.658182 -61.027465 
L 172.701818 -63.744108 
L 175.745455 -69.627687 
L 178.789091 -66.363075 
L 181.832727 -60.245725 
L 184.876364 -62.466094 
L 187.92 -64.172537 
L 190.963636 -60.162066 
L 194.007273 -62.707326 
L 197.050909 -66.462672 
L 200.094545 -67.504561 
L 203.138182 -69.89805 
L 206.181818 -68.860115 
L 209.225455 -74.339771 
L 212.269091 -73.932202 
L 215.312727 -69.472256 
L 218.356364 -61.879959 
L 221.4 -66.887846 
L 224.443636 -81.058489 
L 227.487273 -68.590715 
L 230.530909 -69.716008 
L 233.574545 -67.458404 
L 236.618182 -77.837254 
L 239.661818 -80.458487 
L 242.705455 -94.451669 
L 245.749091 -90.078461 
L 248.792727 -84.459107 
L 251.836364 -89.960935 
L 254.88 -93.058178 
L 257.923636 -87.375739 
L 260.967273 -99.322577 
L 264.010909 -107.704214 
L 267.054545 -109.377736 
L 270.098182 -103.172708 
L 273.141818 -105.282866 
L 276.185455 -124.713686 
L 279.229091 -112.607782 
L 282.272727 -135.084418 
L 285.316364 -149.635362 
L 288.36 -143.979203 
L 291.403636 -146.876833 
L 294.447273 -135.470267 
L 297.490909 -156.180869 
L 300.534545 -140.371367 
L 303.578182 -167.870596 
L 306.621818 -131.39628 
L 309.665455 -158.673919 
L 312.709091 -173.824026 
L 315.752727 -156.800932 
L 318.796364 -181.013708 
L 321.84 -163.629017 
L 324.883636 -189.410178 
L 327.927273 -187.349973 
L 330.970909 -169.26018 
L 334.014545 -196.838491 
L 337.058182 -189.112824 
L 340.101818 -179.571747 
L 343.145455 -182.550141 
L 346.189091 -193.177614 
L 349.232727 -195.521031 
L 352.276364 -187.618009 
L 355.32 -183.79689 
L 358.363636 -190.591466 
L 361.407273 -188.386421 
L 364.450909 -199.926501 
L 367.494545 -191.451833 
L 370.538182 -201.372613 
L 373.581818 -204.76827 
L 373.581818 -214.652802 
L 373.581818 -214.652802 
L 370.538182 -213.24936 
L 367.494545 -216.11264 
L 364.450909 -211.420791 
L 361.407273 -210.821972 
L 358.363636 -212.794966 
L 355.32 -214.225843 
L 352.276364 -210.094194 
L 349.232727 -212.099902 
L 346.189091 -209.982978 
L 343.145455 -212.028532 
L 340.101818 -207.215446 
L 337.058182 -219.552618 
L 334.014545 -215.214551 
L 330.970909 -217.385863 
L 327.927273 -210.47515 
L 324.883636 -207.144595 
L 321.84 -208.817337 
L 318.796364 -208.003655 
L 315.752727 -205.087402 
L 312.709091 -207.063097 
L 309.665455 -208.211125 
L 306.621818 -189.502095 
L 303.578182 -185.915728 
L 300.534545 -198.650667 
L 297.490909 -198.791115 
L 294.447273 -169.901609 
L 291.403636 -197.198372 
L 288.36 -189.199221 
L 285.316364 -184.531113 
L 282.272727 -174.917177 
L 279.229091 -171.591594 
L 276.185455 -175.85909 
L 273.141818 -160.990461 
L 270.098182 -174.533768 
L 267.054545 -173.15607 
L 264.010909 -134.150164 
L 260.967273 -115.431001 
L 257.923636 -151.937938 
L 254.88 -142.16215 
L 251.836364 -140.460293 
L 248.792727 -110.392322 
L 245.749091 -130.179967 
L 242.705455 -114.09131 
L 239.661818 -108.605792 
L 236.618182 -120.966374 
L 233.574545 -106.079375 
L 230.530909 -87.081382 
L 227.487273 -97.268504 
L 224.443636 -94.99176 
L 221.4 -90.135384 
L 218.356364 -80.350751 
L 215.312727 -83.316474 
L 212.269091 -82.357048 
L 209.225455 -79.832229 
L 206.181818 -81.529065 
L 203.138182 -86.64527 
L 200.094545 -81.58604 
L 197.050909 -82.458548 
L 194.007273 -75.204195 
L 190.963636 -73.926306 
L 187.92 -81.474003 
L 184.876364 -77.252147 
L 181.832727 -80.65011 
L 178.789091 -74.210132 
L 175.745455 -82.991663 
L 172.701818 -82.015352 
L 169.658182 -81.062095 
L 166.614545 -85.65301 
L 163.570909 -71.292182 
L 160.527273 -73.899227 
L 157.483636 -62.231619 
L 154.44 -65.610603 
L 151.396364 -70.031305 
L 148.352727 -58.637494 
L 145.309091 -53.835915 
L 142.265455 -52.268767 
L 139.221818 -53.872284 
L 136.178182 -52.284666 
L 133.134545 -50.871093 
L 130.090909 -51.628976 
L 127.047273 -55.397947 
L 124.003636 -55.56889 
L 120.96 -52.633483 
L 117.916364 -51.861943 
L 114.872727 -51.890318 
L 111.829091 -54.045999 
L 108.785455 -52.758983 
L 105.741818 -50.42366 
L 102.698182 -50.958842 
L 99.654545 -51.830202 
L 96.610909 -50.429011 
L 93.567273 -51.86639 
L 90.523636 -49.561751 
L 87.48 -49.853659 
L 84.436364 -53.17461 
L 81.392727 -50.418419 
L 78.349091 -49.518006 
L 75.305455 -49.999737 
L 72.261818 -49.699372 
L 69.218182 -49.392371 
z
" id="m941d244a85" style="stroke:#ffffff;stroke-opacity:0.5;"/>
    </defs>
    <g clip-path="url(#pdec807aa94)">
     <use style="fill:#d62728;fill-opacity:0.5;stroke:#ffffff;stroke-opacity:0.5;" x="0" xlink:href="#m941d244a85" y="288"/>
    </g>
   </g>
   <g id="PolyCollection_5">
    <defs>
     <path d="M 69.218182 -49.540578 
L 69.218182 -49.117128 
L 72.261818 -49.291638 
L 75.305455 -48.995639 
L 78.349091 -48.151903 
L 81.392727 -49.388873 
L 84.436364 -48.882269 
L 87.48 -49.236389 
L 90.523636 -49.004508 
L 93.567273 -49.18373 
L 96.610909 -49.174739 
L 99.654545 -49.448953 
L 102.698182 -49.051428 
L 105.741818 -49.174202 
L 108.785455 -49.147256 
L 111.829091 -50.189532 
L 114.872727 -48.836418 
L 117.916364 -49.789728 
L 120.96 -47.551992 
L 124.003636 -53.30491 
L 127.047273 -53.432856 
L 130.090909 -53.500898 
L 133.134545 -52.38299 
L 136.178182 -57.91017 
L 139.221818 -57.473195 
L 142.265455 -54.313139 
L 145.309091 -62.998051 
L 148.352727 -58.501942 
L 151.396364 -65.005558 
L 154.44 -65.306286 
L 157.483636 -57.41817 
L 160.527273 -69.181614 
L 163.570909 -76.542038 
L 166.614545 -56.665386 
L 169.658182 -69.179329 
L 172.701818 -68.05269 
L 175.745455 -62.892273 
L 178.789091 -73.616328 
L 181.832727 -73.438746 
L 184.876364 -69.765881 
L 187.92 -60.690568 
L 190.963636 -67.549604 
L 194.007273 -61.46596 
L 197.050909 -61.004579 
L 200.094545 -64.188294 
L 203.138182 -68.425785 
L 206.181818 -71.376488 
L 209.225455 -80.218092 
L 212.269091 -79.120045 
L 215.312727 -74.797634 
L 218.356364 -77.978171 
L 221.4 -74.83145 
L 224.443636 -71.922044 
L 227.487273 -78.344687 
L 230.530909 -76.909448 
L 233.574545 -74.480286 
L 236.618182 -77.195187 
L 239.661818 -87.989493 
L 242.705455 -93.307085 
L 245.749091 -78.987242 
L 248.792727 -107.335815 
L 251.836364 -99.388247 
L 254.88 -96.388488 
L 257.923636 -98.701716 
L 260.967273 -113.120762 
L 264.010909 -128.738521 
L 267.054545 -133.627698 
L 270.098182 -102.197656 
L 273.141818 -114.967657 
L 276.185455 -127.512307 
L 279.229091 -103.320691 
L 282.272727 -116.957678 
L 285.316364 -106.549726 
L 288.36 -155.459986 
L 291.403636 -154.058792 
L 294.447273 -137.811921 
L 297.490909 -144.372149 
L 300.534545 -162.210376 
L 303.578182 -169.375719 
L 306.621818 -152.161906 
L 309.665455 -160.913469 
L 312.709091 -176.392511 
L 315.752727 -195.268223 
L 318.796364 -140.188439 
L 321.84 -181.224554 
L 324.883636 -150.225956 
L 327.927273 -174.326784 
L 330.970909 -195.694475 
L 334.014545 -196.102538 
L 337.058182 -193.437096 
L 340.101818 -193.247128 
L 343.145455 -191.129072 
L 346.189091 -177.738927 
L 349.232727 -193.766446 
L 352.276364 -193.640407 
L 355.32 -165.012966 
L 358.363636 -193.301534 
L 361.407273 -185.403292 
L 364.450909 -199.234139 
L 367.494545 -200.306596 
L 370.538182 -199.701689 
L 373.581818 -179.651825 
L 373.581818 -216.056048 
L 373.581818 -216.056048 
L 370.538182 -214.129843 
L 367.494545 -216.009176 
L 364.450909 -209.628914 
L 361.407273 -212.958201 
L 358.363636 -207.036059 
L 355.32 -227.307307 
L 352.276364 -211.101066 
L 349.232727 -210.353967 
L 346.189091 -214.073206 
L 343.145455 -208.700381 
L 340.101818 -209.546475 
L 337.058182 -214.833126 
L 334.014545 -210.106894 
L 330.970909 -213.592027 
L 327.927273 -214.916419 
L 324.883636 -209.375748 
L 321.84 -209.966519 
L 318.796364 -212.835675 
L 315.752727 -205.351669 
L 312.709091 -207.910442 
L 309.665455 -195.272405 
L 306.621818 -196.232488 
L 303.578182 -208.321415 
L 300.534545 -198.661678 
L 297.490909 -199.223146 
L 294.447273 -188.732454 
L 291.403636 -183.354133 
L 288.36 -196.209088 
L 285.316364 -174.82665 
L 282.272727 -201.682297 
L 279.229091 -169.868985 
L 276.185455 -179.271069 
L 273.141818 -187.383608 
L 270.098182 -185.67162 
L 267.054545 -185.463957 
L 264.010909 -188.772254 
L 260.967273 -202.922053 
L 257.923636 -164.15578 
L 254.88 -133.60929 
L 251.836364 -176.822039 
L 248.792727 -154.420712 
L 245.749091 -182.119995 
L 242.705455 -142.195543 
L 239.661818 -98.251787 
L 236.618182 -120.479242 
L 233.574545 -107.724103 
L 230.530909 -107.892101 
L 227.487273 -129.125551 
L 224.443636 -94.167049 
L 221.4 -102.150389 
L 218.356364 -96.971108 
L 215.312727 -94.420956 
L 212.269091 -94.417735 
L 209.225455 -100.998248 
L 206.181818 -81.271092 
L 203.138182 -89.387885 
L 200.094545 -80.752497 
L 197.050909 -74.705002 
L 194.007273 -92.11321 
L 190.963636 -102.854646 
L 187.92 -87.496673 
L 184.876364 -97.787138 
L 181.832727 -85.645274 
L 178.789091 -81.148502 
L 175.745455 -75.216858 
L 172.701818 -74.940231 
L 169.658182 -79.007911 
L 166.614545 -89.094074 
L 163.570909 -81.666852 
L 160.527273 -83.889416 
L 157.483636 -83.215529 
L 154.44 -71.645414 
L 151.396364 -76.971082 
L 148.352727 -74.646774 
L 145.309091 -68.204812 
L 142.265455 -69.018259 
L 139.221818 -74.991952 
L 136.178182 -73.517602 
L 133.134545 -67.498839 
L 130.090909 -69.207372 
L 127.047273 -60.916025 
L 124.003636 -67.575855 
L 120.96 -65.051335 
L 117.916364 -56.572804 
L 114.872727 -55.61073 
L 111.829091 -52.013211 
L 108.785455 -49.977254 
L 105.741818 -52.92803 
L 102.698182 -50.58828 
L 99.654545 -49.675557 
L 96.610909 -50.232304 
L 93.567273 -50.964117 
L 90.523636 -50.176695 
L 87.48 -49.893627 
L 84.436364 -51.969778 
L 81.392727 -52.601059 
L 78.349091 -55.085726 
L 75.305455 -51.118084 
L 72.261818 -50.036531 
L 69.218182 -49.540578 
z
" id="m4e84f8645a" style="stroke:#ffffff;stroke-opacity:0.5;"/>
    </defs>
    <g clip-path="url(#pdec807aa94)">
     <use style="fill:#9467bd;fill-opacity:0.5;stroke:#ffffff;stroke-opacity:0.5;" x="0" xlink:href="#m4e84f8645a" y="288"/>
    </g>
   </g>
   <g id="PolyCollection_6">
    <defs>
     <path d="M 69.218182 -49.222991 
L 69.218182 -49.222991 
L 72.261818 -49.222991 
L 75.305455 -49.222991 
L 78.349091 -49.222991 
L 81.392727 -49.17006 
L 84.436364 -48.988297 
L 87.48 -49.109955 
L 90.523636 -49.297098 
L 93.567273 -49.011266 
L 96.610909 -49.199199 
L 99.654545 -49.166531 
L 102.698182 -49.288615 
L 105.741818 -49.18677 
L 108.785455 -49.110071 
L 111.829091 -48.815376 
L 114.872727 -48.457196 
L 117.916364 -49.023658 
L 120.96 -47.396226 
L 124.003636 -47.917382 
L 127.047273 -48.022276 
L 130.090909 -46.911038 
L 133.134545 -45.780339 
L 136.178182 -47.148739 
L 139.221818 -48.636951 
L 142.265455 -49.013987 
L 145.309091 -48.433478 
L 148.352727 -47.572824 
L 151.396364 -45.456284 
L 154.44 -48.474416 
L 157.483636 -47.55649 
L 160.527273 -48.248319 
L 163.570909 -44.565041 
L 166.614545 -41.76 
L 169.658182 -47.638196 
L 172.701818 -46.43767 
L 175.745455 -50.094072 
L 178.789091 -48.436004 
L 181.832727 -48.78236 
L 184.876364 -51.125857 
L 187.92 -54.601617 
L 190.963636 -60.153803 
L 194.007273 -66.19743 
L 197.050909 -59.826813 
L 200.094545 -68.026885 
L 203.138182 -66.160588 
L 206.181818 -60.290767 
L 209.225455 -67.105048 
L 212.269091 -64.597804 
L 215.312727 -73.892492 
L 218.356364 -70.628111 
L 221.4 -65.225988 
L 224.443636 -73.079795 
L 227.487273 -59.743762 
L 230.530909 -56.119493 
L 233.574545 -67.831082 
L 236.618182 -68.119673 
L 239.661818 -74.523875 
L 242.705455 -69.004202 
L 245.749091 -66.773794 
L 248.792727 -66.742686 
L 251.836364 -75.688037 
L 254.88 -70.4856 
L 257.923636 -72.081776 
L 260.967273 -82.084608 
L 264.010909 -67.120628 
L 267.054545 -77.491455 
L 270.098182 -74.642552 
L 273.141818 -77.876569 
L 276.185455 -76.443646 
L 279.229091 -70.875229 
L 282.272727 -62.833559 
L 285.316364 -71.107637 
L 288.36 -75.977063 
L 291.403636 -68.787619 
L 294.447273 -100.063983 
L 297.490909 -85.242591 
L 300.534545 -90.183119 
L 303.578182 -91.593008 
L 306.621818 -100.27458 
L 309.665455 -97.037805 
L 312.709091 -112.434627 
L 315.752727 -111.588002 
L 318.796364 -119.996786 
L 321.84 -127.742096 
L 324.883636 -96.641278 
L 327.927273 -125.531922 
L 330.970909 -124.70128 
L 334.014545 -121.708418 
L 337.058182 -113.448684 
L 340.101818 -134.266686 
L 343.145455 -120.00458 
L 346.189091 -152.801254 
L 349.232727 -134.273136 
L 352.276364 -125.269 
L 355.32 -141.990643 
L 358.363636 -132.272087 
L 361.407273 -133.866577 
L 364.450909 -128.533852 
L 367.494545 -132.46617 
L 370.538182 -124.439468 
L 373.581818 -144.200512 
L 373.581818 -237.222981 
L 373.581818 -237.222981 
L 370.538182 -239.453196 
L 367.494545 -234.108344 
L 364.450909 -243.36 
L 361.407273 -241.233396 
L 358.363636 -225.974577 
L 355.32 -233.50455 
L 352.276364 -227.585734 
L 349.232727 -226.994138 
L 346.189091 -229.63852 
L 343.145455 -226.470174 
L 340.101818 -237.163387 
L 337.058182 -214.253121 
L 334.014545 -218.273437 
L 330.970909 -220.305514 
L 327.927273 -222.580172 
L 324.883636 -194.897898 
L 321.84 -217.716378 
L 318.796364 -225.010008 
L 315.752727 -204.652423 
L 312.709091 -187.291249 
L 309.665455 -190.238641 
L 306.621818 -197.672806 
L 303.578182 -180.298089 
L 300.534545 -193.592808 
L 297.490909 -187.664786 
L 294.447273 -189.470863 
L 291.403636 -187.952034 
L 288.36 -181.883724 
L 285.316364 -174.727171 
L 282.272727 -182.634258 
L 279.229091 -179.734481 
L 276.185455 -122.077682 
L 273.141818 -152.177669 
L 270.098182 -141.240226 
L 267.054545 -118.630323 
L 264.010909 -141.252971 
L 260.967273 -124.48227 
L 257.923636 -108.598194 
L 254.88 -128.600329 
L 251.836364 -118.739942 
L 248.792727 -117.268423 
L 245.749091 -108.235978 
L 242.705455 -122.459627 
L 239.661818 -86.959695 
L 236.618182 -85.318347 
L 233.574545 -99.552558 
L 230.530909 -109.090437 
L 227.487273 -94.258858 
L 224.443636 -105.708765 
L 221.4 -89.397693 
L 218.356364 -90.629619 
L 215.312727 -103.399877 
L 212.269091 -87.424683 
L 209.225455 -78.597952 
L 206.181818 -85.920373 
L 203.138182 -88.487289 
L 200.094545 -79.765135 
L 197.050909 -75.092327 
L 194.007273 -88.982785 
L 190.963636 -77.11246 
L 187.92 -74.502144 
L 184.876364 -77.180406 
L 181.832727 -79.241603 
L 178.789091 -83.777762 
L 175.745455 -77.654649 
L 172.701818 -80.945436 
L 169.658182 -78.586105 
L 166.614545 -90.477291 
L 163.570909 -81.82864 
L 160.527273 -72.813925 
L 157.483636 -64.730257 
L 154.44 -64.292862 
L 151.396364 -81.63609 
L 148.352727 -56.94444 
L 145.309091 -59.295831 
L 142.265455 -57.417052 
L 139.221818 -55.011417 
L 136.178182 -58.472626 
L 133.134545 -62.675892 
L 130.090909 -56.933931 
L 127.047273 -54.098647 
L 124.003636 -54.124228 
L 120.96 -55.521858 
L 117.916364 -50.117216 
L 114.872727 -51.795505 
L 111.829091 -51.571418 
L 108.785455 -49.561751 
L 105.741818 -50.028479 
L 102.698182 -50.244222 
L 99.654545 -49.392371 
L 96.610909 -49.458508 
L 93.567273 -49.858166 
L 90.523636 -50.068376 
L 87.48 -50.28879 
L 84.436364 -50.395324 
L 81.392727 -49.381785 
L 78.349091 -49.222991 
L 75.305455 -49.222991 
L 72.261818 -49.222991 
L 69.218182 -49.222991 
z
" id="m2b9484e8f2" style="stroke:#ffffff;stroke-opacity:0.5;"/>
    </defs>
    <g clip-path="url(#pdec807aa94)">
     <use style="fill:#8c564b;fill-opacity:0.5;stroke:#ffffff;stroke-opacity:0.5;" x="0" xlink:href="#m2b9484e8f2" y="288"/>
    </g>
   </g>
   <g id="line2d_12">
    <path clip-path="url(#pdec807aa94)" d="M 69.218182 238.777009 
L 72.261818 238.325329 
L 75.305455 237.89835 
L 78.349091 238.474545 
L 81.392727 238.494709 
L 84.436364 238.335915 
L 87.48 237.405838 
L 90.523636 236.244375 
L 93.567273 236.673874 
L 96.610909 232.422739 
L 99.654545 229.863154 
L 102.698182 224.118246 
L 105.741818 214.32983 
L 108.785455 207.18764 
L 111.829091 219.6653 
L 114.872727 216.178895 
L 117.916364 213.242975 
L 120.96 209.02259 
L 124.003636 208.076885 
L 127.047273 211.11161 
L 130.090909 211.90205 
L 133.134545 211.041035 
L 136.178182 211.70444 
L 139.221818 202.487345 
L 142.265455 197.914085 
L 145.309091 208.82498 
L 148.352727 203.46128 
L 151.396364 208.03454 
L 154.44 183.347406 
L 157.483636 193.80662 
L 160.527273 182.034711 
L 163.570909 188.852256 
L 166.614545 195.16166 
L 169.658182 182.839266 
L 172.701818 181.046661 
L 175.745455 164.038086 
L 178.789091 163.402911 
L 181.832727 135.102337 
L 184.876364 154.016437 
L 187.92 160.579911 
L 190.963636 137.501887 
L 194.007273 140.889487 
L 197.050909 130.020937 
L 200.094545 127.974262 
L 203.138182 123.386888 
L 206.181818 125.362988 
L 209.225455 113.929838 
L 212.269091 97.344713 
L 215.312727 112.588913 
L 218.356364 107.888618 
L 221.4 100.929923 
L 224.443636 102.214388 
L 227.487273 94.860473 
L 230.530909 90.753009 
L 233.574545 101.183993 
L 236.618182 87.351294 
L 239.661818 95.086313 
L 242.705455 85.826874 
L 245.749091 89.553234 
L 248.792727 83.427324 
L 251.836364 78.176544 
L 254.88 76.906194 
L 257.923636 79.785654 
L 260.967273 77.357874 
L 264.010909 74.054964 
L 267.054545 77.7047 
L 270.098182 76.595664 
L 273.141818 79.983264 
L 276.185455 72.724121 
L 279.229091 76.031064 
L 282.272727 77.696634 
L 285.316364 74.619564 
L 288.36 74.651827 
L 291.403636 83.709624 
L 294.447273 73.292754 
L 297.490909 73.518594 
L 300.534545 71.090814 
L 303.578182 79.065789 
L 306.621818 73.066914 
L 309.665455 73.123374 
L 312.709091 71.231964 
L 315.752727 73.208064 
L 318.796364 72.881403 
L 321.84 73.208064 
L 324.883636 82.919184 
L 327.927273 78.148314 
L 330.970909 75.974604 
L 334.014545 72.018371 
L 337.058182 72.784614 
L 340.101818 73.066914 
L 343.145455 72.925764 
L 346.189091 70.667364 
L 349.232727 71.877221 
L 352.276364 73.772664 
L 355.32 79.277514 
L 358.363636 76.228674 
L 361.407273 77.499024 
L 364.450909 71.937714 
L 367.494545 73.066914 
L 370.538182 85.276389 
L 373.581818 73.450036 
" style="fill:none;stroke:#1f77b4;stroke-linecap:round;stroke-width:1.5;"/>
   </g>
   <g id="line2d_13">
    <path clip-path="url(#pdec807aa94)" d="M 69.218182 238.777009 
L 72.261818 238.777009 
L 75.305455 238.373219 
L 78.349091 237.993627 
L 81.392727 238.000684 
L 84.436364 236.250269 
L 87.48 237.700547 
L 90.523636 236.62713 
L 93.567273 236.511694 
L 96.610909 236.823978 
L 99.654545 236.362336 
L 102.698182 229.2569 
L 105.741818 221.30264 
L 108.785455 226.01705 
L 111.829091 220.385165 
L 114.872727 218.860745 
L 117.916364 212.396075 
L 120.96 214.69682 
L 124.003636 217.392785 
L 127.047273 209.911835 
L 130.090909 211.56329 
L 133.134545 212.80541 
L 136.178182 208.71206 
L 139.221818 209.911835 
L 142.265455 207.935735 
L 145.309091 201.79571 
L 148.352727 206.73596 
L 151.396364 207.44171 
L 154.44 191.209461 
L 157.483636 194.103035 
L 160.527273 180.933741 
L 163.570909 183.163911 
L 166.614545 189.939111 
L 169.658182 182.528736 
L 172.701818 180.129186 
L 175.745455 183.982581 
L 178.789091 148.723312 
L 181.832727 172.718811 
L 184.876364 150.417112 
L 187.92 144.629962 
L 190.963636 145.123987 
L 194.007273 161.426811 
L 197.050909 154.933912 
L 200.094545 132.138187 
L 203.138182 138.207637 
L 206.181818 137.784187 
L 209.225455 126.633337 
L 212.269091 125.927588 
L 215.312727 124.784273 
L 218.356364 121.368443 
L 221.4 113.915723 
L 224.443636 114.579128 
L 227.487273 110.415203 
L 230.530909 102.510803 
L 233.574545 102.468458 
L 236.618182 108.156803 
L 239.661818 104.642168 
L 242.705455 93.815963 
L 245.749091 83.822544 
L 248.792727 90.343674 
L 251.836364 103.230668 
L 254.88 89.426199 
L 257.923636 86.193864 
L 260.967273 77.696634 
L 264.010909 95.171003 
L 267.054545 77.357874 
L 270.098182 76.821504 
L 273.141818 72.562807 
L 276.185455 76.313364 
L 279.229091 82.312239 
L 282.272727 76.652124 
L 285.316364 84.796479 
L 288.36 77.019114 
L 291.403636 76.708584 
L 294.447273 71.711874 
L 297.490909 76.736814 
L 300.534545 72.925764 
L 303.578182 78.120084 
L 306.621818 77.160264 
L 309.665455 74.115457 
L 312.709091 72.703957 
L 315.752727 75.325314 
L 318.796364 74.478414 
L 321.84 76.228674 
L 324.883636 71.695743 
L 327.927273 82.467504 
L 330.970909 77.047344 
L 334.014545 77.583714 
L 337.058182 77.160264 
L 340.101818 75.748764 
L 343.145455 71.796564 
L 346.189091 73.248393 
L 349.232727 73.228228 
L 352.276364 72.078864 
L 355.32 78.120084 
L 358.363636 74.054964 
L 361.407273 74.026734 
L 364.450909 75.494694 
L 367.494545 72.19985 
L 370.538182 73.349214 
L 373.581818 73.095144 
" style="fill:none;stroke:#ff7f0e;stroke-linecap:round;stroke-width:1.5;"/>
   </g>
   <g id="line2d_14">
    <path clip-path="url(#pdec807aa94)" d="M 69.218182 238.777009 
L 72.261818 236.842613 
L 75.305455 238.618215 
L 78.349091 238.361625 
L 81.392727 238.720549 
L 84.436364 237.134931 
L 87.48 237.474086 
L 90.523636 237.439063 
L 93.567273 236.93436 
L 96.610909 235.021747 
L 99.654545 232.316617 
L 102.698182 232.079106 
L 105.741818 227.160364 
L 108.785455 224.21033 
L 111.829091 213.073595 
L 114.872727 217.114518 
L 117.916364 209.98241 
L 120.96 211.464485 
L 124.003636 212.6078 
L 127.047273 215.783675 
L 130.090909 211.210415 
L 133.134545 217.9715 
L 136.178182 211.605635 
L 139.221818 202.64261 
L 142.265455 207.512285 
L 145.309091 199.02917 
L 148.352727 201.08996 
L 151.396364 206.17136 
L 154.44 203.531855 
L 157.483636 212.94656 
L 160.527273 205.38092 
L 163.570909 206.496005 
L 166.614545 206.693615 
L 169.658182 210.363515 
L 172.701818 204.27995 
L 175.745455 195.81095 
L 178.789091 203.362475 
L 181.832727 193.10087 
L 184.876364 191.435301 
L 187.92 198.4928 
L 190.963636 190.574286 
L 194.007273 184.434261 
L 197.050909 197.27891 
L 200.094545 186.128061 
L 203.138182 180.129186 
L 206.181818 190.291986 
L 209.225455 181.117236 
L 212.269091 168.907761 
L 215.312727 156.910012 
L 218.356364 163.967511 
L 221.4 155.921962 
L 224.443636 152.322637 
L 227.487273 146.747212 
L 230.530909 128.891737 
L 233.574545 136.866712 
L 236.618182 139.407412 
L 239.661818 132.985087 
L 242.705455 117.698543 
L 245.749091 114.734393 
L 248.792727 122.045963 
L 251.836364 90.880044 
L 254.88 95.834408 
L 257.923636 90.823584 
L 260.967273 97.147103 
L 264.010909 89.313279 
L 267.054545 80.914854 
L 270.098182 93.632468 
L 273.141818 86.193864 
L 276.185455 93.124328 
L 279.229091 76.200444 
L 282.272727 93.787733 
L 285.316364 78.345924 
L 288.36 93.914768 
L 291.403636 90.061374 
L 294.447273 83.780199 
L 297.490909 88.028814 
L 300.534545 82.523964 
L 303.578182 78.628224 
L 306.621818 79.672734 
L 309.665455 90.738894 
L 312.709091 83.653164 
L 315.752727 77.019114 
L 318.796364 78.035394 
L 321.84 90.498939 
L 324.883636 78.599994 
L 327.927273 74.054964 
L 330.970909 79.249284 
L 334.014545 75.466464 
L 337.058182 73.913814 
L 340.101818 80.434944 
L 343.145455 71.756236 
L 346.189091 73.066914 
L 349.232727 75.325314 
L 352.276364 73.687974 
L 355.32 79.1162 
L 358.363636 72.361164 
L 361.407273 73.913814 
L 364.450909 73.208064 
L 367.494545 77.555484 
L 370.538182 76.623894 
L 373.581818 82.693344 
" style="fill:none;stroke:#2ca02c;stroke-linecap:round;stroke-width:1.5;"/>
   </g>
   <g id="line2d_15">
    <path clip-path="url(#pdec807aa94)" d="M 69.218182 238.720549 
L 72.261818 238.618215 
L 75.305455 238.399433 
L 78.349091 238.614687 
L 81.392727 238.159478 
L 84.436364 236.805252 
L 87.48 238.525111 
L 90.523636 238.664089 
L 93.567273 237.544971 
L 96.610909 238.333201 
L 99.654545 237.808503 
L 102.698182 237.879892 
L 105.741818 237.901879 
L 108.785455 237.266704 
L 111.829091 236.616328 
L 114.872727 237.348137 
L 117.916364 237.760729 
L 120.96 236.986421 
L 124.003636 236.030633 
L 127.047273 235.082912 
L 130.090909 237.926076 
L 133.134545 237.947481 
L 136.178182 237.502006 
L 139.221818 236.385525 
L 142.265455 237.284348 
L 145.309091 236.536207 
L 148.352727 233.633283 
L 151.396364 227.299385 
L 154.44 230.681317 
L 157.483636 231.303117 
L 160.527273 225.670224 
L 163.570909 223.947341 
L 166.614545 215.717805 
L 169.658182 216.95522 
L 172.701818 215.12027 
L 175.745455 211.690325 
L 178.789091 217.713397 
L 181.832727 217.552083 
L 184.876364 218.14088 
L 187.92 215.17673 
L 190.963636 220.955814 
L 194.007273 219.04424 
L 197.050909 213.53939 
L 200.094545 213.4547 
L 203.138182 209.72834 
L 206.181818 212.80541 
L 209.225455 210.914 
L 212.269091 209.855375 
L 215.312727 211.605635 
L 218.356364 216.884645 
L 221.4 209.488385 
L 224.443636 199.974875 
L 227.487273 205.07039 
L 230.530909 209.601305 
L 233.574545 201.23111 
L 236.618182 188.598186 
L 239.661818 193.46786 
L 242.705455 183.728511 
L 245.749091 177.870786 
L 248.792727 190.574286 
L 251.836364 172.789386 
L 254.88 170.389836 
L 257.923636 168.343161 
L 260.967273 180.623211 
L 264.010909 167.072811 
L 267.054545 146.733097 
L 270.098182 149.146762 
L 273.141818 154.863337 
L 276.185455 137.713612 
L 279.229091 145.900312 
L 282.272727 132.999202 
L 285.316364 120.916763 
L 288.36 121.410788 
L 291.403636 115.962398 
L 294.447273 135.314062 
L 297.490909 110.514008 
L 300.534545 118.488983 
L 303.578182 111.106838 
L 306.621818 127.550812 
L 309.665455 104.557478 
L 312.709091 97.556438 
L 315.752727 107.055833 
L 318.796364 93.491318 
L 321.84 101.776823 
L 324.883636 89.722614 
L 327.927273 89.087439 
L 330.970909 94.676978 
L 334.014545 81.973479 
L 337.058182 83.667279 
L 340.101818 94.606403 
L 343.145455 90.710664 
L 346.189091 86.419704 
L 349.232727 84.189534 
L 352.276364 89.143899 
L 355.32 88.988634 
L 358.363636 86.306784 
L 361.407273 88.395804 
L 364.450909 82.326354 
L 367.494545 84.217764 
L 370.538182 80.689014 
L 373.581818 78.289464 
" style="fill:none;stroke:#d62728;stroke-linecap:round;stroke-width:1.5;"/>
   </g>
   <g id="line2d_16">
    <path clip-path="url(#pdec807aa94)" d="M 69.218182 238.671147 
L 72.261818 238.335915 
L 75.305455 237.943138 
L 78.349091 236.381185 
L 81.392727 237.005034 
L 84.436364 237.573977 
L 87.48 238.434992 
L 90.523636 238.409399 
L 93.567273 237.926076 
L 96.610909 238.296479 
L 99.654545 238.437745 
L 102.698182 238.180146 
L 105.741818 236.948884 
L 108.785455 238.437745 
L 111.829091 236.898628 
L 114.872727 235.776426 
L 117.916364 234.818734 
L 120.96 231.698337 
L 124.003636 227.559617 
L 127.047273 230.825559 
L 130.090909 226.645865 
L 133.134545 228.059085 
L 136.178182 222.286114 
L 139.221818 221.767426 
L 142.265455 226.334301 
L 145.309091 222.398569 
L 148.352727 221.425642 
L 151.396364 217.01168 
L 154.44 219.52415 
L 157.483636 217.68315 
L 160.527273 211.464485 
L 163.570909 208.895555 
L 166.614545 215.12027 
L 169.658182 213.90638 
L 172.701818 216.50354 
L 175.745455 218.945435 
L 178.789091 210.617585 
L 181.832727 208.45799 
L 184.876364 204.22349 
L 187.92 213.90638 
L 190.963636 202.797875 
L 194.007273 211.210415 
L 197.050909 220.14521 
L 200.094545 215.529605 
L 203.138182 209.093165 
L 206.181818 211.67621 
L 209.225455 197.39183 
L 212.269091 201.23111 
L 215.312727 203.390705 
L 218.356364 200.52536 
L 221.4 199.50908 
L 224.443636 204.955454 
L 227.487273 184.264881 
L 230.530909 195.599225 
L 233.574545 196.897805 
L 236.618182 189.162786 
L 239.661818 194.87936 
L 242.705455 170.248686 
L 245.749091 157.446382 
L 248.792727 157.121737 
L 251.836364 149.894857 
L 254.88 173.001111 
L 257.923636 156.571252 
L 260.967273 129.978592 
L 264.010909 129.244612 
L 267.054545 128.454172 
L 270.098182 144.065362 
L 273.141818 136.824367 
L 276.185455 134.608312 
L 279.229091 151.405162 
L 282.272727 128.680012 
L 285.316364 147.311812 
L 288.36 112.165463 
L 291.403636 119.293538 
L 294.447273 124.727813 
L 297.490909 116.202353 
L 300.534545 107.563973 
L 303.578182 99.151433 
L 306.621818 113.802803 
L 309.665455 109.907063 
L 312.709091 95.848523 
L 315.752727 87.690054 
L 318.796364 111.487943 
L 321.84 92.404464 
L 324.883636 108.199148 
L 327.927273 93.378398 
L 330.970909 83.356749 
L 334.014545 84.895284 
L 337.058182 83.864889 
L 340.101818 86.603199 
L 343.145455 88.085274 
L 346.189091 92.093934 
L 349.232727 85.939794 
L 352.276364 85.629264 
L 355.32 91.839864 
L 358.363636 87.831204 
L 361.407273 88.819254 
L 364.450909 83.568474 
L 367.494545 79.842114 
L 370.538182 81.084234 
L 373.581818 90.146064 
" style="fill:none;stroke:#9467bd;stroke-linecap:round;stroke-width:1.5;"/>
   </g>
   <g id="line2d_17">
    <path clip-path="url(#pdec807aa94)" d="M 69.218182 238.777009 
L 72.261818 238.777009 
L 75.305455 238.777009 
L 78.349091 238.777009 
L 81.392727 238.724078 
L 84.436364 238.308189 
L 87.48 238.300628 
L 90.523636 238.317263 
L 93.567273 238.565284 
L 96.610909 238.671147 
L 99.654545 238.720549 
L 102.698182 238.233582 
L 105.741818 238.392375 
L 108.785455 238.664089 
L 111.829091 237.806603 
L 114.872727 237.873649 
L 117.916364 238.429563 
L 120.96 236.540958 
L 124.003636 236.979195 
L 127.047273 236.939539 
L 130.090909 236.077515 
L 133.134545 233.771885 
L 136.178182 235.189317 
L 139.221818 236.175816 
L 142.265455 234.784481 
L 145.309091 234.135346 
L 148.352727 235.741368 
L 151.396364 224.453813 
L 154.44 231.616361 
L 157.483636 231.856626 
L 160.527273 227.468878 
L 163.570909 224.80316 
L 166.614545 221.881355 
L 169.658182 224.88785 
L 172.701818 224.308447 
L 175.745455 224.12564 
L 178.789091 221.893117 
L 181.832727 223.988018 
L 184.876364 223.846868 
L 187.92 223.44812 
L 190.963636 219.366868 
L 194.007273 210.409893 
L 197.050909 220.54043 
L 200.094545 214.10399 
L 203.138182 210.676061 
L 206.181818 214.89443 
L 209.225455 215.1485 
L 212.269091 211.988756 
L 215.312727 199.353815 
L 218.356364 207.371135 
L 221.4 210.68816 
L 224.443636 198.60572 
L 227.487273 210.99869 
L 230.530909 205.395035 
L 233.574545 204.30818 
L 236.618182 211.28099 
L 239.661818 207.258215 
L 242.705455 192.268086 
L 245.749091 200.495114 
L 248.792727 195.994445 
L 251.836364 190.786011 
L 254.88 188.457036 
L 257.923636 197.660015 
L 260.967273 184.716561 
L 264.010909 183.813201 
L 267.054545 189.939111 
L 270.098182 180.058611 
L 273.141818 172.972881 
L 276.185455 188.739336 
L 279.229091 162.695145 
L 282.272727 165.266091 
L 285.316364 165.082596 
L 288.36 159.069607 
L 291.403636 159.630174 
L 294.447273 143.232577 
L 297.490909 151.546312 
L 300.534545 146.112037 
L 303.578182 152.054452 
L 306.621818 139.026307 
L 309.665455 144.361777 
L 312.709091 138.137062 
L 315.752727 129.879787 
L 318.796364 115.496603 
L 321.84 115.270763 
L 324.883636 142.230412 
L 327.927273 113.943953 
L 330.970909 115.496603 
L 334.014545 118.009073 
L 337.058182 124.149098 
L 340.101818 102.284963 
L 343.145455 114.762623 
L 346.189091 96.780113 
L 349.232727 107.366363 
L 352.276364 111.572633 
L 355.32 100.252403 
L 358.363636 108.876668 
L 361.407273 100.450013 
L 364.450909 102.053074 
L 367.494545 104.712743 
L 370.538182 106.053668 
L 373.581818 97.288253 
" style="fill:none;stroke:#8c564b;stroke-linecap:round;stroke-width:1.5;"/>
   </g>
   <g id="patch_3">
    <path d="M 54 256.32 
L 54 34.56 
" style="fill:none;stroke:#cccccc;stroke-linecap:square;stroke-linejoin:miter;stroke-width:0.8;"/>
   </g>
   <g id="patch_4">
    <path d="M 388.8 256.32 
L 388.8 34.56 
" style="fill:none;stroke:#cccccc;stroke-linecap:square;stroke-linejoin:miter;stroke-width:0.8;"/>
   </g>
   <g id="patch_5">
    <path d="M 54 256.32 
L 388.8 256.32 
" style="fill:none;stroke:#cccccc;stroke-linecap:square;stroke-linejoin:miter;stroke-width:0.8;"/>
   </g>
   <g id="patch_6">
    <path d="M 54 34.56 
L 388.8 34.56 
" style="fill:none;stroke:#cccccc;stroke-linecap:square;stroke-linejoin:miter;stroke-width:0.8;"/>
   </g>
   <g id="text_14">
    <!-- Pong_scores -->
    <defs>
     <path d="M 19.671875 64.796875 
L 19.671875 37.40625 
L 32.078125 37.40625 
Q 38.96875 37.40625 42.71875 40.96875 
Q 46.484375 44.53125 46.484375 51.125 
Q 46.484375 57.671875 42.71875 61.234375 
Q 38.96875 64.796875 32.078125 64.796875 
z
M 9.8125 72.90625 
L 32.078125 72.90625 
Q 44.34375 72.90625 50.609375 67.359375 
Q 56.890625 61.8125 56.890625 51.125 
Q 56.890625 40.328125 50.609375 34.8125 
Q 44.34375 29.296875 32.078125 29.296875 
L 19.671875 29.296875 
L 19.671875 0 
L 9.8125 0 
z
" id="DejaVuSans-80"/>
     <path d="M 54.890625 33.015625 
L 54.890625 0 
L 45.90625 0 
L 45.90625 32.71875 
Q 45.90625 40.484375 42.875 44.328125 
Q 39.84375 48.1875 33.796875 48.1875 
Q 26.515625 48.1875 22.3125 43.546875 
Q 18.109375 38.921875 18.109375 30.90625 
L 18.109375 0 
L 9.078125 0 
L 9.078125 54.6875 
L 18.109375 54.6875 
L 18.109375 46.1875 
Q 21.34375 51.125 25.703125 53.5625 
Q 30.078125 56 35.796875 56 
Q 45.21875 56 50.046875 50.171875 
Q 54.890625 44.34375 54.890625 33.015625 
z
" id="DejaVuSans-110"/>
     <path d="M 45.40625 27.984375 
Q 45.40625 37.75 41.375 43.109375 
Q 37.359375 48.484375 30.078125 48.484375 
Q 22.859375 48.484375 18.828125 43.109375 
Q 14.796875 37.75 14.796875 27.984375 
Q 14.796875 18.265625 18.828125 12.890625 
Q 22.859375 7.515625 30.078125 7.515625 
Q 37.359375 7.515625 41.375 12.890625 
Q 45.40625 18.265625 45.40625 27.984375 
z
M 54.390625 6.78125 
Q 54.390625 -7.171875 48.1875 -13.984375 
Q 42 -20.796875 29.203125 -20.796875 
Q 24.46875 -20.796875 20.265625 -20.09375 
Q 16.0625 -19.390625 12.109375 -17.921875 
L 12.109375 -9.1875 
Q 16.0625 -11.328125 19.921875 -12.34375 
Q 23.78125 -13.375 27.78125 -13.375 
Q 36.625 -13.375 41.015625 -8.765625 
Q 45.40625 -4.15625 45.40625 5.171875 
L 45.40625 9.625 
Q 42.625 4.78125 38.28125 2.390625 
Q 33.9375 0 27.875 0 
Q 17.828125 0 11.671875 7.65625 
Q 5.515625 15.328125 5.515625 27.984375 
Q 5.515625 40.671875 11.671875 48.328125 
Q 17.828125 56 27.875 56 
Q 33.9375 56 38.28125 53.609375 
Q 42.625 51.21875 45.40625 46.390625 
L 45.40625 54.6875 
L 54.390625 54.6875 
z
" id="DejaVuSans-103"/>
     <path d="M 50.984375 -16.609375 
L 50.984375 -23.578125 
L -0.984375 -23.578125 
L -0.984375 -16.609375 
z
" id="DejaVuSans-95"/>
    </defs>
    <g style="fill:#262626;" transform="translate(178.317187 28.56)scale(0.14 -0.14)">
     <use xlink:href="#DejaVuSans-80"/>
     <use x="56.677734" xlink:href="#DejaVuSans-111"/>
     <use x="117.859375" xlink:href="#DejaVuSans-110"/>
     <use x="181.238281" xlink:href="#DejaVuSans-103"/>
     <use x="244.714844" xlink:href="#DejaVuSans-95"/>
     <use x="294.714844" xlink:href="#DejaVuSans-115"/>
     <use x="346.814453" xlink:href="#DejaVuSans-99"/>
     <use x="401.794922" xlink:href="#DejaVuSans-111"/>
     <use x="462.976562" xlink:href="#DejaVuSans-114"/>
     <use x="501.839844" xlink:href="#DejaVuSans-101"/>
     <use x="563.363281" xlink:href="#DejaVuSans-115"/>
    </g>
   </g>
   <g id="legend_1">
    <g id="patch_7">
     <path d="M 62.05 145.039063 
L 195.442813 145.039063 
Q 197.742813 145.039063 197.742813 142.739063 
L 197.742813 42.61 
Q 197.742813 40.31 195.442813 40.31 
L 62.05 40.31 
Q 59.75 40.31 59.75 42.61 
L 59.75 142.739063 
Q 59.75 145.039063 62.05 145.039063 
z
" style="fill:#ffffff;opacity:0.5;stroke:#cccccc;stroke-linejoin:miter;"/>
    </g>
    <g id="line2d_18">
     <path d="M 64.35 49.623203 
L 87.35 49.623203 
" style="fill:none;stroke:#1f77b4;stroke-linecap:round;stroke-width:1.5;"/>
    </g>
    <g id="line2d_19"/>
    <g id="text_15">
     <!-- DQN RN -->
     <defs>
      <path d="M 19.671875 64.796875 
L 19.671875 8.109375 
L 31.59375 8.109375 
Q 46.6875 8.109375 53.6875 14.9375 
Q 60.6875 21.78125 60.6875 36.53125 
Q 60.6875 51.171875 53.6875 57.984375 
Q 46.6875 64.796875 31.59375 64.796875 
z
M 9.8125 72.90625 
L 30.078125 72.90625 
Q 51.265625 72.90625 61.171875 64.09375 
Q 71.09375 55.28125 71.09375 36.53125 
Q 71.09375 17.671875 61.125 8.828125 
Q 51.171875 0 30.078125 0 
L 9.8125 0 
z
" id="DejaVuSans-68"/>
      <path d="M 39.40625 66.21875 
Q 28.65625 66.21875 22.328125 58.203125 
Q 16.015625 50.203125 16.015625 36.375 
Q 16.015625 22.609375 22.328125 14.59375 
Q 28.65625 6.59375 39.40625 6.59375 
Q 50.140625 6.59375 56.421875 14.59375 
Q 62.703125 22.609375 62.703125 36.375 
Q 62.703125 50.203125 56.421875 58.203125 
Q 50.140625 66.21875 39.40625 66.21875 
z
M 53.21875 1.3125 
L 66.21875 -12.890625 
L 54.296875 -12.890625 
L 43.5 -1.21875 
Q 41.890625 -1.3125 41.03125 -1.359375 
Q 40.1875 -1.421875 39.40625 -1.421875 
Q 24.03125 -1.421875 14.8125 8.859375 
Q 5.609375 19.140625 5.609375 36.375 
Q 5.609375 53.65625 14.8125 63.9375 
Q 24.03125 74.21875 39.40625 74.21875 
Q 54.734375 74.21875 63.90625 63.9375 
Q 73.09375 53.65625 73.09375 36.375 
Q 73.09375 23.6875 67.984375 14.640625 
Q 62.890625 5.609375 53.21875 1.3125 
z
" id="DejaVuSans-81"/>
      <path d="M 9.8125 72.90625 
L 23.09375 72.90625 
L 55.421875 11.921875 
L 55.421875 72.90625 
L 64.984375 72.90625 
L 64.984375 0 
L 51.703125 0 
L 19.390625 60.984375 
L 19.390625 0 
L 9.8125 0 
z
" id="DejaVuSans-78"/>
      <path id="DejaVuSans-32"/>
      <path d="M 44.390625 34.1875 
Q 47.5625 33.109375 50.5625 29.59375 
Q 53.5625 26.078125 56.59375 19.921875 
L 66.609375 0 
L 56 0 
L 46.6875 18.703125 
Q 43.0625 26.03125 39.671875 28.421875 
Q 36.28125 30.8125 30.421875 30.8125 
L 19.671875 30.8125 
L 19.671875 0 
L 9.8125 0 
L 9.8125 72.90625 
L 32.078125 72.90625 
Q 44.578125 72.90625 50.734375 67.671875 
Q 56.890625 62.453125 56.890625 51.90625 
Q 56.890625 45.015625 53.6875 40.46875 
Q 50.484375 35.9375 44.390625 34.1875 
z
M 19.671875 64.796875 
L 19.671875 38.921875 
L 32.078125 38.921875 
Q 39.203125 38.921875 42.84375 42.21875 
Q 46.484375 45.515625 46.484375 51.90625 
Q 46.484375 58.296875 42.84375 61.546875 
Q 39.203125 64.796875 32.078125 64.796875 
z
" id="DejaVuSans-82"/>
     </defs>
     <g style="fill:#262626;" transform="translate(96.55 53.648203)scale(0.115 -0.115)">
      <use xlink:href="#DejaVuSans-68"/>
      <use x="77.001953" xlink:href="#DejaVuSans-81"/>
      <use x="155.712891" xlink:href="#DejaVuSans-78"/>
      <use x="230.517578" xlink:href="#DejaVuSans-32"/>
      <use x="262.304688" xlink:href="#DejaVuSans-82"/>
      <use x="331.787109" xlink:href="#DejaVuSans-78"/>
     </g>
    </g>
    <g id="line2d_20">
     <path d="M 64.35 66.503047 
L 87.35 66.503047 
" style="fill:none;stroke:#ff7f0e;stroke-linecap:round;stroke-width:1.5;"/>
    </g>
    <g id="line2d_21"/>
    <g id="text_16">
     <!-- DQN RRN -->
     <g style="fill:#262626;" transform="translate(96.55 70.528047)scale(0.115 -0.115)">
      <use xlink:href="#DejaVuSans-68"/>
      <use x="77.001953" xlink:href="#DejaVuSans-81"/>
      <use x="155.712891" xlink:href="#DejaVuSans-78"/>
      <use x="230.517578" xlink:href="#DejaVuSans-32"/>
      <use x="262.304688" xlink:href="#DejaVuSans-82"/>
      <use x="331.787109" xlink:href="#DejaVuSans-82"/>
      <use x="401.269531" xlink:href="#DejaVuSans-78"/>
     </g>
    </g>
    <g id="line2d_22">
     <path d="M 64.35 83.382891 
L 87.35 83.382891 
" style="fill:none;stroke:#2ca02c;stroke-linecap:round;stroke-width:1.5;"/>
    </g>
    <g id="line2d_23"/>
    <g id="text_17">
     <!-- DQN Leaky ReLU -->
     <defs>
      <path d="M 9.8125 72.90625 
L 19.671875 72.90625 
L 19.671875 8.296875 
L 55.171875 8.296875 
L 55.171875 0 
L 9.8125 0 
z
" id="DejaVuSans-76"/>
      <path d="M 34.28125 27.484375 
Q 23.390625 27.484375 19.1875 25 
Q 14.984375 22.515625 14.984375 16.5 
Q 14.984375 11.71875 18.140625 8.90625 
Q 21.296875 6.109375 26.703125 6.109375 
Q 34.1875 6.109375 38.703125 11.40625 
Q 43.21875 16.703125 43.21875 25.484375 
L 43.21875 27.484375 
z
M 52.203125 31.203125 
L 52.203125 0 
L 43.21875 0 
L 43.21875 8.296875 
Q 40.140625 3.328125 35.546875 0.953125 
Q 30.953125 -1.421875 24.3125 -1.421875 
Q 15.921875 -1.421875 10.953125 3.296875 
Q 6 8.015625 6 15.921875 
Q 6 25.140625 12.171875 29.828125 
Q 18.359375 34.515625 30.609375 34.515625 
L 43.21875 34.515625 
L 43.21875 35.40625 
Q 43.21875 41.609375 39.140625 45 
Q 35.0625 48.390625 27.6875 48.390625 
Q 23 48.390625 18.546875 47.265625 
Q 14.109375 46.140625 10.015625 43.890625 
L 10.015625 52.203125 
Q 14.9375 54.109375 19.578125 55.046875 
Q 24.21875 56 28.609375 56 
Q 40.484375 56 46.34375 49.84375 
Q 52.203125 43.703125 52.203125 31.203125 
z
" id="DejaVuSans-97"/>
      <path d="M 9.078125 75.984375 
L 18.109375 75.984375 
L 18.109375 31.109375 
L 44.921875 54.6875 
L 56.390625 54.6875 
L 27.390625 29.109375 
L 57.625 0 
L 45.90625 0 
L 18.109375 26.703125 
L 18.109375 0 
L 9.078125 0 
z
" id="DejaVuSans-107"/>
      <path d="M 32.171875 -5.078125 
Q 28.375 -14.84375 24.75 -17.8125 
Q 21.140625 -20.796875 15.09375 -20.796875 
L 7.90625 -20.796875 
L 7.90625 -13.28125 
L 13.1875 -13.28125 
Q 16.890625 -13.28125 18.9375 -11.515625 
Q 21 -9.765625 23.484375 -3.21875 
L 25.09375 0.875 
L 2.984375 54.6875 
L 12.5 54.6875 
L 29.59375 11.921875 
L 46.6875 54.6875 
L 56.203125 54.6875 
z
" id="DejaVuSans-121"/>
      <path d="M 8.6875 72.90625 
L 18.609375 72.90625 
L 18.609375 28.609375 
Q 18.609375 16.890625 22.84375 11.734375 
Q 27.09375 6.59375 36.625 6.59375 
Q 46.09375 6.59375 50.34375 11.734375 
Q 54.59375 16.890625 54.59375 28.609375 
L 54.59375 72.90625 
L 64.5 72.90625 
L 64.5 27.390625 
Q 64.5 13.140625 57.4375 5.859375 
Q 50.390625 -1.421875 36.625 -1.421875 
Q 22.796875 -1.421875 15.734375 5.859375 
Q 8.6875 13.140625 8.6875 27.390625 
z
" id="DejaVuSans-85"/>
     </defs>
     <g style="fill:#262626;" transform="translate(96.55 87.407891)scale(0.115 -0.115)">
      <use xlink:href="#DejaVuSans-68"/>
      <use x="77.001953" xlink:href="#DejaVuSans-81"/>
      <use x="155.712891" xlink:href="#DejaVuSans-78"/>
      <use x="230.517578" xlink:href="#DejaVuSans-32"/>
      <use x="262.304688" xlink:href="#DejaVuSans-76"/>
      <use x="316.267578" xlink:href="#DejaVuSans-101"/>
      <use x="377.791016" xlink:href="#DejaVuSans-97"/>
      <use x="439.070312" xlink:href="#DejaVuSans-107"/>
      <use x="493.355469" xlink:href="#DejaVuSans-121"/>
      <use x="552.535156" xlink:href="#DejaVuSans-32"/>
      <use x="584.322266" xlink:href="#DejaVuSans-82"/>
      <use x="649.304688" xlink:href="#DejaVuSans-101"/>
      <use x="710.828125" xlink:href="#DejaVuSans-76"/>
      <use x="761.541016" xlink:href="#DejaVuSans-85"/>
     </g>
    </g>
    <g id="line2d_24">
     <path d="M 64.35 100.262734 
L 87.35 100.262734 
" style="fill:none;stroke:#d62728;stroke-linecap:round;stroke-width:1.5;"/>
    </g>
    <g id="line2d_25"/>
    <g id="text_18">
     <!-- DQN SiLU+dSiLU -->
     <defs>
      <path d="M 53.515625 70.515625 
L 53.515625 60.890625 
Q 47.90625 63.578125 42.921875 64.890625 
Q 37.9375 66.21875 33.296875 66.21875 
Q 25.25 66.21875 20.875 63.09375 
Q 16.5 59.96875 16.5 54.203125 
Q 16.5 49.359375 19.40625 46.890625 
Q 22.3125 44.4375 30.421875 42.921875 
L 36.375 41.703125 
Q 47.40625 39.59375 52.65625 34.296875 
Q 57.90625 29 57.90625 20.125 
Q 57.90625 9.515625 50.796875 4.046875 
Q 43.703125 -1.421875 29.984375 -1.421875 
Q 24.8125 -1.421875 18.96875 -0.25 
Q 13.140625 0.921875 6.890625 3.21875 
L 6.890625 13.375 
Q 12.890625 10.015625 18.65625 8.296875 
Q 24.421875 6.59375 29.984375 6.59375 
Q 38.421875 6.59375 43.015625 9.90625 
Q 47.609375 13.234375 47.609375 19.390625 
Q 47.609375 24.75 44.3125 27.78125 
Q 41.015625 30.8125 33.5 32.328125 
L 27.484375 33.5 
Q 16.453125 35.6875 11.515625 40.375 
Q 6.59375 45.0625 6.59375 53.421875 
Q 6.59375 63.09375 13.40625 68.65625 
Q 20.21875 74.21875 32.171875 74.21875 
Q 37.3125 74.21875 42.625 73.28125 
Q 47.953125 72.359375 53.515625 70.515625 
z
" id="DejaVuSans-83"/>
      <path d="M 9.421875 54.6875 
L 18.40625 54.6875 
L 18.40625 0 
L 9.421875 0 
z
M 9.421875 75.984375 
L 18.40625 75.984375 
L 18.40625 64.59375 
L 9.421875 64.59375 
z
" id="DejaVuSans-105"/>
      <path d="M 46 62.703125 
L 46 35.5 
L 73.1875 35.5 
L 73.1875 27.203125 
L 46 27.203125 
L 46 0 
L 37.796875 0 
L 37.796875 27.203125 
L 10.59375 27.203125 
L 10.59375 35.5 
L 37.796875 35.5 
L 37.796875 62.703125 
z
" id="DejaVuSans-43"/>
      <path d="M 45.40625 46.390625 
L 45.40625 75.984375 
L 54.390625 75.984375 
L 54.390625 0 
L 45.40625 0 
L 45.40625 8.203125 
Q 42.578125 3.328125 38.25 0.953125 
Q 33.9375 -1.421875 27.875 -1.421875 
Q 17.96875 -1.421875 11.734375 6.484375 
Q 5.515625 14.40625 5.515625 27.296875 
Q 5.515625 40.1875 11.734375 48.09375 
Q 17.96875 56 27.875 56 
Q 33.9375 56 38.25 53.625 
Q 42.578125 51.265625 45.40625 46.390625 
z
M 14.796875 27.296875 
Q 14.796875 17.390625 18.875 11.75 
Q 22.953125 6.109375 30.078125 6.109375 
Q 37.203125 6.109375 41.296875 11.75 
Q 45.40625 17.390625 45.40625 27.296875 
Q 45.40625 37.203125 41.296875 42.84375 
Q 37.203125 48.484375 30.078125 48.484375 
Q 22.953125 48.484375 18.875 42.84375 
Q 14.796875 37.203125 14.796875 27.296875 
z
" id="DejaVuSans-100"/>
     </defs>
     <g style="fill:#262626;" transform="translate(96.55 104.287734)scale(0.115 -0.115)">
      <use xlink:href="#DejaVuSans-68"/>
      <use x="77.001953" xlink:href="#DejaVuSans-81"/>
      <use x="155.712891" xlink:href="#DejaVuSans-78"/>
      <use x="230.517578" xlink:href="#DejaVuSans-32"/>
      <use x="262.304688" xlink:href="#DejaVuSans-83"/>
      <use x="325.78125" xlink:href="#DejaVuSans-105"/>
      <use x="353.564453" xlink:href="#DejaVuSans-76"/>
      <use x="404.277344" xlink:href="#DejaVuSans-85"/>
      <use x="477.470703" xlink:href="#DejaVuSans-43"/>
      <use x="561.259766" xlink:href="#DejaVuSans-100"/>
      <use x="624.736328" xlink:href="#DejaVuSans-83"/>
      <use x="688.212891" xlink:href="#DejaVuSans-105"/>
      <use x="715.996094" xlink:href="#DejaVuSans-76"/>
      <use x="766.708984" xlink:href="#DejaVuSans-85"/>
     </g>
    </g>
    <g id="line2d_26">
     <path d="M 64.35 117.142578 
L 87.35 117.142578 
" style="fill:none;stroke:#9467bd;stroke-linecap:round;stroke-width:1.5;"/>
    </g>
    <g id="line2d_27"/>
    <g id="text_19">
     <!-- DQN SiLU -->
     <g style="fill:#262626;" transform="translate(96.55 121.167578)scale(0.115 -0.115)">
      <use xlink:href="#DejaVuSans-68"/>
      <use x="77.001953" xlink:href="#DejaVuSans-81"/>
      <use x="155.712891" xlink:href="#DejaVuSans-78"/>
      <use x="230.517578" xlink:href="#DejaVuSans-32"/>
      <use x="262.304688" xlink:href="#DejaVuSans-83"/>
      <use x="325.78125" xlink:href="#DejaVuSans-105"/>
      <use x="353.564453" xlink:href="#DejaVuSans-76"/>
      <use x="404.277344" xlink:href="#DejaVuSans-85"/>
     </g>
    </g>
    <g id="line2d_28">
     <path d="M 64.35 134.022422 
L 87.35 134.022422 
" style="fill:none;stroke:#8c564b;stroke-linecap:round;stroke-width:1.5;"/>
    </g>
    <g id="line2d_29"/>
    <g id="text_20">
     <!-- DDQN LReLU -->
     <g style="fill:#262626;" transform="translate(96.55 138.047422)scale(0.115 -0.115)">
      <use xlink:href="#DejaVuSans-68"/>
      <use x="77.001953" xlink:href="#DejaVuSans-68"/>
      <use x="154.003906" xlink:href="#DejaVuSans-81"/>
      <use x="232.714844" xlink:href="#DejaVuSans-78"/>
      <use x="307.519531" xlink:href="#DejaVuSans-32"/>
      <use x="339.306641" xlink:href="#DejaVuSans-76"/>
      <use x="395.019531" xlink:href="#DejaVuSans-82"/>
      <use x="460.001953" xlink:href="#DejaVuSans-101"/>
      <use x="521.525391" xlink:href="#DejaVuSans-76"/>
      <use x="572.238281" xlink:href="#DejaVuSans-85"/>
     </g>
    </g>
   </g>
  </g>
 </g>
 <defs>
  <clipPath id="pdec807aa94">
   <rect height="221.76" width="334.8" x="54" y="34.56"/>
  </clipPath>
 </defs>
</svg>
