<?xml version="1.0" encoding="utf-8" standalone="no"?>
<!DOCTYPE svg PUBLIC "-//W3C//DTD SVG 1.1//EN"
  "http://www.w3.org/Graphics/SVG/1.1/DTD/svg11.dtd">
<!-- Created with matplotlib (https://matplotlib.org/) -->
<svg height="216pt" version="1.1" viewBox="0 0 324 216" width="324pt" xmlns="http://www.w3.org/2000/svg" xmlns:xlink="http://www.w3.org/1999/xlink">
 <metadata>
  <rdf:RDF xmlns:cc="http://creativecommons.org/ns#" xmlns:dc="http://purl.org/dc/elements/1.1/" xmlns:rdf="http://www.w3.org/1999/02/22-rdf-syntax-ns#">
   <cc:Work>
    <dc:type rdf:resource="http://purl.org/dc/dcmitype/StillImage"/>
    <dc:date>2021-01-11T15:57:01.755301</dc:date>
    <dc:format>image/svg+xml</dc:format>
    <dc:creator>
     <cc:Agent>
      <dc:title>Matplotlib v3.3.3, https://matplotlib.org/</dc:title>
     </cc:Agent>
    </dc:creator>
   </cc:Work>
  </rdf:RDF>
 </metadata>
 <defs>
  <style type="text/css">*{stroke-linecap:butt;stroke-linejoin:round;}</style>
 </defs>
 <g id="figure_1">
  <g id="patch_1">
   <path d="M 0 216 
L 324 216 
L 324 0 
L 0 0 
z
" style="fill:#ffffff;"/>
  </g>
  <g id="axes_1">
   <g id="patch_2">
    <path d="M 40.5 192.24 
L 291.6 192.24 
L 291.6 25.92 
L 40.5 25.92 
z
" style="fill:#ffffff;"/>
   </g>
   <g id="matplotlib.axis_1">
    <g id="xtick_1">
     <g id="line2d_1">
      <path clip-path="url(#pe486af923f)" d="M 68.535437 192.24 
L 68.535437 25.92 
" style="fill:none;stroke:#cccccc;stroke-linecap:round;stroke-width:0.8;"/>
     </g>
     <g id="text_1">
      <!-- −4 -->
      <g style="fill:#262626;" transform="translate(61.164343 206.838437)scale(0.1 -0.1)">
       <defs>
        <path d="M 10.59375 35.5 
L 73.1875 35.5 
L 73.1875 27.203125 
L 10.59375 27.203125 
z
" id="DejaVuSans-8722"/>
        <path d="M 37.796875 64.3125 
L 12.890625 25.390625 
L 37.796875 25.390625 
z
M 35.203125 72.90625 
L 47.609375 72.90625 
L 47.609375 25.390625 
L 58.015625 25.390625 
L 58.015625 17.1875 
L 47.609375 17.1875 
L 47.609375 0 
L 37.796875 0 
L 37.796875 17.1875 
L 4.890625 17.1875 
L 4.890625 26.703125 
z
" id="DejaVuSans-52"/>
       </defs>
       <use xlink:href="#DejaVuSans-8722"/>
       <use x="83.789062" xlink:href="#DejaVuSans-52"/>
      </g>
     </g>
    </g>
    <g id="xtick_2">
     <g id="line2d_2">
      <path clip-path="url(#pe486af923f)" d="M 112.860238 192.24 
L 112.860238 25.92 
" style="fill:none;stroke:#cccccc;stroke-linecap:round;stroke-width:0.8;"/>
     </g>
     <g id="text_2">
      <!-- −2 -->
      <g style="fill:#262626;" transform="translate(105.489145 206.838437)scale(0.1 -0.1)">
       <defs>
        <path d="M 19.1875 8.296875 
L 53.609375 8.296875 
L 53.609375 0 
L 7.328125 0 
L 7.328125 8.296875 
Q 12.9375 14.109375 22.625 23.890625 
Q 32.328125 33.6875 34.8125 36.53125 
Q 39.546875 41.84375 41.421875 45.53125 
Q 43.3125 49.21875 43.3125 52.78125 
Q 43.3125 58.59375 39.234375 62.25 
Q 35.15625 65.921875 28.609375 65.921875 
Q 23.96875 65.921875 18.8125 64.3125 
Q 13.671875 62.703125 7.8125 59.421875 
L 7.8125 69.390625 
Q 13.765625 71.78125 18.9375 73 
Q 24.125 74.21875 28.421875 74.21875 
Q 39.75 74.21875 46.484375 68.546875 
Q 53.21875 62.890625 53.21875 53.421875 
Q 53.21875 48.921875 51.53125 44.890625 
Q 49.859375 40.875 45.40625 35.40625 
Q 44.1875 33.984375 37.640625 27.21875 
Q 31.109375 20.453125 19.1875 8.296875 
z
" id="DejaVuSans-50"/>
       </defs>
       <use xlink:href="#DejaVuSans-8722"/>
       <use x="83.789062" xlink:href="#DejaVuSans-50"/>
      </g>
     </g>
    </g>
    <g id="xtick_3">
     <g id="line2d_3">
      <path clip-path="url(#pe486af923f)" d="M 157.18504 192.24 
L 157.18504 25.92 
" style="fill:none;stroke:#cccccc;stroke-linecap:round;stroke-width:0.8;"/>
     </g>
     <g id="text_3">
      <!-- 0 -->
      <g style="fill:#262626;" transform="translate(154.00379 206.838437)scale(0.1 -0.1)">
       <defs>
        <path d="M 31.78125 66.40625 
Q 24.171875 66.40625 20.328125 58.90625 
Q 16.5 51.421875 16.5 36.375 
Q 16.5 21.390625 20.328125 13.890625 
Q 24.171875 6.390625 31.78125 6.390625 
Q 39.453125 6.390625 43.28125 13.890625 
Q 47.125 21.390625 47.125 36.375 
Q 47.125 51.421875 43.28125 58.90625 
Q 39.453125 66.40625 31.78125 66.40625 
z
M 31.78125 74.21875 
Q 44.046875 74.21875 50.515625 64.515625 
Q 56.984375 54.828125 56.984375 36.375 
Q 56.984375 17.96875 50.515625 8.265625 
Q 44.046875 -1.421875 31.78125 -1.421875 
Q 19.53125 -1.421875 13.0625 8.265625 
Q 6.59375 17.96875 6.59375 36.375 
Q 6.59375 54.828125 13.0625 64.515625 
Q 19.53125 74.21875 31.78125 74.21875 
z
" id="DejaVuSans-48"/>
       </defs>
       <use xlink:href="#DejaVuSans-48"/>
      </g>
     </g>
    </g>
    <g id="xtick_4">
     <g id="line2d_4">
      <path clip-path="url(#pe486af923f)" d="M 201.509841 192.24 
L 201.509841 25.92 
" style="fill:none;stroke:#cccccc;stroke-linecap:round;stroke-width:0.8;"/>
     </g>
     <g id="text_4">
      <!-- 2 -->
      <g style="fill:#262626;" transform="translate(198.328591 206.838437)scale(0.1 -0.1)">
       <use xlink:href="#DejaVuSans-50"/>
      </g>
     </g>
    </g>
    <g id="xtick_5">
     <g id="line2d_5">
      <path clip-path="url(#pe486af923f)" d="M 245.834643 192.24 
L 245.834643 25.92 
" style="fill:none;stroke:#cccccc;stroke-linecap:round;stroke-width:0.8;"/>
     </g>
     <g id="text_5">
      <!-- 4 -->
      <g style="fill:#262626;" transform="translate(242.653393 206.838437)scale(0.1 -0.1)">
       <use xlink:href="#DejaVuSans-52"/>
      </g>
     </g>
    </g>
    <g id="xtick_6">
     <g id="line2d_6">
      <path clip-path="url(#pe486af923f)" d="M 290.159444 192.24 
L 290.159444 25.92 
" style="fill:none;stroke:#cccccc;stroke-linecap:round;stroke-width:0.8;"/>
     </g>
     <g id="text_6">
      <!-- 6 -->
      <g style="fill:#262626;" transform="translate(286.978194 206.838437)scale(0.1 -0.1)">
       <defs>
        <path d="M 33.015625 40.375 
Q 26.375 40.375 22.484375 35.828125 
Q 18.609375 31.296875 18.609375 23.390625 
Q 18.609375 15.53125 22.484375 10.953125 
Q 26.375 6.390625 33.015625 6.390625 
Q 39.65625 6.390625 43.53125 10.953125 
Q 47.40625 15.53125 47.40625 23.390625 
Q 47.40625 31.296875 43.53125 35.828125 
Q 39.65625 40.375 33.015625 40.375 
z
M 52.59375 71.296875 
L 52.59375 62.3125 
Q 48.875 64.0625 45.09375 64.984375 
Q 41.3125 65.921875 37.59375 65.921875 
Q 27.828125 65.921875 22.671875 59.328125 
Q 17.53125 52.734375 16.796875 39.40625 
Q 19.671875 43.65625 24.015625 45.921875 
Q 28.375 48.1875 33.59375 48.1875 
Q 44.578125 48.1875 50.953125 41.515625 
Q 57.328125 34.859375 57.328125 23.390625 
Q 57.328125 12.15625 50.6875 5.359375 
Q 44.046875 -1.421875 33.015625 -1.421875 
Q 20.359375 -1.421875 13.671875 8.265625 
Q 6.984375 17.96875 6.984375 36.375 
Q 6.984375 53.65625 15.1875 63.9375 
Q 23.390625 74.21875 37.203125 74.21875 
Q 40.921875 74.21875 44.703125 73.484375 
Q 48.484375 72.75 52.59375 71.296875 
z
" id="DejaVuSans-54"/>
       </defs>
       <use xlink:href="#DejaVuSans-54"/>
      </g>
     </g>
    </g>
   </g>
   <g id="matplotlib.axis_2">
    <g id="ytick_1">
     <g id="line2d_7">
      <path clip-path="url(#pe486af923f)" d="M 40.5 184.470984 
L 291.6 184.470984 
" style="fill:none;stroke:#cccccc;stroke-linecap:round;stroke-width:0.8;"/>
     </g>
     <g id="line2d_8">
      <defs>
       <path d="M 0 0 
L -3.5 0 
" id="m8499a4064b" style="stroke:#262626;stroke-width:0.8;"/>
      </defs>
      <g>
       <use style="fill:#262626;stroke:#262626;stroke-width:0.8;" x="40.5" xlink:href="#m8499a4064b" y="184.470984"/>
      </g>
     </g>
     <g id="text_7">
      <!-- −0.05 -->
      <g style="fill:#262626;" transform="translate(2.854687 188.270202)scale(0.1 -0.1)">
       <defs>
        <path d="M 10.6875 12.40625 
L 21 12.40625 
L 21 0 
L 10.6875 0 
z
" id="DejaVuSans-46"/>
        <path d="M 10.796875 72.90625 
L 49.515625 72.90625 
L 49.515625 64.59375 
L 19.828125 64.59375 
L 19.828125 46.734375 
Q 21.96875 47.46875 24.109375 47.828125 
Q 26.265625 48.1875 28.421875 48.1875 
Q 40.625 48.1875 47.75 41.5 
Q 54.890625 34.8125 54.890625 23.390625 
Q 54.890625 11.625 47.5625 5.09375 
Q 40.234375 -1.421875 26.90625 -1.421875 
Q 22.3125 -1.421875 17.546875 -0.640625 
Q 12.796875 0.140625 7.71875 1.703125 
L 7.71875 11.625 
Q 12.109375 9.234375 16.796875 8.0625 
Q 21.484375 6.890625 26.703125 6.890625 
Q 35.15625 6.890625 40.078125 11.328125 
Q 45.015625 15.765625 45.015625 23.390625 
Q 45.015625 31 40.078125 35.4375 
Q 35.15625 39.890625 26.703125 39.890625 
Q 22.75 39.890625 18.8125 39.015625 
Q 14.890625 38.140625 10.796875 36.28125 
z
" id="DejaVuSans-53"/>
       </defs>
       <use xlink:href="#DejaVuSans-8722"/>
       <use x="83.789062" xlink:href="#DejaVuSans-48"/>
       <use x="147.412109" xlink:href="#DejaVuSans-46"/>
       <use x="179.199219" xlink:href="#DejaVuSans-48"/>
       <use x="242.822266" xlink:href="#DejaVuSans-53"/>
      </g>
     </g>
    </g>
    <g id="ytick_2">
     <g id="line2d_9">
      <path clip-path="url(#pe486af923f)" d="M 40.5 157.76742 
L 291.6 157.76742 
" style="fill:none;stroke:#cccccc;stroke-linecap:round;stroke-width:0.8;"/>
     </g>
     <g id="line2d_10">
      <g>
       <use style="fill:#262626;stroke:#262626;stroke-width:0.8;" x="40.5" xlink:href="#m8499a4064b" y="157.76742"/>
      </g>
     </g>
     <g id="text_8">
      <!-- −0.04 -->
      <g style="fill:#262626;" transform="translate(2.854687 161.566639)scale(0.1 -0.1)">
       <use xlink:href="#DejaVuSans-8722"/>
       <use x="83.789062" xlink:href="#DejaVuSans-48"/>
       <use x="147.412109" xlink:href="#DejaVuSans-46"/>
       <use x="179.199219" xlink:href="#DejaVuSans-48"/>
       <use x="242.822266" xlink:href="#DejaVuSans-52"/>
      </g>
     </g>
    </g>
    <g id="ytick_3">
     <g id="line2d_11">
      <path clip-path="url(#pe486af923f)" d="M 40.5 131.063856 
L 291.6 131.063856 
" style="fill:none;stroke:#cccccc;stroke-linecap:round;stroke-width:0.8;"/>
     </g>
     <g id="line2d_12">
      <g>
       <use style="fill:#262626;stroke:#262626;stroke-width:0.8;" x="40.5" xlink:href="#m8499a4064b" y="131.063856"/>
      </g>
     </g>
     <g id="text_9">
      <!-- −0.03 -->
      <g style="fill:#262626;" transform="translate(2.854687 134.863075)scale(0.1 -0.1)">
       <defs>
        <path d="M 40.578125 39.3125 
Q 47.65625 37.796875 51.625 33 
Q 55.609375 28.21875 55.609375 21.1875 
Q 55.609375 10.40625 48.1875 4.484375 
Q 40.765625 -1.421875 27.09375 -1.421875 
Q 22.515625 -1.421875 17.65625 -0.515625 
Q 12.796875 0.390625 7.625 2.203125 
L 7.625 11.71875 
Q 11.71875 9.328125 16.59375 8.109375 
Q 21.484375 6.890625 26.8125 6.890625 
Q 36.078125 6.890625 40.9375 10.546875 
Q 45.796875 14.203125 45.796875 21.1875 
Q 45.796875 27.640625 41.28125 31.265625 
Q 36.765625 34.90625 28.71875 34.90625 
L 20.21875 34.90625 
L 20.21875 43.015625 
L 29.109375 43.015625 
Q 36.375 43.015625 40.234375 45.921875 
Q 44.09375 48.828125 44.09375 54.296875 
Q 44.09375 59.90625 40.109375 62.90625 
Q 36.140625 65.921875 28.71875 65.921875 
Q 24.65625 65.921875 20.015625 65.03125 
Q 15.375 64.15625 9.8125 62.3125 
L 9.8125 71.09375 
Q 15.4375 72.65625 20.34375 73.4375 
Q 25.25 74.21875 29.59375 74.21875 
Q 40.828125 74.21875 47.359375 69.109375 
Q 53.90625 64.015625 53.90625 55.328125 
Q 53.90625 49.265625 50.4375 45.09375 
Q 46.96875 40.921875 40.578125 39.3125 
z
" id="DejaVuSans-51"/>
       </defs>
       <use xlink:href="#DejaVuSans-8722"/>
       <use x="83.789062" xlink:href="#DejaVuSans-48"/>
       <use x="147.412109" xlink:href="#DejaVuSans-46"/>
       <use x="179.199219" xlink:href="#DejaVuSans-48"/>
       <use x="242.822266" xlink:href="#DejaVuSans-51"/>
      </g>
     </g>
    </g>
    <g id="ytick_4">
     <g id="line2d_13">
      <path clip-path="url(#pe486af923f)" d="M 40.5 104.360292 
L 291.6 104.360292 
" style="fill:none;stroke:#cccccc;stroke-linecap:round;stroke-width:0.8;"/>
     </g>
     <g id="line2d_14">
      <g>
       <use style="fill:#262626;stroke:#262626;stroke-width:0.8;" x="40.5" xlink:href="#m8499a4064b" y="104.360292"/>
      </g>
     </g>
     <g id="text_10">
      <!-- −0.02 -->
      <g style="fill:#262626;" transform="translate(2.854687 108.159511)scale(0.1 -0.1)">
       <use xlink:href="#DejaVuSans-8722"/>
       <use x="83.789062" xlink:href="#DejaVuSans-48"/>
       <use x="147.412109" xlink:href="#DejaVuSans-46"/>
       <use x="179.199219" xlink:href="#DejaVuSans-48"/>
       <use x="242.822266" xlink:href="#DejaVuSans-50"/>
      </g>
     </g>
    </g>
    <g id="ytick_5">
     <g id="line2d_15">
      <path clip-path="url(#pe486af923f)" d="M 40.5 77.656728 
L 291.6 77.656728 
" style="fill:none;stroke:#cccccc;stroke-linecap:round;stroke-width:0.8;"/>
     </g>
     <g id="line2d_16">
      <g>
       <use style="fill:#262626;stroke:#262626;stroke-width:0.8;" x="40.5" xlink:href="#m8499a4064b" y="77.656728"/>
      </g>
     </g>
     <g id="text_11">
      <!-- −0.01 -->
      <g style="fill:#262626;" transform="translate(2.854687 81.455947)scale(0.1 -0.1)">
       <defs>
        <path d="M 12.40625 8.296875 
L 28.515625 8.296875 
L 28.515625 63.921875 
L 10.984375 60.40625 
L 10.984375 69.390625 
L 28.421875 72.90625 
L 38.28125 72.90625 
L 38.28125 8.296875 
L 54.390625 8.296875 
L 54.390625 0 
L 12.40625 0 
z
" id="DejaVuSans-49"/>
       </defs>
       <use xlink:href="#DejaVuSans-8722"/>
       <use x="83.789062" xlink:href="#DejaVuSans-48"/>
       <use x="147.412109" xlink:href="#DejaVuSans-46"/>
       <use x="179.199219" xlink:href="#DejaVuSans-48"/>
       <use x="242.822266" xlink:href="#DejaVuSans-49"/>
      </g>
     </g>
    </g>
    <g id="ytick_6">
     <g id="line2d_17">
      <path clip-path="url(#pe486af923f)" d="M 40.5 50.953165 
L 291.6 50.953165 
" style="fill:none;stroke:#cccccc;stroke-linecap:round;stroke-width:0.8;"/>
     </g>
     <g id="line2d_18">
      <g>
       <use style="fill:#262626;stroke:#262626;stroke-width:0.8;" x="40.5" xlink:href="#m8499a4064b" y="50.953165"/>
      </g>
     </g>
     <g id="text_12">
      <!-- 0.00 -->
      <g style="fill:#262626;" transform="translate(11.234375 54.752383)scale(0.1 -0.1)">
       <use xlink:href="#DejaVuSans-48"/>
       <use x="63.623047" xlink:href="#DejaVuSans-46"/>
       <use x="95.410156" xlink:href="#DejaVuSans-48"/>
       <use x="159.033203" xlink:href="#DejaVuSans-48"/>
      </g>
     </g>
    </g>
   </g>
   <g id="line2d_19">
    <path clip-path="url(#pe486af923f)" d="M 53.021761 184.68 
L 55.237999 172.473467 
L 57.454237 160.768665 
L 59.670474 149.588671 
L 61.886712 138.951949 
L 64.102961 128.872387 
L 66.319199 119.359494 
L 68.535437 110.418245 
L 70.751675 102.049713 
L 72.967918 94.251034 
L 75.184156 87.01608 
L 77.400399 80.335063 
L 79.616637 74.195845 
L 81.832875 68.583465 
L 84.049118 63.480973 
L 86.265356 58.869467 
L 88.4816 54.728613 
L 90.697838 51.036965 
L 92.914076 47.772279 
L 95.130319 44.911396 
L 97.346557 42.431078 
L 99.5628 40.308047 
L 101.779038 38.518826 
L 103.995276 37.040496 
L 106.211519 35.850534 
L 108.427757 34.926855 
L 110.644 34.248054 
L 112.860238 33.793715 
L 115.076479 33.543985 
L 117.29272 33.48 
L 119.508957 33.584055 
L 121.725198 33.839078 
L 123.941439 34.229113 
L 126.157679 34.739199 
L 128.37392 35.35529 
L 130.590158 36.064333 
L 132.806398 36.854232 
L 135.022639 37.713687 
L 137.23888 38.632391 
L 139.455119 39.600556 
L 141.671359 40.609825 
L 143.887599 41.651803 
L 146.103839 42.719446 
L 148.320079 43.80615 
L 150.536319 44.905706 
L 152.75256 46.012981 
L 154.9688 47.123162 
L 157.18504 48.231631 
L 159.40128 49.334808 
L 161.61752 50.429271 
L 163.83376 51.512154 
L 166.05 52.580593 
L 168.26624 53.632479 
L 170.482481 54.665703 
L 172.69872 55.678912 
L 174.914961 56.670673 
L 177.1312 57.639435 
L 179.34744 58.584799 
L 181.563681 59.505453 
L 183.779922 60.401476 
L 185.99616 61.272072 
L 188.2124 62.117043 
L 190.428641 62.936229 
L 192.644881 63.729749 
L 194.861122 64.497405 
L 197.07736 65.239554 
L 199.293601 65.956516 
L 201.509841 66.648648 
L 203.726079 67.31587 
L 205.942322 67.959138 
L 208.15856 68.578611 
L 210.374804 69.174726 
L 212.591041 69.7482 
L 214.807279 70.29951 
L 217.023523 70.829293 
L 219.239761 71.337986 
L 221.456004 71.826266 
L 223.672242 72.294691 
L 225.88848 72.743896 
L 228.104723 73.174399 
L 230.320961 73.587036 
L 232.537204 73.981966 
L 234.753442 74.360382 
L 236.96968 74.722285 
L 239.185923 75.068829 
L 241.402161 75.399694 
L 243.618405 75.716633 
L 245.834643 76.019207 
L 248.05088 76.308371 
L 250.267118 76.584563 
L 252.483367 76.848579 
L 254.699605 77.100061 
L 256.915843 77.340719 
L 259.132081 77.570276 
L 261.348319 77.78889 
L 263.564567 77.997636 
L 265.780805 78.196314 
L 267.997043 78.38604 
L 270.213281 78.567011 
L 272.429519 78.739467 
L 274.645768 78.903527 
L 276.862006 79.059668 
L 279.078244 79.208727 
" style="fill:none;stroke:#1f77b4;stroke-linecap:round;stroke-width:1.5;"/>
   </g>
   <g id="line2d_20">
    <path clip-path="url(#pe486af923f)" d="M 53.021761 184.68 
L 55.237999 172.473467 
L 57.454237 160.768665 
L 59.670474 149.588671 
L 61.886712 138.951949 
L 64.102961 128.872387 
L 66.319199 119.359494 
L 68.535437 110.418245 
L 70.751675 102.049713 
L 72.967918 94.251034 
L 75.184156 87.01608 
L 77.400399 80.335063 
L 79.616637 74.195845 
L 81.832875 68.583465 
L 84.049118 63.480973 
L 86.265356 58.869467 
L 88.4816 54.728613 
L 90.697838 51.036965 
L 92.914076 47.772279 
L 95.130319 44.911396 
L 97.346557 42.431078 
L 99.5628 40.308047 
L 101.779038 38.518826 
L 103.995276 37.040496 
L 106.211519 35.850534 
L 108.427757 34.926855 
L 110.644 34.248054 
L 112.860238 33.793715 
L 115.076479 33.543985 
L 117.29272 33.48 
L 119.508957 33.584055 
L 121.725198 33.839078 
L 123.941439 34.229113 
L 126.157679 34.739199 
L 128.37392 35.35529 
L 130.590158 36.064333 
L 132.806398 36.854232 
L 135.022639 37.713687 
L 137.23888 38.632391 
L 139.455119 39.600556 
L 141.671359 40.609825 
L 143.887599 41.651803 
L 146.103839 42.719446 
L 148.320079 43.80615 
L 150.536319 44.905706 
L 152.75256 46.012981 
L 154.9688 47.123162 
L 157.18504 48.231631 
L 159.40128 49.334808 
L 161.61752 50.429271 
L 163.83376 51.512154 
L 166.05 52.580593 
L 168.26624 53.632479 
L 170.482481 54.665703 
L 172.69872 55.678912 
L 174.914961 56.670673 
L 177.1312 57.639435 
L 179.34744 58.584799 
L 181.563681 59.505453 
L 183.779922 60.401476 
L 185.99616 61.272072 
L 188.2124 62.117043 
L 190.428641 62.936229 
L 192.644881 63.729749 
L 194.861122 64.497405 
L 197.07736 65.239554 
L 199.293601 65.956516 
L 201.509841 66.648648 
L 203.726079 67.31587 
L 205.942322 67.959138 
L 208.15856 68.578611 
L 210.374804 69.174726 
L 212.591041 69.7482 
L 214.807279 70.29951 
L 217.023523 70.829293 
L 219.239761 71.337986 
L 221.456004 71.826266 
L 223.672242 72.294691 
L 225.88848 72.743896 
L 228.104723 73.174399 
L 230.320961 73.587036 
L 232.537204 73.981966 
L 234.753442 74.360382 
L 236.96968 74.722285 
L 239.185923 75.068829 
L 241.402161 75.399694 
L 243.618405 75.716633 
L 245.834643 76.019207 
L 248.05088 76.308371 
L 250.267118 76.584563 
L 252.483367 76.848579 
L 254.699605 77.100061 
L 256.915843 77.340719 
L 259.132081 77.570276 
L 261.348319 77.78889 
L 263.564567 77.997636 
L 265.780805 78.196314 
L 267.997043 78.38604 
L 270.213281 78.567011 
L 272.429519 78.739467 
L 274.645768 78.903527 
L 276.862006 79.059668 
L 279.078244 79.208727 
" style="fill:none;stroke:#ff7f0e;stroke-dasharray:5.55,2.4;stroke-dashoffset:0;stroke-width:1.5;"/>
   </g>
   <g id="patch_3">
    <path d="M 40.5 192.24 
L 40.5 25.92 
" style="fill:none;stroke:#cccccc;stroke-linecap:square;stroke-linejoin:miter;stroke-width:0.8;"/>
   </g>
   <g id="patch_4">
    <path d="M 291.6 192.24 
L 291.6 25.92 
" style="fill:none;stroke:#cccccc;stroke-linecap:square;stroke-linejoin:miter;stroke-width:0.8;"/>
   </g>
   <g id="patch_5">
    <path d="M 40.5 192.24 
L 291.6 192.24 
" style="fill:none;stroke:#cccccc;stroke-linecap:square;stroke-linejoin:miter;stroke-width:0.8;"/>
   </g>
   <g id="patch_6">
    <path d="M 40.5 25.92 
L 291.6 25.92 
" style="fill:none;stroke:#cccccc;stroke-linecap:square;stroke-linejoin:miter;stroke-width:0.8;"/>
   </g>
   <g id="legend_1">
    <g id="patch_7">
     <path d="M 131.823438 187.24 
L 284.6 187.24 
Q 286.6 187.24 286.6 185.24 
L 286.6 156.88375 
Q 286.6 154.88375 284.6 154.88375 
L 131.823438 154.88375 
Q 129.823438 154.88375 129.823438 156.88375 
L 129.823438 185.24 
Q 129.823438 187.24 131.823438 187.24 
z
" style="fill:#ffffff;opacity:0.8;stroke:#cccccc;stroke-linejoin:miter;"/>
    </g>
    <g id="line2d_21">
     <path d="M 133.823438 162.982188 
L 153.823438 162.982188 
" style="fill:none;stroke:#1f77b4;stroke-linecap:round;stroke-width:1.5;"/>
    </g>
    <g id="line2d_22"/>
    <g id="text_13">
     <!-- R.RAF (24616.7) -->
     <g style="fill:#262626;" transform="translate(161.823438 166.482188)scale(0.1 -0.1)">
      <defs>
       <path d="M 44.390625 34.1875 
Q 47.5625 33.109375 50.5625 29.59375 
Q 53.5625 26.078125 56.59375 19.921875 
L 66.609375 0 
L 56 0 
L 46.6875 18.703125 
Q 43.0625 26.03125 39.671875 28.421875 
Q 36.28125 30.8125 30.421875 30.8125 
L 19.671875 30.8125 
L 19.671875 0 
L 9.8125 0 
L 9.8125 72.90625 
L 32.078125 72.90625 
Q 44.578125 72.90625 50.734375 67.671875 
Q 56.890625 62.453125 56.890625 51.90625 
Q 56.890625 45.015625 53.6875 40.46875 
Q 50.484375 35.9375 44.390625 34.1875 
z
M 19.671875 64.796875 
L 19.671875 38.921875 
L 32.078125 38.921875 
Q 39.203125 38.921875 42.84375 42.21875 
Q 46.484375 45.515625 46.484375 51.90625 
Q 46.484375 58.296875 42.84375 61.546875 
Q 39.203125 64.796875 32.078125 64.796875 
z
" id="DejaVuSans-82"/>
       <path d="M 34.1875 63.1875 
L 20.796875 26.90625 
L 47.609375 26.90625 
z
M 28.609375 72.90625 
L 39.796875 72.90625 
L 67.578125 0 
L 57.328125 0 
L 50.6875 18.703125 
L 17.828125 18.703125 
L 11.1875 0 
L 0.78125 0 
z
" id="DejaVuSans-65"/>
       <path d="M 9.8125 72.90625 
L 51.703125 72.90625 
L 51.703125 64.59375 
L 19.671875 64.59375 
L 19.671875 43.109375 
L 48.578125 43.109375 
L 48.578125 34.8125 
L 19.671875 34.8125 
L 19.671875 0 
L 9.8125 0 
z
" id="DejaVuSans-70"/>
       <path id="DejaVuSans-32"/>
       <path d="M 31 75.875 
Q 24.46875 64.65625 21.28125 53.65625 
Q 18.109375 42.671875 18.109375 31.390625 
Q 18.109375 20.125 21.3125 9.0625 
Q 24.515625 -2 31 -13.1875 
L 23.1875 -13.1875 
Q 15.875 -1.703125 12.234375 9.375 
Q 8.59375 20.453125 8.59375 31.390625 
Q 8.59375 42.28125 12.203125 53.3125 
Q 15.828125 64.359375 23.1875 75.875 
z
" id="DejaVuSans-40"/>
       <path d="M 8.203125 72.90625 
L 55.078125 72.90625 
L 55.078125 68.703125 
L 28.609375 0 
L 18.3125 0 
L 43.21875 64.59375 
L 8.203125 64.59375 
z
" id="DejaVuSans-55"/>
       <path d="M 8.015625 75.875 
L 15.828125 75.875 
Q 23.140625 64.359375 26.78125 53.3125 
Q 30.421875 42.28125 30.421875 31.390625 
Q 30.421875 20.453125 26.78125 9.375 
Q 23.140625 -1.703125 15.828125 -13.1875 
L 8.015625 -13.1875 
Q 14.5 -2 17.703125 9.0625 
Q 20.90625 20.125 20.90625 31.390625 
Q 20.90625 42.671875 17.703125 53.65625 
Q 14.5 64.65625 8.015625 75.875 
z
" id="DejaVuSans-41"/>
      </defs>
      <use xlink:href="#DejaVuSans-82"/>
      <use x="65.857422" xlink:href="#DejaVuSans-46"/>
      <use x="97.644531" xlink:href="#DejaVuSans-82"/>
      <use x="163.126953" xlink:href="#DejaVuSans-65"/>
      <use x="231.535156" xlink:href="#DejaVuSans-70"/>
      <use x="289.054688" xlink:href="#DejaVuSans-32"/>
      <use x="320.841797" xlink:href="#DejaVuSans-40"/>
      <use x="359.855469" xlink:href="#DejaVuSans-50"/>
      <use x="423.478516" xlink:href="#DejaVuSans-52"/>
      <use x="487.101562" xlink:href="#DejaVuSans-54"/>
      <use x="550.724609" xlink:href="#DejaVuSans-49"/>
      <use x="614.347656" xlink:href="#DejaVuSans-54"/>
      <use x="677.970703" xlink:href="#DejaVuSans-46"/>
      <use x="709.757812" xlink:href="#DejaVuSans-55"/>
      <use x="773.380859" xlink:href="#DejaVuSans-41"/>
     </g>
    </g>
    <g id="line2d_23">
     <path d="M 133.823438 177.660313 
L 153.823438 177.660313 
" style="fill:none;stroke:#ff7f0e;stroke-dasharray:5.55,2.4;stroke-dashoffset:0;stroke-width:1.5;"/>
    </g>
    <g id="line2d_24"/>
    <g id="text_14">
     <!-- Adjusted dSiLU (1655.6) -->
     <g style="fill:#262626;" transform="translate(161.823438 181.160313)scale(0.1 -0.1)">
      <defs>
       <path d="M 45.40625 46.390625 
L 45.40625 75.984375 
L 54.390625 75.984375 
L 54.390625 0 
L 45.40625 0 
L 45.40625 8.203125 
Q 42.578125 3.328125 38.25 0.953125 
Q 33.9375 -1.421875 27.875 -1.421875 
Q 17.96875 -1.421875 11.734375 6.484375 
Q 5.515625 14.40625 5.515625 27.296875 
Q 5.515625 40.1875 11.734375 48.09375 
Q 17.96875 56 27.875 56 
Q 33.9375 56 38.25 53.625 
Q 42.578125 51.265625 45.40625 46.390625 
z
M 14.796875 27.296875 
Q 14.796875 17.390625 18.875 11.75 
Q 22.953125 6.109375 30.078125 6.109375 
Q 37.203125 6.109375 41.296875 11.75 
Q 45.40625 17.390625 45.40625 27.296875 
Q 45.40625 37.203125 41.296875 42.84375 
Q 37.203125 48.484375 30.078125 48.484375 
Q 22.953125 48.484375 18.875 42.84375 
Q 14.796875 37.203125 14.796875 27.296875 
z
" id="DejaVuSans-100"/>
       <path d="M 9.421875 54.6875 
L 18.40625 54.6875 
L 18.40625 -0.984375 
Q 18.40625 -11.421875 14.421875 -16.109375 
Q 10.453125 -20.796875 1.609375 -20.796875 
L -1.8125 -20.796875 
L -1.8125 -13.1875 
L 0.59375 -13.1875 
Q 5.71875 -13.1875 7.5625 -10.8125 
Q 9.421875 -8.453125 9.421875 -0.984375 
z
M 9.421875 75.984375 
L 18.40625 75.984375 
L 18.40625 64.59375 
L 9.421875 64.59375 
z
" id="DejaVuSans-106"/>
       <path d="M 8.5 21.578125 
L 8.5 54.6875 
L 17.484375 54.6875 
L 17.484375 21.921875 
Q 17.484375 14.15625 20.5 10.265625 
Q 23.53125 6.390625 29.59375 6.390625 
Q 36.859375 6.390625 41.078125 11.03125 
Q 45.3125 15.671875 45.3125 23.6875 
L 45.3125 54.6875 
L 54.296875 54.6875 
L 54.296875 0 
L 45.3125 0 
L 45.3125 8.40625 
Q 42.046875 3.421875 37.71875 1 
Q 33.40625 -1.421875 27.6875 -1.421875 
Q 18.265625 -1.421875 13.375 4.4375 
Q 8.5 10.296875 8.5 21.578125 
z
M 31.109375 56 
z
" id="DejaVuSans-117"/>
       <path d="M 44.28125 53.078125 
L 44.28125 44.578125 
Q 40.484375 46.53125 36.375 47.5 
Q 32.28125 48.484375 27.875 48.484375 
Q 21.1875 48.484375 17.84375 46.4375 
Q 14.5 44.390625 14.5 40.28125 
Q 14.5 37.15625 16.890625 35.375 
Q 19.28125 33.59375 26.515625 31.984375 
L 29.59375 31.296875 
Q 39.15625 29.25 43.1875 25.515625 
Q 47.21875 21.78125 47.21875 15.09375 
Q 47.21875 7.46875 41.1875 3.015625 
Q 35.15625 -1.421875 24.609375 -1.421875 
Q 20.21875 -1.421875 15.453125 -0.5625 
Q 10.6875 0.296875 5.421875 2 
L 5.421875 11.28125 
Q 10.40625 8.6875 15.234375 7.390625 
Q 20.0625 6.109375 24.8125 6.109375 
Q 31.15625 6.109375 34.5625 8.28125 
Q 37.984375 10.453125 37.984375 14.40625 
Q 37.984375 18.0625 35.515625 20.015625 
Q 33.0625 21.96875 24.703125 23.78125 
L 21.578125 24.515625 
Q 13.234375 26.265625 9.515625 29.90625 
Q 5.8125 33.546875 5.8125 39.890625 
Q 5.8125 47.609375 11.28125 51.796875 
Q 16.75 56 26.8125 56 
Q 31.78125 56 36.171875 55.265625 
Q 40.578125 54.546875 44.28125 53.078125 
z
" id="DejaVuSans-115"/>
       <path d="M 18.3125 70.21875 
L 18.3125 54.6875 
L 36.8125 54.6875 
L 36.8125 47.703125 
L 18.3125 47.703125 
L 18.3125 18.015625 
Q 18.3125 11.328125 20.140625 9.421875 
Q 21.96875 7.515625 27.59375 7.515625 
L 36.8125 7.515625 
L 36.8125 0 
L 27.59375 0 
Q 17.1875 0 13.234375 3.875 
Q 9.28125 7.765625 9.28125 18.015625 
L 9.28125 47.703125 
L 2.6875 47.703125 
L 2.6875 54.6875 
L 9.28125 54.6875 
L 9.28125 70.21875 
z
" id="DejaVuSans-116"/>
       <path d="M 56.203125 29.59375 
L 56.203125 25.203125 
L 14.890625 25.203125 
Q 15.484375 15.921875 20.484375 11.0625 
Q 25.484375 6.203125 34.421875 6.203125 
Q 39.59375 6.203125 44.453125 7.46875 
Q 49.3125 8.734375 54.109375 11.28125 
L 54.109375 2.78125 
Q 49.265625 0.734375 44.1875 -0.34375 
Q 39.109375 -1.421875 33.890625 -1.421875 
Q 20.796875 -1.421875 13.15625 6.1875 
Q 5.515625 13.8125 5.515625 26.8125 
Q 5.515625 40.234375 12.765625 48.109375 
Q 20.015625 56 32.328125 56 
Q 43.359375 56 49.78125 48.890625 
Q 56.203125 41.796875 56.203125 29.59375 
z
M 47.21875 32.234375 
Q 47.125 39.59375 43.09375 43.984375 
Q 39.0625 48.390625 32.421875 48.390625 
Q 24.90625 48.390625 20.390625 44.140625 
Q 15.875 39.890625 15.1875 32.171875 
z
" id="DejaVuSans-101"/>
       <path d="M 53.515625 70.515625 
L 53.515625 60.890625 
Q 47.90625 63.578125 42.921875 64.890625 
Q 37.9375 66.21875 33.296875 66.21875 
Q 25.25 66.21875 20.875 63.09375 
Q 16.5 59.96875 16.5 54.203125 
Q 16.5 49.359375 19.40625 46.890625 
Q 22.3125 44.4375 30.421875 42.921875 
L 36.375 41.703125 
Q 47.40625 39.59375 52.65625 34.296875 
Q 57.90625 29 57.90625 20.125 
Q 57.90625 9.515625 50.796875 4.046875 
Q 43.703125 -1.421875 29.984375 -1.421875 
Q 24.8125 -1.421875 18.96875 -0.25 
Q 13.140625 0.921875 6.890625 3.21875 
L 6.890625 13.375 
Q 12.890625 10.015625 18.65625 8.296875 
Q 24.421875 6.59375 29.984375 6.59375 
Q 38.421875 6.59375 43.015625 9.90625 
Q 47.609375 13.234375 47.609375 19.390625 
Q 47.609375 24.75 44.3125 27.78125 
Q 41.015625 30.8125 33.5 32.328125 
L 27.484375 33.5 
Q 16.453125 35.6875 11.515625 40.375 
Q 6.59375 45.0625 6.59375 53.421875 
Q 6.59375 63.09375 13.40625 68.65625 
Q 20.21875 74.21875 32.171875 74.21875 
Q 37.3125 74.21875 42.625 73.28125 
Q 47.953125 72.359375 53.515625 70.515625 
z
" id="DejaVuSans-83"/>
       <path d="M 9.421875 54.6875 
L 18.40625 54.6875 
L 18.40625 0 
L 9.421875 0 
z
M 9.421875 75.984375 
L 18.40625 75.984375 
L 18.40625 64.59375 
L 9.421875 64.59375 
z
" id="DejaVuSans-105"/>
       <path d="M 9.8125 72.90625 
L 19.671875 72.90625 
L 19.671875 8.296875 
L 55.171875 8.296875 
L 55.171875 0 
L 9.8125 0 
z
" id="DejaVuSans-76"/>
       <path d="M 8.6875 72.90625 
L 18.609375 72.90625 
L 18.609375 28.609375 
Q 18.609375 16.890625 22.84375 11.734375 
Q 27.09375 6.59375 36.625 6.59375 
Q 46.09375 6.59375 50.34375 11.734375 
Q 54.59375 16.890625 54.59375 28.609375 
L 54.59375 72.90625 
L 64.5 72.90625 
L 64.5 27.390625 
Q 64.5 13.140625 57.4375 5.859375 
Q 50.390625 -1.421875 36.625 -1.421875 
Q 22.796875 -1.421875 15.734375 5.859375 
Q 8.6875 13.140625 8.6875 27.390625 
z
" id="DejaVuSans-85"/>
      </defs>
      <use xlink:href="#DejaVuSans-65"/>
      <use x="66.658203" xlink:href="#DejaVuSans-100"/>
      <use x="130.134766" xlink:href="#DejaVuSans-106"/>
      <use x="157.917969" xlink:href="#DejaVuSans-117"/>
      <use x="221.296875" xlink:href="#DejaVuSans-115"/>
      <use x="273.396484" xlink:href="#DejaVuSans-116"/>
      <use x="312.605469" xlink:href="#DejaVuSans-101"/>
      <use x="374.128906" xlink:href="#DejaVuSans-100"/>
      <use x="437.605469" xlink:href="#DejaVuSans-32"/>
      <use x="469.392578" xlink:href="#DejaVuSans-100"/>
      <use x="532.869141" xlink:href="#DejaVuSans-83"/>
      <use x="596.345703" xlink:href="#DejaVuSans-105"/>
      <use x="624.128906" xlink:href="#DejaVuSans-76"/>
      <use x="674.841797" xlink:href="#DejaVuSans-85"/>
      <use x="748.035156" xlink:href="#DejaVuSans-32"/>
      <use x="779.822266" xlink:href="#DejaVuSans-40"/>
      <use x="818.835938" xlink:href="#DejaVuSans-49"/>
      <use x="882.458984" xlink:href="#DejaVuSans-54"/>
      <use x="946.082031" xlink:href="#DejaVuSans-53"/>
      <use x="1009.705078" xlink:href="#DejaVuSans-53"/>
      <use x="1073.328125" xlink:href="#DejaVuSans-46"/>
      <use x="1105.115234" xlink:href="#DejaVuSans-54"/>
      <use x="1168.738281" xlink:href="#DejaVuSans-41"/>
     </g>
    </g>
   </g>
  </g>
  <g id="axes_2">
   <g id="matplotlib.axis_3"/>
   <g id="patch_8">
    <path clip-path="url(#pe486af923f)" d="M 51.913636 192.24 
L 54.129876 192.24 
L 54.129876 189.674624 
L 51.913636 189.674624 
z
" style="fill:#808080;fill-opacity:0.6;stroke:#808080;stroke-linejoin:miter;stroke-opacity:0.6;"/>
   </g>
   <g id="patch_9">
    <path clip-path="url(#pe486af923f)" d="M 54.129876 192.24 
L 56.346117 192.24 
L 56.346117 189.915395 
L 54.129876 189.915395 
z
" style="fill:#808080;fill-opacity:0.6;stroke:#808080;stroke-linejoin:miter;stroke-opacity:0.6;"/>
   </g>
   <g id="patch_10">
    <path clip-path="url(#pe486af923f)" d="M 56.346117 192.24 
L 58.562357 192.24 
L 58.562357 190.122133 
L 56.346117 190.122133 
z
" style="fill:#808080;fill-opacity:0.6;stroke:#808080;stroke-linejoin:miter;stroke-opacity:0.6;"/>
   </g>
   <g id="patch_11">
    <path clip-path="url(#pe486af923f)" d="M 58.562357 192.24 
L 60.778597 192.24 
L 60.778597 190.218587 
L 58.562357 190.218587 
z
" style="fill:#808080;fill-opacity:0.6;stroke:#808080;stroke-linejoin:miter;stroke-opacity:0.6;"/>
   </g>
   <g id="patch_12">
    <path clip-path="url(#pe486af923f)" d="M 60.778597 192.24 
L 62.994837 192.24 
L 62.994837 187.865463 
L 60.778597 187.865463 
z
" style="fill:#808080;fill-opacity:0.6;stroke:#808080;stroke-linejoin:miter;stroke-opacity:0.6;"/>
   </g>
   <g id="patch_13">
    <path clip-path="url(#pe486af923f)" d="M 62.994837 192.24 
L 65.211077 192.24 
L 65.211077 188.666145 
L 62.994837 188.666145 
z
" style="fill:#808080;fill-opacity:0.6;stroke:#808080;stroke-linejoin:miter;stroke-opacity:0.6;"/>
   </g>
   <g id="patch_14">
    <path clip-path="url(#pe486af923f)" d="M 65.211077 192.24 
L 67.427317 192.24 
L 67.427317 187.079316 
L 65.211077 187.079316 
z
" style="fill:#808080;fill-opacity:0.6;stroke:#808080;stroke-linejoin:miter;stroke-opacity:0.6;"/>
   </g>
   <g id="patch_15">
    <path clip-path="url(#pe486af923f)" d="M 67.427317 192.24 
L 69.643557 192.24 
L 69.643557 188.79392 
L 67.427317 188.79392 
z
" style="fill:#808080;fill-opacity:0.6;stroke:#808080;stroke-linejoin:miter;stroke-opacity:0.6;"/>
   </g>
   <g id="patch_16">
    <path clip-path="url(#pe486af923f)" d="M 69.643557 192.24 
L 71.859797 192.24 
L 71.859797 188.242854 
L 69.643557 188.242854 
z
" style="fill:#808080;fill-opacity:0.6;stroke:#808080;stroke-linejoin:miter;stroke-opacity:0.6;"/>
   </g>
   <g id="patch_17">
    <path clip-path="url(#pe486af923f)" d="M 71.859797 192.24 
L 74.076037 192.24 
L 74.076037 185.538431 
L 71.859797 185.538431 
z
" style="fill:#808080;fill-opacity:0.6;stroke:#808080;stroke-linejoin:miter;stroke-opacity:0.6;"/>
   </g>
   <g id="patch_18">
    <path clip-path="url(#pe486af923f)" d="M 74.076037 192.24 
L 76.292277 192.24 
L 76.292277 184.350852 
L 74.076037 184.350852 
z
" style="fill:#808080;fill-opacity:0.6;stroke:#808080;stroke-linejoin:miter;stroke-opacity:0.6;"/>
   </g>
   <g id="patch_19">
    <path clip-path="url(#pe486af923f)" d="M 76.292277 192.24 
L 78.508517 192.24 
L 78.508517 184.901763 
L 76.292277 184.901763 
z
" style="fill:#808080;fill-opacity:0.6;stroke:#808080;stroke-linejoin:miter;stroke-opacity:0.6;"/>
   </g>
   <g id="patch_20">
    <path clip-path="url(#pe486af923f)" d="M 78.508517 192.24 
L 80.724757 192.24 
L 80.724757 186.445096 
L 78.508517 186.445096 
z
" style="fill:#808080;fill-opacity:0.6;stroke:#808080;stroke-linejoin:miter;stroke-opacity:0.6;"/>
   </g>
   <g id="patch_21">
    <path clip-path="url(#pe486af923f)" d="M 80.724757 192.24 
L 82.940997 192.24 
L 82.940997 181.813576 
L 80.724757 181.813576 
z
" style="fill:#808080;fill-opacity:0.6;stroke:#808080;stroke-linejoin:miter;stroke-opacity:0.6;"/>
   </g>
   <g id="patch_22">
    <path clip-path="url(#pe486af923f)" d="M 82.940997 192.24 
L 85.157237 192.24 
L 85.157237 182.350106 
L 82.940997 182.350106 
z
" style="fill:#808080;fill-opacity:0.6;stroke:#808080;stroke-linejoin:miter;stroke-opacity:0.6;"/>
   </g>
   <g id="patch_23">
    <path clip-path="url(#pe486af923f)" d="M 85.157237 192.24 
L 87.373477 192.24 
L 87.373477 175.013347 
L 85.157237 175.013347 
z
" style="fill:#808080;fill-opacity:0.6;stroke:#808080;stroke-linejoin:miter;stroke-opacity:0.6;"/>
   </g>
   <g id="patch_24">
    <path clip-path="url(#pe486af923f)" d="M 87.373477 192.24 
L 89.589718 192.24 
L 89.589718 176.98275 
L 87.373477 176.98275 
z
" style="fill:#808080;fill-opacity:0.6;stroke:#808080;stroke-linejoin:miter;stroke-opacity:0.6;"/>
   </g>
   <g id="patch_25">
    <path clip-path="url(#pe486af923f)" d="M 89.589718 192.24 
L 91.805958 192.24 
L 91.805958 174.033189 
L 89.589718 174.033189 
z
" style="fill:#808080;fill-opacity:0.6;stroke:#808080;stroke-linejoin:miter;stroke-opacity:0.6;"/>
   </g>
   <g id="patch_26">
    <path clip-path="url(#pe486af923f)" d="M 91.805958 192.24 
L 94.022198 192.24 
L 94.022198 172.15391 
L 91.805958 172.15391 
z
" style="fill:#808080;fill-opacity:0.6;stroke:#808080;stroke-linejoin:miter;stroke-opacity:0.6;"/>
   </g>
   <g id="patch_27">
    <path clip-path="url(#pe486af923f)" d="M 94.022198 192.24 
L 96.238438 192.24 
L 96.238438 170.401479 
L 94.022198 170.401479 
z
" style="fill:#808080;fill-opacity:0.6;stroke:#808080;stroke-linejoin:miter;stroke-opacity:0.6;"/>
   </g>
   <g id="patch_28">
    <path clip-path="url(#pe486af923f)" d="M 96.238438 192.24 
L 98.454678 192.24 
L 98.454678 165.281556 
L 96.238438 165.281556 
z
" style="fill:#808080;fill-opacity:0.6;stroke:#808080;stroke-linejoin:miter;stroke-opacity:0.6;"/>
   </g>
   <g id="patch_29">
    <path clip-path="url(#pe486af923f)" d="M 98.454678 192.24 
L 100.670918 192.24 
L 100.670918 162.822648 
L 98.454678 162.822648 
z
" style="fill:#808080;fill-opacity:0.6;stroke:#808080;stroke-linejoin:miter;stroke-opacity:0.6;"/>
   </g>
   <g id="patch_30">
    <path clip-path="url(#pe486af923f)" d="M 100.670918 192.24 
L 102.887158 192.24 
L 102.887158 175.428389 
L 100.670918 175.428389 
z
" style="fill:#808080;fill-opacity:0.6;stroke:#808080;stroke-linejoin:miter;stroke-opacity:0.6;"/>
   </g>
   <g id="patch_31">
    <path clip-path="url(#pe486af923f)" d="M 102.887158 192.24 
L 105.103398 192.24 
L 105.103398 175.335111 
L 102.887158 175.335111 
z
" style="fill:#808080;fill-opacity:0.6;stroke:#808080;stroke-linejoin:miter;stroke-opacity:0.6;"/>
   </g>
   <g id="patch_32">
    <path clip-path="url(#pe486af923f)" d="M 105.103398 192.24 
L 107.319638 192.24 
L 107.319638 175.950627 
L 105.103398 175.950627 
z
" style="fill:#808080;fill-opacity:0.6;stroke:#808080;stroke-linejoin:miter;stroke-opacity:0.6;"/>
   </g>
   <g id="patch_33">
    <path clip-path="url(#pe486af923f)" d="M 107.319638 192.24 
L 109.535878 192.24 
L 109.535878 157.332281 
L 107.319638 157.332281 
z
" style="fill:#808080;fill-opacity:0.6;stroke:#808080;stroke-linejoin:miter;stroke-opacity:0.6;"/>
   </g>
   <g id="patch_34">
    <path clip-path="url(#pe486af923f)" d="M 109.535878 192.24 
L 111.752118 192.24 
L 111.752118 165.349778 
L 109.535878 165.349778 
z
" style="fill:#808080;fill-opacity:0.6;stroke:#808080;stroke-linejoin:miter;stroke-opacity:0.6;"/>
   </g>
   <g id="patch_35">
    <path clip-path="url(#pe486af923f)" d="M 111.752118 192.24 
L 113.968358 192.24 
L 113.968358 162.905515 
L 111.752118 162.905515 
z
" style="fill:#808080;fill-opacity:0.6;stroke:#808080;stroke-linejoin:miter;stroke-opacity:0.6;"/>
   </g>
   <g id="patch_36">
    <path clip-path="url(#pe486af923f)" d="M 113.968358 192.24 
L 116.184598 192.24 
L 116.184598 165.416764 
L 113.968358 165.416764 
z
" style="fill:#808080;fill-opacity:0.6;stroke:#808080;stroke-linejoin:miter;stroke-opacity:0.6;"/>
   </g>
   <g id="patch_37">
    <path clip-path="url(#pe486af923f)" d="M 116.184598 192.24 
L 118.400838 192.24 
L 118.400838 167.393777 
L 116.184598 167.393777 
z
" style="fill:#808080;fill-opacity:0.6;stroke:#808080;stroke-linejoin:miter;stroke-opacity:0.6;"/>
   </g>
   <g id="patch_38">
    <path clip-path="url(#pe486af923f)" d="M 118.400838 192.24 
L 120.617079 192.24 
L 120.617079 160.078567 
L 118.400838 160.078567 
z
" style="fill:#808080;fill-opacity:0.6;stroke:#808080;stroke-linejoin:miter;stroke-opacity:0.6;"/>
   </g>
   <g id="patch_39">
    <path clip-path="url(#pe486af923f)" d="M 120.617079 192.24 
L 122.833319 192.24 
L 122.833319 156.577654 
L 120.617079 156.577654 
z
" style="fill:#808080;fill-opacity:0.6;stroke:#808080;stroke-linejoin:miter;stroke-opacity:0.6;"/>
   </g>
   <g id="patch_40">
    <path clip-path="url(#pe486af923f)" d="M 122.833319 192.24 
L 125.049559 192.24 
L 125.049559 143.312945 
L 122.833319 143.312945 
z
" style="fill:#808080;fill-opacity:0.6;stroke:#808080;stroke-linejoin:miter;stroke-opacity:0.6;"/>
   </g>
   <g id="patch_41">
    <path clip-path="url(#pe486af923f)" d="M 125.049559 192.24 
L 127.265799 192.24 
L 127.265799 137.04746 
L 125.049559 137.04746 
z
" style="fill:#808080;fill-opacity:0.6;stroke:#808080;stroke-linejoin:miter;stroke-opacity:0.6;"/>
   </g>
   <g id="patch_42">
    <path clip-path="url(#pe486af923f)" d="M 127.265799 192.24 
L 129.482039 192.24 
L 129.482039 134.056058 
L 127.265799 134.056058 
z
" style="fill:#808080;fill-opacity:0.6;stroke:#808080;stroke-linejoin:miter;stroke-opacity:0.6;"/>
   </g>
   <g id="patch_43">
    <path clip-path="url(#pe486af923f)" d="M 129.482039 192.24 
L 131.698279 192.24 
L 131.698279 137.642507 
L 129.482039 137.642507 
z
" style="fill:#808080;fill-opacity:0.6;stroke:#808080;stroke-linejoin:miter;stroke-opacity:0.6;"/>
   </g>
   <g id="patch_44">
    <path clip-path="url(#pe486af923f)" d="M 131.698279 192.24 
L 133.914519 192.24 
L 133.914519 110.453438 
L 131.698279 110.453438 
z
" style="fill:#808080;fill-opacity:0.6;stroke:#808080;stroke-linejoin:miter;stroke-opacity:0.6;"/>
   </g>
   <g id="patch_45">
    <path clip-path="url(#pe486af923f)" d="M 133.914519 192.24 
L 136.130759 192.24 
L 136.130759 129.933342 
L 133.914519 129.933342 
z
" style="fill:#808080;fill-opacity:0.6;stroke:#808080;stroke-linejoin:miter;stroke-opacity:0.6;"/>
   </g>
   <g id="patch_46">
    <path clip-path="url(#pe486af923f)" d="M 136.130759 192.24 
L 138.346999 192.24 
L 138.346999 96.865179 
L 136.130759 96.865179 
z
" style="fill:#808080;fill-opacity:0.6;stroke:#808080;stroke-linejoin:miter;stroke-opacity:0.6;"/>
   </g>
   <g id="patch_47">
    <path clip-path="url(#pe486af923f)" d="M 138.346999 192.24 
L 140.563239 192.24 
L 140.563239 43.220229 
L 138.346999 43.220229 
z
" style="fill:#808080;fill-opacity:0.6;stroke:#808080;stroke-linejoin:miter;stroke-opacity:0.6;"/>
   </g>
   <g id="patch_48">
    <path clip-path="url(#pe486af923f)" d="M 140.563239 192.24 
L 142.779479 192.24 
L 142.779479 33.84 
L 140.563239 33.84 
z
" style="fill:#808080;fill-opacity:0.6;stroke:#808080;stroke-linejoin:miter;stroke-opacity:0.6;"/>
   </g>
   <g id="patch_49">
    <path clip-path="url(#pe486af923f)" d="M 142.779479 192.24 
L 144.995719 192.24 
L 144.995719 84.463749 
L 142.779479 84.463749 
z
" style="fill:#808080;fill-opacity:0.6;stroke:#808080;stroke-linejoin:miter;stroke-opacity:0.6;"/>
   </g>
   <g id="patch_50">
    <path clip-path="url(#pe486af923f)" d="M 144.995719 192.24 
L 147.211959 192.24 
L 147.211959 110.963147 
L 144.995719 110.963147 
z
" style="fill:#808080;fill-opacity:0.6;stroke:#808080;stroke-linejoin:miter;stroke-opacity:0.6;"/>
   </g>
   <g id="patch_51">
    <path clip-path="url(#pe486af923f)" d="M 147.211959 192.24 
L 149.428199 192.24 
L 149.428199 107.802327 
L 147.211959 107.802327 
z
" style="fill:#808080;fill-opacity:0.6;stroke:#808080;stroke-linejoin:miter;stroke-opacity:0.6;"/>
   </g>
   <g id="patch_52">
    <path clip-path="url(#pe486af923f)" d="M 149.428199 192.24 
L 151.64444 192.24 
L 151.64444 121.158351 
L 149.428199 121.158351 
z
" style="fill:#808080;fill-opacity:0.6;stroke:#808080;stroke-linejoin:miter;stroke-opacity:0.6;"/>
   </g>
   <g id="patch_53">
    <path clip-path="url(#pe486af923f)" d="M 151.64444 192.24 
L 153.86068 192.24 
L 153.86068 135.418216 
L 151.64444 135.418216 
z
" style="fill:#808080;fill-opacity:0.6;stroke:#808080;stroke-linejoin:miter;stroke-opacity:0.6;"/>
   </g>
   <g id="patch_54">
    <path clip-path="url(#pe486af923f)" d="M 153.86068 192.24 
L 156.07692 192.24 
L 156.07692 170.764092 
L 153.86068 170.764092 
z
" style="fill:#808080;fill-opacity:0.6;stroke:#808080;stroke-linejoin:miter;stroke-opacity:0.6;"/>
   </g>
   <g id="patch_55">
    <path clip-path="url(#pe486af923f)" d="M 156.07692 192.24 
L 158.29316 192.24 
L 158.29316 181.331525 
L 156.07692 181.331525 
z
" style="fill:#808080;fill-opacity:0.6;stroke:#808080;stroke-linejoin:miter;stroke-opacity:0.6;"/>
   </g>
   <g id="patch_56">
    <path clip-path="url(#pe486af923f)" d="M 158.29316 192.24 
L 160.5094 192.24 
L 160.5094 181.422907 
L 158.29316 181.422907 
z
" style="fill:#808080;fill-opacity:0.6;stroke:#808080;stroke-linejoin:miter;stroke-opacity:0.6;"/>
   </g>
   <g id="patch_57">
    <path clip-path="url(#pe486af923f)" d="M 160.5094 192.24 
L 162.72564 192.24 
L 162.72564 180.657802 
L 160.5094 180.657802 
z
" style="fill:#808080;fill-opacity:0.6;stroke:#808080;stroke-linejoin:miter;stroke-opacity:0.6;"/>
   </g>
   <g id="patch_58">
    <path clip-path="url(#pe486af923f)" d="M 162.72564 192.24 
L 164.94188 192.24 
L 164.94188 183.822527 
L 162.72564 183.822527 
z
" style="fill:#808080;fill-opacity:0.6;stroke:#808080;stroke-linejoin:miter;stroke-opacity:0.6;"/>
   </g>
   <g id="patch_59">
    <path clip-path="url(#pe486af923f)" d="M 164.94188 192.24 
L 167.15812 192.24 
L 167.15812 181.50906 
L 164.94188 181.50906 
z
" style="fill:#808080;fill-opacity:0.6;stroke:#808080;stroke-linejoin:miter;stroke-opacity:0.6;"/>
   </g>
   <g id="patch_60">
    <path clip-path="url(#pe486af923f)" d="M 167.15812 192.24 
L 169.37436 192.24 
L 169.37436 183.323272 
L 167.15812 183.323272 
z
" style="fill:#808080;fill-opacity:0.6;stroke:#808080;stroke-linejoin:miter;stroke-opacity:0.6;"/>
   </g>
   <g id="patch_61">
    <path clip-path="url(#pe486af923f)" d="M 169.37436 192.24 
L 171.5906 192.24 
L 171.5906 185.921712 
L 169.37436 185.921712 
z
" style="fill:#808080;fill-opacity:0.6;stroke:#808080;stroke-linejoin:miter;stroke-opacity:0.6;"/>
   </g>
   <g id="patch_62">
    <path clip-path="url(#pe486af923f)" d="M 171.5906 192.24 
L 173.80684 192.24 
L 173.80684 180.171142 
L 171.5906 180.171142 
z
" style="fill:#808080;fill-opacity:0.6;stroke:#808080;stroke-linejoin:miter;stroke-opacity:0.6;"/>
   </g>
   <g id="patch_63">
    <path clip-path="url(#pe486af923f)" d="M 173.80684 192.24 
L 176.02308 192.24 
L 176.02308 183.967131 
L 173.80684 183.967131 
z
" style="fill:#808080;fill-opacity:0.6;stroke:#808080;stroke-linejoin:miter;stroke-opacity:0.6;"/>
   </g>
   <g id="patch_64">
    <path clip-path="url(#pe486af923f)" d="M 176.02308 192.24 
L 178.23932 192.24 
L 178.23932 184.814838 
L 176.02308 184.814838 
z
" style="fill:#808080;fill-opacity:0.6;stroke:#808080;stroke-linejoin:miter;stroke-opacity:0.6;"/>
   </g>
   <g id="patch_65">
    <path clip-path="url(#pe486af923f)" d="M 178.23932 192.24 
L 180.45556 192.24 
L 180.45556 185.1087 
L 178.23932 185.1087 
z
" style="fill:#808080;fill-opacity:0.6;stroke:#808080;stroke-linejoin:miter;stroke-opacity:0.6;"/>
   </g>
   <g id="patch_66">
    <path clip-path="url(#pe486af923f)" d="M 180.45556 192.24 
L 182.671801 192.24 
L 182.671801 186.664098 
L 180.45556 186.664098 
z
" style="fill:#808080;fill-opacity:0.6;stroke:#808080;stroke-linejoin:miter;stroke-opacity:0.6;"/>
   </g>
   <g id="patch_67">
    <path clip-path="url(#pe486af923f)" d="M 182.671801 192.24 
L 184.888041 192.24 
L 184.888041 181.94038 
L 182.671801 181.94038 
z
" style="fill:#808080;fill-opacity:0.6;stroke:#808080;stroke-linejoin:miter;stroke-opacity:0.6;"/>
   </g>
   <g id="patch_68">
    <path clip-path="url(#pe486af923f)" d="M 184.888041 192.24 
L 187.104281 192.24 
L 187.104281 178.783111 
L 184.888041 178.783111 
z
" style="fill:#808080;fill-opacity:0.6;stroke:#808080;stroke-linejoin:miter;stroke-opacity:0.6;"/>
   </g>
   <g id="patch_69">
    <path clip-path="url(#pe486af923f)" d="M 187.104281 192.24 
L 189.320521 192.24 
L 189.320521 184.246104 
L 187.104281 184.246104 
z
" style="fill:#808080;fill-opacity:0.6;stroke:#808080;stroke-linejoin:miter;stroke-opacity:0.6;"/>
   </g>
   <g id="patch_70">
    <path clip-path="url(#pe486af923f)" d="M 189.320521 192.24 
L 191.536761 192.24 
L 191.536761 180.703856 
L 189.320521 180.703856 
z
" style="fill:#808080;fill-opacity:0.6;stroke:#808080;stroke-linejoin:miter;stroke-opacity:0.6;"/>
   </g>
   <g id="patch_71">
    <path clip-path="url(#pe486af923f)" d="M 191.536761 192.24 
L 193.753001 192.24 
L 193.753001 178.019837 
L 191.536761 178.019837 
z
" style="fill:#808080;fill-opacity:0.6;stroke:#808080;stroke-linejoin:miter;stroke-opacity:0.6;"/>
   </g>
   <g id="patch_72">
    <path clip-path="url(#pe486af923f)" d="M 193.753001 192.24 
L 195.969241 192.24 
L 195.969241 182.577666 
L 193.753001 182.577666 
z
" style="fill:#808080;fill-opacity:0.6;stroke:#808080;stroke-linejoin:miter;stroke-opacity:0.6;"/>
   </g>
   <g id="patch_73">
    <path clip-path="url(#pe486af923f)" d="M 195.969241 192.24 
L 198.185481 192.24 
L 198.185481 178.149994 
L 195.969241 178.149994 
z
" style="fill:#808080;fill-opacity:0.6;stroke:#808080;stroke-linejoin:miter;stroke-opacity:0.6;"/>
   </g>
   <g id="patch_74">
    <path clip-path="url(#pe486af923f)" d="M 198.185481 192.24 
L 200.401721 192.24 
L 200.401721 177.495812 
L 198.185481 177.495812 
z
" style="fill:#808080;fill-opacity:0.6;stroke:#808080;stroke-linejoin:miter;stroke-opacity:0.6;"/>
   </g>
   <g id="patch_75">
    <path clip-path="url(#pe486af923f)" d="M 200.401721 192.24 
L 202.617961 192.24 
L 202.617961 171.705805 
L 200.401721 171.705805 
z
" style="fill:#808080;fill-opacity:0.6;stroke:#808080;stroke-linejoin:miter;stroke-opacity:0.6;"/>
   </g>
   <g id="patch_76">
    <path clip-path="url(#pe486af923f)" d="M 202.617961 192.24 
L 204.834201 192.24 
L 204.834201 172.883062 
L 202.617961 172.883062 
z
" style="fill:#808080;fill-opacity:0.6;stroke:#808080;stroke-linejoin:miter;stroke-opacity:0.6;"/>
   </g>
   <g id="patch_77">
    <path clip-path="url(#pe486af923f)" d="M 204.834201 192.24 
L 207.050441 192.24 
L 207.050441 169.435769 
L 204.834201 169.435769 
z
" style="fill:#808080;fill-opacity:0.6;stroke:#808080;stroke-linejoin:miter;stroke-opacity:0.6;"/>
   </g>
   <g id="patch_78">
    <path clip-path="url(#pe486af923f)" d="M 207.050441 192.24 
L 209.266681 192.24 
L 209.266681 164.012168 
L 207.050441 164.012168 
z
" style="fill:#808080;fill-opacity:0.6;stroke:#808080;stroke-linejoin:miter;stroke-opacity:0.6;"/>
   </g>
   <g id="patch_79">
    <path clip-path="url(#pe486af923f)" d="M 209.266681 192.24 
L 211.482921 192.24 
L 211.482921 155.960219 
L 209.266681 155.960219 
z
" style="fill:#808080;fill-opacity:0.6;stroke:#808080;stroke-linejoin:miter;stroke-opacity:0.6;"/>
   </g>
   <g id="patch_80">
    <path clip-path="url(#pe486af923f)" d="M 211.482921 192.24 
L 213.699162 192.24 
L 213.699162 152.788635 
L 211.482921 152.788635 
z
" style="fill:#808080;fill-opacity:0.6;stroke:#808080;stroke-linejoin:miter;stroke-opacity:0.6;"/>
   </g>
   <g id="patch_81">
    <path clip-path="url(#pe486af923f)" d="M 213.699162 192.24 
L 215.915402 192.24 
L 215.915402 149.380448 
L 213.699162 149.380448 
z
" style="fill:#808080;fill-opacity:0.6;stroke:#808080;stroke-linejoin:miter;stroke-opacity:0.6;"/>
   </g>
   <g id="patch_82">
    <path clip-path="url(#pe486af923f)" d="M 215.915402 192.24 
L 218.131642 192.24 
L 218.131642 149.450677 
L 215.915402 149.450677 
z
" style="fill:#808080;fill-opacity:0.6;stroke:#808080;stroke-linejoin:miter;stroke-opacity:0.6;"/>
   </g>
   <g id="patch_83">
    <path clip-path="url(#pe486af923f)" d="M 218.131642 192.24 
L 220.347882 192.24 
L 220.347882 153.793849 
L 218.131642 153.793849 
z
" style="fill:#808080;fill-opacity:0.6;stroke:#808080;stroke-linejoin:miter;stroke-opacity:0.6;"/>
   </g>
   <g id="patch_84">
    <path clip-path="url(#pe486af923f)" d="M 220.347882 192.24 
L 222.564122 192.24 
L 222.564122 161.865429 
L 220.347882 161.865429 
z
" style="fill:#808080;fill-opacity:0.6;stroke:#808080;stroke-linejoin:miter;stroke-opacity:0.6;"/>
   </g>
   <g id="patch_85">
    <path clip-path="url(#pe486af923f)" d="M 222.564122 192.24 
L 224.780362 192.24 
L 224.780362 167.399247 
L 222.564122 167.399247 
z
" style="fill:#808080;fill-opacity:0.6;stroke:#808080;stroke-linejoin:miter;stroke-opacity:0.6;"/>
   </g>
   <g id="patch_86">
    <path clip-path="url(#pe486af923f)" d="M 224.780362 192.24 
L 226.996602 192.24 
L 226.996602 173.622471 
L 224.780362 173.622471 
z
" style="fill:#808080;fill-opacity:0.6;stroke:#808080;stroke-linejoin:miter;stroke-opacity:0.6;"/>
   </g>
   <g id="patch_87">
    <path clip-path="url(#pe486af923f)" d="M 226.996602 192.24 
L 229.212842 192.24 
L 229.212842 176.296124 
L 226.996602 176.296124 
z
" style="fill:#808080;fill-opacity:0.6;stroke:#808080;stroke-linejoin:miter;stroke-opacity:0.6;"/>
   </g>
   <g id="patch_88">
    <path clip-path="url(#pe486af923f)" d="M 229.212842 192.24 
L 231.429082 192.24 
L 231.429082 181.973134 
L 229.212842 181.973134 
z
" style="fill:#808080;fill-opacity:0.6;stroke:#808080;stroke-linejoin:miter;stroke-opacity:0.6;"/>
   </g>
   <g id="patch_89">
    <path clip-path="url(#pe486af923f)" d="M 231.429082 192.24 
L 233.645322 192.24 
L 233.645322 182.723792 
L 231.429082 182.723792 
z
" style="fill:#808080;fill-opacity:0.6;stroke:#808080;stroke-linejoin:miter;stroke-opacity:0.6;"/>
   </g>
   <g id="patch_90">
    <path clip-path="url(#pe486af923f)" d="M 233.645322 192.24 
L 235.861562 192.24 
L 235.861562 185.563686 
L 233.645322 185.563686 
z
" style="fill:#808080;fill-opacity:0.6;stroke:#808080;stroke-linejoin:miter;stroke-opacity:0.6;"/>
   </g>
   <g id="patch_91">
    <path clip-path="url(#pe486af923f)" d="M 235.861562 192.24 
L 238.077802 192.24 
L 238.077802 187.391397 
L 235.861562 187.391397 
z
" style="fill:#808080;fill-opacity:0.6;stroke:#808080;stroke-linejoin:miter;stroke-opacity:0.6;"/>
   </g>
   <g id="patch_92">
    <path clip-path="url(#pe486af923f)" d="M 238.077802 192.24 
L 240.294042 192.24 
L 240.294042 187.874704 
L 238.077802 187.874704 
z
" style="fill:#808080;fill-opacity:0.6;stroke:#808080;stroke-linejoin:miter;stroke-opacity:0.6;"/>
   </g>
   <g id="patch_93">
    <path clip-path="url(#pe486af923f)" d="M 240.294042 192.24 
L 242.510282 192.24 
L 242.510282 186.361126 
L 240.294042 186.361126 
z
" style="fill:#808080;fill-opacity:0.6;stroke:#808080;stroke-linejoin:miter;stroke-opacity:0.6;"/>
   </g>
   <g id="patch_94">
    <path clip-path="url(#pe486af923f)" d="M 242.510282 192.24 
L 244.726523 192.24 
L 244.726523 188.421954 
L 242.510282 188.421954 
z
" style="fill:#808080;fill-opacity:0.6;stroke:#808080;stroke-linejoin:miter;stroke-opacity:0.6;"/>
   </g>
   <g id="patch_95">
    <path clip-path="url(#pe486af923f)" d="M 244.726523 192.24 
L 246.942763 192.24 
L 246.942763 188.738182 
L 244.726523 188.738182 
z
" style="fill:#808080;fill-opacity:0.6;stroke:#808080;stroke-linejoin:miter;stroke-opacity:0.6;"/>
   </g>
   <g id="patch_96">
    <path clip-path="url(#pe486af923f)" d="M 246.942763 192.24 
L 249.159003 192.24 
L 249.159003 187.777103 
L 246.942763 187.777103 
z
" style="fill:#808080;fill-opacity:0.6;stroke:#808080;stroke-linejoin:miter;stroke-opacity:0.6;"/>
   </g>
   <g id="patch_97">
    <path clip-path="url(#pe486af923f)" d="M 249.159003 192.24 
L 251.375243 192.24 
L 251.375243 189.003216 
L 249.159003 189.003216 
z
" style="fill:#808080;fill-opacity:0.6;stroke:#808080;stroke-linejoin:miter;stroke-opacity:0.6;"/>
   </g>
   <g id="patch_98">
    <path clip-path="url(#pe486af923f)" d="M 251.375243 192.24 
L 253.591483 192.24 
L 253.591483 188.378392 
L 251.375243 188.378392 
z
" style="fill:#808080;fill-opacity:0.6;stroke:#808080;stroke-linejoin:miter;stroke-opacity:0.6;"/>
   </g>
   <g id="patch_99">
    <path clip-path="url(#pe486af923f)" d="M 253.591483 192.24 
L 255.807723 192.24 
L 255.807723 189.600204 
L 253.591483 189.600204 
z
" style="fill:#808080;fill-opacity:0.6;stroke:#808080;stroke-linejoin:miter;stroke-opacity:0.6;"/>
   </g>
   <g id="patch_100">
    <path clip-path="url(#pe486af923f)" d="M 255.807723 192.24 
L 258.023963 192.24 
L 258.023963 188.523393 
L 255.807723 188.523393 
z
" style="fill:#808080;fill-opacity:0.6;stroke:#808080;stroke-linejoin:miter;stroke-opacity:0.6;"/>
   </g>
   <g id="patch_101">
    <path clip-path="url(#pe486af923f)" d="M 258.023963 192.24 
L 260.240203 192.24 
L 260.240203 189.880104 
L 258.023963 189.880104 
z
" style="fill:#808080;fill-opacity:0.6;stroke:#808080;stroke-linejoin:miter;stroke-opacity:0.6;"/>
   </g>
   <g id="patch_102">
    <path clip-path="url(#pe486af923f)" d="M 260.240203 192.24 
L 262.456443 192.24 
L 262.456443 190.179525 
L 260.240203 190.179525 
z
" style="fill:#808080;fill-opacity:0.6;stroke:#808080;stroke-linejoin:miter;stroke-opacity:0.6;"/>
   </g>
   <g id="patch_103">
    <path clip-path="url(#pe486af923f)" d="M 262.456443 192.24 
L 264.672683 192.24 
L 264.672683 190.303042 
L 262.456443 190.303042 
z
" style="fill:#808080;fill-opacity:0.6;stroke:#808080;stroke-linejoin:miter;stroke-opacity:0.6;"/>
   </g>
   <g id="patch_104">
    <path clip-path="url(#pe486af923f)" d="M 264.672683 192.24 
L 266.888923 192.24 
L 266.888923 190.310696 
L 264.672683 190.310696 
z
" style="fill:#808080;fill-opacity:0.6;stroke:#808080;stroke-linejoin:miter;stroke-opacity:0.6;"/>
   </g>
   <g id="patch_105">
    <path clip-path="url(#pe486af923f)" d="M 266.888923 192.24 
L 269.105163 192.24 
L 269.105163 190.522 
L 266.888923 190.522 
z
" style="fill:#808080;fill-opacity:0.6;stroke:#808080;stroke-linejoin:miter;stroke-opacity:0.6;"/>
   </g>
   <g id="patch_106">
    <path clip-path="url(#pe486af923f)" d="M 269.105163 192.24 
L 271.321403 192.24 
L 271.321403 190.585986 
L 269.105163 190.585986 
z
" style="fill:#808080;fill-opacity:0.6;stroke:#808080;stroke-linejoin:miter;stroke-opacity:0.6;"/>
   </g>
   <g id="patch_107">
    <path clip-path="url(#pe486af923f)" d="M 271.321403 192.24 
L 273.537643 192.24 
L 273.537643 190.560334 
L 271.321403 190.560334 
z
" style="fill:#808080;fill-opacity:0.6;stroke:#808080;stroke-linejoin:miter;stroke-opacity:0.6;"/>
   </g>
   <g id="patch_108">
    <path clip-path="url(#pe486af923f)" d="M 273.537643 192.24 
L 275.753883 192.24 
L 275.753883 190.639298 
L 273.537643 190.639298 
z
" style="fill:#808080;fill-opacity:0.6;stroke:#808080;stroke-linejoin:miter;stroke-opacity:0.6;"/>
   </g>
   <g id="patch_109">
    <path clip-path="url(#pe486af923f)" d="M 275.753883 192.24 
L 277.970124 192.24 
L 277.970124 190.667971 
L 275.753883 190.667971 
z
" style="fill:#808080;fill-opacity:0.6;stroke:#808080;stroke-linejoin:miter;stroke-opacity:0.6;"/>
   </g>
   <g id="patch_110">
    <path clip-path="url(#pe486af923f)" d="M 277.970124 192.24 
L 280.186364 192.24 
L 280.186364 189.657044 
L 277.970124 189.657044 
z
" style="fill:#808080;fill-opacity:0.6;stroke:#808080;stroke-linejoin:miter;stroke-opacity:0.6;"/>
   </g>
   <g id="patch_111">
    <path d="M 40.5 192.24 
L 40.5 25.92 
" style="fill:none;stroke:#cccccc;stroke-linecap:square;stroke-linejoin:miter;stroke-width:0.8;"/>
   </g>
   <g id="patch_112">
    <path d="M 291.6 192.24 
L 291.6 25.92 
" style="fill:none;stroke:#cccccc;stroke-linecap:square;stroke-linejoin:miter;stroke-width:0.8;"/>
   </g>
   <g id="patch_113">
    <path d="M 40.5 192.24 
L 291.6 192.24 
" style="fill:none;stroke:#cccccc;stroke-linecap:square;stroke-linejoin:miter;stroke-width:0.8;"/>
   </g>
   <g id="patch_114">
    <path d="M 40.5 25.92 
L 291.6 25.92 
" style="fill:none;stroke:#cccccc;stroke-linecap:square;stroke-linejoin:miter;stroke-width:0.8;"/>
   </g>
  </g>
 </g>
 <defs>
  <clipPath id="pe486af923f">
   <rect height="166.32" width="251.1" x="40.5" y="25.92"/>
  </clipPath>
 </defs>
</svg>
