<?xml version="1.0" encoding="utf-8" standalone="no"?>
<!DOCTYPE svg PUBLIC "-//W3C//DTD SVG 1.1//EN"
  "http://www.w3.org/Graphics/SVG/1.1/DTD/svg11.dtd">
<!-- Created with matplotlib (https://matplotlib.org/) -->
<svg height="216pt" version="1.1" viewBox="0 0 324 216" width="324pt" xmlns="http://www.w3.org/2000/svg" xmlns:xlink="http://www.w3.org/1999/xlink">
 <metadata>
  <rdf:RDF xmlns:cc="http://creativecommons.org/ns#" xmlns:dc="http://purl.org/dc/elements/1.1/" xmlns:rdf="http://www.w3.org/1999/02/22-rdf-syntax-ns#">
   <cc:Work>
    <dc:type rdf:resource="http://purl.org/dc/dcmitype/StillImage"/>
    <dc:date>2021-01-11T15:50:09.364910</dc:date>
    <dc:format>image/svg+xml</dc:format>
    <dc:creator>
     <cc:Agent>
      <dc:title>Matplotlib v3.3.3, https://matplotlib.org/</dc:title>
     </cc:Agent>
    </dc:creator>
   </cc:Work>
  </rdf:RDF>
 </metadata>
 <defs>
  <style type="text/css">*{stroke-linecap:butt;stroke-linejoin:round;}</style>
 </defs>
 <g id="figure_1">
  <g id="patch_1">
   <path d="M 0 216 
L 324 216 
L 324 0 
L 0 0 
z
" style="fill:#ffffff;"/>
  </g>
  <g id="axes_1">
   <g id="patch_2">
    <path d="M 40.5 192.24 
L 291.6 192.24 
L 291.6 25.92 
L 40.5 25.92 
z
" style="fill:#ffffff;"/>
   </g>
   <g id="matplotlib.axis_1">
    <g id="xtick_1">
     <g id="line2d_1">
      <path clip-path="url(#pd141407a33)" d="M 80.338401 192.24 
L 80.338401 25.92 
" style="fill:none;stroke:#cccccc;stroke-linecap:round;stroke-width:0.8;"/>
     </g>
     <g id="text_1">
      <!-- −20 -->
      <g style="fill:#262626;" transform="translate(69.786058 206.838437)scale(0.1 -0.1)">
       <defs>
        <path d="M 10.59375 35.5 
L 73.1875 35.5 
L 73.1875 27.203125 
L 10.59375 27.203125 
z
" id="DejaVuSans-8722"/>
        <path d="M 19.1875 8.296875 
L 53.609375 8.296875 
L 53.609375 0 
L 7.328125 0 
L 7.328125 8.296875 
Q 12.9375 14.109375 22.625 23.890625 
Q 32.328125 33.6875 34.8125 36.53125 
Q 39.546875 41.84375 41.421875 45.53125 
Q 43.3125 49.21875 43.3125 52.78125 
Q 43.3125 58.59375 39.234375 62.25 
Q 35.15625 65.921875 28.609375 65.921875 
Q 23.96875 65.921875 18.8125 64.3125 
Q 13.671875 62.703125 7.8125 59.421875 
L 7.8125 69.390625 
Q 13.765625 71.78125 18.9375 73 
Q 24.125 74.21875 28.421875 74.21875 
Q 39.75 74.21875 46.484375 68.546875 
Q 53.21875 62.890625 53.21875 53.421875 
Q 53.21875 48.921875 51.53125 44.890625 
Q 49.859375 40.875 45.40625 35.40625 
Q 44.1875 33.984375 37.640625 27.21875 
Q 31.109375 20.453125 19.1875 8.296875 
z
" id="DejaVuSans-50"/>
        <path d="M 31.78125 66.40625 
Q 24.171875 66.40625 20.328125 58.90625 
Q 16.5 51.421875 16.5 36.375 
Q 16.5 21.390625 20.328125 13.890625 
Q 24.171875 6.390625 31.78125 6.390625 
Q 39.453125 6.390625 43.28125 13.890625 
Q 47.125 21.390625 47.125 36.375 
Q 47.125 51.421875 43.28125 58.90625 
Q 39.453125 66.40625 31.78125 66.40625 
z
M 31.78125 74.21875 
Q 44.046875 74.21875 50.515625 64.515625 
Q 56.984375 54.828125 56.984375 36.375 
Q 56.984375 17.96875 50.515625 8.265625 
Q 44.046875 -1.421875 31.78125 -1.421875 
Q 19.53125 -1.421875 13.0625 8.265625 
Q 6.59375 17.96875 6.59375 36.375 
Q 6.59375 54.828125 13.0625 64.515625 
Q 19.53125 74.21875 31.78125 74.21875 
z
" id="DejaVuSans-48"/>
       </defs>
       <use xlink:href="#DejaVuSans-8722"/>
       <use x="83.789062" xlink:href="#DejaVuSans-50"/>
       <use x="147.412109" xlink:href="#DejaVuSans-48"/>
      </g>
     </g>
    </g>
    <g id="xtick_2">
     <g id="line2d_2">
      <path clip-path="url(#pd141407a33)" d="M 124.068809 192.24 
L 124.068809 25.92 
" style="fill:none;stroke:#cccccc;stroke-linecap:round;stroke-width:0.8;"/>
     </g>
     <g id="text_2">
      <!-- −15 -->
      <g style="fill:#262626;" transform="translate(113.516465 206.838437)scale(0.1 -0.1)">
       <defs>
        <path d="M 12.40625 8.296875 
L 28.515625 8.296875 
L 28.515625 63.921875 
L 10.984375 60.40625 
L 10.984375 69.390625 
L 28.421875 72.90625 
L 38.28125 72.90625 
L 38.28125 8.296875 
L 54.390625 8.296875 
L 54.390625 0 
L 12.40625 0 
z
" id="DejaVuSans-49"/>
        <path d="M 10.796875 72.90625 
L 49.515625 72.90625 
L 49.515625 64.59375 
L 19.828125 64.59375 
L 19.828125 46.734375 
Q 21.96875 47.46875 24.109375 47.828125 
Q 26.265625 48.1875 28.421875 48.1875 
Q 40.625 48.1875 47.75 41.5 
Q 54.890625 34.8125 54.890625 23.390625 
Q 54.890625 11.625 47.5625 5.09375 
Q 40.234375 -1.421875 26.90625 -1.421875 
Q 22.3125 -1.421875 17.546875 -0.640625 
Q 12.796875 0.140625 7.71875 1.703125 
L 7.71875 11.625 
Q 12.109375 9.234375 16.796875 8.0625 
Q 21.484375 6.890625 26.703125 6.890625 
Q 35.15625 6.890625 40.078125 11.328125 
Q 45.015625 15.765625 45.015625 23.390625 
Q 45.015625 31 40.078125 35.4375 
Q 35.15625 39.890625 26.703125 39.890625 
Q 22.75 39.890625 18.8125 39.015625 
Q 14.890625 38.140625 10.796875 36.28125 
z
" id="DejaVuSans-53"/>
       </defs>
       <use xlink:href="#DejaVuSans-8722"/>
       <use x="83.789062" xlink:href="#DejaVuSans-49"/>
       <use x="147.412109" xlink:href="#DejaVuSans-53"/>
      </g>
     </g>
    </g>
    <g id="xtick_3">
     <g id="line2d_3">
      <path clip-path="url(#pd141407a33)" d="M 167.799216 192.24 
L 167.799216 25.92 
" style="fill:none;stroke:#cccccc;stroke-linecap:round;stroke-width:0.8;"/>
     </g>
     <g id="text_3">
      <!-- −10 -->
      <g style="fill:#262626;" transform="translate(157.246873 206.838437)scale(0.1 -0.1)">
       <use xlink:href="#DejaVuSans-8722"/>
       <use x="83.789062" xlink:href="#DejaVuSans-49"/>
       <use x="147.412109" xlink:href="#DejaVuSans-48"/>
      </g>
     </g>
    </g>
    <g id="xtick_4">
     <g id="line2d_4">
      <path clip-path="url(#pd141407a33)" d="M 211.529624 192.24 
L 211.529624 25.92 
" style="fill:none;stroke:#cccccc;stroke-linecap:round;stroke-width:0.8;"/>
     </g>
     <g id="text_4">
      <!-- −5 -->
      <g style="fill:#262626;" transform="translate(204.15853 206.838437)scale(0.1 -0.1)">
       <use xlink:href="#DejaVuSans-8722"/>
       <use x="83.789062" xlink:href="#DejaVuSans-53"/>
      </g>
     </g>
    </g>
    <g id="xtick_5">
     <g id="line2d_5">
      <path clip-path="url(#pd141407a33)" d="M 255.260031 192.24 
L 255.260031 25.92 
" style="fill:none;stroke:#cccccc;stroke-linecap:round;stroke-width:0.8;"/>
     </g>
     <g id="text_5">
      <!-- 0 -->
      <g style="fill:#262626;" transform="translate(252.078781 206.838437)scale(0.1 -0.1)">
       <use xlink:href="#DejaVuSans-48"/>
      </g>
     </g>
    </g>
   </g>
   <g id="matplotlib.axis_2">
    <g id="ytick_1">
     <g id="line2d_6">
      <path clip-path="url(#pd141407a33)" d="M 40.5 184.833546 
L 291.6 184.833546 
" style="fill:none;stroke:#cccccc;stroke-linecap:round;stroke-width:0.8;"/>
     </g>
     <g id="line2d_7">
      <defs>
       <path d="M 0 0 
L -3.5 0 
" id="m11db32c31d" style="stroke:#262626;stroke-width:0.8;"/>
      </defs>
      <g>
       <use style="fill:#262626;stroke:#262626;stroke-width:0.8;" x="40.5" xlink:href="#m11db32c31d" y="184.833546"/>
      </g>
     </g>
     <g id="text_6">
      <!-- 0.00 -->
      <g style="fill:#262626;" transform="translate(11.234375 188.632764)scale(0.1 -0.1)">
       <defs>
        <path d="M 10.6875 12.40625 
L 21 12.40625 
L 21 0 
L 10.6875 0 
z
" id="DejaVuSans-46"/>
       </defs>
       <use xlink:href="#DejaVuSans-48"/>
       <use x="63.623047" xlink:href="#DejaVuSans-46"/>
       <use x="95.410156" xlink:href="#DejaVuSans-48"/>
       <use x="159.033203" xlink:href="#DejaVuSans-48"/>
      </g>
     </g>
    </g>
    <g id="ytick_2">
     <g id="line2d_8">
      <path clip-path="url(#pd141407a33)" d="M 40.5 161.753082 
L 291.6 161.753082 
" style="fill:none;stroke:#cccccc;stroke-linecap:round;stroke-width:0.8;"/>
     </g>
     <g id="line2d_9">
      <g>
       <use style="fill:#262626;stroke:#262626;stroke-width:0.8;" x="40.5" xlink:href="#m11db32c31d" y="161.753082"/>
      </g>
     </g>
     <g id="text_7">
      <!-- 0.05 -->
      <g style="fill:#262626;" transform="translate(11.234375 165.552301)scale(0.1 -0.1)">
       <use xlink:href="#DejaVuSans-48"/>
       <use x="63.623047" xlink:href="#DejaVuSans-46"/>
       <use x="95.410156" xlink:href="#DejaVuSans-48"/>
       <use x="159.033203" xlink:href="#DejaVuSans-53"/>
      </g>
     </g>
    </g>
    <g id="ytick_3">
     <g id="line2d_10">
      <path clip-path="url(#pd141407a33)" d="M 40.5 138.672619 
L 291.6 138.672619 
" style="fill:none;stroke:#cccccc;stroke-linecap:round;stroke-width:0.8;"/>
     </g>
     <g id="line2d_11">
      <g>
       <use style="fill:#262626;stroke:#262626;stroke-width:0.8;" x="40.5" xlink:href="#m11db32c31d" y="138.672619"/>
      </g>
     </g>
     <g id="text_8">
      <!-- 0.10 -->
      <g style="fill:#262626;" transform="translate(11.234375 142.471837)scale(0.1 -0.1)">
       <use xlink:href="#DejaVuSans-48"/>
       <use x="63.623047" xlink:href="#DejaVuSans-46"/>
       <use x="95.410156" xlink:href="#DejaVuSans-49"/>
       <use x="159.033203" xlink:href="#DejaVuSans-48"/>
      </g>
     </g>
    </g>
    <g id="ytick_4">
     <g id="line2d_12">
      <path clip-path="url(#pd141407a33)" d="M 40.5 115.592155 
L 291.6 115.592155 
" style="fill:none;stroke:#cccccc;stroke-linecap:round;stroke-width:0.8;"/>
     </g>
     <g id="line2d_13">
      <g>
       <use style="fill:#262626;stroke:#262626;stroke-width:0.8;" x="40.5" xlink:href="#m11db32c31d" y="115.592155"/>
      </g>
     </g>
     <g id="text_9">
      <!-- 0.15 -->
      <g style="fill:#262626;" transform="translate(11.234375 119.391374)scale(0.1 -0.1)">
       <use xlink:href="#DejaVuSans-48"/>
       <use x="63.623047" xlink:href="#DejaVuSans-46"/>
       <use x="95.410156" xlink:href="#DejaVuSans-49"/>
       <use x="159.033203" xlink:href="#DejaVuSans-53"/>
      </g>
     </g>
    </g>
    <g id="ytick_5">
     <g id="line2d_14">
      <path clip-path="url(#pd141407a33)" d="M 40.5 92.511692 
L 291.6 92.511692 
" style="fill:none;stroke:#cccccc;stroke-linecap:round;stroke-width:0.8;"/>
     </g>
     <g id="line2d_15">
      <g>
       <use style="fill:#262626;stroke:#262626;stroke-width:0.8;" x="40.5" xlink:href="#m11db32c31d" y="92.511692"/>
      </g>
     </g>
     <g id="text_10">
      <!-- 0.20 -->
      <g style="fill:#262626;" transform="translate(11.234375 96.31091)scale(0.1 -0.1)">
       <use xlink:href="#DejaVuSans-48"/>
       <use x="63.623047" xlink:href="#DejaVuSans-46"/>
       <use x="95.410156" xlink:href="#DejaVuSans-50"/>
       <use x="159.033203" xlink:href="#DejaVuSans-48"/>
      </g>
     </g>
    </g>
    <g id="ytick_6">
     <g id="line2d_16">
      <path clip-path="url(#pd141407a33)" d="M 40.5 69.431228 
L 291.6 69.431228 
" style="fill:none;stroke:#cccccc;stroke-linecap:round;stroke-width:0.8;"/>
     </g>
     <g id="line2d_17">
      <g>
       <use style="fill:#262626;stroke:#262626;stroke-width:0.8;" x="40.5" xlink:href="#m11db32c31d" y="69.431228"/>
      </g>
     </g>
     <g id="text_11">
      <!-- 0.25 -->
      <g style="fill:#262626;" transform="translate(11.234375 73.230447)scale(0.1 -0.1)">
       <use xlink:href="#DejaVuSans-48"/>
       <use x="63.623047" xlink:href="#DejaVuSans-46"/>
       <use x="95.410156" xlink:href="#DejaVuSans-50"/>
       <use x="159.033203" xlink:href="#DejaVuSans-53"/>
      </g>
     </g>
    </g>
    <g id="ytick_7">
     <g id="line2d_18">
      <path clip-path="url(#pd141407a33)" d="M 40.5 46.350765 
L 291.6 46.350765 
" style="fill:none;stroke:#cccccc;stroke-linecap:round;stroke-width:0.8;"/>
     </g>
     <g id="line2d_19">
      <g>
       <use style="fill:#262626;stroke:#262626;stroke-width:0.8;" x="40.5" xlink:href="#m11db32c31d" y="46.350765"/>
      </g>
     </g>
     <g id="text_12">
      <!-- 0.30 -->
      <g style="fill:#262626;" transform="translate(11.234375 50.149983)scale(0.1 -0.1)">
       <defs>
        <path d="M 40.578125 39.3125 
Q 47.65625 37.796875 51.625 33 
Q 55.609375 28.21875 55.609375 21.1875 
Q 55.609375 10.40625 48.1875 4.484375 
Q 40.765625 -1.421875 27.09375 -1.421875 
Q 22.515625 -1.421875 17.65625 -0.515625 
Q 12.796875 0.390625 7.625 2.203125 
L 7.625 11.71875 
Q 11.71875 9.328125 16.59375 8.109375 
Q 21.484375 6.890625 26.8125 6.890625 
Q 36.078125 6.890625 40.9375 10.546875 
Q 45.796875 14.203125 45.796875 21.1875 
Q 45.796875 27.640625 41.28125 31.265625 
Q 36.765625 34.90625 28.71875 34.90625 
L 20.21875 34.90625 
L 20.21875 43.015625 
L 29.109375 43.015625 
Q 36.375 43.015625 40.234375 45.921875 
Q 44.09375 48.828125 44.09375 54.296875 
Q 44.09375 59.90625 40.109375 62.90625 
Q 36.140625 65.921875 28.71875 65.921875 
Q 24.65625 65.921875 20.015625 65.03125 
Q 15.375 64.15625 9.8125 62.3125 
L 9.8125 71.09375 
Q 15.4375 72.65625 20.34375 73.4375 
Q 25.25 74.21875 29.59375 74.21875 
Q 40.828125 74.21875 47.359375 69.109375 
Q 53.90625 64.015625 53.90625 55.328125 
Q 53.90625 49.265625 50.4375 45.09375 
Q 46.96875 40.921875 40.578125 39.3125 
z
" id="DejaVuSans-51"/>
       </defs>
       <use xlink:href="#DejaVuSans-48"/>
       <use x="63.623047" xlink:href="#DejaVuSans-46"/>
       <use x="95.410156" xlink:href="#DejaVuSans-51"/>
       <use x="159.033203" xlink:href="#DejaVuSans-48"/>
      </g>
     </g>
    </g>
   </g>
   <g id="line2d_20">
    <path clip-path="url(#pd141407a33)" d="M 52.350934 170.888471 
L 182.667553 170.998019 
L 194.912068 171.234101 
L 202.783542 171.598023 
L 208.905798 172.11228 
L 213.278838 172.676922 
L 217.651879 173.474536 
L 221.150313 174.328925 
L 224.648746 175.416715 
L 228.14718 176.767728 
L 231.645611 178.387487 
L 236.018652 180.709434 
L 240.391692 183.04061 
L 242.140909 183.819199 
L 243.890126 184.399749 
L 245.639341 184.68 
L 246.51395 184.669122 
L 247.388558 184.534091 
L 248.263166 184.255461 
L 249.137774 183.812447 
L 250.012382 183.183085 
L 250.886991 182.34445 
L 251.761599 181.272996 
L 252.636207 179.944941 
L 253.510815 178.336746 
L 254.385423 176.425706 
L 255.260031 174.190604 
L 256.13464 171.612441 
L 257.883856 165.36684 
L 259.633072 157.611871 
L 261.382288 148.356737 
L 263.131504 137.716226 
L 265.75533 119.687661 
L 272.752194 68.924777 
L 274.501411 57.943477 
L 276.250628 48.296801 
L 277.999842 40.130244 
L 279.749059 33.48 
L 279.749059 33.48 
" style="fill:none;stroke:#1f77b4;stroke-linecap:round;stroke-width:1.5;"/>
   </g>
   <g id="line2d_21">
    <path clip-path="url(#pd141407a33)" d="M 52.350934 170.888471 
L 182.667553 170.998019 
L 194.912068 171.234101 
L 202.783542 171.598023 
L 208.905798 172.11228 
L 213.278838 172.676922 
L 217.651879 173.474536 
L 221.150313 174.328925 
L 224.648746 175.416715 
L 228.14718 176.767728 
L 231.645611 178.387487 
L 236.018652 180.709434 
L 240.391692 183.04061 
L 242.140909 183.819199 
L 243.890126 184.399749 
L 245.639341 184.68 
L 246.51395 184.669122 
L 247.388558 184.534091 
L 248.263166 184.255461 
L 249.137774 183.812447 
L 250.012382 183.183085 
L 250.886991 182.34445 
L 251.761599 181.272996 
L 252.636207 179.944941 
L 253.510815 178.336746 
L 254.385423 176.425706 
L 255.260031 174.190604 
L 256.13464 171.612441 
L 257.883856 165.36684 
L 259.633072 157.611871 
L 261.382288 148.356737 
L 263.131504 137.716226 
L 265.75533 119.687661 
L 272.752194 68.924777 
L 274.501411 57.943477 
L 276.250628 48.296801 
L 277.999842 40.130244 
L 279.749059 33.48 
L 279.749059 33.48 
" style="fill:none;stroke:#ff7f0e;stroke-dasharray:5.55,2.4;stroke-dashoffset:0;stroke-width:1.5;"/>
   </g>
   <g id="patch_3">
    <path d="M 40.5 192.24 
L 40.5 25.92 
" style="fill:none;stroke:#cccccc;stroke-linecap:square;stroke-linejoin:miter;stroke-width:0.8;"/>
   </g>
   <g id="patch_4">
    <path d="M 291.6 192.24 
L 291.6 25.92 
" style="fill:none;stroke:#cccccc;stroke-linecap:square;stroke-linejoin:miter;stroke-width:0.8;"/>
   </g>
   <g id="patch_5">
    <path d="M 40.5 192.24 
L 291.6 192.24 
" style="fill:none;stroke:#cccccc;stroke-linecap:square;stroke-linejoin:miter;stroke-width:0.8;"/>
   </g>
   <g id="patch_6">
    <path d="M 40.5 25.92 
L 291.6 25.92 
" style="fill:none;stroke:#cccccc;stroke-linecap:square;stroke-linejoin:miter;stroke-width:0.8;"/>
   </g>
   <g id="legend_1">
    <g id="patch_7">
     <path d="M 47.5 63.27625 
L 181.189063 63.27625 
Q 183.189063 63.27625 183.189063 61.27625 
L 183.189063 32.92 
Q 183.189063 30.92 181.189063 30.92 
L 47.5 30.92 
Q 45.5 30.92 45.5 32.92 
L 45.5 61.27625 
Q 45.5 63.27625 47.5 63.27625 
z
" style="fill:#ffffff;opacity:0.8;stroke:#cccccc;stroke-linejoin:miter;"/>
    </g>
    <g id="line2d_22">
     <path d="M 49.5 39.018437 
L 69.5 39.018437 
" style="fill:none;stroke:#1f77b4;stroke-linecap:round;stroke-width:1.5;"/>
    </g>
    <g id="line2d_23"/>
    <g id="text_13">
     <!-- R.RAF (328.3) -->
     <g style="fill:#262626;" transform="translate(77.5 42.518437)scale(0.1 -0.1)">
      <defs>
       <path d="M 44.390625 34.1875 
Q 47.5625 33.109375 50.5625 29.59375 
Q 53.5625 26.078125 56.59375 19.921875 
L 66.609375 0 
L 56 0 
L 46.6875 18.703125 
Q 43.0625 26.03125 39.671875 28.421875 
Q 36.28125 30.8125 30.421875 30.8125 
L 19.671875 30.8125 
L 19.671875 0 
L 9.8125 0 
L 9.8125 72.90625 
L 32.078125 72.90625 
Q 44.578125 72.90625 50.734375 67.671875 
Q 56.890625 62.453125 56.890625 51.90625 
Q 56.890625 45.015625 53.6875 40.46875 
Q 50.484375 35.9375 44.390625 34.1875 
z
M 19.671875 64.796875 
L 19.671875 38.921875 
L 32.078125 38.921875 
Q 39.203125 38.921875 42.84375 42.21875 
Q 46.484375 45.515625 46.484375 51.90625 
Q 46.484375 58.296875 42.84375 61.546875 
Q 39.203125 64.796875 32.078125 64.796875 
z
" id="DejaVuSans-82"/>
       <path d="M 34.1875 63.1875 
L 20.796875 26.90625 
L 47.609375 26.90625 
z
M 28.609375 72.90625 
L 39.796875 72.90625 
L 67.578125 0 
L 57.328125 0 
L 50.6875 18.703125 
L 17.828125 18.703125 
L 11.1875 0 
L 0.78125 0 
z
" id="DejaVuSans-65"/>
       <path d="M 9.8125 72.90625 
L 51.703125 72.90625 
L 51.703125 64.59375 
L 19.671875 64.59375 
L 19.671875 43.109375 
L 48.578125 43.109375 
L 48.578125 34.8125 
L 19.671875 34.8125 
L 19.671875 0 
L 9.8125 0 
z
" id="DejaVuSans-70"/>
       <path id="DejaVuSans-32"/>
       <path d="M 31 75.875 
Q 24.46875 64.65625 21.28125 53.65625 
Q 18.109375 42.671875 18.109375 31.390625 
Q 18.109375 20.125 21.3125 9.0625 
Q 24.515625 -2 31 -13.1875 
L 23.1875 -13.1875 
Q 15.875 -1.703125 12.234375 9.375 
Q 8.59375 20.453125 8.59375 31.390625 
Q 8.59375 42.28125 12.203125 53.3125 
Q 15.828125 64.359375 23.1875 75.875 
z
" id="DejaVuSans-40"/>
       <path d="M 31.78125 34.625 
Q 24.75 34.625 20.71875 30.859375 
Q 16.703125 27.09375 16.703125 20.515625 
Q 16.703125 13.921875 20.71875 10.15625 
Q 24.75 6.390625 31.78125 6.390625 
Q 38.8125 6.390625 42.859375 10.171875 
Q 46.921875 13.96875 46.921875 20.515625 
Q 46.921875 27.09375 42.890625 30.859375 
Q 38.875 34.625 31.78125 34.625 
z
M 21.921875 38.8125 
Q 15.578125 40.375 12.03125 44.71875 
Q 8.5 49.078125 8.5 55.328125 
Q 8.5 64.0625 14.71875 69.140625 
Q 20.953125 74.21875 31.78125 74.21875 
Q 42.671875 74.21875 48.875 69.140625 
Q 55.078125 64.0625 55.078125 55.328125 
Q 55.078125 49.078125 51.53125 44.71875 
Q 48 40.375 41.703125 38.8125 
Q 48.828125 37.15625 52.796875 32.3125 
Q 56.78125 27.484375 56.78125 20.515625 
Q 56.78125 9.90625 50.3125 4.234375 
Q 43.84375 -1.421875 31.78125 -1.421875 
Q 19.734375 -1.421875 13.25 4.234375 
Q 6.78125 9.90625 6.78125 20.515625 
Q 6.78125 27.484375 10.78125 32.3125 
Q 14.796875 37.15625 21.921875 38.8125 
z
M 18.3125 54.390625 
Q 18.3125 48.734375 21.84375 45.5625 
Q 25.390625 42.390625 31.78125 42.390625 
Q 38.140625 42.390625 41.71875 45.5625 
Q 45.3125 48.734375 45.3125 54.390625 
Q 45.3125 60.0625 41.71875 63.234375 
Q 38.140625 66.40625 31.78125 66.40625 
Q 25.390625 66.40625 21.84375 63.234375 
Q 18.3125 60.0625 18.3125 54.390625 
z
" id="DejaVuSans-56"/>
       <path d="M 8.015625 75.875 
L 15.828125 75.875 
Q 23.140625 64.359375 26.78125 53.3125 
Q 30.421875 42.28125 30.421875 31.390625 
Q 30.421875 20.453125 26.78125 9.375 
Q 23.140625 -1.703125 15.828125 -13.1875 
L 8.015625 -13.1875 
Q 14.5 -2 17.703125 9.0625 
Q 20.90625 20.125 20.90625 31.390625 
Q 20.90625 42.671875 17.703125 53.65625 
Q 14.5 64.65625 8.015625 75.875 
z
" id="DejaVuSans-41"/>
      </defs>
      <use xlink:href="#DejaVuSans-82"/>
      <use x="65.857422" xlink:href="#DejaVuSans-46"/>
      <use x="97.644531" xlink:href="#DejaVuSans-82"/>
      <use x="163.126953" xlink:href="#DejaVuSans-65"/>
      <use x="231.535156" xlink:href="#DejaVuSans-70"/>
      <use x="289.054688" xlink:href="#DejaVuSans-32"/>
      <use x="320.841797" xlink:href="#DejaVuSans-40"/>
      <use x="359.855469" xlink:href="#DejaVuSans-51"/>
      <use x="423.478516" xlink:href="#DejaVuSans-50"/>
      <use x="487.101562" xlink:href="#DejaVuSans-56"/>
      <use x="550.724609" xlink:href="#DejaVuSans-46"/>
      <use x="582.511719" xlink:href="#DejaVuSans-51"/>
      <use x="646.134766" xlink:href="#DejaVuSans-41"/>
     </g>
    </g>
    <g id="line2d_24">
     <path d="M 49.5 53.696562 
L 69.5 53.696562 
" style="fill:none;stroke:#ff7f0e;stroke-dasharray:5.55,2.4;stroke-dashoffset:0;stroke-width:1.5;"/>
    </g>
    <g id="line2d_25"/>
    <g id="text_14">
     <!-- Adjusted dSiLU (0.0) -->
     <g style="fill:#262626;" transform="translate(77.5 57.196562)scale(0.1 -0.1)">
      <defs>
       <path d="M 45.40625 46.390625 
L 45.40625 75.984375 
L 54.390625 75.984375 
L 54.390625 0 
L 45.40625 0 
L 45.40625 8.203125 
Q 42.578125 3.328125 38.25 0.953125 
Q 33.9375 -1.421875 27.875 -1.421875 
Q 17.96875 -1.421875 11.734375 6.484375 
Q 5.515625 14.40625 5.515625 27.296875 
Q 5.515625 40.1875 11.734375 48.09375 
Q 17.96875 56 27.875 56 
Q 33.9375 56 38.25 53.625 
Q 42.578125 51.265625 45.40625 46.390625 
z
M 14.796875 27.296875 
Q 14.796875 17.390625 18.875 11.75 
Q 22.953125 6.109375 30.078125 6.109375 
Q 37.203125 6.109375 41.296875 11.75 
Q 45.40625 17.390625 45.40625 27.296875 
Q 45.40625 37.203125 41.296875 42.84375 
Q 37.203125 48.484375 30.078125 48.484375 
Q 22.953125 48.484375 18.875 42.84375 
Q 14.796875 37.203125 14.796875 27.296875 
z
" id="DejaVuSans-100"/>
       <path d="M 9.421875 54.6875 
L 18.40625 54.6875 
L 18.40625 -0.984375 
Q 18.40625 -11.421875 14.421875 -16.109375 
Q 10.453125 -20.796875 1.609375 -20.796875 
L -1.8125 -20.796875 
L -1.8125 -13.1875 
L 0.59375 -13.1875 
Q 5.71875 -13.1875 7.5625 -10.8125 
Q 9.421875 -8.453125 9.421875 -0.984375 
z
M 9.421875 75.984375 
L 18.40625 75.984375 
L 18.40625 64.59375 
L 9.421875 64.59375 
z
" id="DejaVuSans-106"/>
       <path d="M 8.5 21.578125 
L 8.5 54.6875 
L 17.484375 54.6875 
L 17.484375 21.921875 
Q 17.484375 14.15625 20.5 10.265625 
Q 23.53125 6.390625 29.59375 6.390625 
Q 36.859375 6.390625 41.078125 11.03125 
Q 45.3125 15.671875 45.3125 23.6875 
L 45.3125 54.6875 
L 54.296875 54.6875 
L 54.296875 0 
L 45.3125 0 
L 45.3125 8.40625 
Q 42.046875 3.421875 37.71875 1 
Q 33.40625 -1.421875 27.6875 -1.421875 
Q 18.265625 -1.421875 13.375 4.4375 
Q 8.5 10.296875 8.5 21.578125 
z
M 31.109375 56 
z
" id="DejaVuSans-117"/>
       <path d="M 44.28125 53.078125 
L 44.28125 44.578125 
Q 40.484375 46.53125 36.375 47.5 
Q 32.28125 48.484375 27.875 48.484375 
Q 21.1875 48.484375 17.84375 46.4375 
Q 14.5 44.390625 14.5 40.28125 
Q 14.5 37.15625 16.890625 35.375 
Q 19.28125 33.59375 26.515625 31.984375 
L 29.59375 31.296875 
Q 39.15625 29.25 43.1875 25.515625 
Q 47.21875 21.78125 47.21875 15.09375 
Q 47.21875 7.46875 41.1875 3.015625 
Q 35.15625 -1.421875 24.609375 -1.421875 
Q 20.21875 -1.421875 15.453125 -0.5625 
Q 10.6875 0.296875 5.421875 2 
L 5.421875 11.28125 
Q 10.40625 8.6875 15.234375 7.390625 
Q 20.0625 6.109375 24.8125 6.109375 
Q 31.15625 6.109375 34.5625 8.28125 
Q 37.984375 10.453125 37.984375 14.40625 
Q 37.984375 18.0625 35.515625 20.015625 
Q 33.0625 21.96875 24.703125 23.78125 
L 21.578125 24.515625 
Q 13.234375 26.265625 9.515625 29.90625 
Q 5.8125 33.546875 5.8125 39.890625 
Q 5.8125 47.609375 11.28125 51.796875 
Q 16.75 56 26.8125 56 
Q 31.78125 56 36.171875 55.265625 
Q 40.578125 54.546875 44.28125 53.078125 
z
" id="DejaVuSans-115"/>
       <path d="M 18.3125 70.21875 
L 18.3125 54.6875 
L 36.8125 54.6875 
L 36.8125 47.703125 
L 18.3125 47.703125 
L 18.3125 18.015625 
Q 18.3125 11.328125 20.140625 9.421875 
Q 21.96875 7.515625 27.59375 7.515625 
L 36.8125 7.515625 
L 36.8125 0 
L 27.59375 0 
Q 17.1875 0 13.234375 3.875 
Q 9.28125 7.765625 9.28125 18.015625 
L 9.28125 47.703125 
L 2.6875 47.703125 
L 2.6875 54.6875 
L 9.28125 54.6875 
L 9.28125 70.21875 
z
" id="DejaVuSans-116"/>
       <path d="M 56.203125 29.59375 
L 56.203125 25.203125 
L 14.890625 25.203125 
Q 15.484375 15.921875 20.484375 11.0625 
Q 25.484375 6.203125 34.421875 6.203125 
Q 39.59375 6.203125 44.453125 7.46875 
Q 49.3125 8.734375 54.109375 11.28125 
L 54.109375 2.78125 
Q 49.265625 0.734375 44.1875 -0.34375 
Q 39.109375 -1.421875 33.890625 -1.421875 
Q 20.796875 -1.421875 13.15625 6.1875 
Q 5.515625 13.8125 5.515625 26.8125 
Q 5.515625 40.234375 12.765625 48.109375 
Q 20.015625 56 32.328125 56 
Q 43.359375 56 49.78125 48.890625 
Q 56.203125 41.796875 56.203125 29.59375 
z
M 47.21875 32.234375 
Q 47.125 39.59375 43.09375 43.984375 
Q 39.0625 48.390625 32.421875 48.390625 
Q 24.90625 48.390625 20.390625 44.140625 
Q 15.875 39.890625 15.1875 32.171875 
z
" id="DejaVuSans-101"/>
       <path d="M 53.515625 70.515625 
L 53.515625 60.890625 
Q 47.90625 63.578125 42.921875 64.890625 
Q 37.9375 66.21875 33.296875 66.21875 
Q 25.25 66.21875 20.875 63.09375 
Q 16.5 59.96875 16.5 54.203125 
Q 16.5 49.359375 19.40625 46.890625 
Q 22.3125 44.4375 30.421875 42.921875 
L 36.375 41.703125 
Q 47.40625 39.59375 52.65625 34.296875 
Q 57.90625 29 57.90625 20.125 
Q 57.90625 9.515625 50.796875 4.046875 
Q 43.703125 -1.421875 29.984375 -1.421875 
Q 24.8125 -1.421875 18.96875 -0.25 
Q 13.140625 0.921875 6.890625 3.21875 
L 6.890625 13.375 
Q 12.890625 10.015625 18.65625 8.296875 
Q 24.421875 6.59375 29.984375 6.59375 
Q 38.421875 6.59375 43.015625 9.90625 
Q 47.609375 13.234375 47.609375 19.390625 
Q 47.609375 24.75 44.3125 27.78125 
Q 41.015625 30.8125 33.5 32.328125 
L 27.484375 33.5 
Q 16.453125 35.6875 11.515625 40.375 
Q 6.59375 45.0625 6.59375 53.421875 
Q 6.59375 63.09375 13.40625 68.65625 
Q 20.21875 74.21875 32.171875 74.21875 
Q 37.3125 74.21875 42.625 73.28125 
Q 47.953125 72.359375 53.515625 70.515625 
z
" id="DejaVuSans-83"/>
       <path d="M 9.421875 54.6875 
L 18.40625 54.6875 
L 18.40625 0 
L 9.421875 0 
z
M 9.421875 75.984375 
L 18.40625 75.984375 
L 18.40625 64.59375 
L 9.421875 64.59375 
z
" id="DejaVuSans-105"/>
       <path d="M 9.8125 72.90625 
L 19.671875 72.90625 
L 19.671875 8.296875 
L 55.171875 8.296875 
L 55.171875 0 
L 9.8125 0 
z
" id="DejaVuSans-76"/>
       <path d="M 8.6875 72.90625 
L 18.609375 72.90625 
L 18.609375 28.609375 
Q 18.609375 16.890625 22.84375 11.734375 
Q 27.09375 6.59375 36.625 6.59375 
Q 46.09375 6.59375 50.34375 11.734375 
Q 54.59375 16.890625 54.59375 28.609375 
L 54.59375 72.90625 
L 64.5 72.90625 
L 64.5 27.390625 
Q 64.5 13.140625 57.4375 5.859375 
Q 50.390625 -1.421875 36.625 -1.421875 
Q 22.796875 -1.421875 15.734375 5.859375 
Q 8.6875 13.140625 8.6875 27.390625 
z
" id="DejaVuSans-85"/>
      </defs>
      <use xlink:href="#DejaVuSans-65"/>
      <use x="66.658203" xlink:href="#DejaVuSans-100"/>
      <use x="130.134766" xlink:href="#DejaVuSans-106"/>
      <use x="157.917969" xlink:href="#DejaVuSans-117"/>
      <use x="221.296875" xlink:href="#DejaVuSans-115"/>
      <use x="273.396484" xlink:href="#DejaVuSans-116"/>
      <use x="312.605469" xlink:href="#DejaVuSans-101"/>
      <use x="374.128906" xlink:href="#DejaVuSans-100"/>
      <use x="437.605469" xlink:href="#DejaVuSans-32"/>
      <use x="469.392578" xlink:href="#DejaVuSans-100"/>
      <use x="532.869141" xlink:href="#DejaVuSans-83"/>
      <use x="596.345703" xlink:href="#DejaVuSans-105"/>
      <use x="624.128906" xlink:href="#DejaVuSans-76"/>
      <use x="674.841797" xlink:href="#DejaVuSans-85"/>
      <use x="748.035156" xlink:href="#DejaVuSans-32"/>
      <use x="779.822266" xlink:href="#DejaVuSans-40"/>
      <use x="818.835938" xlink:href="#DejaVuSans-48"/>
      <use x="882.458984" xlink:href="#DejaVuSans-46"/>
      <use x="914.246094" xlink:href="#DejaVuSans-48"/>
      <use x="977.869141" xlink:href="#DejaVuSans-41"/>
     </g>
    </g>
   </g>
  </g>
  <g id="axes_2">
   <g id="matplotlib.axis_3"/>
   <g id="patch_8">
    <path clip-path="url(#pd141407a33)" d="M 51.913636 192.24 
L 52.788245 192.24 
L 52.788245 190.231366 
L 51.913636 190.231366 
z
" style="fill:#808080;fill-opacity:0.6;stroke:#808080;stroke-linejoin:miter;stroke-opacity:0.6;"/>
   </g>
   <g id="patch_9">
    <path clip-path="url(#pd141407a33)" d="M 52.788245 192.24 
L 53.662853 192.24 
L 53.662853 192.103736 
L 52.788245 192.103736 
z
" style="fill:#808080;fill-opacity:0.6;stroke:#808080;stroke-linejoin:miter;stroke-opacity:0.6;"/>
   </g>
   <g id="patch_10">
    <path clip-path="url(#pd141407a33)" d="M 53.662853 192.24 
L 54.537461 192.24 
L 54.537461 192.149574 
L 53.662853 192.149574 
z
" style="fill:#808080;fill-opacity:0.6;stroke:#808080;stroke-linejoin:miter;stroke-opacity:0.6;"/>
   </g>
   <g id="patch_11">
    <path clip-path="url(#pd141407a33)" d="M 54.537461 192.24 
L 55.412069 192.24 
L 55.412069 192.170318 
L 54.537461 192.170318 
z
" style="fill:#808080;fill-opacity:0.6;stroke:#808080;stroke-linejoin:miter;stroke-opacity:0.6;"/>
   </g>
   <g id="patch_12">
    <path clip-path="url(#pd141407a33)" d="M 55.412069 192.24 
L 56.286677 192.24 
L 56.286677 192.046486 
L 55.412069 192.046486 
z
" style="fill:#808080;fill-opacity:0.6;stroke:#808080;stroke-linejoin:miter;stroke-opacity:0.6;"/>
   </g>
   <g id="patch_13">
    <path clip-path="url(#pd141407a33)" d="M 56.286677 192.24 
L 57.161285 192.24 
L 57.161285 192.135647 
L 56.286677 192.135647 
z
" style="fill:#808080;fill-opacity:0.6;stroke:#808080;stroke-linejoin:miter;stroke-opacity:0.6;"/>
   </g>
   <g id="patch_14">
    <path clip-path="url(#pd141407a33)" d="M 57.161285 192.24 
L 58.035893 192.24 
L 58.035893 192.189983 
L 57.161285 192.189983 
z
" style="fill:#808080;fill-opacity:0.6;stroke:#808080;stroke-linejoin:miter;stroke-opacity:0.6;"/>
   </g>
   <g id="patch_15">
    <path clip-path="url(#pd141407a33)" d="M 58.035893 192.24 
L 58.910502 192.24 
L 58.910502 192.191726 
L 58.035893 192.191726 
z
" style="fill:#808080;fill-opacity:0.6;stroke:#808080;stroke-linejoin:miter;stroke-opacity:0.6;"/>
   </g>
   <g id="patch_16">
    <path clip-path="url(#pd141407a33)" d="M 58.910502 192.24 
L 59.78511 192.24 
L 59.78511 192.168483 
L 58.910502 192.168483 
z
" style="fill:#808080;fill-opacity:0.6;stroke:#808080;stroke-linejoin:miter;stroke-opacity:0.6;"/>
   </g>
   <g id="patch_17">
    <path clip-path="url(#pd141407a33)" d="M 59.78511 192.24 
L 60.659718 192.24 
L 60.659718 192.175763 
L 59.78511 192.175763 
z
" style="fill:#808080;fill-opacity:0.6;stroke:#808080;stroke-linejoin:miter;stroke-opacity:0.6;"/>
   </g>
   <g id="patch_18">
    <path clip-path="url(#pd141407a33)" d="M 60.659718 192.24 
L 61.534326 192.24 
L 61.534326 192.140166 
L 60.659718 192.140166 
z
" style="fill:#808080;fill-opacity:0.6;stroke:#808080;stroke-linejoin:miter;stroke-opacity:0.6;"/>
   </g>
   <g id="patch_19">
    <path clip-path="url(#pd141407a33)" d="M 61.534326 192.24 
L 62.408934 192.24 
L 62.408934 192.14834 
L 61.534326 192.14834 
z
" style="fill:#808080;fill-opacity:0.6;stroke:#808080;stroke-linejoin:miter;stroke-opacity:0.6;"/>
   </g>
   <g id="patch_20">
    <path clip-path="url(#pd141407a33)" d="M 62.408934 192.24 
L 63.283542 192.24 
L 63.283542 192.156592 
L 62.408934 192.156592 
z
" style="fill:#808080;fill-opacity:0.6;stroke:#808080;stroke-linejoin:miter;stroke-opacity:0.6;"/>
   </g>
   <g id="patch_21">
    <path clip-path="url(#pd141407a33)" d="M 63.283542 192.24 
L 64.15815 192.24 
L 64.15815 192.148063 
L 63.283542 192.148063 
z
" style="fill:#808080;fill-opacity:0.6;stroke:#808080;stroke-linejoin:miter;stroke-opacity:0.6;"/>
   </g>
   <g id="patch_22">
    <path clip-path="url(#pd141407a33)" d="M 64.15815 192.24 
L 65.032759 192.24 
L 65.032759 192.155188 
L 64.15815 192.155188 
z
" style="fill:#808080;fill-opacity:0.6;stroke:#808080;stroke-linejoin:miter;stroke-opacity:0.6;"/>
   </g>
   <g id="patch_23">
    <path clip-path="url(#pd141407a33)" d="M 65.032759 192.24 
L 65.907367 192.24 
L 65.907367 192.098122 
L 65.032759 192.098122 
z
" style="fill:#808080;fill-opacity:0.6;stroke:#808080;stroke-linejoin:miter;stroke-opacity:0.6;"/>
   </g>
   <g id="patch_24">
    <path clip-path="url(#pd141407a33)" d="M 65.907367 192.24 
L 66.781975 192.24 
L 66.781975 192.107284 
L 65.907367 192.107284 
z
" style="fill:#808080;fill-opacity:0.6;stroke:#808080;stroke-linejoin:miter;stroke-opacity:0.6;"/>
   </g>
   <g id="patch_25">
    <path clip-path="url(#pd141407a33)" d="M 66.781975 192.24 
L 67.656583 192.24 
L 67.656583 192.078504 
L 66.781975 192.078504 
z
" style="fill:#808080;fill-opacity:0.6;stroke:#808080;stroke-linejoin:miter;stroke-opacity:0.6;"/>
   </g>
   <g id="patch_26">
    <path clip-path="url(#pd141407a33)" d="M 67.656583 192.24 
L 68.531191 192.24 
L 68.531191 192.100174 
L 67.656583 192.100174 
z
" style="fill:#808080;fill-opacity:0.6;stroke:#808080;stroke-linejoin:miter;stroke-opacity:0.6;"/>
   </g>
   <g id="patch_27">
    <path clip-path="url(#pd141407a33)" d="M 68.531191 192.24 
L 69.405799 192.24 
L 69.405799 192.124882 
L 68.531191 192.124882 
z
" style="fill:#808080;fill-opacity:0.6;stroke:#808080;stroke-linejoin:miter;stroke-opacity:0.6;"/>
   </g>
   <g id="patch_28">
    <path clip-path="url(#pd141407a33)" d="M 69.405799 192.24 
L 70.280408 192.24 
L 70.280408 192.115366 
L 69.405799 192.115366 
z
" style="fill:#808080;fill-opacity:0.6;stroke:#808080;stroke-linejoin:miter;stroke-opacity:0.6;"/>
   </g>
   <g id="patch_29">
    <path clip-path="url(#pd141407a33)" d="M 70.280408 192.24 
L 71.155016 192.24 
L 71.155016 192.143436 
L 70.280408 192.143436 
z
" style="fill:#808080;fill-opacity:0.6;stroke:#808080;stroke-linejoin:miter;stroke-opacity:0.6;"/>
   </g>
   <g id="patch_30">
    <path clip-path="url(#pd141407a33)" d="M 71.155016 192.24 
L 72.029624 192.24 
L 72.029624 192.139086 
L 71.155016 192.139086 
z
" style="fill:#808080;fill-opacity:0.6;stroke:#808080;stroke-linejoin:miter;stroke-opacity:0.6;"/>
   </g>
   <g id="patch_31">
    <path clip-path="url(#pd141407a33)" d="M 72.029624 192.24 
L 72.904232 192.24 
L 72.904232 191.499905 
L 72.029624 191.499905 
z
" style="fill:#808080;fill-opacity:0.6;stroke:#808080;stroke-linejoin:miter;stroke-opacity:0.6;"/>
   </g>
   <g id="patch_32">
    <path clip-path="url(#pd141407a33)" d="M 72.904232 192.24 
L 73.77884 192.24 
L 73.77884 192.160324 
L 72.904232 192.160324 
z
" style="fill:#808080;fill-opacity:0.6;stroke:#808080;stroke-linejoin:miter;stroke-opacity:0.6;"/>
   </g>
   <g id="patch_33">
    <path clip-path="url(#pd141407a33)" d="M 73.77884 192.24 
L 74.653448 192.24 
L 74.653448 191.521219 
L 73.77884 191.521219 
z
" style="fill:#808080;fill-opacity:0.6;stroke:#808080;stroke-linejoin:miter;stroke-opacity:0.6;"/>
   </g>
   <g id="patch_34">
    <path clip-path="url(#pd141407a33)" d="M 74.653448 192.24 
L 75.528056 192.24 
L 75.528056 191.50956 
L 74.653448 191.50956 
z
" style="fill:#808080;fill-opacity:0.6;stroke:#808080;stroke-linejoin:miter;stroke-opacity:0.6;"/>
   </g>
   <g id="patch_35">
    <path clip-path="url(#pd141407a33)" d="M 75.528056 192.24 
L 76.402665 192.24 
L 76.402665 192.019819 
L 75.528056 192.019819 
z
" style="fill:#808080;fill-opacity:0.6;stroke:#808080;stroke-linejoin:miter;stroke-opacity:0.6;"/>
   </g>
   <g id="patch_36">
    <path clip-path="url(#pd141407a33)" d="M 76.402665 192.24 
L 77.277273 192.24 
L 77.277273 192.057621 
L 76.402665 192.057621 
z
" style="fill:#808080;fill-opacity:0.6;stroke:#808080;stroke-linejoin:miter;stroke-opacity:0.6;"/>
   </g>
   <g id="patch_37">
    <path clip-path="url(#pd141407a33)" d="M 77.277273 192.24 
L 78.151881 192.24 
L 78.151881 192.141153 
L 77.277273 192.141153 
z
" style="fill:#808080;fill-opacity:0.6;stroke:#808080;stroke-linejoin:miter;stroke-opacity:0.6;"/>
   </g>
   <g id="patch_38">
    <path clip-path="url(#pd141407a33)" d="M 78.151881 192.24 
L 79.026489 192.24 
L 79.026489 192.150407 
L 78.151881 192.150407 
z
" style="fill:#808080;fill-opacity:0.6;stroke:#808080;stroke-linejoin:miter;stroke-opacity:0.6;"/>
   </g>
   <g id="patch_39">
    <path clip-path="url(#pd141407a33)" d="M 79.026489 192.24 
L 79.901097 192.24 
L 79.901097 192.150561 
L 79.026489 192.150561 
z
" style="fill:#808080;fill-opacity:0.6;stroke:#808080;stroke-linejoin:miter;stroke-opacity:0.6;"/>
   </g>
   <g id="patch_40">
    <path clip-path="url(#pd141407a33)" d="M 79.901097 192.24 
L 80.775705 192.24 
L 80.775705 192.146119 
L 79.901097 192.146119 
z
" style="fill:#808080;fill-opacity:0.6;stroke:#808080;stroke-linejoin:miter;stroke-opacity:0.6;"/>
   </g>
   <g id="patch_41">
    <path clip-path="url(#pd141407a33)" d="M 80.775705 192.24 
L 81.650313 192.24 
L 81.650313 192.093727 
L 80.775705 192.093727 
z
" style="fill:#808080;fill-opacity:0.6;stroke:#808080;stroke-linejoin:miter;stroke-opacity:0.6;"/>
   </g>
   <g id="patch_42">
    <path clip-path="url(#pd141407a33)" d="M 81.650313 192.24 
L 82.524922 192.24 
L 82.524922 192.152366 
L 81.650313 192.152366 
z
" style="fill:#808080;fill-opacity:0.6;stroke:#808080;stroke-linejoin:miter;stroke-opacity:0.6;"/>
   </g>
   <g id="patch_43">
    <path clip-path="url(#pd141407a33)" d="M 82.524922 192.24 
L 83.39953 192.24 
L 83.39953 191.988232 
L 82.524922 191.988232 
z
" style="fill:#808080;fill-opacity:0.6;stroke:#808080;stroke-linejoin:miter;stroke-opacity:0.6;"/>
   </g>
   <g id="patch_44">
    <path clip-path="url(#pd141407a33)" d="M 83.39953 192.24 
L 84.274138 192.24 
L 84.274138 191.766633 
L 83.39953 191.766633 
z
" style="fill:#808080;fill-opacity:0.6;stroke:#808080;stroke-linejoin:miter;stroke-opacity:0.6;"/>
   </g>
   <g id="patch_45">
    <path clip-path="url(#pd141407a33)" d="M 84.274138 192.24 
L 85.148746 192.24 
L 85.148746 192.118358 
L 84.274138 192.118358 
z
" style="fill:#808080;fill-opacity:0.6;stroke:#808080;stroke-linejoin:miter;stroke-opacity:0.6;"/>
   </g>
   <g id="patch_46">
    <path clip-path="url(#pd141407a33)" d="M 85.148746 192.24 
L 86.023354 192.24 
L 86.023354 192.022888 
L 85.148746 192.022888 
z
" style="fill:#808080;fill-opacity:0.6;stroke:#808080;stroke-linejoin:miter;stroke-opacity:0.6;"/>
   </g>
   <g id="patch_47">
    <path clip-path="url(#pd141407a33)" d="M 86.023354 192.24 
L 86.897962 192.24 
L 86.897962 192.136248 
L 86.023354 192.136248 
z
" style="fill:#808080;fill-opacity:0.6;stroke:#808080;stroke-linejoin:miter;stroke-opacity:0.6;"/>
   </g>
   <g id="patch_48">
    <path clip-path="url(#pd141407a33)" d="M 86.897962 192.24 
L 87.772571 192.24 
L 87.772571 192.11481 
L 86.897962 192.11481 
z
" style="fill:#808080;fill-opacity:0.6;stroke:#808080;stroke-linejoin:miter;stroke-opacity:0.6;"/>
   </g>
   <g id="patch_49">
    <path clip-path="url(#pd141407a33)" d="M 87.772571 192.24 
L 88.647179 192.24 
L 88.647179 191.564466 
L 87.772571 191.564466 
z
" style="fill:#808080;fill-opacity:0.6;stroke:#808080;stroke-linejoin:miter;stroke-opacity:0.6;"/>
   </g>
   <g id="patch_50">
    <path clip-path="url(#pd141407a33)" d="M 88.647179 192.24 
L 89.521787 192.24 
L 89.521787 192.063528 
L 88.647179 192.063528 
z
" style="fill:#808080;fill-opacity:0.6;stroke:#808080;stroke-linejoin:miter;stroke-opacity:0.6;"/>
   </g>
   <g id="patch_51">
    <path clip-path="url(#pd141407a33)" d="M 89.521787 192.24 
L 90.396395 192.24 
L 90.396395 192.09604 
L 89.521787 192.09604 
z
" style="fill:#808080;fill-opacity:0.6;stroke:#808080;stroke-linejoin:miter;stroke-opacity:0.6;"/>
   </g>
   <g id="patch_52">
    <path clip-path="url(#pd141407a33)" d="M 90.396395 192.24 
L 91.271003 192.24 
L 91.271003 192.071811 
L 90.396395 192.071811 
z
" style="fill:#808080;fill-opacity:0.6;stroke:#808080;stroke-linejoin:miter;stroke-opacity:0.6;"/>
   </g>
   <g id="patch_53">
    <path clip-path="url(#pd141407a33)" d="M 91.271003 192.24 
L 92.145611 192.24 
L 92.145611 192.078381 
L 91.271003 192.078381 
z
" style="fill:#808080;fill-opacity:0.6;stroke:#808080;stroke-linejoin:miter;stroke-opacity:0.6;"/>
   </g>
   <g id="patch_54">
    <path clip-path="url(#pd141407a33)" d="M 92.145611 192.24 
L 93.020219 192.24 
L 93.020219 192.148942 
L 92.145611 192.148942 
z
" style="fill:#808080;fill-opacity:0.6;stroke:#808080;stroke-linejoin:miter;stroke-opacity:0.6;"/>
   </g>
   <g id="patch_55">
    <path clip-path="url(#pd141407a33)" d="M 93.020219 192.24 
L 93.894828 192.24 
L 93.894828 191.747462 
L 93.020219 191.747462 
z
" style="fill:#808080;fill-opacity:0.6;stroke:#808080;stroke-linejoin:miter;stroke-opacity:0.6;"/>
   </g>
   <g id="patch_56">
    <path clip-path="url(#pd141407a33)" d="M 93.894828 192.24 
L 94.769436 192.24 
L 94.769436 192.124188 
L 93.894828 192.124188 
z
" style="fill:#808080;fill-opacity:0.6;stroke:#808080;stroke-linejoin:miter;stroke-opacity:0.6;"/>
   </g>
   <g id="patch_57">
    <path clip-path="url(#pd141407a33)" d="M 94.769436 192.24 
L 95.644044 192.24 
L 95.644044 192.063451 
L 94.769436 192.063451 
z
" style="fill:#808080;fill-opacity:0.6;stroke:#808080;stroke-linejoin:miter;stroke-opacity:0.6;"/>
   </g>
   <g id="patch_58">
    <path clip-path="url(#pd141407a33)" d="M 95.644044 192.24 
L 96.518652 192.24 
L 96.518652 192.051807 
L 95.644044 192.051807 
z
" style="fill:#808080;fill-opacity:0.6;stroke:#808080;stroke-linejoin:miter;stroke-opacity:0.6;"/>
   </g>
   <g id="patch_59">
    <path clip-path="url(#pd141407a33)" d="M 96.518652 192.24 
L 97.39326 192.24 
L 97.39326 192.088437 
L 96.518652 192.088437 
z
" style="fill:#808080;fill-opacity:0.6;stroke:#808080;stroke-linejoin:miter;stroke-opacity:0.6;"/>
   </g>
   <g id="patch_60">
    <path clip-path="url(#pd141407a33)" d="M 97.39326 192.24 
L 98.267868 192.24 
L 98.267868 191.274141 
L 97.39326 191.274141 
z
" style="fill:#808080;fill-opacity:0.6;stroke:#808080;stroke-linejoin:miter;stroke-opacity:0.6;"/>
   </g>
   <g id="patch_61">
    <path clip-path="url(#pd141407a33)" d="M 98.267868 192.24 
L 99.142476 192.24 
L 99.142476 192.141076 
L 98.267868 192.141076 
z
" style="fill:#808080;fill-opacity:0.6;stroke:#808080;stroke-linejoin:miter;stroke-opacity:0.6;"/>
   </g>
   <g id="patch_62">
    <path clip-path="url(#pd141407a33)" d="M 99.142476 192.24 
L 100.017085 192.24 
L 100.017085 192.148541 
L 99.142476 192.148541 
z
" style="fill:#808080;fill-opacity:0.6;stroke:#808080;stroke-linejoin:miter;stroke-opacity:0.6;"/>
   </g>
   <g id="patch_63">
    <path clip-path="url(#pd141407a33)" d="M 100.017085 192.24 
L 100.891693 192.24 
L 100.891693 192.070808 
L 100.017085 192.070808 
z
" style="fill:#808080;fill-opacity:0.6;stroke:#808080;stroke-linejoin:miter;stroke-opacity:0.6;"/>
   </g>
   <g id="patch_64">
    <path clip-path="url(#pd141407a33)" d="M 100.891693 192.24 
L 101.766301 192.24 
L 101.766301 190.756694 
L 100.891693 190.756694 
z
" style="fill:#808080;fill-opacity:0.6;stroke:#808080;stroke-linejoin:miter;stroke-opacity:0.6;"/>
   </g>
   <g id="patch_65">
    <path clip-path="url(#pd141407a33)" d="M 101.766301 192.24 
L 102.640909 192.24 
L 102.640909 192.142788 
L 101.766301 192.142788 
z
" style="fill:#808080;fill-opacity:0.6;stroke:#808080;stroke-linejoin:miter;stroke-opacity:0.6;"/>
   </g>
   <g id="patch_66">
    <path clip-path="url(#pd141407a33)" d="M 102.640909 192.24 
L 103.515517 192.24 
L 103.515517 192.119931 
L 102.640909 192.119931 
z
" style="fill:#808080;fill-opacity:0.6;stroke:#808080;stroke-linejoin:miter;stroke-opacity:0.6;"/>
   </g>
   <g id="patch_67">
    <path clip-path="url(#pd141407a33)" d="M 103.515517 192.24 
L 104.390125 192.24 
L 104.390125 192.16108 
L 103.515517 192.16108 
z
" style="fill:#808080;fill-opacity:0.6;stroke:#808080;stroke-linejoin:miter;stroke-opacity:0.6;"/>
   </g>
   <g id="patch_68">
    <path clip-path="url(#pd141407a33)" d="M 104.390125 192.24 
L 105.264734 192.24 
L 105.264734 192.133997 
L 104.390125 192.133997 
z
" style="fill:#808080;fill-opacity:0.6;stroke:#808080;stroke-linejoin:miter;stroke-opacity:0.6;"/>
   </g>
   <g id="patch_69">
    <path clip-path="url(#pd141407a33)" d="M 105.264734 192.24 
L 106.139342 192.24 
L 106.139342 192.134197 
L 105.264734 192.134197 
z
" style="fill:#808080;fill-opacity:0.6;stroke:#808080;stroke-linejoin:miter;stroke-opacity:0.6;"/>
   </g>
   <g id="patch_70">
    <path clip-path="url(#pd141407a33)" d="M 106.139342 192.24 
L 107.01395 192.24 
L 107.01395 192.090442 
L 106.139342 192.090442 
z
" style="fill:#808080;fill-opacity:0.6;stroke:#808080;stroke-linejoin:miter;stroke-opacity:0.6;"/>
   </g>
   <g id="patch_71">
    <path clip-path="url(#pd141407a33)" d="M 107.01395 192.24 
L 107.888558 192.24 
L 107.888558 192.05156 
L 107.01395 192.05156 
z
" style="fill:#808080;fill-opacity:0.6;stroke:#808080;stroke-linejoin:miter;stroke-opacity:0.6;"/>
   </g>
   <g id="patch_72">
    <path clip-path="url(#pd141407a33)" d="M 107.888558 192.24 
L 108.763166 192.24 
L 108.763166 191.393238 
L 107.888558 191.393238 
z
" style="fill:#808080;fill-opacity:0.6;stroke:#808080;stroke-linejoin:miter;stroke-opacity:0.6;"/>
   </g>
   <g id="patch_73">
    <path clip-path="url(#pd141407a33)" d="M 108.763166 192.24 
L 109.637774 192.24 
L 109.637774 192.117772 
L 108.763166 192.117772 
z
" style="fill:#808080;fill-opacity:0.6;stroke:#808080;stroke-linejoin:miter;stroke-opacity:0.6;"/>
   </g>
   <g id="patch_74">
    <path clip-path="url(#pd141407a33)" d="M 109.637774 192.24 
L 110.512382 192.24 
L 110.512382 192.046316 
L 109.637774 192.046316 
z
" style="fill:#808080;fill-opacity:0.6;stroke:#808080;stroke-linejoin:miter;stroke-opacity:0.6;"/>
   </g>
   <g id="patch_75">
    <path clip-path="url(#pd141407a33)" d="M 110.512382 192.24 
L 111.386991 192.24 
L 111.386991 191.846432 
L 110.512382 191.846432 
z
" style="fill:#808080;fill-opacity:0.6;stroke:#808080;stroke-linejoin:miter;stroke-opacity:0.6;"/>
   </g>
   <g id="patch_76">
    <path clip-path="url(#pd141407a33)" d="M 111.386991 192.24 
L 112.261599 192.24 
L 112.261599 192.103983 
L 111.386991 192.103983 
z
" style="fill:#808080;fill-opacity:0.6;stroke:#808080;stroke-linejoin:miter;stroke-opacity:0.6;"/>
   </g>
   <g id="patch_77">
    <path clip-path="url(#pd141407a33)" d="M 112.261599 192.24 
L 113.136207 192.24 
L 113.136207 192.097212 
L 112.261599 192.097212 
z
" style="fill:#808080;fill-opacity:0.6;stroke:#808080;stroke-linejoin:miter;stroke-opacity:0.6;"/>
   </g>
   <g id="patch_78">
    <path clip-path="url(#pd141407a33)" d="M 113.136207 192.24 
L 114.010815 192.24 
L 114.010815 192.110384 
L 113.136207 192.110384 
z
" style="fill:#808080;fill-opacity:0.6;stroke:#808080;stroke-linejoin:miter;stroke-opacity:0.6;"/>
   </g>
   <g id="patch_79">
    <path clip-path="url(#pd141407a33)" d="M 114.010815 192.24 
L 114.885423 192.24 
L 114.885423 191.29089 
L 114.010815 191.29089 
z
" style="fill:#808080;fill-opacity:0.6;stroke:#808080;stroke-linejoin:miter;stroke-opacity:0.6;"/>
   </g>
   <g id="patch_80">
    <path clip-path="url(#pd141407a33)" d="M 114.885423 192.24 
L 115.760031 192.24 
L 115.760031 192.031988 
L 114.885423 192.031988 
z
" style="fill:#808080;fill-opacity:0.6;stroke:#808080;stroke-linejoin:miter;stroke-opacity:0.6;"/>
   </g>
   <g id="patch_81">
    <path clip-path="url(#pd141407a33)" d="M 115.760031 192.24 
L 116.634639 192.24 
L 116.634639 191.959761 
L 115.760031 191.959761 
z
" style="fill:#808080;fill-opacity:0.6;stroke:#808080;stroke-linejoin:miter;stroke-opacity:0.6;"/>
   </g>
   <g id="patch_82">
    <path clip-path="url(#pd141407a33)" d="M 116.634639 192.24 
L 117.509248 192.24 
L 117.509248 192.066428 
L 116.634639 192.066428 
z
" style="fill:#808080;fill-opacity:0.6;stroke:#808080;stroke-linejoin:miter;stroke-opacity:0.6;"/>
   </g>
   <g id="patch_83">
    <path clip-path="url(#pd141407a33)" d="M 117.509248 192.24 
L 118.383856 192.24 
L 118.383856 192.003563 
L 117.509248 192.003563 
z
" style="fill:#808080;fill-opacity:0.6;stroke:#808080;stroke-linejoin:miter;stroke-opacity:0.6;"/>
   </g>
   <g id="patch_84">
    <path clip-path="url(#pd141407a33)" d="M 118.383856 192.24 
L 119.258464 192.24 
L 119.258464 192.089964 
L 118.383856 192.089964 
z
" style="fill:#808080;fill-opacity:0.6;stroke:#808080;stroke-linejoin:miter;stroke-opacity:0.6;"/>
   </g>
   <g id="patch_85">
    <path clip-path="url(#pd141407a33)" d="M 119.258464 192.24 
L 120.133072 192.24 
L 120.133072 192.099295 
L 119.258464 192.099295 
z
" style="fill:#808080;fill-opacity:0.6;stroke:#808080;stroke-linejoin:miter;stroke-opacity:0.6;"/>
   </g>
   <g id="patch_86">
    <path clip-path="url(#pd141407a33)" d="M 120.133072 192.24 
L 121.00768 192.24 
L 121.00768 192.091922 
L 120.133072 192.091922 
z
" style="fill:#808080;fill-opacity:0.6;stroke:#808080;stroke-linejoin:miter;stroke-opacity:0.6;"/>
   </g>
   <g id="patch_87">
    <path clip-path="url(#pd141407a33)" d="M 121.00768 192.24 
L 121.882288 192.24 
L 121.882288 192.020205 
L 121.00768 192.020205 
z
" style="fill:#808080;fill-opacity:0.6;stroke:#808080;stroke-linejoin:miter;stroke-opacity:0.6;"/>
   </g>
   <g id="patch_88">
    <path clip-path="url(#pd141407a33)" d="M 121.882288 192.24 
L 122.756897 192.24 
L 122.756897 192.032235 
L 121.882288 192.032235 
z
" style="fill:#808080;fill-opacity:0.6;stroke:#808080;stroke-linejoin:miter;stroke-opacity:0.6;"/>
   </g>
   <g id="patch_89">
    <path clip-path="url(#pd141407a33)" d="M 122.756897 192.24 
L 123.631505 192.24 
L 123.631505 191.974938 
L 122.756897 191.974938 
z
" style="fill:#808080;fill-opacity:0.6;stroke:#808080;stroke-linejoin:miter;stroke-opacity:0.6;"/>
   </g>
   <g id="patch_90">
    <path clip-path="url(#pd141407a33)" d="M 123.631505 192.24 
L 124.506113 192.24 
L 124.506113 192.021994 
L 123.631505 192.021994 
z
" style="fill:#808080;fill-opacity:0.6;stroke:#808080;stroke-linejoin:miter;stroke-opacity:0.6;"/>
   </g>
   <g id="patch_91">
    <path clip-path="url(#pd141407a33)" d="M 124.506113 192.24 
L 125.380721 192.24 
L 125.380721 191.955427 
L 124.506113 191.955427 
z
" style="fill:#808080;fill-opacity:0.6;stroke:#808080;stroke-linejoin:miter;stroke-opacity:0.6;"/>
   </g>
   <g id="patch_92">
    <path clip-path="url(#pd141407a33)" d="M 125.380721 192.24 
L 126.255329 192.24 
L 126.255329 192.055339 
L 125.380721 192.055339 
z
" style="fill:#808080;fill-opacity:0.6;stroke:#808080;stroke-linejoin:miter;stroke-opacity:0.6;"/>
   </g>
   <g id="patch_93">
    <path clip-path="url(#pd141407a33)" d="M 126.255329 192.24 
L 127.129937 192.24 
L 127.129937 191.977683 
L 126.255329 191.977683 
z
" style="fill:#808080;fill-opacity:0.6;stroke:#808080;stroke-linejoin:miter;stroke-opacity:0.6;"/>
   </g>
   <g id="patch_94">
    <path clip-path="url(#pd141407a33)" d="M 127.129937 192.24 
L 128.004545 192.24 
L 128.004545 192.026158 
L 127.129937 192.026158 
z
" style="fill:#808080;fill-opacity:0.6;stroke:#808080;stroke-linejoin:miter;stroke-opacity:0.6;"/>
   </g>
   <g id="patch_95">
    <path clip-path="url(#pd141407a33)" d="M 128.004545 192.24 
L 128.879154 192.24 
L 128.879154 191.972886 
L 128.004545 191.972886 
z
" style="fill:#808080;fill-opacity:0.6;stroke:#808080;stroke-linejoin:miter;stroke-opacity:0.6;"/>
   </g>
   <g id="patch_96">
    <path clip-path="url(#pd141407a33)" d="M 128.879154 192.24 
L 129.753762 192.24 
L 129.753762 192.019665 
L 128.879154 192.019665 
z
" style="fill:#808080;fill-opacity:0.6;stroke:#808080;stroke-linejoin:miter;stroke-opacity:0.6;"/>
   </g>
   <g id="patch_97">
    <path clip-path="url(#pd141407a33)" d="M 129.753762 192.24 
L 130.62837 192.24 
L 130.62837 190.630964 
L 129.753762 190.630964 
z
" style="fill:#808080;fill-opacity:0.6;stroke:#808080;stroke-linejoin:miter;stroke-opacity:0.6;"/>
   </g>
   <g id="patch_98">
    <path clip-path="url(#pd141407a33)" d="M 130.62837 192.24 
L 131.502978 192.24 
L 131.502978 191.729586 
L 130.62837 191.729586 
z
" style="fill:#808080;fill-opacity:0.6;stroke:#808080;stroke-linejoin:miter;stroke-opacity:0.6;"/>
   </g>
   <g id="patch_99">
    <path clip-path="url(#pd141407a33)" d="M 131.502978 192.24 
L 132.377586 192.24 
L 132.377586 191.886733 
L 131.502978 191.886733 
z
" style="fill:#808080;fill-opacity:0.6;stroke:#808080;stroke-linejoin:miter;stroke-opacity:0.6;"/>
   </g>
   <g id="patch_100">
    <path clip-path="url(#pd141407a33)" d="M 132.377586 192.24 
L 133.252194 192.24 
L 133.252194 191.929285 
L 132.377586 191.929285 
z
" style="fill:#808080;fill-opacity:0.6;stroke:#808080;stroke-linejoin:miter;stroke-opacity:0.6;"/>
   </g>
   <g id="patch_101">
    <path clip-path="url(#pd141407a33)" d="M 133.252194 192.24 
L 134.126803 192.24 
L 134.126803 191.435945 
L 133.252194 191.435945 
z
" style="fill:#808080;fill-opacity:0.6;stroke:#808080;stroke-linejoin:miter;stroke-opacity:0.6;"/>
   </g>
   <g id="patch_102">
    <path clip-path="url(#pd141407a33)" d="M 134.126803 192.24 
L 135.001411 192.24 
L 135.001411 190.828766 
L 134.126803 190.828766 
z
" style="fill:#808080;fill-opacity:0.6;stroke:#808080;stroke-linejoin:miter;stroke-opacity:0.6;"/>
   </g>
   <g id="patch_103">
    <path clip-path="url(#pd141407a33)" d="M 135.001411 192.24 
L 135.876019 192.24 
L 135.876019 191.909837 
L 135.001411 191.909837 
z
" style="fill:#808080;fill-opacity:0.6;stroke:#808080;stroke-linejoin:miter;stroke-opacity:0.6;"/>
   </g>
   <g id="patch_104">
    <path clip-path="url(#pd141407a33)" d="M 135.876019 192.24 
L 136.750627 192.24 
L 136.750627 191.852216 
L 135.876019 191.852216 
z
" style="fill:#808080;fill-opacity:0.6;stroke:#808080;stroke-linejoin:miter;stroke-opacity:0.6;"/>
   </g>
   <g id="patch_105">
    <path clip-path="url(#pd141407a33)" d="M 136.750627 192.24 
L 137.625235 192.24 
L 137.625235 190.588967 
L 136.750627 190.588967 
z
" style="fill:#808080;fill-opacity:0.6;stroke:#808080;stroke-linejoin:miter;stroke-opacity:0.6;"/>
   </g>
   <g id="patch_106">
    <path clip-path="url(#pd141407a33)" d="M 137.625235 192.24 
L 138.499843 192.24 
L 138.499843 191.660367 
L 137.625235 191.660367 
z
" style="fill:#808080;fill-opacity:0.6;stroke:#808080;stroke-linejoin:miter;stroke-opacity:0.6;"/>
   </g>
   <g id="patch_107">
    <path clip-path="url(#pd141407a33)" d="M 138.499843 192.24 
L 139.374451 192.24 
L 139.374451 191.849316 
L 138.499843 191.849316 
z
" style="fill:#808080;fill-opacity:0.6;stroke:#808080;stroke-linejoin:miter;stroke-opacity:0.6;"/>
   </g>
   <g id="patch_108">
    <path clip-path="url(#pd141407a33)" d="M 139.374451 192.24 
L 140.24906 192.24 
L 140.24906 191.905271 
L 139.374451 191.905271 
z
" style="fill:#808080;fill-opacity:0.6;stroke:#808080;stroke-linejoin:miter;stroke-opacity:0.6;"/>
   </g>
   <g id="patch_109">
    <path clip-path="url(#pd141407a33)" d="M 140.24906 192.24 
L 141.123668 192.24 
L 141.123668 191.522623 
L 140.24906 191.522623 
z
" style="fill:#808080;fill-opacity:0.6;stroke:#808080;stroke-linejoin:miter;stroke-opacity:0.6;"/>
   </g>
   <g id="patch_110">
    <path clip-path="url(#pd141407a33)" d="M 141.123668 192.24 
L 141.998276 192.24 
L 141.998276 191.635968 
L 141.123668 191.635968 
z
" style="fill:#808080;fill-opacity:0.6;stroke:#808080;stroke-linejoin:miter;stroke-opacity:0.6;"/>
   </g>
   <g id="patch_111">
    <path clip-path="url(#pd141407a33)" d="M 141.998276 192.24 
L 142.872884 192.24 
L 142.872884 189.612311 
L 141.998276 189.612311 
z
" style="fill:#808080;fill-opacity:0.6;stroke:#808080;stroke-linejoin:miter;stroke-opacity:0.6;"/>
   </g>
   <g id="patch_112">
    <path clip-path="url(#pd141407a33)" d="M 142.872884 192.24 
L 143.747492 192.24 
L 143.747492 191.732625 
L 142.872884 191.732625 
z
" style="fill:#808080;fill-opacity:0.6;stroke:#808080;stroke-linejoin:miter;stroke-opacity:0.6;"/>
   </g>
   <g id="patch_113">
    <path clip-path="url(#pd141407a33)" d="M 143.747492 192.24 
L 144.6221 192.24 
L 144.6221 191.710847 
L 143.747492 191.710847 
z
" style="fill:#808080;fill-opacity:0.6;stroke:#808080;stroke-linejoin:miter;stroke-opacity:0.6;"/>
   </g>
   <g id="patch_114">
    <path clip-path="url(#pd141407a33)" d="M 144.6221 192.24 
L 145.496708 192.24 
L 145.496708 191.207451 
L 144.6221 191.207451 
z
" style="fill:#808080;fill-opacity:0.6;stroke:#808080;stroke-linejoin:miter;stroke-opacity:0.6;"/>
   </g>
   <g id="patch_115">
    <path clip-path="url(#pd141407a33)" d="M 145.496708 192.24 
L 146.371317 192.24 
L 146.371317 191.745302 
L 145.496708 191.745302 
z
" style="fill:#808080;fill-opacity:0.6;stroke:#808080;stroke-linejoin:miter;stroke-opacity:0.6;"/>
   </g>
   <g id="patch_116">
    <path clip-path="url(#pd141407a33)" d="M 146.371317 192.24 
L 147.245925 192.24 
L 147.245925 191.893719 
L 146.371317 191.893719 
z
" style="fill:#808080;fill-opacity:0.6;stroke:#808080;stroke-linejoin:miter;stroke-opacity:0.6;"/>
   </g>
   <g id="patch_117">
    <path clip-path="url(#pd141407a33)" d="M 147.245925 192.24 
L 148.120533 192.24 
L 148.120533 191.617306 
L 147.245925 191.617306 
z
" style="fill:#808080;fill-opacity:0.6;stroke:#808080;stroke-linejoin:miter;stroke-opacity:0.6;"/>
   </g>
   <g id="patch_118">
    <path clip-path="url(#pd141407a33)" d="M 148.120533 192.24 
L 148.995141 192.24 
L 148.995141 191.373018 
L 148.120533 191.373018 
z
" style="fill:#808080;fill-opacity:0.6;stroke:#808080;stroke-linejoin:miter;stroke-opacity:0.6;"/>
   </g>
   <g id="patch_119">
    <path clip-path="url(#pd141407a33)" d="M 148.995141 192.24 
L 149.869749 192.24 
L 149.869749 191.064386 
L 148.995141 191.064386 
z
" style="fill:#808080;fill-opacity:0.6;stroke:#808080;stroke-linejoin:miter;stroke-opacity:0.6;"/>
   </g>
   <g id="patch_120">
    <path clip-path="url(#pd141407a33)" d="M 149.869749 192.24 
L 150.744357 192.24 
L 150.744357 190.358607 
L 149.869749 190.358607 
z
" style="fill:#808080;fill-opacity:0.6;stroke:#808080;stroke-linejoin:miter;stroke-opacity:0.6;"/>
   </g>
   <g id="patch_121">
    <path clip-path="url(#pd141407a33)" d="M 150.744357 192.24 
L 151.618966 192.24 
L 151.618966 190.337369 
L 150.744357 190.337369 
z
" style="fill:#808080;fill-opacity:0.6;stroke:#808080;stroke-linejoin:miter;stroke-opacity:0.6;"/>
   </g>
   <g id="patch_122">
    <path clip-path="url(#pd141407a33)" d="M 151.618966 192.24 
L 152.493574 192.24 
L 152.493574 191.797032 
L 151.618966 191.797032 
z
" style="fill:#808080;fill-opacity:0.6;stroke:#808080;stroke-linejoin:miter;stroke-opacity:0.6;"/>
   </g>
   <g id="patch_123">
    <path clip-path="url(#pd141407a33)" d="M 152.493574 192.24 
L 153.368182 192.24 
L 153.368182 190.340808 
L 152.493574 190.340808 
z
" style="fill:#808080;fill-opacity:0.6;stroke:#808080;stroke-linejoin:miter;stroke-opacity:0.6;"/>
   </g>
   <g id="patch_124">
    <path clip-path="url(#pd141407a33)" d="M 153.368182 192.24 
L 154.24279 192.24 
L 154.24279 191.838397 
L 153.368182 191.838397 
z
" style="fill:#808080;fill-opacity:0.6;stroke:#808080;stroke-linejoin:miter;stroke-opacity:0.6;"/>
   </g>
   <g id="patch_125">
    <path clip-path="url(#pd141407a33)" d="M 154.24279 192.24 
L 155.117398 192.24 
L 155.117398 191.453697 
L 154.24279 191.453697 
z
" style="fill:#808080;fill-opacity:0.6;stroke:#808080;stroke-linejoin:miter;stroke-opacity:0.6;"/>
   </g>
   <g id="patch_126">
    <path clip-path="url(#pd141407a33)" d="M 155.117398 192.24 
L 155.992006 192.24 
L 155.992006 191.818547 
L 155.117398 191.818547 
z
" style="fill:#808080;fill-opacity:0.6;stroke:#808080;stroke-linejoin:miter;stroke-opacity:0.6;"/>
   </g>
   <g id="patch_127">
    <path clip-path="url(#pd141407a33)" d="M 155.992006 192.24 
L 156.866614 192.24 
L 156.866614 191.609162 
L 155.992006 191.609162 
z
" style="fill:#808080;fill-opacity:0.6;stroke:#808080;stroke-linejoin:miter;stroke-opacity:0.6;"/>
   </g>
   <g id="patch_128">
    <path clip-path="url(#pd141407a33)" d="M 156.866614 192.24 
L 157.741223 192.24 
L 157.741223 189.538434 
L 156.866614 189.538434 
z
" style="fill:#808080;fill-opacity:0.6;stroke:#808080;stroke-linejoin:miter;stroke-opacity:0.6;"/>
   </g>
   <g id="patch_129">
    <path clip-path="url(#pd141407a33)" d="M 157.741223 192.24 
L 158.615831 192.24 
L 158.615831 191.729555 
L 157.741223 191.729555 
z
" style="fill:#808080;fill-opacity:0.6;stroke:#808080;stroke-linejoin:miter;stroke-opacity:0.6;"/>
   </g>
   <g id="patch_130">
    <path clip-path="url(#pd141407a33)" d="M 158.615831 192.24 
L 159.490439 192.24 
L 159.490439 190.971692 
L 158.615831 190.971692 
z
" style="fill:#808080;fill-opacity:0.6;stroke:#808080;stroke-linejoin:miter;stroke-opacity:0.6;"/>
   </g>
   <g id="patch_131">
    <path clip-path="url(#pd141407a33)" d="M 159.490439 192.24 
L 160.365047 192.24 
L 160.365047 191.322708 
L 159.490439 191.322708 
z
" style="fill:#808080;fill-opacity:0.6;stroke:#808080;stroke-linejoin:miter;stroke-opacity:0.6;"/>
   </g>
   <g id="patch_132">
    <path clip-path="url(#pd141407a33)" d="M 160.365047 192.24 
L 161.239655 192.24 
L 161.239655 191.722337 
L 160.365047 191.722337 
z
" style="fill:#808080;fill-opacity:0.6;stroke:#808080;stroke-linejoin:miter;stroke-opacity:0.6;"/>
   </g>
   <g id="patch_133">
    <path clip-path="url(#pd141407a33)" d="M 161.239655 192.24 
L 162.114263 192.24 
L 162.114263 191.565253 
L 161.239655 191.565253 
z
" style="fill:#808080;fill-opacity:0.6;stroke:#808080;stroke-linejoin:miter;stroke-opacity:0.6;"/>
   </g>
   <g id="patch_134">
    <path clip-path="url(#pd141407a33)" d="M 162.114263 192.24 
L 162.988871 192.24 
L 162.988871 190.299644 
L 162.114263 190.299644 
z
" style="fill:#808080;fill-opacity:0.6;stroke:#808080;stroke-linejoin:miter;stroke-opacity:0.6;"/>
   </g>
   <g id="patch_135">
    <path clip-path="url(#pd141407a33)" d="M 162.988871 192.24 
L 163.86348 192.24 
L 163.86348 190.654515 
L 162.988871 190.654515 
z
" style="fill:#808080;fill-opacity:0.6;stroke:#808080;stroke-linejoin:miter;stroke-opacity:0.6;"/>
   </g>
   <g id="patch_136">
    <path clip-path="url(#pd141407a33)" d="M 163.86348 192.24 
L 164.738088 192.24 
L 164.738088 190.24736 
L 163.86348 190.24736 
z
" style="fill:#808080;fill-opacity:0.6;stroke:#808080;stroke-linejoin:miter;stroke-opacity:0.6;"/>
   </g>
   <g id="patch_137">
    <path clip-path="url(#pd141407a33)" d="M 164.738088 192.24 
L 165.612696 192.24 
L 165.612696 190.860707 
L 164.738088 190.860707 
z
" style="fill:#808080;fill-opacity:0.6;stroke:#808080;stroke-linejoin:miter;stroke-opacity:0.6;"/>
   </g>
   <g id="patch_138">
    <path clip-path="url(#pd141407a33)" d="M 165.612696 192.24 
L 166.487304 192.24 
L 166.487304 191.149953 
L 165.612696 191.149953 
z
" style="fill:#808080;fill-opacity:0.6;stroke:#808080;stroke-linejoin:miter;stroke-opacity:0.6;"/>
   </g>
   <g id="patch_139">
    <path clip-path="url(#pd141407a33)" d="M 166.487304 192.24 
L 167.361912 192.24 
L 167.361912 190.457377 
L 166.487304 190.457377 
z
" style="fill:#808080;fill-opacity:0.6;stroke:#808080;stroke-linejoin:miter;stroke-opacity:0.6;"/>
   </g>
   <g id="patch_140">
    <path clip-path="url(#pd141407a33)" d="M 167.361912 192.24 
L 168.23652 192.24 
L 168.23652 188.537148 
L 167.361912 188.537148 
z
" style="fill:#808080;fill-opacity:0.6;stroke:#808080;stroke-linejoin:miter;stroke-opacity:0.6;"/>
   </g>
   <g id="patch_141">
    <path clip-path="url(#pd141407a33)" d="M 168.23652 192.24 
L 169.111129 192.24 
L 169.111129 189.727121 
L 168.23652 189.727121 
z
" style="fill:#808080;fill-opacity:0.6;stroke:#808080;stroke-linejoin:miter;stroke-opacity:0.6;"/>
   </g>
   <g id="patch_142">
    <path clip-path="url(#pd141407a33)" d="M 169.111129 192.24 
L 169.985737 192.24 
L 169.985737 190.460446 
L 169.111129 190.460446 
z
" style="fill:#808080;fill-opacity:0.6;stroke:#808080;stroke-linejoin:miter;stroke-opacity:0.6;"/>
   </g>
   <g id="patch_143">
    <path clip-path="url(#pd141407a33)" d="M 169.985737 192.24 
L 170.860345 192.24 
L 170.860345 191.53146 
L 169.985737 191.53146 
z
" style="fill:#808080;fill-opacity:0.6;stroke:#808080;stroke-linejoin:miter;stroke-opacity:0.6;"/>
   </g>
   <g id="patch_144">
    <path clip-path="url(#pd141407a33)" d="M 170.860345 192.24 
L 171.734953 192.24 
L 171.734953 191.436454 
L 170.860345 191.436454 
z
" style="fill:#808080;fill-opacity:0.6;stroke:#808080;stroke-linejoin:miter;stroke-opacity:0.6;"/>
   </g>
   <g id="patch_145">
    <path clip-path="url(#pd141407a33)" d="M 171.734953 192.24 
L 172.609561 192.24 
L 172.609561 190.106963 
L 171.734953 190.106963 
z
" style="fill:#808080;fill-opacity:0.6;stroke:#808080;stroke-linejoin:miter;stroke-opacity:0.6;"/>
   </g>
   <g id="patch_146">
    <path clip-path="url(#pd141407a33)" d="M 172.609561 192.24 
L 173.484169 192.24 
L 173.484169 190.915167 
L 172.609561 190.915167 
z
" style="fill:#808080;fill-opacity:0.6;stroke:#808080;stroke-linejoin:miter;stroke-opacity:0.6;"/>
   </g>
   <g id="patch_147">
    <path clip-path="url(#pd141407a33)" d="M 173.484169 192.24 
L 174.358777 192.24 
L 174.358777 189.930738 
L 173.484169 189.930738 
z
" style="fill:#808080;fill-opacity:0.6;stroke:#808080;stroke-linejoin:miter;stroke-opacity:0.6;"/>
   </g>
   <g id="patch_148">
    <path clip-path="url(#pd141407a33)" d="M 174.358777 192.24 
L 175.233386 192.24 
L 175.233386 191.220098 
L 174.358777 191.220098 
z
" style="fill:#808080;fill-opacity:0.6;stroke:#808080;stroke-linejoin:miter;stroke-opacity:0.6;"/>
   </g>
   <g id="patch_149">
    <path clip-path="url(#pd141407a33)" d="M 175.233386 192.24 
L 176.107994 192.24 
L 176.107994 191.309845 
L 175.233386 191.309845 
z
" style="fill:#808080;fill-opacity:0.6;stroke:#808080;stroke-linejoin:miter;stroke-opacity:0.6;"/>
   </g>
   <g id="patch_150">
    <path clip-path="url(#pd141407a33)" d="M 176.107994 192.24 
L 176.982602 192.24 
L 176.982602 190.00901 
L 176.107994 190.00901 
z
" style="fill:#808080;fill-opacity:0.6;stroke:#808080;stroke-linejoin:miter;stroke-opacity:0.6;"/>
   </g>
   <g id="patch_151">
    <path clip-path="url(#pd141407a33)" d="M 176.982602 192.24 
L 177.85721 192.24 
L 177.85721 191.361482 
L 176.982602 191.361482 
z
" style="fill:#808080;fill-opacity:0.6;stroke:#808080;stroke-linejoin:miter;stroke-opacity:0.6;"/>
   </g>
   <g id="patch_152">
    <path clip-path="url(#pd141407a33)" d="M 177.85721 192.24 
L 178.731818 192.24 
L 178.731818 188.156397 
L 177.85721 188.156397 
z
" style="fill:#808080;fill-opacity:0.6;stroke:#808080;stroke-linejoin:miter;stroke-opacity:0.6;"/>
   </g>
   <g id="patch_153">
    <path clip-path="url(#pd141407a33)" d="M 178.731818 192.24 
L 179.606426 192.24 
L 179.606426 191.25042 
L 178.731818 191.25042 
z
" style="fill:#808080;fill-opacity:0.6;stroke:#808080;stroke-linejoin:miter;stroke-opacity:0.6;"/>
   </g>
   <g id="patch_154">
    <path clip-path="url(#pd141407a33)" d="M 179.606426 192.24 
L 180.481034 192.24 
L 180.481034 191.124844 
L 179.606426 191.124844 
z
" style="fill:#808080;fill-opacity:0.6;stroke:#808080;stroke-linejoin:miter;stroke-opacity:0.6;"/>
   </g>
   <g id="patch_155">
    <path clip-path="url(#pd141407a33)" d="M 180.481034 192.24 
L 181.355643 192.24 
L 181.355643 191.248214 
L 180.481034 191.248214 
z
" style="fill:#808080;fill-opacity:0.6;stroke:#808080;stroke-linejoin:miter;stroke-opacity:0.6;"/>
   </g>
   <g id="patch_156">
    <path clip-path="url(#pd141407a33)" d="M 181.355643 192.24 
L 182.230251 192.24 
L 182.230251 189.835839 
L 181.355643 189.835839 
z
" style="fill:#808080;fill-opacity:0.6;stroke:#808080;stroke-linejoin:miter;stroke-opacity:0.6;"/>
   </g>
   <g id="patch_157">
    <path clip-path="url(#pd141407a33)" d="M 182.230251 192.24 
L 183.104859 192.24 
L 183.104859 190.775865 
L 182.230251 190.775865 
z
" style="fill:#808080;fill-opacity:0.6;stroke:#808080;stroke-linejoin:miter;stroke-opacity:0.6;"/>
   </g>
   <g id="patch_158">
    <path clip-path="url(#pd141407a33)" d="M 183.104859 192.24 
L 183.979467 192.24 
L 183.979467 190.507101 
L 183.104859 190.507101 
z
" style="fill:#808080;fill-opacity:0.6;stroke:#808080;stroke-linejoin:miter;stroke-opacity:0.6;"/>
   </g>
   <g id="patch_159">
    <path clip-path="url(#pd141407a33)" d="M 183.979467 192.24 
L 184.854075 192.24 
L 184.854075 191.135039 
L 183.979467 191.135039 
z
" style="fill:#808080;fill-opacity:0.6;stroke:#808080;stroke-linejoin:miter;stroke-opacity:0.6;"/>
   </g>
   <g id="patch_160">
    <path clip-path="url(#pd141407a33)" d="M 184.854075 192.24 
L 185.728683 192.24 
L 185.728683 190.390486 
L 184.854075 190.390486 
z
" style="fill:#808080;fill-opacity:0.6;stroke:#808080;stroke-linejoin:miter;stroke-opacity:0.6;"/>
   </g>
   <g id="patch_161">
    <path clip-path="url(#pd141407a33)" d="M 185.728683 192.24 
L 186.603292 192.24 
L 186.603292 188.707373 
L 185.728683 188.707373 
z
" style="fill:#808080;fill-opacity:0.6;stroke:#808080;stroke-linejoin:miter;stroke-opacity:0.6;"/>
   </g>
   <g id="patch_162">
    <path clip-path="url(#pd141407a33)" d="M 186.603292 192.24 
L 187.4779 192.24 
L 187.4779 189.237236 
L 186.603292 189.237236 
z
" style="fill:#808080;fill-opacity:0.6;stroke:#808080;stroke-linejoin:miter;stroke-opacity:0.6;"/>
   </g>
   <g id="patch_163">
    <path clip-path="url(#pd141407a33)" d="M 187.4779 192.24 
L 188.352508 192.24 
L 188.352508 190.031513 
L 187.4779 190.031513 
z
" style="fill:#808080;fill-opacity:0.6;stroke:#808080;stroke-linejoin:miter;stroke-opacity:0.6;"/>
   </g>
   <g id="patch_164">
    <path clip-path="url(#pd141407a33)" d="M 188.352508 192.24 
L 189.227116 192.24 
L 189.227116 189.903624 
L 188.352508 189.903624 
z
" style="fill:#808080;fill-opacity:0.6;stroke:#808080;stroke-linejoin:miter;stroke-opacity:0.6;"/>
   </g>
   <g id="patch_165">
    <path clip-path="url(#pd141407a33)" d="M 189.227116 192.24 
L 190.101724 192.24 
L 190.101724 189.754867 
L 189.227116 189.754867 
z
" style="fill:#808080;fill-opacity:0.6;stroke:#808080;stroke-linejoin:miter;stroke-opacity:0.6;"/>
   </g>
   <g id="patch_166">
    <path clip-path="url(#pd141407a33)" d="M 190.101724 192.24 
L 190.976332 192.24 
L 190.976332 190.605824 
L 190.101724 190.605824 
z
" style="fill:#808080;fill-opacity:0.6;stroke:#808080;stroke-linejoin:miter;stroke-opacity:0.6;"/>
   </g>
   <g id="patch_167">
    <path clip-path="url(#pd141407a33)" d="M 190.976332 192.24 
L 191.85094 192.24 
L 191.85094 190.768832 
L 190.976332 190.768832 
z
" style="fill:#808080;fill-opacity:0.6;stroke:#808080;stroke-linejoin:miter;stroke-opacity:0.6;"/>
   </g>
   <g id="patch_168">
    <path clip-path="url(#pd141407a33)" d="M 191.85094 192.24 
L 192.725549 192.24 
L 192.725549 188.952324 
L 191.85094 188.952324 
z
" style="fill:#808080;fill-opacity:0.6;stroke:#808080;stroke-linejoin:miter;stroke-opacity:0.6;"/>
   </g>
   <g id="patch_169">
    <path clip-path="url(#pd141407a33)" d="M 192.725549 192.24 
L 193.600157 192.24 
L 193.600157 189.254926 
L 192.725549 189.254926 
z
" style="fill:#808080;fill-opacity:0.6;stroke:#808080;stroke-linejoin:miter;stroke-opacity:0.6;"/>
   </g>
   <g id="patch_170">
    <path clip-path="url(#pd141407a33)" d="M 193.600157 192.24 
L 194.474765 192.24 
L 194.474765 189.9802 
L 193.600157 189.9802 
z
" style="fill:#808080;fill-opacity:0.6;stroke:#808080;stroke-linejoin:miter;stroke-opacity:0.6;"/>
   </g>
   <g id="patch_171">
    <path clip-path="url(#pd141407a33)" d="M 194.474765 192.24 
L 195.349373 192.24 
L 195.349373 188.92066 
L 194.474765 188.92066 
z
" style="fill:#808080;fill-opacity:0.6;stroke:#808080;stroke-linejoin:miter;stroke-opacity:0.6;"/>
   </g>
   <g id="patch_172">
    <path clip-path="url(#pd141407a33)" d="M 195.349373 192.24 
L 196.223981 192.24 
L 196.223981 189.205017 
L 195.349373 189.205017 
z
" style="fill:#808080;fill-opacity:0.6;stroke:#808080;stroke-linejoin:miter;stroke-opacity:0.6;"/>
   </g>
   <g id="patch_173">
    <path clip-path="url(#pd141407a33)" d="M 196.223981 192.24 
L 197.098589 192.24 
L 197.098589 188.033166 
L 196.223981 188.033166 
z
" style="fill:#808080;fill-opacity:0.6;stroke:#808080;stroke-linejoin:miter;stroke-opacity:0.6;"/>
   </g>
   <g id="patch_174">
    <path clip-path="url(#pd141407a33)" d="M 197.098589 192.24 
L 197.973197 192.24 
L 197.973197 189.997535 
L 197.098589 189.997535 
z
" style="fill:#808080;fill-opacity:0.6;stroke:#808080;stroke-linejoin:miter;stroke-opacity:0.6;"/>
   </g>
   <g id="patch_175">
    <path clip-path="url(#pd141407a33)" d="M 197.973197 192.24 
L 198.847806 192.24 
L 198.847806 189.798284 
L 197.973197 189.798284 
z
" style="fill:#808080;fill-opacity:0.6;stroke:#808080;stroke-linejoin:miter;stroke-opacity:0.6;"/>
   </g>
   <g id="patch_176">
    <path clip-path="url(#pd141407a33)" d="M 198.847806 192.24 
L 199.722414 192.24 
L 199.722414 188.993318 
L 198.847806 188.993318 
z
" style="fill:#808080;fill-opacity:0.6;stroke:#808080;stroke-linejoin:miter;stroke-opacity:0.6;"/>
   </g>
   <g id="patch_177">
    <path clip-path="url(#pd141407a33)" d="M 199.722414 192.24 
L 200.597022 192.24 
L 200.597022 189.772882 
L 199.722414 189.772882 
z
" style="fill:#808080;fill-opacity:0.6;stroke:#808080;stroke-linejoin:miter;stroke-opacity:0.6;"/>
   </g>
   <g id="patch_178">
    <path clip-path="url(#pd141407a33)" d="M 200.597022 192.24 
L 201.47163 192.24 
L 201.47163 188.445611 
L 200.597022 188.445611 
z
" style="fill:#808080;fill-opacity:0.6;stroke:#808080;stroke-linejoin:miter;stroke-opacity:0.6;"/>
   </g>
   <g id="patch_179">
    <path clip-path="url(#pd141407a33)" d="M 201.47163 192.24 
L 202.346238 192.24 
L 202.346238 189.437783 
L 201.47163 189.437783 
z
" style="fill:#808080;fill-opacity:0.6;stroke:#808080;stroke-linejoin:miter;stroke-opacity:0.6;"/>
   </g>
   <g id="patch_180">
    <path clip-path="url(#pd141407a33)" d="M 202.346238 192.24 
L 203.220846 192.24 
L 203.220846 186.953098 
L 202.346238 186.953098 
z
" style="fill:#808080;fill-opacity:0.6;stroke:#808080;stroke-linejoin:miter;stroke-opacity:0.6;"/>
   </g>
   <g id="patch_181">
    <path clip-path="url(#pd141407a33)" d="M 203.220846 192.24 
L 204.095455 192.24 
L 204.095455 189.35712 
L 203.220846 189.35712 
z
" style="fill:#808080;fill-opacity:0.6;stroke:#808080;stroke-linejoin:miter;stroke-opacity:0.6;"/>
   </g>
   <g id="patch_182">
    <path clip-path="url(#pd141407a33)" d="M 204.095455 192.24 
L 204.970063 192.24 
L 204.970063 188.461867 
L 204.095455 188.461867 
z
" style="fill:#808080;fill-opacity:0.6;stroke:#808080;stroke-linejoin:miter;stroke-opacity:0.6;"/>
   </g>
   <g id="patch_183">
    <path clip-path="url(#pd141407a33)" d="M 204.970063 192.24 
L 205.844671 192.24 
L 205.844671 189.202025 
L 204.970063 189.202025 
z
" style="fill:#808080;fill-opacity:0.6;stroke:#808080;stroke-linejoin:miter;stroke-opacity:0.6;"/>
   </g>
   <g id="patch_184">
    <path clip-path="url(#pd141407a33)" d="M 205.844671 192.24 
L 206.719279 192.24 
L 206.719279 186.489879 
L 205.844671 186.489879 
z
" style="fill:#808080;fill-opacity:0.6;stroke:#808080;stroke-linejoin:miter;stroke-opacity:0.6;"/>
   </g>
   <g id="patch_185">
    <path clip-path="url(#pd141407a33)" d="M 206.719279 192.24 
L 207.593887 192.24 
L 207.593887 187.626796 
L 206.719279 187.626796 
z
" style="fill:#808080;fill-opacity:0.6;stroke:#808080;stroke-linejoin:miter;stroke-opacity:0.6;"/>
   </g>
   <g id="patch_186">
    <path clip-path="url(#pd141407a33)" d="M 207.593887 192.24 
L 208.468495 192.24 
L 208.468495 187.029982 
L 207.593887 187.029982 
z
" style="fill:#808080;fill-opacity:0.6;stroke:#808080;stroke-linejoin:miter;stroke-opacity:0.6;"/>
   </g>
   <g id="patch_187">
    <path clip-path="url(#pd141407a33)" d="M 208.468495 192.24 
L 209.343103 192.24 
L 209.343103 187.706133 
L 208.468495 187.706133 
z
" style="fill:#808080;fill-opacity:0.6;stroke:#808080;stroke-linejoin:miter;stroke-opacity:0.6;"/>
   </g>
   <g id="patch_188">
    <path clip-path="url(#pd141407a33)" d="M 209.343103 192.24 
L 210.217712 192.24 
L 210.217712 189.045341 
L 209.343103 189.045341 
z
" style="fill:#808080;fill-opacity:0.6;stroke:#808080;stroke-linejoin:miter;stroke-opacity:0.6;"/>
   </g>
   <g id="patch_189">
    <path clip-path="url(#pd141407a33)" d="M 210.217712 192.24 
L 211.09232 192.24 
L 211.09232 187.030476 
L 210.217712 187.030476 
z
" style="fill:#808080;fill-opacity:0.6;stroke:#808080;stroke-linejoin:miter;stroke-opacity:0.6;"/>
   </g>
   <g id="patch_190">
    <path clip-path="url(#pd141407a33)" d="M 211.09232 192.24 
L 211.966928 192.24 
L 211.966928 187.876991 
L 211.09232 187.876991 
z
" style="fill:#808080;fill-opacity:0.6;stroke:#808080;stroke-linejoin:miter;stroke-opacity:0.6;"/>
   </g>
   <g id="patch_191">
    <path clip-path="url(#pd141407a33)" d="M 211.966928 192.24 
L 212.841536 192.24 
L 212.841536 187.49974 
L 211.966928 187.49974 
z
" style="fill:#808080;fill-opacity:0.6;stroke:#808080;stroke-linejoin:miter;stroke-opacity:0.6;"/>
   </g>
   <g id="patch_192">
    <path clip-path="url(#pd141407a33)" d="M 212.841536 192.24 
L 213.716144 192.24 
L 213.716144 187.128536 
L 212.841536 187.128536 
z
" style="fill:#808080;fill-opacity:0.6;stroke:#808080;stroke-linejoin:miter;stroke-opacity:0.6;"/>
   </g>
   <g id="patch_193">
    <path clip-path="url(#pd141407a33)" d="M 213.716144 192.24 
L 214.590752 192.24 
L 214.590752 185.385273 
L 213.716144 185.385273 
z
" style="fill:#808080;fill-opacity:0.6;stroke:#808080;stroke-linejoin:miter;stroke-opacity:0.6;"/>
   </g>
   <g id="patch_194">
    <path clip-path="url(#pd141407a33)" d="M 214.590752 192.24 
L 215.465361 192.24 
L 215.465361 186.526555 
L 214.590752 186.526555 
z
" style="fill:#808080;fill-opacity:0.6;stroke:#808080;stroke-linejoin:miter;stroke-opacity:0.6;"/>
   </g>
   <g id="patch_195">
    <path clip-path="url(#pd141407a33)" d="M 215.465361 192.24 
L 216.339969 192.24 
L 216.339969 186.372802 
L 215.465361 186.372802 
z
" style="fill:#808080;fill-opacity:0.6;stroke:#808080;stroke-linejoin:miter;stroke-opacity:0.6;"/>
   </g>
   <g id="patch_196">
    <path clip-path="url(#pd141407a33)" d="M 216.339969 192.24 
L 217.214577 192.24 
L 217.214577 188.202527 
L 216.339969 188.202527 
z
" style="fill:#808080;fill-opacity:0.6;stroke:#808080;stroke-linejoin:miter;stroke-opacity:0.6;"/>
   </g>
   <g id="patch_197">
    <path clip-path="url(#pd141407a33)" d="M 217.214577 192.24 
L 218.089185 192.24 
L 218.089185 186.933942 
L 217.214577 186.933942 
z
" style="fill:#808080;fill-opacity:0.6;stroke:#808080;stroke-linejoin:miter;stroke-opacity:0.6;"/>
   </g>
   <g id="patch_198">
    <path clip-path="url(#pd141407a33)" d="M 218.089185 192.24 
L 218.963793 192.24 
L 218.963793 185.321158 
L 218.089185 185.321158 
z
" style="fill:#808080;fill-opacity:0.6;stroke:#808080;stroke-linejoin:miter;stroke-opacity:0.6;"/>
   </g>
   <g id="patch_199">
    <path clip-path="url(#pd141407a33)" d="M 218.963793 192.24 
L 219.838401 192.24 
L 219.838401 186.503806 
L 218.963793 186.503806 
z
" style="fill:#808080;fill-opacity:0.6;stroke:#808080;stroke-linejoin:miter;stroke-opacity:0.6;"/>
   </g>
   <g id="patch_200">
    <path clip-path="url(#pd141407a33)" d="M 219.838401 192.24 
L 220.713009 192.24 
L 220.713009 186.271255 
L 219.838401 186.271255 
z
" style="fill:#808080;fill-opacity:0.6;stroke:#808080;stroke-linejoin:miter;stroke-opacity:0.6;"/>
   </g>
   <g id="patch_201">
    <path clip-path="url(#pd141407a33)" d="M 220.713009 192.24 
L 221.587618 192.24 
L 221.587618 185.906853 
L 220.713009 185.906853 
z
" style="fill:#808080;fill-opacity:0.6;stroke:#808080;stroke-linejoin:miter;stroke-opacity:0.6;"/>
   </g>
   <g id="patch_202">
    <path clip-path="url(#pd141407a33)" d="M 221.587618 192.24 
L 222.462226 192.24 
L 222.462226 184.929272 
L 221.587618 184.929272 
z
" style="fill:#808080;fill-opacity:0.6;stroke:#808080;stroke-linejoin:miter;stroke-opacity:0.6;"/>
   </g>
   <g id="patch_203">
    <path clip-path="url(#pd141407a33)" d="M 222.462226 192.24 
L 223.336834 192.24 
L 223.336834 184.73184 
L 222.462226 184.73184 
z
" style="fill:#808080;fill-opacity:0.6;stroke:#808080;stroke-linejoin:miter;stroke-opacity:0.6;"/>
   </g>
   <g id="patch_204">
    <path clip-path="url(#pd141407a33)" d="M 223.336834 192.24 
L 224.211442 192.24 
L 224.211442 186.878095 
L 223.336834 186.878095 
z
" style="fill:#808080;fill-opacity:0.6;stroke:#808080;stroke-linejoin:miter;stroke-opacity:0.6;"/>
   </g>
   <g id="patch_205">
    <path clip-path="url(#pd141407a33)" d="M 224.211442 192.24 
L 225.08605 192.24 
L 225.08605 185.303083 
L 224.211442 185.303083 
z
" style="fill:#808080;fill-opacity:0.6;stroke:#808080;stroke-linejoin:miter;stroke-opacity:0.6;"/>
   </g>
   <g id="patch_206">
    <path clip-path="url(#pd141407a33)" d="M 225.08605 192.24 
L 225.960658 192.24 
L 225.960658 184.042579 
L 225.08605 184.042579 
z
" style="fill:#808080;fill-opacity:0.6;stroke:#808080;stroke-linejoin:miter;stroke-opacity:0.6;"/>
   </g>
   <g id="patch_207">
    <path clip-path="url(#pd141407a33)" d="M 225.960658 192.24 
L 226.835266 192.24 
L 226.835266 185.465596 
L 225.960658 185.465596 
z
" style="fill:#808080;fill-opacity:0.6;stroke:#808080;stroke-linejoin:miter;stroke-opacity:0.6;"/>
   </g>
   <g id="patch_208">
    <path clip-path="url(#pd141407a33)" d="M 226.835266 192.24 
L 227.709875 192.24 
L 227.709875 184.997257 
L 226.835266 184.997257 
z
" style="fill:#808080;fill-opacity:0.6;stroke:#808080;stroke-linejoin:miter;stroke-opacity:0.6;"/>
   </g>
   <g id="patch_209">
    <path clip-path="url(#pd141407a33)" d="M 227.709875 192.24 
L 228.584483 192.24 
L 228.584483 182.161109 
L 227.709875 182.161109 
z
" style="fill:#808080;fill-opacity:0.6;stroke:#808080;stroke-linejoin:miter;stroke-opacity:0.6;"/>
   </g>
   <g id="patch_210">
    <path clip-path="url(#pd141407a33)" d="M 228.584483 192.24 
L 229.459091 192.24 
L 229.459091 182.057003 
L 228.584483 182.057003 
z
" style="fill:#808080;fill-opacity:0.6;stroke:#808080;stroke-linejoin:miter;stroke-opacity:0.6;"/>
   </g>
   <g id="patch_211">
    <path clip-path="url(#pd141407a33)" d="M 229.459091 192.24 
L 230.333699 192.24 
L 230.333699 182.68818 
L 229.459091 182.68818 
z
" style="fill:#808080;fill-opacity:0.6;stroke:#808080;stroke-linejoin:miter;stroke-opacity:0.6;"/>
   </g>
   <g id="patch_212">
    <path clip-path="url(#pd141407a33)" d="M 230.333699 192.24 
L 231.208307 192.24 
L 231.208307 179.736805 
L 230.333699 179.736805 
z
" style="fill:#808080;fill-opacity:0.6;stroke:#808080;stroke-linejoin:miter;stroke-opacity:0.6;"/>
   </g>
   <g id="patch_213">
    <path clip-path="url(#pd141407a33)" d="M 231.208307 192.24 
L 232.082915 192.24 
L 232.082915 181.370148 
L 231.208307 181.370148 
z
" style="fill:#808080;fill-opacity:0.6;stroke:#808080;stroke-linejoin:miter;stroke-opacity:0.6;"/>
   </g>
   <g id="patch_214">
    <path clip-path="url(#pd141407a33)" d="M 232.082915 192.24 
L 232.957524 192.24 
L 232.957524 182.218853 
L 232.082915 182.218853 
z
" style="fill:#808080;fill-opacity:0.6;stroke:#808080;stroke-linejoin:miter;stroke-opacity:0.6;"/>
   </g>
   <g id="patch_215">
    <path clip-path="url(#pd141407a33)" d="M 232.957524 192.24 
L 233.832132 192.24 
L 233.832132 177.625684 
L 232.957524 177.625684 
z
" style="fill:#808080;fill-opacity:0.6;stroke:#808080;stroke-linejoin:miter;stroke-opacity:0.6;"/>
   </g>
   <g id="patch_216">
    <path clip-path="url(#pd141407a33)" d="M 233.832132 192.24 
L 234.70674 192.24 
L 234.70674 179.233208 
L 233.832132 179.233208 
z
" style="fill:#808080;fill-opacity:0.6;stroke:#808080;stroke-linejoin:miter;stroke-opacity:0.6;"/>
   </g>
   <g id="patch_217">
    <path clip-path="url(#pd141407a33)" d="M 234.70674 192.24 
L 235.581348 192.24 
L 235.581348 180.514425 
L 234.70674 180.514425 
z
" style="fill:#808080;fill-opacity:0.6;stroke:#808080;stroke-linejoin:miter;stroke-opacity:0.6;"/>
   </g>
   <g id="patch_218">
    <path clip-path="url(#pd141407a33)" d="M 235.581348 192.24 
L 236.455956 192.24 
L 236.455956 180.984847 
L 235.581348 180.984847 
z
" style="fill:#808080;fill-opacity:0.6;stroke:#808080;stroke-linejoin:miter;stroke-opacity:0.6;"/>
   </g>
   <g id="patch_219">
    <path clip-path="url(#pd141407a33)" d="M 236.455956 192.24 
L 237.330564 192.24 
L 237.330564 176.221437 
L 236.455956 176.221437 
z
" style="fill:#808080;fill-opacity:0.6;stroke:#808080;stroke-linejoin:miter;stroke-opacity:0.6;"/>
   </g>
   <g id="patch_220">
    <path clip-path="url(#pd141407a33)" d="M 237.330564 192.24 
L 238.205172 192.24 
L 238.205172 178.947649 
L 237.330564 178.947649 
z
" style="fill:#808080;fill-opacity:0.6;stroke:#808080;stroke-linejoin:miter;stroke-opacity:0.6;"/>
   </g>
   <g id="patch_221">
    <path clip-path="url(#pd141407a33)" d="M 238.205172 192.24 
L 239.079781 192.24 
L 239.079781 180.443247 
L 238.205172 180.443247 
z
" style="fill:#808080;fill-opacity:0.6;stroke:#808080;stroke-linejoin:miter;stroke-opacity:0.6;"/>
   </g>
   <g id="patch_222">
    <path clip-path="url(#pd141407a33)" d="M 239.079781 192.24 
L 239.954389 192.24 
L 239.954389 174.634194 
L 239.079781 174.634194 
z
" style="fill:#808080;fill-opacity:0.6;stroke:#808080;stroke-linejoin:miter;stroke-opacity:0.6;"/>
   </g>
   <g id="patch_223">
    <path clip-path="url(#pd141407a33)" d="M 239.954389 192.24 
L 240.828997 192.24 
L 240.828997 174.973688 
L 239.954389 174.973688 
z
" style="fill:#808080;fill-opacity:0.6;stroke:#808080;stroke-linejoin:miter;stroke-opacity:0.6;"/>
   </g>
   <g id="patch_224">
    <path clip-path="url(#pd141407a33)" d="M 240.828997 192.24 
L 241.703605 192.24 
L 241.703605 174.112999 
L 240.828997 174.112999 
z
" style="fill:#808080;fill-opacity:0.6;stroke:#808080;stroke-linejoin:miter;stroke-opacity:0.6;"/>
   </g>
   <g id="patch_225">
    <path clip-path="url(#pd141407a33)" d="M 241.703605 192.24 
L 242.578213 192.24 
L 242.578213 174.357225 
L 241.703605 174.357225 
z
" style="fill:#808080;fill-opacity:0.6;stroke:#808080;stroke-linejoin:miter;stroke-opacity:0.6;"/>
   </g>
   <g id="patch_226">
    <path clip-path="url(#pd141407a33)" d="M 242.578213 192.24 
L 243.452821 192.24 
L 243.452821 171.772999 
L 242.578213 171.772999 
z
" style="fill:#808080;fill-opacity:0.6;stroke:#808080;stroke-linejoin:miter;stroke-opacity:0.6;"/>
   </g>
   <g id="patch_227">
    <path clip-path="url(#pd141407a33)" d="M 243.452821 192.24 
L 244.327429 192.24 
L 244.327429 170.415484 
L 243.452821 170.415484 
z
" style="fill:#808080;fill-opacity:0.6;stroke:#808080;stroke-linejoin:miter;stroke-opacity:0.6;"/>
   </g>
   <g id="patch_228">
    <path clip-path="url(#pd141407a33)" d="M 244.327429 192.24 
L 245.202038 192.24 
L 245.202038 168.631087 
L 244.327429 168.631087 
z
" style="fill:#808080;fill-opacity:0.6;stroke:#808080;stroke-linejoin:miter;stroke-opacity:0.6;"/>
   </g>
   <g id="patch_229">
    <path clip-path="url(#pd141407a33)" d="M 245.202038 192.24 
L 246.076646 192.24 
L 246.076646 160.134333 
L 245.202038 160.134333 
z
" style="fill:#808080;fill-opacity:0.6;stroke:#808080;stroke-linejoin:miter;stroke-opacity:0.6;"/>
   </g>
   <g id="patch_230">
    <path clip-path="url(#pd141407a33)" d="M 246.076646 192.24 
L 246.951254 192.24 
L 246.951254 164.206647 
L 246.076646 164.206647 
z
" style="fill:#808080;fill-opacity:0.6;stroke:#808080;stroke-linejoin:miter;stroke-opacity:0.6;"/>
   </g>
   <g id="patch_231">
    <path clip-path="url(#pd141407a33)" d="M 246.951254 192.24 
L 247.825862 192.24 
L 247.825862 162.917256 
L 246.951254 162.917256 
z
" style="fill:#808080;fill-opacity:0.6;stroke:#808080;stroke-linejoin:miter;stroke-opacity:0.6;"/>
   </g>
   <g id="patch_232">
    <path clip-path="url(#pd141407a33)" d="M 247.825862 192.24 
L 248.70047 192.24 
L 248.70047 149.595416 
L 247.825862 149.595416 
z
" style="fill:#808080;fill-opacity:0.6;stroke:#808080;stroke-linejoin:miter;stroke-opacity:0.6;"/>
   </g>
   <g id="patch_233">
    <path clip-path="url(#pd141407a33)" d="M 248.70047 192.24 
L 249.575078 192.24 
L 249.575078 156.560851 
L 248.70047 156.560851 
z
" style="fill:#808080;fill-opacity:0.6;stroke:#808080;stroke-linejoin:miter;stroke-opacity:0.6;"/>
   </g>
   <g id="patch_234">
    <path clip-path="url(#pd141407a33)" d="M 249.575078 192.24 
L 250.449687 192.24 
L 250.449687 142.338684 
L 249.575078 142.338684 
z
" style="fill:#808080;fill-opacity:0.6;stroke:#808080;stroke-linejoin:miter;stroke-opacity:0.6;"/>
   </g>
   <g id="patch_235">
    <path clip-path="url(#pd141407a33)" d="M 250.449687 192.24 
L 251.324295 192.24 
L 251.324295 113.118288 
L 250.449687 113.118288 
z
" style="fill:#808080;fill-opacity:0.6;stroke:#808080;stroke-linejoin:miter;stroke-opacity:0.6;"/>
   </g>
   <g id="patch_236">
    <path clip-path="url(#pd141407a33)" d="M 251.324295 192.24 
L 252.198903 192.24 
L 252.198903 142.264144 
L 251.324295 142.264144 
z
" style="fill:#808080;fill-opacity:0.6;stroke:#808080;stroke-linejoin:miter;stroke-opacity:0.6;"/>
   </g>
   <g id="patch_237">
    <path clip-path="url(#pd141407a33)" d="M 252.198903 192.24 
L 253.073511 192.24 
L 253.073511 84.612292 
L 252.198903 84.612292 
z
" style="fill:#808080;fill-opacity:0.6;stroke:#808080;stroke-linejoin:miter;stroke-opacity:0.6;"/>
   </g>
   <g id="patch_238">
    <path clip-path="url(#pd141407a33)" d="M 253.073511 192.24 
L 253.948119 192.24 
L 253.948119 124.485336 
L 253.073511 124.485336 
z
" style="fill:#808080;fill-opacity:0.6;stroke:#808080;stroke-linejoin:miter;stroke-opacity:0.6;"/>
   </g>
   <g id="patch_239">
    <path clip-path="url(#pd141407a33)" d="M 253.948119 192.24 
L 254.822727 192.24 
L 254.822727 33.84 
L 253.948119 33.84 
z
" style="fill:#808080;fill-opacity:0.6;stroke:#808080;stroke-linejoin:miter;stroke-opacity:0.6;"/>
   </g>
   <g id="patch_240">
    <path clip-path="url(#pd141407a33)" d="M 254.822727 192.24 
L 255.697335 192.24 
L 255.697335 65.322849 
L 254.822727 65.322849 
z
" style="fill:#808080;fill-opacity:0.6;stroke:#808080;stroke-linejoin:miter;stroke-opacity:0.6;"/>
   </g>
   <g id="patch_241">
    <path clip-path="url(#pd141407a33)" d="M 255.697335 192.24 
L 256.571944 192.24 
L 256.571944 100.492201 
L 255.697335 100.492201 
z
" style="fill:#808080;fill-opacity:0.6;stroke:#808080;stroke-linejoin:miter;stroke-opacity:0.6;"/>
   </g>
   <g id="patch_242">
    <path clip-path="url(#pd141407a33)" d="M 256.571944 192.24 
L 257.446552 192.24 
L 257.446552 166.448248 
L 256.571944 166.448248 
z
" style="fill:#808080;fill-opacity:0.6;stroke:#808080;stroke-linejoin:miter;stroke-opacity:0.6;"/>
   </g>
   <g id="patch_243">
    <path clip-path="url(#pd141407a33)" d="M 257.446552 192.24 
L 258.32116 192.24 
L 258.32116 183.987626 
L 257.446552 183.987626 
z
" style="fill:#808080;fill-opacity:0.6;stroke:#808080;stroke-linejoin:miter;stroke-opacity:0.6;"/>
   </g>
   <g id="patch_244">
    <path clip-path="url(#pd141407a33)" d="M 258.32116 192.24 
L 259.195768 192.24 
L 259.195768 157.295085 
L 258.32116 157.295085 
z
" style="fill:#808080;fill-opacity:0.6;stroke:#808080;stroke-linejoin:miter;stroke-opacity:0.6;"/>
   </g>
   <g id="patch_245">
    <path clip-path="url(#pd141407a33)" d="M 259.195768 192.24 
L 260.070376 192.24 
L 260.070376 186.962398 
L 259.195768 186.962398 
z
" style="fill:#808080;fill-opacity:0.6;stroke:#808080;stroke-linejoin:miter;stroke-opacity:0.6;"/>
   </g>
   <g id="patch_246">
    <path clip-path="url(#pd141407a33)" d="M 260.070376 192.24 
L 260.944984 192.24 
L 260.944984 186.624322 
L 260.070376 186.624322 
z
" style="fill:#808080;fill-opacity:0.6;stroke:#808080;stroke-linejoin:miter;stroke-opacity:0.6;"/>
   </g>
   <g id="patch_247">
    <path clip-path="url(#pd141407a33)" d="M 260.944984 192.24 
L 261.819592 192.24 
L 261.819592 188.000592 
L 260.944984 188.000592 
z
" style="fill:#808080;fill-opacity:0.6;stroke:#808080;stroke-linejoin:miter;stroke-opacity:0.6;"/>
   </g>
   <g id="patch_248">
    <path clip-path="url(#pd141407a33)" d="M 261.819592 192.24 
L 262.694201 192.24 
L 262.694201 188.476273 
L 261.819592 188.476273 
z
" style="fill:#808080;fill-opacity:0.6;stroke:#808080;stroke-linejoin:miter;stroke-opacity:0.6;"/>
   </g>
   <g id="patch_249">
    <path clip-path="url(#pd141407a33)" d="M 262.694201 192.24 
L 263.568809 192.24 
L 263.568809 188.499762 
L 262.694201 188.499762 
z
" style="fill:#808080;fill-opacity:0.6;stroke:#808080;stroke-linejoin:miter;stroke-opacity:0.6;"/>
   </g>
   <g id="patch_250">
    <path clip-path="url(#pd141407a33)" d="M 263.568809 192.24 
L 264.443417 192.24 
L 264.443417 190.021873 
L 263.568809 190.021873 
z
" style="fill:#808080;fill-opacity:0.6;stroke:#808080;stroke-linejoin:miter;stroke-opacity:0.6;"/>
   </g>
   <g id="patch_251">
    <path clip-path="url(#pd141407a33)" d="M 264.443417 192.24 
L 265.318025 192.24 
L 265.318025 190.116756 
L 264.443417 190.116756 
z
" style="fill:#808080;fill-opacity:0.6;stroke:#808080;stroke-linejoin:miter;stroke-opacity:0.6;"/>
   </g>
   <g id="patch_252">
    <path clip-path="url(#pd141407a33)" d="M 265.318025 192.24 
L 266.192633 192.24 
L 266.192633 190.515907 
L 265.318025 190.515907 
z
" style="fill:#808080;fill-opacity:0.6;stroke:#808080;stroke-linejoin:miter;stroke-opacity:0.6;"/>
   </g>
   <g id="patch_253">
    <path clip-path="url(#pd141407a33)" d="M 266.192633 192.24 
L 267.067241 192.24 
L 267.067241 190.645277 
L 266.192633 190.645277 
z
" style="fill:#808080;fill-opacity:0.6;stroke:#808080;stroke-linejoin:miter;stroke-opacity:0.6;"/>
   </g>
   <g id="patch_254">
    <path clip-path="url(#pd141407a33)" d="M 267.067241 192.24 
L 267.94185 192.24 
L 267.94185 190.826761 
L 267.067241 190.826761 
z
" style="fill:#808080;fill-opacity:0.6;stroke:#808080;stroke-linejoin:miter;stroke-opacity:0.6;"/>
   </g>
   <g id="patch_255">
    <path clip-path="url(#pd141407a33)" d="M 267.94185 192.24 
L 268.816458 192.24 
L 268.816458 190.281907 
L 267.94185 190.281907 
z
" style="fill:#808080;fill-opacity:0.6;stroke:#808080;stroke-linejoin:miter;stroke-opacity:0.6;"/>
   </g>
   <g id="patch_256">
    <path clip-path="url(#pd141407a33)" d="M 268.816458 192.24 
L 269.691066 192.24 
L 269.691066 190.985712 
L 268.816458 190.985712 
z
" style="fill:#808080;fill-opacity:0.6;stroke:#808080;stroke-linejoin:miter;stroke-opacity:0.6;"/>
   </g>
   <g id="patch_257">
    <path clip-path="url(#pd141407a33)" d="M 269.691066 192.24 
L 270.565674 192.24 
L 270.565674 190.908689 
L 269.691066 190.908689 
z
" style="fill:#808080;fill-opacity:0.6;stroke:#808080;stroke-linejoin:miter;stroke-opacity:0.6;"/>
   </g>
   <g id="patch_258">
    <path clip-path="url(#pd141407a33)" d="M 270.565674 192.24 
L 271.440282 192.24 
L 271.440282 190.801837 
L 270.565674 190.801837 
z
" style="fill:#808080;fill-opacity:0.6;stroke:#808080;stroke-linejoin:miter;stroke-opacity:0.6;"/>
   </g>
   <g id="patch_259">
    <path clip-path="url(#pd141407a33)" d="M 271.440282 192.24 
L 272.31489 192.24 
L 272.31489 191.068288 
L 271.440282 191.068288 
z
" style="fill:#808080;fill-opacity:0.6;stroke:#808080;stroke-linejoin:miter;stroke-opacity:0.6;"/>
   </g>
   <g id="patch_260">
    <path clip-path="url(#pd141407a33)" d="M 272.31489 192.24 
L 273.189498 192.24 
L 273.189498 191.193832 
L 272.31489 191.193832 
z
" style="fill:#808080;fill-opacity:0.6;stroke:#808080;stroke-linejoin:miter;stroke-opacity:0.6;"/>
   </g>
   <g id="patch_261">
    <path clip-path="url(#pd141407a33)" d="M 273.189498 192.24 
L 274.064107 192.24 
L 274.064107 190.951164 
L 273.189498 190.951164 
z
" style="fill:#808080;fill-opacity:0.6;stroke:#808080;stroke-linejoin:miter;stroke-opacity:0.6;"/>
   </g>
   <g id="patch_262">
    <path clip-path="url(#pd141407a33)" d="M 274.064107 192.24 
L 274.938715 192.24 
L 274.938715 191.045924 
L 274.064107 191.045924 
z
" style="fill:#808080;fill-opacity:0.6;stroke:#808080;stroke-linejoin:miter;stroke-opacity:0.6;"/>
   </g>
   <g id="patch_263">
    <path clip-path="url(#pd141407a33)" d="M 274.938715 192.24 
L 275.813323 192.24 
L 275.813323 191.127991 
L 274.938715 191.127991 
z
" style="fill:#808080;fill-opacity:0.6;stroke:#808080;stroke-linejoin:miter;stroke-opacity:0.6;"/>
   </g>
   <g id="patch_264">
    <path clip-path="url(#pd141407a33)" d="M 275.813323 192.24 
L 276.687931 192.24 
L 276.687931 191.274125 
L 275.813323 191.274125 
z
" style="fill:#808080;fill-opacity:0.6;stroke:#808080;stroke-linejoin:miter;stroke-opacity:0.6;"/>
   </g>
   <g id="patch_265">
    <path clip-path="url(#pd141407a33)" d="M 276.687931 192.24 
L 277.562539 192.24 
L 277.562539 191.339103 
L 276.687931 191.339103 
z
" style="fill:#808080;fill-opacity:0.6;stroke:#808080;stroke-linejoin:miter;stroke-opacity:0.6;"/>
   </g>
   <g id="patch_266">
    <path clip-path="url(#pd141407a33)" d="M 277.562539 192.24 
L 278.437147 192.24 
L 278.437147 191.216134 
L 277.562539 191.216134 
z
" style="fill:#808080;fill-opacity:0.6;stroke:#808080;stroke-linejoin:miter;stroke-opacity:0.6;"/>
   </g>
   <g id="patch_267">
    <path clip-path="url(#pd141407a33)" d="M 278.437147 192.24 
L 279.311755 192.24 
L 279.311755 190.753162 
L 278.437147 190.753162 
z
" style="fill:#808080;fill-opacity:0.6;stroke:#808080;stroke-linejoin:miter;stroke-opacity:0.6;"/>
   </g>
   <g id="patch_268">
    <path clip-path="url(#pd141407a33)" d="M 279.311755 192.24 
L 280.186364 192.24 
L 280.186364 189.994081 
L 279.311755 189.994081 
z
" style="fill:#808080;fill-opacity:0.6;stroke:#808080;stroke-linejoin:miter;stroke-opacity:0.6;"/>
   </g>
   <g id="patch_269">
    <path d="M 40.5 192.24 
L 40.5 25.92 
" style="fill:none;stroke:#cccccc;stroke-linecap:square;stroke-linejoin:miter;stroke-width:0.8;"/>
   </g>
   <g id="patch_270">
    <path d="M 291.6 192.24 
L 291.6 25.92 
" style="fill:none;stroke:#cccccc;stroke-linecap:square;stroke-linejoin:miter;stroke-width:0.8;"/>
   </g>
   <g id="patch_271">
    <path d="M 40.5 192.24 
L 291.6 192.24 
" style="fill:none;stroke:#cccccc;stroke-linecap:square;stroke-linejoin:miter;stroke-width:0.8;"/>
   </g>
   <g id="patch_272">
    <path d="M 40.5 25.92 
L 291.6 25.92 
" style="fill:none;stroke:#cccccc;stroke-linecap:square;stroke-linejoin:miter;stroke-width:0.8;"/>
   </g>
  </g>
 </g>
 <defs>
  <clipPath id="pd141407a33">
   <rect height="166.32" width="251.1" x="40.5" y="25.92"/>
  </clipPath>
 </defs>
</svg>
