<?xml version="1.0" encoding="utf-8" standalone="no"?>
<!DOCTYPE svg PUBLIC "-//W3C//DTD SVG 1.1//EN"
  "http://www.w3.org/Graphics/SVG/1.1/DTD/svg11.dtd">
<!-- Created with matplotlib (https://matplotlib.org/) -->
<svg height="216pt" version="1.1" viewBox="0 0 324 216" width="324pt" xmlns="http://www.w3.org/2000/svg" xmlns:xlink="http://www.w3.org/1999/xlink">
 <metadata>
  <rdf:RDF xmlns:cc="http://creativecommons.org/ns#" xmlns:dc="http://purl.org/dc/elements/1.1/" xmlns:rdf="http://www.w3.org/1999/02/22-rdf-syntax-ns#">
   <cc:Work>
    <dc:type rdf:resource="http://purl.org/dc/dcmitype/StillImage"/>
    <dc:date>2021-01-11T16:00:36.379732</dc:date>
    <dc:format>image/svg+xml</dc:format>
    <dc:creator>
     <cc:Agent>
      <dc:title>Matplotlib v3.3.3, https://matplotlib.org/</dc:title>
     </cc:Agent>
    </dc:creator>
   </cc:Work>
  </rdf:RDF>
 </metadata>
 <defs>
  <style type="text/css">*{stroke-linecap:butt;stroke-linejoin:round;}</style>
 </defs>
 <g id="figure_1">
  <g id="patch_1">
   <path d="M 0 216 
L 324 216 
L 324 0 
L 0 0 
z
" style="fill:#ffffff;"/>
  </g>
  <g id="axes_1">
   <g id="patch_2">
    <path d="M 40.5 192.24 
L 291.6 192.24 
L 291.6 25.92 
L 40.5 25.92 
z
" style="fill:#ffffff;"/>
   </g>
   <g id="matplotlib.axis_1">
    <g id="xtick_1">
     <g id="line2d_1">
      <path clip-path="url(#pe1dc555f21)" d="M 60.170309 192.24 
L 60.170309 25.92 
" style="fill:none;stroke:#cccccc;stroke-linecap:round;stroke-width:0.8;"/>
     </g>
     <g id="text_1">
      <!-- −20 -->
      <g style="fill:#262626;" transform="translate(49.617966 206.838437)scale(0.1 -0.1)">
       <defs>
        <path d="M 10.59375 35.5 
L 73.1875 35.5 
L 73.1875 27.203125 
L 10.59375 27.203125 
z
" id="DejaVuSans-8722"/>
        <path d="M 19.1875 8.296875 
L 53.609375 8.296875 
L 53.609375 0 
L 7.328125 0 
L 7.328125 8.296875 
Q 12.9375 14.109375 22.625 23.890625 
Q 32.328125 33.6875 34.8125 36.53125 
Q 39.546875 41.84375 41.421875 45.53125 
Q 43.3125 49.21875 43.3125 52.78125 
Q 43.3125 58.59375 39.234375 62.25 
Q 35.15625 65.921875 28.609375 65.921875 
Q 23.96875 65.921875 18.8125 64.3125 
Q 13.671875 62.703125 7.8125 59.421875 
L 7.8125 69.390625 
Q 13.765625 71.78125 18.9375 73 
Q 24.125 74.21875 28.421875 74.21875 
Q 39.75 74.21875 46.484375 68.546875 
Q 53.21875 62.890625 53.21875 53.421875 
Q 53.21875 48.921875 51.53125 44.890625 
Q 49.859375 40.875 45.40625 35.40625 
Q 44.1875 33.984375 37.640625 27.21875 
Q 31.109375 20.453125 19.1875 8.296875 
z
" id="DejaVuSans-50"/>
        <path d="M 31.78125 66.40625 
Q 24.171875 66.40625 20.328125 58.90625 
Q 16.5 51.421875 16.5 36.375 
Q 16.5 21.390625 20.328125 13.890625 
Q 24.171875 6.390625 31.78125 6.390625 
Q 39.453125 6.390625 43.28125 13.890625 
Q 47.125 21.390625 47.125 36.375 
Q 47.125 51.421875 43.28125 58.90625 
Q 39.453125 66.40625 31.78125 66.40625 
z
M 31.78125 74.21875 
Q 44.046875 74.21875 50.515625 64.515625 
Q 56.984375 54.828125 56.984375 36.375 
Q 56.984375 17.96875 50.515625 8.265625 
Q 44.046875 -1.421875 31.78125 -1.421875 
Q 19.53125 -1.421875 13.0625 8.265625 
Q 6.59375 17.96875 6.59375 36.375 
Q 6.59375 54.828125 13.0625 64.515625 
Q 19.53125 74.21875 31.78125 74.21875 
z
" id="DejaVuSans-48"/>
       </defs>
       <use xlink:href="#DejaVuSans-8722"/>
       <use x="83.789062" xlink:href="#DejaVuSans-50"/>
       <use x="147.412109" xlink:href="#DejaVuSans-48"/>
      </g>
     </g>
    </g>
    <g id="xtick_2">
     <g id="line2d_2">
      <path clip-path="url(#pe1dc555f21)" d="M 108.738975 192.24 
L 108.738975 25.92 
" style="fill:none;stroke:#cccccc;stroke-linecap:round;stroke-width:0.8;"/>
     </g>
     <g id="text_2">
      <!-- −15 -->
      <g style="fill:#262626;" transform="translate(98.186631 206.838437)scale(0.1 -0.1)">
       <defs>
        <path d="M 12.40625 8.296875 
L 28.515625 8.296875 
L 28.515625 63.921875 
L 10.984375 60.40625 
L 10.984375 69.390625 
L 28.421875 72.90625 
L 38.28125 72.90625 
L 38.28125 8.296875 
L 54.390625 8.296875 
L 54.390625 0 
L 12.40625 0 
z
" id="DejaVuSans-49"/>
        <path d="M 10.796875 72.90625 
L 49.515625 72.90625 
L 49.515625 64.59375 
L 19.828125 64.59375 
L 19.828125 46.734375 
Q 21.96875 47.46875 24.109375 47.828125 
Q 26.265625 48.1875 28.421875 48.1875 
Q 40.625 48.1875 47.75 41.5 
Q 54.890625 34.8125 54.890625 23.390625 
Q 54.890625 11.625 47.5625 5.09375 
Q 40.234375 -1.421875 26.90625 -1.421875 
Q 22.3125 -1.421875 17.546875 -0.640625 
Q 12.796875 0.140625 7.71875 1.703125 
L 7.71875 11.625 
Q 12.109375 9.234375 16.796875 8.0625 
Q 21.484375 6.890625 26.703125 6.890625 
Q 35.15625 6.890625 40.078125 11.328125 
Q 45.015625 15.765625 45.015625 23.390625 
Q 45.015625 31 40.078125 35.4375 
Q 35.15625 39.890625 26.703125 39.890625 
Q 22.75 39.890625 18.8125 39.015625 
Q 14.890625 38.140625 10.796875 36.28125 
z
" id="DejaVuSans-53"/>
       </defs>
       <use xlink:href="#DejaVuSans-8722"/>
       <use x="83.789062" xlink:href="#DejaVuSans-49"/>
       <use x="147.412109" xlink:href="#DejaVuSans-53"/>
      </g>
     </g>
    </g>
    <g id="xtick_3">
     <g id="line2d_3">
      <path clip-path="url(#pe1dc555f21)" d="M 157.30764 192.24 
L 157.30764 25.92 
" style="fill:none;stroke:#cccccc;stroke-linecap:round;stroke-width:0.8;"/>
     </g>
     <g id="text_3">
      <!-- −10 -->
      <g style="fill:#262626;" transform="translate(146.755296 206.838437)scale(0.1 -0.1)">
       <use xlink:href="#DejaVuSans-8722"/>
       <use x="83.789062" xlink:href="#DejaVuSans-49"/>
       <use x="147.412109" xlink:href="#DejaVuSans-48"/>
      </g>
     </g>
    </g>
    <g id="xtick_4">
     <g id="line2d_4">
      <path clip-path="url(#pe1dc555f21)" d="M 205.876306 192.24 
L 205.876306 25.92 
" style="fill:none;stroke:#cccccc;stroke-linecap:round;stroke-width:0.8;"/>
     </g>
     <g id="text_4">
      <!-- −5 -->
      <g style="fill:#262626;" transform="translate(198.505212 206.838437)scale(0.1 -0.1)">
       <use xlink:href="#DejaVuSans-8722"/>
       <use x="83.789062" xlink:href="#DejaVuSans-53"/>
      </g>
     </g>
    </g>
    <g id="xtick_5">
     <g id="line2d_5">
      <path clip-path="url(#pe1dc555f21)" d="M 254.444971 192.24 
L 254.444971 25.92 
" style="fill:none;stroke:#cccccc;stroke-linecap:round;stroke-width:0.8;"/>
     </g>
     <g id="text_5">
      <!-- 0 -->
      <g style="fill:#262626;" transform="translate(251.263721 206.838437)scale(0.1 -0.1)">
       <use xlink:href="#DejaVuSans-48"/>
      </g>
     </g>
    </g>
   </g>
   <g id="matplotlib.axis_2">
    <g id="ytick_1">
     <g id="line2d_6">
      <path clip-path="url(#pe1dc555f21)" d="M 40.5 178.955888 
L 291.6 178.955888 
" style="fill:none;stroke:#cccccc;stroke-linecap:round;stroke-width:0.8;"/>
     </g>
     <g id="line2d_7">
      <defs>
       <path d="M 0 0 
L -3.5 0 
" id="m302c48627b" style="stroke:#262626;stroke-width:0.8;"/>
      </defs>
      <g>
       <use style="fill:#262626;stroke:#262626;stroke-width:0.8;" x="40.5" xlink:href="#m302c48627b" y="178.955888"/>
      </g>
     </g>
     <g id="text_6">
      <!-- 0.00 -->
      <g style="fill:#262626;" transform="translate(11.234375 182.755107)scale(0.1 -0.1)">
       <defs>
        <path d="M 10.6875 12.40625 
L 21 12.40625 
L 21 0 
L 10.6875 0 
z
" id="DejaVuSans-46"/>
       </defs>
       <use xlink:href="#DejaVuSans-48"/>
       <use x="63.623047" xlink:href="#DejaVuSans-46"/>
       <use x="95.410156" xlink:href="#DejaVuSans-48"/>
       <use x="159.033203" xlink:href="#DejaVuSans-48"/>
      </g>
     </g>
    </g>
    <g id="ytick_2">
     <g id="line2d_8">
      <path clip-path="url(#pe1dc555f21)" d="M 40.5 151.351984 
L 291.6 151.351984 
" style="fill:none;stroke:#cccccc;stroke-linecap:round;stroke-width:0.8;"/>
     </g>
     <g id="line2d_9">
      <g>
       <use style="fill:#262626;stroke:#262626;stroke-width:0.8;" x="40.5" xlink:href="#m302c48627b" y="151.351984"/>
      </g>
     </g>
     <g id="text_7">
      <!-- 0.05 -->
      <g style="fill:#262626;" transform="translate(11.234375 155.151202)scale(0.1 -0.1)">
       <use xlink:href="#DejaVuSans-48"/>
       <use x="63.623047" xlink:href="#DejaVuSans-46"/>
       <use x="95.410156" xlink:href="#DejaVuSans-48"/>
       <use x="159.033203" xlink:href="#DejaVuSans-53"/>
      </g>
     </g>
    </g>
    <g id="ytick_3">
     <g id="line2d_10">
      <path clip-path="url(#pe1dc555f21)" d="M 40.5 123.748079 
L 291.6 123.748079 
" style="fill:none;stroke:#cccccc;stroke-linecap:round;stroke-width:0.8;"/>
     </g>
     <g id="line2d_11">
      <g>
       <use style="fill:#262626;stroke:#262626;stroke-width:0.8;" x="40.5" xlink:href="#m302c48627b" y="123.748079"/>
      </g>
     </g>
     <g id="text_8">
      <!-- 0.10 -->
      <g style="fill:#262626;" transform="translate(11.234375 127.547297)scale(0.1 -0.1)">
       <use xlink:href="#DejaVuSans-48"/>
       <use x="63.623047" xlink:href="#DejaVuSans-46"/>
       <use x="95.410156" xlink:href="#DejaVuSans-49"/>
       <use x="159.033203" xlink:href="#DejaVuSans-48"/>
      </g>
     </g>
    </g>
    <g id="ytick_4">
     <g id="line2d_12">
      <path clip-path="url(#pe1dc555f21)" d="M 40.5 96.144174 
L 291.6 96.144174 
" style="fill:none;stroke:#cccccc;stroke-linecap:round;stroke-width:0.8;"/>
     </g>
     <g id="line2d_13">
      <g>
       <use style="fill:#262626;stroke:#262626;stroke-width:0.8;" x="40.5" xlink:href="#m302c48627b" y="96.144174"/>
      </g>
     </g>
     <g id="text_9">
      <!-- 0.15 -->
      <g style="fill:#262626;" transform="translate(11.234375 99.943393)scale(0.1 -0.1)">
       <use xlink:href="#DejaVuSans-48"/>
       <use x="63.623047" xlink:href="#DejaVuSans-46"/>
       <use x="95.410156" xlink:href="#DejaVuSans-49"/>
       <use x="159.033203" xlink:href="#DejaVuSans-53"/>
      </g>
     </g>
    </g>
    <g id="ytick_5">
     <g id="line2d_14">
      <path clip-path="url(#pe1dc555f21)" d="M 40.5 68.540269 
L 291.6 68.540269 
" style="fill:none;stroke:#cccccc;stroke-linecap:round;stroke-width:0.8;"/>
     </g>
     <g id="line2d_15">
      <g>
       <use style="fill:#262626;stroke:#262626;stroke-width:0.8;" x="40.5" xlink:href="#m302c48627b" y="68.540269"/>
      </g>
     </g>
     <g id="text_10">
      <!-- 0.20 -->
      <g style="fill:#262626;" transform="translate(11.234375 72.339488)scale(0.1 -0.1)">
       <use xlink:href="#DejaVuSans-48"/>
       <use x="63.623047" xlink:href="#DejaVuSans-46"/>
       <use x="95.410156" xlink:href="#DejaVuSans-50"/>
       <use x="159.033203" xlink:href="#DejaVuSans-48"/>
      </g>
     </g>
    </g>
    <g id="ytick_6">
     <g id="line2d_16">
      <path clip-path="url(#pe1dc555f21)" d="M 40.5 40.936364 
L 291.6 40.936364 
" style="fill:none;stroke:#cccccc;stroke-linecap:round;stroke-width:0.8;"/>
     </g>
     <g id="line2d_17">
      <g>
       <use style="fill:#262626;stroke:#262626;stroke-width:0.8;" x="40.5" xlink:href="#m302c48627b" y="40.936364"/>
      </g>
     </g>
     <g id="text_11">
      <!-- 0.25 -->
      <g style="fill:#262626;" transform="translate(11.234375 44.735583)scale(0.1 -0.1)">
       <use xlink:href="#DejaVuSans-48"/>
       <use x="63.623047" xlink:href="#DejaVuSans-46"/>
       <use x="95.410156" xlink:href="#DejaVuSans-50"/>
       <use x="159.033203" xlink:href="#DejaVuSans-53"/>
      </g>
     </g>
    </g>
   </g>
   <g id="line2d_18">
    <path clip-path="url(#pe1dc555f21)" d="M 52.39933 168.429032 
L 153.422151 168.536281 
L 169.935495 168.770896 
L 180.620601 169.139423 
L 188.391584 169.62341 
L 194.219828 170.17723 
L 200.048067 170.964046 
L 204.904933 171.853778 
L 208.790427 172.754649 
L 212.675917 173.85038 
L 216.561411 175.159744 
L 220.446905 176.687741 
L 225.303772 178.868529 
L 234.046132 182.958679 
L 236.960252 184.009232 
L 238.902998 184.479048 
L 240.845745 184.68 
L 242.788491 184.524927 
L 243.759864 184.283051 
L 244.731238 183.91361 
L 245.702611 183.40223 
L 246.673984 182.733957 
L 247.645358 181.893361 
L 248.616731 180.864704 
L 249.588104 179.632114 
L 250.559478 178.179828 
L 251.530851 176.492415 
L 252.502224 174.555081 
L 253.473598 172.35398 
L 255.416344 167.111932 
L 257.359091 160.687931 
L 259.301838 153.042046 
L 261.244584 144.183906 
L 263.187331 134.181482 
L 265.130078 123.165679 
L 268.044197 105.17857 
L 276.786557 49.4458 
L 278.729304 38.549662 
L 279.700676 33.48 
L 279.700676 33.48 
" style="fill:none;stroke:#1f77b4;stroke-linecap:round;stroke-width:1.5;"/>
   </g>
   <g id="line2d_19">
    <path clip-path="url(#pe1dc555f21)" d="M 52.39933 168.429032 
L 153.422151 168.536281 
L 169.935495 168.770896 
L 180.620601 169.139423 
L 188.391584 169.62341 
L 194.219828 170.17723 
L 200.048067 170.964046 
L 204.904933 171.853778 
L 208.790427 172.754649 
L 212.675917 173.85038 
L 216.561411 175.159744 
L 220.446905 176.687741 
L 225.303772 178.868529 
L 234.046132 182.958679 
L 236.960252 184.009232 
L 238.902998 184.479048 
L 240.845745 184.68 
L 242.788491 184.524927 
L 243.759864 184.283051 
L 244.731238 183.91361 
L 245.702611 183.40223 
L 246.673984 182.733957 
L 247.645358 181.893361 
L 248.616731 180.864704 
L 249.588104 179.632114 
L 250.559478 178.179828 
L 251.530851 176.492415 
L 252.502224 174.555081 
L 253.473598 172.35398 
L 255.416344 167.111932 
L 257.359091 160.687931 
L 259.301838 153.042046 
L 261.244584 144.183906 
L 263.187331 134.181482 
L 265.130078 123.165679 
L 268.044197 105.17857 
L 276.786557 49.4458 
L 278.729304 38.549662 
L 279.700676 33.48 
L 279.700676 33.48 
" style="fill:none;stroke:#ff7f0e;stroke-dasharray:5.55,2.4;stroke-dashoffset:0;stroke-width:1.5;"/>
   </g>
   <g id="patch_3">
    <path d="M 40.5 192.24 
L 40.5 25.92 
" style="fill:none;stroke:#cccccc;stroke-linecap:square;stroke-linejoin:miter;stroke-width:0.8;"/>
   </g>
   <g id="patch_4">
    <path d="M 291.6 192.24 
L 291.6 25.92 
" style="fill:none;stroke:#cccccc;stroke-linecap:square;stroke-linejoin:miter;stroke-width:0.8;"/>
   </g>
   <g id="patch_5">
    <path d="M 40.5 192.24 
L 291.6 192.24 
" style="fill:none;stroke:#cccccc;stroke-linecap:square;stroke-linejoin:miter;stroke-width:0.8;"/>
   </g>
   <g id="patch_6">
    <path d="M 40.5 25.92 
L 291.6 25.92 
" style="fill:none;stroke:#cccccc;stroke-linecap:square;stroke-linejoin:miter;stroke-width:0.8;"/>
   </g>
   <g id="legend_1">
    <g id="patch_7">
     <path d="M 47.5 63.27625 
L 187.551562 63.27625 
Q 189.551562 63.27625 189.551562 61.27625 
L 189.551562 32.92 
Q 189.551562 30.92 187.551562 30.92 
L 47.5 30.92 
Q 45.5 30.92 45.5 32.92 
L 45.5 61.27625 
Q 45.5 63.27625 47.5 63.27625 
z
" style="fill:#ffffff;opacity:0.8;stroke:#cccccc;stroke-linejoin:miter;"/>
    </g>
    <g id="line2d_20">
     <path d="M 49.5 39.018437 
L 69.5 39.018437 
" style="fill:none;stroke:#1f77b4;stroke-linecap:round;stroke-width:1.5;"/>
    </g>
    <g id="line2d_21"/>
    <g id="text_12">
     <!-- R.RAF (892.5) -->
     <g style="fill:#262626;" transform="translate(77.5 42.518437)scale(0.1 -0.1)">
      <defs>
       <path d="M 44.390625 34.1875 
Q 47.5625 33.109375 50.5625 29.59375 
Q 53.5625 26.078125 56.59375 19.921875 
L 66.609375 0 
L 56 0 
L 46.6875 18.703125 
Q 43.0625 26.03125 39.671875 28.421875 
Q 36.28125 30.8125 30.421875 30.8125 
L 19.671875 30.8125 
L 19.671875 0 
L 9.8125 0 
L 9.8125 72.90625 
L 32.078125 72.90625 
Q 44.578125 72.90625 50.734375 67.671875 
Q 56.890625 62.453125 56.890625 51.90625 
Q 56.890625 45.015625 53.6875 40.46875 
Q 50.484375 35.9375 44.390625 34.1875 
z
M 19.671875 64.796875 
L 19.671875 38.921875 
L 32.078125 38.921875 
Q 39.203125 38.921875 42.84375 42.21875 
Q 46.484375 45.515625 46.484375 51.90625 
Q 46.484375 58.296875 42.84375 61.546875 
Q 39.203125 64.796875 32.078125 64.796875 
z
" id="DejaVuSans-82"/>
       <path d="M 34.1875 63.1875 
L 20.796875 26.90625 
L 47.609375 26.90625 
z
M 28.609375 72.90625 
L 39.796875 72.90625 
L 67.578125 0 
L 57.328125 0 
L 50.6875 18.703125 
L 17.828125 18.703125 
L 11.1875 0 
L 0.78125 0 
z
" id="DejaVuSans-65"/>
       <path d="M 9.8125 72.90625 
L 51.703125 72.90625 
L 51.703125 64.59375 
L 19.671875 64.59375 
L 19.671875 43.109375 
L 48.578125 43.109375 
L 48.578125 34.8125 
L 19.671875 34.8125 
L 19.671875 0 
L 9.8125 0 
z
" id="DejaVuSans-70"/>
       <path id="DejaVuSans-32"/>
       <path d="M 31 75.875 
Q 24.46875 64.65625 21.28125 53.65625 
Q 18.109375 42.671875 18.109375 31.390625 
Q 18.109375 20.125 21.3125 9.0625 
Q 24.515625 -2 31 -13.1875 
L 23.1875 -13.1875 
Q 15.875 -1.703125 12.234375 9.375 
Q 8.59375 20.453125 8.59375 31.390625 
Q 8.59375 42.28125 12.203125 53.3125 
Q 15.828125 64.359375 23.1875 75.875 
z
" id="DejaVuSans-40"/>
       <path d="M 31.78125 34.625 
Q 24.75 34.625 20.71875 30.859375 
Q 16.703125 27.09375 16.703125 20.515625 
Q 16.703125 13.921875 20.71875 10.15625 
Q 24.75 6.390625 31.78125 6.390625 
Q 38.8125 6.390625 42.859375 10.171875 
Q 46.921875 13.96875 46.921875 20.515625 
Q 46.921875 27.09375 42.890625 30.859375 
Q 38.875 34.625 31.78125 34.625 
z
M 21.921875 38.8125 
Q 15.578125 40.375 12.03125 44.71875 
Q 8.5 49.078125 8.5 55.328125 
Q 8.5 64.0625 14.71875 69.140625 
Q 20.953125 74.21875 31.78125 74.21875 
Q 42.671875 74.21875 48.875 69.140625 
Q 55.078125 64.0625 55.078125 55.328125 
Q 55.078125 49.078125 51.53125 44.71875 
Q 48 40.375 41.703125 38.8125 
Q 48.828125 37.15625 52.796875 32.3125 
Q 56.78125 27.484375 56.78125 20.515625 
Q 56.78125 9.90625 50.3125 4.234375 
Q 43.84375 -1.421875 31.78125 -1.421875 
Q 19.734375 -1.421875 13.25 4.234375 
Q 6.78125 9.90625 6.78125 20.515625 
Q 6.78125 27.484375 10.78125 32.3125 
Q 14.796875 37.15625 21.921875 38.8125 
z
M 18.3125 54.390625 
Q 18.3125 48.734375 21.84375 45.5625 
Q 25.390625 42.390625 31.78125 42.390625 
Q 38.140625 42.390625 41.71875 45.5625 
Q 45.3125 48.734375 45.3125 54.390625 
Q 45.3125 60.0625 41.71875 63.234375 
Q 38.140625 66.40625 31.78125 66.40625 
Q 25.390625 66.40625 21.84375 63.234375 
Q 18.3125 60.0625 18.3125 54.390625 
z
" id="DejaVuSans-56"/>
       <path d="M 10.984375 1.515625 
L 10.984375 10.5 
Q 14.703125 8.734375 18.5 7.8125 
Q 22.3125 6.890625 25.984375 6.890625 
Q 35.75 6.890625 40.890625 13.453125 
Q 46.046875 20.015625 46.78125 33.40625 
Q 43.953125 29.203125 39.59375 26.953125 
Q 35.25 24.703125 29.984375 24.703125 
Q 19.046875 24.703125 12.671875 31.3125 
Q 6.296875 37.9375 6.296875 49.421875 
Q 6.296875 60.640625 12.9375 67.421875 
Q 19.578125 74.21875 30.609375 74.21875 
Q 43.265625 74.21875 49.921875 64.515625 
Q 56.59375 54.828125 56.59375 36.375 
Q 56.59375 19.140625 48.40625 8.859375 
Q 40.234375 -1.421875 26.421875 -1.421875 
Q 22.703125 -1.421875 18.890625 -0.6875 
Q 15.09375 0.046875 10.984375 1.515625 
z
M 30.609375 32.421875 
Q 37.25 32.421875 41.125 36.953125 
Q 45.015625 41.5 45.015625 49.421875 
Q 45.015625 57.28125 41.125 61.84375 
Q 37.25 66.40625 30.609375 66.40625 
Q 23.96875 66.40625 20.09375 61.84375 
Q 16.21875 57.28125 16.21875 49.421875 
Q 16.21875 41.5 20.09375 36.953125 
Q 23.96875 32.421875 30.609375 32.421875 
z
" id="DejaVuSans-57"/>
       <path d="M 8.015625 75.875 
L 15.828125 75.875 
Q 23.140625 64.359375 26.78125 53.3125 
Q 30.421875 42.28125 30.421875 31.390625 
Q 30.421875 20.453125 26.78125 9.375 
Q 23.140625 -1.703125 15.828125 -13.1875 
L 8.015625 -13.1875 
Q 14.5 -2 17.703125 9.0625 
Q 20.90625 20.125 20.90625 31.390625 
Q 20.90625 42.671875 17.703125 53.65625 
Q 14.5 64.65625 8.015625 75.875 
z
" id="DejaVuSans-41"/>
      </defs>
      <use xlink:href="#DejaVuSans-82"/>
      <use x="65.857422" xlink:href="#DejaVuSans-46"/>
      <use x="97.644531" xlink:href="#DejaVuSans-82"/>
      <use x="163.126953" xlink:href="#DejaVuSans-65"/>
      <use x="231.535156" xlink:href="#DejaVuSans-70"/>
      <use x="289.054688" xlink:href="#DejaVuSans-32"/>
      <use x="320.841797" xlink:href="#DejaVuSans-40"/>
      <use x="359.855469" xlink:href="#DejaVuSans-56"/>
      <use x="423.478516" xlink:href="#DejaVuSans-57"/>
      <use x="487.101562" xlink:href="#DejaVuSans-50"/>
      <use x="550.724609" xlink:href="#DejaVuSans-46"/>
      <use x="582.511719" xlink:href="#DejaVuSans-53"/>
      <use x="646.134766" xlink:href="#DejaVuSans-41"/>
     </g>
    </g>
    <g id="line2d_22">
     <path d="M 49.5 53.696562 
L 69.5 53.696562 
" style="fill:none;stroke:#ff7f0e;stroke-dasharray:5.55,2.4;stroke-dashoffset:0;stroke-width:1.5;"/>
    </g>
    <g id="line2d_23"/>
    <g id="text_13">
     <!-- Adjusted dSiLU (25.4) -->
     <g style="fill:#262626;" transform="translate(77.5 57.196562)scale(0.1 -0.1)">
      <defs>
       <path d="M 45.40625 46.390625 
L 45.40625 75.984375 
L 54.390625 75.984375 
L 54.390625 0 
L 45.40625 0 
L 45.40625 8.203125 
Q 42.578125 3.328125 38.25 0.953125 
Q 33.9375 -1.421875 27.875 -1.421875 
Q 17.96875 -1.421875 11.734375 6.484375 
Q 5.515625 14.40625 5.515625 27.296875 
Q 5.515625 40.1875 11.734375 48.09375 
Q 17.96875 56 27.875 56 
Q 33.9375 56 38.25 53.625 
Q 42.578125 51.265625 45.40625 46.390625 
z
M 14.796875 27.296875 
Q 14.796875 17.390625 18.875 11.75 
Q 22.953125 6.109375 30.078125 6.109375 
Q 37.203125 6.109375 41.296875 11.75 
Q 45.40625 17.390625 45.40625 27.296875 
Q 45.40625 37.203125 41.296875 42.84375 
Q 37.203125 48.484375 30.078125 48.484375 
Q 22.953125 48.484375 18.875 42.84375 
Q 14.796875 37.203125 14.796875 27.296875 
z
" id="DejaVuSans-100"/>
       <path d="M 9.421875 54.6875 
L 18.40625 54.6875 
L 18.40625 -0.984375 
Q 18.40625 -11.421875 14.421875 -16.109375 
Q 10.453125 -20.796875 1.609375 -20.796875 
L -1.8125 -20.796875 
L -1.8125 -13.1875 
L 0.59375 -13.1875 
Q 5.71875 -13.1875 7.5625 -10.8125 
Q 9.421875 -8.453125 9.421875 -0.984375 
z
M 9.421875 75.984375 
L 18.40625 75.984375 
L 18.40625 64.59375 
L 9.421875 64.59375 
z
" id="DejaVuSans-106"/>
       <path d="M 8.5 21.578125 
L 8.5 54.6875 
L 17.484375 54.6875 
L 17.484375 21.921875 
Q 17.484375 14.15625 20.5 10.265625 
Q 23.53125 6.390625 29.59375 6.390625 
Q 36.859375 6.390625 41.078125 11.03125 
Q 45.3125 15.671875 45.3125 23.6875 
L 45.3125 54.6875 
L 54.296875 54.6875 
L 54.296875 0 
L 45.3125 0 
L 45.3125 8.40625 
Q 42.046875 3.421875 37.71875 1 
Q 33.40625 -1.421875 27.6875 -1.421875 
Q 18.265625 -1.421875 13.375 4.4375 
Q 8.5 10.296875 8.5 21.578125 
z
M 31.109375 56 
z
" id="DejaVuSans-117"/>
       <path d="M 44.28125 53.078125 
L 44.28125 44.578125 
Q 40.484375 46.53125 36.375 47.5 
Q 32.28125 48.484375 27.875 48.484375 
Q 21.1875 48.484375 17.84375 46.4375 
Q 14.5 44.390625 14.5 40.28125 
Q 14.5 37.15625 16.890625 35.375 
Q 19.28125 33.59375 26.515625 31.984375 
L 29.59375 31.296875 
Q 39.15625 29.25 43.1875 25.515625 
Q 47.21875 21.78125 47.21875 15.09375 
Q 47.21875 7.46875 41.1875 3.015625 
Q 35.15625 -1.421875 24.609375 -1.421875 
Q 20.21875 -1.421875 15.453125 -0.5625 
Q 10.6875 0.296875 5.421875 2 
L 5.421875 11.28125 
Q 10.40625 8.6875 15.234375 7.390625 
Q 20.0625 6.109375 24.8125 6.109375 
Q 31.15625 6.109375 34.5625 8.28125 
Q 37.984375 10.453125 37.984375 14.40625 
Q 37.984375 18.0625 35.515625 20.015625 
Q 33.0625 21.96875 24.703125 23.78125 
L 21.578125 24.515625 
Q 13.234375 26.265625 9.515625 29.90625 
Q 5.8125 33.546875 5.8125 39.890625 
Q 5.8125 47.609375 11.28125 51.796875 
Q 16.75 56 26.8125 56 
Q 31.78125 56 36.171875 55.265625 
Q 40.578125 54.546875 44.28125 53.078125 
z
" id="DejaVuSans-115"/>
       <path d="M 18.3125 70.21875 
L 18.3125 54.6875 
L 36.8125 54.6875 
L 36.8125 47.703125 
L 18.3125 47.703125 
L 18.3125 18.015625 
Q 18.3125 11.328125 20.140625 9.421875 
Q 21.96875 7.515625 27.59375 7.515625 
L 36.8125 7.515625 
L 36.8125 0 
L 27.59375 0 
Q 17.1875 0 13.234375 3.875 
Q 9.28125 7.765625 9.28125 18.015625 
L 9.28125 47.703125 
L 2.6875 47.703125 
L 2.6875 54.6875 
L 9.28125 54.6875 
L 9.28125 70.21875 
z
" id="DejaVuSans-116"/>
       <path d="M 56.203125 29.59375 
L 56.203125 25.203125 
L 14.890625 25.203125 
Q 15.484375 15.921875 20.484375 11.0625 
Q 25.484375 6.203125 34.421875 6.203125 
Q 39.59375 6.203125 44.453125 7.46875 
Q 49.3125 8.734375 54.109375 11.28125 
L 54.109375 2.78125 
Q 49.265625 0.734375 44.1875 -0.34375 
Q 39.109375 -1.421875 33.890625 -1.421875 
Q 20.796875 -1.421875 13.15625 6.1875 
Q 5.515625 13.8125 5.515625 26.8125 
Q 5.515625 40.234375 12.765625 48.109375 
Q 20.015625 56 32.328125 56 
Q 43.359375 56 49.78125 48.890625 
Q 56.203125 41.796875 56.203125 29.59375 
z
M 47.21875 32.234375 
Q 47.125 39.59375 43.09375 43.984375 
Q 39.0625 48.390625 32.421875 48.390625 
Q 24.90625 48.390625 20.390625 44.140625 
Q 15.875 39.890625 15.1875 32.171875 
z
" id="DejaVuSans-101"/>
       <path d="M 53.515625 70.515625 
L 53.515625 60.890625 
Q 47.90625 63.578125 42.921875 64.890625 
Q 37.9375 66.21875 33.296875 66.21875 
Q 25.25 66.21875 20.875 63.09375 
Q 16.5 59.96875 16.5 54.203125 
Q 16.5 49.359375 19.40625 46.890625 
Q 22.3125 44.4375 30.421875 42.921875 
L 36.375 41.703125 
Q 47.40625 39.59375 52.65625 34.296875 
Q 57.90625 29 57.90625 20.125 
Q 57.90625 9.515625 50.796875 4.046875 
Q 43.703125 -1.421875 29.984375 -1.421875 
Q 24.8125 -1.421875 18.96875 -0.25 
Q 13.140625 0.921875 6.890625 3.21875 
L 6.890625 13.375 
Q 12.890625 10.015625 18.65625 8.296875 
Q 24.421875 6.59375 29.984375 6.59375 
Q 38.421875 6.59375 43.015625 9.90625 
Q 47.609375 13.234375 47.609375 19.390625 
Q 47.609375 24.75 44.3125 27.78125 
Q 41.015625 30.8125 33.5 32.328125 
L 27.484375 33.5 
Q 16.453125 35.6875 11.515625 40.375 
Q 6.59375 45.0625 6.59375 53.421875 
Q 6.59375 63.09375 13.40625 68.65625 
Q 20.21875 74.21875 32.171875 74.21875 
Q 37.3125 74.21875 42.625 73.28125 
Q 47.953125 72.359375 53.515625 70.515625 
z
" id="DejaVuSans-83"/>
       <path d="M 9.421875 54.6875 
L 18.40625 54.6875 
L 18.40625 0 
L 9.421875 0 
z
M 9.421875 75.984375 
L 18.40625 75.984375 
L 18.40625 64.59375 
L 9.421875 64.59375 
z
" id="DejaVuSans-105"/>
       <path d="M 9.8125 72.90625 
L 19.671875 72.90625 
L 19.671875 8.296875 
L 55.171875 8.296875 
L 55.171875 0 
L 9.8125 0 
z
" id="DejaVuSans-76"/>
       <path d="M 8.6875 72.90625 
L 18.609375 72.90625 
L 18.609375 28.609375 
Q 18.609375 16.890625 22.84375 11.734375 
Q 27.09375 6.59375 36.625 6.59375 
Q 46.09375 6.59375 50.34375 11.734375 
Q 54.59375 16.890625 54.59375 28.609375 
L 54.59375 72.90625 
L 64.5 72.90625 
L 64.5 27.390625 
Q 64.5 13.140625 57.4375 5.859375 
Q 50.390625 -1.421875 36.625 -1.421875 
Q 22.796875 -1.421875 15.734375 5.859375 
Q 8.6875 13.140625 8.6875 27.390625 
z
" id="DejaVuSans-85"/>
       <path d="M 37.796875 64.3125 
L 12.890625 25.390625 
L 37.796875 25.390625 
z
M 35.203125 72.90625 
L 47.609375 72.90625 
L 47.609375 25.390625 
L 58.015625 25.390625 
L 58.015625 17.1875 
L 47.609375 17.1875 
L 47.609375 0 
L 37.796875 0 
L 37.796875 17.1875 
L 4.890625 17.1875 
L 4.890625 26.703125 
z
" id="DejaVuSans-52"/>
      </defs>
      <use xlink:href="#DejaVuSans-65"/>
      <use x="66.658203" xlink:href="#DejaVuSans-100"/>
      <use x="130.134766" xlink:href="#DejaVuSans-106"/>
      <use x="157.917969" xlink:href="#DejaVuSans-117"/>
      <use x="221.296875" xlink:href="#DejaVuSans-115"/>
      <use x="273.396484" xlink:href="#DejaVuSans-116"/>
      <use x="312.605469" xlink:href="#DejaVuSans-101"/>
      <use x="374.128906" xlink:href="#DejaVuSans-100"/>
      <use x="437.605469" xlink:href="#DejaVuSans-32"/>
      <use x="469.392578" xlink:href="#DejaVuSans-100"/>
      <use x="532.869141" xlink:href="#DejaVuSans-83"/>
      <use x="596.345703" xlink:href="#DejaVuSans-105"/>
      <use x="624.128906" xlink:href="#DejaVuSans-76"/>
      <use x="674.841797" xlink:href="#DejaVuSans-85"/>
      <use x="748.035156" xlink:href="#DejaVuSans-32"/>
      <use x="779.822266" xlink:href="#DejaVuSans-40"/>
      <use x="818.835938" xlink:href="#DejaVuSans-50"/>
      <use x="882.458984" xlink:href="#DejaVuSans-53"/>
      <use x="946.082031" xlink:href="#DejaVuSans-46"/>
      <use x="977.869141" xlink:href="#DejaVuSans-52"/>
      <use x="1041.492188" xlink:href="#DejaVuSans-41"/>
     </g>
    </g>
   </g>
  </g>
  <g id="axes_2">
   <g id="matplotlib.axis_3"/>
   <g id="patch_8">
    <path clip-path="url(#pe1dc555f21)" d="M 51.913636 192.24 
L 52.88501 192.24 
L 52.88501 187.079909 
L 51.913636 187.079909 
z
" style="fill:#808080;fill-opacity:0.6;stroke:#808080;stroke-linejoin:miter;stroke-opacity:0.6;"/>
   </g>
   <g id="patch_9">
    <path clip-path="url(#pe1dc555f21)" d="M 52.88501 192.24 
L 53.856383 192.24 
L 53.856383 191.816991 
L 52.88501 191.816991 
z
" style="fill:#808080;fill-opacity:0.6;stroke:#808080;stroke-linejoin:miter;stroke-opacity:0.6;"/>
   </g>
   <g id="patch_10">
    <path clip-path="url(#pe1dc555f21)" d="M 53.856383 192.24 
L 54.827756 192.24 
L 54.827756 191.608149 
L 53.856383 191.608149 
z
" style="fill:#808080;fill-opacity:0.6;stroke:#808080;stroke-linejoin:miter;stroke-opacity:0.6;"/>
   </g>
   <g id="patch_11">
    <path clip-path="url(#pe1dc555f21)" d="M 54.827756 192.24 
L 55.79913 192.24 
L 55.79913 186.857009 
L 54.827756 186.857009 
z
" style="fill:#808080;fill-opacity:0.6;stroke:#808080;stroke-linejoin:miter;stroke-opacity:0.6;"/>
   </g>
   <g id="patch_12">
    <path clip-path="url(#pe1dc555f21)" d="M 55.79913 192.24 
L 56.770503 192.24 
L 56.770503 191.611476 
L 55.79913 191.611476 
z
" style="fill:#808080;fill-opacity:0.6;stroke:#808080;stroke-linejoin:miter;stroke-opacity:0.6;"/>
   </g>
   <g id="patch_13">
    <path clip-path="url(#pe1dc555f21)" d="M 56.770503 192.24 
L 57.741876 192.24 
L 57.741876 191.615663 
L 56.770503 191.615663 
z
" style="fill:#808080;fill-opacity:0.6;stroke:#808080;stroke-linejoin:miter;stroke-opacity:0.6;"/>
   </g>
   <g id="patch_14">
    <path clip-path="url(#pe1dc555f21)" d="M 57.741876 192.24 
L 58.71325 192.24 
L 58.71325 191.912373 
L 57.741876 191.912373 
z
" style="fill:#808080;fill-opacity:0.6;stroke:#808080;stroke-linejoin:miter;stroke-opacity:0.6;"/>
   </g>
   <g id="patch_15">
    <path clip-path="url(#pe1dc555f21)" d="M 58.71325 192.24 
L 59.684623 192.24 
L 59.684623 191.641865 
L 58.71325 191.641865 
z
" style="fill:#808080;fill-opacity:0.6;stroke:#808080;stroke-linejoin:miter;stroke-opacity:0.6;"/>
   </g>
   <g id="patch_16">
    <path clip-path="url(#pe1dc555f21)" d="M 59.684623 192.24 
L 60.655996 192.24 
L 60.655996 189.608562 
L 59.684623 189.608562 
z
" style="fill:#808080;fill-opacity:0.6;stroke:#808080;stroke-linejoin:miter;stroke-opacity:0.6;"/>
   </g>
   <g id="patch_17">
    <path clip-path="url(#pe1dc555f21)" d="M 60.655996 192.24 
L 61.627369 192.24 
L 61.627369 191.592039 
L 60.655996 191.592039 
z
" style="fill:#808080;fill-opacity:0.6;stroke:#808080;stroke-linejoin:miter;stroke-opacity:0.6;"/>
   </g>
   <g id="patch_18">
    <path clip-path="url(#pe1dc555f21)" d="M 61.627369 192.24 
L 62.598743 192.24 
L 62.598743 191.731702 
L 61.627369 191.731702 
z
" style="fill:#808080;fill-opacity:0.6;stroke:#808080;stroke-linejoin:miter;stroke-opacity:0.6;"/>
   </g>
   <g id="patch_19">
    <path clip-path="url(#pe1dc555f21)" d="M 62.598743 192.24 
L 63.570116 192.24 
L 63.570116 191.687366 
L 62.598743 191.687366 
z
" style="fill:#808080;fill-opacity:0.6;stroke:#808080;stroke-linejoin:miter;stroke-opacity:0.6;"/>
   </g>
   <g id="patch_20">
    <path clip-path="url(#pe1dc555f21)" d="M 63.570116 192.24 
L 64.541489 192.24 
L 64.541489 191.54579 
L 63.570116 191.54579 
z
" style="fill:#808080;fill-opacity:0.6;stroke:#808080;stroke-linejoin:miter;stroke-opacity:0.6;"/>
   </g>
   <g id="patch_21">
    <path clip-path="url(#pe1dc555f21)" d="M 64.541489 192.24 
L 65.512863 192.24 
L 65.512863 191.759402 
L 64.541489 191.759402 
z
" style="fill:#808080;fill-opacity:0.6;stroke:#808080;stroke-linejoin:miter;stroke-opacity:0.6;"/>
   </g>
   <g id="patch_22">
    <path clip-path="url(#pe1dc555f21)" d="M 65.512863 192.24 
L 66.484236 192.24 
L 66.484236 191.708078 
L 65.512863 191.708078 
z
" style="fill:#808080;fill-opacity:0.6;stroke:#808080;stroke-linejoin:miter;stroke-opacity:0.6;"/>
   </g>
   <g id="patch_23">
    <path clip-path="url(#pe1dc555f21)" d="M 66.484236 192.24 
L 67.455609 192.24 
L 67.455609 191.885811 
L 66.484236 191.885811 
z
" style="fill:#808080;fill-opacity:0.6;stroke:#808080;stroke-linejoin:miter;stroke-opacity:0.6;"/>
   </g>
   <g id="patch_24">
    <path clip-path="url(#pe1dc555f21)" d="M 67.455609 192.24 
L 68.426983 192.24 
L 68.426983 191.735944 
L 67.455609 191.735944 
z
" style="fill:#808080;fill-opacity:0.6;stroke:#808080;stroke-linejoin:miter;stroke-opacity:0.6;"/>
   </g>
   <g id="patch_25">
    <path clip-path="url(#pe1dc555f21)" d="M 68.426983 192.24 
L 69.398356 192.24 
L 69.398356 191.520336 
L 68.426983 191.520336 
z
" style="fill:#808080;fill-opacity:0.6;stroke:#808080;stroke-linejoin:miter;stroke-opacity:0.6;"/>
   </g>
   <g id="patch_26">
    <path clip-path="url(#pe1dc555f21)" d="M 69.398356 192.24 
L 70.369729 192.24 
L 70.369729 191.462275 
L 69.398356 191.462275 
z
" style="fill:#808080;fill-opacity:0.6;stroke:#808080;stroke-linejoin:miter;stroke-opacity:0.6;"/>
   </g>
   <g id="patch_27">
    <path clip-path="url(#pe1dc555f21)" d="M 70.369729 192.24 
L 71.341103 192.24 
L 71.341103 191.877686 
L 70.369729 191.877686 
z
" style="fill:#808080;fill-opacity:0.6;stroke:#808080;stroke-linejoin:miter;stroke-opacity:0.6;"/>
   </g>
   <g id="patch_28">
    <path clip-path="url(#pe1dc555f21)" d="M 71.341103 192.24 
L 72.312476 192.24 
L 72.312476 191.664435 
L 71.341103 191.664435 
z
" style="fill:#808080;fill-opacity:0.6;stroke:#808080;stroke-linejoin:miter;stroke-opacity:0.6;"/>
   </g>
   <g id="patch_29">
    <path clip-path="url(#pe1dc555f21)" d="M 72.312476 192.24 
L 73.283849 192.24 
L 73.283849 191.88606 
L 72.312476 191.88606 
z
" style="fill:#808080;fill-opacity:0.6;stroke:#808080;stroke-linejoin:miter;stroke-opacity:0.6;"/>
   </g>
   <g id="patch_30">
    <path clip-path="url(#pe1dc555f21)" d="M 73.283849 192.24 
L 74.255222 192.24 
L 74.255222 191.695823 
L 73.283849 191.695823 
z
" style="fill:#808080;fill-opacity:0.6;stroke:#808080;stroke-linejoin:miter;stroke-opacity:0.6;"/>
   </g>
   <g id="patch_31">
    <path clip-path="url(#pe1dc555f21)" d="M 74.255222 192.24 
L 75.226596 192.24 
L 75.226596 191.873278 
L 74.255222 191.873278 
z
" style="fill:#808080;fill-opacity:0.6;stroke:#808080;stroke-linejoin:miter;stroke-opacity:0.6;"/>
   </g>
   <g id="patch_32">
    <path clip-path="url(#pe1dc555f21)" d="M 75.226596 192.24 
L 76.197969 192.24 
L 76.197969 191.52322 
L 75.226596 191.52322 
z
" style="fill:#808080;fill-opacity:0.6;stroke:#808080;stroke-linejoin:miter;stroke-opacity:0.6;"/>
   </g>
   <g id="patch_33">
    <path clip-path="url(#pe1dc555f21)" d="M 76.197969 192.24 
L 77.169342 192.24 
L 77.169342 191.59154 
L 76.197969 191.59154 
z
" style="fill:#808080;fill-opacity:0.6;stroke:#808080;stroke-linejoin:miter;stroke-opacity:0.6;"/>
   </g>
   <g id="patch_34">
    <path clip-path="url(#pe1dc555f21)" d="M 77.169342 192.24 
L 78.140716 192.24 
L 78.140716 191.798802 
L 77.169342 191.798802 
z
" style="fill:#808080;fill-opacity:0.6;stroke:#808080;stroke-linejoin:miter;stroke-opacity:0.6;"/>
   </g>
   <g id="patch_35">
    <path clip-path="url(#pe1dc555f21)" d="M 78.140716 192.24 
L 79.112089 192.24 
L 79.112089 191.762923 
L 78.140716 191.762923 
z
" style="fill:#808080;fill-opacity:0.6;stroke:#808080;stroke-linejoin:miter;stroke-opacity:0.6;"/>
   </g>
   <g id="patch_36">
    <path clip-path="url(#pe1dc555f21)" d="M 79.112089 192.24 
L 80.083462 192.24 
L 80.083462 187.856719 
L 79.112089 187.856719 
z
" style="fill:#808080;fill-opacity:0.6;stroke:#808080;stroke-linejoin:miter;stroke-opacity:0.6;"/>
   </g>
   <g id="patch_37">
    <path clip-path="url(#pe1dc555f21)" d="M 80.083462 192.24 
L 81.054836 192.24 
L 81.054836 191.445777 
L 80.083462 191.445777 
z
" style="fill:#808080;fill-opacity:0.6;stroke:#808080;stroke-linejoin:miter;stroke-opacity:0.6;"/>
   </g>
   <g id="patch_38">
    <path clip-path="url(#pe1dc555f21)" d="M 81.054836 192.24 
L 82.026209 192.24 
L 82.026209 191.807037 
L 81.054836 191.807037 
z
" style="fill:#808080;fill-opacity:0.6;stroke:#808080;stroke-linejoin:miter;stroke-opacity:0.6;"/>
   </g>
   <g id="patch_39">
    <path clip-path="url(#pe1dc555f21)" d="M 82.026209 192.24 
L 82.997582 192.24 
L 82.997582 191.565421 
L 82.026209 191.565421 
z
" style="fill:#808080;fill-opacity:0.6;stroke:#808080;stroke-linejoin:miter;stroke-opacity:0.6;"/>
   </g>
   <g id="patch_40">
    <path clip-path="url(#pe1dc555f21)" d="M 82.997582 192.24 
L 83.968956 192.24 
L 83.968956 188.384759 
L 82.997582 188.384759 
z
" style="fill:#808080;fill-opacity:0.6;stroke:#808080;stroke-linejoin:miter;stroke-opacity:0.6;"/>
   </g>
   <g id="patch_41">
    <path clip-path="url(#pe1dc555f21)" d="M 83.968956 192.24 
L 84.940329 192.24 
L 84.940329 191.641976 
L 83.968956 191.641976 
z
" style="fill:#808080;fill-opacity:0.6;stroke:#808080;stroke-linejoin:miter;stroke-opacity:0.6;"/>
   </g>
   <g id="patch_42">
    <path clip-path="url(#pe1dc555f21)" d="M 84.940329 192.24 
L 85.911702 192.24 
L 85.911702 191.634878 
L 84.940329 191.634878 
z
" style="fill:#808080;fill-opacity:0.6;stroke:#808080;stroke-linejoin:miter;stroke-opacity:0.6;"/>
   </g>
   <g id="patch_43">
    <path clip-path="url(#pe1dc555f21)" d="M 85.911702 192.24 
L 86.883075 192.24 
L 86.883075 191.696571 
L 85.911702 191.696571 
z
" style="fill:#808080;fill-opacity:0.6;stroke:#808080;stroke-linejoin:miter;stroke-opacity:0.6;"/>
   </g>
   <g id="patch_44">
    <path clip-path="url(#pe1dc555f21)" d="M 86.883075 192.24 
L 87.854449 192.24 
L 87.854449 191.46405 
L 86.883075 191.46405 
z
" style="fill:#808080;fill-opacity:0.6;stroke:#808080;stroke-linejoin:miter;stroke-opacity:0.6;"/>
   </g>
   <g id="patch_45">
    <path clip-path="url(#pe1dc555f21)" d="M 87.854449 192.24 
L 88.825822 192.24 
L 88.825822 191.777702 
L 87.854449 191.777702 
z
" style="fill:#808080;fill-opacity:0.6;stroke:#808080;stroke-linejoin:miter;stroke-opacity:0.6;"/>
   </g>
   <g id="patch_46">
    <path clip-path="url(#pe1dc555f21)" d="M 88.825822 192.24 
L 89.797195 192.24 
L 89.797195 191.827528 
L 88.825822 191.827528 
z
" style="fill:#808080;fill-opacity:0.6;stroke:#808080;stroke-linejoin:miter;stroke-opacity:0.6;"/>
   </g>
   <g id="patch_47">
    <path clip-path="url(#pe1dc555f21)" d="M 89.797195 192.24 
L 90.768569 192.24 
L 90.768569 191.822315 
L 89.797195 191.822315 
z
" style="fill:#808080;fill-opacity:0.6;stroke:#808080;stroke-linejoin:miter;stroke-opacity:0.6;"/>
   </g>
   <g id="patch_48">
    <path clip-path="url(#pe1dc555f21)" d="M 90.768569 192.24 
L 91.739942 192.24 
L 91.739942 191.820845 
L 90.768569 191.820845 
z
" style="fill:#808080;fill-opacity:0.6;stroke:#808080;stroke-linejoin:miter;stroke-opacity:0.6;"/>
   </g>
   <g id="patch_49">
    <path clip-path="url(#pe1dc555f21)" d="M 91.739942 192.24 
L 92.711315 192.24 
L 92.711315 191.653123 
L 91.739942 191.653123 
z
" style="fill:#808080;fill-opacity:0.6;stroke:#808080;stroke-linejoin:miter;stroke-opacity:0.6;"/>
   </g>
   <g id="patch_50">
    <path clip-path="url(#pe1dc555f21)" d="M 92.711315 192.24 
L 93.682689 192.24 
L 93.682689 191.621846 
L 92.711315 191.621846 
z
" style="fill:#808080;fill-opacity:0.6;stroke:#808080;stroke-linejoin:miter;stroke-opacity:0.6;"/>
   </g>
   <g id="patch_51">
    <path clip-path="url(#pe1dc555f21)" d="M 93.682689 192.24 
L 94.654062 192.24 
L 94.654062 191.756712 
L 93.682689 191.756712 
z
" style="fill:#808080;fill-opacity:0.6;stroke:#808080;stroke-linejoin:miter;stroke-opacity:0.6;"/>
   </g>
   <g id="patch_52">
    <path clip-path="url(#pe1dc555f21)" d="M 94.654062 192.24 
L 95.625435 192.24 
L 95.625435 191.786574 
L 94.654062 191.786574 
z
" style="fill:#808080;fill-opacity:0.6;stroke:#808080;stroke-linejoin:miter;stroke-opacity:0.6;"/>
   </g>
   <g id="patch_53">
    <path clip-path="url(#pe1dc555f21)" d="M 95.625435 192.24 
L 96.596809 192.24 
L 96.596809 191.535947 
L 95.625435 191.535947 
z
" style="fill:#808080;fill-opacity:0.6;stroke:#808080;stroke-linejoin:miter;stroke-opacity:0.6;"/>
   </g>
   <g id="patch_54">
    <path clip-path="url(#pe1dc555f21)" d="M 96.596809 192.24 
L 97.568182 192.24 
L 97.568182 191.786048 
L 96.596809 191.786048 
z
" style="fill:#808080;fill-opacity:0.6;stroke:#808080;stroke-linejoin:miter;stroke-opacity:0.6;"/>
   </g>
   <g id="patch_55">
    <path clip-path="url(#pe1dc555f21)" d="M 97.568182 192.24 
L 98.539555 192.24 
L 98.539555 191.721276 
L 97.568182 191.721276 
z
" style="fill:#808080;fill-opacity:0.6;stroke:#808080;stroke-linejoin:miter;stroke-opacity:0.6;"/>
   </g>
   <g id="patch_56">
    <path clip-path="url(#pe1dc555f21)" d="M 98.539555 192.24 
L 99.510928 192.24 
L 99.510928 191.535669 
L 98.539555 191.535669 
z
" style="fill:#808080;fill-opacity:0.6;stroke:#808080;stroke-linejoin:miter;stroke-opacity:0.6;"/>
   </g>
   <g id="patch_57">
    <path clip-path="url(#pe1dc555f21)" d="M 99.510928 192.24 
L 100.482302 192.24 
L 100.482302 191.602964 
L 99.510928 191.602964 
z
" style="fill:#808080;fill-opacity:0.6;stroke:#808080;stroke-linejoin:miter;stroke-opacity:0.6;"/>
   </g>
   <g id="patch_58">
    <path clip-path="url(#pe1dc555f21)" d="M 100.482302 192.24 
L 101.453675 192.24 
L 101.453675 191.565615 
L 100.482302 191.565615 
z
" style="fill:#808080;fill-opacity:0.6;stroke:#808080;stroke-linejoin:miter;stroke-opacity:0.6;"/>
   </g>
   <g id="patch_59">
    <path clip-path="url(#pe1dc555f21)" d="M 101.453675 192.24 
L 102.425048 192.24 
L 102.425048 191.729484 
L 101.453675 191.729484 
z
" style="fill:#808080;fill-opacity:0.6;stroke:#808080;stroke-linejoin:miter;stroke-opacity:0.6;"/>
   </g>
   <g id="patch_60">
    <path clip-path="url(#pe1dc555f21)" d="M 102.425048 192.24 
L 103.396422 192.24 
L 103.396422 191.721055 
L 102.425048 191.721055 
z
" style="fill:#808080;fill-opacity:0.6;stroke:#808080;stroke-linejoin:miter;stroke-opacity:0.6;"/>
   </g>
   <g id="patch_61">
    <path clip-path="url(#pe1dc555f21)" d="M 103.396422 192.24 
L 104.367795 192.24 
L 104.367795 191.433411 
L 103.396422 191.433411 
z
" style="fill:#808080;fill-opacity:0.6;stroke:#808080;stroke-linejoin:miter;stroke-opacity:0.6;"/>
   </g>
   <g id="patch_62">
    <path clip-path="url(#pe1dc555f21)" d="M 104.367795 192.24 
L 105.339168 192.24 
L 105.339168 191.691359 
L 104.367795 191.691359 
z
" style="fill:#808080;fill-opacity:0.6;stroke:#808080;stroke-linejoin:miter;stroke-opacity:0.6;"/>
   </g>
   <g id="patch_63">
    <path clip-path="url(#pe1dc555f21)" d="M 105.339168 192.24 
L 106.310542 192.24 
L 106.310542 191.264024 
L 105.339168 191.264024 
z
" style="fill:#808080;fill-opacity:0.6;stroke:#808080;stroke-linejoin:miter;stroke-opacity:0.6;"/>
   </g>
   <g id="patch_64">
    <path clip-path="url(#pe1dc555f21)" d="M 106.310542 192.24 
L 107.281915 192.24 
L 107.281915 191.506167 
L 106.310542 191.506167 
z
" style="fill:#808080;fill-opacity:0.6;stroke:#808080;stroke-linejoin:miter;stroke-opacity:0.6;"/>
   </g>
   <g id="patch_65">
    <path clip-path="url(#pe1dc555f21)" d="M 107.281915 192.24 
L 108.253288 192.24 
L 108.253288 191.629027 
L 107.281915 191.629027 
z
" style="fill:#808080;fill-opacity:0.6;stroke:#808080;stroke-linejoin:miter;stroke-opacity:0.6;"/>
   </g>
   <g id="patch_66">
    <path clip-path="url(#pe1dc555f21)" d="M 108.253288 192.24 
L 109.224662 192.24 
L 109.224662 191.625866 
L 108.253288 191.625866 
z
" style="fill:#808080;fill-opacity:0.6;stroke:#808080;stroke-linejoin:miter;stroke-opacity:0.6;"/>
   </g>
   <g id="patch_67">
    <path clip-path="url(#pe1dc555f21)" d="M 109.224662 192.24 
L 110.196035 192.24 
L 110.196035 191.551474 
L 109.224662 191.551474 
z
" style="fill:#808080;fill-opacity:0.6;stroke:#808080;stroke-linejoin:miter;stroke-opacity:0.6;"/>
   </g>
   <g id="patch_68">
    <path clip-path="url(#pe1dc555f21)" d="M 110.196035 192.24 
L 111.167408 192.24 
L 111.167408 191.541686 
L 110.196035 191.541686 
z
" style="fill:#808080;fill-opacity:0.6;stroke:#808080;stroke-linejoin:miter;stroke-opacity:0.6;"/>
   </g>
   <g id="patch_69">
    <path clip-path="url(#pe1dc555f21)" d="M 111.167408 192.24 
L 112.138781 192.24 
L 112.138781 191.507887 
L 111.167408 191.507887 
z
" style="fill:#808080;fill-opacity:0.6;stroke:#808080;stroke-linejoin:miter;stroke-opacity:0.6;"/>
   </g>
   <g id="patch_70">
    <path clip-path="url(#pe1dc555f21)" d="M 112.138781 192.24 
L 113.110155 192.24 
L 113.110155 191.51504 
L 112.138781 191.51504 
z
" style="fill:#808080;fill-opacity:0.6;stroke:#808080;stroke-linejoin:miter;stroke-opacity:0.6;"/>
   </g>
   <g id="patch_71">
    <path clip-path="url(#pe1dc555f21)" d="M 113.110155 192.24 
L 114.081528 192.24 
L 114.081528 191.503506 
L 113.110155 191.503506 
z
" style="fill:#808080;fill-opacity:0.6;stroke:#808080;stroke-linejoin:miter;stroke-opacity:0.6;"/>
   </g>
   <g id="patch_72">
    <path clip-path="url(#pe1dc555f21)" d="M 114.081528 192.24 
L 115.052901 192.24 
L 115.052901 191.244782 
L 114.081528 191.244782 
z
" style="fill:#808080;fill-opacity:0.6;stroke:#808080;stroke-linejoin:miter;stroke-opacity:0.6;"/>
   </g>
   <g id="patch_73">
    <path clip-path="url(#pe1dc555f21)" d="M 115.052901 192.24 
L 116.024275 192.24 
L 116.024275 191.389435 
L 115.052901 191.389435 
z
" style="fill:#808080;fill-opacity:0.6;stroke:#808080;stroke-linejoin:miter;stroke-opacity:0.6;"/>
   </g>
   <g id="patch_74">
    <path clip-path="url(#pe1dc555f21)" d="M 116.024275 192.24 
L 116.995648 192.24 
L 116.995648 191.232471 
L 116.024275 191.232471 
z
" style="fill:#808080;fill-opacity:0.6;stroke:#808080;stroke-linejoin:miter;stroke-opacity:0.6;"/>
   </g>
   <g id="patch_75">
    <path clip-path="url(#pe1dc555f21)" d="M 116.995648 192.24 
L 117.967021 192.24 
L 117.967021 188.815614 
L 116.995648 188.815614 
z
" style="fill:#808080;fill-opacity:0.6;stroke:#808080;stroke-linejoin:miter;stroke-opacity:0.6;"/>
   </g>
   <g id="patch_76">
    <path clip-path="url(#pe1dc555f21)" d="M 117.967021 192.24 
L 118.938395 192.24 
L 118.938395 190.991936 
L 117.967021 190.991936 
z
" style="fill:#808080;fill-opacity:0.6;stroke:#808080;stroke-linejoin:miter;stroke-opacity:0.6;"/>
   </g>
   <g id="patch_77">
    <path clip-path="url(#pe1dc555f21)" d="M 118.938395 192.24 
L 119.909768 192.24 
L 119.909768 191.101071 
L 118.938395 191.101071 
z
" style="fill:#808080;fill-opacity:0.6;stroke:#808080;stroke-linejoin:miter;stroke-opacity:0.6;"/>
   </g>
   <g id="patch_78">
    <path clip-path="url(#pe1dc555f21)" d="M 119.909768 192.24 
L 120.881141 192.24 
L 120.881141 186.05907 
L 119.909768 186.05907 
z
" style="fill:#808080;fill-opacity:0.6;stroke:#808080;stroke-linejoin:miter;stroke-opacity:0.6;"/>
   </g>
   <g id="patch_79">
    <path clip-path="url(#pe1dc555f21)" d="M 120.881141 192.24 
L 121.852515 192.24 
L 121.852515 190.80167 
L 120.881141 190.80167 
z
" style="fill:#808080;fill-opacity:0.6;stroke:#808080;stroke-linejoin:miter;stroke-opacity:0.6;"/>
   </g>
   <g id="patch_80">
    <path clip-path="url(#pe1dc555f21)" d="M 121.852515 192.24 
L 122.823888 192.24 
L 122.823888 190.9687 
L 121.852515 190.9687 
z
" style="fill:#808080;fill-opacity:0.6;stroke:#808080;stroke-linejoin:miter;stroke-opacity:0.6;"/>
   </g>
   <g id="patch_81">
    <path clip-path="url(#pe1dc555f21)" d="M 122.823888 192.24 
L 123.795261 192.24 
L 123.795261 190.805552 
L 122.823888 190.805552 
z
" style="fill:#808080;fill-opacity:0.6;stroke:#808080;stroke-linejoin:miter;stroke-opacity:0.6;"/>
   </g>
   <g id="patch_82">
    <path clip-path="url(#pe1dc555f21)" d="M 123.795261 192.24 
L 124.766634 192.24 
L 124.766634 190.813565 
L 123.795261 190.813565 
z
" style="fill:#808080;fill-opacity:0.6;stroke:#808080;stroke-linejoin:miter;stroke-opacity:0.6;"/>
   </g>
   <g id="patch_83">
    <path clip-path="url(#pe1dc555f21)" d="M 124.766634 192.24 
L 125.738008 192.24 
L 125.738008 190.924558 
L 124.766634 190.924558 
z
" style="fill:#808080;fill-opacity:0.6;stroke:#808080;stroke-linejoin:miter;stroke-opacity:0.6;"/>
   </g>
   <g id="patch_84">
    <path clip-path="url(#pe1dc555f21)" d="M 125.738008 192.24 
L 126.709381 192.24 
L 126.709381 190.721039 
L 125.738008 190.721039 
z
" style="fill:#808080;fill-opacity:0.6;stroke:#808080;stroke-linejoin:miter;stroke-opacity:0.6;"/>
   </g>
   <g id="patch_85">
    <path clip-path="url(#pe1dc555f21)" d="M 126.709381 192.24 
L 127.680754 192.24 
L 127.680754 189.693546 
L 126.709381 189.693546 
z
" style="fill:#808080;fill-opacity:0.6;stroke:#808080;stroke-linejoin:miter;stroke-opacity:0.6;"/>
   </g>
   <g id="patch_86">
    <path clip-path="url(#pe1dc555f21)" d="M 127.680754 192.24 
L 128.652128 192.24 
L 128.652128 190.094318 
L 127.680754 190.094318 
z
" style="fill:#808080;fill-opacity:0.6;stroke:#808080;stroke-linejoin:miter;stroke-opacity:0.6;"/>
   </g>
   <g id="patch_87">
    <path clip-path="url(#pe1dc555f21)" d="M 128.652128 192.24 
L 129.623501 192.24 
L 129.623501 190.756336 
L 128.652128 190.756336 
z
" style="fill:#808080;fill-opacity:0.6;stroke:#808080;stroke-linejoin:miter;stroke-opacity:0.6;"/>
   </g>
   <g id="patch_88">
    <path clip-path="url(#pe1dc555f21)" d="M 129.623501 192.24 
L 130.594874 192.24 
L 130.594874 189.669812 
L 129.623501 189.669812 
z
" style="fill:#808080;fill-opacity:0.6;stroke:#808080;stroke-linejoin:miter;stroke-opacity:0.6;"/>
   </g>
   <g id="patch_89">
    <path clip-path="url(#pe1dc555f21)" d="M 130.594874 192.24 
L 131.566248 192.24 
L 131.566248 190.729995 
L 130.594874 190.729995 
z
" style="fill:#808080;fill-opacity:0.6;stroke:#808080;stroke-linejoin:miter;stroke-opacity:0.6;"/>
   </g>
   <g id="patch_90">
    <path clip-path="url(#pe1dc555f21)" d="M 131.566248 192.24 
L 132.537621 192.24 
L 132.537621 190.651305 
L 131.566248 190.651305 
z
" style="fill:#808080;fill-opacity:0.6;stroke:#808080;stroke-linejoin:miter;stroke-opacity:0.6;"/>
   </g>
   <g id="patch_91">
    <path clip-path="url(#pe1dc555f21)" d="M 132.537621 192.24 
L 133.508994 192.24 
L 133.508994 190.53765 
L 132.537621 190.53765 
z
" style="fill:#808080;fill-opacity:0.6;stroke:#808080;stroke-linejoin:miter;stroke-opacity:0.6;"/>
   </g>
   <g id="patch_92">
    <path clip-path="url(#pe1dc555f21)" d="M 133.508994 192.24 
L 134.480368 192.24 
L 134.480368 190.699911 
L 133.508994 190.699911 
z
" style="fill:#808080;fill-opacity:0.6;stroke:#808080;stroke-linejoin:miter;stroke-opacity:0.6;"/>
   </g>
   <g id="patch_93">
    <path clip-path="url(#pe1dc555f21)" d="M 134.480368 192.24 
L 135.451741 192.24 
L 135.451741 187.324132 
L 134.480368 187.324132 
z
" style="fill:#808080;fill-opacity:0.6;stroke:#808080;stroke-linejoin:miter;stroke-opacity:0.6;"/>
   </g>
   <g id="patch_94">
    <path clip-path="url(#pe1dc555f21)" d="M 135.451741 192.24 
L 136.423114 192.24 
L 136.423114 190.146195 
L 135.451741 190.146195 
z
" style="fill:#808080;fill-opacity:0.6;stroke:#808080;stroke-linejoin:miter;stroke-opacity:0.6;"/>
   </g>
   <g id="patch_95">
    <path clip-path="url(#pe1dc555f21)" d="M 136.423114 192.24 
L 137.394487 192.24 
L 137.394487 188.511972 
L 136.423114 188.511972 
z
" style="fill:#808080;fill-opacity:0.6;stroke:#808080;stroke-linejoin:miter;stroke-opacity:0.6;"/>
   </g>
   <g id="patch_96">
    <path clip-path="url(#pe1dc555f21)" d="M 137.394487 192.24 
L 138.365861 192.24 
L 138.365861 190.73579 
L 137.394487 190.73579 
z
" style="fill:#808080;fill-opacity:0.6;stroke:#808080;stroke-linejoin:miter;stroke-opacity:0.6;"/>
   </g>
   <g id="patch_97">
    <path clip-path="url(#pe1dc555f21)" d="M 138.365861 192.24 
L 139.337234 192.24 
L 139.337234 190.53338 
L 138.365861 190.53338 
z
" style="fill:#808080;fill-opacity:0.6;stroke:#808080;stroke-linejoin:miter;stroke-opacity:0.6;"/>
   </g>
   <g id="patch_98">
    <path clip-path="url(#pe1dc555f21)" d="M 139.337234 192.24 
L 140.308607 192.24 
L 140.308607 190.519378 
L 139.337234 190.519378 
z
" style="fill:#808080;fill-opacity:0.6;stroke:#808080;stroke-linejoin:miter;stroke-opacity:0.6;"/>
   </g>
   <g id="patch_99">
    <path clip-path="url(#pe1dc555f21)" d="M 140.308607 192.24 
L 141.279981 192.24 
L 141.279981 190.776633 
L 140.308607 190.776633 
z
" style="fill:#808080;fill-opacity:0.6;stroke:#808080;stroke-linejoin:miter;stroke-opacity:0.6;"/>
   </g>
   <g id="patch_100">
    <path clip-path="url(#pe1dc555f21)" d="M 141.279981 192.24 
L 142.251354 192.24 
L 142.251354 190.382183 
L 141.279981 190.382183 
z
" style="fill:#808080;fill-opacity:0.6;stroke:#808080;stroke-linejoin:miter;stroke-opacity:0.6;"/>
   </g>
   <g id="patch_101">
    <path clip-path="url(#pe1dc555f21)" d="M 142.251354 192.24 
L 143.222727 192.24 
L 143.222727 190.150854 
L 142.251354 190.150854 
z
" style="fill:#808080;fill-opacity:0.6;stroke:#808080;stroke-linejoin:miter;stroke-opacity:0.6;"/>
   </g>
   <g id="patch_102">
    <path clip-path="url(#pe1dc555f21)" d="M 143.222727 192.24 
L 144.194101 192.24 
L 144.194101 187.390733 
L 143.222727 187.390733 
z
" style="fill:#808080;fill-opacity:0.6;stroke:#808080;stroke-linejoin:miter;stroke-opacity:0.6;"/>
   </g>
   <g id="patch_103">
    <path clip-path="url(#pe1dc555f21)" d="M 144.194101 192.24 
L 145.165474 192.24 
L 145.165474 190.170124 
L 144.194101 190.170124 
z
" style="fill:#808080;fill-opacity:0.6;stroke:#808080;stroke-linejoin:miter;stroke-opacity:0.6;"/>
   </g>
   <g id="patch_104">
    <path clip-path="url(#pe1dc555f21)" d="M 145.165474 192.24 
L 146.136847 192.24 
L 146.136847 189.958398 
L 145.165474 189.958398 
z
" style="fill:#808080;fill-opacity:0.6;stroke:#808080;stroke-linejoin:miter;stroke-opacity:0.6;"/>
   </g>
   <g id="patch_105">
    <path clip-path="url(#pe1dc555f21)" d="M 146.136847 192.24 
L 147.108221 192.24 
L 147.108221 186.210517 
L 146.136847 186.210517 
z
" style="fill:#808080;fill-opacity:0.6;stroke:#808080;stroke-linejoin:miter;stroke-opacity:0.6;"/>
   </g>
   <g id="patch_106">
    <path clip-path="url(#pe1dc555f21)" d="M 147.108221 192.24 
L 148.079594 192.24 
L 148.079594 187.127988 
L 147.108221 187.127988 
z
" style="fill:#808080;fill-opacity:0.6;stroke:#808080;stroke-linejoin:miter;stroke-opacity:0.6;"/>
   </g>
   <g id="patch_107">
    <path clip-path="url(#pe1dc555f21)" d="M 148.079594 192.24 
L 149.050967 192.24 
L 149.050967 190.400012 
L 148.079594 190.400012 
z
" style="fill:#808080;fill-opacity:0.6;stroke:#808080;stroke-linejoin:miter;stroke-opacity:0.6;"/>
   </g>
   <g id="patch_108">
    <path clip-path="url(#pe1dc555f21)" d="M 149.050967 192.24 
L 150.02234 192.24 
L 150.02234 186.607213 
L 149.050967 186.607213 
z
" style="fill:#808080;fill-opacity:0.6;stroke:#808080;stroke-linejoin:miter;stroke-opacity:0.6;"/>
   </g>
   <g id="patch_109">
    <path clip-path="url(#pe1dc555f21)" d="M 150.02234 192.24 
L 150.993714 192.24 
L 150.993714 189.858385 
L 150.02234 189.858385 
z
" style="fill:#808080;fill-opacity:0.6;stroke:#808080;stroke-linejoin:miter;stroke-opacity:0.6;"/>
   </g>
   <g id="patch_110">
    <path clip-path="url(#pe1dc555f21)" d="M 150.993714 192.24 
L 151.965087 192.24 
L 151.965087 189.80709 
L 150.993714 189.80709 
z
" style="fill:#808080;fill-opacity:0.6;stroke:#808080;stroke-linejoin:miter;stroke-opacity:0.6;"/>
   </g>
   <g id="patch_111">
    <path clip-path="url(#pe1dc555f21)" d="M 151.965087 192.24 
L 152.93646 192.24 
L 152.93646 187.396223 
L 151.965087 187.396223 
z
" style="fill:#808080;fill-opacity:0.6;stroke:#808080;stroke-linejoin:miter;stroke-opacity:0.6;"/>
   </g>
   <g id="patch_112">
    <path clip-path="url(#pe1dc555f21)" d="M 152.93646 192.24 
L 153.907834 192.24 
L 153.907834 190.020729 
L 152.93646 190.020729 
z
" style="fill:#808080;fill-opacity:0.6;stroke:#808080;stroke-linejoin:miter;stroke-opacity:0.6;"/>
   </g>
   <g id="patch_113">
    <path clip-path="url(#pe1dc555f21)" d="M 153.907834 192.24 
L 154.879207 192.24 
L 154.879207 189.965413 
L 153.907834 189.965413 
z
" style="fill:#808080;fill-opacity:0.6;stroke:#808080;stroke-linejoin:miter;stroke-opacity:0.6;"/>
   </g>
   <g id="patch_114">
    <path clip-path="url(#pe1dc555f21)" d="M 154.879207 192.24 
L 155.85058 192.24 
L 155.85058 187.495071 
L 154.879207 187.495071 
z
" style="fill:#808080;fill-opacity:0.6;stroke:#808080;stroke-linejoin:miter;stroke-opacity:0.6;"/>
   </g>
   <g id="patch_115">
    <path clip-path="url(#pe1dc555f21)" d="M 155.85058 192.24 
L 156.821954 192.24 
L 156.821954 190.046654 
L 155.85058 190.046654 
z
" style="fill:#808080;fill-opacity:0.6;stroke:#808080;stroke-linejoin:miter;stroke-opacity:0.6;"/>
   </g>
   <g id="patch_116">
    <path clip-path="url(#pe1dc555f21)" d="M 156.821954 192.24 
L 157.793327 192.24 
L 157.793327 189.731422 
L 156.821954 189.731422 
z
" style="fill:#808080;fill-opacity:0.6;stroke:#808080;stroke-linejoin:miter;stroke-opacity:0.6;"/>
   </g>
   <g id="patch_117">
    <path clip-path="url(#pe1dc555f21)" d="M 157.793327 192.24 
L 158.7647 192.24 
L 158.7647 189.043838 
L 157.793327 189.043838 
z
" style="fill:#808080;fill-opacity:0.6;stroke:#808080;stroke-linejoin:miter;stroke-opacity:0.6;"/>
   </g>
   <g id="patch_118">
    <path clip-path="url(#pe1dc555f21)" d="M 158.7647 192.24 
L 159.736074 192.24 
L 159.736074 189.964886 
L 158.7647 189.964886 
z
" style="fill:#808080;fill-opacity:0.6;stroke:#808080;stroke-linejoin:miter;stroke-opacity:0.6;"/>
   </g>
   <g id="patch_119">
    <path clip-path="url(#pe1dc555f21)" d="M 159.736074 192.24 
L 160.707447 192.24 
L 160.707447 189.536249 
L 159.736074 189.536249 
z
" style="fill:#808080;fill-opacity:0.6;stroke:#808080;stroke-linejoin:miter;stroke-opacity:0.6;"/>
   </g>
   <g id="patch_120">
    <path clip-path="url(#pe1dc555f21)" d="M 160.707447 192.24 
L 161.67882 192.24 
L 161.67882 189.834124 
L 160.707447 189.834124 
z
" style="fill:#808080;fill-opacity:0.6;stroke:#808080;stroke-linejoin:miter;stroke-opacity:0.6;"/>
   </g>
   <g id="patch_121">
    <path clip-path="url(#pe1dc555f21)" d="M 161.67882 192.24 
L 162.650193 192.24 
L 162.650193 188.956192 
L 161.67882 188.956192 
z
" style="fill:#808080;fill-opacity:0.6;stroke:#808080;stroke-linejoin:miter;stroke-opacity:0.6;"/>
   </g>
   <g id="patch_122">
    <path clip-path="url(#pe1dc555f21)" d="M 162.650193 192.24 
L 163.621567 192.24 
L 163.621567 189.282793 
L 162.650193 189.282793 
z
" style="fill:#808080;fill-opacity:0.6;stroke:#808080;stroke-linejoin:miter;stroke-opacity:0.6;"/>
   </g>
   <g id="patch_123">
    <path clip-path="url(#pe1dc555f21)" d="M 163.621567 192.24 
L 164.59294 192.24 
L 164.59294 189.840196 
L 163.621567 189.840196 
z
" style="fill:#808080;fill-opacity:0.6;stroke:#808080;stroke-linejoin:miter;stroke-opacity:0.6;"/>
   </g>
   <g id="patch_124">
    <path clip-path="url(#pe1dc555f21)" d="M 164.59294 192.24 
L 165.564313 192.24 
L 165.564313 189.595641 
L 164.59294 189.595641 
z
" style="fill:#808080;fill-opacity:0.6;stroke:#808080;stroke-linejoin:miter;stroke-opacity:0.6;"/>
   </g>
   <g id="patch_125">
    <path clip-path="url(#pe1dc555f21)" d="M 165.564313 192.24 
L 166.535687 192.24 
L 166.535687 189.577119 
L 165.564313 189.577119 
z
" style="fill:#808080;fill-opacity:0.6;stroke:#808080;stroke-linejoin:miter;stroke-opacity:0.6;"/>
   </g>
   <g id="patch_126">
    <path clip-path="url(#pe1dc555f21)" d="M 166.535687 192.24 
L 167.50706 192.24 
L 167.50706 186.32883 
L 166.535687 186.32883 
z
" style="fill:#808080;fill-opacity:0.6;stroke:#808080;stroke-linejoin:miter;stroke-opacity:0.6;"/>
   </g>
   <g id="patch_127">
    <path clip-path="url(#pe1dc555f21)" d="M 167.50706 192.24 
L 168.478433 192.24 
L 168.478433 180.750139 
L 167.50706 180.750139 
z
" style="fill:#808080;fill-opacity:0.6;stroke:#808080;stroke-linejoin:miter;stroke-opacity:0.6;"/>
   </g>
   <g id="patch_128">
    <path clip-path="url(#pe1dc555f21)" d="M 168.478433 192.24 
L 169.449807 192.24 
L 169.449807 188.599868 
L 168.478433 188.599868 
z
" style="fill:#808080;fill-opacity:0.6;stroke:#808080;stroke-linejoin:miter;stroke-opacity:0.6;"/>
   </g>
   <g id="patch_129">
    <path clip-path="url(#pe1dc555f21)" d="M 169.449807 192.24 
L 170.42118 192.24 
L 170.42118 189.039485 
L 169.449807 189.039485 
z
" style="fill:#808080;fill-opacity:0.6;stroke:#808080;stroke-linejoin:miter;stroke-opacity:0.6;"/>
   </g>
   <g id="patch_130">
    <path clip-path="url(#pe1dc555f21)" d="M 170.42118 192.24 
L 171.392553 192.24 
L 171.392553 188.844534 
L 170.42118 188.844534 
z
" style="fill:#808080;fill-opacity:0.6;stroke:#808080;stroke-linejoin:miter;stroke-opacity:0.6;"/>
   </g>
   <g id="patch_131">
    <path clip-path="url(#pe1dc555f21)" d="M 171.392553 192.24 
L 172.363926 192.24 
L 172.363926 189.075559 
L 171.392553 189.075559 
z
" style="fill:#808080;fill-opacity:0.6;stroke:#808080;stroke-linejoin:miter;stroke-opacity:0.6;"/>
   </g>
   <g id="patch_132">
    <path clip-path="url(#pe1dc555f21)" d="M 172.363926 192.24 
L 173.3353 192.24 
L 173.3353 188.074462 
L 172.363926 188.074462 
z
" style="fill:#808080;fill-opacity:0.6;stroke:#808080;stroke-linejoin:miter;stroke-opacity:0.6;"/>
   </g>
   <g id="patch_133">
    <path clip-path="url(#pe1dc555f21)" d="M 173.3353 192.24 
L 174.306673 192.24 
L 174.306673 183.84662 
L 173.3353 183.84662 
z
" style="fill:#808080;fill-opacity:0.6;stroke:#808080;stroke-linejoin:miter;stroke-opacity:0.6;"/>
   </g>
   <g id="patch_134">
    <path clip-path="url(#pe1dc555f21)" d="M 174.306673 192.24 
L 175.278046 192.24 
L 175.278046 188.945046 
L 174.306673 188.945046 
z
" style="fill:#808080;fill-opacity:0.6;stroke:#808080;stroke-linejoin:miter;stroke-opacity:0.6;"/>
   </g>
   <g id="patch_135">
    <path clip-path="url(#pe1dc555f21)" d="M 175.278046 192.24 
L 176.24942 192.24 
L 176.24942 188.52273 
L 175.278046 188.52273 
z
" style="fill:#808080;fill-opacity:0.6;stroke:#808080;stroke-linejoin:miter;stroke-opacity:0.6;"/>
   </g>
   <g id="patch_136">
    <path clip-path="url(#pe1dc555f21)" d="M 176.24942 192.24 
L 177.220793 192.24 
L 177.220793 188.120988 
L 176.24942 188.120988 
z
" style="fill:#808080;fill-opacity:0.6;stroke:#808080;stroke-linejoin:miter;stroke-opacity:0.6;"/>
   </g>
   <g id="patch_137">
    <path clip-path="url(#pe1dc555f21)" d="M 177.220793 192.24 
L 178.192166 192.24 
L 178.192166 187.991585 
L 177.220793 187.991585 
z
" style="fill:#808080;fill-opacity:0.6;stroke:#808080;stroke-linejoin:miter;stroke-opacity:0.6;"/>
   </g>
   <g id="patch_138">
    <path clip-path="url(#pe1dc555f21)" d="M 178.192166 192.24 
L 179.16354 192.24 
L 179.16354 188.293896 
L 178.192166 188.293896 
z
" style="fill:#808080;fill-opacity:0.6;stroke:#808080;stroke-linejoin:miter;stroke-opacity:0.6;"/>
   </g>
   <g id="patch_139">
    <path clip-path="url(#pe1dc555f21)" d="M 179.16354 192.24 
L 180.134913 192.24 
L 180.134913 184.35539 
L 179.16354 184.35539 
z
" style="fill:#808080;fill-opacity:0.6;stroke:#808080;stroke-linejoin:miter;stroke-opacity:0.6;"/>
   </g>
   <g id="patch_140">
    <path clip-path="url(#pe1dc555f21)" d="M 180.134913 192.24 
L 181.106286 192.24 
L 181.106286 186.572803 
L 180.134913 186.572803 
z
" style="fill:#808080;fill-opacity:0.6;stroke:#808080;stroke-linejoin:miter;stroke-opacity:0.6;"/>
   </g>
   <g id="patch_141">
    <path clip-path="url(#pe1dc555f21)" d="M 181.106286 192.24 
L 182.07766 192.24 
L 182.07766 187.134227 
L 181.106286 187.134227 
z
" style="fill:#808080;fill-opacity:0.6;stroke:#808080;stroke-linejoin:miter;stroke-opacity:0.6;"/>
   </g>
   <g id="patch_142">
    <path clip-path="url(#pe1dc555f21)" d="M 182.07766 192.24 
L 183.049033 192.24 
L 183.049033 187.261828 
L 182.07766 187.261828 
z
" style="fill:#808080;fill-opacity:0.6;stroke:#808080;stroke-linejoin:miter;stroke-opacity:0.6;"/>
   </g>
   <g id="patch_143">
    <path clip-path="url(#pe1dc555f21)" d="M 183.049033 192.24 
L 184.020406 192.24 
L 184.020406 183.927473 
L 183.049033 183.927473 
z
" style="fill:#808080;fill-opacity:0.6;stroke:#808080;stroke-linejoin:miter;stroke-opacity:0.6;"/>
   </g>
   <g id="patch_144">
    <path clip-path="url(#pe1dc555f21)" d="M 184.020406 192.24 
L 184.991779 192.24 
L 184.991779 186.386447 
L 184.020406 186.386447 
z
" style="fill:#808080;fill-opacity:0.6;stroke:#808080;stroke-linejoin:miter;stroke-opacity:0.6;"/>
   </g>
   <g id="patch_145">
    <path clip-path="url(#pe1dc555f21)" d="M 184.991779 192.24 
L 185.963153 192.24 
L 185.963153 186.139424 
L 184.991779 186.139424 
z
" style="fill:#808080;fill-opacity:0.6;stroke:#808080;stroke-linejoin:miter;stroke-opacity:0.6;"/>
   </g>
   <g id="patch_146">
    <path clip-path="url(#pe1dc555f21)" d="M 185.963153 192.24 
L 186.934526 192.24 
L 186.934526 186.437993 
L 185.963153 186.437993 
z
" style="fill:#808080;fill-opacity:0.6;stroke:#808080;stroke-linejoin:miter;stroke-opacity:0.6;"/>
   </g>
   <g id="patch_147">
    <path clip-path="url(#pe1dc555f21)" d="M 186.934526 192.24 
L 187.905899 192.24 
L 187.905899 185.810855 
L 186.934526 185.810855 
z
" style="fill:#808080;fill-opacity:0.6;stroke:#808080;stroke-linejoin:miter;stroke-opacity:0.6;"/>
   </g>
   <g id="patch_148">
    <path clip-path="url(#pe1dc555f21)" d="M 187.905899 192.24 
L 188.877273 192.24 
L 188.877273 185.478321 
L 187.905899 185.478321 
z
" style="fill:#808080;fill-opacity:0.6;stroke:#808080;stroke-linejoin:miter;stroke-opacity:0.6;"/>
   </g>
   <g id="patch_149">
    <path clip-path="url(#pe1dc555f21)" d="M 188.877273 192.24 
L 189.848646 192.24 
L 189.848646 185.030856 
L 188.877273 185.030856 
z
" style="fill:#808080;fill-opacity:0.6;stroke:#808080;stroke-linejoin:miter;stroke-opacity:0.6;"/>
   </g>
   <g id="patch_150">
    <path clip-path="url(#pe1dc555f21)" d="M 189.848646 192.24 
L 190.820019 192.24 
L 190.820019 180.43205 
L 189.848646 180.43205 
z
" style="fill:#808080;fill-opacity:0.6;stroke:#808080;stroke-linejoin:miter;stroke-opacity:0.6;"/>
   </g>
   <g id="patch_151">
    <path clip-path="url(#pe1dc555f21)" d="M 190.820019 192.24 
L 191.791393 192.24 
L 191.791393 184.301488 
L 190.820019 184.301488 
z
" style="fill:#808080;fill-opacity:0.6;stroke:#808080;stroke-linejoin:miter;stroke-opacity:0.6;"/>
   </g>
   <g id="patch_152">
    <path clip-path="url(#pe1dc555f21)" d="M 191.791393 192.24 
L 192.762766 192.24 
L 192.762766 184.125169 
L 191.791393 184.125169 
z
" style="fill:#808080;fill-opacity:0.6;stroke:#808080;stroke-linejoin:miter;stroke-opacity:0.6;"/>
   </g>
   <g id="patch_153">
    <path clip-path="url(#pe1dc555f21)" d="M 192.762766 192.24 
L 193.734139 192.24 
L 193.734139 180.208318 
L 192.762766 180.208318 
z
" style="fill:#808080;fill-opacity:0.6;stroke:#808080;stroke-linejoin:miter;stroke-opacity:0.6;"/>
   </g>
   <g id="patch_154">
    <path clip-path="url(#pe1dc555f21)" d="M 193.734139 192.24 
L 194.705513 192.24 
L 194.705513 183.392529 
L 193.734139 183.392529 
z
" style="fill:#808080;fill-opacity:0.6;stroke:#808080;stroke-linejoin:miter;stroke-opacity:0.6;"/>
   </g>
   <g id="patch_155">
    <path clip-path="url(#pe1dc555f21)" d="M 194.705513 192.24 
L 195.676886 192.24 
L 195.676886 178.575121 
L 194.705513 178.575121 
z
" style="fill:#808080;fill-opacity:0.6;stroke:#808080;stroke-linejoin:miter;stroke-opacity:0.6;"/>
   </g>
   <g id="patch_156">
    <path clip-path="url(#pe1dc555f21)" d="M 195.676886 192.24 
L 196.648259 192.24 
L 196.648259 177.424241 
L 195.676886 177.424241 
z
" style="fill:#808080;fill-opacity:0.6;stroke:#808080;stroke-linejoin:miter;stroke-opacity:0.6;"/>
   </g>
   <g id="patch_157">
    <path clip-path="url(#pe1dc555f21)" d="M 196.648259 192.24 
L 197.619632 192.24 
L 197.619632 176.026781 
L 196.648259 176.026781 
z
" style="fill:#808080;fill-opacity:0.6;stroke:#808080;stroke-linejoin:miter;stroke-opacity:0.6;"/>
   </g>
   <g id="patch_158">
    <path clip-path="url(#pe1dc555f21)" d="M 197.619632 192.24 
L 198.591006 192.24 
L 198.591006 178.059308 
L 197.619632 178.059308 
z
" style="fill:#808080;fill-opacity:0.6;stroke:#808080;stroke-linejoin:miter;stroke-opacity:0.6;"/>
   </g>
   <g id="patch_159">
    <path clip-path="url(#pe1dc555f21)" d="M 198.591006 192.24 
L 199.562379 192.24 
L 199.562379 170.331691 
L 198.591006 170.331691 
z
" style="fill:#808080;fill-opacity:0.6;stroke:#808080;stroke-linejoin:miter;stroke-opacity:0.6;"/>
   </g>
   <g id="patch_160">
    <path clip-path="url(#pe1dc555f21)" d="M 199.562379 192.24 
L 200.533752 192.24 
L 200.533752 175.973794 
L 199.562379 175.973794 
z
" style="fill:#808080;fill-opacity:0.6;stroke:#808080;stroke-linejoin:miter;stroke-opacity:0.6;"/>
   </g>
   <g id="patch_161">
    <path clip-path="url(#pe1dc555f21)" d="M 200.533752 192.24 
L 201.505126 192.24 
L 201.505126 173.152174 
L 200.533752 173.152174 
z
" style="fill:#808080;fill-opacity:0.6;stroke:#808080;stroke-linejoin:miter;stroke-opacity:0.6;"/>
   </g>
   <g id="patch_162">
    <path clip-path="url(#pe1dc555f21)" d="M 201.505126 192.24 
L 202.476499 192.24 
L 202.476499 175.960042 
L 201.505126 175.960042 
z
" style="fill:#808080;fill-opacity:0.6;stroke:#808080;stroke-linejoin:miter;stroke-opacity:0.6;"/>
   </g>
   <g id="patch_163">
    <path clip-path="url(#pe1dc555f21)" d="M 202.476499 192.24 
L 203.447872 192.24 
L 203.447872 178.127157 
L 202.476499 178.127157 
z
" style="fill:#808080;fill-opacity:0.6;stroke:#808080;stroke-linejoin:miter;stroke-opacity:0.6;"/>
   </g>
   <g id="patch_164">
    <path clip-path="url(#pe1dc555f21)" d="M 203.447872 192.24 
L 204.419246 192.24 
L 204.419246 172.387814 
L 203.447872 172.387814 
z
" style="fill:#808080;fill-opacity:0.6;stroke:#808080;stroke-linejoin:miter;stroke-opacity:0.6;"/>
   </g>
   <g id="patch_165">
    <path clip-path="url(#pe1dc555f21)" d="M 204.419246 192.24 
L 205.390619 192.24 
L 205.390619 166.307007 
L 204.419246 166.307007 
z
" style="fill:#808080;fill-opacity:0.6;stroke:#808080;stroke-linejoin:miter;stroke-opacity:0.6;"/>
   </g>
   <g id="patch_166">
    <path clip-path="url(#pe1dc555f21)" d="M 205.390619 192.24 
L 206.361992 192.24 
L 206.361992 166.518235 
L 205.390619 166.518235 
z
" style="fill:#808080;fill-opacity:0.6;stroke:#808080;stroke-linejoin:miter;stroke-opacity:0.6;"/>
   </g>
   <g id="patch_167">
    <path clip-path="url(#pe1dc555f21)" d="M 206.361992 192.24 
L 207.333366 192.24 
L 207.333366 175.136095 
L 206.361992 175.136095 
z
" style="fill:#808080;fill-opacity:0.6;stroke:#808080;stroke-linejoin:miter;stroke-opacity:0.6;"/>
   </g>
   <g id="patch_168">
    <path clip-path="url(#pe1dc555f21)" d="M 207.333366 192.24 
L 208.304739 192.24 
L 208.304739 162.091089 
L 207.333366 162.091089 
z
" style="fill:#808080;fill-opacity:0.6;stroke:#808080;stroke-linejoin:miter;stroke-opacity:0.6;"/>
   </g>
   <g id="patch_169">
    <path clip-path="url(#pe1dc555f21)" d="M 208.304739 192.24 
L 209.276112 192.24 
L 209.276112 171.11205 
L 208.304739 171.11205 
z
" style="fill:#808080;fill-opacity:0.6;stroke:#808080;stroke-linejoin:miter;stroke-opacity:0.6;"/>
   </g>
   <g id="patch_170">
    <path clip-path="url(#pe1dc555f21)" d="M 209.276112 192.24 
L 210.247485 192.24 
L 210.247485 169.194425 
L 209.276112 169.194425 
z
" style="fill:#808080;fill-opacity:0.6;stroke:#808080;stroke-linejoin:miter;stroke-opacity:0.6;"/>
   </g>
   <g id="patch_171">
    <path clip-path="url(#pe1dc555f21)" d="M 210.247485 192.24 
L 211.218859 192.24 
L 211.218859 169.881592 
L 210.247485 169.881592 
z
" style="fill:#808080;fill-opacity:0.6;stroke:#808080;stroke-linejoin:miter;stroke-opacity:0.6;"/>
   </g>
   <g id="patch_172">
    <path clip-path="url(#pe1dc555f21)" d="M 211.218859 192.24 
L 212.190232 192.24 
L 212.190232 172.282755 
L 211.218859 172.282755 
z
" style="fill:#808080;fill-opacity:0.6;stroke:#808080;stroke-linejoin:miter;stroke-opacity:0.6;"/>
   </g>
   <g id="patch_173">
    <path clip-path="url(#pe1dc555f21)" d="M 212.190232 192.24 
L 213.161605 192.24 
L 213.161605 162.448522 
L 212.190232 162.448522 
z
" style="fill:#808080;fill-opacity:0.6;stroke:#808080;stroke-linejoin:miter;stroke-opacity:0.6;"/>
   </g>
   <g id="patch_174">
    <path clip-path="url(#pe1dc555f21)" d="M 213.161605 192.24 
L 214.132979 192.24 
L 214.132979 169.770516 
L 213.161605 169.770516 
z
" style="fill:#808080;fill-opacity:0.6;stroke:#808080;stroke-linejoin:miter;stroke-opacity:0.6;"/>
   </g>
   <g id="patch_175">
    <path clip-path="url(#pe1dc555f21)" d="M 214.132979 192.24 
L 215.104352 192.24 
L 215.104352 165.826742 
L 214.132979 165.826742 
z
" style="fill:#808080;fill-opacity:0.6;stroke:#808080;stroke-linejoin:miter;stroke-opacity:0.6;"/>
   </g>
   <g id="patch_176">
    <path clip-path="url(#pe1dc555f21)" d="M 215.104352 192.24 
L 216.075725 192.24 
L 216.075725 154.902879 
L 215.104352 154.902879 
z
" style="fill:#808080;fill-opacity:0.6;stroke:#808080;stroke-linejoin:miter;stroke-opacity:0.6;"/>
   </g>
   <g id="patch_177">
    <path clip-path="url(#pe1dc555f21)" d="M 216.075725 192.24 
L 217.047099 192.24 
L 217.047099 167.382608 
L 216.075725 167.382608 
z
" style="fill:#808080;fill-opacity:0.6;stroke:#808080;stroke-linejoin:miter;stroke-opacity:0.6;"/>
   </g>
   <g id="patch_178">
    <path clip-path="url(#pe1dc555f21)" d="M 217.047099 192.24 
L 218.018472 192.24 
L 218.018472 162.5309 
L 217.047099 162.5309 
z
" style="fill:#808080;fill-opacity:0.6;stroke:#808080;stroke-linejoin:miter;stroke-opacity:0.6;"/>
   </g>
   <g id="patch_179">
    <path clip-path="url(#pe1dc555f21)" d="M 218.018472 192.24 
L 218.989845 192.24 
L 218.989845 170.202647 
L 218.018472 170.202647 
z
" style="fill:#808080;fill-opacity:0.6;stroke:#808080;stroke-linejoin:miter;stroke-opacity:0.6;"/>
   </g>
   <g id="patch_180">
    <path clip-path="url(#pe1dc555f21)" d="M 218.989845 192.24 
L 219.961219 192.24 
L 219.961219 162.496629 
L 218.989845 162.496629 
z
" style="fill:#808080;fill-opacity:0.6;stroke:#808080;stroke-linejoin:miter;stroke-opacity:0.6;"/>
   </g>
   <g id="patch_181">
    <path clip-path="url(#pe1dc555f21)" d="M 219.961219 192.24 
L 220.932592 192.24 
L 220.932592 161.580545 
L 219.961219 161.580545 
z
" style="fill:#808080;fill-opacity:0.6;stroke:#808080;stroke-linejoin:miter;stroke-opacity:0.6;"/>
   </g>
   <g id="patch_182">
    <path clip-path="url(#pe1dc555f21)" d="M 220.932592 192.24 
L 221.903965 192.24 
L 221.903965 163.819724 
L 220.932592 163.819724 
z
" style="fill:#808080;fill-opacity:0.6;stroke:#808080;stroke-linejoin:miter;stroke-opacity:0.6;"/>
   </g>
   <g id="patch_183">
    <path clip-path="url(#pe1dc555f21)" d="M 221.903965 192.24 
L 222.875338 192.24 
L 222.875338 154.022563 
L 221.903965 154.022563 
z
" style="fill:#808080;fill-opacity:0.6;stroke:#808080;stroke-linejoin:miter;stroke-opacity:0.6;"/>
   </g>
   <g id="patch_184">
    <path clip-path="url(#pe1dc555f21)" d="M 222.875338 192.24 
L 223.846712 192.24 
L 223.846712 158.55876 
L 222.875338 158.55876 
z
" style="fill:#808080;fill-opacity:0.6;stroke:#808080;stroke-linejoin:miter;stroke-opacity:0.6;"/>
   </g>
   <g id="patch_185">
    <path clip-path="url(#pe1dc555f21)" d="M 223.846712 192.24 
L 224.818085 192.24 
L 224.818085 166.872174 
L 223.846712 166.872174 
z
" style="fill:#808080;fill-opacity:0.6;stroke:#808080;stroke-linejoin:miter;stroke-opacity:0.6;"/>
   </g>
   <g id="patch_186">
    <path clip-path="url(#pe1dc555f21)" d="M 224.818085 192.24 
L 225.789458 192.24 
L 225.789458 166.359357 
L 224.818085 166.359357 
z
" style="fill:#808080;fill-opacity:0.6;stroke:#808080;stroke-linejoin:miter;stroke-opacity:0.6;"/>
   </g>
   <g id="patch_187">
    <path clip-path="url(#pe1dc555f21)" d="M 225.789458 192.24 
L 226.760832 192.24 
L 226.760832 157.63042 
L 225.789458 157.63042 
z
" style="fill:#808080;fill-opacity:0.6;stroke:#808080;stroke-linejoin:miter;stroke-opacity:0.6;"/>
   </g>
   <g id="patch_188">
    <path clip-path="url(#pe1dc555f21)" d="M 226.760832 192.24 
L 227.732205 192.24 
L 227.732205 149.553133 
L 226.760832 149.553133 
z
" style="fill:#808080;fill-opacity:0.6;stroke:#808080;stroke-linejoin:miter;stroke-opacity:0.6;"/>
   </g>
   <g id="patch_189">
    <path clip-path="url(#pe1dc555f21)" d="M 227.732205 192.24 
L 228.703578 192.24 
L 228.703578 133.753163 
L 227.732205 133.753163 
z
" style="fill:#808080;fill-opacity:0.6;stroke:#808080;stroke-linejoin:miter;stroke-opacity:0.6;"/>
   </g>
   <g id="patch_190">
    <path clip-path="url(#pe1dc555f21)" d="M 228.703578 192.24 
L 229.674952 192.24 
L 229.674952 154.186958 
L 228.703578 154.186958 
z
" style="fill:#808080;fill-opacity:0.6;stroke:#808080;stroke-linejoin:miter;stroke-opacity:0.6;"/>
   </g>
   <g id="patch_191">
    <path clip-path="url(#pe1dc555f21)" d="M 229.674952 192.24 
L 230.646325 192.24 
L 230.646325 165.324571 
L 229.674952 165.324571 
z
" style="fill:#808080;fill-opacity:0.6;stroke:#808080;stroke-linejoin:miter;stroke-opacity:0.6;"/>
   </g>
   <g id="patch_192">
    <path clip-path="url(#pe1dc555f21)" d="M 230.646325 192.24 
L 231.617698 192.24 
L 231.617698 161.588696 
L 230.646325 161.588696 
z
" style="fill:#808080;fill-opacity:0.6;stroke:#808080;stroke-linejoin:miter;stroke-opacity:0.6;"/>
   </g>
   <g id="patch_193">
    <path clip-path="url(#pe1dc555f21)" d="M 231.617698 192.24 
L 232.589072 192.24 
L 232.589072 142.649933 
L 231.617698 142.649933 
z
" style="fill:#808080;fill-opacity:0.6;stroke:#808080;stroke-linejoin:miter;stroke-opacity:0.6;"/>
   </g>
   <g id="patch_194">
    <path clip-path="url(#pe1dc555f21)" d="M 232.589072 192.24 
L 233.560445 192.24 
L 233.560445 151.745453 
L 232.589072 151.745453 
z
" style="fill:#808080;fill-opacity:0.6;stroke:#808080;stroke-linejoin:miter;stroke-opacity:0.6;"/>
   </g>
   <g id="patch_195">
    <path clip-path="url(#pe1dc555f21)" d="M 233.560445 192.24 
L 234.531818 192.24 
L 234.531818 156.508432 
L 233.560445 156.508432 
z
" style="fill:#808080;fill-opacity:0.6;stroke:#808080;stroke-linejoin:miter;stroke-opacity:0.6;"/>
   </g>
   <g id="patch_196">
    <path clip-path="url(#pe1dc555f21)" d="M 234.531818 192.24 
L 235.503191 192.24 
L 235.503191 164.963062 
L 234.531818 164.963062 
z
" style="fill:#808080;fill-opacity:0.6;stroke:#808080;stroke-linejoin:miter;stroke-opacity:0.6;"/>
   </g>
   <g id="patch_197">
    <path clip-path="url(#pe1dc555f21)" d="M 235.503191 192.24 
L 236.474565 192.24 
L 236.474565 164.382978 
L 235.503191 164.382978 
z
" style="fill:#808080;fill-opacity:0.6;stroke:#808080;stroke-linejoin:miter;stroke-opacity:0.6;"/>
   </g>
   <g id="patch_198">
    <path clip-path="url(#pe1dc555f21)" d="M 236.474565 192.24 
L 237.445938 192.24 
L 237.445938 162.331651 
L 236.474565 162.331651 
z
" style="fill:#808080;fill-opacity:0.6;stroke:#808080;stroke-linejoin:miter;stroke-opacity:0.6;"/>
   </g>
   <g id="patch_199">
    <path clip-path="url(#pe1dc555f21)" d="M 237.445938 192.24 
L 238.417311 192.24 
L 238.417311 157.781784 
L 237.445938 157.781784 
z
" style="fill:#808080;fill-opacity:0.6;stroke:#808080;stroke-linejoin:miter;stroke-opacity:0.6;"/>
   </g>
   <g id="patch_200">
    <path clip-path="url(#pe1dc555f21)" d="M 238.417311 192.24 
L 239.388685 192.24 
L 239.388685 144.241512 
L 238.417311 144.241512 
z
" style="fill:#808080;fill-opacity:0.6;stroke:#808080;stroke-linejoin:miter;stroke-opacity:0.6;"/>
   </g>
   <g id="patch_201">
    <path clip-path="url(#pe1dc555f21)" d="M 239.388685 192.24 
L 240.360058 192.24 
L 240.360058 167.097515 
L 239.388685 167.097515 
z
" style="fill:#808080;fill-opacity:0.6;stroke:#808080;stroke-linejoin:miter;stroke-opacity:0.6;"/>
   </g>
   <g id="patch_202">
    <path clip-path="url(#pe1dc555f21)" d="M 240.360058 192.24 
L 241.331431 192.24 
L 241.331431 151.172051 
L 240.360058 151.172051 
z
" style="fill:#808080;fill-opacity:0.6;stroke:#808080;stroke-linejoin:miter;stroke-opacity:0.6;"/>
   </g>
   <g id="patch_203">
    <path clip-path="url(#pe1dc555f21)" d="M 241.331431 192.24 
L 242.302805 192.24 
L 242.302805 167.330508 
L 241.331431 167.330508 
z
" style="fill:#808080;fill-opacity:0.6;stroke:#808080;stroke-linejoin:miter;stroke-opacity:0.6;"/>
   </g>
   <g id="patch_204">
    <path clip-path="url(#pe1dc555f21)" d="M 242.302805 192.24 
L 243.274178 192.24 
L 243.274178 166.93531 
L 242.302805 166.93531 
z
" style="fill:#808080;fill-opacity:0.6;stroke:#808080;stroke-linejoin:miter;stroke-opacity:0.6;"/>
   </g>
   <g id="patch_205">
    <path clip-path="url(#pe1dc555f21)" d="M 243.274178 192.24 
L 244.245551 192.24 
L 244.245551 166.553698 
L 243.274178 166.553698 
z
" style="fill:#808080;fill-opacity:0.6;stroke:#808080;stroke-linejoin:miter;stroke-opacity:0.6;"/>
   </g>
   <g id="patch_206">
    <path clip-path="url(#pe1dc555f21)" d="M 244.245551 192.24 
L 245.216925 192.24 
L 245.216925 165.535577 
L 244.245551 165.535577 
z
" style="fill:#808080;fill-opacity:0.6;stroke:#808080;stroke-linejoin:miter;stroke-opacity:0.6;"/>
   </g>
   <g id="patch_207">
    <path clip-path="url(#pe1dc555f21)" d="M 245.216925 192.24 
L 246.188298 192.24 
L 246.188298 164.192962 
L 245.216925 164.192962 
z
" style="fill:#808080;fill-opacity:0.6;stroke:#808080;stroke-linejoin:miter;stroke-opacity:0.6;"/>
   </g>
   <g id="patch_208">
    <path clip-path="url(#pe1dc555f21)" d="M 246.188298 192.24 
L 247.159671 192.24 
L 247.159671 161.182823 
L 246.188298 161.182823 
z
" style="fill:#808080;fill-opacity:0.6;stroke:#808080;stroke-linejoin:miter;stroke-opacity:0.6;"/>
   </g>
   <g id="patch_209">
    <path clip-path="url(#pe1dc555f21)" d="M 247.159671 192.24 
L 248.131044 192.24 
L 248.131044 159.487433 
L 247.159671 159.487433 
z
" style="fill:#808080;fill-opacity:0.6;stroke:#808080;stroke-linejoin:miter;stroke-opacity:0.6;"/>
   </g>
   <g id="patch_210">
    <path clip-path="url(#pe1dc555f21)" d="M 248.131044 192.24 
L 249.102418 192.24 
L 249.102418 152.934125 
L 248.131044 152.934125 
z
" style="fill:#808080;fill-opacity:0.6;stroke:#808080;stroke-linejoin:miter;stroke-opacity:0.6;"/>
   </g>
   <g id="patch_211">
    <path clip-path="url(#pe1dc555f21)" d="M 249.102418 192.24 
L 250.073791 192.24 
L 250.073791 153.24847 
L 249.102418 153.24847 
z
" style="fill:#808080;fill-opacity:0.6;stroke:#808080;stroke-linejoin:miter;stroke-opacity:0.6;"/>
   </g>
   <g id="patch_212">
    <path clip-path="url(#pe1dc555f21)" d="M 250.073791 192.24 
L 251.045164 192.24 
L 251.045164 159.358002 
L 250.073791 159.358002 
z
" style="fill:#808080;fill-opacity:0.6;stroke:#808080;stroke-linejoin:miter;stroke-opacity:0.6;"/>
   </g>
   <g id="patch_213">
    <path clip-path="url(#pe1dc555f21)" d="M 251.045164 192.24 
L 252.016538 192.24 
L 252.016538 145.992606 
L 251.045164 145.992606 
z
" style="fill:#808080;fill-opacity:0.6;stroke:#808080;stroke-linejoin:miter;stroke-opacity:0.6;"/>
   </g>
   <g id="patch_214">
    <path clip-path="url(#pe1dc555f21)" d="M 252.016538 192.24 
L 252.987911 192.24 
L 252.987911 109.153469 
L 252.016538 109.153469 
z
" style="fill:#808080;fill-opacity:0.6;stroke:#808080;stroke-linejoin:miter;stroke-opacity:0.6;"/>
   </g>
   <g id="patch_215">
    <path clip-path="url(#pe1dc555f21)" d="M 252.987911 192.24 
L 253.959284 192.24 
L 253.959284 33.84 
L 252.987911 33.84 
z
" style="fill:#808080;fill-opacity:0.6;stroke:#808080;stroke-linejoin:miter;stroke-opacity:0.6;"/>
   </g>
   <g id="patch_216">
    <path clip-path="url(#pe1dc555f21)" d="M 253.959284 192.24 
L 254.930658 192.24 
L 254.930658 119.889866 
L 253.959284 119.889866 
z
" style="fill:#808080;fill-opacity:0.6;stroke:#808080;stroke-linejoin:miter;stroke-opacity:0.6;"/>
   </g>
   <g id="patch_217">
    <path clip-path="url(#pe1dc555f21)" d="M 254.930658 192.24 
L 255.902031 192.24 
L 255.902031 102.16753 
L 254.930658 102.16753 
z
" style="fill:#808080;fill-opacity:0.6;stroke:#808080;stroke-linejoin:miter;stroke-opacity:0.6;"/>
   </g>
   <g id="patch_218">
    <path clip-path="url(#pe1dc555f21)" d="M 255.902031 192.24 
L 256.873404 192.24 
L 256.873404 150.060765 
L 255.902031 150.060765 
z
" style="fill:#808080;fill-opacity:0.6;stroke:#808080;stroke-linejoin:miter;stroke-opacity:0.6;"/>
   </g>
   <g id="patch_219">
    <path clip-path="url(#pe1dc555f21)" d="M 256.873404 192.24 
L 257.844778 192.24 
L 257.844778 156.520466 
L 256.873404 156.520466 
z
" style="fill:#808080;fill-opacity:0.6;stroke:#808080;stroke-linejoin:miter;stroke-opacity:0.6;"/>
   </g>
   <g id="patch_220">
    <path clip-path="url(#pe1dc555f21)" d="M 257.844778 192.24 
L 258.816151 192.24 
L 258.816151 147.94525 
L 257.844778 147.94525 
z
" style="fill:#808080;fill-opacity:0.6;stroke:#808080;stroke-linejoin:miter;stroke-opacity:0.6;"/>
   </g>
   <g id="patch_221">
    <path clip-path="url(#pe1dc555f21)" d="M 258.816151 192.24 
L 259.787524 192.24 
L 259.787524 150.737147 
L 258.816151 150.737147 
z
" style="fill:#808080;fill-opacity:0.6;stroke:#808080;stroke-linejoin:miter;stroke-opacity:0.6;"/>
   </g>
   <g id="patch_222">
    <path clip-path="url(#pe1dc555f21)" d="M 259.787524 192.24 
L 260.758897 192.24 
L 260.758897 170.535071 
L 259.787524 170.535071 
z
" style="fill:#808080;fill-opacity:0.6;stroke:#808080;stroke-linejoin:miter;stroke-opacity:0.6;"/>
   </g>
   <g id="patch_223">
    <path clip-path="url(#pe1dc555f21)" d="M 260.758897 192.24 
L 261.730271 192.24 
L 261.730271 154.0481 
L 260.758897 154.0481 
z
" style="fill:#808080;fill-opacity:0.6;stroke:#808080;stroke-linejoin:miter;stroke-opacity:0.6;"/>
   </g>
   <g id="patch_224">
    <path clip-path="url(#pe1dc555f21)" d="M 261.730271 192.24 
L 262.701644 192.24 
L 262.701644 155.695771 
L 261.730271 155.695771 
z
" style="fill:#808080;fill-opacity:0.6;stroke:#808080;stroke-linejoin:miter;stroke-opacity:0.6;"/>
   </g>
   <g id="patch_225">
    <path clip-path="url(#pe1dc555f21)" d="M 262.701644 192.24 
L 263.673017 192.24 
L 263.673017 167.293714 
L 262.701644 167.293714 
z
" style="fill:#808080;fill-opacity:0.6;stroke:#808080;stroke-linejoin:miter;stroke-opacity:0.6;"/>
   </g>
   <g id="patch_226">
    <path clip-path="url(#pe1dc555f21)" d="M 263.673017 192.24 
L 264.644391 192.24 
L 264.644391 169.283901 
L 263.673017 169.283901 
z
" style="fill:#808080;fill-opacity:0.6;stroke:#808080;stroke-linejoin:miter;stroke-opacity:0.6;"/>
   </g>
   <g id="patch_227">
    <path clip-path="url(#pe1dc555f21)" d="M 264.644391 192.24 
L 265.615764 192.24 
L 265.615764 178.154413 
L 264.644391 178.154413 
z
" style="fill:#808080;fill-opacity:0.6;stroke:#808080;stroke-linejoin:miter;stroke-opacity:0.6;"/>
   </g>
   <g id="patch_228">
    <path clip-path="url(#pe1dc555f21)" d="M 265.615764 192.24 
L 266.587137 192.24 
L 266.587137 179.28422 
L 265.615764 179.28422 
z
" style="fill:#808080;fill-opacity:0.6;stroke:#808080;stroke-linejoin:miter;stroke-opacity:0.6;"/>
   </g>
   <g id="patch_229">
    <path clip-path="url(#pe1dc555f21)" d="M 266.587137 192.24 
L 267.558511 192.24 
L 267.558511 180.330124 
L 266.587137 180.330124 
z
" style="fill:#808080;fill-opacity:0.6;stroke:#808080;stroke-linejoin:miter;stroke-opacity:0.6;"/>
   </g>
   <g id="patch_230">
    <path clip-path="url(#pe1dc555f21)" d="M 267.558511 192.24 
L 268.529884 192.24 
L 268.529884 178.708157 
L 267.558511 178.708157 
z
" style="fill:#808080;fill-opacity:0.6;stroke:#808080;stroke-linejoin:miter;stroke-opacity:0.6;"/>
   </g>
   <g id="patch_231">
    <path clip-path="url(#pe1dc555f21)" d="M 268.529884 192.24 
L 269.501257 192.24 
L 269.501257 184.938302 
L 268.529884 184.938302 
z
" style="fill:#808080;fill-opacity:0.6;stroke:#808080;stroke-linejoin:miter;stroke-opacity:0.6;"/>
   </g>
   <g id="patch_232">
    <path clip-path="url(#pe1dc555f21)" d="M 269.501257 192.24 
L 270.472631 192.24 
L 270.472631 185.651145 
L 269.501257 185.651145 
z
" style="fill:#808080;fill-opacity:0.6;stroke:#808080;stroke-linejoin:miter;stroke-opacity:0.6;"/>
   </g>
   <g id="patch_233">
    <path clip-path="url(#pe1dc555f21)" d="M 270.472631 192.24 
L 271.444004 192.24 
L 271.444004 185.749716 
L 270.472631 185.749716 
z
" style="fill:#808080;fill-opacity:0.6;stroke:#808080;stroke-linejoin:miter;stroke-opacity:0.6;"/>
   </g>
   <g id="patch_234">
    <path clip-path="url(#pe1dc555f21)" d="M 271.444004 192.24 
L 272.415377 192.24 
L 272.415377 186.27515 
L 271.444004 186.27515 
z
" style="fill:#808080;fill-opacity:0.6;stroke:#808080;stroke-linejoin:miter;stroke-opacity:0.6;"/>
   </g>
   <g id="patch_235">
    <path clip-path="url(#pe1dc555f21)" d="M 272.415377 192.24 
L 273.38675 192.24 
L 273.38675 187.650843 
L 272.415377 187.650843 
z
" style="fill:#808080;fill-opacity:0.6;stroke:#808080;stroke-linejoin:miter;stroke-opacity:0.6;"/>
   </g>
   <g id="patch_236">
    <path clip-path="url(#pe1dc555f21)" d="M 273.38675 192.24 
L 274.358124 192.24 
L 274.358124 188.176582 
L 273.38675 188.176582 
z
" style="fill:#808080;fill-opacity:0.6;stroke:#808080;stroke-linejoin:miter;stroke-opacity:0.6;"/>
   </g>
   <g id="patch_237">
    <path clip-path="url(#pe1dc555f21)" d="M 274.358124 192.24 
L 275.329497 192.24 
L 275.329497 188.023388 
L 274.358124 188.023388 
z
" style="fill:#808080;fill-opacity:0.6;stroke:#808080;stroke-linejoin:miter;stroke-opacity:0.6;"/>
   </g>
   <g id="patch_238">
    <path clip-path="url(#pe1dc555f21)" d="M 275.329497 192.24 
L 276.30087 192.24 
L 276.30087 186.001675 
L 275.329497 186.001675 
z
" style="fill:#808080;fill-opacity:0.6;stroke:#808080;stroke-linejoin:miter;stroke-opacity:0.6;"/>
   </g>
   <g id="patch_239">
    <path clip-path="url(#pe1dc555f21)" d="M 276.30087 192.24 
L 277.272244 192.24 
L 277.272244 186.122455 
L 276.30087 186.122455 
z
" style="fill:#808080;fill-opacity:0.6;stroke:#808080;stroke-linejoin:miter;stroke-opacity:0.6;"/>
   </g>
   <g id="patch_240">
    <path clip-path="url(#pe1dc555f21)" d="M 277.272244 192.24 
L 278.243617 192.24 
L 278.243617 188.465445 
L 277.272244 188.465445 
z
" style="fill:#808080;fill-opacity:0.6;stroke:#808080;stroke-linejoin:miter;stroke-opacity:0.6;"/>
   </g>
   <g id="patch_241">
    <path clip-path="url(#pe1dc555f21)" d="M 278.243617 192.24 
L 279.21499 192.24 
L 279.21499 188.582788 
L 278.243617 188.582788 
z
" style="fill:#808080;fill-opacity:0.6;stroke:#808080;stroke-linejoin:miter;stroke-opacity:0.6;"/>
   </g>
   <g id="patch_242">
    <path clip-path="url(#pe1dc555f21)" d="M 279.21499 192.24 
L 280.186364 192.24 
L 280.186364 186.912436 
L 279.21499 186.912436 
z
" style="fill:#808080;fill-opacity:0.6;stroke:#808080;stroke-linejoin:miter;stroke-opacity:0.6;"/>
   </g>
   <g id="patch_243">
    <path d="M 40.5 192.24 
L 40.5 25.92 
" style="fill:none;stroke:#cccccc;stroke-linecap:square;stroke-linejoin:miter;stroke-width:0.8;"/>
   </g>
   <g id="patch_244">
    <path d="M 291.6 192.24 
L 291.6 25.92 
" style="fill:none;stroke:#cccccc;stroke-linecap:square;stroke-linejoin:miter;stroke-width:0.8;"/>
   </g>
   <g id="patch_245">
    <path d="M 40.5 192.24 
L 291.6 192.24 
" style="fill:none;stroke:#cccccc;stroke-linecap:square;stroke-linejoin:miter;stroke-width:0.8;"/>
   </g>
   <g id="patch_246">
    <path d="M 40.5 25.92 
L 291.6 25.92 
" style="fill:none;stroke:#cccccc;stroke-linecap:square;stroke-linejoin:miter;stroke-width:0.8;"/>
   </g>
  </g>
 </g>
 <defs>
  <clipPath id="pe1dc555f21">
   <rect height="166.32" width="251.1" x="40.5" y="25.92"/>
  </clipPath>
 </defs>
</svg>
