<?xml version="1.0" encoding="utf-8" standalone="no"?>
<!DOCTYPE svg PUBLIC "-//W3C//DTD SVG 1.1//EN"
  "http://www.w3.org/Graphics/SVG/1.1/DTD/svg11.dtd">
<!-- Created with matplotlib (https://matplotlib.org/) -->
<svg height="216pt" version="1.1" viewBox="0 0 324 216" width="324pt" xmlns="http://www.w3.org/2000/svg" xmlns:xlink="http://www.w3.org/1999/xlink">
 <metadata>
  <rdf:RDF xmlns:cc="http://creativecommons.org/ns#" xmlns:dc="http://purl.org/dc/elements/1.1/" xmlns:rdf="http://www.w3.org/1999/02/22-rdf-syntax-ns#">
   <cc:Work>
    <dc:type rdf:resource="http://purl.org/dc/dcmitype/StillImage"/>
    <dc:date>2021-01-11T16:05:21.931363</dc:date>
    <dc:format>image/svg+xml</dc:format>
    <dc:creator>
     <cc:Agent>
      <dc:title>Matplotlib v3.3.3, https://matplotlib.org/</dc:title>
     </cc:Agent>
    </dc:creator>
   </cc:Work>
  </rdf:RDF>
 </metadata>
 <defs>
  <style type="text/css">*{stroke-linecap:butt;stroke-linejoin:round;}</style>
 </defs>
 <g id="figure_1">
  <g id="patch_1">
   <path d="M 0 216 
L 324 216 
L 324 0 
L 0 0 
z
" style="fill:#ffffff;"/>
  </g>
  <g id="axes_1">
   <g id="patch_2">
    <path d="M 40.5 192.24 
L 291.6 192.24 
L 291.6 25.92 
L 40.5 25.92 
z
" style="fill:#ffffff;"/>
   </g>
   <g id="matplotlib.axis_1">
    <g id="xtick_1">
     <g id="line2d_1">
      <path clip-path="url(#p54a1dc45b3)" d="M 61.799463 192.24 
L 61.799463 25.92 
" style="fill:none;stroke:#cccccc;stroke-linecap:round;stroke-width:0.8;"/>
     </g>
     <g id="text_1">
      <!-- −10 -->
      <g style="fill:#262626;" transform="translate(51.247119 206.838437)scale(0.1 -0.1)">
       <defs>
        <path d="M 10.59375 35.5 
L 73.1875 35.5 
L 73.1875 27.203125 
L 10.59375 27.203125 
z
" id="DejaVuSans-8722"/>
        <path d="M 12.40625 8.296875 
L 28.515625 8.296875 
L 28.515625 63.921875 
L 10.984375 60.40625 
L 10.984375 69.390625 
L 28.421875 72.90625 
L 38.28125 72.90625 
L 38.28125 8.296875 
L 54.390625 8.296875 
L 54.390625 0 
L 12.40625 0 
z
" id="DejaVuSans-49"/>
        <path d="M 31.78125 66.40625 
Q 24.171875 66.40625 20.328125 58.90625 
Q 16.5 51.421875 16.5 36.375 
Q 16.5 21.390625 20.328125 13.890625 
Q 24.171875 6.390625 31.78125 6.390625 
Q 39.453125 6.390625 43.28125 13.890625 
Q 47.125 21.390625 47.125 36.375 
Q 47.125 51.421875 43.28125 58.90625 
Q 39.453125 66.40625 31.78125 66.40625 
z
M 31.78125 74.21875 
Q 44.046875 74.21875 50.515625 64.515625 
Q 56.984375 54.828125 56.984375 36.375 
Q 56.984375 17.96875 50.515625 8.265625 
Q 44.046875 -1.421875 31.78125 -1.421875 
Q 19.53125 -1.421875 13.0625 8.265625 
Q 6.59375 17.96875 6.59375 36.375 
Q 6.59375 54.828125 13.0625 64.515625 
Q 19.53125 74.21875 31.78125 74.21875 
z
" id="DejaVuSans-48"/>
       </defs>
       <use xlink:href="#DejaVuSans-8722"/>
       <use x="83.789062" xlink:href="#DejaVuSans-49"/>
       <use x="147.412109" xlink:href="#DejaVuSans-48"/>
      </g>
     </g>
    </g>
    <g id="xtick_2">
     <g id="line2d_2">
      <path clip-path="url(#p54a1dc45b3)" d="M 97.747924 192.24 
L 97.747924 25.92 
" style="fill:none;stroke:#cccccc;stroke-linecap:round;stroke-width:0.8;"/>
     </g>
     <g id="text_2">
      <!-- −8 -->
      <g style="fill:#262626;" transform="translate(90.37683 206.838437)scale(0.1 -0.1)">
       <defs>
        <path d="M 31.78125 34.625 
Q 24.75 34.625 20.71875 30.859375 
Q 16.703125 27.09375 16.703125 20.515625 
Q 16.703125 13.921875 20.71875 10.15625 
Q 24.75 6.390625 31.78125 6.390625 
Q 38.8125 6.390625 42.859375 10.171875 
Q 46.921875 13.96875 46.921875 20.515625 
Q 46.921875 27.09375 42.890625 30.859375 
Q 38.875 34.625 31.78125 34.625 
z
M 21.921875 38.8125 
Q 15.578125 40.375 12.03125 44.71875 
Q 8.5 49.078125 8.5 55.328125 
Q 8.5 64.0625 14.71875 69.140625 
Q 20.953125 74.21875 31.78125 74.21875 
Q 42.671875 74.21875 48.875 69.140625 
Q 55.078125 64.0625 55.078125 55.328125 
Q 55.078125 49.078125 51.53125 44.71875 
Q 48 40.375 41.703125 38.8125 
Q 48.828125 37.15625 52.796875 32.3125 
Q 56.78125 27.484375 56.78125 20.515625 
Q 56.78125 9.90625 50.3125 4.234375 
Q 43.84375 -1.421875 31.78125 -1.421875 
Q 19.734375 -1.421875 13.25 4.234375 
Q 6.78125 9.90625 6.78125 20.515625 
Q 6.78125 27.484375 10.78125 32.3125 
Q 14.796875 37.15625 21.921875 38.8125 
z
M 18.3125 54.390625 
Q 18.3125 48.734375 21.84375 45.5625 
Q 25.390625 42.390625 31.78125 42.390625 
Q 38.140625 42.390625 41.71875 45.5625 
Q 45.3125 48.734375 45.3125 54.390625 
Q 45.3125 60.0625 41.71875 63.234375 
Q 38.140625 66.40625 31.78125 66.40625 
Q 25.390625 66.40625 21.84375 63.234375 
Q 18.3125 60.0625 18.3125 54.390625 
z
" id="DejaVuSans-56"/>
       </defs>
       <use xlink:href="#DejaVuSans-8722"/>
       <use x="83.789062" xlink:href="#DejaVuSans-56"/>
      </g>
     </g>
    </g>
    <g id="xtick_3">
     <g id="line2d_3">
      <path clip-path="url(#p54a1dc45b3)" d="M 133.696385 192.24 
L 133.696385 25.92 
" style="fill:none;stroke:#cccccc;stroke-linecap:round;stroke-width:0.8;"/>
     </g>
     <g id="text_3">
      <!-- −6 -->
      <g style="fill:#262626;" transform="translate(126.325291 206.838437)scale(0.1 -0.1)">
       <defs>
        <path d="M 33.015625 40.375 
Q 26.375 40.375 22.484375 35.828125 
Q 18.609375 31.296875 18.609375 23.390625 
Q 18.609375 15.53125 22.484375 10.953125 
Q 26.375 6.390625 33.015625 6.390625 
Q 39.65625 6.390625 43.53125 10.953125 
Q 47.40625 15.53125 47.40625 23.390625 
Q 47.40625 31.296875 43.53125 35.828125 
Q 39.65625 40.375 33.015625 40.375 
z
M 52.59375 71.296875 
L 52.59375 62.3125 
Q 48.875 64.0625 45.09375 64.984375 
Q 41.3125 65.921875 37.59375 65.921875 
Q 27.828125 65.921875 22.671875 59.328125 
Q 17.53125 52.734375 16.796875 39.40625 
Q 19.671875 43.65625 24.015625 45.921875 
Q 28.375 48.1875 33.59375 48.1875 
Q 44.578125 48.1875 50.953125 41.515625 
Q 57.328125 34.859375 57.328125 23.390625 
Q 57.328125 12.15625 50.6875 5.359375 
Q 44.046875 -1.421875 33.015625 -1.421875 
Q 20.359375 -1.421875 13.671875 8.265625 
Q 6.984375 17.96875 6.984375 36.375 
Q 6.984375 53.65625 15.1875 63.9375 
Q 23.390625 74.21875 37.203125 74.21875 
Q 40.921875 74.21875 44.703125 73.484375 
Q 48.484375 72.75 52.59375 71.296875 
z
" id="DejaVuSans-54"/>
       </defs>
       <use xlink:href="#DejaVuSans-8722"/>
       <use x="83.789062" xlink:href="#DejaVuSans-54"/>
      </g>
     </g>
    </g>
    <g id="xtick_4">
     <g id="line2d_4">
      <path clip-path="url(#p54a1dc45b3)" d="M 169.644846 192.24 
L 169.644846 25.92 
" style="fill:none;stroke:#cccccc;stroke-linecap:round;stroke-width:0.8;"/>
     </g>
     <g id="text_4">
      <!-- −4 -->
      <g style="fill:#262626;" transform="translate(162.273752 206.838437)scale(0.1 -0.1)">
       <defs>
        <path d="M 37.796875 64.3125 
L 12.890625 25.390625 
L 37.796875 25.390625 
z
M 35.203125 72.90625 
L 47.609375 72.90625 
L 47.609375 25.390625 
L 58.015625 25.390625 
L 58.015625 17.1875 
L 47.609375 17.1875 
L 47.609375 0 
L 37.796875 0 
L 37.796875 17.1875 
L 4.890625 17.1875 
L 4.890625 26.703125 
z
" id="DejaVuSans-52"/>
       </defs>
       <use xlink:href="#DejaVuSans-8722"/>
       <use x="83.789062" xlink:href="#DejaVuSans-52"/>
      </g>
     </g>
    </g>
    <g id="xtick_5">
     <g id="line2d_5">
      <path clip-path="url(#p54a1dc45b3)" d="M 205.593307 192.24 
L 205.593307 25.92 
" style="fill:none;stroke:#cccccc;stroke-linecap:round;stroke-width:0.8;"/>
     </g>
     <g id="text_5">
      <!-- −2 -->
      <g style="fill:#262626;" transform="translate(198.222213 206.838437)scale(0.1 -0.1)">
       <defs>
        <path d="M 19.1875 8.296875 
L 53.609375 8.296875 
L 53.609375 0 
L 7.328125 0 
L 7.328125 8.296875 
Q 12.9375 14.109375 22.625 23.890625 
Q 32.328125 33.6875 34.8125 36.53125 
Q 39.546875 41.84375 41.421875 45.53125 
Q 43.3125 49.21875 43.3125 52.78125 
Q 43.3125 58.59375 39.234375 62.25 
Q 35.15625 65.921875 28.609375 65.921875 
Q 23.96875 65.921875 18.8125 64.3125 
Q 13.671875 62.703125 7.8125 59.421875 
L 7.8125 69.390625 
Q 13.765625 71.78125 18.9375 73 
Q 24.125 74.21875 28.421875 74.21875 
Q 39.75 74.21875 46.484375 68.546875 
Q 53.21875 62.890625 53.21875 53.421875 
Q 53.21875 48.921875 51.53125 44.890625 
Q 49.859375 40.875 45.40625 35.40625 
Q 44.1875 33.984375 37.640625 27.21875 
Q 31.109375 20.453125 19.1875 8.296875 
z
" id="DejaVuSans-50"/>
       </defs>
       <use xlink:href="#DejaVuSans-8722"/>
       <use x="83.789062" xlink:href="#DejaVuSans-50"/>
      </g>
     </g>
    </g>
    <g id="xtick_6">
     <g id="line2d_6">
      <path clip-path="url(#p54a1dc45b3)" d="M 241.541768 192.24 
L 241.541768 25.92 
" style="fill:none;stroke:#cccccc;stroke-linecap:round;stroke-width:0.8;"/>
     </g>
     <g id="text_6">
      <!-- 0 -->
      <g style="fill:#262626;" transform="translate(238.360518 206.838437)scale(0.1 -0.1)">
       <use xlink:href="#DejaVuSans-48"/>
      </g>
     </g>
    </g>
    <g id="xtick_7">
     <g id="line2d_7">
      <path clip-path="url(#p54a1dc45b3)" d="M 277.490229 192.24 
L 277.490229 25.92 
" style="fill:none;stroke:#cccccc;stroke-linecap:round;stroke-width:0.8;"/>
     </g>
     <g id="text_7">
      <!-- 2 -->
      <g style="fill:#262626;" transform="translate(274.308979 206.838437)scale(0.1 -0.1)">
       <use xlink:href="#DejaVuSans-50"/>
      </g>
     </g>
    </g>
   </g>
   <g id="matplotlib.axis_2">
    <g id="ytick_1">
     <g id="line2d_8">
      <path clip-path="url(#p54a1dc45b3)" d="M 40.5 178.917219 
L 291.6 178.917219 
" style="fill:none;stroke:#cccccc;stroke-linecap:round;stroke-width:0.8;"/>
     </g>
     <g id="line2d_9">
      <defs>
       <path d="M 0 0 
L -3.5 0 
" id="m5b219cd850" style="stroke:#262626;stroke-width:0.8;"/>
      </defs>
      <g>
       <use style="fill:#262626;stroke:#262626;stroke-width:0.8;" x="40.5" xlink:href="#m5b219cd850" y="178.917219"/>
      </g>
     </g>
     <g id="text_8">
      <!-- 0.00 -->
      <g style="fill:#262626;" transform="translate(11.234375 182.716438)scale(0.1 -0.1)">
       <defs>
        <path d="M 10.6875 12.40625 
L 21 12.40625 
L 21 0 
L 10.6875 0 
z
" id="DejaVuSans-46"/>
       </defs>
       <use xlink:href="#DejaVuSans-48"/>
       <use x="63.623047" xlink:href="#DejaVuSans-46"/>
       <use x="95.410156" xlink:href="#DejaVuSans-48"/>
       <use x="159.033203" xlink:href="#DejaVuSans-48"/>
      </g>
     </g>
    </g>
    <g id="ytick_2">
     <g id="line2d_10">
      <path clip-path="url(#p54a1dc45b3)" d="M 40.5 157.47462 
L 291.6 157.47462 
" style="fill:none;stroke:#cccccc;stroke-linecap:round;stroke-width:0.8;"/>
     </g>
     <g id="line2d_11">
      <g>
       <use style="fill:#262626;stroke:#262626;stroke-width:0.8;" x="40.5" xlink:href="#m5b219cd850" y="157.47462"/>
      </g>
     </g>
     <g id="text_9">
      <!-- 0.05 -->
      <g style="fill:#262626;" transform="translate(11.234375 161.273839)scale(0.1 -0.1)">
       <defs>
        <path d="M 10.796875 72.90625 
L 49.515625 72.90625 
L 49.515625 64.59375 
L 19.828125 64.59375 
L 19.828125 46.734375 
Q 21.96875 47.46875 24.109375 47.828125 
Q 26.265625 48.1875 28.421875 48.1875 
Q 40.625 48.1875 47.75 41.5 
Q 54.890625 34.8125 54.890625 23.390625 
Q 54.890625 11.625 47.5625 5.09375 
Q 40.234375 -1.421875 26.90625 -1.421875 
Q 22.3125 -1.421875 17.546875 -0.640625 
Q 12.796875 0.140625 7.71875 1.703125 
L 7.71875 11.625 
Q 12.109375 9.234375 16.796875 8.0625 
Q 21.484375 6.890625 26.703125 6.890625 
Q 35.15625 6.890625 40.078125 11.328125 
Q 45.015625 15.765625 45.015625 23.390625 
Q 45.015625 31 40.078125 35.4375 
Q 35.15625 39.890625 26.703125 39.890625 
Q 22.75 39.890625 18.8125 39.015625 
Q 14.890625 38.140625 10.796875 36.28125 
z
" id="DejaVuSans-53"/>
       </defs>
       <use xlink:href="#DejaVuSans-48"/>
       <use x="63.623047" xlink:href="#DejaVuSans-46"/>
       <use x="95.410156" xlink:href="#DejaVuSans-48"/>
       <use x="159.033203" xlink:href="#DejaVuSans-53"/>
      </g>
     </g>
    </g>
    <g id="ytick_3">
     <g id="line2d_12">
      <path clip-path="url(#p54a1dc45b3)" d="M 40.5 136.03202 
L 291.6 136.03202 
" style="fill:none;stroke:#cccccc;stroke-linecap:round;stroke-width:0.8;"/>
     </g>
     <g id="line2d_13">
      <g>
       <use style="fill:#262626;stroke:#262626;stroke-width:0.8;" x="40.5" xlink:href="#m5b219cd850" y="136.03202"/>
      </g>
     </g>
     <g id="text_10">
      <!-- 0.10 -->
      <g style="fill:#262626;" transform="translate(11.234375 139.831239)scale(0.1 -0.1)">
       <use xlink:href="#DejaVuSans-48"/>
       <use x="63.623047" xlink:href="#DejaVuSans-46"/>
       <use x="95.410156" xlink:href="#DejaVuSans-49"/>
       <use x="159.033203" xlink:href="#DejaVuSans-48"/>
      </g>
     </g>
    </g>
    <g id="ytick_4">
     <g id="line2d_14">
      <path clip-path="url(#p54a1dc45b3)" d="M 40.5 114.589421 
L 291.6 114.589421 
" style="fill:none;stroke:#cccccc;stroke-linecap:round;stroke-width:0.8;"/>
     </g>
     <g id="line2d_15">
      <g>
       <use style="fill:#262626;stroke:#262626;stroke-width:0.8;" x="40.5" xlink:href="#m5b219cd850" y="114.589421"/>
      </g>
     </g>
     <g id="text_11">
      <!-- 0.15 -->
      <g style="fill:#262626;" transform="translate(11.234375 118.38864)scale(0.1 -0.1)">
       <use xlink:href="#DejaVuSans-48"/>
       <use x="63.623047" xlink:href="#DejaVuSans-46"/>
       <use x="95.410156" xlink:href="#DejaVuSans-49"/>
       <use x="159.033203" xlink:href="#DejaVuSans-53"/>
      </g>
     </g>
    </g>
    <g id="ytick_5">
     <g id="line2d_16">
      <path clip-path="url(#p54a1dc45b3)" d="M 40.5 93.146822 
L 291.6 93.146822 
" style="fill:none;stroke:#cccccc;stroke-linecap:round;stroke-width:0.8;"/>
     </g>
     <g id="line2d_17">
      <g>
       <use style="fill:#262626;stroke:#262626;stroke-width:0.8;" x="40.5" xlink:href="#m5b219cd850" y="93.146822"/>
      </g>
     </g>
     <g id="text_12">
      <!-- 0.20 -->
      <g style="fill:#262626;" transform="translate(11.234375 96.946041)scale(0.1 -0.1)">
       <use xlink:href="#DejaVuSans-48"/>
       <use x="63.623047" xlink:href="#DejaVuSans-46"/>
       <use x="95.410156" xlink:href="#DejaVuSans-50"/>
       <use x="159.033203" xlink:href="#DejaVuSans-48"/>
      </g>
     </g>
    </g>
    <g id="ytick_6">
     <g id="line2d_18">
      <path clip-path="url(#p54a1dc45b3)" d="M 40.5 71.704223 
L 291.6 71.704223 
" style="fill:none;stroke:#cccccc;stroke-linecap:round;stroke-width:0.8;"/>
     </g>
     <g id="line2d_19">
      <g>
       <use style="fill:#262626;stroke:#262626;stroke-width:0.8;" x="40.5" xlink:href="#m5b219cd850" y="71.704223"/>
      </g>
     </g>
     <g id="text_13">
      <!-- 0.25 -->
      <g style="fill:#262626;" transform="translate(11.234375 75.503441)scale(0.1 -0.1)">
       <use xlink:href="#DejaVuSans-48"/>
       <use x="63.623047" xlink:href="#DejaVuSans-46"/>
       <use x="95.410156" xlink:href="#DejaVuSans-50"/>
       <use x="159.033203" xlink:href="#DejaVuSans-53"/>
      </g>
     </g>
    </g>
    <g id="ytick_7">
     <g id="line2d_20">
      <path clip-path="url(#p54a1dc45b3)" d="M 40.5 50.261623 
L 291.6 50.261623 
" style="fill:none;stroke:#cccccc;stroke-linecap:round;stroke-width:0.8;"/>
     </g>
     <g id="line2d_21">
      <g>
       <use style="fill:#262626;stroke:#262626;stroke-width:0.8;" x="40.5" xlink:href="#m5b219cd850" y="50.261623"/>
      </g>
     </g>
     <g id="text_14">
      <!-- 0.30 -->
      <g style="fill:#262626;" transform="translate(11.234375 54.060842)scale(0.1 -0.1)">
       <defs>
        <path d="M 40.578125 39.3125 
Q 47.65625 37.796875 51.625 33 
Q 55.609375 28.21875 55.609375 21.1875 
Q 55.609375 10.40625 48.1875 4.484375 
Q 40.765625 -1.421875 27.09375 -1.421875 
Q 22.515625 -1.421875 17.65625 -0.515625 
Q 12.796875 0.390625 7.625 2.203125 
L 7.625 11.71875 
Q 11.71875 9.328125 16.59375 8.109375 
Q 21.484375 6.890625 26.8125 6.890625 
Q 36.078125 6.890625 40.9375 10.546875 
Q 45.796875 14.203125 45.796875 21.1875 
Q 45.796875 27.640625 41.28125 31.265625 
Q 36.765625 34.90625 28.71875 34.90625 
L 20.21875 34.90625 
L 20.21875 43.015625 
L 29.109375 43.015625 
Q 36.375 43.015625 40.234375 45.921875 
Q 44.09375 48.828125 44.09375 54.296875 
Q 44.09375 59.90625 40.109375 62.90625 
Q 36.140625 65.921875 28.71875 65.921875 
Q 24.65625 65.921875 20.015625 65.03125 
Q 15.375 64.15625 9.8125 62.3125 
L 9.8125 71.09375 
Q 15.4375 72.65625 20.34375 73.4375 
Q 25.25 74.21875 29.59375 74.21875 
Q 40.828125 74.21875 47.359375 69.109375 
Q 53.90625 64.015625 53.90625 55.328125 
Q 53.90625 49.265625 50.4375 45.09375 
Q 46.96875 40.921875 40.578125 39.3125 
z
" id="DejaVuSans-51"/>
       </defs>
       <use xlink:href="#DejaVuSans-48"/>
       <use x="63.623047" xlink:href="#DejaVuSans-46"/>
       <use x="95.410156" xlink:href="#DejaVuSans-51"/>
       <use x="159.033203" xlink:href="#DejaVuSans-48"/>
      </g>
     </g>
    </g>
    <g id="ytick_8">
     <g id="line2d_22">
      <path clip-path="url(#p54a1dc45b3)" d="M 40.5 28.819024 
L 291.6 28.819024 
" style="fill:none;stroke:#cccccc;stroke-linecap:round;stroke-width:0.8;"/>
     </g>
     <g id="line2d_23">
      <g>
       <use style="fill:#262626;stroke:#262626;stroke-width:0.8;" x="40.5" xlink:href="#m5b219cd850" y="28.819024"/>
      </g>
     </g>
     <g id="text_15">
      <!-- 0.35 -->
      <g style="fill:#262626;" transform="translate(11.234375 32.618243)scale(0.1 -0.1)">
       <use xlink:href="#DejaVuSans-48"/>
       <use x="63.623047" xlink:href="#DejaVuSans-46"/>
       <use x="95.410156" xlink:href="#DejaVuSans-51"/>
       <use x="159.033203" xlink:href="#DejaVuSans-53"/>
      </g>
     </g>
    </g>
   </g>
   <g id="line2d_24">
    <path clip-path="url(#p54a1dc45b3)" d="M 52.812348 166.717286 
L 54.609778 166.723907 
L 56.407191 166.731014 
L 58.20462 166.738645 
L 60.002033 166.746835 
L 61.799463 166.755625 
L 63.596893 166.765059 
L 65.394306 166.775182 
L 67.191736 166.786042 
L 68.989148 166.797692 
L 70.786578 166.810187 
L 72.584008 166.823589 
L 74.381421 166.837958 
L 76.178851 166.853364 
L 77.976264 166.869878 
L 79.773694 166.887579 
L 81.571124 166.906547 
L 83.368536 166.926871 
L 85.165966 166.948643 
L 86.963379 166.971963 
L 88.760809 166.996937 
L 90.558239 167.023677 
L 92.355652 167.052302 
L 94.153081 167.082939 
L 95.950494 167.115724 
L 97.747924 167.150799 
L 99.545345 167.188317 
L 101.342767 167.22844 
L 103.140197 167.271337 
L 104.937618 167.317191 
L 106.735039 167.366192 
L 108.532461 167.418546 
L 110.329882 167.474464 
L 112.127312 167.534176 
L 113.924733 167.59792 
L 115.722155 167.665948 
L 117.519576 167.738528 
L 119.316997 167.815938 
L 121.114427 167.898474 
L 122.911849 167.986445 
L 124.70927 168.080177 
L 126.506691 168.180009 
L 128.304113 168.286298 
L 130.101542 168.399415 
L 131.898964 168.519748 
L 133.696385 168.647703 
L 135.493806 168.783696 
L 137.291228 168.928166 
L 139.088658 169.081561 
L 140.886079 169.244346 
L 142.6835 169.416996 
L 144.480922 169.600003 
L 146.278343 169.793863 
L 148.075773 169.999088 
L 149.873194 170.216187 
L 151.670616 170.445677 
L 153.468037 170.688074 
L 155.265458 170.94389 
L 157.062888 171.213628 
L 158.86031 171.497769 
L 160.657731 171.796778 
L 162.455152 172.111093 
L 164.252574 172.441111 
L 166.050003 172.787178 
L 167.847425 173.149585 
L 169.644846 173.528545 
L 171.442267 173.924199 
L 173.239693 174.336564 
L 175.037114 174.765547 
L 176.83454 175.210919 
L 178.631961 175.672267 
L 180.429383 176.149003 
L 182.226808 176.640308 
L 184.02423 177.145119 
L 185.821655 177.66208 
L 187.619077 178.18952 
L 189.416498 178.725393 
L 191.213924 179.267254 
L 193.011345 179.812185 
L 194.808771 180.356781 
L 196.606192 180.89706 
L 198.403613 181.42842 
L 200.201039 181.945599 
L 201.99846 182.442569 
L 203.795886 182.912536 
L 205.593307 183.347816 
L 207.390731 183.739829 
L 209.188154 184.079019 
L 210.985575 184.35481 
L 212.782999 184.555569 
L 214.580422 184.668572 
L 216.377846 184.68 
L 218.175269 184.574932 
L 219.972691 184.337385 
L 221.770114 183.950355 
L 223.567538 183.39591 
L 225.364961 182.655318 
L 227.162383 181.709183 
L 228.959807 180.537664 
L 230.757229 179.120738 
L 232.554653 177.438459 
L 234.352076 175.471356 
L 236.149499 173.20077 
L 237.946922 170.609338 
L 239.744345 167.681449 
L 241.541768 164.403725 
L 243.339191 160.765568 
L 245.136614 156.759677 
L 246.934037 152.382491 
L 248.73146 147.634746 
L 250.528883 142.521793 
L 252.326307 137.053936 
L 254.123729 131.246693 
L 255.921153 125.120811 
L 257.718575 118.702301 
L 259.515999 112.022174 
L 261.313422 105.116147 
L 263.110846 98.024115 
L 264.908267 90.789462 
L 266.70569 83.458404 
L 268.503114 76.079015 
L 270.300537 68.700329 
L 272.097961 61.37138 
L 273.895382 54.140254 
L 275.692806 47.053015 
L 277.490229 40.152989 
L 279.28765 33.48 
" style="fill:none;stroke:#1f77b4;stroke-linecap:round;stroke-width:1.5;"/>
   </g>
   <g id="line2d_25">
    <path clip-path="url(#p54a1dc45b3)" d="M 52.812348 166.717286 
L 54.609778 166.723907 
L 56.407191 166.731014 
L 58.20462 166.738645 
L 60.002033 166.746835 
L 61.799463 166.755625 
L 63.596893 166.765059 
L 65.394306 166.775182 
L 67.191736 166.786042 
L 68.989148 166.797692 
L 70.786578 166.810187 
L 72.584008 166.823589 
L 74.381421 166.837958 
L 76.178851 166.853364 
L 77.976264 166.869878 
L 79.773694 166.887579 
L 81.571124 166.906547 
L 83.368536 166.926871 
L 85.165966 166.948643 
L 86.963379 166.971963 
L 88.760809 166.996937 
L 90.558239 167.023677 
L 92.355652 167.052302 
L 94.153081 167.082939 
L 95.950494 167.115724 
L 97.747924 167.150799 
L 99.545345 167.188317 
L 101.342767 167.22844 
L 103.140197 167.271337 
L 104.937618 167.317191 
L 106.735039 167.366192 
L 108.532461 167.418546 
L 110.329882 167.474464 
L 112.127312 167.534176 
L 113.924733 167.59792 
L 115.722155 167.665948 
L 117.519576 167.738528 
L 119.316997 167.815938 
L 121.114427 167.898474 
L 122.911849 167.986445 
L 124.70927 168.080177 
L 126.506691 168.180009 
L 128.304113 168.286298 
L 130.101542 168.399415 
L 131.898964 168.519748 
L 133.696385 168.647703 
L 135.493806 168.783696 
L 137.291228 168.928166 
L 139.088658 169.081561 
L 140.886079 169.244346 
L 142.6835 169.416996 
L 144.480922 169.600003 
L 146.278343 169.793863 
L 148.075773 169.999088 
L 149.873194 170.216187 
L 151.670616 170.445677 
L 153.468037 170.688074 
L 155.265458 170.94389 
L 157.062888 171.213628 
L 158.86031 171.497769 
L 160.657731 171.796778 
L 162.455152 172.111093 
L 164.252574 172.441111 
L 166.050003 172.787178 
L 167.847425 173.149585 
L 169.644846 173.528545 
L 171.442267 173.924199 
L 173.239693 174.336564 
L 175.037114 174.765547 
L 176.83454 175.210919 
L 178.631961 175.672267 
L 180.429383 176.149003 
L 182.226808 176.640308 
L 184.02423 177.145119 
L 185.821655 177.66208 
L 187.619077 178.18952 
L 189.416498 178.725393 
L 191.213924 179.267254 
L 193.011345 179.812185 
L 194.808771 180.356781 
L 196.606192 180.89706 
L 198.403613 181.42842 
L 200.201039 181.945599 
L 201.99846 182.442569 
L 203.795886 182.912536 
L 205.593307 183.347816 
L 207.390731 183.739829 
L 209.188154 184.079019 
L 210.985575 184.35481 
L 212.782999 184.555569 
L 214.580422 184.668572 
L 216.377846 184.68 
L 218.175269 184.574932 
L 219.972691 184.337385 
L 221.770114 183.950355 
L 223.567538 183.39591 
L 225.364961 182.655318 
L 227.162383 181.709183 
L 228.959807 180.537664 
L 230.757229 179.120738 
L 232.554653 177.438459 
L 234.352076 175.471356 
L 236.149499 173.20077 
L 237.946922 170.609338 
L 239.744345 167.681449 
L 241.541768 164.403725 
L 243.339191 160.765568 
L 245.136614 156.759677 
L 246.934037 152.382491 
L 248.73146 147.634746 
L 250.528883 142.521793 
L 252.326307 137.053936 
L 254.123729 131.246693 
L 255.921153 125.120811 
L 257.718575 118.702301 
L 259.515999 112.022174 
L 261.313422 105.116147 
L 263.110846 98.024115 
L 264.908267 90.789462 
L 266.70569 83.458404 
L 268.503114 76.079015 
L 270.300537 68.700329 
L 272.097961 61.37138 
L 273.895382 54.140254 
L 275.692806 47.053015 
L 277.490229 40.152989 
L 279.28765 33.48 
" style="fill:none;stroke:#ff7f0e;stroke-dasharray:5.55,2.4;stroke-dashoffset:0;stroke-width:1.5;"/>
   </g>
   <g id="patch_3">
    <path d="M 40.5 192.24 
L 40.5 25.92 
" style="fill:none;stroke:#cccccc;stroke-linecap:square;stroke-linejoin:miter;stroke-width:0.8;"/>
   </g>
   <g id="patch_4">
    <path d="M 291.6 192.24 
L 291.6 25.92 
" style="fill:none;stroke:#cccccc;stroke-linecap:square;stroke-linejoin:miter;stroke-width:0.8;"/>
   </g>
   <g id="patch_5">
    <path d="M 40.5 192.24 
L 291.6 192.24 
" style="fill:none;stroke:#cccccc;stroke-linecap:square;stroke-linejoin:miter;stroke-width:0.8;"/>
   </g>
   <g id="patch_6">
    <path d="M 40.5 25.92 
L 291.6 25.92 
" style="fill:none;stroke:#cccccc;stroke-linecap:square;stroke-linejoin:miter;stroke-width:0.8;"/>
   </g>
   <g id="legend_1">
    <g id="patch_7">
     <path d="M 47.5 63.27625 
L 181.189063 63.27625 
Q 183.189063 63.27625 183.189063 61.27625 
L 183.189063 32.92 
Q 183.189063 30.92 181.189063 30.92 
L 47.5 30.92 
Q 45.5 30.92 45.5 32.92 
L 45.5 61.27625 
Q 45.5 63.27625 47.5 63.27625 
z
" style="fill:#ffffff;opacity:0.8;stroke:#cccccc;stroke-linejoin:miter;"/>
    </g>
    <g id="line2d_26">
     <path d="M 49.5 39.018437 
L 69.5 39.018437 
" style="fill:none;stroke:#1f77b4;stroke-linecap:round;stroke-width:1.5;"/>
    </g>
    <g id="line2d_27"/>
    <g id="text_16">
     <!-- R.RAF (13494.4) -->
     <g style="fill:#262626;" transform="translate(77.5 42.518437)scale(0.1 -0.1)">
      <defs>
       <path d="M 44.390625 34.1875 
Q 47.5625 33.109375 50.5625 29.59375 
Q 53.5625 26.078125 56.59375 19.921875 
L 66.609375 0 
L 56 0 
L 46.6875 18.703125 
Q 43.0625 26.03125 39.671875 28.421875 
Q 36.28125 30.8125 30.421875 30.8125 
L 19.671875 30.8125 
L 19.671875 0 
L 9.8125 0 
L 9.8125 72.90625 
L 32.078125 72.90625 
Q 44.578125 72.90625 50.734375 67.671875 
Q 56.890625 62.453125 56.890625 51.90625 
Q 56.890625 45.015625 53.6875 40.46875 
Q 50.484375 35.9375 44.390625 34.1875 
z
M 19.671875 64.796875 
L 19.671875 38.921875 
L 32.078125 38.921875 
Q 39.203125 38.921875 42.84375 42.21875 
Q 46.484375 45.515625 46.484375 51.90625 
Q 46.484375 58.296875 42.84375 61.546875 
Q 39.203125 64.796875 32.078125 64.796875 
z
" id="DejaVuSans-82"/>
       <path d="M 34.1875 63.1875 
L 20.796875 26.90625 
L 47.609375 26.90625 
z
M 28.609375 72.90625 
L 39.796875 72.90625 
L 67.578125 0 
L 57.328125 0 
L 50.6875 18.703125 
L 17.828125 18.703125 
L 11.1875 0 
L 0.78125 0 
z
" id="DejaVuSans-65"/>
       <path d="M 9.8125 72.90625 
L 51.703125 72.90625 
L 51.703125 64.59375 
L 19.671875 64.59375 
L 19.671875 43.109375 
L 48.578125 43.109375 
L 48.578125 34.8125 
L 19.671875 34.8125 
L 19.671875 0 
L 9.8125 0 
z
" id="DejaVuSans-70"/>
       <path id="DejaVuSans-32"/>
       <path d="M 31 75.875 
Q 24.46875 64.65625 21.28125 53.65625 
Q 18.109375 42.671875 18.109375 31.390625 
Q 18.109375 20.125 21.3125 9.0625 
Q 24.515625 -2 31 -13.1875 
L 23.1875 -13.1875 
Q 15.875 -1.703125 12.234375 9.375 
Q 8.59375 20.453125 8.59375 31.390625 
Q 8.59375 42.28125 12.203125 53.3125 
Q 15.828125 64.359375 23.1875 75.875 
z
" id="DejaVuSans-40"/>
       <path d="M 10.984375 1.515625 
L 10.984375 10.5 
Q 14.703125 8.734375 18.5 7.8125 
Q 22.3125 6.890625 25.984375 6.890625 
Q 35.75 6.890625 40.890625 13.453125 
Q 46.046875 20.015625 46.78125 33.40625 
Q 43.953125 29.203125 39.59375 26.953125 
Q 35.25 24.703125 29.984375 24.703125 
Q 19.046875 24.703125 12.671875 31.3125 
Q 6.296875 37.9375 6.296875 49.421875 
Q 6.296875 60.640625 12.9375 67.421875 
Q 19.578125 74.21875 30.609375 74.21875 
Q 43.265625 74.21875 49.921875 64.515625 
Q 56.59375 54.828125 56.59375 36.375 
Q 56.59375 19.140625 48.40625 8.859375 
Q 40.234375 -1.421875 26.421875 -1.421875 
Q 22.703125 -1.421875 18.890625 -0.6875 
Q 15.09375 0.046875 10.984375 1.515625 
z
M 30.609375 32.421875 
Q 37.25 32.421875 41.125 36.953125 
Q 45.015625 41.5 45.015625 49.421875 
Q 45.015625 57.28125 41.125 61.84375 
Q 37.25 66.40625 30.609375 66.40625 
Q 23.96875 66.40625 20.09375 61.84375 
Q 16.21875 57.28125 16.21875 49.421875 
Q 16.21875 41.5 20.09375 36.953125 
Q 23.96875 32.421875 30.609375 32.421875 
z
" id="DejaVuSans-57"/>
       <path d="M 8.015625 75.875 
L 15.828125 75.875 
Q 23.140625 64.359375 26.78125 53.3125 
Q 30.421875 42.28125 30.421875 31.390625 
Q 30.421875 20.453125 26.78125 9.375 
Q 23.140625 -1.703125 15.828125 -13.1875 
L 8.015625 -13.1875 
Q 14.5 -2 17.703125 9.0625 
Q 20.90625 20.125 20.90625 31.390625 
Q 20.90625 42.671875 17.703125 53.65625 
Q 14.5 64.65625 8.015625 75.875 
z
" id="DejaVuSans-41"/>
      </defs>
      <use xlink:href="#DejaVuSans-82"/>
      <use x="65.857422" xlink:href="#DejaVuSans-46"/>
      <use x="97.644531" xlink:href="#DejaVuSans-82"/>
      <use x="163.126953" xlink:href="#DejaVuSans-65"/>
      <use x="231.535156" xlink:href="#DejaVuSans-70"/>
      <use x="289.054688" xlink:href="#DejaVuSans-32"/>
      <use x="320.841797" xlink:href="#DejaVuSans-40"/>
      <use x="359.855469" xlink:href="#DejaVuSans-49"/>
      <use x="423.478516" xlink:href="#DejaVuSans-51"/>
      <use x="487.101562" xlink:href="#DejaVuSans-52"/>
      <use x="550.724609" xlink:href="#DejaVuSans-57"/>
      <use x="614.347656" xlink:href="#DejaVuSans-52"/>
      <use x="677.970703" xlink:href="#DejaVuSans-46"/>
      <use x="709.757812" xlink:href="#DejaVuSans-52"/>
      <use x="773.380859" xlink:href="#DejaVuSans-41"/>
     </g>
    </g>
    <g id="line2d_28">
     <path d="M 49.5 53.696562 
L 69.5 53.696562 
" style="fill:none;stroke:#ff7f0e;stroke-dasharray:5.55,2.4;stroke-dashoffset:0;stroke-width:1.5;"/>
    </g>
    <g id="line2d_29"/>
    <g id="text_17">
     <!-- Adjusted dSiLU (7.2) -->
     <g style="fill:#262626;" transform="translate(77.5 57.196562)scale(0.1 -0.1)">
      <defs>
       <path d="M 45.40625 46.390625 
L 45.40625 75.984375 
L 54.390625 75.984375 
L 54.390625 0 
L 45.40625 0 
L 45.40625 8.203125 
Q 42.578125 3.328125 38.25 0.953125 
Q 33.9375 -1.421875 27.875 -1.421875 
Q 17.96875 -1.421875 11.734375 6.484375 
Q 5.515625 14.40625 5.515625 27.296875 
Q 5.515625 40.1875 11.734375 48.09375 
Q 17.96875 56 27.875 56 
Q 33.9375 56 38.25 53.625 
Q 42.578125 51.265625 45.40625 46.390625 
z
M 14.796875 27.296875 
Q 14.796875 17.390625 18.875 11.75 
Q 22.953125 6.109375 30.078125 6.109375 
Q 37.203125 6.109375 41.296875 11.75 
Q 45.40625 17.390625 45.40625 27.296875 
Q 45.40625 37.203125 41.296875 42.84375 
Q 37.203125 48.484375 30.078125 48.484375 
Q 22.953125 48.484375 18.875 42.84375 
Q 14.796875 37.203125 14.796875 27.296875 
z
" id="DejaVuSans-100"/>
       <path d="M 9.421875 54.6875 
L 18.40625 54.6875 
L 18.40625 -0.984375 
Q 18.40625 -11.421875 14.421875 -16.109375 
Q 10.453125 -20.796875 1.609375 -20.796875 
L -1.8125 -20.796875 
L -1.8125 -13.1875 
L 0.59375 -13.1875 
Q 5.71875 -13.1875 7.5625 -10.8125 
Q 9.421875 -8.453125 9.421875 -0.984375 
z
M 9.421875 75.984375 
L 18.40625 75.984375 
L 18.40625 64.59375 
L 9.421875 64.59375 
z
" id="DejaVuSans-106"/>
       <path d="M 8.5 21.578125 
L 8.5 54.6875 
L 17.484375 54.6875 
L 17.484375 21.921875 
Q 17.484375 14.15625 20.5 10.265625 
Q 23.53125 6.390625 29.59375 6.390625 
Q 36.859375 6.390625 41.078125 11.03125 
Q 45.3125 15.671875 45.3125 23.6875 
L 45.3125 54.6875 
L 54.296875 54.6875 
L 54.296875 0 
L 45.3125 0 
L 45.3125 8.40625 
Q 42.046875 3.421875 37.71875 1 
Q 33.40625 -1.421875 27.6875 -1.421875 
Q 18.265625 -1.421875 13.375 4.4375 
Q 8.5 10.296875 8.5 21.578125 
z
M 31.109375 56 
z
" id="DejaVuSans-117"/>
       <path d="M 44.28125 53.078125 
L 44.28125 44.578125 
Q 40.484375 46.53125 36.375 47.5 
Q 32.28125 48.484375 27.875 48.484375 
Q 21.1875 48.484375 17.84375 46.4375 
Q 14.5 44.390625 14.5 40.28125 
Q 14.5 37.15625 16.890625 35.375 
Q 19.28125 33.59375 26.515625 31.984375 
L 29.59375 31.296875 
Q 39.15625 29.25 43.1875 25.515625 
Q 47.21875 21.78125 47.21875 15.09375 
Q 47.21875 7.46875 41.1875 3.015625 
Q 35.15625 -1.421875 24.609375 -1.421875 
Q 20.21875 -1.421875 15.453125 -0.5625 
Q 10.6875 0.296875 5.421875 2 
L 5.421875 11.28125 
Q 10.40625 8.6875 15.234375 7.390625 
Q 20.0625 6.109375 24.8125 6.109375 
Q 31.15625 6.109375 34.5625 8.28125 
Q 37.984375 10.453125 37.984375 14.40625 
Q 37.984375 18.0625 35.515625 20.015625 
Q 33.0625 21.96875 24.703125 23.78125 
L 21.578125 24.515625 
Q 13.234375 26.265625 9.515625 29.90625 
Q 5.8125 33.546875 5.8125 39.890625 
Q 5.8125 47.609375 11.28125 51.796875 
Q 16.75 56 26.8125 56 
Q 31.78125 56 36.171875 55.265625 
Q 40.578125 54.546875 44.28125 53.078125 
z
" id="DejaVuSans-115"/>
       <path d="M 18.3125 70.21875 
L 18.3125 54.6875 
L 36.8125 54.6875 
L 36.8125 47.703125 
L 18.3125 47.703125 
L 18.3125 18.015625 
Q 18.3125 11.328125 20.140625 9.421875 
Q 21.96875 7.515625 27.59375 7.515625 
L 36.8125 7.515625 
L 36.8125 0 
L 27.59375 0 
Q 17.1875 0 13.234375 3.875 
Q 9.28125 7.765625 9.28125 18.015625 
L 9.28125 47.703125 
L 2.6875 47.703125 
L 2.6875 54.6875 
L 9.28125 54.6875 
L 9.28125 70.21875 
z
" id="DejaVuSans-116"/>
       <path d="M 56.203125 29.59375 
L 56.203125 25.203125 
L 14.890625 25.203125 
Q 15.484375 15.921875 20.484375 11.0625 
Q 25.484375 6.203125 34.421875 6.203125 
Q 39.59375 6.203125 44.453125 7.46875 
Q 49.3125 8.734375 54.109375 11.28125 
L 54.109375 2.78125 
Q 49.265625 0.734375 44.1875 -0.34375 
Q 39.109375 -1.421875 33.890625 -1.421875 
Q 20.796875 -1.421875 13.15625 6.1875 
Q 5.515625 13.8125 5.515625 26.8125 
Q 5.515625 40.234375 12.765625 48.109375 
Q 20.015625 56 32.328125 56 
Q 43.359375 56 49.78125 48.890625 
Q 56.203125 41.796875 56.203125 29.59375 
z
M 47.21875 32.234375 
Q 47.125 39.59375 43.09375 43.984375 
Q 39.0625 48.390625 32.421875 48.390625 
Q 24.90625 48.390625 20.390625 44.140625 
Q 15.875 39.890625 15.1875 32.171875 
z
" id="DejaVuSans-101"/>
       <path d="M 53.515625 70.515625 
L 53.515625 60.890625 
Q 47.90625 63.578125 42.921875 64.890625 
Q 37.9375 66.21875 33.296875 66.21875 
Q 25.25 66.21875 20.875 63.09375 
Q 16.5 59.96875 16.5 54.203125 
Q 16.5 49.359375 19.40625 46.890625 
Q 22.3125 44.4375 30.421875 42.921875 
L 36.375 41.703125 
Q 47.40625 39.59375 52.65625 34.296875 
Q 57.90625 29 57.90625 20.125 
Q 57.90625 9.515625 50.796875 4.046875 
Q 43.703125 -1.421875 29.984375 -1.421875 
Q 24.8125 -1.421875 18.96875 -0.25 
Q 13.140625 0.921875 6.890625 3.21875 
L 6.890625 13.375 
Q 12.890625 10.015625 18.65625 8.296875 
Q 24.421875 6.59375 29.984375 6.59375 
Q 38.421875 6.59375 43.015625 9.90625 
Q 47.609375 13.234375 47.609375 19.390625 
Q 47.609375 24.75 44.3125 27.78125 
Q 41.015625 30.8125 33.5 32.328125 
L 27.484375 33.5 
Q 16.453125 35.6875 11.515625 40.375 
Q 6.59375 45.0625 6.59375 53.421875 
Q 6.59375 63.09375 13.40625 68.65625 
Q 20.21875 74.21875 32.171875 74.21875 
Q 37.3125 74.21875 42.625 73.28125 
Q 47.953125 72.359375 53.515625 70.515625 
z
" id="DejaVuSans-83"/>
       <path d="M 9.421875 54.6875 
L 18.40625 54.6875 
L 18.40625 0 
L 9.421875 0 
z
M 9.421875 75.984375 
L 18.40625 75.984375 
L 18.40625 64.59375 
L 9.421875 64.59375 
z
" id="DejaVuSans-105"/>
       <path d="M 9.8125 72.90625 
L 19.671875 72.90625 
L 19.671875 8.296875 
L 55.171875 8.296875 
L 55.171875 0 
L 9.8125 0 
z
" id="DejaVuSans-76"/>
       <path d="M 8.6875 72.90625 
L 18.609375 72.90625 
L 18.609375 28.609375 
Q 18.609375 16.890625 22.84375 11.734375 
Q 27.09375 6.59375 36.625 6.59375 
Q 46.09375 6.59375 50.34375 11.734375 
Q 54.59375 16.890625 54.59375 28.609375 
L 54.59375 72.90625 
L 64.5 72.90625 
L 64.5 27.390625 
Q 64.5 13.140625 57.4375 5.859375 
Q 50.390625 -1.421875 36.625 -1.421875 
Q 22.796875 -1.421875 15.734375 5.859375 
Q 8.6875 13.140625 8.6875 27.390625 
z
" id="DejaVuSans-85"/>
       <path d="M 8.203125 72.90625 
L 55.078125 72.90625 
L 55.078125 68.703125 
L 28.609375 0 
L 18.3125 0 
L 43.21875 64.59375 
L 8.203125 64.59375 
z
" id="DejaVuSans-55"/>
      </defs>
      <use xlink:href="#DejaVuSans-65"/>
      <use x="66.658203" xlink:href="#DejaVuSans-100"/>
      <use x="130.134766" xlink:href="#DejaVuSans-106"/>
      <use x="157.917969" xlink:href="#DejaVuSans-117"/>
      <use x="221.296875" xlink:href="#DejaVuSans-115"/>
      <use x="273.396484" xlink:href="#DejaVuSans-116"/>
      <use x="312.605469" xlink:href="#DejaVuSans-101"/>
      <use x="374.128906" xlink:href="#DejaVuSans-100"/>
      <use x="437.605469" xlink:href="#DejaVuSans-32"/>
      <use x="469.392578" xlink:href="#DejaVuSans-100"/>
      <use x="532.869141" xlink:href="#DejaVuSans-83"/>
      <use x="596.345703" xlink:href="#DejaVuSans-105"/>
      <use x="624.128906" xlink:href="#DejaVuSans-76"/>
      <use x="674.841797" xlink:href="#DejaVuSans-85"/>
      <use x="748.035156" xlink:href="#DejaVuSans-32"/>
      <use x="779.822266" xlink:href="#DejaVuSans-40"/>
      <use x="818.835938" xlink:href="#DejaVuSans-55"/>
      <use x="882.458984" xlink:href="#DejaVuSans-46"/>
      <use x="914.246094" xlink:href="#DejaVuSans-50"/>
      <use x="977.869141" xlink:href="#DejaVuSans-41"/>
     </g>
    </g>
   </g>
  </g>
  <g id="axes_2">
   <g id="matplotlib.axis_3"/>
   <g id="patch_8">
    <path clip-path="url(#p54a1dc45b3)" d="M 51.913636 192.24 
L 53.711059 192.24 
L 53.711059 187.48557 
L 51.913636 187.48557 
z
" style="fill:#808080;fill-opacity:0.6;stroke:#808080;stroke-linejoin:miter;stroke-opacity:0.6;"/>
   </g>
   <g id="patch_9">
    <path clip-path="url(#p54a1dc45b3)" d="M 53.711059 192.24 
L 55.508482 192.24 
L 55.508482 188.169888 
L 53.711059 188.169888 
z
" style="fill:#808080;fill-opacity:0.6;stroke:#808080;stroke-linejoin:miter;stroke-opacity:0.6;"/>
   </g>
   <g id="patch_10">
    <path clip-path="url(#p54a1dc45b3)" d="M 55.508482 192.24 
L 57.305906 192.24 
L 57.305906 187.480812 
L 55.508482 187.480812 
z
" style="fill:#808080;fill-opacity:0.6;stroke:#808080;stroke-linejoin:miter;stroke-opacity:0.6;"/>
   </g>
   <g id="patch_11">
    <path clip-path="url(#p54a1dc45b3)" d="M 57.305906 192.24 
L 59.103329 192.24 
L 59.103329 187.920417 
L 57.305906 187.920417 
z
" style="fill:#808080;fill-opacity:0.6;stroke:#808080;stroke-linejoin:miter;stroke-opacity:0.6;"/>
   </g>
   <g id="patch_12">
    <path clip-path="url(#p54a1dc45b3)" d="M 59.103329 192.24 
L 60.900752 192.24 
L 60.900752 187.430404 
L 59.103329 187.430404 
z
" style="fill:#808080;fill-opacity:0.6;stroke:#808080;stroke-linejoin:miter;stroke-opacity:0.6;"/>
   </g>
   <g id="patch_13">
    <path clip-path="url(#p54a1dc45b3)" d="M 60.900752 192.24 
L 62.698175 192.24 
L 62.698175 187.348201 
L 60.900752 187.348201 
z
" style="fill:#808080;fill-opacity:0.6;stroke:#808080;stroke-linejoin:miter;stroke-opacity:0.6;"/>
   </g>
   <g id="patch_14">
    <path clip-path="url(#p54a1dc45b3)" d="M 62.698175 192.24 
L 64.495598 192.24 
L 64.495598 187.101889 
L 62.698175 187.101889 
z
" style="fill:#808080;fill-opacity:0.6;stroke:#808080;stroke-linejoin:miter;stroke-opacity:0.6;"/>
   </g>
   <g id="patch_15">
    <path clip-path="url(#p54a1dc45b3)" d="M 64.495598 192.24 
L 66.293021 192.24 
L 66.293021 187.397051 
L 64.495598 187.397051 
z
" style="fill:#808080;fill-opacity:0.6;stroke:#808080;stroke-linejoin:miter;stroke-opacity:0.6;"/>
   </g>
   <g id="patch_16">
    <path clip-path="url(#p54a1dc45b3)" d="M 66.293021 192.24 
L 68.090444 192.24 
L 68.090444 187.415243 
L 66.293021 187.415243 
z
" style="fill:#808080;fill-opacity:0.6;stroke:#808080;stroke-linejoin:miter;stroke-opacity:0.6;"/>
   </g>
   <g id="patch_17">
    <path clip-path="url(#p54a1dc45b3)" d="M 68.090444 192.24 
L 69.887867 192.24 
L 69.887867 186.510638 
L 68.090444 186.510638 
z
" style="fill:#808080;fill-opacity:0.6;stroke:#808080;stroke-linejoin:miter;stroke-opacity:0.6;"/>
   </g>
   <g id="patch_18">
    <path clip-path="url(#p54a1dc45b3)" d="M 69.887867 192.24 
L 71.68529 192.24 
L 71.68529 186.15054 
L 69.887867 186.15054 
z
" style="fill:#808080;fill-opacity:0.6;stroke:#808080;stroke-linejoin:miter;stroke-opacity:0.6;"/>
   </g>
   <g id="patch_19">
    <path clip-path="url(#p54a1dc45b3)" d="M 71.68529 192.24 
L 73.482713 192.24 
L 73.482713 186.292415 
L 71.68529 186.292415 
z
" style="fill:#808080;fill-opacity:0.6;stroke:#808080;stroke-linejoin:miter;stroke-opacity:0.6;"/>
   </g>
   <g id="patch_20">
    <path clip-path="url(#p54a1dc45b3)" d="M 73.482713 192.24 
L 75.280136 192.24 
L 75.280136 185.521136 
L 73.482713 185.521136 
z
" style="fill:#808080;fill-opacity:0.6;stroke:#808080;stroke-linejoin:miter;stroke-opacity:0.6;"/>
   </g>
   <g id="patch_21">
    <path clip-path="url(#p54a1dc45b3)" d="M 75.280136 192.24 
L 77.077559 192.24 
L 77.077559 185.632353 
L 75.280136 185.632353 
z
" style="fill:#808080;fill-opacity:0.6;stroke:#808080;stroke-linejoin:miter;stroke-opacity:0.6;"/>
   </g>
   <g id="patch_22">
    <path clip-path="url(#p54a1dc45b3)" d="M 77.077559 192.24 
L 78.874982 192.24 
L 78.874982 185.756246 
L 77.077559 185.756246 
z
" style="fill:#808080;fill-opacity:0.6;stroke:#808080;stroke-linejoin:miter;stroke-opacity:0.6;"/>
   </g>
   <g id="patch_23">
    <path clip-path="url(#p54a1dc45b3)" d="M 78.874982 192.24 
L 80.672405 192.24 
L 80.672405 185.534696 
L 78.874982 185.534696 
z
" style="fill:#808080;fill-opacity:0.6;stroke:#808080;stroke-linejoin:miter;stroke-opacity:0.6;"/>
   </g>
   <g id="patch_24">
    <path clip-path="url(#p54a1dc45b3)" d="M 80.672405 192.24 
L 82.469828 192.24 
L 82.469828 185.004802 
L 80.672405 185.004802 
z
" style="fill:#808080;fill-opacity:0.6;stroke:#808080;stroke-linejoin:miter;stroke-opacity:0.6;"/>
   </g>
   <g id="patch_25">
    <path clip-path="url(#p54a1dc45b3)" d="M 82.469828 192.24 
L 84.267251 192.24 
L 84.267251 185.511618 
L 82.469828 185.511618 
z
" style="fill:#808080;fill-opacity:0.6;stroke:#808080;stroke-linejoin:miter;stroke-opacity:0.6;"/>
   </g>
   <g id="patch_26">
    <path clip-path="url(#p54a1dc45b3)" d="M 84.267251 192.24 
L 86.064674 192.24 
L 86.064674 184.528938 
L 84.267251 184.528938 
z
" style="fill:#808080;fill-opacity:0.6;stroke:#808080;stroke-linejoin:miter;stroke-opacity:0.6;"/>
   </g>
   <g id="patch_27">
    <path clip-path="url(#p54a1dc45b3)" d="M 86.064674 192.24 
L 87.862097 192.24 
L 87.862097 184.371819 
L 86.064674 184.371819 
z
" style="fill:#808080;fill-opacity:0.6;stroke:#808080;stroke-linejoin:miter;stroke-opacity:0.6;"/>
   </g>
   <g id="patch_28">
    <path clip-path="url(#p54a1dc45b3)" d="M 87.862097 192.24 
L 89.65952 192.24 
L 89.65952 183.701735 
L 87.862097 183.701735 
z
" style="fill:#808080;fill-opacity:0.6;stroke:#808080;stroke-linejoin:miter;stroke-opacity:0.6;"/>
   </g>
   <g id="patch_29">
    <path clip-path="url(#p54a1dc45b3)" d="M 89.65952 192.24 
L 91.456943 192.24 
L 91.456943 183.59616 
L 89.65952 183.59616 
z
" style="fill:#808080;fill-opacity:0.6;stroke:#808080;stroke-linejoin:miter;stroke-opacity:0.6;"/>
   </g>
   <g id="patch_30">
    <path clip-path="url(#p54a1dc45b3)" d="M 91.456943 192.24 
L 93.254366 192.24 
L 93.254366 183.909009 
L 91.456943 183.909009 
z
" style="fill:#808080;fill-opacity:0.6;stroke:#808080;stroke-linejoin:miter;stroke-opacity:0.6;"/>
   </g>
   <g id="patch_31">
    <path clip-path="url(#p54a1dc45b3)" d="M 93.254366 192.24 
L 95.05179 192.24 
L 95.05179 183.903366 
L 93.254366 183.903366 
z
" style="fill:#808080;fill-opacity:0.6;stroke:#808080;stroke-linejoin:miter;stroke-opacity:0.6;"/>
   </g>
   <g id="patch_32">
    <path clip-path="url(#p54a1dc45b3)" d="M 95.05179 192.24 
L 96.849213 192.24 
L 96.849213 182.470931 
L 95.05179 182.470931 
z
" style="fill:#808080;fill-opacity:0.6;stroke:#808080;stroke-linejoin:miter;stroke-opacity:0.6;"/>
   </g>
   <g id="patch_33">
    <path clip-path="url(#p54a1dc45b3)" d="M 96.849213 192.24 
L 98.646636 192.24 
L 98.646636 182.29044 
L 96.849213 182.29044 
z
" style="fill:#808080;fill-opacity:0.6;stroke:#808080;stroke-linejoin:miter;stroke-opacity:0.6;"/>
   </g>
   <g id="patch_34">
    <path clip-path="url(#p54a1dc45b3)" d="M 98.646636 192.24 
L 100.444059 192.24 
L 100.444059 181.927604 
L 98.646636 181.927604 
z
" style="fill:#808080;fill-opacity:0.6;stroke:#808080;stroke-linejoin:miter;stroke-opacity:0.6;"/>
   </g>
   <g id="patch_35">
    <path clip-path="url(#p54a1dc45b3)" d="M 100.444059 192.24 
L 102.241482 192.24 
L 102.241482 182.066573 
L 100.444059 182.066573 
z
" style="fill:#808080;fill-opacity:0.6;stroke:#808080;stroke-linejoin:miter;stroke-opacity:0.6;"/>
   </g>
   <g id="patch_36">
    <path clip-path="url(#p54a1dc45b3)" d="M 102.241482 192.24 
L 104.038905 192.24 
L 104.038905 182.266689 
L 102.241482 182.266689 
z
" style="fill:#808080;fill-opacity:0.6;stroke:#808080;stroke-linejoin:miter;stroke-opacity:0.6;"/>
   </g>
   <g id="patch_37">
    <path clip-path="url(#p54a1dc45b3)" d="M 104.038905 192.24 
L 105.836328 192.24 
L 105.836328 180.400122 
L 104.038905 180.400122 
z
" style="fill:#808080;fill-opacity:0.6;stroke:#808080;stroke-linejoin:miter;stroke-opacity:0.6;"/>
   </g>
   <g id="patch_38">
    <path clip-path="url(#p54a1dc45b3)" d="M 105.836328 192.24 
L 107.633751 192.24 
L 107.633751 179.817968 
L 105.836328 179.817968 
z
" style="fill:#808080;fill-opacity:0.6;stroke:#808080;stroke-linejoin:miter;stroke-opacity:0.6;"/>
   </g>
   <g id="patch_39">
    <path clip-path="url(#p54a1dc45b3)" d="M 107.633751 192.24 
L 109.431174 192.24 
L 109.431174 179.907287 
L 107.633751 179.907287 
z
" style="fill:#808080;fill-opacity:0.6;stroke:#808080;stroke-linejoin:miter;stroke-opacity:0.6;"/>
   </g>
   <g id="patch_40">
    <path clip-path="url(#p54a1dc45b3)" d="M 109.431174 192.24 
L 111.228597 192.24 
L 111.228597 179.622358 
L 109.431174 179.622358 
z
" style="fill:#808080;fill-opacity:0.6;stroke:#808080;stroke-linejoin:miter;stroke-opacity:0.6;"/>
   </g>
   <g id="patch_41">
    <path clip-path="url(#p54a1dc45b3)" d="M 111.228597 192.24 
L 113.02602 192.24 
L 113.02602 179.335071 
L 111.228597 179.335071 
z
" style="fill:#808080;fill-opacity:0.6;stroke:#808080;stroke-linejoin:miter;stroke-opacity:0.6;"/>
   </g>
   <g id="patch_42">
    <path clip-path="url(#p54a1dc45b3)" d="M 113.02602 192.24 
L 114.823443 192.24 
L 114.823443 178.496287 
L 113.02602 178.496287 
z
" style="fill:#808080;fill-opacity:0.6;stroke:#808080;stroke-linejoin:miter;stroke-opacity:0.6;"/>
   </g>
   <g id="patch_43">
    <path clip-path="url(#p54a1dc45b3)" d="M 114.823443 192.24 
L 116.620866 192.24 
L 116.620866 177.991744 
L 114.823443 177.991744 
z
" style="fill:#808080;fill-opacity:0.6;stroke:#808080;stroke-linejoin:miter;stroke-opacity:0.6;"/>
   </g>
   <g id="patch_44">
    <path clip-path="url(#p54a1dc45b3)" d="M 116.620866 192.24 
L 118.418289 192.24 
L 118.418289 177.70231 
L 116.620866 177.70231 
z
" style="fill:#808080;fill-opacity:0.6;stroke:#808080;stroke-linejoin:miter;stroke-opacity:0.6;"/>
   </g>
   <g id="patch_45">
    <path clip-path="url(#p54a1dc45b3)" d="M 118.418289 192.24 
L 120.215712 192.24 
L 120.215712 176.702826 
L 118.418289 176.702826 
z
" style="fill:#808080;fill-opacity:0.6;stroke:#808080;stroke-linejoin:miter;stroke-opacity:0.6;"/>
   </g>
   <g id="patch_46">
    <path clip-path="url(#p54a1dc45b3)" d="M 120.215712 192.24 
L 122.013135 192.24 
L 122.013135 175.697279 
L 120.215712 175.697279 
z
" style="fill:#808080;fill-opacity:0.6;stroke:#808080;stroke-linejoin:miter;stroke-opacity:0.6;"/>
   </g>
   <g id="patch_47">
    <path clip-path="url(#p54a1dc45b3)" d="M 122.013135 192.24 
L 123.810558 192.24 
L 123.810558 174.589232 
L 122.013135 174.589232 
z
" style="fill:#808080;fill-opacity:0.6;stroke:#808080;stroke-linejoin:miter;stroke-opacity:0.6;"/>
   </g>
   <g id="patch_48">
    <path clip-path="url(#p54a1dc45b3)" d="M 123.810558 192.24 
L 125.607981 192.24 
L 125.607981 175.301891 
L 123.810558 175.301891 
z
" style="fill:#808080;fill-opacity:0.6;stroke:#808080;stroke-linejoin:miter;stroke-opacity:0.6;"/>
   </g>
   <g id="patch_49">
    <path clip-path="url(#p54a1dc45b3)" d="M 125.607981 192.24 
L 127.405404 192.24 
L 127.405404 175.010519 
L 125.607981 175.010519 
z
" style="fill:#808080;fill-opacity:0.6;stroke:#808080;stroke-linejoin:miter;stroke-opacity:0.6;"/>
   </g>
   <g id="patch_50">
    <path clip-path="url(#p54a1dc45b3)" d="M 127.405404 192.24 
L 129.202827 192.24 
L 129.202827 173.21689 
L 127.405404 173.21689 
z
" style="fill:#808080;fill-opacity:0.6;stroke:#808080;stroke-linejoin:miter;stroke-opacity:0.6;"/>
   </g>
   <g id="patch_51">
    <path clip-path="url(#p54a1dc45b3)" d="M 129.202827 192.24 
L 131.000251 192.24 
L 131.000251 172.758882 
L 129.202827 172.758882 
z
" style="fill:#808080;fill-opacity:0.6;stroke:#808080;stroke-linejoin:miter;stroke-opacity:0.6;"/>
   </g>
   <g id="patch_52">
    <path clip-path="url(#p54a1dc45b3)" d="M 131.000251 192.24 
L 132.797674 192.24 
L 132.797674 172.053002 
L 131.000251 172.053002 
z
" style="fill:#808080;fill-opacity:0.6;stroke:#808080;stroke-linejoin:miter;stroke-opacity:0.6;"/>
   </g>
   <g id="patch_53">
    <path clip-path="url(#p54a1dc45b3)" d="M 132.797674 192.24 
L 134.595097 192.24 
L 134.595097 170.91733 
L 132.797674 170.91733 
z
" style="fill:#808080;fill-opacity:0.6;stroke:#808080;stroke-linejoin:miter;stroke-opacity:0.6;"/>
   </g>
   <g id="patch_54">
    <path clip-path="url(#p54a1dc45b3)" d="M 134.595097 192.24 
L 136.39252 192.24 
L 136.39252 171.962925 
L 134.595097 171.962925 
z
" style="fill:#808080;fill-opacity:0.6;stroke:#808080;stroke-linejoin:miter;stroke-opacity:0.6;"/>
   </g>
   <g id="patch_55">
    <path clip-path="url(#p54a1dc45b3)" d="M 136.39252 192.24 
L 138.189943 192.24 
L 138.189943 169.43217 
L 136.39252 169.43217 
z
" style="fill:#808080;fill-opacity:0.6;stroke:#808080;stroke-linejoin:miter;stroke-opacity:0.6;"/>
   </g>
   <g id="patch_56">
    <path clip-path="url(#p54a1dc45b3)" d="M 138.189943 192.24 
L 139.987366 192.24 
L 139.987366 169.23016 
L 138.189943 169.23016 
z
" style="fill:#808080;fill-opacity:0.6;stroke:#808080;stroke-linejoin:miter;stroke-opacity:0.6;"/>
   </g>
   <g id="patch_57">
    <path clip-path="url(#p54a1dc45b3)" d="M 139.987366 192.24 
L 141.784789 192.24 
L 141.784789 168.101309 
L 139.987366 168.101309 
z
" style="fill:#808080;fill-opacity:0.6;stroke:#808080;stroke-linejoin:miter;stroke-opacity:0.6;"/>
   </g>
   <g id="patch_58">
    <path clip-path="url(#p54a1dc45b3)" d="M 141.784789 192.24 
L 143.582212 192.24 
L 143.582212 168.042268 
L 141.784789 168.042268 
z
" style="fill:#808080;fill-opacity:0.6;stroke:#808080;stroke-linejoin:miter;stroke-opacity:0.6;"/>
   </g>
   <g id="patch_59">
    <path clip-path="url(#p54a1dc45b3)" d="M 143.582212 192.24 
L 145.379635 192.24 
L 145.379635 166.615097 
L 143.582212 166.615097 
z
" style="fill:#808080;fill-opacity:0.6;stroke:#808080;stroke-linejoin:miter;stroke-opacity:0.6;"/>
   </g>
   <g id="patch_60">
    <path clip-path="url(#p54a1dc45b3)" d="M 145.379635 192.24 
L 147.177058 192.24 
L 147.177058 164.88173 
L 145.379635 164.88173 
z
" style="fill:#808080;fill-opacity:0.6;stroke:#808080;stroke-linejoin:miter;stroke-opacity:0.6;"/>
   </g>
   <g id="patch_61">
    <path clip-path="url(#p54a1dc45b3)" d="M 147.177058 192.24 
L 148.974481 192.24 
L 148.974481 165.567101 
L 147.177058 165.567101 
z
" style="fill:#808080;fill-opacity:0.6;stroke:#808080;stroke-linejoin:miter;stroke-opacity:0.6;"/>
   </g>
   <g id="patch_62">
    <path clip-path="url(#p54a1dc45b3)" d="M 148.974481 192.24 
L 150.771904 192.24 
L 150.771904 163.617701 
L 148.974481 163.617701 
z
" style="fill:#808080;fill-opacity:0.6;stroke:#808080;stroke-linejoin:miter;stroke-opacity:0.6;"/>
   </g>
   <g id="patch_63">
    <path clip-path="url(#p54a1dc45b3)" d="M 150.771904 192.24 
L 152.569327 192.24 
L 152.569327 162.090345 
L 150.771904 162.090345 
z
" style="fill:#808080;fill-opacity:0.6;stroke:#808080;stroke-linejoin:miter;stroke-opacity:0.6;"/>
   </g>
   <g id="patch_64">
    <path clip-path="url(#p54a1dc45b3)" d="M 152.569327 192.24 
L 154.36675 192.24 
L 154.36675 161.617176 
L 152.569327 161.617176 
z
" style="fill:#808080;fill-opacity:0.6;stroke:#808080;stroke-linejoin:miter;stroke-opacity:0.6;"/>
   </g>
   <g id="patch_65">
    <path clip-path="url(#p54a1dc45b3)" d="M 154.36675 192.24 
L 156.164173 192.24 
L 156.164173 161.489072 
L 154.36675 161.489072 
z
" style="fill:#808080;fill-opacity:0.6;stroke:#808080;stroke-linejoin:miter;stroke-opacity:0.6;"/>
   </g>
   <g id="patch_66">
    <path clip-path="url(#p54a1dc45b3)" d="M 156.164173 192.24 
L 157.961596 192.24 
L 157.961596 159.146894 
L 156.164173 159.146894 
z
" style="fill:#808080;fill-opacity:0.6;stroke:#808080;stroke-linejoin:miter;stroke-opacity:0.6;"/>
   </g>
   <g id="patch_67">
    <path clip-path="url(#p54a1dc45b3)" d="M 157.961596 192.24 
L 159.759019 192.24 
L 159.759019 158.4435 
L 157.961596 158.4435 
z
" style="fill:#808080;fill-opacity:0.6;stroke:#808080;stroke-linejoin:miter;stroke-opacity:0.6;"/>
   </g>
   <g id="patch_68">
    <path clip-path="url(#p54a1dc45b3)" d="M 159.759019 192.24 
L 161.556442 192.24 
L 161.556442 157.68456 
L 159.759019 157.68456 
z
" style="fill:#808080;fill-opacity:0.6;stroke:#808080;stroke-linejoin:miter;stroke-opacity:0.6;"/>
   </g>
   <g id="patch_69">
    <path clip-path="url(#p54a1dc45b3)" d="M 161.556442 192.24 
L 163.353865 192.24 
L 163.353865 156.32961 
L 161.556442 156.32961 
z
" style="fill:#808080;fill-opacity:0.6;stroke:#808080;stroke-linejoin:miter;stroke-opacity:0.6;"/>
   </g>
   <g id="patch_70">
    <path clip-path="url(#p54a1dc45b3)" d="M 163.353865 192.24 
L 165.151288 192.24 
L 165.151288 153.681237 
L 163.353865 153.681237 
z
" style="fill:#808080;fill-opacity:0.6;stroke:#808080;stroke-linejoin:miter;stroke-opacity:0.6;"/>
   </g>
   <g id="patch_71">
    <path clip-path="url(#p54a1dc45b3)" d="M 165.151288 192.24 
L 166.948712 192.24 
L 166.948712 122.075101 
L 165.151288 122.075101 
z
" style="fill:#808080;fill-opacity:0.6;stroke:#808080;stroke-linejoin:miter;stroke-opacity:0.6;"/>
   </g>
   <g id="patch_72">
    <path clip-path="url(#p54a1dc45b3)" d="M 166.948712 192.24 
L 168.746135 192.24 
L 168.746135 121.2938 
L 166.948712 121.2938 
z
" style="fill:#808080;fill-opacity:0.6;stroke:#808080;stroke-linejoin:miter;stroke-opacity:0.6;"/>
   </g>
   <g id="patch_73">
    <path clip-path="url(#p54a1dc45b3)" d="M 168.746135 192.24 
L 170.543558 192.24 
L 170.543558 150.276492 
L 168.746135 150.276492 
z
" style="fill:#808080;fill-opacity:0.6;stroke:#808080;stroke-linejoin:miter;stroke-opacity:0.6;"/>
   </g>
   <g id="patch_74">
    <path clip-path="url(#p54a1dc45b3)" d="M 170.543558 192.24 
L 172.340981 192.24 
L 172.340981 148.773394 
L 170.543558 148.773394 
z
" style="fill:#808080;fill-opacity:0.6;stroke:#808080;stroke-linejoin:miter;stroke-opacity:0.6;"/>
   </g>
   <g id="patch_75">
    <path clip-path="url(#p54a1dc45b3)" d="M 172.340981 192.24 
L 174.138404 192.24 
L 174.138404 147.187713 
L 172.340981 147.187713 
z
" style="fill:#808080;fill-opacity:0.6;stroke:#808080;stroke-linejoin:miter;stroke-opacity:0.6;"/>
   </g>
   <g id="patch_76">
    <path clip-path="url(#p54a1dc45b3)" d="M 174.138404 192.24 
L 175.935827 192.24 
L 175.935827 147.71289 
L 174.138404 147.71289 
z
" style="fill:#808080;fill-opacity:0.6;stroke:#808080;stroke-linejoin:miter;stroke-opacity:0.6;"/>
   </g>
   <g id="patch_77">
    <path clip-path="url(#p54a1dc45b3)" d="M 175.935827 192.24 
L 177.73325 192.24 
L 177.73325 147.136 
L 175.935827 147.136 
z
" style="fill:#808080;fill-opacity:0.6;stroke:#808080;stroke-linejoin:miter;stroke-opacity:0.6;"/>
   </g>
   <g id="patch_78">
    <path clip-path="url(#p54a1dc45b3)" d="M 177.73325 192.24 
L 179.530673 192.24 
L 179.530673 143.23762 
L 177.73325 143.23762 
z
" style="fill:#808080;fill-opacity:0.6;stroke:#808080;stroke-linejoin:miter;stroke-opacity:0.6;"/>
   </g>
   <g id="patch_79">
    <path clip-path="url(#p54a1dc45b3)" d="M 179.530673 192.24 
L 181.328096 192.24 
L 181.328096 109.722975 
L 179.530673 109.722975 
z
" style="fill:#808080;fill-opacity:0.6;stroke:#808080;stroke-linejoin:miter;stroke-opacity:0.6;"/>
   </g>
   <g id="patch_80">
    <path clip-path="url(#p54a1dc45b3)" d="M 181.328096 192.24 
L 183.125519 192.24 
L 183.125519 107.907995 
L 181.328096 107.907995 
z
" style="fill:#808080;fill-opacity:0.6;stroke:#808080;stroke-linejoin:miter;stroke-opacity:0.6;"/>
   </g>
   <g id="patch_81">
    <path clip-path="url(#p54a1dc45b3)" d="M 183.125519 192.24 
L 184.922942 192.24 
L 184.922942 137.523377 
L 183.125519 137.523377 
z
" style="fill:#808080;fill-opacity:0.6;stroke:#808080;stroke-linejoin:miter;stroke-opacity:0.6;"/>
   </g>
   <g id="patch_82">
    <path clip-path="url(#p54a1dc45b3)" d="M 184.922942 192.24 
L 186.720365 192.24 
L 186.720365 138.273852 
L 184.922942 138.273852 
z
" style="fill:#808080;fill-opacity:0.6;stroke:#808080;stroke-linejoin:miter;stroke-opacity:0.6;"/>
   </g>
   <g id="patch_83">
    <path clip-path="url(#p54a1dc45b3)" d="M 186.720365 192.24 
L 188.517788 192.24 
L 188.517788 104.424628 
L 186.720365 104.424628 
z
" style="fill:#808080;fill-opacity:0.6;stroke:#808080;stroke-linejoin:miter;stroke-opacity:0.6;"/>
   </g>
   <g id="patch_84">
    <path clip-path="url(#p54a1dc45b3)" d="M 188.517788 192.24 
L 190.315211 192.24 
L 190.315211 102.675638 
L 188.517788 102.675638 
z
" style="fill:#808080;fill-opacity:0.6;stroke:#808080;stroke-linejoin:miter;stroke-opacity:0.6;"/>
   </g>
   <g id="patch_85">
    <path clip-path="url(#p54a1dc45b3)" d="M 190.315211 192.24 
L 192.112634 192.24 
L 192.112634 100.422779 
L 190.315211 100.422779 
z
" style="fill:#808080;fill-opacity:0.6;stroke:#808080;stroke-linejoin:miter;stroke-opacity:0.6;"/>
   </g>
   <g id="patch_86">
    <path clip-path="url(#p54a1dc45b3)" d="M 192.112634 192.24 
L 193.910057 192.24 
L 193.910057 107.052535 
L 192.112634 107.052535 
z
" style="fill:#808080;fill-opacity:0.6;stroke:#808080;stroke-linejoin:miter;stroke-opacity:0.6;"/>
   </g>
   <g id="patch_87">
    <path clip-path="url(#p54a1dc45b3)" d="M 193.910057 192.24 
L 195.70748 192.24 
L 195.70748 134.374967 
L 193.910057 134.374967 
z
" style="fill:#808080;fill-opacity:0.6;stroke:#808080;stroke-linejoin:miter;stroke-opacity:0.6;"/>
   </g>
   <g id="patch_88">
    <path clip-path="url(#p54a1dc45b3)" d="M 195.70748 192.24 
L 197.504903 192.24 
L 197.504903 33.84 
L 195.70748 33.84 
z
" style="fill:#808080;fill-opacity:0.6;stroke:#808080;stroke-linejoin:miter;stroke-opacity:0.6;"/>
   </g>
   <g id="patch_89">
    <path clip-path="url(#p54a1dc45b3)" d="M 197.504903 192.24 
L 199.302326 192.24 
L 199.302326 106.251314 
L 197.504903 106.251314 
z
" style="fill:#808080;fill-opacity:0.6;stroke:#808080;stroke-linejoin:miter;stroke-opacity:0.6;"/>
   </g>
   <g id="patch_90">
    <path clip-path="url(#p54a1dc45b3)" d="M 199.302326 192.24 
L 201.099749 192.24 
L 201.099749 123.190939 
L 199.302326 123.190939 
z
" style="fill:#808080;fill-opacity:0.6;stroke:#808080;stroke-linejoin:miter;stroke-opacity:0.6;"/>
   </g>
   <g id="patch_91">
    <path clip-path="url(#p54a1dc45b3)" d="M 201.099749 192.24 
L 202.897173 192.24 
L 202.897173 127.076643 
L 201.099749 127.076643 
z
" style="fill:#808080;fill-opacity:0.6;stroke:#808080;stroke-linejoin:miter;stroke-opacity:0.6;"/>
   </g>
   <g id="patch_92">
    <path clip-path="url(#p54a1dc45b3)" d="M 202.897173 192.24 
L 204.694596 192.24 
L 204.694596 60.92648 
L 202.897173 60.92648 
z
" style="fill:#808080;fill-opacity:0.6;stroke:#808080;stroke-linejoin:miter;stroke-opacity:0.6;"/>
   </g>
   <g id="patch_93">
    <path clip-path="url(#p54a1dc45b3)" d="M 204.694596 192.24 
L 206.492019 192.24 
L 206.492019 90.640319 
L 204.694596 90.640319 
z
" style="fill:#808080;fill-opacity:0.6;stroke:#808080;stroke-linejoin:miter;stroke-opacity:0.6;"/>
   </g>
   <g id="patch_94">
    <path clip-path="url(#p54a1dc45b3)" d="M 206.492019 192.24 
L 208.289442 192.24 
L 208.289442 117.589345 
L 206.492019 117.589345 
z
" style="fill:#808080;fill-opacity:0.6;stroke:#808080;stroke-linejoin:miter;stroke-opacity:0.6;"/>
   </g>
   <g id="patch_95">
    <path clip-path="url(#p54a1dc45b3)" d="M 208.289442 192.24 
L 210.086865 192.24 
L 210.086865 70.108214 
L 208.289442 70.108214 
z
" style="fill:#808080;fill-opacity:0.6;stroke:#808080;stroke-linejoin:miter;stroke-opacity:0.6;"/>
   </g>
   <g id="patch_96">
    <path clip-path="url(#p54a1dc45b3)" d="M 210.086865 192.24 
L 211.884288 192.24 
L 211.884288 125.659284 
L 210.086865 125.659284 
z
" style="fill:#808080;fill-opacity:0.6;stroke:#808080;stroke-linejoin:miter;stroke-opacity:0.6;"/>
   </g>
   <g id="patch_97">
    <path clip-path="url(#p54a1dc45b3)" d="M 211.884288 192.24 
L 213.681711 192.24 
L 213.681711 100.593037 
L 211.884288 100.593037 
z
" style="fill:#808080;fill-opacity:0.6;stroke:#808080;stroke-linejoin:miter;stroke-opacity:0.6;"/>
   </g>
   <g id="patch_98">
    <path clip-path="url(#p54a1dc45b3)" d="M 213.681711 192.24 
L 215.479134 192.24 
L 215.479134 96.841249 
L 213.681711 96.841249 
z
" style="fill:#808080;fill-opacity:0.6;stroke:#808080;stroke-linejoin:miter;stroke-opacity:0.6;"/>
   </g>
   <g id="patch_99">
    <path clip-path="url(#p54a1dc45b3)" d="M 215.479134 192.24 
L 217.276557 192.24 
L 217.276557 133.029788 
L 215.479134 133.029788 
z
" style="fill:#808080;fill-opacity:0.6;stroke:#808080;stroke-linejoin:miter;stroke-opacity:0.6;"/>
   </g>
   <g id="patch_100">
    <path clip-path="url(#p54a1dc45b3)" d="M 217.276557 192.24 
L 219.07398 192.24 
L 219.07398 100.851562 
L 217.276557 100.851562 
z
" style="fill:#808080;fill-opacity:0.6;stroke:#808080;stroke-linejoin:miter;stroke-opacity:0.6;"/>
   </g>
   <g id="patch_101">
    <path clip-path="url(#p54a1dc45b3)" d="M 219.07398 192.24 
L 220.871403 192.24 
L 220.871403 77.361015 
L 219.07398 77.361015 
z
" style="fill:#808080;fill-opacity:0.6;stroke:#808080;stroke-linejoin:miter;stroke-opacity:0.6;"/>
   </g>
   <g id="patch_102">
    <path clip-path="url(#p54a1dc45b3)" d="M 220.871403 192.24 
L 222.668826 192.24 
L 222.668826 107.029036 
L 220.871403 107.029036 
z
" style="fill:#808080;fill-opacity:0.6;stroke:#808080;stroke-linejoin:miter;stroke-opacity:0.6;"/>
   </g>
   <g id="patch_103">
    <path clip-path="url(#p54a1dc45b3)" d="M 222.668826 192.24 
L 224.466249 192.24 
L 224.466249 84.493713 
L 222.668826 84.493713 
z
" style="fill:#808080;fill-opacity:0.6;stroke:#808080;stroke-linejoin:miter;stroke-opacity:0.6;"/>
   </g>
   <g id="patch_104">
    <path clip-path="url(#p54a1dc45b3)" d="M 224.466249 192.24 
L 226.263672 192.24 
L 226.263672 116.700448 
L 224.466249 116.700448 
z
" style="fill:#808080;fill-opacity:0.6;stroke:#808080;stroke-linejoin:miter;stroke-opacity:0.6;"/>
   </g>
   <g id="patch_105">
    <path clip-path="url(#p54a1dc45b3)" d="M 226.263672 192.24 
L 228.061095 192.24 
L 228.061095 88.308079 
L 226.263672 88.308079 
z
" style="fill:#808080;fill-opacity:0.6;stroke:#808080;stroke-linejoin:miter;stroke-opacity:0.6;"/>
   </g>
   <g id="patch_106">
    <path clip-path="url(#p54a1dc45b3)" d="M 228.061095 192.24 
L 229.858518 192.24 
L 229.858518 116.765342 
L 228.061095 116.765342 
z
" style="fill:#808080;fill-opacity:0.6;stroke:#808080;stroke-linejoin:miter;stroke-opacity:0.6;"/>
   </g>
   <g id="patch_107">
    <path clip-path="url(#p54a1dc45b3)" d="M 229.858518 192.24 
L 231.655941 192.24 
L 231.655941 154.255138 
L 229.858518 154.255138 
z
" style="fill:#808080;fill-opacity:0.6;stroke:#808080;stroke-linejoin:miter;stroke-opacity:0.6;"/>
   </g>
   <g id="patch_108">
    <path clip-path="url(#p54a1dc45b3)" d="M 231.655941 192.24 
L 233.453364 192.24 
L 233.453364 157.170837 
L 231.655941 157.170837 
z
" style="fill:#808080;fill-opacity:0.6;stroke:#808080;stroke-linejoin:miter;stroke-opacity:0.6;"/>
   </g>
   <g id="patch_109">
    <path clip-path="url(#p54a1dc45b3)" d="M 233.453364 192.24 
L 235.250787 192.24 
L 235.250787 160.82282 
L 233.453364 160.82282 
z
" style="fill:#808080;fill-opacity:0.6;stroke:#808080;stroke-linejoin:miter;stroke-opacity:0.6;"/>
   </g>
   <g id="patch_110">
    <path clip-path="url(#p54a1dc45b3)" d="M 235.250787 192.24 
L 237.04821 192.24 
L 237.04821 130.708582 
L 235.250787 130.708582 
z
" style="fill:#808080;fill-opacity:0.6;stroke:#808080;stroke-linejoin:miter;stroke-opacity:0.6;"/>
   </g>
   <g id="patch_111">
    <path clip-path="url(#p54a1dc45b3)" d="M 237.04821 192.24 
L 238.845634 192.24 
L 238.845634 107.185482 
L 237.04821 107.185482 
z
" style="fill:#808080;fill-opacity:0.6;stroke:#808080;stroke-linejoin:miter;stroke-opacity:0.6;"/>
   </g>
   <g id="patch_112">
    <path clip-path="url(#p54a1dc45b3)" d="M 238.845634 192.24 
L 240.643057 192.24 
L 240.643057 165.405012 
L 238.845634 165.405012 
z
" style="fill:#808080;fill-opacity:0.6;stroke:#808080;stroke-linejoin:miter;stroke-opacity:0.6;"/>
   </g>
   <g id="patch_113">
    <path clip-path="url(#p54a1dc45b3)" d="M 240.643057 192.24 
L 242.44048 192.24 
L 242.44048 169.732386 
L 240.643057 169.732386 
z
" style="fill:#808080;fill-opacity:0.6;stroke:#808080;stroke-linejoin:miter;stroke-opacity:0.6;"/>
   </g>
   <g id="patch_114">
    <path clip-path="url(#p54a1dc45b3)" d="M 242.44048 192.24 
L 244.237903 192.24 
L 244.237903 172.728814 
L 242.44048 172.728814 
z
" style="fill:#808080;fill-opacity:0.6;stroke:#808080;stroke-linejoin:miter;stroke-opacity:0.6;"/>
   </g>
   <g id="patch_115">
    <path clip-path="url(#p54a1dc45b3)" d="M 244.237903 192.24 
L 246.035326 192.24 
L 246.035326 172.84698 
L 244.237903 172.84698 
z
" style="fill:#808080;fill-opacity:0.6;stroke:#808080;stroke-linejoin:miter;stroke-opacity:0.6;"/>
   </g>
   <g id="patch_116">
    <path clip-path="url(#p54a1dc45b3)" d="M 246.035326 192.24 
L 247.832749 192.24 
L 247.832749 175.634533 
L 246.035326 175.634533 
z
" style="fill:#808080;fill-opacity:0.6;stroke:#808080;stroke-linejoin:miter;stroke-opacity:0.6;"/>
   </g>
   <g id="patch_117">
    <path clip-path="url(#p54a1dc45b3)" d="M 247.832749 192.24 
L 249.630172 192.24 
L 249.630172 176.502753 
L 247.832749 176.502753 
z
" style="fill:#808080;fill-opacity:0.6;stroke:#808080;stroke-linejoin:miter;stroke-opacity:0.6;"/>
   </g>
   <g id="patch_118">
    <path clip-path="url(#p54a1dc45b3)" d="M 249.630172 192.24 
L 251.427595 192.24 
L 251.427595 176.869589 
L 249.630172 176.869589 
z
" style="fill:#808080;fill-opacity:0.6;stroke:#808080;stroke-linejoin:miter;stroke-opacity:0.6;"/>
   </g>
   <g id="patch_119">
    <path clip-path="url(#p54a1dc45b3)" d="M 251.427595 192.24 
L 253.225018 192.24 
L 253.225018 180.451035 
L 251.427595 180.451035 
z
" style="fill:#808080;fill-opacity:0.6;stroke:#808080;stroke-linejoin:miter;stroke-opacity:0.6;"/>
   </g>
   <g id="patch_120">
    <path clip-path="url(#p54a1dc45b3)" d="M 253.225018 192.24 
L 255.022441 192.24 
L 255.022441 182.411301 
L 253.225018 182.411301 
z
" style="fill:#808080;fill-opacity:0.6;stroke:#808080;stroke-linejoin:miter;stroke-opacity:0.6;"/>
   </g>
   <g id="patch_121">
    <path clip-path="url(#p54a1dc45b3)" d="M 255.022441 192.24 
L 256.819864 192.24 
L 256.819864 181.735532 
L 255.022441 181.735532 
z
" style="fill:#808080;fill-opacity:0.6;stroke:#808080;stroke-linejoin:miter;stroke-opacity:0.6;"/>
   </g>
   <g id="patch_122">
    <path clip-path="url(#p54a1dc45b3)" d="M 256.819864 192.24 
L 258.617287 192.24 
L 258.617287 182.927887 
L 256.819864 182.927887 
z
" style="fill:#808080;fill-opacity:0.6;stroke:#808080;stroke-linejoin:miter;stroke-opacity:0.6;"/>
   </g>
   <g id="patch_123">
    <path clip-path="url(#p54a1dc45b3)" d="M 258.617287 192.24 
L 260.41471 192.24 
L 260.41471 182.82307 
L 258.617287 182.82307 
z
" style="fill:#808080;fill-opacity:0.6;stroke:#808080;stroke-linejoin:miter;stroke-opacity:0.6;"/>
   </g>
   <g id="patch_124">
    <path clip-path="url(#p54a1dc45b3)" d="M 260.41471 192.24 
L 262.212133 192.24 
L 262.212133 184.718315 
L 260.41471 184.718315 
z
" style="fill:#808080;fill-opacity:0.6;stroke:#808080;stroke-linejoin:miter;stroke-opacity:0.6;"/>
   </g>
   <g id="patch_125">
    <path clip-path="url(#p54a1dc45b3)" d="M 262.212133 192.24 
L 264.009556 192.24 
L 264.009556 185.151225 
L 262.212133 185.151225 
z
" style="fill:#808080;fill-opacity:0.6;stroke:#808080;stroke-linejoin:miter;stroke-opacity:0.6;"/>
   </g>
   <g id="patch_126">
    <path clip-path="url(#p54a1dc45b3)" d="M 264.009556 192.24 
L 265.806979 192.24 
L 265.806979 185.05222 
L 264.009556 185.05222 
z
" style="fill:#808080;fill-opacity:0.6;stroke:#808080;stroke-linejoin:miter;stroke-opacity:0.6;"/>
   </g>
   <g id="patch_127">
    <path clip-path="url(#p54a1dc45b3)" d="M 265.806979 192.24 
L 267.604402 192.24 
L 267.604402 185.928989 
L 265.806979 185.928989 
z
" style="fill:#808080;fill-opacity:0.6;stroke:#808080;stroke-linejoin:miter;stroke-opacity:0.6;"/>
   </g>
   <g id="patch_128">
    <path clip-path="url(#p54a1dc45b3)" d="M 267.604402 192.24 
L 269.401825 192.24 
L 269.401825 186.648049 
L 267.604402 186.648049 
z
" style="fill:#808080;fill-opacity:0.6;stroke:#808080;stroke-linejoin:miter;stroke-opacity:0.6;"/>
   </g>
   <g id="patch_129">
    <path clip-path="url(#p54a1dc45b3)" d="M 269.401825 192.24 
L 271.199248 192.24 
L 271.199248 187.183081 
L 269.401825 187.183081 
z
" style="fill:#808080;fill-opacity:0.6;stroke:#808080;stroke-linejoin:miter;stroke-opacity:0.6;"/>
   </g>
   <g id="patch_130">
    <path clip-path="url(#p54a1dc45b3)" d="M 271.199248 192.24 
L 272.996671 192.24 
L 272.996671 187.170489 
L 271.199248 187.170489 
z
" style="fill:#808080;fill-opacity:0.6;stroke:#808080;stroke-linejoin:miter;stroke-opacity:0.6;"/>
   </g>
   <g id="patch_131">
    <path clip-path="url(#p54a1dc45b3)" d="M 272.996671 192.24 
L 274.794094 192.24 
L 274.794094 188.197219 
L 272.996671 188.197219 
z
" style="fill:#808080;fill-opacity:0.6;stroke:#808080;stroke-linejoin:miter;stroke-opacity:0.6;"/>
   </g>
   <g id="patch_132">
    <path clip-path="url(#p54a1dc45b3)" d="M 274.794094 192.24 
L 276.591518 192.24 
L 276.591518 187.916164 
L 274.794094 187.916164 
z
" style="fill:#808080;fill-opacity:0.6;stroke:#808080;stroke-linejoin:miter;stroke-opacity:0.6;"/>
   </g>
   <g id="patch_133">
    <path clip-path="url(#p54a1dc45b3)" d="M 276.591518 192.24 
L 278.388941 192.24 
L 278.388941 187.873631 
L 276.591518 187.873631 
z
" style="fill:#808080;fill-opacity:0.6;stroke:#808080;stroke-linejoin:miter;stroke-opacity:0.6;"/>
   </g>
   <g id="patch_134">
    <path clip-path="url(#p54a1dc45b3)" d="M 278.388941 192.24 
L 280.186364 192.24 
L 280.186364 187.459798 
L 278.388941 187.459798 
z
" style="fill:#808080;fill-opacity:0.6;stroke:#808080;stroke-linejoin:miter;stroke-opacity:0.6;"/>
   </g>
   <g id="patch_135">
    <path d="M 40.5 192.24 
L 40.5 25.92 
" style="fill:none;stroke:#cccccc;stroke-linecap:square;stroke-linejoin:miter;stroke-width:0.8;"/>
   </g>
   <g id="patch_136">
    <path d="M 291.6 192.24 
L 291.6 25.92 
" style="fill:none;stroke:#cccccc;stroke-linecap:square;stroke-linejoin:miter;stroke-width:0.8;"/>
   </g>
   <g id="patch_137">
    <path d="M 40.5 192.24 
L 291.6 192.24 
" style="fill:none;stroke:#cccccc;stroke-linecap:square;stroke-linejoin:miter;stroke-width:0.8;"/>
   </g>
   <g id="patch_138">
    <path d="M 40.5 25.92 
L 291.6 25.92 
" style="fill:none;stroke:#cccccc;stroke-linecap:square;stroke-linejoin:miter;stroke-width:0.8;"/>
   </g>
  </g>
 </g>
 <defs>
  <clipPath id="p54a1dc45b3">
   <rect height="166.32" width="251.1" x="40.5" y="25.92"/>
  </clipPath>
 </defs>
</svg>
