<?xml version="1.0" encoding="utf-8" standalone="no"?>
<!DOCTYPE svg PUBLIC "-//W3C//DTD SVG 1.1//EN"
  "http://www.w3.org/Graphics/SVG/1.1/DTD/svg11.dtd">
<!-- Created with matplotlib (https://matplotlib.org/) -->
<svg height="216pt" version="1.1" viewBox="0 0 324 216" width="324pt" xmlns="http://www.w3.org/2000/svg" xmlns:xlink="http://www.w3.org/1999/xlink">
 <metadata>
  <rdf:RDF xmlns:cc="http://creativecommons.org/ns#" xmlns:dc="http://purl.org/dc/elements/1.1/" xmlns:rdf="http://www.w3.org/1999/02/22-rdf-syntax-ns#">
   <cc:Work>
    <dc:type rdf:resource="http://purl.org/dc/dcmitype/StillImage"/>
    <dc:date>2021-01-11T16:08:24.403744</dc:date>
    <dc:format>image/svg+xml</dc:format>
    <dc:creator>
     <cc:Agent>
      <dc:title>Matplotlib v3.3.3, https://matplotlib.org/</dc:title>
     </cc:Agent>
    </dc:creator>
   </cc:Work>
  </rdf:RDF>
 </metadata>
 <defs>
  <style type="text/css">*{stroke-linecap:butt;stroke-linejoin:round;}</style>
 </defs>
 <g id="figure_1">
  <g id="patch_1">
   <path d="M 0 216 
L 324 216 
L 324 0 
L 0 0 
z
" style="fill:#ffffff;"/>
  </g>
  <g id="axes_1">
   <g id="patch_2">
    <path d="M 40.5 192.24 
L 291.6 192.24 
L 291.6 25.92 
L 40.5 25.92 
z
" style="fill:#ffffff;"/>
   </g>
   <g id="matplotlib.axis_1">
    <g id="xtick_1">
     <g id="line2d_1">
      <path clip-path="url(#pc65aced1af)" d="M 64.116895 192.24 
L 64.116895 25.92 
" style="fill:none;stroke:#cccccc;stroke-linecap:round;stroke-width:0.8;"/>
     </g>
     <g id="text_1">
      <!-- −12.5 -->
      <g style="fill:#262626;" transform="translate(48.794239 206.838437)scale(0.1 -0.1)">
       <defs>
        <path d="M 10.59375 35.5 
L 73.1875 35.5 
L 73.1875 27.203125 
L 10.59375 27.203125 
z
" id="DejaVuSans-8722"/>
        <path d="M 12.40625 8.296875 
L 28.515625 8.296875 
L 28.515625 63.921875 
L 10.984375 60.40625 
L 10.984375 69.390625 
L 28.421875 72.90625 
L 38.28125 72.90625 
L 38.28125 8.296875 
L 54.390625 8.296875 
L 54.390625 0 
L 12.40625 0 
z
" id="DejaVuSans-49"/>
        <path d="M 19.1875 8.296875 
L 53.609375 8.296875 
L 53.609375 0 
L 7.328125 0 
L 7.328125 8.296875 
Q 12.9375 14.109375 22.625 23.890625 
Q 32.328125 33.6875 34.8125 36.53125 
Q 39.546875 41.84375 41.421875 45.53125 
Q 43.3125 49.21875 43.3125 52.78125 
Q 43.3125 58.59375 39.234375 62.25 
Q 35.15625 65.921875 28.609375 65.921875 
Q 23.96875 65.921875 18.8125 64.3125 
Q 13.671875 62.703125 7.8125 59.421875 
L 7.8125 69.390625 
Q 13.765625 71.78125 18.9375 73 
Q 24.125 74.21875 28.421875 74.21875 
Q 39.75 74.21875 46.484375 68.546875 
Q 53.21875 62.890625 53.21875 53.421875 
Q 53.21875 48.921875 51.53125 44.890625 
Q 49.859375 40.875 45.40625 35.40625 
Q 44.1875 33.984375 37.640625 27.21875 
Q 31.109375 20.453125 19.1875 8.296875 
z
" id="DejaVuSans-50"/>
        <path d="M 10.6875 12.40625 
L 21 12.40625 
L 21 0 
L 10.6875 0 
z
" id="DejaVuSans-46"/>
        <path d="M 10.796875 72.90625 
L 49.515625 72.90625 
L 49.515625 64.59375 
L 19.828125 64.59375 
L 19.828125 46.734375 
Q 21.96875 47.46875 24.109375 47.828125 
Q 26.265625 48.1875 28.421875 48.1875 
Q 40.625 48.1875 47.75 41.5 
Q 54.890625 34.8125 54.890625 23.390625 
Q 54.890625 11.625 47.5625 5.09375 
Q 40.234375 -1.421875 26.90625 -1.421875 
Q 22.3125 -1.421875 17.546875 -0.640625 
Q 12.796875 0.140625 7.71875 1.703125 
L 7.71875 11.625 
Q 12.109375 9.234375 16.796875 8.0625 
Q 21.484375 6.890625 26.703125 6.890625 
Q 35.15625 6.890625 40.078125 11.328125 
Q 45.015625 15.765625 45.015625 23.390625 
Q 45.015625 31 40.078125 35.4375 
Q 35.15625 39.890625 26.703125 39.890625 
Q 22.75 39.890625 18.8125 39.015625 
Q 14.890625 38.140625 10.796875 36.28125 
z
" id="DejaVuSans-53"/>
       </defs>
       <use xlink:href="#DejaVuSans-8722"/>
       <use x="83.789062" xlink:href="#DejaVuSans-49"/>
       <use x="147.412109" xlink:href="#DejaVuSans-50"/>
       <use x="211.035156" xlink:href="#DejaVuSans-46"/>
       <use x="242.822266" xlink:href="#DejaVuSans-53"/>
      </g>
     </g>
    </g>
    <g id="xtick_2">
     <g id="line2d_2">
      <path clip-path="url(#pc65aced1af)" d="M 100.008834 192.24 
L 100.008834 25.92 
" style="fill:none;stroke:#cccccc;stroke-linecap:round;stroke-width:0.8;"/>
     </g>
     <g id="text_2">
      <!-- −10.0 -->
      <g style="fill:#262626;" transform="translate(84.686177 206.838437)scale(0.1 -0.1)">
       <defs>
        <path d="M 31.78125 66.40625 
Q 24.171875 66.40625 20.328125 58.90625 
Q 16.5 51.421875 16.5 36.375 
Q 16.5 21.390625 20.328125 13.890625 
Q 24.171875 6.390625 31.78125 6.390625 
Q 39.453125 6.390625 43.28125 13.890625 
Q 47.125 21.390625 47.125 36.375 
Q 47.125 51.421875 43.28125 58.90625 
Q 39.453125 66.40625 31.78125 66.40625 
z
M 31.78125 74.21875 
Q 44.046875 74.21875 50.515625 64.515625 
Q 56.984375 54.828125 56.984375 36.375 
Q 56.984375 17.96875 50.515625 8.265625 
Q 44.046875 -1.421875 31.78125 -1.421875 
Q 19.53125 -1.421875 13.0625 8.265625 
Q 6.59375 17.96875 6.59375 36.375 
Q 6.59375 54.828125 13.0625 64.515625 
Q 19.53125 74.21875 31.78125 74.21875 
z
" id="DejaVuSans-48"/>
       </defs>
       <use xlink:href="#DejaVuSans-8722"/>
       <use x="83.789062" xlink:href="#DejaVuSans-49"/>
       <use x="147.412109" xlink:href="#DejaVuSans-48"/>
       <use x="211.035156" xlink:href="#DejaVuSans-46"/>
       <use x="242.822266" xlink:href="#DejaVuSans-48"/>
      </g>
     </g>
    </g>
    <g id="xtick_3">
     <g id="line2d_3">
      <path clip-path="url(#pc65aced1af)" d="M 135.900772 192.24 
L 135.900772 25.92 
" style="fill:none;stroke:#cccccc;stroke-linecap:round;stroke-width:0.8;"/>
     </g>
     <g id="text_3">
      <!-- −7.5 -->
      <g style="fill:#262626;" transform="translate(123.759366 206.838437)scale(0.1 -0.1)">
       <defs>
        <path d="M 8.203125 72.90625 
L 55.078125 72.90625 
L 55.078125 68.703125 
L 28.609375 0 
L 18.3125 0 
L 43.21875 64.59375 
L 8.203125 64.59375 
z
" id="DejaVuSans-55"/>
       </defs>
       <use xlink:href="#DejaVuSans-8722"/>
       <use x="83.789062" xlink:href="#DejaVuSans-55"/>
       <use x="147.412109" xlink:href="#DejaVuSans-46"/>
       <use x="179.199219" xlink:href="#DejaVuSans-53"/>
      </g>
     </g>
    </g>
    <g id="xtick_4">
     <g id="line2d_4">
      <path clip-path="url(#pc65aced1af)" d="M 171.79271 192.24 
L 171.79271 25.92 
" style="fill:none;stroke:#cccccc;stroke-linecap:round;stroke-width:0.8;"/>
     </g>
     <g id="text_4">
      <!-- −5.0 -->
      <g style="fill:#262626;" transform="translate(159.651304 206.838437)scale(0.1 -0.1)">
       <use xlink:href="#DejaVuSans-8722"/>
       <use x="83.789062" xlink:href="#DejaVuSans-53"/>
       <use x="147.412109" xlink:href="#DejaVuSans-46"/>
       <use x="179.199219" xlink:href="#DejaVuSans-48"/>
      </g>
     </g>
    </g>
    <g id="xtick_5">
     <g id="line2d_5">
      <path clip-path="url(#pc65aced1af)" d="M 207.684648 192.24 
L 207.684648 25.92 
" style="fill:none;stroke:#cccccc;stroke-linecap:round;stroke-width:0.8;"/>
     </g>
     <g id="text_5">
      <!-- −2.5 -->
      <g style="fill:#262626;" transform="translate(195.543242 206.838437)scale(0.1 -0.1)">
       <use xlink:href="#DejaVuSans-8722"/>
       <use x="83.789062" xlink:href="#DejaVuSans-50"/>
       <use x="147.412109" xlink:href="#DejaVuSans-46"/>
       <use x="179.199219" xlink:href="#DejaVuSans-53"/>
      </g>
     </g>
    </g>
    <g id="xtick_6">
     <g id="line2d_6">
      <path clip-path="url(#pc65aced1af)" d="M 243.576587 192.24 
L 243.576587 25.92 
" style="fill:none;stroke:#cccccc;stroke-linecap:round;stroke-width:0.8;"/>
     </g>
     <g id="text_6">
      <!-- 0.0 -->
      <g style="fill:#262626;" transform="translate(235.625024 206.838437)scale(0.1 -0.1)">
       <use xlink:href="#DejaVuSans-48"/>
       <use x="63.623047" xlink:href="#DejaVuSans-46"/>
       <use x="95.410156" xlink:href="#DejaVuSans-48"/>
      </g>
     </g>
    </g>
    <g id="xtick_7">
     <g id="line2d_7">
      <path clip-path="url(#pc65aced1af)" d="M 279.468525 192.24 
L 279.468525 25.92 
" style="fill:none;stroke:#cccccc;stroke-linecap:round;stroke-width:0.8;"/>
     </g>
     <g id="text_7">
      <!-- 2.5 -->
      <g style="fill:#262626;" transform="translate(271.516962 206.838437)scale(0.1 -0.1)">
       <use xlink:href="#DejaVuSans-50"/>
       <use x="63.623047" xlink:href="#DejaVuSans-46"/>
       <use x="95.410156" xlink:href="#DejaVuSans-53"/>
      </g>
     </g>
    </g>
   </g>
   <g id="matplotlib.axis_2">
    <g id="ytick_1">
     <g id="line2d_8">
      <path clip-path="url(#pc65aced1af)" d="M 40.5 182.796403 
L 291.6 182.796403 
" style="fill:none;stroke:#cccccc;stroke-linecap:round;stroke-width:0.8;"/>
     </g>
     <g id="line2d_9">
      <defs>
       <path d="M 0 0 
L -3.5 0 
" id="mc71bb754c8" style="stroke:#262626;stroke-width:0.8;"/>
      </defs>
      <g>
       <use style="fill:#262626;stroke:#262626;stroke-width:0.8;" x="40.5" xlink:href="#mc71bb754c8" y="182.796403"/>
      </g>
     </g>
     <g id="text_8">
      <!-- 0.00 -->
      <g style="fill:#262626;" transform="translate(11.234375 186.595622)scale(0.1 -0.1)">
       <use xlink:href="#DejaVuSans-48"/>
       <use x="63.623047" xlink:href="#DejaVuSans-46"/>
       <use x="95.410156" xlink:href="#DejaVuSans-48"/>
       <use x="159.033203" xlink:href="#DejaVuSans-48"/>
      </g>
     </g>
    </g>
    <g id="ytick_2">
     <g id="line2d_10">
      <path clip-path="url(#pc65aced1af)" d="M 40.5 147.202347 
L 291.6 147.202347 
" style="fill:none;stroke:#cccccc;stroke-linecap:round;stroke-width:0.8;"/>
     </g>
     <g id="line2d_11">
      <g>
       <use style="fill:#262626;stroke:#262626;stroke-width:0.8;" x="40.5" xlink:href="#mc71bb754c8" y="147.202347"/>
      </g>
     </g>
     <g id="text_9">
      <!-- 0.05 -->
      <g style="fill:#262626;" transform="translate(11.234375 151.001566)scale(0.1 -0.1)">
       <use xlink:href="#DejaVuSans-48"/>
       <use x="63.623047" xlink:href="#DejaVuSans-46"/>
       <use x="95.410156" xlink:href="#DejaVuSans-48"/>
       <use x="159.033203" xlink:href="#DejaVuSans-53"/>
      </g>
     </g>
    </g>
    <g id="ytick_3">
     <g id="line2d_12">
      <path clip-path="url(#pc65aced1af)" d="M 40.5 111.608292 
L 291.6 111.608292 
" style="fill:none;stroke:#cccccc;stroke-linecap:round;stroke-width:0.8;"/>
     </g>
     <g id="line2d_13">
      <g>
       <use style="fill:#262626;stroke:#262626;stroke-width:0.8;" x="40.5" xlink:href="#mc71bb754c8" y="111.608292"/>
      </g>
     </g>
     <g id="text_10">
      <!-- 0.10 -->
      <g style="fill:#262626;" transform="translate(11.234375 115.407511)scale(0.1 -0.1)">
       <use xlink:href="#DejaVuSans-48"/>
       <use x="63.623047" xlink:href="#DejaVuSans-46"/>
       <use x="95.410156" xlink:href="#DejaVuSans-49"/>
       <use x="159.033203" xlink:href="#DejaVuSans-48"/>
      </g>
     </g>
    </g>
    <g id="ytick_4">
     <g id="line2d_14">
      <path clip-path="url(#pc65aced1af)" d="M 40.5 76.014236 
L 291.6 76.014236 
" style="fill:none;stroke:#cccccc;stroke-linecap:round;stroke-width:0.8;"/>
     </g>
     <g id="line2d_15">
      <g>
       <use style="fill:#262626;stroke:#262626;stroke-width:0.8;" x="40.5" xlink:href="#mc71bb754c8" y="76.014236"/>
      </g>
     </g>
     <g id="text_11">
      <!-- 0.15 -->
      <g style="fill:#262626;" transform="translate(11.234375 79.813455)scale(0.1 -0.1)">
       <use xlink:href="#DejaVuSans-48"/>
       <use x="63.623047" xlink:href="#DejaVuSans-46"/>
       <use x="95.410156" xlink:href="#DejaVuSans-49"/>
       <use x="159.033203" xlink:href="#DejaVuSans-53"/>
      </g>
     </g>
    </g>
    <g id="ytick_5">
     <g id="line2d_16">
      <path clip-path="url(#pc65aced1af)" d="M 40.5 40.420181 
L 291.6 40.420181 
" style="fill:none;stroke:#cccccc;stroke-linecap:round;stroke-width:0.8;"/>
     </g>
     <g id="line2d_17">
      <g>
       <use style="fill:#262626;stroke:#262626;stroke-width:0.8;" x="40.5" xlink:href="#mc71bb754c8" y="40.420181"/>
      </g>
     </g>
     <g id="text_12">
      <!-- 0.20 -->
      <g style="fill:#262626;" transform="translate(11.234375 44.2194)scale(0.1 -0.1)">
       <use xlink:href="#DejaVuSans-48"/>
       <use x="63.623047" xlink:href="#DejaVuSans-46"/>
       <use x="95.410156" xlink:href="#DejaVuSans-50"/>
       <use x="159.033203" xlink:href="#DejaVuSans-48"/>
      </g>
     </g>
    </g>
   </g>
   <g id="line2d_18">
    <path clip-path="url(#pc65aced1af)" d="M 52.631472 165.9339 
L 111.494257 166.055058 
L 133.02942 166.309479 
L 145.950512 166.655321 
L 156.000259 167.117529 
L 164.614322 167.725641 
L 171.79271 168.444698 
L 177.535422 169.202151 
L 183.278133 170.159989 
L 189.020841 171.355302 
L 194.763549 172.821566 
L 200.506261 174.579267 
L 206.248972 176.619782 
L 213.42736 179.462548 
L 220.605746 182.292676 
L 223.477102 183.270205 
L 226.348456 184.058227 
L 229.219811 184.565252 
L 230.655489 184.679414 
L 232.091166 184.68 
L 233.526844 184.549877 
L 234.962521 184.27068 
L 236.398199 183.822857 
L 237.833876 183.185788 
L 239.269554 182.337934 
L 240.705232 181.257047 
L 242.140909 179.920426 
L 243.576587 178.305247 
L 245.012264 176.388925 
L 246.447942 174.149567 
L 247.883619 171.566469 
L 249.319297 168.620654 
L 250.754974 165.295472 
L 252.190652 161.577211 
L 253.626329 157.455733 
L 255.062007 152.925081 
L 256.497684 147.984069 
L 259.36904 136.893063 
L 262.240394 124.285733 
L 265.11175 110.362563 
L 267.983105 95.418184 
L 279.468525 33.48 
L 279.468525 33.48 
" style="fill:none;stroke:#1f77b4;stroke-linecap:round;stroke-width:1.5;"/>
   </g>
   <g id="line2d_19">
    <path clip-path="url(#pc65aced1af)" d="M 52.631472 165.9339 
L 111.494257 166.055058 
L 133.02942 166.309479 
L 145.950512 166.655321 
L 156.000259 167.117529 
L 164.614322 167.725641 
L 171.79271 168.444698 
L 177.535422 169.202151 
L 183.278133 170.159989 
L 189.020841 171.355302 
L 194.763549 172.821566 
L 200.506261 174.579267 
L 206.248972 176.619782 
L 213.42736 179.462548 
L 220.605746 182.292676 
L 223.477102 183.270205 
L 226.348456 184.058227 
L 229.219811 184.565252 
L 230.655489 184.679414 
L 232.091166 184.68 
L 233.526844 184.549877 
L 234.962521 184.27068 
L 236.398199 183.822857 
L 237.833876 183.185788 
L 239.269554 182.337934 
L 240.705232 181.257047 
L 242.140909 179.920426 
L 243.576587 178.305247 
L 245.012264 176.388925 
L 246.447942 174.149567 
L 247.883619 171.566469 
L 249.319297 168.620654 
L 250.754974 165.295472 
L 252.190652 161.577211 
L 253.626329 157.455733 
L 255.062007 152.925081 
L 256.497684 147.984069 
L 259.36904 136.893063 
L 262.240394 124.285733 
L 265.11175 110.362563 
L 267.983105 95.418184 
L 279.468525 33.48 
L 279.468525 33.48 
" style="fill:none;stroke:#ff7f0e;stroke-dasharray:5.55,2.4;stroke-dashoffset:0;stroke-width:1.5;"/>
   </g>
   <g id="patch_3">
    <path d="M 40.5 192.24 
L 40.5 25.92 
" style="fill:none;stroke:#cccccc;stroke-linecap:square;stroke-linejoin:miter;stroke-width:0.8;"/>
   </g>
   <g id="patch_4">
    <path d="M 291.6 192.24 
L 291.6 25.92 
" style="fill:none;stroke:#cccccc;stroke-linecap:square;stroke-linejoin:miter;stroke-width:0.8;"/>
   </g>
   <g id="patch_5">
    <path d="M 40.5 192.24 
L 291.6 192.24 
" style="fill:none;stroke:#cccccc;stroke-linecap:square;stroke-linejoin:miter;stroke-width:0.8;"/>
   </g>
   <g id="patch_6">
    <path d="M 40.5 25.92 
L 291.6 25.92 
" style="fill:none;stroke:#cccccc;stroke-linecap:square;stroke-linejoin:miter;stroke-width:0.8;"/>
   </g>
   <g id="legend_1">
    <g id="patch_7">
     <path d="M 47.5 63.27625 
L 193.914062 63.27625 
Q 195.914062 63.27625 195.914062 61.27625 
L 195.914062 32.92 
Q 195.914062 30.92 193.914062 30.92 
L 47.5 30.92 
Q 45.5 30.92 45.5 32.92 
L 45.5 61.27625 
Q 45.5 63.27625 47.5 63.27625 
z
" style="fill:#ffffff;opacity:0.8;stroke:#cccccc;stroke-linejoin:miter;"/>
    </g>
    <g id="line2d_20">
     <path d="M 49.5 39.018437 
L 69.5 39.018437 
" style="fill:none;stroke:#1f77b4;stroke-linecap:round;stroke-width:1.5;"/>
    </g>
    <g id="line2d_21"/>
    <g id="text_13">
     <!-- R.RAF (1228.0) -->
     <g style="fill:#262626;" transform="translate(77.5 42.518437)scale(0.1 -0.1)">
      <defs>
       <path d="M 44.390625 34.1875 
Q 47.5625 33.109375 50.5625 29.59375 
Q 53.5625 26.078125 56.59375 19.921875 
L 66.609375 0 
L 56 0 
L 46.6875 18.703125 
Q 43.0625 26.03125 39.671875 28.421875 
Q 36.28125 30.8125 30.421875 30.8125 
L 19.671875 30.8125 
L 19.671875 0 
L 9.8125 0 
L 9.8125 72.90625 
L 32.078125 72.90625 
Q 44.578125 72.90625 50.734375 67.671875 
Q 56.890625 62.453125 56.890625 51.90625 
Q 56.890625 45.015625 53.6875 40.46875 
Q 50.484375 35.9375 44.390625 34.1875 
z
M 19.671875 64.796875 
L 19.671875 38.921875 
L 32.078125 38.921875 
Q 39.203125 38.921875 42.84375 42.21875 
Q 46.484375 45.515625 46.484375 51.90625 
Q 46.484375 58.296875 42.84375 61.546875 
Q 39.203125 64.796875 32.078125 64.796875 
z
" id="DejaVuSans-82"/>
       <path d="M 34.1875 63.1875 
L 20.796875 26.90625 
L 47.609375 26.90625 
z
M 28.609375 72.90625 
L 39.796875 72.90625 
L 67.578125 0 
L 57.328125 0 
L 50.6875 18.703125 
L 17.828125 18.703125 
L 11.1875 0 
L 0.78125 0 
z
" id="DejaVuSans-65"/>
       <path d="M 9.8125 72.90625 
L 51.703125 72.90625 
L 51.703125 64.59375 
L 19.671875 64.59375 
L 19.671875 43.109375 
L 48.578125 43.109375 
L 48.578125 34.8125 
L 19.671875 34.8125 
L 19.671875 0 
L 9.8125 0 
z
" id="DejaVuSans-70"/>
       <path id="DejaVuSans-32"/>
       <path d="M 31 75.875 
Q 24.46875 64.65625 21.28125 53.65625 
Q 18.109375 42.671875 18.109375 31.390625 
Q 18.109375 20.125 21.3125 9.0625 
Q 24.515625 -2 31 -13.1875 
L 23.1875 -13.1875 
Q 15.875 -1.703125 12.234375 9.375 
Q 8.59375 20.453125 8.59375 31.390625 
Q 8.59375 42.28125 12.203125 53.3125 
Q 15.828125 64.359375 23.1875 75.875 
z
" id="DejaVuSans-40"/>
       <path d="M 31.78125 34.625 
Q 24.75 34.625 20.71875 30.859375 
Q 16.703125 27.09375 16.703125 20.515625 
Q 16.703125 13.921875 20.71875 10.15625 
Q 24.75 6.390625 31.78125 6.390625 
Q 38.8125 6.390625 42.859375 10.171875 
Q 46.921875 13.96875 46.921875 20.515625 
Q 46.921875 27.09375 42.890625 30.859375 
Q 38.875 34.625 31.78125 34.625 
z
M 21.921875 38.8125 
Q 15.578125 40.375 12.03125 44.71875 
Q 8.5 49.078125 8.5 55.328125 
Q 8.5 64.0625 14.71875 69.140625 
Q 20.953125 74.21875 31.78125 74.21875 
Q 42.671875 74.21875 48.875 69.140625 
Q 55.078125 64.0625 55.078125 55.328125 
Q 55.078125 49.078125 51.53125 44.71875 
Q 48 40.375 41.703125 38.8125 
Q 48.828125 37.15625 52.796875 32.3125 
Q 56.78125 27.484375 56.78125 20.515625 
Q 56.78125 9.90625 50.3125 4.234375 
Q 43.84375 -1.421875 31.78125 -1.421875 
Q 19.734375 -1.421875 13.25 4.234375 
Q 6.78125 9.90625 6.78125 20.515625 
Q 6.78125 27.484375 10.78125 32.3125 
Q 14.796875 37.15625 21.921875 38.8125 
z
M 18.3125 54.390625 
Q 18.3125 48.734375 21.84375 45.5625 
Q 25.390625 42.390625 31.78125 42.390625 
Q 38.140625 42.390625 41.71875 45.5625 
Q 45.3125 48.734375 45.3125 54.390625 
Q 45.3125 60.0625 41.71875 63.234375 
Q 38.140625 66.40625 31.78125 66.40625 
Q 25.390625 66.40625 21.84375 63.234375 
Q 18.3125 60.0625 18.3125 54.390625 
z
" id="DejaVuSans-56"/>
       <path d="M 8.015625 75.875 
L 15.828125 75.875 
Q 23.140625 64.359375 26.78125 53.3125 
Q 30.421875 42.28125 30.421875 31.390625 
Q 30.421875 20.453125 26.78125 9.375 
Q 23.140625 -1.703125 15.828125 -13.1875 
L 8.015625 -13.1875 
Q 14.5 -2 17.703125 9.0625 
Q 20.90625 20.125 20.90625 31.390625 
Q 20.90625 42.671875 17.703125 53.65625 
Q 14.5 64.65625 8.015625 75.875 
z
" id="DejaVuSans-41"/>
      </defs>
      <use xlink:href="#DejaVuSans-82"/>
      <use x="65.857422" xlink:href="#DejaVuSans-46"/>
      <use x="97.644531" xlink:href="#DejaVuSans-82"/>
      <use x="163.126953" xlink:href="#DejaVuSans-65"/>
      <use x="231.535156" xlink:href="#DejaVuSans-70"/>
      <use x="289.054688" xlink:href="#DejaVuSans-32"/>
      <use x="320.841797" xlink:href="#DejaVuSans-40"/>
      <use x="359.855469" xlink:href="#DejaVuSans-49"/>
      <use x="423.478516" xlink:href="#DejaVuSans-50"/>
      <use x="487.101562" xlink:href="#DejaVuSans-50"/>
      <use x="550.724609" xlink:href="#DejaVuSans-56"/>
      <use x="614.347656" xlink:href="#DejaVuSans-46"/>
      <use x="646.134766" xlink:href="#DejaVuSans-48"/>
      <use x="709.757812" xlink:href="#DejaVuSans-41"/>
     </g>
    </g>
    <g id="line2d_22">
     <path d="M 49.5 53.696562 
L 69.5 53.696562 
" style="fill:none;stroke:#ff7f0e;stroke-dasharray:5.55,2.4;stroke-dashoffset:0;stroke-width:1.5;"/>
    </g>
    <g id="line2d_23"/>
    <g id="text_14">
     <!-- Adjusted dSiLU (272.5) -->
     <g style="fill:#262626;" transform="translate(77.5 57.196562)scale(0.1 -0.1)">
      <defs>
       <path d="M 45.40625 46.390625 
L 45.40625 75.984375 
L 54.390625 75.984375 
L 54.390625 0 
L 45.40625 0 
L 45.40625 8.203125 
Q 42.578125 3.328125 38.25 0.953125 
Q 33.9375 -1.421875 27.875 -1.421875 
Q 17.96875 -1.421875 11.734375 6.484375 
Q 5.515625 14.40625 5.515625 27.296875 
Q 5.515625 40.1875 11.734375 48.09375 
Q 17.96875 56 27.875 56 
Q 33.9375 56 38.25 53.625 
Q 42.578125 51.265625 45.40625 46.390625 
z
M 14.796875 27.296875 
Q 14.796875 17.390625 18.875 11.75 
Q 22.953125 6.109375 30.078125 6.109375 
Q 37.203125 6.109375 41.296875 11.75 
Q 45.40625 17.390625 45.40625 27.296875 
Q 45.40625 37.203125 41.296875 42.84375 
Q 37.203125 48.484375 30.078125 48.484375 
Q 22.953125 48.484375 18.875 42.84375 
Q 14.796875 37.203125 14.796875 27.296875 
z
" id="DejaVuSans-100"/>
       <path d="M 9.421875 54.6875 
L 18.40625 54.6875 
L 18.40625 -0.984375 
Q 18.40625 -11.421875 14.421875 -16.109375 
Q 10.453125 -20.796875 1.609375 -20.796875 
L -1.8125 -20.796875 
L -1.8125 -13.1875 
L 0.59375 -13.1875 
Q 5.71875 -13.1875 7.5625 -10.8125 
Q 9.421875 -8.453125 9.421875 -0.984375 
z
M 9.421875 75.984375 
L 18.40625 75.984375 
L 18.40625 64.59375 
L 9.421875 64.59375 
z
" id="DejaVuSans-106"/>
       <path d="M 8.5 21.578125 
L 8.5 54.6875 
L 17.484375 54.6875 
L 17.484375 21.921875 
Q 17.484375 14.15625 20.5 10.265625 
Q 23.53125 6.390625 29.59375 6.390625 
Q 36.859375 6.390625 41.078125 11.03125 
Q 45.3125 15.671875 45.3125 23.6875 
L 45.3125 54.6875 
L 54.296875 54.6875 
L 54.296875 0 
L 45.3125 0 
L 45.3125 8.40625 
Q 42.046875 3.421875 37.71875 1 
Q 33.40625 -1.421875 27.6875 -1.421875 
Q 18.265625 -1.421875 13.375 4.4375 
Q 8.5 10.296875 8.5 21.578125 
z
M 31.109375 56 
z
" id="DejaVuSans-117"/>
       <path d="M 44.28125 53.078125 
L 44.28125 44.578125 
Q 40.484375 46.53125 36.375 47.5 
Q 32.28125 48.484375 27.875 48.484375 
Q 21.1875 48.484375 17.84375 46.4375 
Q 14.5 44.390625 14.5 40.28125 
Q 14.5 37.15625 16.890625 35.375 
Q 19.28125 33.59375 26.515625 31.984375 
L 29.59375 31.296875 
Q 39.15625 29.25 43.1875 25.515625 
Q 47.21875 21.78125 47.21875 15.09375 
Q 47.21875 7.46875 41.1875 3.015625 
Q 35.15625 -1.421875 24.609375 -1.421875 
Q 20.21875 -1.421875 15.453125 -0.5625 
Q 10.6875 0.296875 5.421875 2 
L 5.421875 11.28125 
Q 10.40625 8.6875 15.234375 7.390625 
Q 20.0625 6.109375 24.8125 6.109375 
Q 31.15625 6.109375 34.5625 8.28125 
Q 37.984375 10.453125 37.984375 14.40625 
Q 37.984375 18.0625 35.515625 20.015625 
Q 33.0625 21.96875 24.703125 23.78125 
L 21.578125 24.515625 
Q 13.234375 26.265625 9.515625 29.90625 
Q 5.8125 33.546875 5.8125 39.890625 
Q 5.8125 47.609375 11.28125 51.796875 
Q 16.75 56 26.8125 56 
Q 31.78125 56 36.171875 55.265625 
Q 40.578125 54.546875 44.28125 53.078125 
z
" id="DejaVuSans-115"/>
       <path d="M 18.3125 70.21875 
L 18.3125 54.6875 
L 36.8125 54.6875 
L 36.8125 47.703125 
L 18.3125 47.703125 
L 18.3125 18.015625 
Q 18.3125 11.328125 20.140625 9.421875 
Q 21.96875 7.515625 27.59375 7.515625 
L 36.8125 7.515625 
L 36.8125 0 
L 27.59375 0 
Q 17.1875 0 13.234375 3.875 
Q 9.28125 7.765625 9.28125 18.015625 
L 9.28125 47.703125 
L 2.6875 47.703125 
L 2.6875 54.6875 
L 9.28125 54.6875 
L 9.28125 70.21875 
z
" id="DejaVuSans-116"/>
       <path d="M 56.203125 29.59375 
L 56.203125 25.203125 
L 14.890625 25.203125 
Q 15.484375 15.921875 20.484375 11.0625 
Q 25.484375 6.203125 34.421875 6.203125 
Q 39.59375 6.203125 44.453125 7.46875 
Q 49.3125 8.734375 54.109375 11.28125 
L 54.109375 2.78125 
Q 49.265625 0.734375 44.1875 -0.34375 
Q 39.109375 -1.421875 33.890625 -1.421875 
Q 20.796875 -1.421875 13.15625 6.1875 
Q 5.515625 13.8125 5.515625 26.8125 
Q 5.515625 40.234375 12.765625 48.109375 
Q 20.015625 56 32.328125 56 
Q 43.359375 56 49.78125 48.890625 
Q 56.203125 41.796875 56.203125 29.59375 
z
M 47.21875 32.234375 
Q 47.125 39.59375 43.09375 43.984375 
Q 39.0625 48.390625 32.421875 48.390625 
Q 24.90625 48.390625 20.390625 44.140625 
Q 15.875 39.890625 15.1875 32.171875 
z
" id="DejaVuSans-101"/>
       <path d="M 53.515625 70.515625 
L 53.515625 60.890625 
Q 47.90625 63.578125 42.921875 64.890625 
Q 37.9375 66.21875 33.296875 66.21875 
Q 25.25 66.21875 20.875 63.09375 
Q 16.5 59.96875 16.5 54.203125 
Q 16.5 49.359375 19.40625 46.890625 
Q 22.3125 44.4375 30.421875 42.921875 
L 36.375 41.703125 
Q 47.40625 39.59375 52.65625 34.296875 
Q 57.90625 29 57.90625 20.125 
Q 57.90625 9.515625 50.796875 4.046875 
Q 43.703125 -1.421875 29.984375 -1.421875 
Q 24.8125 -1.421875 18.96875 -0.25 
Q 13.140625 0.921875 6.890625 3.21875 
L 6.890625 13.375 
Q 12.890625 10.015625 18.65625 8.296875 
Q 24.421875 6.59375 29.984375 6.59375 
Q 38.421875 6.59375 43.015625 9.90625 
Q 47.609375 13.234375 47.609375 19.390625 
Q 47.609375 24.75 44.3125 27.78125 
Q 41.015625 30.8125 33.5 32.328125 
L 27.484375 33.5 
Q 16.453125 35.6875 11.515625 40.375 
Q 6.59375 45.0625 6.59375 53.421875 
Q 6.59375 63.09375 13.40625 68.65625 
Q 20.21875 74.21875 32.171875 74.21875 
Q 37.3125 74.21875 42.625 73.28125 
Q 47.953125 72.359375 53.515625 70.515625 
z
" id="DejaVuSans-83"/>
       <path d="M 9.421875 54.6875 
L 18.40625 54.6875 
L 18.40625 0 
L 9.421875 0 
z
M 9.421875 75.984375 
L 18.40625 75.984375 
L 18.40625 64.59375 
L 9.421875 64.59375 
z
" id="DejaVuSans-105"/>
       <path d="M 9.8125 72.90625 
L 19.671875 72.90625 
L 19.671875 8.296875 
L 55.171875 8.296875 
L 55.171875 0 
L 9.8125 0 
z
" id="DejaVuSans-76"/>
       <path d="M 8.6875 72.90625 
L 18.609375 72.90625 
L 18.609375 28.609375 
Q 18.609375 16.890625 22.84375 11.734375 
Q 27.09375 6.59375 36.625 6.59375 
Q 46.09375 6.59375 50.34375 11.734375 
Q 54.59375 16.890625 54.59375 28.609375 
L 54.59375 72.90625 
L 64.5 72.90625 
L 64.5 27.390625 
Q 64.5 13.140625 57.4375 5.859375 
Q 50.390625 -1.421875 36.625 -1.421875 
Q 22.796875 -1.421875 15.734375 5.859375 
Q 8.6875 13.140625 8.6875 27.390625 
z
" id="DejaVuSans-85"/>
      </defs>
      <use xlink:href="#DejaVuSans-65"/>
      <use x="66.658203" xlink:href="#DejaVuSans-100"/>
      <use x="130.134766" xlink:href="#DejaVuSans-106"/>
      <use x="157.917969" xlink:href="#DejaVuSans-117"/>
      <use x="221.296875" xlink:href="#DejaVuSans-115"/>
      <use x="273.396484" xlink:href="#DejaVuSans-116"/>
      <use x="312.605469" xlink:href="#DejaVuSans-101"/>
      <use x="374.128906" xlink:href="#DejaVuSans-100"/>
      <use x="437.605469" xlink:href="#DejaVuSans-32"/>
      <use x="469.392578" xlink:href="#DejaVuSans-100"/>
      <use x="532.869141" xlink:href="#DejaVuSans-83"/>
      <use x="596.345703" xlink:href="#DejaVuSans-105"/>
      <use x="624.128906" xlink:href="#DejaVuSans-76"/>
      <use x="674.841797" xlink:href="#DejaVuSans-85"/>
      <use x="748.035156" xlink:href="#DejaVuSans-32"/>
      <use x="779.822266" xlink:href="#DejaVuSans-40"/>
      <use x="818.835938" xlink:href="#DejaVuSans-50"/>
      <use x="882.458984" xlink:href="#DejaVuSans-55"/>
      <use x="946.082031" xlink:href="#DejaVuSans-50"/>
      <use x="1009.705078" xlink:href="#DejaVuSans-46"/>
      <use x="1041.492188" xlink:href="#DejaVuSans-53"/>
      <use x="1105.115234" xlink:href="#DejaVuSans-41"/>
     </g>
    </g>
   </g>
  </g>
  <g id="axes_2">
   <g id="matplotlib.axis_3"/>
   <g id="patch_8">
    <path clip-path="url(#pc65aced1af)" d="M 51.913636 192.24 
L 53.349314 192.24 
L 53.349314 190.078747 
L 51.913636 190.078747 
z
" style="fill:#808080;fill-opacity:0.6;stroke:#808080;stroke-linejoin:miter;stroke-opacity:0.6;"/>
   </g>
   <g id="patch_9">
    <path clip-path="url(#pc65aced1af)" d="M 53.349314 192.24 
L 54.784991 192.24 
L 54.784991 191.69212 
L 53.349314 191.69212 
z
" style="fill:#808080;fill-opacity:0.6;stroke:#808080;stroke-linejoin:miter;stroke-opacity:0.6;"/>
   </g>
   <g id="patch_10">
    <path clip-path="url(#pc65aced1af)" d="M 54.784991 192.24 
L 56.220669 192.24 
L 56.220669 191.519293 
L 54.784991 191.519293 
z
" style="fill:#808080;fill-opacity:0.6;stroke:#808080;stroke-linejoin:miter;stroke-opacity:0.6;"/>
   </g>
   <g id="patch_11">
    <path clip-path="url(#pc65aced1af)" d="M 56.220669 192.24 
L 57.656346 192.24 
L 57.656346 190.267191 
L 56.220669 190.267191 
z
" style="fill:#808080;fill-opacity:0.6;stroke:#808080;stroke-linejoin:miter;stroke-opacity:0.6;"/>
   </g>
   <g id="patch_12">
    <path clip-path="url(#pc65aced1af)" d="M 57.656346 192.24 
L 59.092024 192.24 
L 59.092024 191.51602 
L 57.656346 191.51602 
z
" style="fill:#808080;fill-opacity:0.6;stroke:#808080;stroke-linejoin:miter;stroke-opacity:0.6;"/>
   </g>
   <g id="patch_13">
    <path clip-path="url(#pc65aced1af)" d="M 59.092024 192.24 
L 60.527702 192.24 
L 60.527702 191.153981 
L 59.092024 191.153981 
z
" style="fill:#808080;fill-opacity:0.6;stroke:#808080;stroke-linejoin:miter;stroke-opacity:0.6;"/>
   </g>
   <g id="patch_14">
    <path clip-path="url(#pc65aced1af)" d="M 60.527702 192.24 
L 61.963379 192.24 
L 61.963379 191.591007 
L 60.527702 191.591007 
z
" style="fill:#808080;fill-opacity:0.6;stroke:#808080;stroke-linejoin:miter;stroke-opacity:0.6;"/>
   </g>
   <g id="patch_15">
    <path clip-path="url(#pc65aced1af)" d="M 61.963379 192.24 
L 63.399057 192.24 
L 63.399057 191.547805 
L 61.963379 191.547805 
z
" style="fill:#808080;fill-opacity:0.6;stroke:#808080;stroke-linejoin:miter;stroke-opacity:0.6;"/>
   </g>
   <g id="patch_16">
    <path clip-path="url(#pc65aced1af)" d="M 63.399057 192.24 
L 64.834734 192.24 
L 64.834734 191.502671 
L 63.399057 191.502671 
z
" style="fill:#808080;fill-opacity:0.6;stroke:#808080;stroke-linejoin:miter;stroke-opacity:0.6;"/>
   </g>
   <g id="patch_17">
    <path clip-path="url(#pc65aced1af)" d="M 64.834734 192.24 
L 66.270412 192.24 
L 66.270412 191.393848 
L 64.834734 191.393848 
z
" style="fill:#808080;fill-opacity:0.6;stroke:#808080;stroke-linejoin:miter;stroke-opacity:0.6;"/>
   </g>
   <g id="patch_18">
    <path clip-path="url(#pc65aced1af)" d="M 66.270412 192.24 
L 67.706089 192.24 
L 67.706089 191.720021 
L 66.270412 191.720021 
z
" style="fill:#808080;fill-opacity:0.6;stroke:#808080;stroke-linejoin:miter;stroke-opacity:0.6;"/>
   </g>
   <g id="patch_19">
    <path clip-path="url(#pc65aced1af)" d="M 67.706089 192.24 
L 69.141767 192.24 
L 69.141767 191.444622 
L 67.706089 191.444622 
z
" style="fill:#808080;fill-opacity:0.6;stroke:#808080;stroke-linejoin:miter;stroke-opacity:0.6;"/>
   </g>
   <g id="patch_20">
    <path clip-path="url(#pc65aced1af)" d="M 69.141767 192.24 
L 70.577444 192.24 
L 70.577444 191.274457 
L 69.141767 191.274457 
z
" style="fill:#808080;fill-opacity:0.6;stroke:#808080;stroke-linejoin:miter;stroke-opacity:0.6;"/>
   </g>
   <g id="patch_21">
    <path clip-path="url(#pc65aced1af)" d="M 70.577444 192.24 
L 72.013122 192.24 
L 72.013122 191.461165 
L 70.577444 191.461165 
z
" style="fill:#808080;fill-opacity:0.6;stroke:#808080;stroke-linejoin:miter;stroke-opacity:0.6;"/>
   </g>
   <g id="patch_22">
    <path clip-path="url(#pc65aced1af)" d="M 72.013122 192.24 
L 73.448799 192.24 
L 73.448799 191.452292 
L 72.013122 191.452292 
z
" style="fill:#808080;fill-opacity:0.6;stroke:#808080;stroke-linejoin:miter;stroke-opacity:0.6;"/>
   </g>
   <g id="patch_23">
    <path clip-path="url(#pc65aced1af)" d="M 73.448799 192.24 
L 74.884477 192.24 
L 74.884477 191.543329 
L 73.448799 191.543329 
z
" style="fill:#808080;fill-opacity:0.6;stroke:#808080;stroke-linejoin:miter;stroke-opacity:0.6;"/>
   </g>
   <g id="patch_24">
    <path clip-path="url(#pc65aced1af)" d="M 74.884477 192.24 
L 76.320154 192.24 
L 76.320154 191.488198 
L 74.884477 191.488198 
z
" style="fill:#808080;fill-opacity:0.6;stroke:#808080;stroke-linejoin:miter;stroke-opacity:0.6;"/>
   </g>
   <g id="patch_25">
    <path clip-path="url(#pc65aced1af)" d="M 76.320154 192.24 
L 77.755832 192.24 
L 77.755832 191.563402 
L 76.320154 191.563402 
z
" style="fill:#808080;fill-opacity:0.6;stroke:#808080;stroke-linejoin:miter;stroke-opacity:0.6;"/>
   </g>
   <g id="patch_26">
    <path clip-path="url(#pc65aced1af)" d="M 77.755832 192.24 
L 79.191509 192.24 
L 79.191509 190.276655 
L 77.755832 190.276655 
z
" style="fill:#808080;fill-opacity:0.6;stroke:#808080;stroke-linejoin:miter;stroke-opacity:0.6;"/>
   </g>
   <g id="patch_27">
    <path clip-path="url(#pc65aced1af)" d="M 79.191509 192.24 
L 80.627187 192.24 
L 80.627187 191.259767 
L 79.191509 191.259767 
z
" style="fill:#808080;fill-opacity:0.6;stroke:#808080;stroke-linejoin:miter;stroke-opacity:0.6;"/>
   </g>
   <g id="patch_28">
    <path clip-path="url(#pc65aced1af)" d="M 80.627187 192.24 
L 82.062864 192.24 
L 82.062864 191.446317 
L 80.627187 191.446317 
z
" style="fill:#808080;fill-opacity:0.6;stroke:#808080;stroke-linejoin:miter;stroke-opacity:0.6;"/>
   </g>
   <g id="patch_29">
    <path clip-path="url(#pc65aced1af)" d="M 82.062864 192.24 
L 83.498542 192.24 
L 83.498542 191.390358 
L 82.062864 191.390358 
z
" style="fill:#808080;fill-opacity:0.6;stroke:#808080;stroke-linejoin:miter;stroke-opacity:0.6;"/>
   </g>
   <g id="patch_30">
    <path clip-path="url(#pc65aced1af)" d="M 83.498542 192.24 
L 84.93422 192.24 
L 84.93422 191.318881 
L 83.498542 191.318881 
z
" style="fill:#808080;fill-opacity:0.6;stroke:#808080;stroke-linejoin:miter;stroke-opacity:0.6;"/>
   </g>
   <g id="patch_31">
    <path clip-path="url(#pc65aced1af)" d="M 84.93422 192.24 
L 86.369897 192.24 
L 86.369897 191.233227 
L 84.93422 191.233227 
z
" style="fill:#808080;fill-opacity:0.6;stroke:#808080;stroke-linejoin:miter;stroke-opacity:0.6;"/>
   </g>
   <g id="patch_32">
    <path clip-path="url(#pc65aced1af)" d="M 86.369897 192.24 
L 87.805575 192.24 
L 87.805575 190.194471 
L 86.369897 190.194471 
z
" style="fill:#808080;fill-opacity:0.6;stroke:#808080;stroke-linejoin:miter;stroke-opacity:0.6;"/>
   </g>
   <g id="patch_33">
    <path clip-path="url(#pc65aced1af)" d="M 87.805575 192.24 
L 89.241252 192.24 
L 89.241252 191.326394 
L 87.805575 191.326394 
z
" style="fill:#808080;fill-opacity:0.6;stroke:#808080;stroke-linejoin:miter;stroke-opacity:0.6;"/>
   </g>
   <g id="patch_34">
    <path clip-path="url(#pc65aced1af)" d="M 89.241252 192.24 
L 90.67693 192.24 
L 90.67693 191.427625 
L 89.241252 191.427625 
z
" style="fill:#808080;fill-opacity:0.6;stroke:#808080;stroke-linejoin:miter;stroke-opacity:0.6;"/>
   </g>
   <g id="patch_35">
    <path clip-path="url(#pc65aced1af)" d="M 90.67693 192.24 
L 92.112607 192.24 
L 92.112607 191.072388 
L 90.67693 191.072388 
z
" style="fill:#808080;fill-opacity:0.6;stroke:#808080;stroke-linejoin:miter;stroke-opacity:0.6;"/>
   </g>
   <g id="patch_36">
    <path clip-path="url(#pc65aced1af)" d="M 92.112607 192.24 
L 93.548285 192.24 
L 93.548285 191.371311 
L 92.112607 191.371311 
z
" style="fill:#808080;fill-opacity:0.6;stroke:#808080;stroke-linejoin:miter;stroke-opacity:0.6;"/>
   </g>
   <g id="patch_37">
    <path clip-path="url(#pc65aced1af)" d="M 93.548285 192.24 
L 94.983962 192.24 
L 94.983962 191.067617 
L 93.548285 191.067617 
z
" style="fill:#808080;fill-opacity:0.6;stroke:#808080;stroke-linejoin:miter;stroke-opacity:0.6;"/>
   </g>
   <g id="patch_38">
    <path clip-path="url(#pc65aced1af)" d="M 94.983962 192.24 
L 96.41964 192.24 
L 96.41964 191.036443 
L 94.983962 191.036443 
z
" style="fill:#808080;fill-opacity:0.6;stroke:#808080;stroke-linejoin:miter;stroke-opacity:0.6;"/>
   </g>
   <g id="patch_39">
    <path clip-path="url(#pc65aced1af)" d="M 96.41964 192.24 
L 97.855317 192.24 
L 97.855317 190.931623 
L 96.41964 190.931623 
z
" style="fill:#808080;fill-opacity:0.6;stroke:#808080;stroke-linejoin:miter;stroke-opacity:0.6;"/>
   </g>
   <g id="patch_40">
    <path clip-path="url(#pc65aced1af)" d="M 97.855317 192.24 
L 99.290995 192.24 
L 99.290995 190.09044 
L 97.855317 190.09044 
z
" style="fill:#808080;fill-opacity:0.6;stroke:#808080;stroke-linejoin:miter;stroke-opacity:0.6;"/>
   </g>
   <g id="patch_41">
    <path clip-path="url(#pc65aced1af)" d="M 99.290995 192.24 
L 100.726672 192.24 
L 100.726672 191.270001 
L 99.290995 191.270001 
z
" style="fill:#808080;fill-opacity:0.6;stroke:#808080;stroke-linejoin:miter;stroke-opacity:0.6;"/>
   </g>
   <g id="patch_42">
    <path clip-path="url(#pc65aced1af)" d="M 100.726672 192.24 
L 102.16235 192.24 
L 102.16235 190.921961 
L 100.726672 190.921961 
z
" style="fill:#808080;fill-opacity:0.6;stroke:#808080;stroke-linejoin:miter;stroke-opacity:0.6;"/>
   </g>
   <g id="patch_43">
    <path clip-path="url(#pc65aced1af)" d="M 102.16235 192.24 
L 103.598027 192.24 
L 103.598027 191.065586 
L 102.16235 191.065586 
z
" style="fill:#808080;fill-opacity:0.6;stroke:#808080;stroke-linejoin:miter;stroke-opacity:0.6;"/>
   </g>
   <g id="patch_44">
    <path clip-path="url(#pc65aced1af)" d="M 103.598027 192.24 
L 105.033705 192.24 
L 105.033705 191.006018 
L 103.598027 191.006018 
z
" style="fill:#808080;fill-opacity:0.6;stroke:#808080;stroke-linejoin:miter;stroke-opacity:0.6;"/>
   </g>
   <g id="patch_45">
    <path clip-path="url(#pc65aced1af)" d="M 105.033705 192.24 
L 106.469383 192.24 
L 106.469383 190.88083 
L 105.033705 190.88083 
z
" style="fill:#808080;fill-opacity:0.6;stroke:#808080;stroke-linejoin:miter;stroke-opacity:0.6;"/>
   </g>
   <g id="patch_46">
    <path clip-path="url(#pc65aced1af)" d="M 106.469383 192.24 
L 107.90506 192.24 
L 107.90506 189.887819 
L 106.469383 189.887819 
z
" style="fill:#808080;fill-opacity:0.6;stroke:#808080;stroke-linejoin:miter;stroke-opacity:0.6;"/>
   </g>
   <g id="patch_47">
    <path clip-path="url(#pc65aced1af)" d="M 107.90506 192.24 
L 109.340738 192.24 
L 109.340738 191.227528 
L 107.90506 191.227528 
z
" style="fill:#808080;fill-opacity:0.6;stroke:#808080;stroke-linejoin:miter;stroke-opacity:0.6;"/>
   </g>
   <g id="patch_48">
    <path clip-path="url(#pc65aced1af)" d="M 109.340738 192.24 
L 110.776415 192.24 
L 110.776415 190.671525 
L 109.340738 190.671525 
z
" style="fill:#808080;fill-opacity:0.6;stroke:#808080;stroke-linejoin:miter;stroke-opacity:0.6;"/>
   </g>
   <g id="patch_49">
    <path clip-path="url(#pc65aced1af)" d="M 110.776415 192.24 
L 112.212093 192.24 
L 112.212093 190.823056 
L 110.776415 190.823056 
z
" style="fill:#808080;fill-opacity:0.6;stroke:#808080;stroke-linejoin:miter;stroke-opacity:0.6;"/>
   </g>
   <g id="patch_50">
    <path clip-path="url(#pc65aced1af)" d="M 112.212093 192.24 
L 113.64777 192.24 
L 113.64777 189.384876 
L 112.212093 189.384876 
z
" style="fill:#808080;fill-opacity:0.6;stroke:#808080;stroke-linejoin:miter;stroke-opacity:0.6;"/>
   </g>
   <g id="patch_51">
    <path clip-path="url(#pc65aced1af)" d="M 113.64777 192.24 
L 115.083448 192.24 
L 115.083448 189.783946 
L 113.64777 189.783946 
z
" style="fill:#808080;fill-opacity:0.6;stroke:#808080;stroke-linejoin:miter;stroke-opacity:0.6;"/>
   </g>
   <g id="patch_52">
    <path clip-path="url(#pc65aced1af)" d="M 115.083448 192.24 
L 116.519125 192.24 
L 116.519125 190.735213 
L 115.083448 190.735213 
z
" style="fill:#808080;fill-opacity:0.6;stroke:#808080;stroke-linejoin:miter;stroke-opacity:0.6;"/>
   </g>
   <g id="patch_53">
    <path clip-path="url(#pc65aced1af)" d="M 116.519125 192.24 
L 117.954803 192.24 
L 117.954803 190.803122 
L 116.519125 190.803122 
z
" style="fill:#808080;fill-opacity:0.6;stroke:#808080;stroke-linejoin:miter;stroke-opacity:0.6;"/>
   </g>
   <g id="patch_54">
    <path clip-path="url(#pc65aced1af)" d="M 117.954803 192.24 
L 119.39048 192.24 
L 119.39048 190.913384 
L 117.954803 190.913384 
z
" style="fill:#808080;fill-opacity:0.6;stroke:#808080;stroke-linejoin:miter;stroke-opacity:0.6;"/>
   </g>
   <g id="patch_55">
    <path clip-path="url(#pc65aced1af)" d="M 119.39048 192.24 
L 120.826158 192.24 
L 120.826158 190.675843 
L 119.39048 190.675843 
z
" style="fill:#808080;fill-opacity:0.6;stroke:#808080;stroke-linejoin:miter;stroke-opacity:0.6;"/>
   </g>
   <g id="patch_56">
    <path clip-path="url(#pc65aced1af)" d="M 120.826158 192.24 
L 122.261835 192.24 
L 122.261835 190.749469 
L 120.826158 190.749469 
z
" style="fill:#808080;fill-opacity:0.6;stroke:#808080;stroke-linejoin:miter;stroke-opacity:0.6;"/>
   </g>
   <g id="patch_57">
    <path clip-path="url(#pc65aced1af)" d="M 122.261835 192.24 
L 123.697513 192.24 
L 123.697513 190.877556 
L 122.261835 190.877556 
z
" style="fill:#808080;fill-opacity:0.6;stroke:#808080;stroke-linejoin:miter;stroke-opacity:0.6;"/>
   </g>
   <g id="patch_58">
    <path clip-path="url(#pc65aced1af)" d="M 123.697513 192.24 
L 125.13319 192.24 
L 125.13319 190.904057 
L 123.697513 190.904057 
z
" style="fill:#808080;fill-opacity:0.6;stroke:#808080;stroke-linejoin:miter;stroke-opacity:0.6;"/>
   </g>
   <g id="patch_59">
    <path clip-path="url(#pc65aced1af)" d="M 125.13319 192.24 
L 126.568868 192.24 
L 126.568868 190.469752 
L 125.13319 190.469752 
z
" style="fill:#808080;fill-opacity:0.6;stroke:#808080;stroke-linejoin:miter;stroke-opacity:0.6;"/>
   </g>
   <g id="patch_60">
    <path clip-path="url(#pc65aced1af)" d="M 126.568868 192.24 
L 128.004545 192.24 
L 128.004545 190.337603 
L 126.568868 190.337603 
z
" style="fill:#808080;fill-opacity:0.6;stroke:#808080;stroke-linejoin:miter;stroke-opacity:0.6;"/>
   </g>
   <g id="patch_61">
    <path clip-path="url(#pc65aced1af)" d="M 128.004545 192.24 
L 129.440223 192.24 
L 129.440223 190.860244 
L 128.004545 190.860244 
z
" style="fill:#808080;fill-opacity:0.6;stroke:#808080;stroke-linejoin:miter;stroke-opacity:0.6;"/>
   </g>
   <g id="patch_62">
    <path clip-path="url(#pc65aced1af)" d="M 129.440223 192.24 
L 130.875901 192.24 
L 130.875901 190.711808 
L 129.440223 190.711808 
z
" style="fill:#808080;fill-opacity:0.6;stroke:#808080;stroke-linejoin:miter;stroke-opacity:0.6;"/>
   </g>
   <g id="patch_63">
    <path clip-path="url(#pc65aced1af)" d="M 130.875901 192.24 
L 132.311578 192.24 
L 132.311578 190.438775 
L 130.875901 190.438775 
z
" style="fill:#808080;fill-opacity:0.6;stroke:#808080;stroke-linejoin:miter;stroke-opacity:0.6;"/>
   </g>
   <g id="patch_64">
    <path clip-path="url(#pc65aced1af)" d="M 132.311578 192.24 
L 133.747256 192.24 
L 133.747256 190.206243 
L 132.311578 190.206243 
z
" style="fill:#808080;fill-opacity:0.6;stroke:#808080;stroke-linejoin:miter;stroke-opacity:0.6;"/>
   </g>
   <g id="patch_65">
    <path clip-path="url(#pc65aced1af)" d="M 133.747256 192.24 
L 135.182933 192.24 
L 135.182933 190.327744 
L 133.747256 190.327744 
z
" style="fill:#808080;fill-opacity:0.6;stroke:#808080;stroke-linejoin:miter;stroke-opacity:0.6;"/>
   </g>
   <g id="patch_66">
    <path clip-path="url(#pc65aced1af)" d="M 135.182933 192.24 
L 136.618611 192.24 
L 136.618611 190.331333 
L 135.182933 190.331333 
z
" style="fill:#808080;fill-opacity:0.6;stroke:#808080;stroke-linejoin:miter;stroke-opacity:0.6;"/>
   </g>
   <g id="patch_67">
    <path clip-path="url(#pc65aced1af)" d="M 136.618611 192.24 
L 138.054288 192.24 
L 138.054288 189.324086 
L 136.618611 189.324086 
z
" style="fill:#808080;fill-opacity:0.6;stroke:#808080;stroke-linejoin:miter;stroke-opacity:0.6;"/>
   </g>
   <g id="patch_68">
    <path clip-path="url(#pc65aced1af)" d="M 138.054288 192.24 
L 139.489966 192.24 
L 139.489966 190.207505 
L 138.054288 190.207505 
z
" style="fill:#808080;fill-opacity:0.6;stroke:#808080;stroke-linejoin:miter;stroke-opacity:0.6;"/>
   </g>
   <g id="patch_69">
    <path clip-path="url(#pc65aced1af)" d="M 139.489966 192.24 
L 140.925643 192.24 
L 140.925643 189.356325 
L 139.489966 189.356325 
z
" style="fill:#808080;fill-opacity:0.6;stroke:#808080;stroke-linejoin:miter;stroke-opacity:0.6;"/>
   </g>
   <g id="patch_70">
    <path clip-path="url(#pc65aced1af)" d="M 140.925643 192.24 
L 142.361321 192.24 
L 142.361321 190.286277 
L 140.925643 190.286277 
z
" style="fill:#808080;fill-opacity:0.6;stroke:#808080;stroke-linejoin:miter;stroke-opacity:0.6;"/>
   </g>
   <g id="patch_71">
    <path clip-path="url(#pc65aced1af)" d="M 142.361321 192.24 
L 143.796998 192.24 
L 143.796998 190.306488 
L 142.361321 190.306488 
z
" style="fill:#808080;fill-opacity:0.6;stroke:#808080;stroke-linejoin:miter;stroke-opacity:0.6;"/>
   </g>
   <g id="patch_72">
    <path clip-path="url(#pc65aced1af)" d="M 143.796998 192.24 
L 145.232676 192.24 
L 145.232676 190.270227 
L 143.796998 190.270227 
z
" style="fill:#808080;fill-opacity:0.6;stroke:#808080;stroke-linejoin:miter;stroke-opacity:0.6;"/>
   </g>
   <g id="patch_73">
    <path clip-path="url(#pc65aced1af)" d="M 145.232676 192.24 
L 146.668353 192.24 
L 146.668353 190.403047 
L 145.232676 190.403047 
z
" style="fill:#808080;fill-opacity:0.6;stroke:#808080;stroke-linejoin:miter;stroke-opacity:0.6;"/>
   </g>
   <g id="patch_74">
    <path clip-path="url(#pc65aced1af)" d="M 146.668353 192.24 
L 148.104031 192.24 
L 148.104031 190.006718 
L 146.668353 190.006718 
z
" style="fill:#808080;fill-opacity:0.6;stroke:#808080;stroke-linejoin:miter;stroke-opacity:0.6;"/>
   </g>
   <g id="patch_75">
    <path clip-path="url(#pc65aced1af)" d="M 148.104031 192.24 
L 149.539708 192.24 
L 149.539708 189.030606 
L 148.104031 189.030606 
z
" style="fill:#808080;fill-opacity:0.6;stroke:#808080;stroke-linejoin:miter;stroke-opacity:0.6;"/>
   </g>
   <g id="patch_76">
    <path clip-path="url(#pc65aced1af)" d="M 149.539708 192.24 
L 150.975386 192.24 
L 150.975386 190.379878 
L 149.539708 190.379878 
z
" style="fill:#808080;fill-opacity:0.6;stroke:#808080;stroke-linejoin:miter;stroke-opacity:0.6;"/>
   </g>
   <g id="patch_77">
    <path clip-path="url(#pc65aced1af)" d="M 150.975386 192.24 
L 152.411063 192.24 
L 152.411063 188.507078 
L 150.975386 188.507078 
z
" style="fill:#808080;fill-opacity:0.6;stroke:#808080;stroke-linejoin:miter;stroke-opacity:0.6;"/>
   </g>
   <g id="patch_78">
    <path clip-path="url(#pc65aced1af)" d="M 152.411063 192.24 
L 153.846741 192.24 
L 153.846741 188.886646 
L 152.411063 188.886646 
z
" style="fill:#808080;fill-opacity:0.6;stroke:#808080;stroke-linejoin:miter;stroke-opacity:0.6;"/>
   </g>
   <g id="patch_79">
    <path clip-path="url(#pc65aced1af)" d="M 153.846741 192.24 
L 155.282419 192.24 
L 155.282419 189.880366 
L 153.846741 189.880366 
z
" style="fill:#808080;fill-opacity:0.6;stroke:#808080;stroke-linejoin:miter;stroke-opacity:0.6;"/>
   </g>
   <g id="patch_80">
    <path clip-path="url(#pc65aced1af)" d="M 155.282419 192.24 
L 156.718096 192.24 
L 156.718096 188.269556 
L 155.282419 188.269556 
z
" style="fill:#808080;fill-opacity:0.6;stroke:#808080;stroke-linejoin:miter;stroke-opacity:0.6;"/>
   </g>
   <g id="patch_81">
    <path clip-path="url(#pc65aced1af)" d="M 156.718096 192.24 
L 158.153774 192.24 
L 158.153774 189.921241 
L 156.718096 189.921241 
z
" style="fill:#808080;fill-opacity:0.6;stroke:#808080;stroke-linejoin:miter;stroke-opacity:0.6;"/>
   </g>
   <g id="patch_82">
    <path clip-path="url(#pc65aced1af)" d="M 158.153774 192.24 
L 159.589451 192.24 
L 159.589451 189.778937 
L 158.153774 189.778937 
z
" style="fill:#808080;fill-opacity:0.6;stroke:#808080;stroke-linejoin:miter;stroke-opacity:0.6;"/>
   </g>
   <g id="patch_83">
    <path clip-path="url(#pc65aced1af)" d="M 159.589451 192.24 
L 161.025129 192.24 
L 161.025129 189.134854 
L 159.589451 189.134854 
z
" style="fill:#808080;fill-opacity:0.6;stroke:#808080;stroke-linejoin:miter;stroke-opacity:0.6;"/>
   </g>
   <g id="patch_84">
    <path clip-path="url(#pc65aced1af)" d="M 161.025129 192.24 
L 162.460806 192.24 
L 162.460806 188.413142 
L 161.025129 188.413142 
z
" style="fill:#808080;fill-opacity:0.6;stroke:#808080;stroke-linejoin:miter;stroke-opacity:0.6;"/>
   </g>
   <g id="patch_85">
    <path clip-path="url(#pc65aced1af)" d="M 162.460806 192.24 
L 163.896484 192.24 
L 163.896484 188.321375 
L 162.460806 188.321375 
z
" style="fill:#808080;fill-opacity:0.6;stroke:#808080;stroke-linejoin:miter;stroke-opacity:0.6;"/>
   </g>
   <g id="patch_86">
    <path clip-path="url(#pc65aced1af)" d="M 163.896484 192.24 
L 165.332161 192.24 
L 165.332161 189.640913 
L 163.896484 189.640913 
z
" style="fill:#808080;fill-opacity:0.6;stroke:#808080;stroke-linejoin:miter;stroke-opacity:0.6;"/>
   </g>
   <g id="patch_87">
    <path clip-path="url(#pc65aced1af)" d="M 165.332161 192.24 
L 166.767839 192.24 
L 166.767839 189.174073 
L 165.332161 189.174073 
z
" style="fill:#808080;fill-opacity:0.6;stroke:#808080;stroke-linejoin:miter;stroke-opacity:0.6;"/>
   </g>
   <g id="patch_88">
    <path clip-path="url(#pc65aced1af)" d="M 166.767839 192.24 
L 168.203516 192.24 
L 168.203516 189.298039 
L 166.767839 189.298039 
z
" style="fill:#808080;fill-opacity:0.6;stroke:#808080;stroke-linejoin:miter;stroke-opacity:0.6;"/>
   </g>
   <g id="patch_89">
    <path clip-path="url(#pc65aced1af)" d="M 168.203516 192.24 
L 169.639194 192.24 
L 169.639194 189.465305 
L 168.203516 189.465305 
z
" style="fill:#808080;fill-opacity:0.6;stroke:#808080;stroke-linejoin:miter;stroke-opacity:0.6;"/>
   </g>
   <g id="patch_90">
    <path clip-path="url(#pc65aced1af)" d="M 169.639194 192.24 
L 171.074871 192.24 
L 171.074871 189.104765 
L 169.639194 189.104765 
z
" style="fill:#808080;fill-opacity:0.6;stroke:#808080;stroke-linejoin:miter;stroke-opacity:0.6;"/>
   </g>
   <g id="patch_91">
    <path clip-path="url(#pc65aced1af)" d="M 171.074871 192.24 
L 172.510549 192.24 
L 172.510549 188.716737 
L 171.074871 188.716737 
z
" style="fill:#808080;fill-opacity:0.6;stroke:#808080;stroke-linejoin:miter;stroke-opacity:0.6;"/>
   </g>
   <g id="patch_92">
    <path clip-path="url(#pc65aced1af)" d="M 172.510549 192.24 
L 173.946226 192.24 
L 173.946226 188.665708 
L 172.510549 188.665708 
z
" style="fill:#808080;fill-opacity:0.6;stroke:#808080;stroke-linejoin:miter;stroke-opacity:0.6;"/>
   </g>
   <g id="patch_93">
    <path clip-path="url(#pc65aced1af)" d="M 173.946226 192.24 
L 175.381904 192.24 
L 175.381904 188.650919 
L 173.946226 188.650919 
z
" style="fill:#808080;fill-opacity:0.6;stroke:#808080;stroke-linejoin:miter;stroke-opacity:0.6;"/>
   </g>
   <g id="patch_94">
    <path clip-path="url(#pc65aced1af)" d="M 175.381904 192.24 
L 176.817581 192.24 
L 176.817581 188.219217 
L 175.381904 188.219217 
z
" style="fill:#808080;fill-opacity:0.6;stroke:#808080;stroke-linejoin:miter;stroke-opacity:0.6;"/>
   </g>
   <g id="patch_95">
    <path clip-path="url(#pc65aced1af)" d="M 176.817581 192.24 
L 178.253259 192.24 
L 178.253259 187.695964 
L 176.817581 187.695964 
z
" style="fill:#808080;fill-opacity:0.6;stroke:#808080;stroke-linejoin:miter;stroke-opacity:0.6;"/>
   </g>
   <g id="patch_96">
    <path clip-path="url(#pc65aced1af)" d="M 178.253259 192.24 
L 179.688937 192.24 
L 179.688937 187.772982 
L 178.253259 187.772982 
z
" style="fill:#808080;fill-opacity:0.6;stroke:#808080;stroke-linejoin:miter;stroke-opacity:0.6;"/>
   </g>
   <g id="patch_97">
    <path clip-path="url(#pc65aced1af)" d="M 179.688937 192.24 
L 181.124614 192.24 
L 181.124614 186.718098 
L 179.688937 186.718098 
z
" style="fill:#808080;fill-opacity:0.6;stroke:#808080;stroke-linejoin:miter;stroke-opacity:0.6;"/>
   </g>
   <g id="patch_98">
    <path clip-path="url(#pc65aced1af)" d="M 181.124614 192.24 
L 182.560292 192.24 
L 182.560292 185.195703 
L 181.124614 185.195703 
z
" style="fill:#808080;fill-opacity:0.6;stroke:#808080;stroke-linejoin:miter;stroke-opacity:0.6;"/>
   </g>
   <g id="patch_99">
    <path clip-path="url(#pc65aced1af)" d="M 182.560292 192.24 
L 183.995969 192.24 
L 183.995969 186.858824 
L 182.560292 186.858824 
z
" style="fill:#808080;fill-opacity:0.6;stroke:#808080;stroke-linejoin:miter;stroke-opacity:0.6;"/>
   </g>
   <g id="patch_100">
    <path clip-path="url(#pc65aced1af)" d="M 183.995969 192.24 
L 185.431647 192.24 
L 185.431647 186.602965 
L 183.995969 186.602965 
z
" style="fill:#808080;fill-opacity:0.6;stroke:#808080;stroke-linejoin:miter;stroke-opacity:0.6;"/>
   </g>
   <g id="patch_101">
    <path clip-path="url(#pc65aced1af)" d="M 185.431647 192.24 
L 186.867324 192.24 
L 186.867324 185.386335 
L 185.431647 185.386335 
z
" style="fill:#808080;fill-opacity:0.6;stroke:#808080;stroke-linejoin:miter;stroke-opacity:0.6;"/>
   </g>
   <g id="patch_102">
    <path clip-path="url(#pc65aced1af)" d="M 186.867324 192.24 
L 188.303002 192.24 
L 188.303002 186.132931 
L 186.867324 186.132931 
z
" style="fill:#808080;fill-opacity:0.6;stroke:#808080;stroke-linejoin:miter;stroke-opacity:0.6;"/>
   </g>
   <g id="patch_103">
    <path clip-path="url(#pc65aced1af)" d="M 188.303002 192.24 
L 189.738679 192.24 
L 189.738679 184.86397 
L 188.303002 184.86397 
z
" style="fill:#808080;fill-opacity:0.6;stroke:#808080;stroke-linejoin:miter;stroke-opacity:0.6;"/>
   </g>
   <g id="patch_104">
    <path clip-path="url(#pc65aced1af)" d="M 189.738679 192.24 
L 191.174357 192.24 
L 191.174357 185.494724 
L 189.738679 185.494724 
z
" style="fill:#808080;fill-opacity:0.6;stroke:#808080;stroke-linejoin:miter;stroke-opacity:0.6;"/>
   </g>
   <g id="patch_105">
    <path clip-path="url(#pc65aced1af)" d="M 191.174357 192.24 
L 192.610034 192.24 
L 192.610034 184.787346 
L 191.174357 184.787346 
z
" style="fill:#808080;fill-opacity:0.6;stroke:#808080;stroke-linejoin:miter;stroke-opacity:0.6;"/>
   </g>
   <g id="patch_106">
    <path clip-path="url(#pc65aced1af)" d="M 192.610034 192.24 
L 194.045712 192.24 
L 194.045712 183.737904 
L 192.610034 183.737904 
z
" style="fill:#808080;fill-opacity:0.6;stroke:#808080;stroke-linejoin:miter;stroke-opacity:0.6;"/>
   </g>
   <g id="patch_107">
    <path clip-path="url(#pc65aced1af)" d="M 194.045712 192.24 
L 195.481389 192.24 
L 195.481389 183.57182 
L 194.045712 183.57182 
z
" style="fill:#808080;fill-opacity:0.6;stroke:#808080;stroke-linejoin:miter;stroke-opacity:0.6;"/>
   </g>
   <g id="patch_108">
    <path clip-path="url(#pc65aced1af)" d="M 195.481389 192.24 
L 196.917067 192.24 
L 196.917067 181.657849 
L 195.481389 181.657849 
z
" style="fill:#808080;fill-opacity:0.6;stroke:#808080;stroke-linejoin:miter;stroke-opacity:0.6;"/>
   </g>
   <g id="patch_109">
    <path clip-path="url(#pc65aced1af)" d="M 196.917067 192.24 
L 198.352744 192.24 
L 198.352744 181.477983 
L 196.917067 181.477983 
z
" style="fill:#808080;fill-opacity:0.6;stroke:#808080;stroke-linejoin:miter;stroke-opacity:0.6;"/>
   </g>
   <g id="patch_110">
    <path clip-path="url(#pc65aced1af)" d="M 198.352744 192.24 
L 199.788422 192.24 
L 199.788422 180.662512 
L 198.352744 180.662512 
z
" style="fill:#808080;fill-opacity:0.6;stroke:#808080;stroke-linejoin:miter;stroke-opacity:0.6;"/>
   </g>
   <g id="patch_111">
    <path clip-path="url(#pc65aced1af)" d="M 199.788422 192.24 
L 201.224099 192.24 
L 201.224099 178.346593 
L 199.788422 178.346593 
z
" style="fill:#808080;fill-opacity:0.6;stroke:#808080;stroke-linejoin:miter;stroke-opacity:0.6;"/>
   </g>
   <g id="patch_112">
    <path clip-path="url(#pc65aced1af)" d="M 201.224099 192.24 
L 202.659777 192.24 
L 202.659777 179.398796 
L 201.224099 179.398796 
z
" style="fill:#808080;fill-opacity:0.6;stroke:#808080;stroke-linejoin:miter;stroke-opacity:0.6;"/>
   </g>
   <g id="patch_113">
    <path clip-path="url(#pc65aced1af)" d="M 202.659777 192.24 
L 204.095455 192.24 
L 204.095455 176.496842 
L 202.659777 176.496842 
z
" style="fill:#808080;fill-opacity:0.6;stroke:#808080;stroke-linejoin:miter;stroke-opacity:0.6;"/>
   </g>
   <g id="patch_114">
    <path clip-path="url(#pc65aced1af)" d="M 204.095455 192.24 
L 205.531132 192.24 
L 205.531132 171.273764 
L 204.095455 171.273764 
z
" style="fill:#808080;fill-opacity:0.6;stroke:#808080;stroke-linejoin:miter;stroke-opacity:0.6;"/>
   </g>
   <g id="patch_115">
    <path clip-path="url(#pc65aced1af)" d="M 205.531132 192.24 
L 206.96681 192.24 
L 206.96681 148.438493 
L 205.531132 148.438493 
z
" style="fill:#808080;fill-opacity:0.6;stroke:#808080;stroke-linejoin:miter;stroke-opacity:0.6;"/>
   </g>
   <g id="patch_116">
    <path clip-path="url(#pc65aced1af)" d="M 206.96681 192.24 
L 208.402487 192.24 
L 208.402487 174.129577 
L 206.96681 174.129577 
z
" style="fill:#808080;fill-opacity:0.6;stroke:#808080;stroke-linejoin:miter;stroke-opacity:0.6;"/>
   </g>
   <g id="patch_117">
    <path clip-path="url(#pc65aced1af)" d="M 208.402487 192.24 
L 209.838165 192.24 
L 209.838165 168.885381 
L 208.402487 168.885381 
z
" style="fill:#808080;fill-opacity:0.6;stroke:#808080;stroke-linejoin:miter;stroke-opacity:0.6;"/>
   </g>
   <g id="patch_118">
    <path clip-path="url(#pc65aced1af)" d="M 209.838165 192.24 
L 211.273842 192.24 
L 211.273842 171.8666 
L 209.838165 171.8666 
z
" style="fill:#808080;fill-opacity:0.6;stroke:#808080;stroke-linejoin:miter;stroke-opacity:0.6;"/>
   </g>
   <g id="patch_119">
    <path clip-path="url(#pc65aced1af)" d="M 211.273842 192.24 
L 212.70952 192.24 
L 212.70952 169.828426 
L 211.273842 169.828426 
z
" style="fill:#808080;fill-opacity:0.6;stroke:#808080;stroke-linejoin:miter;stroke-opacity:0.6;"/>
   </g>
   <g id="patch_120">
    <path clip-path="url(#pc65aced1af)" d="M 212.70952 192.24 
L 214.145197 192.24 
L 214.145197 167.74709 
L 212.70952 167.74709 
z
" style="fill:#808080;fill-opacity:0.6;stroke:#808080;stroke-linejoin:miter;stroke-opacity:0.6;"/>
   </g>
   <g id="patch_121">
    <path clip-path="url(#pc65aced1af)" d="M 214.145197 192.24 
L 215.580875 192.24 
L 215.580875 171.082875 
L 214.145197 171.082875 
z
" style="fill:#808080;fill-opacity:0.6;stroke:#808080;stroke-linejoin:miter;stroke-opacity:0.6;"/>
   </g>
   <g id="patch_122">
    <path clip-path="url(#pc65aced1af)" d="M 215.580875 192.24 
L 217.016552 192.24 
L 217.016552 168.396457 
L 215.580875 168.396457 
z
" style="fill:#808080;fill-opacity:0.6;stroke:#808080;stroke-linejoin:miter;stroke-opacity:0.6;"/>
   </g>
   <g id="patch_123">
    <path clip-path="url(#pc65aced1af)" d="M 217.016552 192.24 
L 218.45223 192.24 
L 218.45223 146.669251 
L 217.016552 146.669251 
z
" style="fill:#808080;fill-opacity:0.6;stroke:#808080;stroke-linejoin:miter;stroke-opacity:0.6;"/>
   </g>
   <g id="patch_124">
    <path clip-path="url(#pc65aced1af)" d="M 218.45223 192.24 
L 219.887907 192.24 
L 219.887907 166.350239 
L 218.45223 166.350239 
z
" style="fill:#808080;fill-opacity:0.6;stroke:#808080;stroke-linejoin:miter;stroke-opacity:0.6;"/>
   </g>
   <g id="patch_125">
    <path clip-path="url(#pc65aced1af)" d="M 219.887907 192.24 
L 221.323585 192.24 
L 221.323585 125.660345 
L 219.887907 125.660345 
z
" style="fill:#808080;fill-opacity:0.6;stroke:#808080;stroke-linejoin:miter;stroke-opacity:0.6;"/>
   </g>
   <g id="patch_126">
    <path clip-path="url(#pc65aced1af)" d="M 221.323585 192.24 
L 222.759262 192.24 
L 222.759262 167.704894 
L 221.323585 167.704894 
z
" style="fill:#808080;fill-opacity:0.6;stroke:#808080;stroke-linejoin:miter;stroke-opacity:0.6;"/>
   </g>
   <g id="patch_127">
    <path clip-path="url(#pc65aced1af)" d="M 222.759262 192.24 
L 224.19494 192.24 
L 224.19494 164.846655 
L 222.759262 164.846655 
z
" style="fill:#808080;fill-opacity:0.6;stroke:#808080;stroke-linejoin:miter;stroke-opacity:0.6;"/>
   </g>
   <g id="patch_128">
    <path clip-path="url(#pc65aced1af)" d="M 224.19494 192.24 
L 225.630617 192.24 
L 225.630617 145.325204 
L 224.19494 145.325204 
z
" style="fill:#808080;fill-opacity:0.6;stroke:#808080;stroke-linejoin:miter;stroke-opacity:0.6;"/>
   </g>
   <g id="patch_129">
    <path clip-path="url(#pc65aced1af)" d="M 225.630617 192.24 
L 227.066295 192.24 
L 227.066295 166.383877 
L 225.630617 166.383877 
z
" style="fill:#808080;fill-opacity:0.6;stroke:#808080;stroke-linejoin:miter;stroke-opacity:0.6;"/>
   </g>
   <g id="patch_130">
    <path clip-path="url(#pc65aced1af)" d="M 227.066295 192.24 
L 228.501973 192.24 
L 228.501973 156.425638 
L 227.066295 156.425638 
z
" style="fill:#808080;fill-opacity:0.6;stroke:#808080;stroke-linejoin:miter;stroke-opacity:0.6;"/>
   </g>
   <g id="patch_131">
    <path clip-path="url(#pc65aced1af)" d="M 228.501973 192.24 
L 229.93765 192.24 
L 229.93765 166.321529 
L 228.501973 166.321529 
z
" style="fill:#808080;fill-opacity:0.6;stroke:#808080;stroke-linejoin:miter;stroke-opacity:0.6;"/>
   </g>
   <g id="patch_132">
    <path clip-path="url(#pc65aced1af)" d="M 229.93765 192.24 
L 231.373328 192.24 
L 231.373328 165.038904 
L 229.93765 165.038904 
z
" style="fill:#808080;fill-opacity:0.6;stroke:#808080;stroke-linejoin:miter;stroke-opacity:0.6;"/>
   </g>
   <g id="patch_133">
    <path clip-path="url(#pc65aced1af)" d="M 231.373328 192.24 
L 232.809005 192.24 
L 232.809005 157.992713 
L 231.373328 157.992713 
z
" style="fill:#808080;fill-opacity:0.6;stroke:#808080;stroke-linejoin:miter;stroke-opacity:0.6;"/>
   </g>
   <g id="patch_134">
    <path clip-path="url(#pc65aced1af)" d="M 232.809005 192.24 
L 234.244683 192.24 
L 234.244683 119.281091 
L 232.809005 119.281091 
z
" style="fill:#808080;fill-opacity:0.6;stroke:#808080;stroke-linejoin:miter;stroke-opacity:0.6;"/>
   </g>
   <g id="patch_135">
    <path clip-path="url(#pc65aced1af)" d="M 234.244683 192.24 
L 235.68036 192.24 
L 235.68036 165.023031 
L 234.244683 165.023031 
z
" style="fill:#808080;fill-opacity:0.6;stroke:#808080;stroke-linejoin:miter;stroke-opacity:0.6;"/>
   </g>
   <g id="patch_136">
    <path clip-path="url(#pc65aced1af)" d="M 235.68036 192.24 
L 237.116038 192.24 
L 237.116038 163.696336 
L 235.68036 163.696336 
z
" style="fill:#808080;fill-opacity:0.6;stroke:#808080;stroke-linejoin:miter;stroke-opacity:0.6;"/>
   </g>
   <g id="patch_137">
    <path clip-path="url(#pc65aced1af)" d="M 237.116038 192.24 
L 238.551715 192.24 
L 238.551715 137.445876 
L 237.116038 137.445876 
z
" style="fill:#808080;fill-opacity:0.6;stroke:#808080;stroke-linejoin:miter;stroke-opacity:0.6;"/>
   </g>
   <g id="patch_138">
    <path clip-path="url(#pc65aced1af)" d="M 238.551715 192.24 
L 239.987393 192.24 
L 239.987393 158.555934 
L 238.551715 158.555934 
z
" style="fill:#808080;fill-opacity:0.6;stroke:#808080;stroke-linejoin:miter;stroke-opacity:0.6;"/>
   </g>
   <g id="patch_139">
    <path clip-path="url(#pc65aced1af)" d="M 239.987393 192.24 
L 241.42307 192.24 
L 241.42307 128.149308 
L 239.987393 128.149308 
z
" style="fill:#808080;fill-opacity:0.6;stroke:#808080;stroke-linejoin:miter;stroke-opacity:0.6;"/>
   </g>
   <g id="patch_140">
    <path clip-path="url(#pc65aced1af)" d="M 241.42307 192.24 
L 242.858748 192.24 
L 242.858748 66.842401 
L 241.42307 66.842401 
z
" style="fill:#808080;fill-opacity:0.6;stroke:#808080;stroke-linejoin:miter;stroke-opacity:0.6;"/>
   </g>
   <g id="patch_141">
    <path clip-path="url(#pc65aced1af)" d="M 242.858748 192.24 
L 244.294425 192.24 
L 244.294425 85.208366 
L 242.858748 85.208366 
z
" style="fill:#808080;fill-opacity:0.6;stroke:#808080;stroke-linejoin:miter;stroke-opacity:0.6;"/>
   </g>
   <g id="patch_142">
    <path clip-path="url(#pc65aced1af)" d="M 244.294425 192.24 
L 245.730103 192.24 
L 245.730103 101.677772 
L 244.294425 101.677772 
z
" style="fill:#808080;fill-opacity:0.6;stroke:#808080;stroke-linejoin:miter;stroke-opacity:0.6;"/>
   </g>
   <g id="patch_143">
    <path clip-path="url(#pc65aced1af)" d="M 245.730103 192.24 
L 247.16578 192.24 
L 247.16578 98.072996 
L 245.730103 98.072996 
z
" style="fill:#808080;fill-opacity:0.6;stroke:#808080;stroke-linejoin:miter;stroke-opacity:0.6;"/>
   </g>
   <g id="patch_144">
    <path clip-path="url(#pc65aced1af)" d="M 247.16578 192.24 
L 248.601458 192.24 
L 248.601458 33.84 
L 247.16578 33.84 
z
" style="fill:#808080;fill-opacity:0.6;stroke:#808080;stroke-linejoin:miter;stroke-opacity:0.6;"/>
   </g>
   <g id="patch_145">
    <path clip-path="url(#pc65aced1af)" d="M 248.601458 192.24 
L 250.037136 192.24 
L 250.037136 130.520043 
L 248.601458 130.520043 
z
" style="fill:#808080;fill-opacity:0.6;stroke:#808080;stroke-linejoin:miter;stroke-opacity:0.6;"/>
   </g>
   <g id="patch_146">
    <path clip-path="url(#pc65aced1af)" d="M 250.037136 192.24 
L 251.472813 192.24 
L 251.472813 177.665243 
L 250.037136 177.665243 
z
" style="fill:#808080;fill-opacity:0.6;stroke:#808080;stroke-linejoin:miter;stroke-opacity:0.6;"/>
   </g>
   <g id="patch_147">
    <path clip-path="url(#pc65aced1af)" d="M 251.472813 192.24 
L 252.908491 192.24 
L 252.908491 156.827152 
L 251.472813 156.827152 
z
" style="fill:#808080;fill-opacity:0.6;stroke:#808080;stroke-linejoin:miter;stroke-opacity:0.6;"/>
   </g>
   <g id="patch_148">
    <path clip-path="url(#pc65aced1af)" d="M 252.908491 192.24 
L 254.344168 192.24 
L 254.344168 154.678361 
L 252.908491 154.678361 
z
" style="fill:#808080;fill-opacity:0.6;stroke:#808080;stroke-linejoin:miter;stroke-opacity:0.6;"/>
   </g>
   <g id="patch_149">
    <path clip-path="url(#pc65aced1af)" d="M 254.344168 192.24 
L 255.779846 192.24 
L 255.779846 160.513206 
L 254.344168 160.513206 
z
" style="fill:#808080;fill-opacity:0.6;stroke:#808080;stroke-linejoin:miter;stroke-opacity:0.6;"/>
   </g>
   <g id="patch_150">
    <path clip-path="url(#pc65aced1af)" d="M 255.779846 192.24 
L 257.215523 192.24 
L 257.215523 161.95245 
L 255.779846 161.95245 
z
" style="fill:#808080;fill-opacity:0.6;stroke:#808080;stroke-linejoin:miter;stroke-opacity:0.6;"/>
   </g>
   <g id="patch_151">
    <path clip-path="url(#pc65aced1af)" d="M 257.215523 192.24 
L 258.651201 192.24 
L 258.651201 182.727719 
L 257.215523 182.727719 
z
" style="fill:#808080;fill-opacity:0.6;stroke:#808080;stroke-linejoin:miter;stroke-opacity:0.6;"/>
   </g>
   <g id="patch_152">
    <path clip-path="url(#pc65aced1af)" d="M 258.651201 192.24 
L 260.086878 192.24 
L 260.086878 186.575321 
L 258.651201 186.575321 
z
" style="fill:#808080;fill-opacity:0.6;stroke:#808080;stroke-linejoin:miter;stroke-opacity:0.6;"/>
   </g>
   <g id="patch_153">
    <path clip-path="url(#pc65aced1af)" d="M 260.086878 192.24 
L 261.522556 192.24 
L 261.522556 185.877033 
L 260.086878 185.877033 
z
" style="fill:#808080;fill-opacity:0.6;stroke:#808080;stroke-linejoin:miter;stroke-opacity:0.6;"/>
   </g>
   <g id="patch_154">
    <path clip-path="url(#pc65aced1af)" d="M 261.522556 192.24 
L 262.958233 192.24 
L 262.958233 188.140562 
L 261.522556 188.140562 
z
" style="fill:#808080;fill-opacity:0.6;stroke:#808080;stroke-linejoin:miter;stroke-opacity:0.6;"/>
   </g>
   <g id="patch_155">
    <path clip-path="url(#pc65aced1af)" d="M 262.958233 192.24 
L 264.393911 192.24 
L 264.393911 186.991722 
L 262.958233 186.991722 
z
" style="fill:#808080;fill-opacity:0.6;stroke:#808080;stroke-linejoin:miter;stroke-opacity:0.6;"/>
   </g>
   <g id="patch_156">
    <path clip-path="url(#pc65aced1af)" d="M 264.393911 192.24 
L 265.829588 192.24 
L 265.829588 188.552488 
L 264.393911 188.552488 
z
" style="fill:#808080;fill-opacity:0.6;stroke:#808080;stroke-linejoin:miter;stroke-opacity:0.6;"/>
   </g>
   <g id="patch_157">
    <path clip-path="url(#pc65aced1af)" d="M 265.829588 192.24 
L 267.265266 192.24 
L 267.265266 188.787584 
L 265.829588 188.787584 
z
" style="fill:#808080;fill-opacity:0.6;stroke:#808080;stroke-linejoin:miter;stroke-opacity:0.6;"/>
   </g>
   <g id="patch_158">
    <path clip-path="url(#pc65aced1af)" d="M 267.265266 192.24 
L 268.700943 192.24 
L 268.700943 188.377867 
L 267.265266 188.377867 
z
" style="fill:#808080;fill-opacity:0.6;stroke:#808080;stroke-linejoin:miter;stroke-opacity:0.6;"/>
   </g>
   <g id="patch_159">
    <path clip-path="url(#pc65aced1af)" d="M 268.700943 192.24 
L 270.136621 192.24 
L 270.136621 189.787081 
L 268.700943 189.787081 
z
" style="fill:#808080;fill-opacity:0.6;stroke:#808080;stroke-linejoin:miter;stroke-opacity:0.6;"/>
   </g>
   <g id="patch_160">
    <path clip-path="url(#pc65aced1af)" d="M 270.136621 192.24 
L 271.572298 192.24 
L 271.572298 189.905881 
L 270.136621 189.905881 
z
" style="fill:#808080;fill-opacity:0.6;stroke:#808080;stroke-linejoin:miter;stroke-opacity:0.6;"/>
   </g>
   <g id="patch_161">
    <path clip-path="url(#pc65aced1af)" d="M 271.572298 192.24 
L 273.007976 192.24 
L 273.007976 190.014171 
L 271.572298 190.014171 
z
" style="fill:#808080;fill-opacity:0.6;stroke:#808080;stroke-linejoin:miter;stroke-opacity:0.6;"/>
   </g>
   <g id="patch_162">
    <path clip-path="url(#pc65aced1af)" d="M 273.007976 192.24 
L 274.443654 192.24 
L 274.443654 188.56913 
L 273.007976 188.56913 
z
" style="fill:#808080;fill-opacity:0.6;stroke:#808080;stroke-linejoin:miter;stroke-opacity:0.6;"/>
   </g>
   <g id="patch_163">
    <path clip-path="url(#pc65aced1af)" d="M 274.443654 192.24 
L 275.879331 192.24 
L 275.879331 187.845505 
L 274.443654 187.845505 
z
" style="fill:#808080;fill-opacity:0.6;stroke:#808080;stroke-linejoin:miter;stroke-opacity:0.6;"/>
   </g>
   <g id="patch_164">
    <path clip-path="url(#pc65aced1af)" d="M 275.879331 192.24 
L 277.315009 192.24 
L 277.315009 190.433826 
L 275.879331 190.433826 
z
" style="fill:#808080;fill-opacity:0.6;stroke:#808080;stroke-linejoin:miter;stroke-opacity:0.6;"/>
   </g>
   <g id="patch_165">
    <path clip-path="url(#pc65aced1af)" d="M 277.315009 192.24 
L 278.750686 192.24 
L 278.750686 190.737422 
L 277.315009 190.737422 
z
" style="fill:#808080;fill-opacity:0.6;stroke:#808080;stroke-linejoin:miter;stroke-opacity:0.6;"/>
   </g>
   <g id="patch_166">
    <path clip-path="url(#pc65aced1af)" d="M 278.750686 192.24 
L 280.186364 192.24 
L 280.186364 189.498707 
L 278.750686 189.498707 
z
" style="fill:#808080;fill-opacity:0.6;stroke:#808080;stroke-linejoin:miter;stroke-opacity:0.6;"/>
   </g>
   <g id="patch_167">
    <path d="M 40.5 192.24 
L 40.5 25.92 
" style="fill:none;stroke:#cccccc;stroke-linecap:square;stroke-linejoin:miter;stroke-width:0.8;"/>
   </g>
   <g id="patch_168">
    <path d="M 291.6 192.24 
L 291.6 25.92 
" style="fill:none;stroke:#cccccc;stroke-linecap:square;stroke-linejoin:miter;stroke-width:0.8;"/>
   </g>
   <g id="patch_169">
    <path d="M 40.5 192.24 
L 291.6 192.24 
" style="fill:none;stroke:#cccccc;stroke-linecap:square;stroke-linejoin:miter;stroke-width:0.8;"/>
   </g>
   <g id="patch_170">
    <path d="M 40.5 25.92 
L 291.6 25.92 
" style="fill:none;stroke:#cccccc;stroke-linecap:square;stroke-linejoin:miter;stroke-width:0.8;"/>
   </g>
  </g>
 </g>
 <defs>
  <clipPath id="pc65aced1af">
   <rect height="166.32" width="251.1" x="40.5" y="25.92"/>
  </clipPath>
 </defs>
</svg>
