<?xml version="1.0" encoding="utf-8" standalone="no"?>
<!DOCTYPE svg PUBLIC "-//W3C//DTD SVG 1.1//EN"
  "http://www.w3.org/Graphics/SVG/1.1/DTD/svg11.dtd">
<!-- Created with matplotlib (https://matplotlib.org/) -->
<svg height="216pt" version="1.1" viewBox="0 0 324 216" width="324pt" xmlns="http://www.w3.org/2000/svg" xmlns:xlink="http://www.w3.org/1999/xlink">
 <metadata>
  <rdf:RDF xmlns:cc="http://creativecommons.org/ns#" xmlns:dc="http://purl.org/dc/elements/1.1/" xmlns:rdf="http://www.w3.org/1999/02/22-rdf-syntax-ns#">
   <cc:Work>
    <dc:type rdf:resource="http://purl.org/dc/dcmitype/StillImage"/>
    <dc:date>2021-01-11T22:44:03.713051</dc:date>
    <dc:format>image/svg+xml</dc:format>
    <dc:creator>
     <cc:Agent>
      <dc:title>Matplotlib v3.3.3, https://matplotlib.org/</dc:title>
     </cc:Agent>
    </dc:creator>
   </cc:Work>
  </rdf:RDF>
 </metadata>
 <defs>
  <style type="text/css">*{stroke-linecap:butt;stroke-linejoin:round;}</style>
 </defs>
 <g id="figure_1">
  <g id="patch_1">
   <path d="M 0 216 
L 324 216 
L 324 0 
L 0 0 
z
" style="fill:#ffffff;"/>
  </g>
  <g id="axes_1">
   <g id="patch_2">
    <path d="M 40.5 192.24 
L 291.6 192.24 
L 291.6 25.92 
L 40.5 25.92 
z
" style="fill:#ffffff;"/>
   </g>
   <g id="matplotlib.axis_1">
    <g id="xtick_1">
     <g id="line2d_1">
      <path clip-path="url(#pf72924ea94)" d="M 49.217502 192.24 
L 49.217502 25.92 
" style="fill:none;stroke:#cccccc;stroke-linecap:round;stroke-width:0.8;"/>
     </g>
     <g id="text_1">
      <!-- −12 -->
      <g style="fill:#262626;" transform="translate(38.665158 206.838437)scale(0.1 -0.1)">
       <defs>
        <path d="M 10.59375 35.5 
L 73.1875 35.5 
L 73.1875 27.203125 
L 10.59375 27.203125 
z
" id="DejaVuSans-8722"/>
        <path d="M 12.40625 8.296875 
L 28.515625 8.296875 
L 28.515625 63.921875 
L 10.984375 60.40625 
L 10.984375 69.390625 
L 28.421875 72.90625 
L 38.28125 72.90625 
L 38.28125 8.296875 
L 54.390625 8.296875 
L 54.390625 0 
L 12.40625 0 
z
" id="DejaVuSans-49"/>
        <path d="M 19.1875 8.296875 
L 53.609375 8.296875 
L 53.609375 0 
L 7.328125 0 
L 7.328125 8.296875 
Q 12.9375 14.109375 22.625 23.890625 
Q 32.328125 33.6875 34.8125 36.53125 
Q 39.546875 41.84375 41.421875 45.53125 
Q 43.3125 49.21875 43.3125 52.78125 
Q 43.3125 58.59375 39.234375 62.25 
Q 35.15625 65.921875 28.609375 65.921875 
Q 23.96875 65.921875 18.8125 64.3125 
Q 13.671875 62.703125 7.8125 59.421875 
L 7.8125 69.390625 
Q 13.765625 71.78125 18.9375 73 
Q 24.125 74.21875 28.421875 74.21875 
Q 39.75 74.21875 46.484375 68.546875 
Q 53.21875 62.890625 53.21875 53.421875 
Q 53.21875 48.921875 51.53125 44.890625 
Q 49.859375 40.875 45.40625 35.40625 
Q 44.1875 33.984375 37.640625 27.21875 
Q 31.109375 20.453125 19.1875 8.296875 
z
" id="DejaVuSans-50"/>
       </defs>
       <use xlink:href="#DejaVuSans-8722"/>
       <use x="83.789062" xlink:href="#DejaVuSans-49"/>
       <use x="147.412109" xlink:href="#DejaVuSans-50"/>
      </g>
     </g>
    </g>
    <g id="xtick_2">
     <g id="line2d_2">
      <path clip-path="url(#pf72924ea94)" d="M 85.165963 192.24 
L 85.165963 25.92 
" style="fill:none;stroke:#cccccc;stroke-linecap:round;stroke-width:0.8;"/>
     </g>
     <g id="text_2">
      <!-- −10 -->
      <g style="fill:#262626;" transform="translate(74.613619 206.838437)scale(0.1 -0.1)">
       <defs>
        <path d="M 31.78125 66.40625 
Q 24.171875 66.40625 20.328125 58.90625 
Q 16.5 51.421875 16.5 36.375 
Q 16.5 21.390625 20.328125 13.890625 
Q 24.171875 6.390625 31.78125 6.390625 
Q 39.453125 6.390625 43.28125 13.890625 
Q 47.125 21.390625 47.125 36.375 
Q 47.125 51.421875 43.28125 58.90625 
Q 39.453125 66.40625 31.78125 66.40625 
z
M 31.78125 74.21875 
Q 44.046875 74.21875 50.515625 64.515625 
Q 56.984375 54.828125 56.984375 36.375 
Q 56.984375 17.96875 50.515625 8.265625 
Q 44.046875 -1.421875 31.78125 -1.421875 
Q 19.53125 -1.421875 13.0625 8.265625 
Q 6.59375 17.96875 6.59375 36.375 
Q 6.59375 54.828125 13.0625 64.515625 
Q 19.53125 74.21875 31.78125 74.21875 
z
" id="DejaVuSans-48"/>
       </defs>
       <use xlink:href="#DejaVuSans-8722"/>
       <use x="83.789062" xlink:href="#DejaVuSans-49"/>
       <use x="147.412109" xlink:href="#DejaVuSans-48"/>
      </g>
     </g>
    </g>
    <g id="xtick_3">
     <g id="line2d_3">
      <path clip-path="url(#pf72924ea94)" d="M 121.114424 192.24 
L 121.114424 25.92 
" style="fill:none;stroke:#cccccc;stroke-linecap:round;stroke-width:0.8;"/>
     </g>
     <g id="text_3">
      <!-- −8 -->
      <g style="fill:#262626;" transform="translate(113.74333 206.838437)scale(0.1 -0.1)">
       <defs>
        <path d="M 31.78125 34.625 
Q 24.75 34.625 20.71875 30.859375 
Q 16.703125 27.09375 16.703125 20.515625 
Q 16.703125 13.921875 20.71875 10.15625 
Q 24.75 6.390625 31.78125 6.390625 
Q 38.8125 6.390625 42.859375 10.171875 
Q 46.921875 13.96875 46.921875 20.515625 
Q 46.921875 27.09375 42.890625 30.859375 
Q 38.875 34.625 31.78125 34.625 
z
M 21.921875 38.8125 
Q 15.578125 40.375 12.03125 44.71875 
Q 8.5 49.078125 8.5 55.328125 
Q 8.5 64.0625 14.71875 69.140625 
Q 20.953125 74.21875 31.78125 74.21875 
Q 42.671875 74.21875 48.875 69.140625 
Q 55.078125 64.0625 55.078125 55.328125 
Q 55.078125 49.078125 51.53125 44.71875 
Q 48 40.375 41.703125 38.8125 
Q 48.828125 37.15625 52.796875 32.3125 
Q 56.78125 27.484375 56.78125 20.515625 
Q 56.78125 9.90625 50.3125 4.234375 
Q 43.84375 -1.421875 31.78125 -1.421875 
Q 19.734375 -1.421875 13.25 4.234375 
Q 6.78125 9.90625 6.78125 20.515625 
Q 6.78125 27.484375 10.78125 32.3125 
Q 14.796875 37.15625 21.921875 38.8125 
z
M 18.3125 54.390625 
Q 18.3125 48.734375 21.84375 45.5625 
Q 25.390625 42.390625 31.78125 42.390625 
Q 38.140625 42.390625 41.71875 45.5625 
Q 45.3125 48.734375 45.3125 54.390625 
Q 45.3125 60.0625 41.71875 63.234375 
Q 38.140625 66.40625 31.78125 66.40625 
Q 25.390625 66.40625 21.84375 63.234375 
Q 18.3125 60.0625 18.3125 54.390625 
z
" id="DejaVuSans-56"/>
       </defs>
       <use xlink:href="#DejaVuSans-8722"/>
       <use x="83.789062" xlink:href="#DejaVuSans-56"/>
      </g>
     </g>
    </g>
    <g id="xtick_4">
     <g id="line2d_4">
      <path clip-path="url(#pf72924ea94)" d="M 157.062885 192.24 
L 157.062885 25.92 
" style="fill:none;stroke:#cccccc;stroke-linecap:round;stroke-width:0.8;"/>
     </g>
     <g id="text_4">
      <!-- −6 -->
      <g style="fill:#262626;" transform="translate(149.691791 206.838437)scale(0.1 -0.1)">
       <defs>
        <path d="M 33.015625 40.375 
Q 26.375 40.375 22.484375 35.828125 
Q 18.609375 31.296875 18.609375 23.390625 
Q 18.609375 15.53125 22.484375 10.953125 
Q 26.375 6.390625 33.015625 6.390625 
Q 39.65625 6.390625 43.53125 10.953125 
Q 47.40625 15.53125 47.40625 23.390625 
Q 47.40625 31.296875 43.53125 35.828125 
Q 39.65625 40.375 33.015625 40.375 
z
M 52.59375 71.296875 
L 52.59375 62.3125 
Q 48.875 64.0625 45.09375 64.984375 
Q 41.3125 65.921875 37.59375 65.921875 
Q 27.828125 65.921875 22.671875 59.328125 
Q 17.53125 52.734375 16.796875 39.40625 
Q 19.671875 43.65625 24.015625 45.921875 
Q 28.375 48.1875 33.59375 48.1875 
Q 44.578125 48.1875 50.953125 41.515625 
Q 57.328125 34.859375 57.328125 23.390625 
Q 57.328125 12.15625 50.6875 5.359375 
Q 44.046875 -1.421875 33.015625 -1.421875 
Q 20.359375 -1.421875 13.671875 8.265625 
Q 6.984375 17.96875 6.984375 36.375 
Q 6.984375 53.65625 15.1875 63.9375 
Q 23.390625 74.21875 37.203125 74.21875 
Q 40.921875 74.21875 44.703125 73.484375 
Q 48.484375 72.75 52.59375 71.296875 
z
" id="DejaVuSans-54"/>
       </defs>
       <use xlink:href="#DejaVuSans-8722"/>
       <use x="83.789062" xlink:href="#DejaVuSans-54"/>
      </g>
     </g>
    </g>
    <g id="xtick_5">
     <g id="line2d_5">
      <path clip-path="url(#pf72924ea94)" d="M 193.011346 192.24 
L 193.011346 25.92 
" style="fill:none;stroke:#cccccc;stroke-linecap:round;stroke-width:0.8;"/>
     </g>
     <g id="text_5">
      <!-- −4 -->
      <g style="fill:#262626;" transform="translate(185.640252 206.838437)scale(0.1 -0.1)">
       <defs>
        <path d="M 37.796875 64.3125 
L 12.890625 25.390625 
L 37.796875 25.390625 
z
M 35.203125 72.90625 
L 47.609375 72.90625 
L 47.609375 25.390625 
L 58.015625 25.390625 
L 58.015625 17.1875 
L 47.609375 17.1875 
L 47.609375 0 
L 37.796875 0 
L 37.796875 17.1875 
L 4.890625 17.1875 
L 4.890625 26.703125 
z
" id="DejaVuSans-52"/>
       </defs>
       <use xlink:href="#DejaVuSans-8722"/>
       <use x="83.789062" xlink:href="#DejaVuSans-52"/>
      </g>
     </g>
    </g>
    <g id="xtick_6">
     <g id="line2d_6">
      <path clip-path="url(#pf72924ea94)" d="M 228.959807 192.24 
L 228.959807 25.92 
" style="fill:none;stroke:#cccccc;stroke-linecap:round;stroke-width:0.8;"/>
     </g>
     <g id="text_6">
      <!-- −2 -->
      <g style="fill:#262626;" transform="translate(221.588713 206.838437)scale(0.1 -0.1)">
       <use xlink:href="#DejaVuSans-8722"/>
       <use x="83.789062" xlink:href="#DejaVuSans-50"/>
      </g>
     </g>
    </g>
    <g id="xtick_7">
     <g id="line2d_7">
      <path clip-path="url(#pf72924ea94)" d="M 264.908268 192.24 
L 264.908268 25.92 
" style="fill:none;stroke:#cccccc;stroke-linecap:round;stroke-width:0.8;"/>
     </g>
     <g id="text_7">
      <!-- 0 -->
      <g style="fill:#262626;" transform="translate(261.727018 206.838437)scale(0.1 -0.1)">
       <use xlink:href="#DejaVuSans-48"/>
      </g>
     </g>
    </g>
   </g>
   <g id="matplotlib.axis_2">
    <g id="ytick_1">
     <g id="line2d_8">
      <path clip-path="url(#pf72924ea94)" d="M 40.5 181.08734 
L 291.6 181.08734 
" style="fill:none;stroke:#cccccc;stroke-linecap:round;stroke-width:0.8;"/>
     </g>
     <g id="line2d_9">
      <defs>
       <path d="M 0 0 
L -3.5 0 
" id="m51ec98556d" style="stroke:#262626;stroke-width:0.8;"/>
      </defs>
      <g>
       <use style="fill:#262626;stroke:#262626;stroke-width:0.8;" x="40.5" xlink:href="#m51ec98556d" y="181.08734"/>
      </g>
     </g>
     <g id="text_8">
      <!-- −0.01 -->
      <g style="fill:#262626;" transform="translate(2.854687 184.886558)scale(0.1 -0.1)">
       <defs>
        <path d="M 10.6875 12.40625 
L 21 12.40625 
L 21 0 
L 10.6875 0 
z
" id="DejaVuSans-46"/>
       </defs>
       <use xlink:href="#DejaVuSans-8722"/>
       <use x="83.789062" xlink:href="#DejaVuSans-48"/>
       <use x="147.412109" xlink:href="#DejaVuSans-46"/>
       <use x="179.199219" xlink:href="#DejaVuSans-48"/>
       <use x="242.822266" xlink:href="#DejaVuSans-49"/>
      </g>
     </g>
    </g>
    <g id="ytick_2">
     <g id="line2d_10">
      <path clip-path="url(#pf72924ea94)" d="M 40.5 146.460271 
L 291.6 146.460271 
" style="fill:none;stroke:#cccccc;stroke-linecap:round;stroke-width:0.8;"/>
     </g>
     <g id="line2d_11">
      <g>
       <use style="fill:#262626;stroke:#262626;stroke-width:0.8;" x="40.5" xlink:href="#m51ec98556d" y="146.460271"/>
      </g>
     </g>
     <g id="text_9">
      <!-- 0.00 -->
      <g style="fill:#262626;" transform="translate(11.234375 150.25949)scale(0.1 -0.1)">
       <use xlink:href="#DejaVuSans-48"/>
       <use x="63.623047" xlink:href="#DejaVuSans-46"/>
       <use x="95.410156" xlink:href="#DejaVuSans-48"/>
       <use x="159.033203" xlink:href="#DejaVuSans-48"/>
      </g>
     </g>
    </g>
    <g id="ytick_3">
     <g id="line2d_12">
      <path clip-path="url(#pf72924ea94)" d="M 40.5 111.833202 
L 291.6 111.833202 
" style="fill:none;stroke:#cccccc;stroke-linecap:round;stroke-width:0.8;"/>
     </g>
     <g id="line2d_13">
      <g>
       <use style="fill:#262626;stroke:#262626;stroke-width:0.8;" x="40.5" xlink:href="#m51ec98556d" y="111.833202"/>
      </g>
     </g>
     <g id="text_10">
      <!-- 0.01 -->
      <g style="fill:#262626;" transform="translate(11.234375 115.632421)scale(0.1 -0.1)">
       <use xlink:href="#DejaVuSans-48"/>
       <use x="63.623047" xlink:href="#DejaVuSans-46"/>
       <use x="95.410156" xlink:href="#DejaVuSans-48"/>
       <use x="159.033203" xlink:href="#DejaVuSans-49"/>
      </g>
     </g>
    </g>
    <g id="ytick_4">
     <g id="line2d_14">
      <path clip-path="url(#pf72924ea94)" d="M 40.5 77.206133 
L 291.6 77.206133 
" style="fill:none;stroke:#cccccc;stroke-linecap:round;stroke-width:0.8;"/>
     </g>
     <g id="line2d_15">
      <g>
       <use style="fill:#262626;stroke:#262626;stroke-width:0.8;" x="40.5" xlink:href="#m51ec98556d" y="77.206133"/>
      </g>
     </g>
     <g id="text_11">
      <!-- 0.02 -->
      <g style="fill:#262626;" transform="translate(11.234375 81.005352)scale(0.1 -0.1)">
       <use xlink:href="#DejaVuSans-48"/>
       <use x="63.623047" xlink:href="#DejaVuSans-46"/>
       <use x="95.410156" xlink:href="#DejaVuSans-48"/>
       <use x="159.033203" xlink:href="#DejaVuSans-50"/>
      </g>
     </g>
    </g>
    <g id="ytick_5">
     <g id="line2d_16">
      <path clip-path="url(#pf72924ea94)" d="M 40.5 42.579064 
L 291.6 42.579064 
" style="fill:none;stroke:#cccccc;stroke-linecap:round;stroke-width:0.8;"/>
     </g>
     <g id="line2d_17">
      <g>
       <use style="fill:#262626;stroke:#262626;stroke-width:0.8;" x="40.5" xlink:href="#m51ec98556d" y="42.579064"/>
      </g>
     </g>
     <g id="text_12">
      <!-- 0.03 -->
      <g style="fill:#262626;" transform="translate(11.234375 46.378283)scale(0.1 -0.1)">
       <defs>
        <path d="M 40.578125 39.3125 
Q 47.65625 37.796875 51.625 33 
Q 55.609375 28.21875 55.609375 21.1875 
Q 55.609375 10.40625 48.1875 4.484375 
Q 40.765625 -1.421875 27.09375 -1.421875 
Q 22.515625 -1.421875 17.65625 -0.515625 
Q 12.796875 0.390625 7.625 2.203125 
L 7.625 11.71875 
Q 11.71875 9.328125 16.59375 8.109375 
Q 21.484375 6.890625 26.8125 6.890625 
Q 36.078125 6.890625 40.9375 10.546875 
Q 45.796875 14.203125 45.796875 21.1875 
Q 45.796875 27.640625 41.28125 31.265625 
Q 36.765625 34.90625 28.71875 34.90625 
L 20.21875 34.90625 
L 20.21875 43.015625 
L 29.109375 43.015625 
Q 36.375 43.015625 40.234375 45.921875 
Q 44.09375 48.828125 44.09375 54.296875 
Q 44.09375 59.90625 40.109375 62.90625 
Q 36.140625 65.921875 28.71875 65.921875 
Q 24.65625 65.921875 20.015625 65.03125 
Q 15.375 64.15625 9.8125 62.3125 
L 9.8125 71.09375 
Q 15.4375 72.65625 20.34375 73.4375 
Q 25.25 74.21875 29.59375 74.21875 
Q 40.828125 74.21875 47.359375 69.109375 
Q 53.90625 64.015625 53.90625 55.328125 
Q 53.90625 49.265625 50.4375 45.09375 
Q 46.96875 40.921875 40.578125 39.3125 
z
" id="DejaVuSans-51"/>
       </defs>
       <use xlink:href="#DejaVuSans-48"/>
       <use x="63.623047" xlink:href="#DejaVuSans-46"/>
       <use x="95.410156" xlink:href="#DejaVuSans-48"/>
       <use x="159.033203" xlink:href="#DejaVuSans-51"/>
      </g>
     </g>
    </g>
   </g>
   <g id="line2d_18">
    <path clip-path="url(#pf72924ea94)" d="M 52.812344 171.736655 
L 54.609774 171.755349 
L 56.407187 171.775274 
L 58.204617 171.796509 
L 60.002047 171.819136 
L 61.79946 171.843241 
L 63.59689 171.868916 
L 65.394302 171.89626 
L 67.191732 171.925372 
L 68.989162 171.956362 
L 70.786575 171.989346 
L 72.584005 172.024441 
L 74.381418 172.061777 
L 76.178848 172.101487 
L 77.976277 172.143711 
L 79.77369 172.188595 
L 81.57112 172.236299 
L 83.368533 172.286982 
L 85.165963 172.340818 
L 86.963393 172.397986 
L 88.760805 172.458674 
L 90.558235 172.523076 
L 92.355648 172.591402 
L 94.153078 172.663864 
L 95.950508 172.740684 
L 97.747921 172.822097 
L 99.545351 172.908342 
L 101.342763 172.999671 
L 103.140193 173.096342 
L 104.937623 173.198625 
L 106.735036 173.306791 
L 108.532466 173.421128 
L 110.329879 173.541925 
L 112.127309 173.669479 
L 113.924738 173.804093 
L 115.722151 173.946072 
L 117.519581 174.09573 
L 119.316994 174.253372 
L 121.114424 174.419316 
L 122.911845 174.593867 
L 124.709266 174.777325 
L 126.506696 174.96999 
L 128.304118 175.172142 
L 130.101539 175.38405 
L 131.89896 175.605962 
L 133.696382 175.8381 
L 135.493812 176.08066 
L 137.291233 176.333795 
L 139.088654 176.597618 
L 140.886076 176.872186 
L 142.683497 177.157502 
L 144.480927 177.453486 
L 146.278348 177.759984 
L 148.07577 178.076746 
L 149.873191 178.403412 
L 151.670612 178.739491 
L 153.468042 179.084365 
L 155.265463 179.437246 
L 157.062885 179.79717 
L 158.860306 180.162977 
L 160.657727 180.533276 
L 162.455157 180.906435 
L 164.252579 181.280552 
L 166.05 181.653408 
L 167.847421 182.022469 
L 169.644843 182.384828 
L 171.442273 182.737196 
L 173.239694 183.075843 
L 175.037115 183.396597 
L 176.834537 183.694791 
L 178.631958 183.965234 
L 180.429388 184.202199 
L 182.226809 184.399366 
L 184.02423 184.549837 
L 185.821652 184.646093 
L 187.619073 184.68 
L 189.416503 184.642791 
L 191.213924 184.525099 
L 193.011346 184.316964 
L 194.808767 184.00787 
L 196.606193 183.586802 
L 198.403614 183.042323 
L 200.20104 182.362647 
L 201.998461 181.535783 
L 203.795882 180.549639 
L 205.593308 179.39221 
L 207.390729 178.05175 
L 209.188155 176.516986 
L 210.985576 174.777347 
L 212.782998 172.823211 
L 214.580423 170.646159 
L 216.377845 168.239278 
L 218.17527 165.59741 
L 219.972691 162.71742 
L 221.770113 159.598469 
L 223.567538 156.242216 
L 225.36496 152.653045 
L 227.162385 148.838187 
L 228.959807 144.807842 
L 230.75723 140.575156 
L 232.554654 136.156254 
L 234.352075 131.570086 
L 236.149498 126.838204 
L 237.946922 121.98456 
L 239.744345 117.035129 
L 241.541769 112.017512 
L 243.33919 106.960493 
L 245.136614 101.893535 
L 246.934037 96.846287 
L 248.731461 91.848051 
L 250.528883 86.927251 
L 252.326307 82.111016 
L 254.123729 77.424679 
L 255.921152 72.891461 
L 257.718575 68.532058 
L 259.515998 64.364536 
L 261.313422 60.404001 
L 263.110845 56.662656 
L 264.908268 53.149712 
L 266.705691 49.871436 
L 268.503114 46.831287 
L 270.300537 44.030102 
L 272.09796 41.466245 
L 273.895383 39.135895 
L 275.692806 37.033269 
L 277.490229 35.150909 
L 279.287652 33.48 
" style="fill:none;stroke:#1f77b4;stroke-linecap:round;stroke-width:1.5;"/>
   </g>
   <g id="line2d_19">
    <path clip-path="url(#pf72924ea94)" d="M 52.812344 171.736655 
L 54.609774 171.755349 
L 56.407187 171.775274 
L 58.204617 171.796509 
L 60.002047 171.819136 
L 61.79946 171.843241 
L 63.59689 171.868916 
L 65.394302 171.89626 
L 67.191732 171.925372 
L 68.989162 171.956362 
L 70.786575 171.989346 
L 72.584005 172.024441 
L 74.381418 172.061777 
L 76.178848 172.101487 
L 77.976277 172.143711 
L 79.77369 172.188595 
L 81.57112 172.236299 
L 83.368533 172.286982 
L 85.165963 172.340818 
L 86.963393 172.397986 
L 88.760805 172.458674 
L 90.558235 172.523076 
L 92.355648 172.591402 
L 94.153078 172.663864 
L 95.950508 172.740684 
L 97.747921 172.822097 
L 99.545351 172.908342 
L 101.342763 172.999671 
L 103.140193 173.096342 
L 104.937623 173.198625 
L 106.735036 173.306791 
L 108.532466 173.421128 
L 110.329879 173.541925 
L 112.127309 173.669479 
L 113.924738 173.804093 
L 115.722151 173.946072 
L 117.519581 174.09573 
L 119.316994 174.253372 
L 121.114424 174.419316 
L 122.911845 174.593867 
L 124.709266 174.777325 
L 126.506696 174.96999 
L 128.304118 175.172142 
L 130.101539 175.38405 
L 131.89896 175.605962 
L 133.696382 175.8381 
L 135.493812 176.08066 
L 137.291233 176.333795 
L 139.088654 176.597618 
L 140.886076 176.872186 
L 142.683497 177.157502 
L 144.480927 177.453486 
L 146.278348 177.759984 
L 148.07577 178.076746 
L 149.873191 178.403412 
L 151.670612 178.739491 
L 153.468042 179.084365 
L 155.265463 179.437246 
L 157.062885 179.79717 
L 158.860306 180.162977 
L 160.657727 180.533276 
L 162.455157 180.906435 
L 164.252579 181.280552 
L 166.05 181.653408 
L 167.847421 182.022469 
L 169.644843 182.384828 
L 171.442273 182.737196 
L 173.239694 183.075843 
L 175.037115 183.396597 
L 176.834537 183.694791 
L 178.631958 183.965234 
L 180.429388 184.202199 
L 182.226809 184.399366 
L 184.02423 184.549837 
L 185.821652 184.646093 
L 187.619073 184.68 
L 189.416503 184.642791 
L 191.213924 184.525099 
L 193.011346 184.316964 
L 194.808767 184.00787 
L 196.606193 183.586802 
L 198.403614 183.042323 
L 200.20104 182.362647 
L 201.998461 181.535783 
L 203.795882 180.549639 
L 205.593308 179.39221 
L 207.390729 178.05175 
L 209.188155 176.516986 
L 210.985576 174.777347 
L 212.782998 172.823211 
L 214.580423 170.646159 
L 216.377845 168.239278 
L 218.17527 165.59741 
L 219.972691 162.71742 
L 221.770113 159.598469 
L 223.567538 156.242216 
L 225.36496 152.653045 
L 227.162385 148.838187 
L 228.959807 144.807842 
L 230.75723 140.575156 
L 232.554654 136.156254 
L 234.352075 131.570086 
L 236.149498 126.838204 
L 237.946922 121.98456 
L 239.744345 117.035129 
L 241.541769 112.017512 
L 243.33919 106.960493 
L 245.136614 101.893535 
L 246.934037 96.846287 
L 248.731461 91.848051 
L 250.528883 86.927251 
L 252.326307 82.111016 
L 254.123729 77.424679 
L 255.921152 72.891461 
L 257.718575 68.532058 
L 259.515998 64.364536 
L 261.313422 60.404001 
L 263.110845 56.662656 
L 264.908268 53.149712 
L 266.705691 49.871436 
L 268.503114 46.831287 
L 270.300537 44.030102 
L 272.09796 41.466245 
L 273.895383 39.135895 
L 275.692806 37.033269 
L 277.490229 35.150909 
L 279.287652 33.48 
" style="fill:none;stroke:#ff7f0e;stroke-dasharray:5.55,2.4;stroke-dashoffset:0;stroke-width:1.5;"/>
   </g>
   <g id="patch_3">
    <path d="M 40.5 192.24 
L 40.5 25.92 
" style="fill:none;stroke:#cccccc;stroke-linecap:square;stroke-linejoin:miter;stroke-width:0.8;"/>
   </g>
   <g id="patch_4">
    <path d="M 291.6 192.24 
L 291.6 25.92 
" style="fill:none;stroke:#cccccc;stroke-linecap:square;stroke-linejoin:miter;stroke-width:0.8;"/>
   </g>
   <g id="patch_5">
    <path d="M 40.5 192.24 
L 291.6 192.24 
" style="fill:none;stroke:#cccccc;stroke-linecap:square;stroke-linejoin:miter;stroke-width:0.8;"/>
   </g>
   <g id="patch_6">
    <path d="M 40.5 25.92 
L 291.6 25.92 
" style="fill:none;stroke:#cccccc;stroke-linecap:square;stroke-linejoin:miter;stroke-width:0.8;"/>
   </g>
   <g id="legend_1">
    <g id="patch_7">
     <path d="M 47.5 63.27625 
L 191.159375 63.27625 
Q 193.159375 63.27625 193.159375 61.27625 
L 193.159375 32.92 
Q 193.159375 30.92 191.159375 30.92 
L 47.5 30.92 
Q 45.5 30.92 45.5 32.92 
L 45.5 61.27625 
Q 45.5 63.27625 47.5 63.27625 
z
" style="fill:#ffffff;opacity:0.8;stroke:#cccccc;stroke-linejoin:miter;"/>
    </g>
    <g id="line2d_20">
     <path d="M 49.5 39.018437 
L 69.5 39.018437 
" style="fill:none;stroke:#1f77b4;stroke-linecap:round;stroke-width:1.5;"/>
    </g>
    <g id="line2d_21"/>
    <g id="text_13">
     <!-- R.RAF (14.6) -->
     <g style="fill:#262626;" transform="translate(77.5 42.518437)scale(0.1 -0.1)">
      <defs>
       <path d="M 44.390625 34.1875 
Q 47.5625 33.109375 50.5625 29.59375 
Q 53.5625 26.078125 56.59375 19.921875 
L 66.609375 0 
L 56 0 
L 46.6875 18.703125 
Q 43.0625 26.03125 39.671875 28.421875 
Q 36.28125 30.8125 30.421875 30.8125 
L 19.671875 30.8125 
L 19.671875 0 
L 9.8125 0 
L 9.8125 72.90625 
L 32.078125 72.90625 
Q 44.578125 72.90625 50.734375 67.671875 
Q 56.890625 62.453125 56.890625 51.90625 
Q 56.890625 45.015625 53.6875 40.46875 
Q 50.484375 35.9375 44.390625 34.1875 
z
M 19.671875 64.796875 
L 19.671875 38.921875 
L 32.078125 38.921875 
Q 39.203125 38.921875 42.84375 42.21875 
Q 46.484375 45.515625 46.484375 51.90625 
Q 46.484375 58.296875 42.84375 61.546875 
Q 39.203125 64.796875 32.078125 64.796875 
z
" id="DejaVuSans-82"/>
       <path d="M 34.1875 63.1875 
L 20.796875 26.90625 
L 47.609375 26.90625 
z
M 28.609375 72.90625 
L 39.796875 72.90625 
L 67.578125 0 
L 57.328125 0 
L 50.6875 18.703125 
L 17.828125 18.703125 
L 11.1875 0 
L 0.78125 0 
z
" id="DejaVuSans-65"/>
       <path d="M 9.8125 72.90625 
L 51.703125 72.90625 
L 51.703125 64.59375 
L 19.671875 64.59375 
L 19.671875 43.109375 
L 48.578125 43.109375 
L 48.578125 34.8125 
L 19.671875 34.8125 
L 19.671875 0 
L 9.8125 0 
z
" id="DejaVuSans-70"/>
       <path id="DejaVuSans-32"/>
       <path d="M 31 75.875 
Q 24.46875 64.65625 21.28125 53.65625 
Q 18.109375 42.671875 18.109375 31.390625 
Q 18.109375 20.125 21.3125 9.0625 
Q 24.515625 -2 31 -13.1875 
L 23.1875 -13.1875 
Q 15.875 -1.703125 12.234375 9.375 
Q 8.59375 20.453125 8.59375 31.390625 
Q 8.59375 42.28125 12.203125 53.3125 
Q 15.828125 64.359375 23.1875 75.875 
z
" id="DejaVuSans-40"/>
       <path d="M 8.015625 75.875 
L 15.828125 75.875 
Q 23.140625 64.359375 26.78125 53.3125 
Q 30.421875 42.28125 30.421875 31.390625 
Q 30.421875 20.453125 26.78125 9.375 
Q 23.140625 -1.703125 15.828125 -13.1875 
L 8.015625 -13.1875 
Q 14.5 -2 17.703125 9.0625 
Q 20.90625 20.125 20.90625 31.390625 
Q 20.90625 42.671875 17.703125 53.65625 
Q 14.5 64.65625 8.015625 75.875 
z
" id="DejaVuSans-41"/>
      </defs>
      <use xlink:href="#DejaVuSans-82"/>
      <use x="65.857422" xlink:href="#DejaVuSans-46"/>
      <use x="97.644531" xlink:href="#DejaVuSans-82"/>
      <use x="163.126953" xlink:href="#DejaVuSans-65"/>
      <use x="231.535156" xlink:href="#DejaVuSans-70"/>
      <use x="289.054688" xlink:href="#DejaVuSans-32"/>
      <use x="320.841797" xlink:href="#DejaVuSans-40"/>
      <use x="359.855469" xlink:href="#DejaVuSans-49"/>
      <use x="423.478516" xlink:href="#DejaVuSans-52"/>
      <use x="487.101562" xlink:href="#DejaVuSans-46"/>
      <use x="518.888672" xlink:href="#DejaVuSans-54"/>
      <use x="582.511719" xlink:href="#DejaVuSans-41"/>
     </g>
    </g>
    <g id="line2d_22">
     <path d="M 49.5 53.696562 
L 69.5 53.696562 
" style="fill:none;stroke:#ff7f0e;stroke-dasharray:5.55,2.4;stroke-dashoffset:0;stroke-width:1.5;"/>
    </g>
    <g id="line2d_23"/>
    <g id="text_14">
     <!-- Adjusted dSiLU (-24.0) -->
     <g style="fill:#262626;" transform="translate(77.5 57.196562)scale(0.1 -0.1)">
      <defs>
       <path d="M 45.40625 46.390625 
L 45.40625 75.984375 
L 54.390625 75.984375 
L 54.390625 0 
L 45.40625 0 
L 45.40625 8.203125 
Q 42.578125 3.328125 38.25 0.953125 
Q 33.9375 -1.421875 27.875 -1.421875 
Q 17.96875 -1.421875 11.734375 6.484375 
Q 5.515625 14.40625 5.515625 27.296875 
Q 5.515625 40.1875 11.734375 48.09375 
Q 17.96875 56 27.875 56 
Q 33.9375 56 38.25 53.625 
Q 42.578125 51.265625 45.40625 46.390625 
z
M 14.796875 27.296875 
Q 14.796875 17.390625 18.875 11.75 
Q 22.953125 6.109375 30.078125 6.109375 
Q 37.203125 6.109375 41.296875 11.75 
Q 45.40625 17.390625 45.40625 27.296875 
Q 45.40625 37.203125 41.296875 42.84375 
Q 37.203125 48.484375 30.078125 48.484375 
Q 22.953125 48.484375 18.875 42.84375 
Q 14.796875 37.203125 14.796875 27.296875 
z
" id="DejaVuSans-100"/>
       <path d="M 9.421875 54.6875 
L 18.40625 54.6875 
L 18.40625 -0.984375 
Q 18.40625 -11.421875 14.421875 -16.109375 
Q 10.453125 -20.796875 1.609375 -20.796875 
L -1.8125 -20.796875 
L -1.8125 -13.1875 
L 0.59375 -13.1875 
Q 5.71875 -13.1875 7.5625 -10.8125 
Q 9.421875 -8.453125 9.421875 -0.984375 
z
M 9.421875 75.984375 
L 18.40625 75.984375 
L 18.40625 64.59375 
L 9.421875 64.59375 
z
" id="DejaVuSans-106"/>
       <path d="M 8.5 21.578125 
L 8.5 54.6875 
L 17.484375 54.6875 
L 17.484375 21.921875 
Q 17.484375 14.15625 20.5 10.265625 
Q 23.53125 6.390625 29.59375 6.390625 
Q 36.859375 6.390625 41.078125 11.03125 
Q 45.3125 15.671875 45.3125 23.6875 
L 45.3125 54.6875 
L 54.296875 54.6875 
L 54.296875 0 
L 45.3125 0 
L 45.3125 8.40625 
Q 42.046875 3.421875 37.71875 1 
Q 33.40625 -1.421875 27.6875 -1.421875 
Q 18.265625 -1.421875 13.375 4.4375 
Q 8.5 10.296875 8.5 21.578125 
z
M 31.109375 56 
z
" id="DejaVuSans-117"/>
       <path d="M 44.28125 53.078125 
L 44.28125 44.578125 
Q 40.484375 46.53125 36.375 47.5 
Q 32.28125 48.484375 27.875 48.484375 
Q 21.1875 48.484375 17.84375 46.4375 
Q 14.5 44.390625 14.5 40.28125 
Q 14.5 37.15625 16.890625 35.375 
Q 19.28125 33.59375 26.515625 31.984375 
L 29.59375 31.296875 
Q 39.15625 29.25 43.1875 25.515625 
Q 47.21875 21.78125 47.21875 15.09375 
Q 47.21875 7.46875 41.1875 3.015625 
Q 35.15625 -1.421875 24.609375 -1.421875 
Q 20.21875 -1.421875 15.453125 -0.5625 
Q 10.6875 0.296875 5.421875 2 
L 5.421875 11.28125 
Q 10.40625 8.6875 15.234375 7.390625 
Q 20.0625 6.109375 24.8125 6.109375 
Q 31.15625 6.109375 34.5625 8.28125 
Q 37.984375 10.453125 37.984375 14.40625 
Q 37.984375 18.0625 35.515625 20.015625 
Q 33.0625 21.96875 24.703125 23.78125 
L 21.578125 24.515625 
Q 13.234375 26.265625 9.515625 29.90625 
Q 5.8125 33.546875 5.8125 39.890625 
Q 5.8125 47.609375 11.28125 51.796875 
Q 16.75 56 26.8125 56 
Q 31.78125 56 36.171875 55.265625 
Q 40.578125 54.546875 44.28125 53.078125 
z
" id="DejaVuSans-115"/>
       <path d="M 18.3125 70.21875 
L 18.3125 54.6875 
L 36.8125 54.6875 
L 36.8125 47.703125 
L 18.3125 47.703125 
L 18.3125 18.015625 
Q 18.3125 11.328125 20.140625 9.421875 
Q 21.96875 7.515625 27.59375 7.515625 
L 36.8125 7.515625 
L 36.8125 0 
L 27.59375 0 
Q 17.1875 0 13.234375 3.875 
Q 9.28125 7.765625 9.28125 18.015625 
L 9.28125 47.703125 
L 2.6875 47.703125 
L 2.6875 54.6875 
L 9.28125 54.6875 
L 9.28125 70.21875 
z
" id="DejaVuSans-116"/>
       <path d="M 56.203125 29.59375 
L 56.203125 25.203125 
L 14.890625 25.203125 
Q 15.484375 15.921875 20.484375 11.0625 
Q 25.484375 6.203125 34.421875 6.203125 
Q 39.59375 6.203125 44.453125 7.46875 
Q 49.3125 8.734375 54.109375 11.28125 
L 54.109375 2.78125 
Q 49.265625 0.734375 44.1875 -0.34375 
Q 39.109375 -1.421875 33.890625 -1.421875 
Q 20.796875 -1.421875 13.15625 6.1875 
Q 5.515625 13.8125 5.515625 26.8125 
Q 5.515625 40.234375 12.765625 48.109375 
Q 20.015625 56 32.328125 56 
Q 43.359375 56 49.78125 48.890625 
Q 56.203125 41.796875 56.203125 29.59375 
z
M 47.21875 32.234375 
Q 47.125 39.59375 43.09375 43.984375 
Q 39.0625 48.390625 32.421875 48.390625 
Q 24.90625 48.390625 20.390625 44.140625 
Q 15.875 39.890625 15.1875 32.171875 
z
" id="DejaVuSans-101"/>
       <path d="M 53.515625 70.515625 
L 53.515625 60.890625 
Q 47.90625 63.578125 42.921875 64.890625 
Q 37.9375 66.21875 33.296875 66.21875 
Q 25.25 66.21875 20.875 63.09375 
Q 16.5 59.96875 16.5 54.203125 
Q 16.5 49.359375 19.40625 46.890625 
Q 22.3125 44.4375 30.421875 42.921875 
L 36.375 41.703125 
Q 47.40625 39.59375 52.65625 34.296875 
Q 57.90625 29 57.90625 20.125 
Q 57.90625 9.515625 50.796875 4.046875 
Q 43.703125 -1.421875 29.984375 -1.421875 
Q 24.8125 -1.421875 18.96875 -0.25 
Q 13.140625 0.921875 6.890625 3.21875 
L 6.890625 13.375 
Q 12.890625 10.015625 18.65625 8.296875 
Q 24.421875 6.59375 29.984375 6.59375 
Q 38.421875 6.59375 43.015625 9.90625 
Q 47.609375 13.234375 47.609375 19.390625 
Q 47.609375 24.75 44.3125 27.78125 
Q 41.015625 30.8125 33.5 32.328125 
L 27.484375 33.5 
Q 16.453125 35.6875 11.515625 40.375 
Q 6.59375 45.0625 6.59375 53.421875 
Q 6.59375 63.09375 13.40625 68.65625 
Q 20.21875 74.21875 32.171875 74.21875 
Q 37.3125 74.21875 42.625 73.28125 
Q 47.953125 72.359375 53.515625 70.515625 
z
" id="DejaVuSans-83"/>
       <path d="M 9.421875 54.6875 
L 18.40625 54.6875 
L 18.40625 0 
L 9.421875 0 
z
M 9.421875 75.984375 
L 18.40625 75.984375 
L 18.40625 64.59375 
L 9.421875 64.59375 
z
" id="DejaVuSans-105"/>
       <path d="M 9.8125 72.90625 
L 19.671875 72.90625 
L 19.671875 8.296875 
L 55.171875 8.296875 
L 55.171875 0 
L 9.8125 0 
z
" id="DejaVuSans-76"/>
       <path d="M 8.6875 72.90625 
L 18.609375 72.90625 
L 18.609375 28.609375 
Q 18.609375 16.890625 22.84375 11.734375 
Q 27.09375 6.59375 36.625 6.59375 
Q 46.09375 6.59375 50.34375 11.734375 
Q 54.59375 16.890625 54.59375 28.609375 
L 54.59375 72.90625 
L 64.5 72.90625 
L 64.5 27.390625 
Q 64.5 13.140625 57.4375 5.859375 
Q 50.390625 -1.421875 36.625 -1.421875 
Q 22.796875 -1.421875 15.734375 5.859375 
Q 8.6875 13.140625 8.6875 27.390625 
z
" id="DejaVuSans-85"/>
       <path d="M 4.890625 31.390625 
L 31.203125 31.390625 
L 31.203125 23.390625 
L 4.890625 23.390625 
z
" id="DejaVuSans-45"/>
      </defs>
      <use xlink:href="#DejaVuSans-65"/>
      <use x="66.658203" xlink:href="#DejaVuSans-100"/>
      <use x="130.134766" xlink:href="#DejaVuSans-106"/>
      <use x="157.917969" xlink:href="#DejaVuSans-117"/>
      <use x="221.296875" xlink:href="#DejaVuSans-115"/>
      <use x="273.396484" xlink:href="#DejaVuSans-116"/>
      <use x="312.605469" xlink:href="#DejaVuSans-101"/>
      <use x="374.128906" xlink:href="#DejaVuSans-100"/>
      <use x="437.605469" xlink:href="#DejaVuSans-32"/>
      <use x="469.392578" xlink:href="#DejaVuSans-100"/>
      <use x="532.869141" xlink:href="#DejaVuSans-83"/>
      <use x="596.345703" xlink:href="#DejaVuSans-105"/>
      <use x="624.128906" xlink:href="#DejaVuSans-76"/>
      <use x="674.841797" xlink:href="#DejaVuSans-85"/>
      <use x="748.035156" xlink:href="#DejaVuSans-32"/>
      <use x="779.822266" xlink:href="#DejaVuSans-40"/>
      <use x="818.835938" xlink:href="#DejaVuSans-45"/>
      <use x="854.919922" xlink:href="#DejaVuSans-50"/>
      <use x="918.542969" xlink:href="#DejaVuSans-52"/>
      <use x="982.166016" xlink:href="#DejaVuSans-46"/>
      <use x="1013.953125" xlink:href="#DejaVuSans-48"/>
      <use x="1077.576172" xlink:href="#DejaVuSans-41"/>
     </g>
    </g>
   </g>
  </g>
  <g id="axes_2">
   <g id="matplotlib.axis_3"/>
   <g id="patch_8">
    <path clip-path="url(#pf72924ea94)" d="M 51.913636 192.24 
L 53.711059 192.24 
L 53.711059 189.973654 
L 51.913636 189.973654 
z
" style="fill:#808080;fill-opacity:0.6;stroke:#808080;stroke-linejoin:miter;stroke-opacity:0.6;"/>
   </g>
   <g id="patch_9">
    <path clip-path="url(#pf72924ea94)" d="M 53.711059 192.24 
L 55.508482 192.24 
L 55.508482 191.382008 
L 53.711059 191.382008 
z
" style="fill:#808080;fill-opacity:0.6;stroke:#808080;stroke-linejoin:miter;stroke-opacity:0.6;"/>
   </g>
   <g id="patch_10">
    <path clip-path="url(#pf72924ea94)" d="M 55.508482 192.24 
L 57.305906 192.24 
L 57.305906 191.205289 
L 55.508482 191.205289 
z
" style="fill:#808080;fill-opacity:0.6;stroke:#808080;stroke-linejoin:miter;stroke-opacity:0.6;"/>
   </g>
   <g id="patch_11">
    <path clip-path="url(#pf72924ea94)" d="M 57.305906 192.24 
L 59.103329 192.24 
L 59.103329 191.589795 
L 57.305906 191.589795 
z
" style="fill:#808080;fill-opacity:0.6;stroke:#808080;stroke-linejoin:miter;stroke-opacity:0.6;"/>
   </g>
   <g id="patch_12">
    <path clip-path="url(#pf72924ea94)" d="M 59.103329 192.24 
L 60.900752 192.24 
L 60.900752 190.455821 
L 59.103329 190.455821 
z
" style="fill:#808080;fill-opacity:0.6;stroke:#808080;stroke-linejoin:miter;stroke-opacity:0.6;"/>
   </g>
   <g id="patch_13">
    <path clip-path="url(#pf72924ea94)" d="M 60.900752 192.24 
L 62.698175 192.24 
L 62.698175 191.499402 
L 60.900752 191.499402 
z
" style="fill:#808080;fill-opacity:0.6;stroke:#808080;stroke-linejoin:miter;stroke-opacity:0.6;"/>
   </g>
   <g id="patch_14">
    <path clip-path="url(#pf72924ea94)" d="M 62.698175 192.24 
L 64.495598 192.24 
L 64.495598 191.511176 
L 62.698175 191.511176 
z
" style="fill:#808080;fill-opacity:0.6;stroke:#808080;stroke-linejoin:miter;stroke-opacity:0.6;"/>
   </g>
   <g id="patch_15">
    <path clip-path="url(#pf72924ea94)" d="M 64.495598 192.24 
L 66.293021 192.24 
L 66.293021 190.809746 
L 64.495598 190.809746 
z
" style="fill:#808080;fill-opacity:0.6;stroke:#808080;stroke-linejoin:miter;stroke-opacity:0.6;"/>
   </g>
   <g id="patch_16">
    <path clip-path="url(#pf72924ea94)" d="M 66.293021 192.24 
L 68.090444 192.24 
L 68.090444 191.234551 
L 66.293021 191.234551 
z
" style="fill:#808080;fill-opacity:0.6;stroke:#808080;stroke-linejoin:miter;stroke-opacity:0.6;"/>
   </g>
   <g id="patch_17">
    <path clip-path="url(#pf72924ea94)" d="M 68.090444 192.24 
L 69.887867 192.24 
L 69.887867 190.674691 
L 68.090444 190.674691 
z
" style="fill:#808080;fill-opacity:0.6;stroke:#808080;stroke-linejoin:miter;stroke-opacity:0.6;"/>
   </g>
   <g id="patch_18">
    <path clip-path="url(#pf72924ea94)" d="M 69.887867 192.24 
L 71.68529 192.24 
L 71.68529 190.602854 
L 69.887867 190.602854 
z
" style="fill:#808080;fill-opacity:0.6;stroke:#808080;stroke-linejoin:miter;stroke-opacity:0.6;"/>
   </g>
   <g id="patch_19">
    <path clip-path="url(#pf72924ea94)" d="M 71.68529 192.24 
L 73.482713 192.24 
L 73.482713 178.221482 
L 71.68529 178.221482 
z
" style="fill:#808080;fill-opacity:0.6;stroke:#808080;stroke-linejoin:miter;stroke-opacity:0.6;"/>
   </g>
   <g id="patch_20">
    <path clip-path="url(#pf72924ea94)" d="M 73.482713 192.24 
L 75.280136 192.24 
L 75.280136 191.339496 
L 73.482713 191.339496 
z
" style="fill:#808080;fill-opacity:0.6;stroke:#808080;stroke-linejoin:miter;stroke-opacity:0.6;"/>
   </g>
   <g id="patch_21">
    <path clip-path="url(#pf72924ea94)" d="M 75.280136 192.24 
L 77.077559 192.24 
L 77.077559 191.176953 
L 75.280136 191.176953 
z
" style="fill:#808080;fill-opacity:0.6;stroke:#808080;stroke-linejoin:miter;stroke-opacity:0.6;"/>
   </g>
   <g id="patch_22">
    <path clip-path="url(#pf72924ea94)" d="M 77.077559 192.24 
L 78.874982 192.24 
L 78.874982 190.465429 
L 77.077559 190.465429 
z
" style="fill:#808080;fill-opacity:0.6;stroke:#808080;stroke-linejoin:miter;stroke-opacity:0.6;"/>
   </g>
   <g id="patch_23">
    <path clip-path="url(#pf72924ea94)" d="M 78.874982 192.24 
L 80.672405 192.24 
L 80.672405 178.333005 
L 78.874982 178.333005 
z
" style="fill:#808080;fill-opacity:0.6;stroke:#808080;stroke-linejoin:miter;stroke-opacity:0.6;"/>
   </g>
   <g id="patch_24">
    <path clip-path="url(#pf72924ea94)" d="M 80.672405 192.24 
L 82.469828 192.24 
L 82.469828 177.850178 
L 80.672405 177.850178 
z
" style="fill:#808080;fill-opacity:0.6;stroke:#808080;stroke-linejoin:miter;stroke-opacity:0.6;"/>
   </g>
   <g id="patch_25">
    <path clip-path="url(#pf72924ea94)" d="M 82.469828 192.24 
L 84.267251 192.24 
L 84.267251 190.137547 
L 82.469828 190.137547 
z
" style="fill:#808080;fill-opacity:0.6;stroke:#808080;stroke-linejoin:miter;stroke-opacity:0.6;"/>
   </g>
   <g id="patch_26">
    <path clip-path="url(#pf72924ea94)" d="M 84.267251 192.24 
L 86.064674 192.24 
L 86.064674 190.466889 
L 84.267251 190.466889 
z
" style="fill:#808080;fill-opacity:0.6;stroke:#808080;stroke-linejoin:miter;stroke-opacity:0.6;"/>
   </g>
   <g id="patch_27">
    <path clip-path="url(#pf72924ea94)" d="M 86.064674 192.24 
L 87.862097 192.24 
L 87.862097 190.547626 
L 86.064674 190.547626 
z
" style="fill:#808080;fill-opacity:0.6;stroke:#808080;stroke-linejoin:miter;stroke-opacity:0.6;"/>
   </g>
   <g id="patch_28">
    <path clip-path="url(#pf72924ea94)" d="M 87.862097 192.24 
L 89.65952 192.24 
L 89.65952 190.034454 
L 87.862097 190.034454 
z
" style="fill:#808080;fill-opacity:0.6;stroke:#808080;stroke-linejoin:miter;stroke-opacity:0.6;"/>
   </g>
   <g id="patch_29">
    <path clip-path="url(#pf72924ea94)" d="M 89.65952 192.24 
L 91.456943 192.24 
L 91.456943 191.317016 
L 89.65952 191.317016 
z
" style="fill:#808080;fill-opacity:0.6;stroke:#808080;stroke-linejoin:miter;stroke-opacity:0.6;"/>
   </g>
   <g id="patch_30">
    <path clip-path="url(#pf72924ea94)" d="M 91.456943 192.24 
L 93.254366 192.24 
L 93.254366 191.277125 
L 91.456943 191.277125 
z
" style="fill:#808080;fill-opacity:0.6;stroke:#808080;stroke-linejoin:miter;stroke-opacity:0.6;"/>
   </g>
   <g id="patch_31">
    <path clip-path="url(#pf72924ea94)" d="M 93.254366 192.24 
L 95.05179 192.24 
L 95.05179 191.415477 
L 93.254366 191.415477 
z
" style="fill:#808080;fill-opacity:0.6;stroke:#808080;stroke-linejoin:miter;stroke-opacity:0.6;"/>
   </g>
   <g id="patch_32">
    <path clip-path="url(#pf72924ea94)" d="M 95.05179 192.24 
L 96.849213 192.24 
L 96.849213 191.699324 
L 95.05179 191.699324 
z
" style="fill:#808080;fill-opacity:0.6;stroke:#808080;stroke-linejoin:miter;stroke-opacity:0.6;"/>
   </g>
   <g id="patch_33">
    <path clip-path="url(#pf72924ea94)" d="M 96.849213 192.24 
L 98.646636 192.24 
L 98.646636 191.467707 
L 96.849213 191.467707 
z
" style="fill:#808080;fill-opacity:0.6;stroke:#808080;stroke-linejoin:miter;stroke-opacity:0.6;"/>
   </g>
   <g id="patch_34">
    <path clip-path="url(#pf72924ea94)" d="M 98.646636 192.24 
L 100.444059 192.24 
L 100.444059 190.854958 
L 98.646636 190.854958 
z
" style="fill:#808080;fill-opacity:0.6;stroke:#808080;stroke-linejoin:miter;stroke-opacity:0.6;"/>
   </g>
   <g id="patch_35">
    <path clip-path="url(#pf72924ea94)" d="M 100.444059 192.24 
L 102.241482 192.24 
L 102.241482 190.962839 
L 100.444059 190.962839 
z
" style="fill:#808080;fill-opacity:0.6;stroke:#808080;stroke-linejoin:miter;stroke-opacity:0.6;"/>
   </g>
   <g id="patch_36">
    <path clip-path="url(#pf72924ea94)" d="M 102.241482 192.24 
L 104.038905 192.24 
L 104.038905 191.586168 
L 102.241482 191.586168 
z
" style="fill:#808080;fill-opacity:0.6;stroke:#808080;stroke-linejoin:miter;stroke-opacity:0.6;"/>
   </g>
   <g id="patch_37">
    <path clip-path="url(#pf72924ea94)" d="M 104.038905 192.24 
L 105.836328 192.24 
L 105.836328 190.340562 
L 104.038905 190.340562 
z
" style="fill:#808080;fill-opacity:0.6;stroke:#808080;stroke-linejoin:miter;stroke-opacity:0.6;"/>
   </g>
   <g id="patch_38">
    <path clip-path="url(#pf72924ea94)" d="M 105.836328 192.24 
L 107.633751 192.24 
L 107.633751 191.392887 
L 105.836328 191.392887 
z
" style="fill:#808080;fill-opacity:0.6;stroke:#808080;stroke-linejoin:miter;stroke-opacity:0.6;"/>
   </g>
   <g id="patch_39">
    <path clip-path="url(#pf72924ea94)" d="M 107.633751 192.24 
L 109.431174 192.24 
L 109.431174 190.708129 
L 107.633751 190.708129 
z
" style="fill:#808080;fill-opacity:0.6;stroke:#808080;stroke-linejoin:miter;stroke-opacity:0.6;"/>
   </g>
   <g id="patch_40">
    <path clip-path="url(#pf72924ea94)" d="M 109.431174 192.24 
L 111.228597 192.24 
L 111.228597 191.466058 
L 109.431174 191.466058 
z
" style="fill:#808080;fill-opacity:0.6;stroke:#808080;stroke-linejoin:miter;stroke-opacity:0.6;"/>
   </g>
   <g id="patch_41">
    <path clip-path="url(#pf72924ea94)" d="M 111.228597 192.24 
L 113.02602 192.24 
L 113.02602 190.598239 
L 111.228597 190.598239 
z
" style="fill:#808080;fill-opacity:0.6;stroke:#808080;stroke-linejoin:miter;stroke-opacity:0.6;"/>
   </g>
   <g id="patch_42">
    <path clip-path="url(#pf72924ea94)" d="M 113.02602 192.24 
L 114.823443 192.24 
L 114.823443 189.574359 
L 113.02602 189.574359 
z
" style="fill:#808080;fill-opacity:0.6;stroke:#808080;stroke-linejoin:miter;stroke-opacity:0.6;"/>
   </g>
   <g id="patch_43">
    <path clip-path="url(#pf72924ea94)" d="M 114.823443 192.24 
L 116.620866 192.24 
L 116.620866 191.552165 
L 114.823443 191.552165 
z
" style="fill:#808080;fill-opacity:0.6;stroke:#808080;stroke-linejoin:miter;stroke-opacity:0.6;"/>
   </g>
   <g id="patch_44">
    <path clip-path="url(#pf72924ea94)" d="M 116.620866 192.24 
L 118.418289 192.24 
L 118.418289 190.185946 
L 116.620866 190.185946 
z
" style="fill:#808080;fill-opacity:0.6;stroke:#808080;stroke-linejoin:miter;stroke-opacity:0.6;"/>
   </g>
   <g id="patch_45">
    <path clip-path="url(#pf72924ea94)" d="M 118.418289 192.24 
L 120.215712 192.24 
L 120.215712 191.380077 
L 118.418289 191.380077 
z
" style="fill:#808080;fill-opacity:0.6;stroke:#808080;stroke-linejoin:miter;stroke-opacity:0.6;"/>
   </g>
   <g id="patch_46">
    <path clip-path="url(#pf72924ea94)" d="M 120.215712 192.24 
L 122.013135 192.24 
L 122.013135 191.006544 
L 120.215712 191.006544 
z
" style="fill:#808080;fill-opacity:0.6;stroke:#808080;stroke-linejoin:miter;stroke-opacity:0.6;"/>
   </g>
   <g id="patch_47">
    <path clip-path="url(#pf72924ea94)" d="M 122.013135 192.24 
L 123.810558 192.24 
L 123.810558 190.201284 
L 122.013135 190.201284 
z
" style="fill:#808080;fill-opacity:0.6;stroke:#808080;stroke-linejoin:miter;stroke-opacity:0.6;"/>
   </g>
   <g id="patch_48">
    <path clip-path="url(#pf72924ea94)" d="M 123.810558 192.24 
L 125.607981 192.24 
L 125.607981 191.635619 
L 123.810558 191.635619 
z
" style="fill:#808080;fill-opacity:0.6;stroke:#808080;stroke-linejoin:miter;stroke-opacity:0.6;"/>
   </g>
   <g id="patch_49">
    <path clip-path="url(#pf72924ea94)" d="M 125.607981 192.24 
L 127.405404 192.24 
L 127.405404 191.587675 
L 125.607981 191.587675 
z
" style="fill:#808080;fill-opacity:0.6;stroke:#808080;stroke-linejoin:miter;stroke-opacity:0.6;"/>
   </g>
   <g id="patch_50">
    <path clip-path="url(#pf72924ea94)" d="M 127.405404 192.24 
L 129.202827 192.24 
L 129.202827 191.543421 
L 127.405404 191.543421 
z
" style="fill:#808080;fill-opacity:0.6;stroke:#808080;stroke-linejoin:miter;stroke-opacity:0.6;"/>
   </g>
   <g id="patch_51">
    <path clip-path="url(#pf72924ea94)" d="M 129.202827 192.24 
L 131.000251 192.24 
L 131.000251 191.071772 
L 129.202827 191.071772 
z
" style="fill:#808080;fill-opacity:0.6;stroke:#808080;stroke-linejoin:miter;stroke-opacity:0.6;"/>
   </g>
   <g id="patch_52">
    <path clip-path="url(#pf72924ea94)" d="M 131.000251 192.24 
L 132.797674 192.24 
L 132.797674 191.625321 
L 131.000251 191.625321 
z
" style="fill:#808080;fill-opacity:0.6;stroke:#808080;stroke-linejoin:miter;stroke-opacity:0.6;"/>
   </g>
   <g id="patch_53">
    <path clip-path="url(#pf72924ea94)" d="M 132.797674 192.24 
L 134.595097 192.24 
L 134.595097 190.570939 
L 132.797674 190.570939 
z
" style="fill:#808080;fill-opacity:0.6;stroke:#808080;stroke-linejoin:miter;stroke-opacity:0.6;"/>
   </g>
   <g id="patch_54">
    <path clip-path="url(#pf72924ea94)" d="M 134.595097 192.24 
L 136.39252 192.24 
L 136.39252 191.524677 
L 134.595097 191.524677 
z
" style="fill:#808080;fill-opacity:0.6;stroke:#808080;stroke-linejoin:miter;stroke-opacity:0.6;"/>
   </g>
   <g id="patch_55">
    <path clip-path="url(#pf72924ea94)" d="M 136.39252 192.24 
L 138.189943 192.24 
L 138.189943 190.298474 
L 136.39252 190.298474 
z
" style="fill:#808080;fill-opacity:0.6;stroke:#808080;stroke-linejoin:miter;stroke-opacity:0.6;"/>
   </g>
   <g id="patch_56">
    <path clip-path="url(#pf72924ea94)" d="M 138.189943 192.24 
L 139.987366 192.24 
L 139.987366 190.364377 
L 138.189943 190.364377 
z
" style="fill:#808080;fill-opacity:0.6;stroke:#808080;stroke-linejoin:miter;stroke-opacity:0.6;"/>
   </g>
   <g id="patch_57">
    <path clip-path="url(#pf72924ea94)" d="M 139.987366 192.24 
L 141.784789 192.24 
L 141.784789 191.692197 
L 139.987366 191.692197 
z
" style="fill:#808080;fill-opacity:0.6;stroke:#808080;stroke-linejoin:miter;stroke-opacity:0.6;"/>
   </g>
   <g id="patch_58">
    <path clip-path="url(#pf72924ea94)" d="M 141.784789 192.24 
L 143.582212 192.24 
L 143.582212 191.601616 
L 141.784789 191.601616 
z
" style="fill:#808080;fill-opacity:0.6;stroke:#808080;stroke-linejoin:miter;stroke-opacity:0.6;"/>
   </g>
   <g id="patch_59">
    <path clip-path="url(#pf72924ea94)" d="M 143.582212 192.24 
L 145.379635 192.24 
L 145.379635 191.680643 
L 143.582212 191.680643 
z
" style="fill:#808080;fill-opacity:0.6;stroke:#808080;stroke-linejoin:miter;stroke-opacity:0.6;"/>
   </g>
   <g id="patch_60">
    <path clip-path="url(#pf72924ea94)" d="M 145.379635 192.24 
L 147.177058 192.24 
L 147.177058 191.83598 
L 145.379635 191.83598 
z
" style="fill:#808080;fill-opacity:0.6;stroke:#808080;stroke-linejoin:miter;stroke-opacity:0.6;"/>
   </g>
   <g id="patch_61">
    <path clip-path="url(#pf72924ea94)" d="M 147.177058 192.24 
L 148.974481 192.24 
L 148.974481 191.683641 
L 147.177058 191.683641 
z
" style="fill:#808080;fill-opacity:0.6;stroke:#808080;stroke-linejoin:miter;stroke-opacity:0.6;"/>
   </g>
   <g id="patch_62">
    <path clip-path="url(#pf72924ea94)" d="M 148.974481 192.24 
L 150.771904 192.24 
L 150.771904 191.098271 
L 148.974481 191.098271 
z
" style="fill:#808080;fill-opacity:0.6;stroke:#808080;stroke-linejoin:miter;stroke-opacity:0.6;"/>
   </g>
   <g id="patch_63">
    <path clip-path="url(#pf72924ea94)" d="M 150.771904 192.24 
L 152.569327 192.24 
L 152.569327 191.657267 
L 150.771904 191.657267 
z
" style="fill:#808080;fill-opacity:0.6;stroke:#808080;stroke-linejoin:miter;stroke-opacity:0.6;"/>
   </g>
   <g id="patch_64">
    <path clip-path="url(#pf72924ea94)" d="M 152.569327 192.24 
L 154.36675 192.24 
L 154.36675 191.734332 
L 152.569327 191.734332 
z
" style="fill:#808080;fill-opacity:0.6;stroke:#808080;stroke-linejoin:miter;stroke-opacity:0.6;"/>
   </g>
   <g id="patch_65">
    <path clip-path="url(#pf72924ea94)" d="M 154.36675 192.24 
L 156.164173 192.24 
L 156.164173 190.680971 
L 154.36675 190.680971 
z
" style="fill:#808080;fill-opacity:0.6;stroke:#808080;stroke-linejoin:miter;stroke-opacity:0.6;"/>
   </g>
   <g id="patch_66">
    <path clip-path="url(#pf72924ea94)" d="M 156.164173 192.24 
L 157.961596 192.24 
L 157.961596 191.728414 
L 156.164173 191.728414 
z
" style="fill:#808080;fill-opacity:0.6;stroke:#808080;stroke-linejoin:miter;stroke-opacity:0.6;"/>
   </g>
   <g id="patch_67">
    <path clip-path="url(#pf72924ea94)" d="M 157.961596 192.24 
L 159.759019 192.24 
L 159.759019 191.671208 
L 157.961596 191.671208 
z
" style="fill:#808080;fill-opacity:0.6;stroke:#808080;stroke-linejoin:miter;stroke-opacity:0.6;"/>
   </g>
   <g id="patch_68">
    <path clip-path="url(#pf72924ea94)" d="M 159.759019 192.24 
L 161.556442 192.24 
L 161.556442 191.842197 
L 159.759019 191.842197 
z
" style="fill:#808080;fill-opacity:0.6;stroke:#808080;stroke-linejoin:miter;stroke-opacity:0.6;"/>
   </g>
   <g id="patch_69">
    <path clip-path="url(#pf72924ea94)" d="M 161.556442 192.24 
L 163.353865 192.24 
L 163.353865 191.829779 
L 161.556442 191.829779 
z
" style="fill:#808080;fill-opacity:0.6;stroke:#808080;stroke-linejoin:miter;stroke-opacity:0.6;"/>
   </g>
   <g id="patch_70">
    <path clip-path="url(#pf72924ea94)" d="M 163.353865 192.24 
L 165.151288 192.24 
L 165.151288 191.64799 
L 163.353865 191.64799 
z
" style="fill:#808080;fill-opacity:0.6;stroke:#808080;stroke-linejoin:miter;stroke-opacity:0.6;"/>
   </g>
   <g id="patch_71">
    <path clip-path="url(#pf72924ea94)" d="M 165.151288 192.24 
L 166.948712 192.24 
L 166.948712 191.920957 
L 165.151288 191.920957 
z
" style="fill:#808080;fill-opacity:0.6;stroke:#808080;stroke-linejoin:miter;stroke-opacity:0.6;"/>
   </g>
   <g id="patch_72">
    <path clip-path="url(#pf72924ea94)" d="M 166.948712 192.24 
L 168.746135 192.24 
L 168.746135 191.911177 
L 166.948712 191.911177 
z
" style="fill:#808080;fill-opacity:0.6;stroke:#808080;stroke-linejoin:miter;stroke-opacity:0.6;"/>
   </g>
   <g id="patch_73">
    <path clip-path="url(#pf72924ea94)" d="M 168.746135 192.24 
L 170.543558 192.24 
L 170.543558 191.756812 
L 168.746135 191.756812 
z
" style="fill:#808080;fill-opacity:0.6;stroke:#808080;stroke-linejoin:miter;stroke-opacity:0.6;"/>
   </g>
   <g id="patch_74">
    <path clip-path="url(#pf72924ea94)" d="M 170.543558 192.24 
L 172.340981 192.24 
L 172.340981 191.809152 
L 170.543558 191.809152 
z
" style="fill:#808080;fill-opacity:0.6;stroke:#808080;stroke-linejoin:miter;stroke-opacity:0.6;"/>
   </g>
   <g id="patch_75">
    <path clip-path="url(#pf72924ea94)" d="M 172.340981 192.24 
L 174.138404 192.24 
L 174.138404 191.872982 
L 172.340981 191.872982 
z
" style="fill:#808080;fill-opacity:0.6;stroke:#808080;stroke-linejoin:miter;stroke-opacity:0.6;"/>
   </g>
   <g id="patch_76">
    <path clip-path="url(#pf72924ea94)" d="M 174.138404 192.24 
L 175.935827 192.24 
L 175.935827 188.800339 
L 174.138404 188.800339 
z
" style="fill:#808080;fill-opacity:0.6;stroke:#808080;stroke-linejoin:miter;stroke-opacity:0.6;"/>
   </g>
   <g id="patch_77">
    <path clip-path="url(#pf72924ea94)" d="M 175.935827 192.24 
L 177.73325 192.24 
L 177.73325 191.592872 
L 175.935827 191.592872 
z
" style="fill:#808080;fill-opacity:0.6;stroke:#808080;stroke-linejoin:miter;stroke-opacity:0.6;"/>
   </g>
   <g id="patch_78">
    <path clip-path="url(#pf72924ea94)" d="M 177.73325 192.24 
L 179.530673 192.24 
L 179.530673 191.618821 
L 177.73325 191.618821 
z
" style="fill:#808080;fill-opacity:0.6;stroke:#808080;stroke-linejoin:miter;stroke-opacity:0.6;"/>
   </g>
   <g id="patch_79">
    <path clip-path="url(#pf72924ea94)" d="M 179.530673 192.24 
L 181.328096 192.24 
L 181.328096 190.249965 
L 179.530673 190.249965 
z
" style="fill:#808080;fill-opacity:0.6;stroke:#808080;stroke-linejoin:miter;stroke-opacity:0.6;"/>
   </g>
   <g id="patch_80">
    <path clip-path="url(#pf72924ea94)" d="M 181.328096 192.24 
L 183.125519 192.24 
L 183.125519 191.53565 
L 181.328096 191.53565 
z
" style="fill:#808080;fill-opacity:0.6;stroke:#808080;stroke-linejoin:miter;stroke-opacity:0.6;"/>
   </g>
   <g id="patch_81">
    <path clip-path="url(#pf72924ea94)" d="M 183.125519 192.24 
L 184.922942 192.24 
L 184.922942 191.586734 
L 183.125519 191.586734 
z
" style="fill:#808080;fill-opacity:0.6;stroke:#808080;stroke-linejoin:miter;stroke-opacity:0.6;"/>
   </g>
   <g id="patch_82">
    <path clip-path="url(#pf72924ea94)" d="M 184.922942 192.24 
L 186.720365 192.24 
L 186.720365 191.547503 
L 184.922942 191.547503 
z
" style="fill:#808080;fill-opacity:0.6;stroke:#808080;stroke-linejoin:miter;stroke-opacity:0.6;"/>
   </g>
   <g id="patch_83">
    <path clip-path="url(#pf72924ea94)" d="M 186.720365 192.24 
L 188.517788 192.24 
L 188.517788 191.519214 
L 186.720365 191.519214 
z
" style="fill:#808080;fill-opacity:0.6;stroke:#808080;stroke-linejoin:miter;stroke-opacity:0.6;"/>
   </g>
   <g id="patch_84">
    <path clip-path="url(#pf72924ea94)" d="M 188.517788 192.24 
L 190.315211 192.24 
L 190.315211 191.520218 
L 188.517788 191.520218 
z
" style="fill:#808080;fill-opacity:0.6;stroke:#808080;stroke-linejoin:miter;stroke-opacity:0.6;"/>
   </g>
   <g id="patch_85">
    <path clip-path="url(#pf72924ea94)" d="M 190.315211 192.24 
L 192.112634 192.24 
L 192.112634 191.242541 
L 190.315211 191.242541 
z
" style="fill:#808080;fill-opacity:0.6;stroke:#808080;stroke-linejoin:miter;stroke-opacity:0.6;"/>
   </g>
   <g id="patch_86">
    <path clip-path="url(#pf72924ea94)" d="M 192.112634 192.24 
L 193.910057 192.24 
L 193.910057 188.862035 
L 192.112634 188.862035 
z
" style="fill:#808080;fill-opacity:0.6;stroke:#808080;stroke-linejoin:miter;stroke-opacity:0.6;"/>
   </g>
   <g id="patch_87">
    <path clip-path="url(#pf72924ea94)" d="M 193.910057 192.24 
L 195.70748 192.24 
L 195.70748 191.054378 
L 193.910057 191.054378 
z
" style="fill:#808080;fill-opacity:0.6;stroke:#808080;stroke-linejoin:miter;stroke-opacity:0.6;"/>
   </g>
   <g id="patch_88">
    <path clip-path="url(#pf72924ea94)" d="M 195.70748 192.24 
L 197.504903 192.24 
L 197.504903 190.328333 
L 195.70748 190.328333 
z
" style="fill:#808080;fill-opacity:0.6;stroke:#808080;stroke-linejoin:miter;stroke-opacity:0.6;"/>
   </g>
   <g id="patch_89">
    <path clip-path="url(#pf72924ea94)" d="M 197.504903 192.24 
L 199.302326 192.24 
L 199.302326 190.125554 
L 197.504903 190.125554 
z
" style="fill:#808080;fill-opacity:0.6;stroke:#808080;stroke-linejoin:miter;stroke-opacity:0.6;"/>
   </g>
   <g id="patch_90">
    <path clip-path="url(#pf72924ea94)" d="M 199.302326 192.24 
L 201.099749 192.24 
L 201.099749 189.295693 
L 199.302326 189.295693 
z
" style="fill:#808080;fill-opacity:0.6;stroke:#808080;stroke-linejoin:miter;stroke-opacity:0.6;"/>
   </g>
   <g id="patch_91">
    <path clip-path="url(#pf72924ea94)" d="M 201.099749 192.24 
L 202.897173 192.24 
L 202.897173 185.189344 
L 201.099749 185.189344 
z
" style="fill:#808080;fill-opacity:0.6;stroke:#808080;stroke-linejoin:miter;stroke-opacity:0.6;"/>
   </g>
   <g id="patch_92">
    <path clip-path="url(#pf72924ea94)" d="M 202.897173 192.24 
L 204.694596 192.24 
L 204.694596 188.877576 
L 202.897173 188.877576 
z
" style="fill:#808080;fill-opacity:0.6;stroke:#808080;stroke-linejoin:miter;stroke-opacity:0.6;"/>
   </g>
   <g id="patch_93">
    <path clip-path="url(#pf72924ea94)" d="M 204.694596 192.24 
L 206.492019 192.24 
L 206.492019 187.933933 
L 204.694596 187.933933 
z
" style="fill:#808080;fill-opacity:0.6;stroke:#808080;stroke-linejoin:miter;stroke-opacity:0.6;"/>
   </g>
   <g id="patch_94">
    <path clip-path="url(#pf72924ea94)" d="M 206.492019 192.24 
L 208.289442 192.24 
L 208.289442 186.181496 
L 206.492019 186.181496 
z
" style="fill:#808080;fill-opacity:0.6;stroke:#808080;stroke-linejoin:miter;stroke-opacity:0.6;"/>
   </g>
   <g id="patch_95">
    <path clip-path="url(#pf72924ea94)" d="M 208.289442 192.24 
L 210.086865 192.24 
L 210.086865 183.164583 
L 208.289442 183.164583 
z
" style="fill:#808080;fill-opacity:0.6;stroke:#808080;stroke-linejoin:miter;stroke-opacity:0.6;"/>
   </g>
   <g id="patch_96">
    <path clip-path="url(#pf72924ea94)" d="M 210.086865 192.24 
L 211.884288 192.24 
L 211.884288 184.230535 
L 210.086865 184.230535 
z
" style="fill:#808080;fill-opacity:0.6;stroke:#808080;stroke-linejoin:miter;stroke-opacity:0.6;"/>
   </g>
   <g id="patch_97">
    <path clip-path="url(#pf72924ea94)" d="M 211.884288 192.24 
L 213.681711 192.24 
L 213.681711 180.250387 
L 211.884288 180.250387 
z
" style="fill:#808080;fill-opacity:0.6;stroke:#808080;stroke-linejoin:miter;stroke-opacity:0.6;"/>
   </g>
   <g id="patch_98">
    <path clip-path="url(#pf72924ea94)" d="M 213.681711 192.24 
L 215.479134 192.24 
L 215.479134 178.342126 
L 213.681711 178.342126 
z
" style="fill:#808080;fill-opacity:0.6;stroke:#808080;stroke-linejoin:miter;stroke-opacity:0.6;"/>
   </g>
   <g id="patch_99">
    <path clip-path="url(#pf72924ea94)" d="M 215.479134 192.24 
L 217.276557 192.24 
L 217.276557 148.5873 
L 215.479134 148.5873 
z
" style="fill:#808080;fill-opacity:0.6;stroke:#808080;stroke-linejoin:miter;stroke-opacity:0.6;"/>
   </g>
   <g id="patch_100">
    <path clip-path="url(#pf72924ea94)" d="M 217.276557 192.24 
L 219.07398 192.24 
L 219.07398 155.491269 
L 217.276557 155.491269 
z
" style="fill:#808080;fill-opacity:0.6;stroke:#808080;stroke-linejoin:miter;stroke-opacity:0.6;"/>
   </g>
   <g id="patch_101">
    <path clip-path="url(#pf72924ea94)" d="M 219.07398 192.24 
L 220.871403 192.24 
L 220.871403 140.713613 
L 219.07398 140.713613 
z
" style="fill:#808080;fill-opacity:0.6;stroke:#808080;stroke-linejoin:miter;stroke-opacity:0.6;"/>
   </g>
   <g id="patch_102">
    <path clip-path="url(#pf72924ea94)" d="M 220.871403 192.24 
L 222.668826 192.24 
L 222.668826 147.57452 
L 220.871403 147.57452 
z
" style="fill:#808080;fill-opacity:0.6;stroke:#808080;stroke-linejoin:miter;stroke-opacity:0.6;"/>
   </g>
   <g id="patch_103">
    <path clip-path="url(#pf72924ea94)" d="M 222.668826 192.24 
L 224.466249 192.24 
L 224.466249 83.628692 
L 222.668826 83.628692 
z
" style="fill:#808080;fill-opacity:0.6;stroke:#808080;stroke-linejoin:miter;stroke-opacity:0.6;"/>
   </g>
   <g id="patch_104">
    <path clip-path="url(#pf72924ea94)" d="M 224.466249 192.24 
L 226.263672 192.24 
L 226.263672 33.84 
L 224.466249 33.84 
z
" style="fill:#808080;fill-opacity:0.6;stroke:#808080;stroke-linejoin:miter;stroke-opacity:0.6;"/>
   </g>
   <g id="patch_105">
    <path clip-path="url(#pf72924ea94)" d="M 226.263672 192.24 
L 228.061095 192.24 
L 228.061095 79.055936 
L 226.263672 79.055936 
z
" style="fill:#808080;fill-opacity:0.6;stroke:#808080;stroke-linejoin:miter;stroke-opacity:0.6;"/>
   </g>
   <g id="patch_106">
    <path clip-path="url(#pf72924ea94)" d="M 228.061095 192.24 
L 229.858518 192.24 
L 229.858518 146.364534 
L 228.061095 146.364534 
z
" style="fill:#808080;fill-opacity:0.6;stroke:#808080;stroke-linejoin:miter;stroke-opacity:0.6;"/>
   </g>
   <g id="patch_107">
    <path clip-path="url(#pf72924ea94)" d="M 229.858518 192.24 
L 231.655941 192.24 
L 231.655941 165.039167 
L 229.858518 165.039167 
z
" style="fill:#808080;fill-opacity:0.6;stroke:#808080;stroke-linejoin:miter;stroke-opacity:0.6;"/>
   </g>
   <g id="patch_108">
    <path clip-path="url(#pf72924ea94)" d="M 231.655941 192.24 
L 233.453364 192.24 
L 233.453364 175.574758 
L 231.655941 175.574758 
z
" style="fill:#808080;fill-opacity:0.6;stroke:#808080;stroke-linejoin:miter;stroke-opacity:0.6;"/>
   </g>
   <g id="patch_109">
    <path clip-path="url(#pf72924ea94)" d="M 233.453364 192.24 
L 235.250787 192.24 
L 235.250787 178.270132 
L 233.453364 178.270132 
z
" style="fill:#808080;fill-opacity:0.6;stroke:#808080;stroke-linejoin:miter;stroke-opacity:0.6;"/>
   </g>
   <g id="patch_110">
    <path clip-path="url(#pf72924ea94)" d="M 235.250787 192.24 
L 237.04821 192.24 
L 237.04821 166.695088 
L 235.250787 166.695088 
z
" style="fill:#808080;fill-opacity:0.6;stroke:#808080;stroke-linejoin:miter;stroke-opacity:0.6;"/>
   </g>
   <g id="patch_111">
    <path clip-path="url(#pf72924ea94)" d="M 237.04821 192.24 
L 238.845634 192.24 
L 238.845634 183.193422 
L 237.04821 183.193422 
z
" style="fill:#808080;fill-opacity:0.6;stroke:#808080;stroke-linejoin:miter;stroke-opacity:0.6;"/>
   </g>
   <g id="patch_112">
    <path clip-path="url(#pf72924ea94)" d="M 238.845634 192.24 
L 240.643057 192.24 
L 240.643057 179.852662 
L 238.845634 179.852662 
z
" style="fill:#808080;fill-opacity:0.6;stroke:#808080;stroke-linejoin:miter;stroke-opacity:0.6;"/>
   </g>
   <g id="patch_113">
    <path clip-path="url(#pf72924ea94)" d="M 240.643057 192.24 
L 242.44048 192.24 
L 242.44048 182.050641 
L 240.643057 182.050641 
z
" style="fill:#808080;fill-opacity:0.6;stroke:#808080;stroke-linejoin:miter;stroke-opacity:0.6;"/>
   </g>
   <g id="patch_114">
    <path clip-path="url(#pf72924ea94)" d="M 242.44048 192.24 
L 244.237903 192.24 
L 244.237903 183.841759 
L 242.44048 183.841759 
z
" style="fill:#808080;fill-opacity:0.6;stroke:#808080;stroke-linejoin:miter;stroke-opacity:0.6;"/>
   </g>
   <g id="patch_115">
    <path clip-path="url(#pf72924ea94)" d="M 244.237903 192.24 
L 246.035326 192.24 
L 246.035326 179.13095 
L 244.237903 179.13095 
z
" style="fill:#808080;fill-opacity:0.6;stroke:#808080;stroke-linejoin:miter;stroke-opacity:0.6;"/>
   </g>
   <g id="patch_116">
    <path clip-path="url(#pf72924ea94)" d="M 246.035326 192.24 
L 247.832749 192.24 
L 247.832749 176.929769 
L 246.035326 176.929769 
z
" style="fill:#808080;fill-opacity:0.6;stroke:#808080;stroke-linejoin:miter;stroke-opacity:0.6;"/>
   </g>
   <g id="patch_117">
    <path clip-path="url(#pf72924ea94)" d="M 247.832749 192.24 
L 249.630172 192.24 
L 249.630172 173.586701 
L 247.832749 173.586701 
z
" style="fill:#808080;fill-opacity:0.6;stroke:#808080;stroke-linejoin:miter;stroke-opacity:0.6;"/>
   </g>
   <g id="patch_118">
    <path clip-path="url(#pf72924ea94)" d="M 249.630172 192.24 
L 251.427595 192.24 
L 251.427595 172.924031 
L 249.630172 172.924031 
z
" style="fill:#808080;fill-opacity:0.6;stroke:#808080;stroke-linejoin:miter;stroke-opacity:0.6;"/>
   </g>
   <g id="patch_119">
    <path clip-path="url(#pf72924ea94)" d="M 251.427595 192.24 
L 253.225018 192.24 
L 253.225018 158.116721 
L 251.427595 158.116721 
z
" style="fill:#808080;fill-opacity:0.6;stroke:#808080;stroke-linejoin:miter;stroke-opacity:0.6;"/>
   </g>
   <g id="patch_120">
    <path clip-path="url(#pf72924ea94)" d="M 253.225018 192.24 
L 255.022441 192.24 
L 255.022441 153.699303 
L 253.225018 153.699303 
z
" style="fill:#808080;fill-opacity:0.6;stroke:#808080;stroke-linejoin:miter;stroke-opacity:0.6;"/>
   </g>
   <g id="patch_121">
    <path clip-path="url(#pf72924ea94)" d="M 255.022441 192.24 
L 256.819864 192.24 
L 256.819864 141.408198 
L 255.022441 141.408198 
z
" style="fill:#808080;fill-opacity:0.6;stroke:#808080;stroke-linejoin:miter;stroke-opacity:0.6;"/>
   </g>
   <g id="patch_122">
    <path clip-path="url(#pf72924ea94)" d="M 256.819864 192.24 
L 258.617287 192.24 
L 258.617287 122.03157 
L 256.819864 122.03157 
z
" style="fill:#808080;fill-opacity:0.6;stroke:#808080;stroke-linejoin:miter;stroke-opacity:0.6;"/>
   </g>
   <g id="patch_123">
    <path clip-path="url(#pf72924ea94)" d="M 258.617287 192.24 
L 260.41471 192.24 
L 260.41471 92.600921 
L 258.617287 92.600921 
z
" style="fill:#808080;fill-opacity:0.6;stroke:#808080;stroke-linejoin:miter;stroke-opacity:0.6;"/>
   </g>
   <g id="patch_124">
    <path clip-path="url(#pf72924ea94)" d="M 260.41471 192.24 
L 262.212133 192.24 
L 262.212133 63.522282 
L 260.41471 63.522282 
z
" style="fill:#808080;fill-opacity:0.6;stroke:#808080;stroke-linejoin:miter;stroke-opacity:0.6;"/>
   </g>
   <g id="patch_125">
    <path clip-path="url(#pf72924ea94)" d="M 262.212133 192.24 
L 264.009556 192.24 
L 264.009556 85.132996 
L 262.212133 85.132996 
z
" style="fill:#808080;fill-opacity:0.6;stroke:#808080;stroke-linejoin:miter;stroke-opacity:0.6;"/>
   </g>
   <g id="patch_126">
    <path clip-path="url(#pf72924ea94)" d="M 264.009556 192.24 
L 265.806979 192.24 
L 265.806979 145.083479 
L 264.009556 145.083479 
z
" style="fill:#808080;fill-opacity:0.6;stroke:#808080;stroke-linejoin:miter;stroke-opacity:0.6;"/>
   </g>
   <g id="patch_127">
    <path clip-path="url(#pf72924ea94)" d="M 265.806979 192.24 
L 267.604402 192.24 
L 267.604402 159.974307 
L 265.806979 159.974307 
z
" style="fill:#808080;fill-opacity:0.6;stroke:#808080;stroke-linejoin:miter;stroke-opacity:0.6;"/>
   </g>
   <g id="patch_128">
    <path clip-path="url(#pf72924ea94)" d="M 267.604402 192.24 
L 269.401825 192.24 
L 269.401825 176.087004 
L 267.604402 176.087004 
z
" style="fill:#808080;fill-opacity:0.6;stroke:#808080;stroke-linejoin:miter;stroke-opacity:0.6;"/>
   </g>
   <g id="patch_129">
    <path clip-path="url(#pf72924ea94)" d="M 269.401825 192.24 
L 271.199248 192.24 
L 271.199248 183.23584 
L 269.401825 183.23584 
z
" style="fill:#808080;fill-opacity:0.6;stroke:#808080;stroke-linejoin:miter;stroke-opacity:0.6;"/>
   </g>
   <g id="patch_130">
    <path clip-path="url(#pf72924ea94)" d="M 271.199248 192.24 
L 272.996671 192.24 
L 272.996671 186.23112 
L 271.199248 186.23112 
z
" style="fill:#808080;fill-opacity:0.6;stroke:#808080;stroke-linejoin:miter;stroke-opacity:0.6;"/>
   </g>
   <g id="patch_131">
    <path clip-path="url(#pf72924ea94)" d="M 272.996671 192.24 
L 274.794094 192.24 
L 274.794094 189.040088 
L 272.996671 189.040088 
z
" style="fill:#808080;fill-opacity:0.6;stroke:#808080;stroke-linejoin:miter;stroke-opacity:0.6;"/>
   </g>
   <g id="patch_132">
    <path clip-path="url(#pf72924ea94)" d="M 274.794094 192.24 
L 276.591518 192.24 
L 276.591518 187.604874 
L 274.794094 187.604874 
z
" style="fill:#808080;fill-opacity:0.6;stroke:#808080;stroke-linejoin:miter;stroke-opacity:0.6;"/>
   </g>
   <g id="patch_133">
    <path clip-path="url(#pf72924ea94)" d="M 276.591518 192.24 
L 278.388941 192.24 
L 278.388941 171.57213 
L 276.591518 171.57213 
z
" style="fill:#808080;fill-opacity:0.6;stroke:#808080;stroke-linejoin:miter;stroke-opacity:0.6;"/>
   </g>
   <g id="patch_134">
    <path clip-path="url(#pf72924ea94)" d="M 278.388941 192.24 
L 280.186364 192.24 
L 280.186364 189.462083 
L 278.388941 189.462083 
z
" style="fill:#808080;fill-opacity:0.6;stroke:#808080;stroke-linejoin:miter;stroke-opacity:0.6;"/>
   </g>
   <g id="patch_135">
    <path d="M 40.5 192.24 
L 40.5 25.92 
" style="fill:none;stroke:#cccccc;stroke-linecap:square;stroke-linejoin:miter;stroke-width:0.8;"/>
   </g>
   <g id="patch_136">
    <path d="M 291.6 192.24 
L 291.6 25.92 
" style="fill:none;stroke:#cccccc;stroke-linecap:square;stroke-linejoin:miter;stroke-width:0.8;"/>
   </g>
   <g id="patch_137">
    <path d="M 40.5 192.24 
L 291.6 192.24 
" style="fill:none;stroke:#cccccc;stroke-linecap:square;stroke-linejoin:miter;stroke-width:0.8;"/>
   </g>
   <g id="patch_138">
    <path d="M 40.5 25.92 
L 291.6 25.92 
" style="fill:none;stroke:#cccccc;stroke-linecap:square;stroke-linejoin:miter;stroke-width:0.8;"/>
   </g>
  </g>
 </g>
 <defs>
  <clipPath id="pf72924ea94">
   <rect height="166.32" width="251.1" x="40.5" y="25.92"/>
  </clipPath>
 </defs>
</svg>
