<?xml version="1.0" encoding="utf-8" standalone="no"?>
<!DOCTYPE svg PUBLIC "-//W3C//DTD SVG 1.1//EN"
  "http://www.w3.org/Graphics/SVG/1.1/DTD/svg11.dtd">
<!-- Created with matplotlib (https://matplotlib.org/) -->
<svg height="216pt" version="1.1" viewBox="0 0 324 216" width="324pt" xmlns="http://www.w3.org/2000/svg" xmlns:xlink="http://www.w3.org/1999/xlink">
 <metadata>
  <rdf:RDF xmlns:cc="http://creativecommons.org/ns#" xmlns:dc="http://purl.org/dc/elements/1.1/" xmlns:rdf="http://www.w3.org/1999/02/22-rdf-syntax-ns#">
   <cc:Work>
    <dc:type rdf:resource="http://purl.org/dc/dcmitype/StillImage"/>
    <dc:date>2021-01-11T16:29:41.103941</dc:date>
    <dc:format>image/svg+xml</dc:format>
    <dc:creator>
     <cc:Agent>
      <dc:title>Matplotlib v3.3.3, https://matplotlib.org/</dc:title>
     </cc:Agent>
    </dc:creator>
   </cc:Work>
  </rdf:RDF>
 </metadata>
 <defs>
  <style type="text/css">*{stroke-linecap:butt;stroke-linejoin:round;}</style>
 </defs>
 <g id="figure_1">
  <g id="patch_1">
   <path d="M 0 216 
L 324 216 
L 324 0 
L 0 0 
z
" style="fill:#ffffff;"/>
  </g>
  <g id="axes_1">
   <g id="patch_2">
    <path d="M 40.5 192.24 
L 291.6 192.24 
L 291.6 25.92 
L 40.5 25.92 
z
" style="fill:#ffffff;"/>
   </g>
   <g id="matplotlib.axis_1">
    <g id="xtick_1">
     <g id="line2d_1">
      <path clip-path="url(#pf3606d4eda)" d="M 67.688581 192.24 
L 67.688581 25.92 
" style="fill:none;stroke:#cccccc;stroke-linecap:round;stroke-width:0.8;"/>
     </g>
     <g id="text_1">
      <!-- −10 -->
      <g style="fill:#262626;" transform="translate(57.136237 206.838437)scale(0.1 -0.1)">
       <defs>
        <path d="M 10.59375 35.5 
L 73.1875 35.5 
L 73.1875 27.203125 
L 10.59375 27.203125 
z
" id="DejaVuSans-8722"/>
        <path d="M 12.40625 8.296875 
L 28.515625 8.296875 
L 28.515625 63.921875 
L 10.984375 60.40625 
L 10.984375 69.390625 
L 28.421875 72.90625 
L 38.28125 72.90625 
L 38.28125 8.296875 
L 54.390625 8.296875 
L 54.390625 0 
L 12.40625 0 
z
" id="DejaVuSans-49"/>
        <path d="M 31.78125 66.40625 
Q 24.171875 66.40625 20.328125 58.90625 
Q 16.5 51.421875 16.5 36.375 
Q 16.5 21.390625 20.328125 13.890625 
Q 24.171875 6.390625 31.78125 6.390625 
Q 39.453125 6.390625 43.28125 13.890625 
Q 47.125 21.390625 47.125 36.375 
Q 47.125 51.421875 43.28125 58.90625 
Q 39.453125 66.40625 31.78125 66.40625 
z
M 31.78125 74.21875 
Q 44.046875 74.21875 50.515625 64.515625 
Q 56.984375 54.828125 56.984375 36.375 
Q 56.984375 17.96875 50.515625 8.265625 
Q 44.046875 -1.421875 31.78125 -1.421875 
Q 19.53125 -1.421875 13.0625 8.265625 
Q 6.59375 17.96875 6.59375 36.375 
Q 6.59375 54.828125 13.0625 64.515625 
Q 19.53125 74.21875 31.78125 74.21875 
z
" id="DejaVuSans-48"/>
       </defs>
       <use xlink:href="#DejaVuSans-8722"/>
       <use x="83.789062" xlink:href="#DejaVuSans-49"/>
       <use x="147.412109" xlink:href="#DejaVuSans-48"/>
      </g>
     </g>
    </g>
    <g id="xtick_2">
     <g id="line2d_2">
      <path clip-path="url(#pf3606d4eda)" d="M 104.806098 192.24 
L 104.806098 25.92 
" style="fill:none;stroke:#cccccc;stroke-linecap:round;stroke-width:0.8;"/>
     </g>
     <g id="text_2">
      <!-- −8 -->
      <g style="fill:#262626;" transform="translate(97.435004 206.838437)scale(0.1 -0.1)">
       <defs>
        <path d="M 31.78125 34.625 
Q 24.75 34.625 20.71875 30.859375 
Q 16.703125 27.09375 16.703125 20.515625 
Q 16.703125 13.921875 20.71875 10.15625 
Q 24.75 6.390625 31.78125 6.390625 
Q 38.8125 6.390625 42.859375 10.171875 
Q 46.921875 13.96875 46.921875 20.515625 
Q 46.921875 27.09375 42.890625 30.859375 
Q 38.875 34.625 31.78125 34.625 
z
M 21.921875 38.8125 
Q 15.578125 40.375 12.03125 44.71875 
Q 8.5 49.078125 8.5 55.328125 
Q 8.5 64.0625 14.71875 69.140625 
Q 20.953125 74.21875 31.78125 74.21875 
Q 42.671875 74.21875 48.875 69.140625 
Q 55.078125 64.0625 55.078125 55.328125 
Q 55.078125 49.078125 51.53125 44.71875 
Q 48 40.375 41.703125 38.8125 
Q 48.828125 37.15625 52.796875 32.3125 
Q 56.78125 27.484375 56.78125 20.515625 
Q 56.78125 9.90625 50.3125 4.234375 
Q 43.84375 -1.421875 31.78125 -1.421875 
Q 19.734375 -1.421875 13.25 4.234375 
Q 6.78125 9.90625 6.78125 20.515625 
Q 6.78125 27.484375 10.78125 32.3125 
Q 14.796875 37.15625 21.921875 38.8125 
z
M 18.3125 54.390625 
Q 18.3125 48.734375 21.84375 45.5625 
Q 25.390625 42.390625 31.78125 42.390625 
Q 38.140625 42.390625 41.71875 45.5625 
Q 45.3125 48.734375 45.3125 54.390625 
Q 45.3125 60.0625 41.71875 63.234375 
Q 38.140625 66.40625 31.78125 66.40625 
Q 25.390625 66.40625 21.84375 63.234375 
Q 18.3125 60.0625 18.3125 54.390625 
z
" id="DejaVuSans-56"/>
       </defs>
       <use xlink:href="#DejaVuSans-8722"/>
       <use x="83.789062" xlink:href="#DejaVuSans-56"/>
      </g>
     </g>
    </g>
    <g id="xtick_3">
     <g id="line2d_3">
      <path clip-path="url(#pf3606d4eda)" d="M 141.923614 192.24 
L 141.923614 25.92 
" style="fill:none;stroke:#cccccc;stroke-linecap:round;stroke-width:0.8;"/>
     </g>
     <g id="text_3">
      <!-- −6 -->
      <g style="fill:#262626;" transform="translate(134.55252 206.838437)scale(0.1 -0.1)">
       <defs>
        <path d="M 33.015625 40.375 
Q 26.375 40.375 22.484375 35.828125 
Q 18.609375 31.296875 18.609375 23.390625 
Q 18.609375 15.53125 22.484375 10.953125 
Q 26.375 6.390625 33.015625 6.390625 
Q 39.65625 6.390625 43.53125 10.953125 
Q 47.40625 15.53125 47.40625 23.390625 
Q 47.40625 31.296875 43.53125 35.828125 
Q 39.65625 40.375 33.015625 40.375 
z
M 52.59375 71.296875 
L 52.59375 62.3125 
Q 48.875 64.0625 45.09375 64.984375 
Q 41.3125 65.921875 37.59375 65.921875 
Q 27.828125 65.921875 22.671875 59.328125 
Q 17.53125 52.734375 16.796875 39.40625 
Q 19.671875 43.65625 24.015625 45.921875 
Q 28.375 48.1875 33.59375 48.1875 
Q 44.578125 48.1875 50.953125 41.515625 
Q 57.328125 34.859375 57.328125 23.390625 
Q 57.328125 12.15625 50.6875 5.359375 
Q 44.046875 -1.421875 33.015625 -1.421875 
Q 20.359375 -1.421875 13.671875 8.265625 
Q 6.984375 17.96875 6.984375 36.375 
Q 6.984375 53.65625 15.1875 63.9375 
Q 23.390625 74.21875 37.203125 74.21875 
Q 40.921875 74.21875 44.703125 73.484375 
Q 48.484375 72.75 52.59375 71.296875 
z
" id="DejaVuSans-54"/>
       </defs>
       <use xlink:href="#DejaVuSans-8722"/>
       <use x="83.789062" xlink:href="#DejaVuSans-54"/>
      </g>
     </g>
    </g>
    <g id="xtick_4">
     <g id="line2d_4">
      <path clip-path="url(#pf3606d4eda)" d="M 179.041131 192.24 
L 179.041131 25.92 
" style="fill:none;stroke:#cccccc;stroke-linecap:round;stroke-width:0.8;"/>
     </g>
     <g id="text_4">
      <!-- −4 -->
      <g style="fill:#262626;" transform="translate(171.670037 206.838437)scale(0.1 -0.1)">
       <defs>
        <path d="M 37.796875 64.3125 
L 12.890625 25.390625 
L 37.796875 25.390625 
z
M 35.203125 72.90625 
L 47.609375 72.90625 
L 47.609375 25.390625 
L 58.015625 25.390625 
L 58.015625 17.1875 
L 47.609375 17.1875 
L 47.609375 0 
L 37.796875 0 
L 37.796875 17.1875 
L 4.890625 17.1875 
L 4.890625 26.703125 
z
" id="DejaVuSans-52"/>
       </defs>
       <use xlink:href="#DejaVuSans-8722"/>
       <use x="83.789062" xlink:href="#DejaVuSans-52"/>
      </g>
     </g>
    </g>
    <g id="xtick_5">
     <g id="line2d_5">
      <path clip-path="url(#pf3606d4eda)" d="M 216.158647 192.24 
L 216.158647 25.92 
" style="fill:none;stroke:#cccccc;stroke-linecap:round;stroke-width:0.8;"/>
     </g>
     <g id="text_5">
      <!-- −2 -->
      <g style="fill:#262626;" transform="translate(208.787554 206.838437)scale(0.1 -0.1)">
       <defs>
        <path d="M 19.1875 8.296875 
L 53.609375 8.296875 
L 53.609375 0 
L 7.328125 0 
L 7.328125 8.296875 
Q 12.9375 14.109375 22.625 23.890625 
Q 32.328125 33.6875 34.8125 36.53125 
Q 39.546875 41.84375 41.421875 45.53125 
Q 43.3125 49.21875 43.3125 52.78125 
Q 43.3125 58.59375 39.234375 62.25 
Q 35.15625 65.921875 28.609375 65.921875 
Q 23.96875 65.921875 18.8125 64.3125 
Q 13.671875 62.703125 7.8125 59.421875 
L 7.8125 69.390625 
Q 13.765625 71.78125 18.9375 73 
Q 24.125 74.21875 28.421875 74.21875 
Q 39.75 74.21875 46.484375 68.546875 
Q 53.21875 62.890625 53.21875 53.421875 
Q 53.21875 48.921875 51.53125 44.890625 
Q 49.859375 40.875 45.40625 35.40625 
Q 44.1875 33.984375 37.640625 27.21875 
Q 31.109375 20.453125 19.1875 8.296875 
z
" id="DejaVuSans-50"/>
       </defs>
       <use xlink:href="#DejaVuSans-8722"/>
       <use x="83.789062" xlink:href="#DejaVuSans-50"/>
      </g>
     </g>
    </g>
    <g id="xtick_6">
     <g id="line2d_6">
      <path clip-path="url(#pf3606d4eda)" d="M 253.276164 192.24 
L 253.276164 25.92 
" style="fill:none;stroke:#cccccc;stroke-linecap:round;stroke-width:0.8;"/>
     </g>
     <g id="text_6">
      <!-- 0 -->
      <g style="fill:#262626;" transform="translate(250.094914 206.838437)scale(0.1 -0.1)">
       <use xlink:href="#DejaVuSans-48"/>
      </g>
     </g>
    </g>
    <g id="xtick_7">
     <g id="line2d_7">
      <path clip-path="url(#pf3606d4eda)" d="M 290.393681 192.24 
L 290.393681 25.92 
" style="fill:none;stroke:#cccccc;stroke-linecap:round;stroke-width:0.8;"/>
     </g>
     <g id="text_7">
      <!-- 2 -->
      <g style="fill:#262626;" transform="translate(287.212431 206.838437)scale(0.1 -0.1)">
       <use xlink:href="#DejaVuSans-50"/>
      </g>
     </g>
    </g>
   </g>
   <g id="matplotlib.axis_2">
    <g id="ytick_1">
     <g id="line2d_8">
      <path clip-path="url(#pf3606d4eda)" d="M 40.5 180.013565 
L 291.6 180.013565 
" style="fill:none;stroke:#cccccc;stroke-linecap:round;stroke-width:0.8;"/>
     </g>
     <g id="line2d_9">
      <defs>
       <path d="M 0 0 
L -3.5 0 
" id="me33bbcfd8d" style="stroke:#262626;stroke-width:0.8;"/>
      </defs>
      <g>
       <use style="fill:#262626;stroke:#262626;stroke-width:0.8;" x="40.5" xlink:href="#me33bbcfd8d" y="180.013565"/>
      </g>
     </g>
     <g id="text_8">
      <!-- 0.00 -->
      <g style="fill:#262626;" transform="translate(11.234375 183.812784)scale(0.1 -0.1)">
       <defs>
        <path d="M 10.6875 12.40625 
L 21 12.40625 
L 21 0 
L 10.6875 0 
z
" id="DejaVuSans-46"/>
       </defs>
       <use xlink:href="#DejaVuSans-48"/>
       <use x="63.623047" xlink:href="#DejaVuSans-46"/>
       <use x="95.410156" xlink:href="#DejaVuSans-48"/>
       <use x="159.033203" xlink:href="#DejaVuSans-48"/>
      </g>
     </g>
    </g>
    <g id="ytick_2">
     <g id="line2d_10">
      <path clip-path="url(#pf3606d4eda)" d="M 40.5 156.581469 
L 291.6 156.581469 
" style="fill:none;stroke:#cccccc;stroke-linecap:round;stroke-width:0.8;"/>
     </g>
     <g id="line2d_11">
      <g>
       <use style="fill:#262626;stroke:#262626;stroke-width:0.8;" x="40.5" xlink:href="#me33bbcfd8d" y="156.581469"/>
      </g>
     </g>
     <g id="text_9">
      <!-- 0.05 -->
      <g style="fill:#262626;" transform="translate(11.234375 160.380687)scale(0.1 -0.1)">
       <defs>
        <path d="M 10.796875 72.90625 
L 49.515625 72.90625 
L 49.515625 64.59375 
L 19.828125 64.59375 
L 19.828125 46.734375 
Q 21.96875 47.46875 24.109375 47.828125 
Q 26.265625 48.1875 28.421875 48.1875 
Q 40.625 48.1875 47.75 41.5 
Q 54.890625 34.8125 54.890625 23.390625 
Q 54.890625 11.625 47.5625 5.09375 
Q 40.234375 -1.421875 26.90625 -1.421875 
Q 22.3125 -1.421875 17.546875 -0.640625 
Q 12.796875 0.140625 7.71875 1.703125 
L 7.71875 11.625 
Q 12.109375 9.234375 16.796875 8.0625 
Q 21.484375 6.890625 26.703125 6.890625 
Q 35.15625 6.890625 40.078125 11.328125 
Q 45.015625 15.765625 45.015625 23.390625 
Q 45.015625 31 40.078125 35.4375 
Q 35.15625 39.890625 26.703125 39.890625 
Q 22.75 39.890625 18.8125 39.015625 
Q 14.890625 38.140625 10.796875 36.28125 
z
" id="DejaVuSans-53"/>
       </defs>
       <use xlink:href="#DejaVuSans-48"/>
       <use x="63.623047" xlink:href="#DejaVuSans-46"/>
       <use x="95.410156" xlink:href="#DejaVuSans-48"/>
       <use x="159.033203" xlink:href="#DejaVuSans-53"/>
      </g>
     </g>
    </g>
    <g id="ytick_3">
     <g id="line2d_12">
      <path clip-path="url(#pf3606d4eda)" d="M 40.5 133.149372 
L 291.6 133.149372 
" style="fill:none;stroke:#cccccc;stroke-linecap:round;stroke-width:0.8;"/>
     </g>
     <g id="line2d_13">
      <g>
       <use style="fill:#262626;stroke:#262626;stroke-width:0.8;" x="40.5" xlink:href="#me33bbcfd8d" y="133.149372"/>
      </g>
     </g>
     <g id="text_10">
      <!-- 0.10 -->
      <g style="fill:#262626;" transform="translate(11.234375 136.948591)scale(0.1 -0.1)">
       <use xlink:href="#DejaVuSans-48"/>
       <use x="63.623047" xlink:href="#DejaVuSans-46"/>
       <use x="95.410156" xlink:href="#DejaVuSans-49"/>
       <use x="159.033203" xlink:href="#DejaVuSans-48"/>
      </g>
     </g>
    </g>
    <g id="ytick_4">
     <g id="line2d_14">
      <path clip-path="url(#pf3606d4eda)" d="M 40.5 109.717276 
L 291.6 109.717276 
" style="fill:none;stroke:#cccccc;stroke-linecap:round;stroke-width:0.8;"/>
     </g>
     <g id="line2d_15">
      <g>
       <use style="fill:#262626;stroke:#262626;stroke-width:0.8;" x="40.5" xlink:href="#me33bbcfd8d" y="109.717276"/>
      </g>
     </g>
     <g id="text_11">
      <!-- 0.15 -->
      <g style="fill:#262626;" transform="translate(11.234375 113.516494)scale(0.1 -0.1)">
       <use xlink:href="#DejaVuSans-48"/>
       <use x="63.623047" xlink:href="#DejaVuSans-46"/>
       <use x="95.410156" xlink:href="#DejaVuSans-49"/>
       <use x="159.033203" xlink:href="#DejaVuSans-53"/>
      </g>
     </g>
    </g>
    <g id="ytick_5">
     <g id="line2d_16">
      <path clip-path="url(#pf3606d4eda)" d="M 40.5 86.285179 
L 291.6 86.285179 
" style="fill:none;stroke:#cccccc;stroke-linecap:round;stroke-width:0.8;"/>
     </g>
     <g id="line2d_17">
      <g>
       <use style="fill:#262626;stroke:#262626;stroke-width:0.8;" x="40.5" xlink:href="#me33bbcfd8d" y="86.285179"/>
      </g>
     </g>
     <g id="text_12">
      <!-- 0.20 -->
      <g style="fill:#262626;" transform="translate(11.234375 90.084398)scale(0.1 -0.1)">
       <use xlink:href="#DejaVuSans-48"/>
       <use x="63.623047" xlink:href="#DejaVuSans-46"/>
       <use x="95.410156" xlink:href="#DejaVuSans-50"/>
       <use x="159.033203" xlink:href="#DejaVuSans-48"/>
      </g>
     </g>
    </g>
    <g id="ytick_6">
     <g id="line2d_18">
      <path clip-path="url(#pf3606d4eda)" d="M 40.5 62.853082 
L 291.6 62.853082 
" style="fill:none;stroke:#cccccc;stroke-linecap:round;stroke-width:0.8;"/>
     </g>
     <g id="line2d_19">
      <g>
       <use style="fill:#262626;stroke:#262626;stroke-width:0.8;" x="40.5" xlink:href="#me33bbcfd8d" y="62.853082"/>
      </g>
     </g>
     <g id="text_13">
      <!-- 0.25 -->
      <g style="fill:#262626;" transform="translate(11.234375 66.652301)scale(0.1 -0.1)">
       <use xlink:href="#DejaVuSans-48"/>
       <use x="63.623047" xlink:href="#DejaVuSans-46"/>
       <use x="95.410156" xlink:href="#DejaVuSans-50"/>
       <use x="159.033203" xlink:href="#DejaVuSans-53"/>
      </g>
     </g>
    </g>
    <g id="ytick_7">
     <g id="line2d_20">
      <path clip-path="url(#pf3606d4eda)" d="M 40.5 39.420986 
L 291.6 39.420986 
" style="fill:none;stroke:#cccccc;stroke-linecap:round;stroke-width:0.8;"/>
     </g>
     <g id="line2d_21">
      <g>
       <use style="fill:#262626;stroke:#262626;stroke-width:0.8;" x="40.5" xlink:href="#me33bbcfd8d" y="39.420986"/>
      </g>
     </g>
     <g id="text_14">
      <!-- 0.30 -->
      <g style="fill:#262626;" transform="translate(11.234375 43.220205)scale(0.1 -0.1)">
       <defs>
        <path d="M 40.578125 39.3125 
Q 47.65625 37.796875 51.625 33 
Q 55.609375 28.21875 55.609375 21.1875 
Q 55.609375 10.40625 48.1875 4.484375 
Q 40.765625 -1.421875 27.09375 -1.421875 
Q 22.515625 -1.421875 17.65625 -0.515625 
Q 12.796875 0.390625 7.625 2.203125 
L 7.625 11.71875 
Q 11.71875 9.328125 16.59375 8.109375 
Q 21.484375 6.890625 26.8125 6.890625 
Q 36.078125 6.890625 40.9375 10.546875 
Q 45.796875 14.203125 45.796875 21.1875 
Q 45.796875 27.640625 41.28125 31.265625 
Q 36.765625 34.90625 28.71875 34.90625 
L 20.21875 34.90625 
L 20.21875 43.015625 
L 29.109375 43.015625 
Q 36.375 43.015625 40.234375 45.921875 
Q 44.09375 48.828125 44.09375 54.296875 
Q 44.09375 59.90625 40.109375 62.90625 
Q 36.140625 65.921875 28.71875 65.921875 
Q 24.65625 65.921875 20.015625 65.03125 
Q 15.375 64.15625 9.8125 62.3125 
L 9.8125 71.09375 
Q 15.4375 72.65625 20.34375 73.4375 
Q 25.25 74.21875 29.59375 74.21875 
Q 40.828125 74.21875 47.359375 69.109375 
Q 53.90625 64.015625 53.90625 55.328125 
Q 53.90625 49.265625 50.4375 45.09375 
Q 46.96875 40.921875 40.578125 39.3125 
z
" id="DejaVuSans-51"/>
       </defs>
       <use xlink:href="#DejaVuSans-48"/>
       <use x="63.623047" xlink:href="#DejaVuSans-46"/>
       <use x="95.410156" xlink:href="#DejaVuSans-51"/>
       <use x="159.033203" xlink:href="#DejaVuSans-48"/>
      </g>
     </g>
    </g>
   </g>
   <g id="line2d_22">
    <path clip-path="url(#pf3606d4eda)" d="M 52.841571 169.352023 
L 54.697454 169.352035 
L 56.553319 169.352049 
L 58.409202 169.352065 
L 60.265085 169.352084 
L 62.12095 169.352105 
L 63.976833 169.352129 
L 65.832698 169.352157 
L 67.688581 169.352189 
L 69.544464 169.352226 
L 71.400329 169.352269 
L 73.256212 169.352317 
L 75.112077 169.352373 
L 76.96796 169.352436 
L 78.823843 169.35251 
L 80.679708 169.352594 
L 82.535591 169.35269 
L 84.391456 169.352801 
L 86.247339 169.352929 
L 88.103222 169.353074 
L 89.959087 169.35324 
L 91.81497 169.353432 
L 93.670835 169.353651 
L 95.526718 169.353901 
L 97.382601 169.354188 
L 99.238467 169.354517 
L 101.094349 169.354894 
L 102.950215 169.355325 
L 104.806098 169.355819 
L 106.661972 169.356384 
L 108.517846 169.357031 
L 110.373729 169.35777 
L 112.229603 169.358616 
L 114.085477 169.359583 
L 115.941351 169.36069 
L 117.797225 169.361954 
L 119.653108 169.363399 
L 121.508982 169.365051 
L 123.364856 169.366937 
L 125.22073 169.369092 
L 127.076604 169.371552 
L 128.932487 169.374361 
L 130.788361 169.377567 
L 132.644235 169.381223 
L 134.500109 169.385395 
L 136.355983 169.390152 
L 138.211866 169.395574 
L 140.06774 169.401753 
L 141.923614 169.408793 
L 143.779488 169.41681 
L 145.635362 169.425937 
L 147.491245 169.436326 
L 149.347119 169.448143 
L 151.202993 169.461582 
L 153.058867 169.476858 
L 154.914741 169.494215 
L 156.770624 169.513929 
L 158.626498 169.536309 
L 160.482373 169.561703 
L 162.338247 169.590501 
L 164.194121 169.623144 
L 166.050004 169.660124 
L 167.905878 169.701992 
L 169.761752 169.749364 
L 171.617626 169.802931 
L 173.4735 169.863458 
L 175.329383 169.9318 
L 177.185257 170.008905 
L 179.041131 170.095824 
L 180.897005 170.19372 
L 182.752883 170.303873 
L 184.608757 170.427691 
L 186.464636 170.566714 
L 188.32051 170.722628 
L 190.176384 170.897258 
L 192.032263 171.09258 
L 193.888137 171.310713 
L 195.744015 171.553921 
L 197.599889 171.824593 
L 199.455763 172.125228 
L 201.311642 172.458411 
L 203.167516 172.826756 
L 205.023394 173.232867 
L 206.879268 173.679243 
L 208.735142 174.168185 
L 210.591021 174.701658 
L 212.446895 175.281115 
L 214.302773 175.907283 
L 216.158647 176.579895 
L 218.014524 177.297347 
L 219.8704 178.056296 
L 221.726274 178.851157 
L 223.58215 179.673531 
L 225.438027 180.511513 
L 227.293903 181.3489 
L 229.149779 182.164335 
L 231.005653 182.930319 
L 232.861529 183.612226 
L 234.717406 184.167296 
L 236.573282 184.543736 
L 238.429157 184.68 
L 240.285033 184.504445 
L 242.140909 183.935553 
L 243.996785 182.882859 
L 245.852661 181.248941 
L 247.708536 178.932635 
L 249.564412 175.833632 
L 251.420288 171.858504 
L 253.276164 166.928123 
L 255.13204 160.985902 
L 256.987916 154.006354 
L 258.843792 146.002986 
L 260.699668 137.034322 
L 262.555543 127.206914 
L 264.41142 116.674436 
L 266.267295 105.632177 
L 268.123171 94.307142 
L 269.979046 82.944481 
L 271.834922 71.791809 
L 273.690799 61.083149 
L 275.546675 51.024586 
L 277.402549 41.783182 
L 279.258425 33.48 
" style="fill:none;stroke:#1f77b4;stroke-linecap:round;stroke-width:1.5;"/>
   </g>
   <g id="line2d_23">
    <path clip-path="url(#pf3606d4eda)" d="M 52.841571 169.352023 
L 54.697454 169.352035 
L 56.553319 169.352049 
L 58.409202 169.352065 
L 60.265085 169.352084 
L 62.12095 169.352105 
L 63.976833 169.352129 
L 65.832698 169.352157 
L 67.688581 169.352189 
L 69.544464 169.352226 
L 71.400329 169.352269 
L 73.256212 169.352317 
L 75.112077 169.352373 
L 76.96796 169.352436 
L 78.823843 169.35251 
L 80.679708 169.352594 
L 82.535591 169.35269 
L 84.391456 169.352801 
L 86.247339 169.352929 
L 88.103222 169.353074 
L 89.959087 169.35324 
L 91.81497 169.353432 
L 93.670835 169.353651 
L 95.526718 169.353901 
L 97.382601 169.354188 
L 99.238467 169.354517 
L 101.094349 169.354894 
L 102.950215 169.355325 
L 104.806098 169.355819 
L 106.661972 169.356384 
L 108.517846 169.357031 
L 110.373729 169.35777 
L 112.229603 169.358616 
L 114.085477 169.359583 
L 115.941351 169.36069 
L 117.797225 169.361954 
L 119.653108 169.363399 
L 121.508982 169.365051 
L 123.364856 169.366937 
L 125.22073 169.369092 
L 127.076604 169.371552 
L 128.932487 169.374361 
L 130.788361 169.377567 
L 132.644235 169.381223 
L 134.500109 169.385395 
L 136.355983 169.390152 
L 138.211866 169.395574 
L 140.06774 169.401753 
L 141.923614 169.408793 
L 143.779488 169.41681 
L 145.635362 169.425937 
L 147.491245 169.436326 
L 149.347119 169.448143 
L 151.202993 169.461582 
L 153.058867 169.476858 
L 154.914741 169.494215 
L 156.770624 169.513929 
L 158.626498 169.536309 
L 160.482373 169.561703 
L 162.338247 169.590501 
L 164.194121 169.623144 
L 166.050004 169.660124 
L 167.905878 169.701992 
L 169.761752 169.749364 
L 171.617626 169.802931 
L 173.4735 169.863458 
L 175.329383 169.9318 
L 177.185257 170.008905 
L 179.041131 170.095824 
L 180.897005 170.19372 
L 182.752883 170.303873 
L 184.608757 170.427691 
L 186.464636 170.566714 
L 188.32051 170.722628 
L 190.176384 170.897258 
L 192.032263 171.09258 
L 193.888137 171.310713 
L 195.744015 171.553921 
L 197.599889 171.824593 
L 199.455763 172.125228 
L 201.311642 172.458411 
L 203.167516 172.826756 
L 205.023394 173.232867 
L 206.879268 173.679243 
L 208.735142 174.168185 
L 210.591021 174.701658 
L 212.446895 175.281115 
L 214.302773 175.907283 
L 216.158647 176.579895 
L 218.014524 177.297347 
L 219.8704 178.056296 
L 221.726274 178.851157 
L 223.58215 179.673531 
L 225.438027 180.511513 
L 227.293903 181.3489 
L 229.149779 182.164335 
L 231.005653 182.930319 
L 232.861529 183.612226 
L 234.717406 184.167296 
L 236.573282 184.543736 
L 238.429157 184.68 
L 240.285033 184.504445 
L 242.140909 183.935553 
L 243.996785 182.882859 
L 245.852661 181.248941 
L 247.708536 178.932635 
L 249.564412 175.833632 
L 251.420288 171.858504 
L 253.276164 166.928123 
L 255.13204 160.985902 
L 256.987916 154.006354 
L 258.843792 146.002986 
L 260.699668 137.034322 
L 262.555543 127.206914 
L 264.41142 116.674436 
L 266.267295 105.632177 
L 268.123171 94.307142 
L 269.979046 82.944481 
L 271.834922 71.791809 
L 273.690799 61.083149 
L 275.546675 51.024586 
L 277.402549 41.783182 
L 279.258425 33.48 
" style="fill:none;stroke:#ff7f0e;stroke-dasharray:5.55,2.4;stroke-dashoffset:0;stroke-width:1.5;"/>
   </g>
   <g id="patch_3">
    <path d="M 40.5 192.24 
L 40.5 25.92 
" style="fill:none;stroke:#cccccc;stroke-linecap:square;stroke-linejoin:miter;stroke-width:0.8;"/>
   </g>
   <g id="patch_4">
    <path d="M 291.6 192.24 
L 291.6 25.92 
" style="fill:none;stroke:#cccccc;stroke-linecap:square;stroke-linejoin:miter;stroke-width:0.8;"/>
   </g>
   <g id="patch_5">
    <path d="M 40.5 192.24 
L 291.6 192.24 
" style="fill:none;stroke:#cccccc;stroke-linecap:square;stroke-linejoin:miter;stroke-width:0.8;"/>
   </g>
   <g id="patch_6">
    <path d="M 40.5 25.92 
L 291.6 25.92 
" style="fill:none;stroke:#cccccc;stroke-linecap:square;stroke-linejoin:miter;stroke-width:0.8;"/>
   </g>
   <g id="legend_1">
    <g id="patch_7">
     <path d="M 47.5 63.27625 
L 206.639063 63.27625 
Q 208.639063 63.27625 208.639063 61.27625 
L 208.639063 32.92 
Q 208.639063 30.92 206.639063 30.92 
L 47.5 30.92 
Q 45.5 30.92 45.5 32.92 
L 45.5 61.27625 
Q 45.5 63.27625 47.5 63.27625 
z
" style="fill:#ffffff;opacity:0.8;stroke:#cccccc;stroke-linejoin:miter;"/>
    </g>
    <g id="line2d_24">
     <path d="M 49.5 39.018437 
L 69.5 39.018437 
" style="fill:none;stroke:#1f77b4;stroke-linecap:round;stroke-width:1.5;"/>
    </g>
    <g id="line2d_25"/>
    <g id="text_15">
     <!-- R.RAF (40777.0) -->
     <g style="fill:#262626;" transform="translate(77.5 42.518437)scale(0.1 -0.1)">
      <defs>
       <path d="M 44.390625 34.1875 
Q 47.5625 33.109375 50.5625 29.59375 
Q 53.5625 26.078125 56.59375 19.921875 
L 66.609375 0 
L 56 0 
L 46.6875 18.703125 
Q 43.0625 26.03125 39.671875 28.421875 
Q 36.28125 30.8125 30.421875 30.8125 
L 19.671875 30.8125 
L 19.671875 0 
L 9.8125 0 
L 9.8125 72.90625 
L 32.078125 72.90625 
Q 44.578125 72.90625 50.734375 67.671875 
Q 56.890625 62.453125 56.890625 51.90625 
Q 56.890625 45.015625 53.6875 40.46875 
Q 50.484375 35.9375 44.390625 34.1875 
z
M 19.671875 64.796875 
L 19.671875 38.921875 
L 32.078125 38.921875 
Q 39.203125 38.921875 42.84375 42.21875 
Q 46.484375 45.515625 46.484375 51.90625 
Q 46.484375 58.296875 42.84375 61.546875 
Q 39.203125 64.796875 32.078125 64.796875 
z
" id="DejaVuSans-82"/>
       <path d="M 34.1875 63.1875 
L 20.796875 26.90625 
L 47.609375 26.90625 
z
M 28.609375 72.90625 
L 39.796875 72.90625 
L 67.578125 0 
L 57.328125 0 
L 50.6875 18.703125 
L 17.828125 18.703125 
L 11.1875 0 
L 0.78125 0 
z
" id="DejaVuSans-65"/>
       <path d="M 9.8125 72.90625 
L 51.703125 72.90625 
L 51.703125 64.59375 
L 19.671875 64.59375 
L 19.671875 43.109375 
L 48.578125 43.109375 
L 48.578125 34.8125 
L 19.671875 34.8125 
L 19.671875 0 
L 9.8125 0 
z
" id="DejaVuSans-70"/>
       <path id="DejaVuSans-32"/>
       <path d="M 31 75.875 
Q 24.46875 64.65625 21.28125 53.65625 
Q 18.109375 42.671875 18.109375 31.390625 
Q 18.109375 20.125 21.3125 9.0625 
Q 24.515625 -2 31 -13.1875 
L 23.1875 -13.1875 
Q 15.875 -1.703125 12.234375 9.375 
Q 8.59375 20.453125 8.59375 31.390625 
Q 8.59375 42.28125 12.203125 53.3125 
Q 15.828125 64.359375 23.1875 75.875 
z
" id="DejaVuSans-40"/>
       <path d="M 8.203125 72.90625 
L 55.078125 72.90625 
L 55.078125 68.703125 
L 28.609375 0 
L 18.3125 0 
L 43.21875 64.59375 
L 8.203125 64.59375 
z
" id="DejaVuSans-55"/>
       <path d="M 8.015625 75.875 
L 15.828125 75.875 
Q 23.140625 64.359375 26.78125 53.3125 
Q 30.421875 42.28125 30.421875 31.390625 
Q 30.421875 20.453125 26.78125 9.375 
Q 23.140625 -1.703125 15.828125 -13.1875 
L 8.015625 -13.1875 
Q 14.5 -2 17.703125 9.0625 
Q 20.90625 20.125 20.90625 31.390625 
Q 20.90625 42.671875 17.703125 53.65625 
Q 14.5 64.65625 8.015625 75.875 
z
" id="DejaVuSans-41"/>
      </defs>
      <use xlink:href="#DejaVuSans-82"/>
      <use x="65.857422" xlink:href="#DejaVuSans-46"/>
      <use x="97.644531" xlink:href="#DejaVuSans-82"/>
      <use x="163.126953" xlink:href="#DejaVuSans-65"/>
      <use x="231.535156" xlink:href="#DejaVuSans-70"/>
      <use x="289.054688" xlink:href="#DejaVuSans-32"/>
      <use x="320.841797" xlink:href="#DejaVuSans-40"/>
      <use x="359.855469" xlink:href="#DejaVuSans-52"/>
      <use x="423.478516" xlink:href="#DejaVuSans-48"/>
      <use x="487.101562" xlink:href="#DejaVuSans-55"/>
      <use x="550.724609" xlink:href="#DejaVuSans-55"/>
      <use x="614.347656" xlink:href="#DejaVuSans-55"/>
      <use x="677.970703" xlink:href="#DejaVuSans-46"/>
      <use x="709.757812" xlink:href="#DejaVuSans-48"/>
      <use x="773.380859" xlink:href="#DejaVuSans-41"/>
     </g>
    </g>
    <g id="line2d_26">
     <path d="M 49.5 53.696562 
L 69.5 53.696562 
" style="fill:none;stroke:#ff7f0e;stroke-dasharray:5.55,2.4;stroke-dashoffset:0;stroke-width:1.5;"/>
    </g>
    <g id="line2d_27"/>
    <g id="text_16">
     <!-- Adjusted dSiLU (25002.5) -->
     <g style="fill:#262626;" transform="translate(77.5 57.196562)scale(0.1 -0.1)">
      <defs>
       <path d="M 45.40625 46.390625 
L 45.40625 75.984375 
L 54.390625 75.984375 
L 54.390625 0 
L 45.40625 0 
L 45.40625 8.203125 
Q 42.578125 3.328125 38.25 0.953125 
Q 33.9375 -1.421875 27.875 -1.421875 
Q 17.96875 -1.421875 11.734375 6.484375 
Q 5.515625 14.40625 5.515625 27.296875 
Q 5.515625 40.1875 11.734375 48.09375 
Q 17.96875 56 27.875 56 
Q 33.9375 56 38.25 53.625 
Q 42.578125 51.265625 45.40625 46.390625 
z
M 14.796875 27.296875 
Q 14.796875 17.390625 18.875 11.75 
Q 22.953125 6.109375 30.078125 6.109375 
Q 37.203125 6.109375 41.296875 11.75 
Q 45.40625 17.390625 45.40625 27.296875 
Q 45.40625 37.203125 41.296875 42.84375 
Q 37.203125 48.484375 30.078125 48.484375 
Q 22.953125 48.484375 18.875 42.84375 
Q 14.796875 37.203125 14.796875 27.296875 
z
" id="DejaVuSans-100"/>
       <path d="M 9.421875 54.6875 
L 18.40625 54.6875 
L 18.40625 -0.984375 
Q 18.40625 -11.421875 14.421875 -16.109375 
Q 10.453125 -20.796875 1.609375 -20.796875 
L -1.8125 -20.796875 
L -1.8125 -13.1875 
L 0.59375 -13.1875 
Q 5.71875 -13.1875 7.5625 -10.8125 
Q 9.421875 -8.453125 9.421875 -0.984375 
z
M 9.421875 75.984375 
L 18.40625 75.984375 
L 18.40625 64.59375 
L 9.421875 64.59375 
z
" id="DejaVuSans-106"/>
       <path d="M 8.5 21.578125 
L 8.5 54.6875 
L 17.484375 54.6875 
L 17.484375 21.921875 
Q 17.484375 14.15625 20.5 10.265625 
Q 23.53125 6.390625 29.59375 6.390625 
Q 36.859375 6.390625 41.078125 11.03125 
Q 45.3125 15.671875 45.3125 23.6875 
L 45.3125 54.6875 
L 54.296875 54.6875 
L 54.296875 0 
L 45.3125 0 
L 45.3125 8.40625 
Q 42.046875 3.421875 37.71875 1 
Q 33.40625 -1.421875 27.6875 -1.421875 
Q 18.265625 -1.421875 13.375 4.4375 
Q 8.5 10.296875 8.5 21.578125 
z
M 31.109375 56 
z
" id="DejaVuSans-117"/>
       <path d="M 44.28125 53.078125 
L 44.28125 44.578125 
Q 40.484375 46.53125 36.375 47.5 
Q 32.28125 48.484375 27.875 48.484375 
Q 21.1875 48.484375 17.84375 46.4375 
Q 14.5 44.390625 14.5 40.28125 
Q 14.5 37.15625 16.890625 35.375 
Q 19.28125 33.59375 26.515625 31.984375 
L 29.59375 31.296875 
Q 39.15625 29.25 43.1875 25.515625 
Q 47.21875 21.78125 47.21875 15.09375 
Q 47.21875 7.46875 41.1875 3.015625 
Q 35.15625 -1.421875 24.609375 -1.421875 
Q 20.21875 -1.421875 15.453125 -0.5625 
Q 10.6875 0.296875 5.421875 2 
L 5.421875 11.28125 
Q 10.40625 8.6875 15.234375 7.390625 
Q 20.0625 6.109375 24.8125 6.109375 
Q 31.15625 6.109375 34.5625 8.28125 
Q 37.984375 10.453125 37.984375 14.40625 
Q 37.984375 18.0625 35.515625 20.015625 
Q 33.0625 21.96875 24.703125 23.78125 
L 21.578125 24.515625 
Q 13.234375 26.265625 9.515625 29.90625 
Q 5.8125 33.546875 5.8125 39.890625 
Q 5.8125 47.609375 11.28125 51.796875 
Q 16.75 56 26.8125 56 
Q 31.78125 56 36.171875 55.265625 
Q 40.578125 54.546875 44.28125 53.078125 
z
" id="DejaVuSans-115"/>
       <path d="M 18.3125 70.21875 
L 18.3125 54.6875 
L 36.8125 54.6875 
L 36.8125 47.703125 
L 18.3125 47.703125 
L 18.3125 18.015625 
Q 18.3125 11.328125 20.140625 9.421875 
Q 21.96875 7.515625 27.59375 7.515625 
L 36.8125 7.515625 
L 36.8125 0 
L 27.59375 0 
Q 17.1875 0 13.234375 3.875 
Q 9.28125 7.765625 9.28125 18.015625 
L 9.28125 47.703125 
L 2.6875 47.703125 
L 2.6875 54.6875 
L 9.28125 54.6875 
L 9.28125 70.21875 
z
" id="DejaVuSans-116"/>
       <path d="M 56.203125 29.59375 
L 56.203125 25.203125 
L 14.890625 25.203125 
Q 15.484375 15.921875 20.484375 11.0625 
Q 25.484375 6.203125 34.421875 6.203125 
Q 39.59375 6.203125 44.453125 7.46875 
Q 49.3125 8.734375 54.109375 11.28125 
L 54.109375 2.78125 
Q 49.265625 0.734375 44.1875 -0.34375 
Q 39.109375 -1.421875 33.890625 -1.421875 
Q 20.796875 -1.421875 13.15625 6.1875 
Q 5.515625 13.8125 5.515625 26.8125 
Q 5.515625 40.234375 12.765625 48.109375 
Q 20.015625 56 32.328125 56 
Q 43.359375 56 49.78125 48.890625 
Q 56.203125 41.796875 56.203125 29.59375 
z
M 47.21875 32.234375 
Q 47.125 39.59375 43.09375 43.984375 
Q 39.0625 48.390625 32.421875 48.390625 
Q 24.90625 48.390625 20.390625 44.140625 
Q 15.875 39.890625 15.1875 32.171875 
z
" id="DejaVuSans-101"/>
       <path d="M 53.515625 70.515625 
L 53.515625 60.890625 
Q 47.90625 63.578125 42.921875 64.890625 
Q 37.9375 66.21875 33.296875 66.21875 
Q 25.25 66.21875 20.875 63.09375 
Q 16.5 59.96875 16.5 54.203125 
Q 16.5 49.359375 19.40625 46.890625 
Q 22.3125 44.4375 30.421875 42.921875 
L 36.375 41.703125 
Q 47.40625 39.59375 52.65625 34.296875 
Q 57.90625 29 57.90625 20.125 
Q 57.90625 9.515625 50.796875 4.046875 
Q 43.703125 -1.421875 29.984375 -1.421875 
Q 24.8125 -1.421875 18.96875 -0.25 
Q 13.140625 0.921875 6.890625 3.21875 
L 6.890625 13.375 
Q 12.890625 10.015625 18.65625 8.296875 
Q 24.421875 6.59375 29.984375 6.59375 
Q 38.421875 6.59375 43.015625 9.90625 
Q 47.609375 13.234375 47.609375 19.390625 
Q 47.609375 24.75 44.3125 27.78125 
Q 41.015625 30.8125 33.5 32.328125 
L 27.484375 33.5 
Q 16.453125 35.6875 11.515625 40.375 
Q 6.59375 45.0625 6.59375 53.421875 
Q 6.59375 63.09375 13.40625 68.65625 
Q 20.21875 74.21875 32.171875 74.21875 
Q 37.3125 74.21875 42.625 73.28125 
Q 47.953125 72.359375 53.515625 70.515625 
z
" id="DejaVuSans-83"/>
       <path d="M 9.421875 54.6875 
L 18.40625 54.6875 
L 18.40625 0 
L 9.421875 0 
z
M 9.421875 75.984375 
L 18.40625 75.984375 
L 18.40625 64.59375 
L 9.421875 64.59375 
z
" id="DejaVuSans-105"/>
       <path d="M 9.8125 72.90625 
L 19.671875 72.90625 
L 19.671875 8.296875 
L 55.171875 8.296875 
L 55.171875 0 
L 9.8125 0 
z
" id="DejaVuSans-76"/>
       <path d="M 8.6875 72.90625 
L 18.609375 72.90625 
L 18.609375 28.609375 
Q 18.609375 16.890625 22.84375 11.734375 
Q 27.09375 6.59375 36.625 6.59375 
Q 46.09375 6.59375 50.34375 11.734375 
Q 54.59375 16.890625 54.59375 28.609375 
L 54.59375 72.90625 
L 64.5 72.90625 
L 64.5 27.390625 
Q 64.5 13.140625 57.4375 5.859375 
Q 50.390625 -1.421875 36.625 -1.421875 
Q 22.796875 -1.421875 15.734375 5.859375 
Q 8.6875 13.140625 8.6875 27.390625 
z
" id="DejaVuSans-85"/>
      </defs>
      <use xlink:href="#DejaVuSans-65"/>
      <use x="66.658203" xlink:href="#DejaVuSans-100"/>
      <use x="130.134766" xlink:href="#DejaVuSans-106"/>
      <use x="157.917969" xlink:href="#DejaVuSans-117"/>
      <use x="221.296875" xlink:href="#DejaVuSans-115"/>
      <use x="273.396484" xlink:href="#DejaVuSans-116"/>
      <use x="312.605469" xlink:href="#DejaVuSans-101"/>
      <use x="374.128906" xlink:href="#DejaVuSans-100"/>
      <use x="437.605469" xlink:href="#DejaVuSans-32"/>
      <use x="469.392578" xlink:href="#DejaVuSans-100"/>
      <use x="532.869141" xlink:href="#DejaVuSans-83"/>
      <use x="596.345703" xlink:href="#DejaVuSans-105"/>
      <use x="624.128906" xlink:href="#DejaVuSans-76"/>
      <use x="674.841797" xlink:href="#DejaVuSans-85"/>
      <use x="748.035156" xlink:href="#DejaVuSans-32"/>
      <use x="779.822266" xlink:href="#DejaVuSans-40"/>
      <use x="818.835938" xlink:href="#DejaVuSans-50"/>
      <use x="882.458984" xlink:href="#DejaVuSans-53"/>
      <use x="946.082031" xlink:href="#DejaVuSans-48"/>
      <use x="1009.705078" xlink:href="#DejaVuSans-48"/>
      <use x="1073.328125" xlink:href="#DejaVuSans-50"/>
      <use x="1136.951172" xlink:href="#DejaVuSans-46"/>
      <use x="1168.738281" xlink:href="#DejaVuSans-53"/>
      <use x="1232.361328" xlink:href="#DejaVuSans-41"/>
     </g>
    </g>
   </g>
  </g>
  <g id="axes_2">
   <g id="matplotlib.axis_3"/>
   <g id="patch_8">
    <path clip-path="url(#pf3606d4eda)" d="M 51.913636 192.24 
L 53.769512 192.24 
L 53.769512 188.946796 
L 51.913636 188.946796 
z
" style="fill:#808080;fill-opacity:0.6;stroke:#808080;stroke-linejoin:miter;stroke-opacity:0.6;"/>
   </g>
   <g id="patch_9">
    <path clip-path="url(#pf3606d4eda)" d="M 53.769512 192.24 
L 55.625388 192.24 
L 55.625388 191.055149 
L 53.769512 191.055149 
z
" style="fill:#808080;fill-opacity:0.6;stroke:#808080;stroke-linejoin:miter;stroke-opacity:0.6;"/>
   </g>
   <g id="patch_10">
    <path clip-path="url(#pf3606d4eda)" d="M 55.625388 192.24 
L 57.481264 192.24 
L 57.481264 190.67552 
L 55.625388 190.67552 
z
" style="fill:#808080;fill-opacity:0.6;stroke:#808080;stroke-linejoin:miter;stroke-opacity:0.6;"/>
   </g>
   <g id="patch_11">
    <path clip-path="url(#pf3606d4eda)" d="M 57.481264 192.24 
L 59.33714 192.24 
L 59.33714 189.987321 
L 57.481264 189.987321 
z
" style="fill:#808080;fill-opacity:0.6;stroke:#808080;stroke-linejoin:miter;stroke-opacity:0.6;"/>
   </g>
   <g id="patch_12">
    <path clip-path="url(#pf3606d4eda)" d="M 59.33714 192.24 
L 61.193016 192.24 
L 61.193016 190.295772 
L 59.33714 190.295772 
z
" style="fill:#808080;fill-opacity:0.6;stroke:#808080;stroke-linejoin:miter;stroke-opacity:0.6;"/>
   </g>
   <g id="patch_13">
    <path clip-path="url(#pf3606d4eda)" d="M 61.193016 192.24 
L 63.048891 192.24 
L 63.048891 190.405839 
L 61.193016 190.405839 
z
" style="fill:#808080;fill-opacity:0.6;stroke:#808080;stroke-linejoin:miter;stroke-opacity:0.6;"/>
   </g>
   <g id="patch_14">
    <path clip-path="url(#pf3606d4eda)" d="M 63.048891 192.24 
L 64.904767 192.24 
L 64.904767 188.382528 
L 63.048891 188.382528 
z
" style="fill:#808080;fill-opacity:0.6;stroke:#808080;stroke-linejoin:miter;stroke-opacity:0.6;"/>
   </g>
   <g id="patch_15">
    <path clip-path="url(#pf3606d4eda)" d="M 64.904767 192.24 
L 66.760643 192.24 
L 66.760643 190.173907 
L 64.904767 190.173907 
z
" style="fill:#808080;fill-opacity:0.6;stroke:#808080;stroke-linejoin:miter;stroke-opacity:0.6;"/>
   </g>
   <g id="patch_16">
    <path clip-path="url(#pf3606d4eda)" d="M 66.760643 192.24 
L 68.616519 192.24 
L 68.616519 189.85064 
L 66.760643 189.85064 
z
" style="fill:#808080;fill-opacity:0.6;stroke:#808080;stroke-linejoin:miter;stroke-opacity:0.6;"/>
   </g>
   <g id="patch_17">
    <path clip-path="url(#pf3606d4eda)" d="M 68.616519 192.24 
L 70.472395 192.24 
L 70.472395 190.798953 
L 68.616519 190.798953 
z
" style="fill:#808080;fill-opacity:0.6;stroke:#808080;stroke-linejoin:miter;stroke-opacity:0.6;"/>
   </g>
   <g id="patch_18">
    <path clip-path="url(#pf3606d4eda)" d="M 70.472395 192.24 
L 72.328271 192.24 
L 72.328271 190.973692 
L 70.472395 190.973692 
z
" style="fill:#808080;fill-opacity:0.6;stroke:#808080;stroke-linejoin:miter;stroke-opacity:0.6;"/>
   </g>
   <g id="patch_19">
    <path clip-path="url(#pf3606d4eda)" d="M 72.328271 192.24 
L 74.184146 192.24 
L 74.184146 190.881313 
L 72.328271 190.881313 
z
" style="fill:#808080;fill-opacity:0.6;stroke:#808080;stroke-linejoin:miter;stroke-opacity:0.6;"/>
   </g>
   <g id="patch_20">
    <path clip-path="url(#pf3606d4eda)" d="M 74.184146 192.24 
L 76.040022 192.24 
L 76.040022 190.520606 
L 74.184146 190.520606 
z
" style="fill:#808080;fill-opacity:0.6;stroke:#808080;stroke-linejoin:miter;stroke-opacity:0.6;"/>
   </g>
   <g id="patch_21">
    <path clip-path="url(#pf3606d4eda)" d="M 76.040022 192.24 
L 77.895898 192.24 
L 77.895898 190.752111 
L 76.040022 190.752111 
z
" style="fill:#808080;fill-opacity:0.6;stroke:#808080;stroke-linejoin:miter;stroke-opacity:0.6;"/>
   </g>
   <g id="patch_22">
    <path clip-path="url(#pf3606d4eda)" d="M 77.895898 192.24 
L 79.751774 192.24 
L 79.751774 189.669325 
L 77.895898 189.669325 
z
" style="fill:#808080;fill-opacity:0.6;stroke:#808080;stroke-linejoin:miter;stroke-opacity:0.6;"/>
   </g>
   <g id="patch_23">
    <path clip-path="url(#pf3606d4eda)" d="M 79.751774 192.24 
L 81.60765 192.24 
L 81.60765 189.649002 
L 79.751774 189.649002 
z
" style="fill:#808080;fill-opacity:0.6;stroke:#808080;stroke-linejoin:miter;stroke-opacity:0.6;"/>
   </g>
   <g id="patch_24">
    <path clip-path="url(#pf3606d4eda)" d="M 81.60765 192.24 
L 83.463525 192.24 
L 83.463525 189.74518 
L 81.60765 189.74518 
z
" style="fill:#808080;fill-opacity:0.6;stroke:#808080;stroke-linejoin:miter;stroke-opacity:0.6;"/>
   </g>
   <g id="patch_25">
    <path clip-path="url(#pf3606d4eda)" d="M 83.463525 192.24 
L 85.319401 192.24 
L 85.319401 190.222055 
L 83.463525 190.222055 
z
" style="fill:#808080;fill-opacity:0.6;stroke:#808080;stroke-linejoin:miter;stroke-opacity:0.6;"/>
   </g>
   <g id="patch_26">
    <path clip-path="url(#pf3606d4eda)" d="M 85.319401 192.24 
L 87.175277 192.24 
L 87.175277 191.031645 
L 85.319401 191.031645 
z
" style="fill:#808080;fill-opacity:0.6;stroke:#808080;stroke-linejoin:miter;stroke-opacity:0.6;"/>
   </g>
   <g id="patch_27">
    <path clip-path="url(#pf3606d4eda)" d="M 87.175277 192.24 
L 89.031153 192.24 
L 89.031153 190.007976 
L 87.175277 190.007976 
z
" style="fill:#808080;fill-opacity:0.6;stroke:#808080;stroke-linejoin:miter;stroke-opacity:0.6;"/>
   </g>
   <g id="patch_28">
    <path clip-path="url(#pf3606d4eda)" d="M 89.031153 192.24 
L 90.887029 192.24 
L 90.887029 190.497648 
L 89.031153 190.497648 
z
" style="fill:#808080;fill-opacity:0.6;stroke:#808080;stroke-linejoin:miter;stroke-opacity:0.6;"/>
   </g>
   <g id="patch_29">
    <path clip-path="url(#pf3606d4eda)" d="M 90.887029 192.24 
L 92.742905 192.24 
L 92.742905 190.545416 
L 90.887029 190.545416 
z
" style="fill:#808080;fill-opacity:0.6;stroke:#808080;stroke-linejoin:miter;stroke-opacity:0.6;"/>
   </g>
   <g id="patch_30">
    <path clip-path="url(#pf3606d4eda)" d="M 92.742905 192.24 
L 94.59878 192.24 
L 94.59878 190.752728 
L 92.742905 190.752728 
z
" style="fill:#808080;fill-opacity:0.6;stroke:#808080;stroke-linejoin:miter;stroke-opacity:0.6;"/>
   </g>
   <g id="patch_31">
    <path clip-path="url(#pf3606d4eda)" d="M 94.59878 192.24 
L 96.454656 192.24 
L 96.454656 190.429652 
L 94.59878 190.429652 
z
" style="fill:#808080;fill-opacity:0.6;stroke:#808080;stroke-linejoin:miter;stroke-opacity:0.6;"/>
   </g>
   <g id="patch_32">
    <path clip-path="url(#pf3606d4eda)" d="M 96.454656 192.24 
L 98.310532 192.24 
L 98.310532 188.843899 
L 96.454656 188.843899 
z
" style="fill:#808080;fill-opacity:0.6;stroke:#808080;stroke-linejoin:miter;stroke-opacity:0.6;"/>
   </g>
   <g id="patch_33">
    <path clip-path="url(#pf3606d4eda)" d="M 98.310532 192.24 
L 100.166408 192.24 
L 100.166408 190.518137 
L 98.310532 190.518137 
z
" style="fill:#808080;fill-opacity:0.6;stroke:#808080;stroke-linejoin:miter;stroke-opacity:0.6;"/>
   </g>
   <g id="patch_34">
    <path clip-path="url(#pf3606d4eda)" d="M 100.166408 192.24 
L 102.022284 192.24 
L 102.022284 190.591807 
L 100.166408 190.591807 
z
" style="fill:#808080;fill-opacity:0.6;stroke:#808080;stroke-linejoin:miter;stroke-opacity:0.6;"/>
   </g>
   <g id="patch_35">
    <path clip-path="url(#pf3606d4eda)" d="M 102.022284 192.24 
L 103.87816 192.24 
L 103.87816 189.862606 
L 102.022284 189.862606 
z
" style="fill:#808080;fill-opacity:0.6;stroke:#808080;stroke-linejoin:miter;stroke-opacity:0.6;"/>
   </g>
   <g id="patch_36">
    <path clip-path="url(#pf3606d4eda)" d="M 103.87816 192.24 
L 105.734035 192.24 
L 105.734035 188.918163 
L 103.87816 188.918163 
z
" style="fill:#808080;fill-opacity:0.6;stroke:#808080;stroke-linejoin:miter;stroke-opacity:0.6;"/>
   </g>
   <g id="patch_37">
    <path clip-path="url(#pf3606d4eda)" d="M 105.734035 192.24 
L 107.589911 192.24 
L 107.589911 189.819681 
L 105.734035 189.819681 
z
" style="fill:#808080;fill-opacity:0.6;stroke:#808080;stroke-linejoin:miter;stroke-opacity:0.6;"/>
   </g>
   <g id="patch_38">
    <path clip-path="url(#pf3606d4eda)" d="M 107.589911 192.24 
L 109.445787 192.24 
L 109.445787 189.311372 
L 107.589911 189.311372 
z
" style="fill:#808080;fill-opacity:0.6;stroke:#808080;stroke-linejoin:miter;stroke-opacity:0.6;"/>
   </g>
   <g id="patch_39">
    <path clip-path="url(#pf3606d4eda)" d="M 109.445787 192.24 
L 111.301663 192.24 
L 111.301663 190.240644 
L 109.445787 190.240644 
z
" style="fill:#808080;fill-opacity:0.6;stroke:#808080;stroke-linejoin:miter;stroke-opacity:0.6;"/>
   </g>
   <g id="patch_40">
    <path clip-path="url(#pf3606d4eda)" d="M 111.301663 192.24 
L 113.157539 192.24 
L 113.157539 189.289767 
L 111.301663 189.289767 
z
" style="fill:#808080;fill-opacity:0.6;stroke:#808080;stroke-linejoin:miter;stroke-opacity:0.6;"/>
   </g>
   <g id="patch_41">
    <path clip-path="url(#pf3606d4eda)" d="M 113.157539 192.24 
L 115.013415 192.24 
L 115.013415 190.464979 
L 113.157539 190.464979 
z
" style="fill:#808080;fill-opacity:0.6;stroke:#808080;stroke-linejoin:miter;stroke-opacity:0.6;"/>
   </g>
   <g id="patch_42">
    <path clip-path="url(#pf3606d4eda)" d="M 115.013415 192.24 
L 116.86929 192.24 
L 116.86929 189.570133 
L 115.013415 189.570133 
z
" style="fill:#808080;fill-opacity:0.6;stroke:#808080;stroke-linejoin:miter;stroke-opacity:0.6;"/>
   </g>
   <g id="patch_43">
    <path clip-path="url(#pf3606d4eda)" d="M 116.86929 192.24 
L 118.725166 192.24 
L 118.725166 189.607122 
L 116.86929 189.607122 
z
" style="fill:#808080;fill-opacity:0.6;stroke:#808080;stroke-linejoin:miter;stroke-opacity:0.6;"/>
   </g>
   <g id="patch_44">
    <path clip-path="url(#pf3606d4eda)" d="M 118.725166 192.24 
L 120.581042 192.24 
L 120.581042 189.090433 
L 118.725166 189.090433 
z
" style="fill:#808080;fill-opacity:0.6;stroke:#808080;stroke-linejoin:miter;stroke-opacity:0.6;"/>
   </g>
   <g id="patch_45">
    <path clip-path="url(#pf3606d4eda)" d="M 120.581042 192.24 
L 122.436918 192.24 
L 122.436918 188.678111 
L 120.581042 188.678111 
z
" style="fill:#808080;fill-opacity:0.6;stroke:#808080;stroke-linejoin:miter;stroke-opacity:0.6;"/>
   </g>
   <g id="patch_46">
    <path clip-path="url(#pf3606d4eda)" d="M 122.436918 192.24 
L 124.292794 192.24 
L 124.292794 189.676353 
L 122.436918 189.676353 
z
" style="fill:#808080;fill-opacity:0.6;stroke:#808080;stroke-linejoin:miter;stroke-opacity:0.6;"/>
   </g>
   <g id="patch_47">
    <path clip-path="url(#pf3606d4eda)" d="M 124.292794 192.24 
L 126.14867 192.24 
L 126.14867 188.792024 
L 124.292794 188.792024 
z
" style="fill:#808080;fill-opacity:0.6;stroke:#808080;stroke-linejoin:miter;stroke-opacity:0.6;"/>
   </g>
   <g id="patch_48">
    <path clip-path="url(#pf3606d4eda)" d="M 126.14867 192.24 
L 128.004545 192.24 
L 128.004545 188.840765 
L 126.14867 188.840765 
z
" style="fill:#808080;fill-opacity:0.6;stroke:#808080;stroke-linejoin:miter;stroke-opacity:0.6;"/>
   </g>
   <g id="patch_49">
    <path clip-path="url(#pf3606d4eda)" d="M 128.004545 192.24 
L 129.860421 192.24 
L 129.860421 189.685232 
L 128.004545 189.685232 
z
" style="fill:#808080;fill-opacity:0.6;stroke:#808080;stroke-linejoin:miter;stroke-opacity:0.6;"/>
   </g>
   <g id="patch_50">
    <path clip-path="url(#pf3606d4eda)" d="M 129.860421 192.24 
L 131.716297 192.24 
L 131.716297 188.469873 
L 129.860421 188.469873 
z
" style="fill:#808080;fill-opacity:0.6;stroke:#808080;stroke-linejoin:miter;stroke-opacity:0.6;"/>
   </g>
   <g id="patch_51">
    <path clip-path="url(#pf3606d4eda)" d="M 131.716297 192.24 
L 133.572173 192.24 
L 133.572173 189.261705 
L 131.716297 189.261705 
z
" style="fill:#808080;fill-opacity:0.6;stroke:#808080;stroke-linejoin:miter;stroke-opacity:0.6;"/>
   </g>
   <g id="patch_52">
    <path clip-path="url(#pf3606d4eda)" d="M 133.572173 192.24 
L 135.428049 192.24 
L 135.428049 188.826544 
L 133.572173 188.826544 
z
" style="fill:#808080;fill-opacity:0.6;stroke:#808080;stroke-linejoin:miter;stroke-opacity:0.6;"/>
   </g>
   <g id="patch_53">
    <path clip-path="url(#pf3606d4eda)" d="M 135.428049 192.24 
L 137.283925 192.24 
L 137.283925 188.728349 
L 135.428049 188.728349 
z
" style="fill:#808080;fill-opacity:0.6;stroke:#808080;stroke-linejoin:miter;stroke-opacity:0.6;"/>
   </g>
   <g id="patch_54">
    <path clip-path="url(#pf3606d4eda)" d="M 137.283925 192.24 
L 139.1398 192.24 
L 139.1398 188.37569 
L 137.283925 188.37569 
z
" style="fill:#808080;fill-opacity:0.6;stroke:#808080;stroke-linejoin:miter;stroke-opacity:0.6;"/>
   </g>
   <g id="patch_55">
    <path clip-path="url(#pf3606d4eda)" d="M 139.1398 192.24 
L 140.995676 192.24 
L 140.995676 187.983834 
L 139.1398 187.983834 
z
" style="fill:#808080;fill-opacity:0.6;stroke:#808080;stroke-linejoin:miter;stroke-opacity:0.6;"/>
   </g>
   <g id="patch_56">
    <path clip-path="url(#pf3606d4eda)" d="M 140.995676 192.24 
L 142.851552 192.24 
L 142.851552 187.630131 
L 140.995676 187.630131 
z
" style="fill:#808080;fill-opacity:0.6;stroke:#808080;stroke-linejoin:miter;stroke-opacity:0.6;"/>
   </g>
   <g id="patch_57">
    <path clip-path="url(#pf3606d4eda)" d="M 142.851552 192.24 
L 144.707428 192.24 
L 144.707428 189.228467 
L 142.851552 189.228467 
z
" style="fill:#808080;fill-opacity:0.6;stroke:#808080;stroke-linejoin:miter;stroke-opacity:0.6;"/>
   </g>
   <g id="patch_58">
    <path clip-path="url(#pf3606d4eda)" d="M 144.707428 192.24 
L 146.563304 192.24 
L 146.563304 189.003752 
L 144.707428 189.003752 
z
" style="fill:#808080;fill-opacity:0.6;stroke:#808080;stroke-linejoin:miter;stroke-opacity:0.6;"/>
   </g>
   <g id="patch_59">
    <path clip-path="url(#pf3606d4eda)" d="M 146.563304 192.24 
L 148.41918 192.24 
L 148.41918 188.526711 
L 146.563304 188.526711 
z
" style="fill:#808080;fill-opacity:0.6;stroke:#808080;stroke-linejoin:miter;stroke-opacity:0.6;"/>
   </g>
   <g id="patch_60">
    <path clip-path="url(#pf3606d4eda)" d="M 148.41918 192.24 
L 150.275055 192.24 
L 150.275055 187.487871 
L 148.41918 187.487871 
z
" style="fill:#808080;fill-opacity:0.6;stroke:#808080;stroke-linejoin:miter;stroke-opacity:0.6;"/>
   </g>
   <g id="patch_61">
    <path clip-path="url(#pf3606d4eda)" d="M 150.275055 192.24 
L 152.130931 192.24 
L 152.130931 187.215008 
L 150.275055 187.215008 
z
" style="fill:#808080;fill-opacity:0.6;stroke:#808080;stroke-linejoin:miter;stroke-opacity:0.6;"/>
   </g>
   <g id="patch_62">
    <path clip-path="url(#pf3606d4eda)" d="M 152.130931 192.24 
L 153.986807 192.24 
L 153.986807 188.110923 
L 152.130931 188.110923 
z
" style="fill:#808080;fill-opacity:0.6;stroke:#808080;stroke-linejoin:miter;stroke-opacity:0.6;"/>
   </g>
   <g id="patch_63">
    <path clip-path="url(#pf3606d4eda)" d="M 153.986807 192.24 
L 155.842683 192.24 
L 155.842683 187.435521 
L 153.986807 187.435521 
z
" style="fill:#808080;fill-opacity:0.6;stroke:#808080;stroke-linejoin:miter;stroke-opacity:0.6;"/>
   </g>
   <g id="patch_64">
    <path clip-path="url(#pf3606d4eda)" d="M 155.842683 192.24 
L 157.698559 192.24 
L 157.698559 186.880251 
L 155.842683 186.880251 
z
" style="fill:#808080;fill-opacity:0.6;stroke:#808080;stroke-linejoin:miter;stroke-opacity:0.6;"/>
   </g>
   <g id="patch_65">
    <path clip-path="url(#pf3606d4eda)" d="M 157.698559 192.24 
L 159.554435 192.24 
L 159.554435 187.662087 
L 157.698559 187.662087 
z
" style="fill:#808080;fill-opacity:0.6;stroke:#808080;stroke-linejoin:miter;stroke-opacity:0.6;"/>
   </g>
   <g id="patch_66">
    <path clip-path="url(#pf3606d4eda)" d="M 159.554435 192.24 
L 161.41031 192.24 
L 161.41031 187.960829 
L 159.554435 187.960829 
z
" style="fill:#808080;fill-opacity:0.6;stroke:#808080;stroke-linejoin:miter;stroke-opacity:0.6;"/>
   </g>
   <g id="patch_67">
    <path clip-path="url(#pf3606d4eda)" d="M 161.41031 192.24 
L 163.266186 192.24 
L 163.266186 186.218025 
L 161.41031 186.218025 
z
" style="fill:#808080;fill-opacity:0.6;stroke:#808080;stroke-linejoin:miter;stroke-opacity:0.6;"/>
   </g>
   <g id="patch_68">
    <path clip-path="url(#pf3606d4eda)" d="M 163.266186 192.24 
L 165.122062 192.24 
L 165.122062 185.599555 
L 163.266186 185.599555 
z
" style="fill:#808080;fill-opacity:0.6;stroke:#808080;stroke-linejoin:miter;stroke-opacity:0.6;"/>
   </g>
   <g id="patch_69">
    <path clip-path="url(#pf3606d4eda)" d="M 165.122062 192.24 
L 166.977938 192.24 
L 166.977938 186.734216 
L 165.122062 186.734216 
z
" style="fill:#808080;fill-opacity:0.6;stroke:#808080;stroke-linejoin:miter;stroke-opacity:0.6;"/>
   </g>
   <g id="patch_70">
    <path clip-path="url(#pf3606d4eda)" d="M 166.977938 192.24 
L 168.833814 192.24 
L 168.833814 185.653496 
L 166.977938 185.653496 
z
" style="fill:#808080;fill-opacity:0.6;stroke:#808080;stroke-linejoin:miter;stroke-opacity:0.6;"/>
   </g>
   <g id="patch_71">
    <path clip-path="url(#pf3606d4eda)" d="M 168.833814 192.24 
L 170.68969 192.24 
L 170.68969 187.885045 
L 168.833814 187.885045 
z
" style="fill:#808080;fill-opacity:0.6;stroke:#808080;stroke-linejoin:miter;stroke-opacity:0.6;"/>
   </g>
   <g id="patch_72">
    <path clip-path="url(#pf3606d4eda)" d="M 170.68969 192.24 
L 172.545565 192.24 
L 172.545565 186.038182 
L 170.68969 186.038182 
z
" style="fill:#808080;fill-opacity:0.6;stroke:#808080;stroke-linejoin:miter;stroke-opacity:0.6;"/>
   </g>
   <g id="patch_73">
    <path clip-path="url(#pf3606d4eda)" d="M 172.545565 192.24 
L 174.401441 192.24 
L 174.401441 186.36736 
L 172.545565 186.36736 
z
" style="fill:#808080;fill-opacity:0.6;stroke:#808080;stroke-linejoin:miter;stroke-opacity:0.6;"/>
   </g>
   <g id="patch_74">
    <path clip-path="url(#pf3606d4eda)" d="M 174.401441 192.24 
L 176.257317 192.24 
L 176.257317 186.446515 
L 174.401441 186.446515 
z
" style="fill:#808080;fill-opacity:0.6;stroke:#808080;stroke-linejoin:miter;stroke-opacity:0.6;"/>
   </g>
   <g id="patch_75">
    <path clip-path="url(#pf3606d4eda)" d="M 176.257317 192.24 
L 178.113193 192.24 
L 178.113193 186.218927 
L 176.257317 186.218927 
z
" style="fill:#808080;fill-opacity:0.6;stroke:#808080;stroke-linejoin:miter;stroke-opacity:0.6;"/>
   </g>
   <g id="patch_76">
    <path clip-path="url(#pf3606d4eda)" d="M 178.113193 192.24 
L 179.969069 192.24 
L 179.969069 185.02534 
L 178.113193 185.02534 
z
" style="fill:#808080;fill-opacity:0.6;stroke:#808080;stroke-linejoin:miter;stroke-opacity:0.6;"/>
   </g>
   <g id="patch_77">
    <path clip-path="url(#pf3606d4eda)" d="M 179.969069 192.24 
L 181.824945 192.24 
L 181.824945 185.583719 
L 179.969069 185.583719 
z
" style="fill:#808080;fill-opacity:0.6;stroke:#808080;stroke-linejoin:miter;stroke-opacity:0.6;"/>
   </g>
   <g id="patch_78">
    <path clip-path="url(#pf3606d4eda)" d="M 181.824945 192.24 
L 183.68082 192.24 
L 183.68082 185.93861 
L 181.824945 185.93861 
z
" style="fill:#808080;fill-opacity:0.6;stroke:#808080;stroke-linejoin:miter;stroke-opacity:0.6;"/>
   </g>
   <g id="patch_79">
    <path clip-path="url(#pf3606d4eda)" d="M 183.68082 192.24 
L 185.536696 192.24 
L 185.536696 183.50236 
L 183.68082 183.50236 
z
" style="fill:#808080;fill-opacity:0.6;stroke:#808080;stroke-linejoin:miter;stroke-opacity:0.6;"/>
   </g>
   <g id="patch_80">
    <path clip-path="url(#pf3606d4eda)" d="M 185.536696 192.24 
L 187.392572 192.24 
L 187.392572 184.158057 
L 185.536696 184.158057 
z
" style="fill:#808080;fill-opacity:0.6;stroke:#808080;stroke-linejoin:miter;stroke-opacity:0.6;"/>
   </g>
   <g id="patch_81">
    <path clip-path="url(#pf3606d4eda)" d="M 187.392572 192.24 
L 189.248448 192.24 
L 189.248448 179.877057 
L 187.392572 179.877057 
z
" style="fill:#808080;fill-opacity:0.6;stroke:#808080;stroke-linejoin:miter;stroke-opacity:0.6;"/>
   </g>
   <g id="patch_82">
    <path clip-path="url(#pf3606d4eda)" d="M 189.248448 192.24 
L 191.104324 192.24 
L 191.104324 181.064923 
L 189.248448 181.064923 
z
" style="fill:#808080;fill-opacity:0.6;stroke:#808080;stroke-linejoin:miter;stroke-opacity:0.6;"/>
   </g>
   <g id="patch_83">
    <path clip-path="url(#pf3606d4eda)" d="M 191.104324 192.24 
L 192.9602 192.24 
L 192.9602 185.183127 
L 191.104324 185.183127 
z
" style="fill:#808080;fill-opacity:0.6;stroke:#808080;stroke-linejoin:miter;stroke-opacity:0.6;"/>
   </g>
   <g id="patch_84">
    <path clip-path="url(#pf3606d4eda)" d="M 192.9602 192.24 
L 194.816075 192.24 
L 194.816075 178.940782 
L 192.9602 178.940782 
z
" style="fill:#808080;fill-opacity:0.6;stroke:#808080;stroke-linejoin:miter;stroke-opacity:0.6;"/>
   </g>
   <g id="patch_85">
    <path clip-path="url(#pf3606d4eda)" d="M 194.816075 192.24 
L 196.671951 192.24 
L 196.671951 182.410434 
L 194.816075 182.410434 
z
" style="fill:#808080;fill-opacity:0.6;stroke:#808080;stroke-linejoin:miter;stroke-opacity:0.6;"/>
   </g>
   <g id="patch_86">
    <path clip-path="url(#pf3606d4eda)" d="M 196.671951 192.24 
L 198.527827 192.24 
L 198.527827 178.753341 
L 196.671951 178.753341 
z
" style="fill:#808080;fill-opacity:0.6;stroke:#808080;stroke-linejoin:miter;stroke-opacity:0.6;"/>
   </g>
   <g id="patch_87">
    <path clip-path="url(#pf3606d4eda)" d="M 198.527827 192.24 
L 200.383703 192.24 
L 200.383703 179.512314 
L 198.527827 179.512314 
z
" style="fill:#808080;fill-opacity:0.6;stroke:#808080;stroke-linejoin:miter;stroke-opacity:0.6;"/>
   </g>
   <g id="patch_88">
    <path clip-path="url(#pf3606d4eda)" d="M 200.383703 192.24 
L 202.239579 192.24 
L 202.239579 181.888593 
L 200.383703 181.888593 
z
" style="fill:#808080;fill-opacity:0.6;stroke:#808080;stroke-linejoin:miter;stroke-opacity:0.6;"/>
   </g>
   <g id="patch_89">
    <path clip-path="url(#pf3606d4eda)" d="M 202.239579 192.24 
L 204.095455 192.24 
L 204.095455 177.492351 
L 202.239579 177.492351 
z
" style="fill:#808080;fill-opacity:0.6;stroke:#808080;stroke-linejoin:miter;stroke-opacity:0.6;"/>
   </g>
   <g id="patch_90">
    <path clip-path="url(#pf3606d4eda)" d="M 204.095455 192.24 
L 205.95133 192.24 
L 205.95133 178.739785 
L 204.095455 178.739785 
z
" style="fill:#808080;fill-opacity:0.6;stroke:#808080;stroke-linejoin:miter;stroke-opacity:0.6;"/>
   </g>
   <g id="patch_91">
    <path clip-path="url(#pf3606d4eda)" d="M 205.95133 192.24 
L 207.807206 192.24 
L 207.807206 178.0848 
L 205.95133 178.0848 
z
" style="fill:#808080;fill-opacity:0.6;stroke:#808080;stroke-linejoin:miter;stroke-opacity:0.6;"/>
   </g>
   <g id="patch_92">
    <path clip-path="url(#pf3606d4eda)" d="M 207.807206 192.24 
L 209.663082 192.24 
L 209.663082 179.023877 
L 207.807206 179.023877 
z
" style="fill:#808080;fill-opacity:0.6;stroke:#808080;stroke-linejoin:miter;stroke-opacity:0.6;"/>
   </g>
   <g id="patch_93">
    <path clip-path="url(#pf3606d4eda)" d="M 209.663082 192.24 
L 211.518958 192.24 
L 211.518958 178.258185 
L 209.663082 178.258185 
z
" style="fill:#808080;fill-opacity:0.6;stroke:#808080;stroke-linejoin:miter;stroke-opacity:0.6;"/>
   </g>
   <g id="patch_94">
    <path clip-path="url(#pf3606d4eda)" d="M 211.518958 192.24 
L 213.374834 192.24 
L 213.374834 173.887324 
L 211.518958 173.887324 
z
" style="fill:#808080;fill-opacity:0.6;stroke:#808080;stroke-linejoin:miter;stroke-opacity:0.6;"/>
   </g>
   <g id="patch_95">
    <path clip-path="url(#pf3606d4eda)" d="M 213.374834 192.24 
L 215.23071 192.24 
L 215.23071 174.367024 
L 213.374834 174.367024 
z
" style="fill:#808080;fill-opacity:0.6;stroke:#808080;stroke-linejoin:miter;stroke-opacity:0.6;"/>
   </g>
   <g id="patch_96">
    <path clip-path="url(#pf3606d4eda)" d="M 215.23071 192.24 
L 217.086585 192.24 
L 217.086585 171.257247 
L 215.23071 171.257247 
z
" style="fill:#808080;fill-opacity:0.6;stroke:#808080;stroke-linejoin:miter;stroke-opacity:0.6;"/>
   </g>
   <g id="patch_97">
    <path clip-path="url(#pf3606d4eda)" d="M 217.086585 192.24 
L 218.942461 192.24 
L 218.942461 172.776191 
L 217.086585 172.776191 
z
" style="fill:#808080;fill-opacity:0.6;stroke:#808080;stroke-linejoin:miter;stroke-opacity:0.6;"/>
   </g>
   <g id="patch_98">
    <path clip-path="url(#pf3606d4eda)" d="M 218.942461 192.24 
L 220.798337 192.24 
L 220.798337 167.358013 
L 218.942461 167.358013 
z
" style="fill:#808080;fill-opacity:0.6;stroke:#808080;stroke-linejoin:miter;stroke-opacity:0.6;"/>
   </g>
   <g id="patch_99">
    <path clip-path="url(#pf3606d4eda)" d="M 220.798337 192.24 
L 222.654213 192.24 
L 222.654213 165.157708 
L 220.798337 165.157708 
z
" style="fill:#808080;fill-opacity:0.6;stroke:#808080;stroke-linejoin:miter;stroke-opacity:0.6;"/>
   </g>
   <g id="patch_100">
    <path clip-path="url(#pf3606d4eda)" d="M 222.654213 192.24 
L 224.510089 192.24 
L 224.510089 161.290455 
L 222.654213 161.290455 
z
" style="fill:#808080;fill-opacity:0.6;stroke:#808080;stroke-linejoin:miter;stroke-opacity:0.6;"/>
   </g>
   <g id="patch_101">
    <path clip-path="url(#pf3606d4eda)" d="M 224.510089 192.24 
L 226.365965 192.24 
L 226.365965 147.150497 
L 224.510089 147.150497 
z
" style="fill:#808080;fill-opacity:0.6;stroke:#808080;stroke-linejoin:miter;stroke-opacity:0.6;"/>
   </g>
   <g id="patch_102">
    <path clip-path="url(#pf3606d4eda)" d="M 226.365965 192.24 
L 228.22184 192.24 
L 228.22184 149.125351 
L 226.365965 149.125351 
z
" style="fill:#808080;fill-opacity:0.6;stroke:#808080;stroke-linejoin:miter;stroke-opacity:0.6;"/>
   </g>
   <g id="patch_103">
    <path clip-path="url(#pf3606d4eda)" d="M 228.22184 192.24 
L 230.077716 192.24 
L 230.077716 142.591411 
L 228.22184 142.591411 
z
" style="fill:#808080;fill-opacity:0.6;stroke:#808080;stroke-linejoin:miter;stroke-opacity:0.6;"/>
   </g>
   <g id="patch_104">
    <path clip-path="url(#pf3606d4eda)" d="M 230.077716 192.24 
L 231.933592 192.24 
L 231.933592 134.500162 
L 230.077716 134.500162 
z
" style="fill:#808080;fill-opacity:0.6;stroke:#808080;stroke-linejoin:miter;stroke-opacity:0.6;"/>
   </g>
   <g id="patch_105">
    <path clip-path="url(#pf3606d4eda)" d="M 231.933592 192.24 
L 233.789468 192.24 
L 233.789468 107.123996 
L 231.933592 107.123996 
z
" style="fill:#808080;fill-opacity:0.6;stroke:#808080;stroke-linejoin:miter;stroke-opacity:0.6;"/>
   </g>
   <g id="patch_106">
    <path clip-path="url(#pf3606d4eda)" d="M 233.789468 192.24 
L 235.645344 192.24 
L 235.645344 101.014224 
L 233.789468 101.014224 
z
" style="fill:#808080;fill-opacity:0.6;stroke:#808080;stroke-linejoin:miter;stroke-opacity:0.6;"/>
   </g>
   <g id="patch_107">
    <path clip-path="url(#pf3606d4eda)" d="M 235.645344 192.24 
L 237.50122 192.24 
L 237.50122 113.693311 
L 235.645344 113.693311 
z
" style="fill:#808080;fill-opacity:0.6;stroke:#808080;stroke-linejoin:miter;stroke-opacity:0.6;"/>
   </g>
   <g id="patch_108">
    <path clip-path="url(#pf3606d4eda)" d="M 237.50122 192.24 
L 239.357095 192.24 
L 239.357095 90.197576 
L 237.50122 90.197576 
z
" style="fill:#808080;fill-opacity:0.6;stroke:#808080;stroke-linejoin:miter;stroke-opacity:0.6;"/>
   </g>
   <g id="patch_109">
    <path clip-path="url(#pf3606d4eda)" d="M 239.357095 192.24 
L 241.212971 192.24 
L 241.212971 95.378716 
L 239.357095 95.378716 
z
" style="fill:#808080;fill-opacity:0.6;stroke:#808080;stroke-linejoin:miter;stroke-opacity:0.6;"/>
   </g>
   <g id="patch_110">
    <path clip-path="url(#pf3606d4eda)" d="M 241.212971 192.24 
L 243.068847 192.24 
L 243.068847 85.641078 
L 241.212971 85.641078 
z
" style="fill:#808080;fill-opacity:0.6;stroke:#808080;stroke-linejoin:miter;stroke-opacity:0.6;"/>
   </g>
   <g id="patch_111">
    <path clip-path="url(#pf3606d4eda)" d="M 243.068847 192.24 
L 244.924723 192.24 
L 244.924723 70.508197 
L 243.068847 70.508197 
z
" style="fill:#808080;fill-opacity:0.6;stroke:#808080;stroke-linejoin:miter;stroke-opacity:0.6;"/>
   </g>
   <g id="patch_112">
    <path clip-path="url(#pf3606d4eda)" d="M 244.924723 192.24 
L 246.780599 192.24 
L 246.780599 36.793604 
L 244.924723 36.793604 
z
" style="fill:#808080;fill-opacity:0.6;stroke:#808080;stroke-linejoin:miter;stroke-opacity:0.6;"/>
   </g>
   <g id="patch_113">
    <path clip-path="url(#pf3606d4eda)" d="M 246.780599 192.24 
L 248.636475 192.24 
L 248.636475 44.655604 
L 246.780599 44.655604 
z
" style="fill:#808080;fill-opacity:0.6;stroke:#808080;stroke-linejoin:miter;stroke-opacity:0.6;"/>
   </g>
   <g id="patch_114">
    <path clip-path="url(#pf3606d4eda)" d="M 248.636475 192.24 
L 250.49235 192.24 
L 250.49235 33.84 
L 248.636475 33.84 
z
" style="fill:#808080;fill-opacity:0.6;stroke:#808080;stroke-linejoin:miter;stroke-opacity:0.6;"/>
   </g>
   <g id="patch_115">
    <path clip-path="url(#pf3606d4eda)" d="M 250.49235 192.24 
L 252.348226 192.24 
L 252.348226 73.980129 
L 250.49235 73.980129 
z
" style="fill:#808080;fill-opacity:0.6;stroke:#808080;stroke-linejoin:miter;stroke-opacity:0.6;"/>
   </g>
   <g id="patch_116">
    <path clip-path="url(#pf3606d4eda)" d="M 252.348226 192.24 
L 254.204102 192.24 
L 254.204102 64.512457 
L 252.348226 64.512457 
z
" style="fill:#808080;fill-opacity:0.6;stroke:#808080;stroke-linejoin:miter;stroke-opacity:0.6;"/>
   </g>
   <g id="patch_117">
    <path clip-path="url(#pf3606d4eda)" d="M 254.204102 192.24 
L 256.059978 192.24 
L 256.059978 92.974542 
L 254.204102 92.974542 
z
" style="fill:#808080;fill-opacity:0.6;stroke:#808080;stroke-linejoin:miter;stroke-opacity:0.6;"/>
   </g>
   <g id="patch_118">
    <path clip-path="url(#pf3606d4eda)" d="M 256.059978 192.24 
L 257.915854 192.24 
L 257.915854 146.955982 
L 256.059978 146.955982 
z
" style="fill:#808080;fill-opacity:0.6;stroke:#808080;stroke-linejoin:miter;stroke-opacity:0.6;"/>
   </g>
   <g id="patch_119">
    <path clip-path="url(#pf3606d4eda)" d="M 257.915854 192.24 
L 259.771729 192.24 
L 259.771729 150.14864 
L 257.915854 150.14864 
z
" style="fill:#808080;fill-opacity:0.6;stroke:#808080;stroke-linejoin:miter;stroke-opacity:0.6;"/>
   </g>
   <g id="patch_120">
    <path clip-path="url(#pf3606d4eda)" d="M 259.771729 192.24 
L 261.627605 192.24 
L 261.627605 151.313026 
L 259.771729 151.313026 
z
" style="fill:#808080;fill-opacity:0.6;stroke:#808080;stroke-linejoin:miter;stroke-opacity:0.6;"/>
   </g>
   <g id="patch_121">
    <path clip-path="url(#pf3606d4eda)" d="M 261.627605 192.24 
L 263.483481 192.24 
L 263.483481 181.071334 
L 261.627605 181.071334 
z
" style="fill:#808080;fill-opacity:0.6;stroke:#808080;stroke-linejoin:miter;stroke-opacity:0.6;"/>
   </g>
   <g id="patch_122">
    <path clip-path="url(#pf3606d4eda)" d="M 263.483481 192.24 
L 265.339357 192.24 
L 265.339357 180.795384 
L 263.483481 180.795384 
z
" style="fill:#808080;fill-opacity:0.6;stroke:#808080;stroke-linejoin:miter;stroke-opacity:0.6;"/>
   </g>
   <g id="patch_123">
    <path clip-path="url(#pf3606d4eda)" d="M 265.339357 192.24 
L 267.195233 192.24 
L 267.195233 182.620287 
L 265.339357 182.620287 
z
" style="fill:#808080;fill-opacity:0.6;stroke:#808080;stroke-linejoin:miter;stroke-opacity:0.6;"/>
   </g>
   <g id="patch_124">
    <path clip-path="url(#pf3606d4eda)" d="M 267.195233 192.24 
L 269.051109 192.24 
L 269.051109 185.22268 
L 267.195233 185.22268 
z
" style="fill:#808080;fill-opacity:0.6;stroke:#808080;stroke-linejoin:miter;stroke-opacity:0.6;"/>
   </g>
   <g id="patch_125">
    <path clip-path="url(#pf3606d4eda)" d="M 269.051109 192.24 
L 270.906984 192.24 
L 270.906984 187.600288 
L 269.051109 187.600288 
z
" style="fill:#808080;fill-opacity:0.6;stroke:#808080;stroke-linejoin:miter;stroke-opacity:0.6;"/>
   </g>
   <g id="patch_126">
    <path clip-path="url(#pf3606d4eda)" d="M 270.906984 192.24 
L 272.76286 192.24 
L 272.76286 188.153516 
L 270.906984 188.153516 
z
" style="fill:#808080;fill-opacity:0.6;stroke:#808080;stroke-linejoin:miter;stroke-opacity:0.6;"/>
   </g>
   <g id="patch_127">
    <path clip-path="url(#pf3606d4eda)" d="M 272.76286 192.24 
L 274.618736 192.24 
L 274.618736 189.105675 
L 272.76286 189.105675 
z
" style="fill:#808080;fill-opacity:0.6;stroke:#808080;stroke-linejoin:miter;stroke-opacity:0.6;"/>
   </g>
   <g id="patch_128">
    <path clip-path="url(#pf3606d4eda)" d="M 274.618736 192.24 
L 276.474612 192.24 
L 276.474612 189.558452 
L 274.618736 189.558452 
z
" style="fill:#808080;fill-opacity:0.6;stroke:#808080;stroke-linejoin:miter;stroke-opacity:0.6;"/>
   </g>
   <g id="patch_129">
    <path clip-path="url(#pf3606d4eda)" d="M 276.474612 192.24 
L 278.330488 192.24 
L 278.330488 190.083142 
L 276.474612 190.083142 
z
" style="fill:#808080;fill-opacity:0.6;stroke:#808080;stroke-linejoin:miter;stroke-opacity:0.6;"/>
   </g>
   <g id="patch_130">
    <path clip-path="url(#pf3606d4eda)" d="M 278.330488 192.24 
L 280.186364 192.24 
L 280.186364 189.43065 
L 278.330488 189.43065 
z
" style="fill:#808080;fill-opacity:0.6;stroke:#808080;stroke-linejoin:miter;stroke-opacity:0.6;"/>
   </g>
   <g id="patch_131">
    <path d="M 40.5 192.24 
L 40.5 25.92 
" style="fill:none;stroke:#cccccc;stroke-linecap:square;stroke-linejoin:miter;stroke-width:0.8;"/>
   </g>
   <g id="patch_132">
    <path d="M 291.6 192.24 
L 291.6 25.92 
" style="fill:none;stroke:#cccccc;stroke-linecap:square;stroke-linejoin:miter;stroke-width:0.8;"/>
   </g>
   <g id="patch_133">
    <path d="M 40.5 192.24 
L 291.6 192.24 
" style="fill:none;stroke:#cccccc;stroke-linecap:square;stroke-linejoin:miter;stroke-width:0.8;"/>
   </g>
   <g id="patch_134">
    <path d="M 40.5 25.92 
L 291.6 25.92 
" style="fill:none;stroke:#cccccc;stroke-linecap:square;stroke-linejoin:miter;stroke-width:0.8;"/>
   </g>
  </g>
 </g>
 <defs>
  <clipPath id="pf3606d4eda">
   <rect height="166.32" width="251.1" x="40.5" y="25.92"/>
  </clipPath>
 </defs>
</svg>
