<?xml version="1.0" encoding="utf-8" standalone="no"?>
<!DOCTYPE svg PUBLIC "-//W3C//DTD SVG 1.1//EN"
  "http://www.w3.org/Graphics/SVG/1.1/DTD/svg11.dtd">
<!-- Created with matplotlib (https://matplotlib.org/) -->
<svg height="288pt" version="1.1" viewBox="0 0 432 288" width="432pt" xmlns="http://www.w3.org/2000/svg" xmlns:xlink="http://www.w3.org/1999/xlink">
 <defs>
  <style type="text/css">
*{stroke-linecap:butt;stroke-linejoin:round;}
  </style>
 </defs>
 <g id="figure_1">
  <g id="patch_1">
   <path d="M 0 288 
L 432 288 
L 432 0 
L 0 0 
z
" style="fill:#ffffff;"/>
  </g>
  <g id="axes_1">
   <g id="matplotlib.axis_1"/>
   <g id="patch_2">
    <path clip-path="url(#pc56ad0807b)" d="M 143.626489 256.32 
L 144.374311 256.32 
L 144.374311 242.973371 
L 143.626489 242.973371 
z
" style="fill:#808080;fill-opacity:0.6;stroke:#808080;stroke-linejoin:miter;stroke-opacity:0.6;"/>
   </g>
   <g id="patch_3">
    <path clip-path="url(#pc56ad0807b)" d="M 151.10471 256.32 
L 151.852533 256.32 
L 151.852533 243.049836 
L 151.10471 243.049836 
z
" style="fill:#808080;fill-opacity:0.6;stroke:#808080;stroke-linejoin:miter;stroke-opacity:0.6;"/>
   </g>
   <g id="patch_4">
    <path clip-path="url(#pc56ad0807b)" d="M 162.322043 256.32 
L 163.069865 256.32 
L 163.069865 250.491036 
L 162.322043 250.491036 
z
" style="fill:#808080;fill-opacity:0.6;stroke:#808080;stroke-linejoin:miter;stroke-opacity:0.6;"/>
   </g>
   <g id="patch_5">
    <path clip-path="url(#pc56ad0807b)" d="M 168.30462 256.32 
L 169.052442 256.32 
L 169.052442 250.255706 
L 168.30462 250.255706 
z
" style="fill:#808080;fill-opacity:0.6;stroke:#808080;stroke-linejoin:miter;stroke-opacity:0.6;"/>
   </g>
   <g id="patch_6">
    <path clip-path="url(#pc56ad0807b)" d="M 171.295909 256.32 
L 172.043731 256.32 
L 172.043731 242.863528 
L 171.295909 242.863528 
z
" style="fill:#808080;fill-opacity:0.6;stroke:#808080;stroke-linejoin:miter;stroke-opacity:0.6;"/>
   </g>
   <g id="patch_7">
    <path clip-path="url(#pc56ad0807b)" d="M 184.756707 256.32 
L 185.50453 256.32 
L 185.50453 249.313919 
L 184.756707 249.313919 
z
" style="fill:#808080;fill-opacity:0.6;stroke:#808080;stroke-linejoin:miter;stroke-opacity:0.6;"/>
   </g>
   <g id="patch_8">
    <path clip-path="url(#pc56ad0807b)" d="M 198.217506 256.32 
L 198.965328 256.32 
L 198.965328 250.929891 
L 198.217506 250.929891 
z
" style="fill:#808080;fill-opacity:0.6;stroke:#808080;stroke-linejoin:miter;stroke-opacity:0.6;"/>
   </g>
   <g id="patch_9">
    <path clip-path="url(#pc56ad0807b)" d="M 204.200083 256.32 
L 204.947905 256.32 
L 204.947905 246.991133 
L 204.200083 246.991133 
z
" style="fill:#808080;fill-opacity:0.6;stroke:#808080;stroke-linejoin:miter;stroke-opacity:0.6;"/>
   </g>
   <g id="patch_10">
    <path clip-path="url(#pc56ad0807b)" d="M 204.947905 256.32 
L 205.695728 256.32 
L 205.695728 246.329229 
L 204.947905 246.329229 
z
" style="fill:#808080;fill-opacity:0.6;stroke:#808080;stroke-linejoin:miter;stroke-opacity:0.6;"/>
   </g>
   <g id="patch_11">
    <path clip-path="url(#pc56ad0807b)" d="M 205.695728 256.32 
L 206.44355 256.32 
L 206.44355 249.944125 
L 205.695728 249.944125 
z
" style="fill:#808080;fill-opacity:0.6;stroke:#808080;stroke-linejoin:miter;stroke-opacity:0.6;"/>
   </g>
   <g id="patch_12">
    <path clip-path="url(#pc56ad0807b)" d="M 206.44355 256.32 
L 207.191372 256.32 
L 207.191372 245.854564 
L 206.44355 245.854564 
z
" style="fill:#808080;fill-opacity:0.6;stroke:#808080;stroke-linejoin:miter;stroke-opacity:0.6;"/>
   </g>
   <g id="patch_13">
    <path clip-path="url(#pc56ad0807b)" d="M 207.191372 256.32 
L 207.939194 256.32 
L 207.939194 246.832321 
L 207.191372 246.832321 
z
" style="fill:#808080;fill-opacity:0.6;stroke:#808080;stroke-linejoin:miter;stroke-opacity:0.6;"/>
   </g>
   <g id="patch_14">
    <path clip-path="url(#pc56ad0807b)" d="M 208.687016 256.32 
L 209.434838 256.32 
L 209.434838 245.95722 
L 208.687016 245.95722 
z
" style="fill:#808080;fill-opacity:0.6;stroke:#808080;stroke-linejoin:miter;stroke-opacity:0.6;"/>
   </g>
   <g id="patch_15">
    <path clip-path="url(#pc56ad0807b)" d="M 209.434838 256.32 
L 210.182661 256.32 
L 210.182661 248.906493 
L 209.434838 248.906493 
z
" style="fill:#808080;fill-opacity:0.6;stroke:#808080;stroke-linejoin:miter;stroke-opacity:0.6;"/>
   </g>
   <g id="patch_16">
    <path clip-path="url(#pc56ad0807b)" d="M 210.182661 256.32 
L 210.930483 256.32 
L 210.930483 245.371049 
L 210.182661 245.371049 
z
" style="fill:#808080;fill-opacity:0.6;stroke:#808080;stroke-linejoin:miter;stroke-opacity:0.6;"/>
   </g>
   <g id="patch_17">
    <path clip-path="url(#pc56ad0807b)" d="M 210.930483 256.32 
L 211.678305 256.32 
L 211.678305 248.772711 
L 210.930483 248.772711 
z
" style="fill:#808080;fill-opacity:0.6;stroke:#808080;stroke-linejoin:miter;stroke-opacity:0.6;"/>
   </g>
   <g id="patch_18">
    <path clip-path="url(#pc56ad0807b)" d="M 212.426127 256.32 
L 213.173949 256.32 
L 213.173949 250.957084 
L 212.426127 250.957084 
z
" style="fill:#808080;fill-opacity:0.6;stroke:#808080;stroke-linejoin:miter;stroke-opacity:0.6;"/>
   </g>
   <g id="patch_19">
    <path clip-path="url(#pc56ad0807b)" d="M 213.173949 256.32 
L 213.921771 256.32 
L 213.921771 250.939224 
L 213.173949 250.939224 
z
" style="fill:#808080;fill-opacity:0.6;stroke:#808080;stroke-linejoin:miter;stroke-opacity:0.6;"/>
   </g>
   <g id="patch_20">
    <path clip-path="url(#pc56ad0807b)" d="M 213.921771 256.32 
L 214.669593 256.32 
L 214.669593 250.217285 
L 213.921771 250.217285 
z
" style="fill:#808080;fill-opacity:0.6;stroke:#808080;stroke-linejoin:miter;stroke-opacity:0.6;"/>
   </g>
   <g id="patch_21">
    <path clip-path="url(#pc56ad0807b)" d="M 214.669593 256.32 
L 215.417416 256.32 
L 215.417416 247.875352 
L 214.669593 247.875352 
z
" style="fill:#808080;fill-opacity:0.6;stroke:#808080;stroke-linejoin:miter;stroke-opacity:0.6;"/>
   </g>
   <g id="patch_22">
    <path clip-path="url(#pc56ad0807b)" d="M 215.417416 256.32 
L 216.165238 256.32 
L 216.165238 250.195259 
L 215.417416 250.195259 
z
" style="fill:#808080;fill-opacity:0.6;stroke:#808080;stroke-linejoin:miter;stroke-opacity:0.6;"/>
   </g>
   <g id="patch_23">
    <path clip-path="url(#pc56ad0807b)" d="M 216.165238 256.32 
L 216.91306 256.32 
L 216.91306 249.449078 
L 216.165238 249.449078 
z
" style="fill:#808080;fill-opacity:0.6;stroke:#808080;stroke-linejoin:miter;stroke-opacity:0.6;"/>
   </g>
   <g id="patch_24">
    <path clip-path="url(#pc56ad0807b)" d="M 216.91306 256.32 
L 217.660882 256.32 
L 217.660882 248.812401 
L 216.91306 248.812401 
z
" style="fill:#808080;fill-opacity:0.6;stroke:#808080;stroke-linejoin:miter;stroke-opacity:0.6;"/>
   </g>
   <g id="patch_25">
    <path clip-path="url(#pc56ad0807b)" d="M 217.660882 256.32 
L 218.408704 256.32 
L 218.408704 245.053568 
L 217.660882 245.053568 
z
" style="fill:#808080;fill-opacity:0.6;stroke:#808080;stroke-linejoin:miter;stroke-opacity:0.6;"/>
   </g>
   <g id="patch_26">
    <path clip-path="url(#pc56ad0807b)" d="M 218.408704 256.32 
L 219.156526 256.32 
L 219.156526 248.695906 
L 218.408704 248.695906 
z
" style="fill:#808080;fill-opacity:0.6;stroke:#808080;stroke-linejoin:miter;stroke-opacity:0.6;"/>
   </g>
   <g id="patch_27">
    <path clip-path="url(#pc56ad0807b)" d="M 219.156526 256.32 
L 219.904349 256.32 
L 219.904349 242.940314 
L 219.156526 242.940314 
z
" style="fill:#808080;fill-opacity:0.6;stroke:#808080;stroke-linejoin:miter;stroke-opacity:0.6;"/>
   </g>
   <g id="patch_28">
    <path clip-path="url(#pc56ad0807b)" d="M 219.904349 256.32 
L 220.652171 256.32 
L 220.652171 247.908945 
L 219.904349 247.908945 
z
" style="fill:#808080;fill-opacity:0.6;stroke:#808080;stroke-linejoin:miter;stroke-opacity:0.6;"/>
   </g>
   <g id="patch_29">
    <path clip-path="url(#pc56ad0807b)" d="M 220.652171 256.32 
L 221.399993 256.32 
L 221.399993 235.976193 
L 220.652171 235.976193 
z
" style="fill:#808080;fill-opacity:0.6;stroke:#808080;stroke-linejoin:miter;stroke-opacity:0.6;"/>
   </g>
   <g id="patch_30">
    <path clip-path="url(#pc56ad0807b)" d="M 221.399993 256.32 
L 222.147815 256.32 
L 222.147815 236.113051 
L 221.399993 236.113051 
z
" style="fill:#808080;fill-opacity:0.6;stroke:#808080;stroke-linejoin:miter;stroke-opacity:0.6;"/>
   </g>
   <g id="patch_31">
    <path clip-path="url(#pc56ad0807b)" d="M 222.147815 256.32 
L 222.895637 256.32 
L 222.895637 246.932421 
L 222.147815 246.932421 
z
" style="fill:#808080;fill-opacity:0.6;stroke:#808080;stroke-linejoin:miter;stroke-opacity:0.6;"/>
   </g>
   <g id="patch_32">
    <path clip-path="url(#pc56ad0807b)" d="M 222.895637 256.32 
L 223.643459 256.32 
L 223.643459 235.490801 
L 222.895637 235.490801 
z
" style="fill:#808080;fill-opacity:0.6;stroke:#808080;stroke-linejoin:miter;stroke-opacity:0.6;"/>
   </g>
   <g id="patch_33">
    <path clip-path="url(#pc56ad0807b)" d="M 223.643459 256.32 
L 224.391281 256.32 
L 224.391281 245.583674 
L 223.643459 245.583674 
z
" style="fill:#808080;fill-opacity:0.6;stroke:#808080;stroke-linejoin:miter;stroke-opacity:0.6;"/>
   </g>
   <g id="patch_34">
    <path clip-path="url(#pc56ad0807b)" d="M 224.391281 256.32 
L 225.139104 256.32 
L 225.139104 233.663759 
L 224.391281 233.663759 
z
" style="fill:#808080;fill-opacity:0.6;stroke:#808080;stroke-linejoin:miter;stroke-opacity:0.6;"/>
   </g>
   <g id="patch_35">
    <path clip-path="url(#pc56ad0807b)" d="M 225.139104 256.32 
L 225.886926 256.32 
L 225.886926 240.353968 
L 225.139104 240.353968 
z
" style="fill:#808080;fill-opacity:0.6;stroke:#808080;stroke-linejoin:miter;stroke-opacity:0.6;"/>
   </g>
   <g id="patch_36">
    <path clip-path="url(#pc56ad0807b)" d="M 225.886926 256.32 
L 226.634748 256.32 
L 226.634748 245.331413 
L 225.886926 245.331413 
z
" style="fill:#808080;fill-opacity:0.6;stroke:#808080;stroke-linejoin:miter;stroke-opacity:0.6;"/>
   </g>
   <g id="patch_37">
    <path clip-path="url(#pc56ad0807b)" d="M 226.634748 256.32 
L 227.38257 256.32 
L 227.38257 227.015867 
L 226.634748 227.015867 
z
" style="fill:#808080;fill-opacity:0.6;stroke:#808080;stroke-linejoin:miter;stroke-opacity:0.6;"/>
   </g>
   <g id="patch_38">
    <path clip-path="url(#pc56ad0807b)" d="M 227.38257 256.32 
L 228.130392 256.32 
L 228.130392 243.659267 
L 227.38257 243.659267 
z
" style="fill:#808080;fill-opacity:0.6;stroke:#808080;stroke-linejoin:miter;stroke-opacity:0.6;"/>
   </g>
   <g id="patch_39">
    <path clip-path="url(#pc56ad0807b)" d="M 228.130392 256.32 
L 228.878214 256.32 
L 228.878214 226.324125 
L 228.130392 226.324125 
z
" style="fill:#808080;fill-opacity:0.6;stroke:#808080;stroke-linejoin:miter;stroke-opacity:0.6;"/>
   </g>
   <g id="patch_40">
    <path clip-path="url(#pc56ad0807b)" d="M 228.878214 256.32 
L 229.626037 256.32 
L 229.626037 243.386625 
L 228.878214 243.386625 
z
" style="fill:#808080;fill-opacity:0.6;stroke:#808080;stroke-linejoin:miter;stroke-opacity:0.6;"/>
   </g>
   <g id="patch_41">
    <path clip-path="url(#pc56ad0807b)" d="M 229.626037 256.32 
L 230.373859 256.32 
L 230.373859 238.442094 
L 229.626037 238.442094 
z
" style="fill:#808080;fill-opacity:0.6;stroke:#808080;stroke-linejoin:miter;stroke-opacity:0.6;"/>
   </g>
   <g id="patch_42">
    <path clip-path="url(#pc56ad0807b)" d="M 230.373859 256.32 
L 231.121681 256.32 
L 231.121681 239.650158 
L 230.373859 239.650158 
z
" style="fill:#808080;fill-opacity:0.6;stroke:#808080;stroke-linejoin:miter;stroke-opacity:0.6;"/>
   </g>
   <g id="patch_43">
    <path clip-path="url(#pc56ad0807b)" d="M 231.121681 256.32 
L 231.869503 256.32 
L 231.869503 228.945244 
L 231.121681 228.945244 
z
" style="fill:#808080;fill-opacity:0.6;stroke:#808080;stroke-linejoin:miter;stroke-opacity:0.6;"/>
   </g>
   <g id="patch_44">
    <path clip-path="url(#pc56ad0807b)" d="M 231.869503 256.32 
L 232.617325 256.32 
L 232.617325 225.967384 
L 231.869503 225.967384 
z
" style="fill:#808080;fill-opacity:0.6;stroke:#808080;stroke-linejoin:miter;stroke-opacity:0.6;"/>
   </g>
   <g id="patch_45">
    <path clip-path="url(#pc56ad0807b)" d="M 232.617325 256.32 
L 233.365147 256.32 
L 233.365147 231.623448 
L 232.617325 231.623448 
z
" style="fill:#808080;fill-opacity:0.6;stroke:#808080;stroke-linejoin:miter;stroke-opacity:0.6;"/>
   </g>
   <g id="patch_46">
    <path clip-path="url(#pc56ad0807b)" d="M 233.365147 256.32 
L 234.112969 256.32 
L 234.112969 238.198236 
L 233.365147 238.198236 
z
" style="fill:#808080;fill-opacity:0.6;stroke:#808080;stroke-linejoin:miter;stroke-opacity:0.6;"/>
   </g>
   <g id="patch_47">
    <path clip-path="url(#pc56ad0807b)" d="M 234.112969 256.32 
L 234.860792 256.32 
L 234.860792 227.993714 
L 234.112969 227.993714 
z
" style="fill:#808080;fill-opacity:0.6;stroke:#808080;stroke-linejoin:miter;stroke-opacity:0.6;"/>
   </g>
   <g id="patch_48">
    <path clip-path="url(#pc56ad0807b)" d="M 234.860792 256.32 
L 235.608614 256.32 
L 235.608614 231.549575 
L 234.860792 231.549575 
z
" style="fill:#808080;fill-opacity:0.6;stroke:#808080;stroke-linejoin:miter;stroke-opacity:0.6;"/>
   </g>
   <g id="patch_49">
    <path clip-path="url(#pc56ad0807b)" d="M 235.608614 256.32 
L 236.356436 256.32 
L 236.356436 234.256188 
L 235.608614 234.256188 
z
" style="fill:#808080;fill-opacity:0.6;stroke:#808080;stroke-linejoin:miter;stroke-opacity:0.6;"/>
   </g>
   <g id="patch_50">
    <path clip-path="url(#pc56ad0807b)" d="M 236.356436 256.32 
L 237.104258 256.32 
L 237.104258 235.344683 
L 236.356436 235.344683 
z
" style="fill:#808080;fill-opacity:0.6;stroke:#808080;stroke-linejoin:miter;stroke-opacity:0.6;"/>
   </g>
   <g id="patch_51">
    <path clip-path="url(#pc56ad0807b)" d="M 237.104258 256.32 
L 237.85208 256.32 
L 237.85208 212.620397 
L 237.104258 212.620397 
z
" style="fill:#808080;fill-opacity:0.6;stroke:#808080;stroke-linejoin:miter;stroke-opacity:0.6;"/>
   </g>
   <g id="patch_52">
    <path clip-path="url(#pc56ad0807b)" d="M 237.85208 256.32 
L 238.599902 256.32 
L 238.599902 192.170591 
L 237.85208 192.170591 
z
" style="fill:#808080;fill-opacity:0.6;stroke:#808080;stroke-linejoin:miter;stroke-opacity:0.6;"/>
   </g>
   <g id="patch_53">
    <path clip-path="url(#pc56ad0807b)" d="M 238.599902 256.32 
L 239.347725 256.32 
L 239.347725 221.315179 
L 238.599902 221.315179 
z
" style="fill:#808080;fill-opacity:0.6;stroke:#808080;stroke-linejoin:miter;stroke-opacity:0.6;"/>
   </g>
   <g id="patch_54">
    <path clip-path="url(#pc56ad0807b)" d="M 239.347725 256.32 
L 240.095547 256.32 
L 240.095547 221.428598 
L 239.347725 221.428598 
z
" style="fill:#808080;fill-opacity:0.6;stroke:#808080;stroke-linejoin:miter;stroke-opacity:0.6;"/>
   </g>
   <g id="patch_55">
    <path clip-path="url(#pc56ad0807b)" d="M 240.095547 256.32 
L 240.843369 256.32 
L 240.843369 229.354243 
L 240.095547 229.354243 
z
" style="fill:#808080;fill-opacity:0.6;stroke:#808080;stroke-linejoin:miter;stroke-opacity:0.6;"/>
   </g>
   <g id="patch_56">
    <path clip-path="url(#pc56ad0807b)" d="M 240.843369 256.32 
L 241.591191 256.32 
L 241.591191 228.759597 
L 240.843369 228.759597 
z
" style="fill:#808080;fill-opacity:0.6;stroke:#808080;stroke-linejoin:miter;stroke-opacity:0.6;"/>
   </g>
   <g id="patch_57">
    <path clip-path="url(#pc56ad0807b)" d="M 241.591191 256.32 
L 242.339013 256.32 
L 242.339013 220.219015 
L 241.591191 220.219015 
z
" style="fill:#808080;fill-opacity:0.6;stroke:#808080;stroke-linejoin:miter;stroke-opacity:0.6;"/>
   </g>
   <g id="patch_58">
    <path clip-path="url(#pc56ad0807b)" d="M 242.339013 256.32 
L 243.086835 256.32 
L 243.086835 221.448818 
L 242.339013 221.448818 
z
" style="fill:#808080;fill-opacity:0.6;stroke:#808080;stroke-linejoin:miter;stroke-opacity:0.6;"/>
   </g>
   <g id="patch_59">
    <path clip-path="url(#pc56ad0807b)" d="M 243.086835 256.32 
L 243.834657 256.32 
L 243.834657 208.504413 
L 243.086835 208.504413 
z
" style="fill:#808080;fill-opacity:0.6;stroke:#808080;stroke-linejoin:miter;stroke-opacity:0.6;"/>
   </g>
   <g id="patch_60">
    <path clip-path="url(#pc56ad0807b)" d="M 243.834657 256.32 
L 244.58248 256.32 
L 244.58248 210.326628 
L 243.834657 210.326628 
z
" style="fill:#808080;fill-opacity:0.6;stroke:#808080;stroke-linejoin:miter;stroke-opacity:0.6;"/>
   </g>
   <g id="patch_61">
    <path clip-path="url(#pc56ad0807b)" d="M 244.58248 256.32 
L 245.330302 256.32 
L 245.330302 207.507383 
L 244.58248 207.507383 
z
" style="fill:#808080;fill-opacity:0.6;stroke:#808080;stroke-linejoin:miter;stroke-opacity:0.6;"/>
   </g>
   <g id="patch_62">
    <path clip-path="url(#pc56ad0807b)" d="M 245.330302 256.32 
L 246.078124 256.32 
L 246.078124 219.197295 
L 245.330302 219.197295 
z
" style="fill:#808080;fill-opacity:0.6;stroke:#808080;stroke-linejoin:miter;stroke-opacity:0.6;"/>
   </g>
   <g id="patch_63">
    <path clip-path="url(#pc56ad0807b)" d="M 246.078124 256.32 
L 246.825946 256.32 
L 246.825946 223.920297 
L 246.078124 223.920297 
z
" style="fill:#808080;fill-opacity:0.6;stroke:#808080;stroke-linejoin:miter;stroke-opacity:0.6;"/>
   </g>
   <g id="patch_64">
    <path clip-path="url(#pc56ad0807b)" d="M 246.825946 256.32 
L 247.573768 256.32 
L 247.573768 219.898781 
L 246.825946 219.898781 
z
" style="fill:#808080;fill-opacity:0.6;stroke:#808080;stroke-linejoin:miter;stroke-opacity:0.6;"/>
   </g>
   <g id="patch_65">
    <path clip-path="url(#pc56ad0807b)" d="M 247.573768 256.32 
L 248.32159 256.32 
L 248.32159 205.714452 
L 247.573768 205.714452 
z
" style="fill:#808080;fill-opacity:0.6;stroke:#808080;stroke-linejoin:miter;stroke-opacity:0.6;"/>
   </g>
   <g id="patch_66">
    <path clip-path="url(#pc56ad0807b)" d="M 248.32159 256.32 
L 249.069413 256.32 
L 249.069413 210.895565 
L 248.32159 210.895565 
z
" style="fill:#808080;fill-opacity:0.6;stroke:#808080;stroke-linejoin:miter;stroke-opacity:0.6;"/>
   </g>
   <g id="patch_67">
    <path clip-path="url(#pc56ad0807b)" d="M 249.069413 256.32 
L 249.817235 256.32 
L 249.817235 213.495534 
L 249.069413 213.495534 
z
" style="fill:#808080;fill-opacity:0.6;stroke:#808080;stroke-linejoin:miter;stroke-opacity:0.6;"/>
   </g>
   <g id="patch_68">
    <path clip-path="url(#pc56ad0807b)" d="M 249.817235 256.32 
L 250.565057 256.32 
L 250.565057 199.130046 
L 249.817235 199.130046 
z
" style="fill:#808080;fill-opacity:0.6;stroke:#808080;stroke-linejoin:miter;stroke-opacity:0.6;"/>
   </g>
   <g id="patch_69">
    <path clip-path="url(#pc56ad0807b)" d="M 250.565057 256.32 
L 251.312879 256.32 
L 251.312879 189.869706 
L 250.565057 189.869706 
z
" style="fill:#808080;fill-opacity:0.6;stroke:#808080;stroke-linejoin:miter;stroke-opacity:0.6;"/>
   </g>
   <g id="patch_70">
    <path clip-path="url(#pc56ad0807b)" d="M 251.312879 256.32 
L 252.060701 256.32 
L 252.060701 212.711004 
L 251.312879 212.711004 
z
" style="fill:#808080;fill-opacity:0.6;stroke:#808080;stroke-linejoin:miter;stroke-opacity:0.6;"/>
   </g>
   <g id="patch_71">
    <path clip-path="url(#pc56ad0807b)" d="M 252.060701 256.32 
L 252.808523 256.32 
L 252.808523 190.913308 
L 252.060701 190.913308 
z
" style="fill:#808080;fill-opacity:0.6;stroke:#808080;stroke-linejoin:miter;stroke-opacity:0.6;"/>
   </g>
   <g id="patch_72">
    <path clip-path="url(#pc56ad0807b)" d="M 252.808523 256.32 
L 253.556345 256.32 
L 253.556345 188.235766 
L 252.808523 188.235766 
z
" style="fill:#808080;fill-opacity:0.6;stroke:#808080;stroke-linejoin:miter;stroke-opacity:0.6;"/>
   </g>
   <g id="patch_73">
    <path clip-path="url(#pc56ad0807b)" d="M 253.556345 256.32 
L 254.304168 256.32 
L 254.304168 199.268369 
L 253.556345 199.268369 
z
" style="fill:#808080;fill-opacity:0.6;stroke:#808080;stroke-linejoin:miter;stroke-opacity:0.6;"/>
   </g>
   <g id="patch_74">
    <path clip-path="url(#pc56ad0807b)" d="M 254.304168 256.32 
L 255.05199 256.32 
L 255.05199 185.002945 
L 254.304168 185.002945 
z
" style="fill:#808080;fill-opacity:0.6;stroke:#808080;stroke-linejoin:miter;stroke-opacity:0.6;"/>
   </g>
   <g id="patch_75">
    <path clip-path="url(#pc56ad0807b)" d="M 255.05199 256.32 
L 255.799812 256.32 
L 255.799812 190.91919 
L 255.05199 190.91919 
z
" style="fill:#808080;fill-opacity:0.6;stroke:#808080;stroke-linejoin:miter;stroke-opacity:0.6;"/>
   </g>
   <g id="patch_76">
    <path clip-path="url(#pc56ad0807b)" d="M 255.799812 256.32 
L 256.547634 256.32 
L 256.547634 212.259258 
L 255.799812 212.259258 
z
" style="fill:#808080;fill-opacity:0.6;stroke:#808080;stroke-linejoin:miter;stroke-opacity:0.6;"/>
   </g>
   <g id="patch_77">
    <path clip-path="url(#pc56ad0807b)" d="M 256.547634 256.32 
L 257.295456 256.32 
L 257.295456 181.354385 
L 256.547634 181.354385 
z
" style="fill:#808080;fill-opacity:0.6;stroke:#808080;stroke-linejoin:miter;stroke-opacity:0.6;"/>
   </g>
   <g id="patch_78">
    <path clip-path="url(#pc56ad0807b)" d="M 257.295456 256.32 
L 258.043278 256.32 
L 258.043278 186.559812 
L 257.295456 186.559812 
z
" style="fill:#808080;fill-opacity:0.6;stroke:#808080;stroke-linejoin:miter;stroke-opacity:0.6;"/>
   </g>
   <g id="patch_79">
    <path clip-path="url(#pc56ad0807b)" d="M 258.043278 256.32 
L 258.791101 256.32 
L 258.791101 204.152364 
L 258.043278 204.152364 
z
" style="fill:#808080;fill-opacity:0.6;stroke:#808080;stroke-linejoin:miter;stroke-opacity:0.6;"/>
   </g>
   <g id="patch_80">
    <path clip-path="url(#pc56ad0807b)" d="M 258.791101 256.32 
L 259.538923 256.32 
L 259.538923 202.275603 
L 258.791101 202.275603 
z
" style="fill:#808080;fill-opacity:0.6;stroke:#808080;stroke-linejoin:miter;stroke-opacity:0.6;"/>
   </g>
   <g id="patch_81">
    <path clip-path="url(#pc56ad0807b)" d="M 259.538923 256.32 
L 260.286745 256.32 
L 260.286745 201.557204 
L 259.538923 201.557204 
z
" style="fill:#808080;fill-opacity:0.6;stroke:#808080;stroke-linejoin:miter;stroke-opacity:0.6;"/>
   </g>
   <g id="patch_82">
    <path clip-path="url(#pc56ad0807b)" d="M 260.286745 256.32 
L 261.034567 256.32 
L 261.034567 187.239183 
L 260.286745 187.239183 
z
" style="fill:#808080;fill-opacity:0.6;stroke:#808080;stroke-linejoin:miter;stroke-opacity:0.6;"/>
   </g>
   <g id="patch_83">
    <path clip-path="url(#pc56ad0807b)" d="M 261.034567 256.32 
L 261.782389 256.32 
L 261.782389 205.922232 
L 261.034567 205.922232 
z
" style="fill:#808080;fill-opacity:0.6;stroke:#808080;stroke-linejoin:miter;stroke-opacity:0.6;"/>
   </g>
   <g id="patch_84">
    <path clip-path="url(#pc56ad0807b)" d="M 261.782389 256.32 
L 262.530211 256.32 
L 262.530211 147.994356 
L 261.782389 147.994356 
z
" style="fill:#808080;fill-opacity:0.6;stroke:#808080;stroke-linejoin:miter;stroke-opacity:0.6;"/>
   </g>
   <g id="patch_85">
    <path clip-path="url(#pc56ad0807b)" d="M 262.530211 256.32 
L 263.278033 256.32 
L 263.278033 180.022801 
L 262.530211 180.022801 
z
" style="fill:#808080;fill-opacity:0.6;stroke:#808080;stroke-linejoin:miter;stroke-opacity:0.6;"/>
   </g>
   <g id="patch_86">
    <path clip-path="url(#pc56ad0807b)" d="M 263.278033 256.32 
L 264.025856 256.32 
L 264.025856 182.2142 
L 263.278033 182.2142 
z
" style="fill:#808080;fill-opacity:0.6;stroke:#808080;stroke-linejoin:miter;stroke-opacity:0.6;"/>
   </g>
   <g id="patch_87">
    <path clip-path="url(#pc56ad0807b)" d="M 264.025856 256.32 
L 264.773678 256.32 
L 264.773678 191.616511 
L 264.025856 191.616511 
z
" style="fill:#808080;fill-opacity:0.6;stroke:#808080;stroke-linejoin:miter;stroke-opacity:0.6;"/>
   </g>
   <g id="patch_88">
    <path clip-path="url(#pc56ad0807b)" d="M 264.773678 256.32 
L 265.5215 256.32 
L 265.5215 209.68026 
L 264.773678 209.68026 
z
" style="fill:#808080;fill-opacity:0.6;stroke:#808080;stroke-linejoin:miter;stroke-opacity:0.6;"/>
   </g>
   <g id="patch_89">
    <path clip-path="url(#pc56ad0807b)" d="M 265.5215 256.32 
L 266.269322 256.32 
L 266.269322 189.591271 
L 265.5215 189.591271 
z
" style="fill:#808080;fill-opacity:0.6;stroke:#808080;stroke-linejoin:miter;stroke-opacity:0.6;"/>
   </g>
   <g id="patch_90">
    <path clip-path="url(#pc56ad0807b)" d="M 266.269322 256.32 
L 267.017144 256.32 
L 267.017144 206.476616 
L 266.269322 206.476616 
z
" style="fill:#808080;fill-opacity:0.6;stroke:#808080;stroke-linejoin:miter;stroke-opacity:0.6;"/>
   </g>
   <g id="patch_91">
    <path clip-path="url(#pc56ad0807b)" d="M 267.017144 256.32 
L 267.764966 256.32 
L 267.764966 210.512149 
L 267.017144 210.512149 
z
" style="fill:#808080;fill-opacity:0.6;stroke:#808080;stroke-linejoin:miter;stroke-opacity:0.6;"/>
   </g>
   <g id="patch_92">
    <path clip-path="url(#pc56ad0807b)" d="M 267.764966 256.32 
L 268.512789 256.32 
L 268.512789 206.885687 
L 267.764966 206.885687 
z
" style="fill:#808080;fill-opacity:0.6;stroke:#808080;stroke-linejoin:miter;stroke-opacity:0.6;"/>
   </g>
   <g id="patch_93">
    <path clip-path="url(#pc56ad0807b)" d="M 268.512789 256.32 
L 269.260611 256.32 
L 269.260611 209.944178 
L 268.512789 209.944178 
z
" style="fill:#808080;fill-opacity:0.6;stroke:#808080;stroke-linejoin:miter;stroke-opacity:0.6;"/>
   </g>
   <g id="patch_94">
    <path clip-path="url(#pc56ad0807b)" d="M 269.260611 256.32 
L 270.008433 256.32 
L 270.008433 191.401257 
L 269.260611 191.401257 
z
" style="fill:#808080;fill-opacity:0.6;stroke:#808080;stroke-linejoin:miter;stroke-opacity:0.6;"/>
   </g>
   <g id="patch_95">
    <path clip-path="url(#pc56ad0807b)" d="M 270.008433 256.32 
L 270.756255 256.32 
L 270.756255 208.285137 
L 270.008433 208.285137 
z
" style="fill:#808080;fill-opacity:0.6;stroke:#808080;stroke-linejoin:miter;stroke-opacity:0.6;"/>
   </g>
   <g id="patch_96">
    <path clip-path="url(#pc56ad0807b)" d="M 270.756255 256.32 
L 271.504077 256.32 
L 271.504077 208.949365 
L 270.756255 208.949365 
z
" style="fill:#808080;fill-opacity:0.6;stroke:#808080;stroke-linejoin:miter;stroke-opacity:0.6;"/>
   </g>
   <g id="patch_97">
    <path clip-path="url(#pc56ad0807b)" d="M 271.504077 256.32 
L 272.251899 256.32 
L 272.251899 205.401691 
L 271.504077 205.401691 
z
" style="fill:#808080;fill-opacity:0.6;stroke:#808080;stroke-linejoin:miter;stroke-opacity:0.6;"/>
   </g>
   <g id="patch_98">
    <path clip-path="url(#pc56ad0807b)" d="M 272.251899 256.32 
L 272.999721 256.32 
L 272.999721 210.746693 
L 272.251899 210.746693 
z
" style="fill:#808080;fill-opacity:0.6;stroke:#808080;stroke-linejoin:miter;stroke-opacity:0.6;"/>
   </g>
   <g id="patch_99">
    <path clip-path="url(#pc56ad0807b)" d="M 272.999721 256.32 
L 273.747544 256.32 
L 273.747544 190.703597 
L 272.999721 190.703597 
z
" style="fill:#808080;fill-opacity:0.6;stroke:#808080;stroke-linejoin:miter;stroke-opacity:0.6;"/>
   </g>
   <g id="patch_100">
    <path clip-path="url(#pc56ad0807b)" d="M 273.747544 256.32 
L 274.495366 256.32 
L 274.495366 199.431758 
L 273.747544 199.431758 
z
" style="fill:#808080;fill-opacity:0.6;stroke:#808080;stroke-linejoin:miter;stroke-opacity:0.6;"/>
   </g>
   <g id="patch_101">
    <path clip-path="url(#pc56ad0807b)" d="M 274.495366 256.32 
L 275.243188 256.32 
L 275.243188 171.065693 
L 274.495366 171.065693 
z
" style="fill:#808080;fill-opacity:0.6;stroke:#808080;stroke-linejoin:miter;stroke-opacity:0.6;"/>
   </g>
   <g id="patch_102">
    <path clip-path="url(#pc56ad0807b)" d="M 275.243188 256.32 
L 275.99101 256.32 
L 275.99101 141.456076 
L 275.243188 141.456076 
z
" style="fill:#808080;fill-opacity:0.6;stroke:#808080;stroke-linejoin:miter;stroke-opacity:0.6;"/>
   </g>
   <g id="patch_103">
    <path clip-path="url(#pc56ad0807b)" d="M 275.99101 256.32 
L 276.738832 256.32 
L 276.738832 102.726087 
L 275.99101 102.726087 
z
" style="fill:#808080;fill-opacity:0.6;stroke:#808080;stroke-linejoin:miter;stroke-opacity:0.6;"/>
   </g>
   <g id="patch_104">
    <path clip-path="url(#pc56ad0807b)" d="M 276.738832 256.32 
L 277.486654 256.32 
L 277.486654 45.12 
L 276.738832 45.12 
z
" style="fill:#808080;fill-opacity:0.6;stroke:#808080;stroke-linejoin:miter;stroke-opacity:0.6;"/>
   </g>
   <g id="patch_105">
    <path clip-path="url(#pc56ad0807b)" d="M 277.486654 256.32 
L 278.234477 256.32 
L 278.234477 151.155593 
L 277.486654 151.155593 
z
" style="fill:#808080;fill-opacity:0.6;stroke:#808080;stroke-linejoin:miter;stroke-opacity:0.6;"/>
   </g>
   <g id="patch_106">
    <path clip-path="url(#pc56ad0807b)" d="M 278.234477 256.32 
L 278.982299 256.32 
L 278.982299 164.759739 
L 278.234477 164.759739 
z
" style="fill:#808080;fill-opacity:0.6;stroke:#808080;stroke-linejoin:miter;stroke-opacity:0.6;"/>
   </g>
   <g id="patch_107">
    <path clip-path="url(#pc56ad0807b)" d="M 278.982299 256.32 
L 279.730121 256.32 
L 279.730121 166.467194 
L 278.982299 166.467194 
z
" style="fill:#808080;fill-opacity:0.6;stroke:#808080;stroke-linejoin:miter;stroke-opacity:0.6;"/>
   </g>
   <g id="patch_108">
    <path clip-path="url(#pc56ad0807b)" d="M 279.730121 256.32 
L 280.477943 256.32 
L 280.477943 191.398576 
L 279.730121 191.398576 
z
" style="fill:#808080;fill-opacity:0.6;stroke:#808080;stroke-linejoin:miter;stroke-opacity:0.6;"/>
   </g>
   <g id="patch_109">
    <path clip-path="url(#pc56ad0807b)" d="M 280.477943 256.32 
L 281.225765 256.32 
L 281.225765 191.17231 
L 280.477943 191.17231 
z
" style="fill:#808080;fill-opacity:0.6;stroke:#808080;stroke-linejoin:miter;stroke-opacity:0.6;"/>
   </g>
   <g id="patch_110">
    <path clip-path="url(#pc56ad0807b)" d="M 281.225765 256.32 
L 281.973587 256.32 
L 281.973587 175.452335 
L 281.225765 175.452335 
z
" style="fill:#808080;fill-opacity:0.6;stroke:#808080;stroke-linejoin:miter;stroke-opacity:0.6;"/>
   </g>
   <g id="patch_111">
    <path clip-path="url(#pc56ad0807b)" d="M 281.973587 256.32 
L 282.721409 256.32 
L 282.721409 184.999352 
L 281.973587 184.999352 
z
" style="fill:#808080;fill-opacity:0.6;stroke:#808080;stroke-linejoin:miter;stroke-opacity:0.6;"/>
   </g>
   <g id="patch_112">
    <path clip-path="url(#pc56ad0807b)" d="M 282.721409 256.32 
L 283.469232 256.32 
L 283.469232 195.376058 
L 282.721409 195.376058 
z
" style="fill:#808080;fill-opacity:0.6;stroke:#808080;stroke-linejoin:miter;stroke-opacity:0.6;"/>
   </g>
   <g id="patch_113">
    <path clip-path="url(#pc56ad0807b)" d="M 283.469232 256.32 
L 284.217054 256.32 
L 284.217054 212.658067 
L 283.469232 212.658067 
z
" style="fill:#808080;fill-opacity:0.6;stroke:#808080;stroke-linejoin:miter;stroke-opacity:0.6;"/>
   </g>
   <g id="patch_114">
    <path clip-path="url(#pc56ad0807b)" d="M 284.217054 256.32 
L 284.964876 256.32 
L 284.964876 230.75026 
L 284.217054 230.75026 
z
" style="fill:#808080;fill-opacity:0.6;stroke:#808080;stroke-linejoin:miter;stroke-opacity:0.6;"/>
   </g>
   <g id="patch_115">
    <path clip-path="url(#pc56ad0807b)" d="M 284.964876 256.32 
L 285.712698 256.32 
L 285.712698 235.241132 
L 284.964876 235.241132 
z
" style="fill:#808080;fill-opacity:0.6;stroke:#808080;stroke-linejoin:miter;stroke-opacity:0.6;"/>
   </g>
   <g id="patch_116">
    <path clip-path="url(#pc56ad0807b)" d="M 285.712698 256.32 
L 286.46052 256.32 
L 286.46052 239.238638 
L 285.712698 239.238638 
z
" style="fill:#808080;fill-opacity:0.6;stroke:#808080;stroke-linejoin:miter;stroke-opacity:0.6;"/>
   </g>
   <g id="patch_117">
    <path clip-path="url(#pc56ad0807b)" d="M 286.46052 256.32 
L 287.208342 256.32 
L 287.208342 241.981901 
L 286.46052 241.981901 
z
" style="fill:#808080;fill-opacity:0.6;stroke:#808080;stroke-linejoin:miter;stroke-opacity:0.6;"/>
   </g>
   <g id="patch_118">
    <path clip-path="url(#pc56ad0807b)" d="M 287.208342 256.32 
L 287.956165 256.32 
L 287.956165 244.685153 
L 287.208342 244.685153 
z
" style="fill:#808080;fill-opacity:0.6;stroke:#808080;stroke-linejoin:miter;stroke-opacity:0.6;"/>
   </g>
   <g id="patch_119">
    <path clip-path="url(#pc56ad0807b)" d="M 287.956165 256.32 
L 288.703987 256.32 
L 288.703987 241.965292 
L 287.956165 241.965292 
z
" style="fill:#808080;fill-opacity:0.6;stroke:#808080;stroke-linejoin:miter;stroke-opacity:0.6;"/>
   </g>
   <g id="patch_120">
    <path clip-path="url(#pc56ad0807b)" d="M 288.703987 256.32 
L 289.451809 256.32 
L 289.451809 243.21124 
L 288.703987 243.21124 
z
" style="fill:#808080;fill-opacity:0.6;stroke:#808080;stroke-linejoin:miter;stroke-opacity:0.6;"/>
   </g>
   <g id="patch_121">
    <path clip-path="url(#pc56ad0807b)" d="M 289.451809 256.32 
L 290.199631 256.32 
L 290.199631 242.564086 
L 289.451809 242.564086 
z
" style="fill:#808080;fill-opacity:0.6;stroke:#808080;stroke-linejoin:miter;stroke-opacity:0.6;"/>
   </g>
   <g id="patch_122">
    <path clip-path="url(#pc56ad0807b)" d="M 290.199631 256.32 
L 290.947453 256.32 
L 290.947453 246.985519 
L 290.199631 246.985519 
z
" style="fill:#808080;fill-opacity:0.6;stroke:#808080;stroke-linejoin:miter;stroke-opacity:0.6;"/>
   </g>
   <g id="patch_123">
    <path clip-path="url(#pc56ad0807b)" d="M 290.947453 256.32 
L 291.695275 256.32 
L 291.695275 245.255538 
L 290.947453 245.255538 
z
" style="fill:#808080;fill-opacity:0.6;stroke:#808080;stroke-linejoin:miter;stroke-opacity:0.6;"/>
   </g>
   <g id="patch_124">
    <path clip-path="url(#pc56ad0807b)" d="M 291.695275 256.32 
L 292.443097 256.32 
L 292.443097 248.405636 
L 291.695275 248.405636 
z
" style="fill:#808080;fill-opacity:0.6;stroke:#808080;stroke-linejoin:miter;stroke-opacity:0.6;"/>
   </g>
   <g id="patch_125">
    <path clip-path="url(#pc56ad0807b)" d="M 292.443097 256.32 
L 293.19092 256.32 
L 293.19092 245.578918 
L 292.443097 245.578918 
z
" style="fill:#808080;fill-opacity:0.6;stroke:#808080;stroke-linejoin:miter;stroke-opacity:0.6;"/>
   </g>
   <g id="patch_126">
    <path clip-path="url(#pc56ad0807b)" d="M 293.19092 256.32 
L 293.938742 256.32 
L 293.938742 249.757262 
L 293.19092 249.757262 
z
" style="fill:#808080;fill-opacity:0.6;stroke:#808080;stroke-linejoin:miter;stroke-opacity:0.6;"/>
   </g>
   <g id="patch_127">
    <path clip-path="url(#pc56ad0807b)" d="M 293.938742 256.32 
L 294.686564 256.32 
L 294.686564 251.155943 
L 293.938742 251.155943 
z
" style="fill:#808080;fill-opacity:0.6;stroke:#808080;stroke-linejoin:miter;stroke-opacity:0.6;"/>
   </g>
   <g id="patch_128">
    <path clip-path="url(#pc56ad0807b)" d="M 295.434386 256.32 
L 296.182208 256.32 
L 296.182208 250.788332 
L 295.434386 250.788332 
z
" style="fill:#808080;fill-opacity:0.6;stroke:#808080;stroke-linejoin:miter;stroke-opacity:0.6;"/>
   </g>
   <g id="patch_129">
    <path clip-path="url(#pc56ad0807b)" d="M 296.182208 256.32 
L 296.93003 256.32 
L 296.93003 250.52917 
L 296.182208 250.52917 
z
" style="fill:#808080;fill-opacity:0.6;stroke:#808080;stroke-linejoin:miter;stroke-opacity:0.6;"/>
   </g>
   <g id="patch_130">
    <path clip-path="url(#pc56ad0807b)" d="M 298.425675 256.32 
L 299.173497 256.32 
L 299.173497 249.528117 
L 298.425675 249.528117 
z
" style="fill:#808080;fill-opacity:0.6;stroke:#808080;stroke-linejoin:miter;stroke-opacity:0.6;"/>
   </g>
   <g id="patch_131">
    <path d="M 54 256.32 
L 54 34.56 
" style="fill:none;stroke:#cccccc;stroke-linecap:square;stroke-linejoin:miter;stroke-width:0.8;"/>
   </g>
   <g id="patch_132">
    <path d="M 388.8 256.32 
L 388.8 34.56 
" style="fill:none;stroke:#cccccc;stroke-linecap:square;stroke-linejoin:miter;stroke-width:0.8;"/>
   </g>
   <g id="patch_133">
    <path d="M 54 256.32 
L 388.8 256.32 
" style="fill:none;stroke:#cccccc;stroke-linecap:square;stroke-linejoin:miter;stroke-width:0.8;"/>
   </g>
   <g id="patch_134">
    <path d="M 54 34.56 
L 388.8 34.56 
" style="fill:none;stroke:#cccccc;stroke-linecap:square;stroke-linejoin:miter;stroke-width:0.8;"/>
   </g>
  </g>
  <g id="axes_2">
   <g id="matplotlib.axis_2">
    <g id="xtick_1">
     <g id="line2d_1">
      <path clip-path="url(#pc56ad0807b)" d="M 66.226896 256.32 
L 66.226896 34.56 
" style="fill:none;stroke:#cccccc;stroke-linecap:round;stroke-width:0.8;"/>
     </g>
     <g id="text_1">
      <!-- −25 -->
      <defs>
       <path d="M 10.59375 35.5 
L 73.1875 35.5 
L 73.1875 27.203125 
L 10.59375 27.203125 
z
" id="DejaVuSans-8722"/>
       <path d="M 19.1875 8.296875 
L 53.609375 8.296875 
L 53.609375 0 
L 7.328125 0 
L 7.328125 8.296875 
Q 12.9375 14.109375 22.625 23.890625 
Q 32.328125 33.6875 34.8125 36.53125 
Q 39.546875 41.84375 41.421875 45.53125 
Q 43.3125 49.21875 43.3125 52.78125 
Q 43.3125 58.59375 39.234375 62.25 
Q 35.15625 65.921875 28.609375 65.921875 
Q 23.96875 65.921875 18.8125 64.3125 
Q 13.671875 62.703125 7.8125 59.421875 
L 7.8125 69.390625 
Q 13.765625 71.78125 18.9375 73 
Q 24.125 74.21875 28.421875 74.21875 
Q 39.75 74.21875 46.484375 68.546875 
Q 53.21875 62.890625 53.21875 53.421875 
Q 53.21875 48.921875 51.53125 44.890625 
Q 49.859375 40.875 45.40625 35.40625 
Q 44.1875 33.984375 37.640625 27.21875 
Q 31.109375 20.453125 19.1875 8.296875 
z
" id="DejaVuSans-50"/>
       <path d="M 10.796875 72.90625 
L 49.515625 72.90625 
L 49.515625 64.59375 
L 19.828125 64.59375 
L 19.828125 46.734375 
Q 21.96875 47.46875 24.109375 47.828125 
Q 26.265625 48.1875 28.421875 48.1875 
Q 40.625 48.1875 47.75 41.5 
Q 54.890625 34.8125 54.890625 23.390625 
Q 54.890625 11.625 47.5625 5.09375 
Q 40.234375 -1.421875 26.90625 -1.421875 
Q 22.3125 -1.421875 17.546875 -0.640625 
Q 12.796875 0.140625 7.71875 1.703125 
L 7.71875 11.625 
Q 12.109375 9.234375 16.796875 8.0625 
Q 21.484375 6.890625 26.703125 6.890625 
Q 35.15625 6.890625 40.078125 11.328125 
Q 45.015625 15.765625 45.015625 23.390625 
Q 45.015625 31 40.078125 35.4375 
Q 35.15625 39.890625 26.703125 39.890625 
Q 22.75 39.890625 18.8125 39.015625 
Q 14.890625 38.140625 10.796875 36.28125 
z
" id="DejaVuSans-53"/>
      </defs>
      <g style="fill:#262626;" transform="translate(55.674552 270.918437)scale(0.1 -0.1)">
       <use xlink:href="#DejaVuSans-8722"/>
       <use x="83.789062" xlink:href="#DejaVuSans-50"/>
       <use x="147.412109" xlink:href="#DejaVuSans-53"/>
      </g>
     </g>
    </g>
    <g id="xtick_2">
     <g id="line2d_2">
      <path clip-path="url(#pc56ad0807b)" d="M 103.618004 256.32 
L 103.618004 34.56 
" style="fill:none;stroke:#cccccc;stroke-linecap:round;stroke-width:0.8;"/>
     </g>
     <g id="text_2">
      <!-- −20 -->
      <defs>
       <path d="M 31.78125 66.40625 
Q 24.171875 66.40625 20.328125 58.90625 
Q 16.5 51.421875 16.5 36.375 
Q 16.5 21.390625 20.328125 13.890625 
Q 24.171875 6.390625 31.78125 6.390625 
Q 39.453125 6.390625 43.28125 13.890625 
Q 47.125 21.390625 47.125 36.375 
Q 47.125 51.421875 43.28125 58.90625 
Q 39.453125 66.40625 31.78125 66.40625 
z
M 31.78125 74.21875 
Q 44.046875 74.21875 50.515625 64.515625 
Q 56.984375 54.828125 56.984375 36.375 
Q 56.984375 17.96875 50.515625 8.265625 
Q 44.046875 -1.421875 31.78125 -1.421875 
Q 19.53125 -1.421875 13.0625 8.265625 
Q 6.59375 17.96875 6.59375 36.375 
Q 6.59375 54.828125 13.0625 64.515625 
Q 19.53125 74.21875 31.78125 74.21875 
z
" id="DejaVuSans-48"/>
      </defs>
      <g style="fill:#262626;" transform="translate(93.06566 270.918437)scale(0.1 -0.1)">
       <use xlink:href="#DejaVuSans-8722"/>
       <use x="83.789062" xlink:href="#DejaVuSans-50"/>
       <use x="147.412109" xlink:href="#DejaVuSans-48"/>
      </g>
     </g>
    </g>
    <g id="xtick_3">
     <g id="line2d_3">
      <path clip-path="url(#pc56ad0807b)" d="M 141.009111 256.32 
L 141.009111 34.56 
" style="fill:none;stroke:#cccccc;stroke-linecap:round;stroke-width:0.8;"/>
     </g>
     <g id="text_3">
      <!-- −15 -->
      <defs>
       <path d="M 12.40625 8.296875 
L 28.515625 8.296875 
L 28.515625 63.921875 
L 10.984375 60.40625 
L 10.984375 69.390625 
L 28.421875 72.90625 
L 38.28125 72.90625 
L 38.28125 8.296875 
L 54.390625 8.296875 
L 54.390625 0 
L 12.40625 0 
z
" id="DejaVuSans-49"/>
      </defs>
      <g style="fill:#262626;" transform="translate(130.456768 270.918437)scale(0.1 -0.1)">
       <use xlink:href="#DejaVuSans-8722"/>
       <use x="83.789062" xlink:href="#DejaVuSans-49"/>
       <use x="147.412109" xlink:href="#DejaVuSans-53"/>
      </g>
     </g>
    </g>
    <g id="xtick_4">
     <g id="line2d_4">
      <path clip-path="url(#pc56ad0807b)" d="M 178.400219 256.32 
L 178.400219 34.56 
" style="fill:none;stroke:#cccccc;stroke-linecap:round;stroke-width:0.8;"/>
     </g>
     <g id="text_4">
      <!-- −10 -->
      <g style="fill:#262626;" transform="translate(167.847875 270.918437)scale(0.1 -0.1)">
       <use xlink:href="#DejaVuSans-8722"/>
       <use x="83.789062" xlink:href="#DejaVuSans-49"/>
       <use x="147.412109" xlink:href="#DejaVuSans-48"/>
      </g>
     </g>
    </g>
    <g id="xtick_5">
     <g id="line2d_5">
      <path clip-path="url(#pc56ad0807b)" d="M 215.791327 256.32 
L 215.791327 34.56 
" style="fill:none;stroke:#cccccc;stroke-linecap:round;stroke-width:0.8;"/>
     </g>
     <g id="text_5">
      <!-- −5 -->
      <g style="fill:#262626;" transform="translate(208.420233 270.918437)scale(0.1 -0.1)">
       <use xlink:href="#DejaVuSans-8722"/>
       <use x="83.789062" xlink:href="#DejaVuSans-53"/>
      </g>
     </g>
    </g>
    <g id="xtick_6">
     <g id="line2d_6">
      <path clip-path="url(#pc56ad0807b)" d="M 253.182434 256.32 
L 253.182434 34.56 
" style="fill:none;stroke:#cccccc;stroke-linecap:round;stroke-width:0.8;"/>
     </g>
     <g id="text_6">
      <!-- 0 -->
      <g style="fill:#262626;" transform="translate(250.001184 270.918437)scale(0.1 -0.1)">
       <use xlink:href="#DejaVuSans-48"/>
      </g>
     </g>
    </g>
    <g id="xtick_7">
     <g id="line2d_7">
      <path clip-path="url(#pc56ad0807b)" d="M 290.573542 256.32 
L 290.573542 34.56 
" style="fill:none;stroke:#cccccc;stroke-linecap:round;stroke-width:0.8;"/>
     </g>
     <g id="text_7">
      <!-- 5 -->
      <g style="fill:#262626;" transform="translate(287.392292 270.918437)scale(0.1 -0.1)">
       <use xlink:href="#DejaVuSans-53"/>
      </g>
     </g>
    </g>
    <g id="xtick_8">
     <g id="line2d_8">
      <path clip-path="url(#pc56ad0807b)" d="M 327.96465 256.32 
L 327.96465 34.56 
" style="fill:none;stroke:#cccccc;stroke-linecap:round;stroke-width:0.8;"/>
     </g>
     <g id="text_8">
      <!-- 10 -->
      <g style="fill:#262626;" transform="translate(321.60215 270.918437)scale(0.1 -0.1)">
       <use xlink:href="#DejaVuSans-49"/>
       <use x="63.623047" xlink:href="#DejaVuSans-48"/>
      </g>
     </g>
    </g>
    <g id="xtick_9">
     <g id="line2d_9">
      <path clip-path="url(#pc56ad0807b)" d="M 365.355757 256.32 
L 365.355757 34.56 
" style="fill:none;stroke:#cccccc;stroke-linecap:round;stroke-width:0.8;"/>
     </g>
     <g id="text_9">
      <!-- 15 -->
      <g style="fill:#262626;" transform="translate(358.993257 270.918437)scale(0.1 -0.1)">
       <use xlink:href="#DejaVuSans-49"/>
       <use x="63.623047" xlink:href="#DejaVuSans-53"/>
      </g>
     </g>
    </g>
   </g>
   <g id="matplotlib.axis_3">
    <g id="ytick_1">
     <g id="line2d_10">
      <path clip-path="url(#pc56ad0807b)" d="M 54 244.145168 
L 388.8 244.145168 
" style="fill:none;stroke:#cccccc;stroke-linecap:round;stroke-width:0.8;"/>
     </g>
     <g id="line2d_11">
      <defs>
       <path d="M 0 0 
L -3.5 0 
" id="m4c769c3bd5" style="stroke:#262626;stroke-width:0.8;"/>
      </defs>
      <g>
       <use style="fill:#262626;stroke:#262626;stroke-width:0.8;" x="54" xlink:href="#m4c769c3bd5" y="244.145168"/>
      </g>
     </g>
     <g id="text_10">
      <!-- −0.1 -->
      <defs>
       <path d="M 10.6875 12.40625 
L 21 12.40625 
L 21 0 
L 10.6875 0 
z
" id="DejaVuSans-46"/>
      </defs>
      <g style="fill:#262626;" transform="translate(22.717187 247.944387)scale(0.1 -0.1)">
       <use xlink:href="#DejaVuSans-8722"/>
       <use x="83.789062" xlink:href="#DejaVuSans-48"/>
       <use x="147.412109" xlink:href="#DejaVuSans-46"/>
       <use x="179.199219" xlink:href="#DejaVuSans-49"/>
      </g>
     </g>
    </g>
    <g id="ytick_2">
     <g id="line2d_12">
      <path clip-path="url(#pc56ad0807b)" d="M 54 201.639698 
L 388.8 201.639698 
" style="fill:none;stroke:#cccccc;stroke-linecap:round;stroke-width:0.8;"/>
     </g>
     <g id="line2d_13">
      <g>
       <use style="fill:#262626;stroke:#262626;stroke-width:0.8;" x="54" xlink:href="#m4c769c3bd5" y="201.639698"/>
      </g>
     </g>
     <g id="text_11">
      <!-- 0.0 -->
      <g style="fill:#262626;" transform="translate(31.096875 205.438917)scale(0.1 -0.1)">
       <use xlink:href="#DejaVuSans-48"/>
       <use x="63.623047" xlink:href="#DejaVuSans-46"/>
       <use x="95.410156" xlink:href="#DejaVuSans-48"/>
      </g>
     </g>
    </g>
    <g id="ytick_3">
     <g id="line2d_14">
      <path clip-path="url(#pc56ad0807b)" d="M 54 159.134228 
L 388.8 159.134228 
" style="fill:none;stroke:#cccccc;stroke-linecap:round;stroke-width:0.8;"/>
     </g>
     <g id="line2d_15">
      <g>
       <use style="fill:#262626;stroke:#262626;stroke-width:0.8;" x="54" xlink:href="#m4c769c3bd5" y="159.134228"/>
      </g>
     </g>
     <g id="text_12">
      <!-- 0.1 -->
      <g style="fill:#262626;" transform="translate(31.096875 162.933447)scale(0.1 -0.1)">
       <use xlink:href="#DejaVuSans-48"/>
       <use x="63.623047" xlink:href="#DejaVuSans-46"/>
       <use x="95.410156" xlink:href="#DejaVuSans-49"/>
      </g>
     </g>
    </g>
    <g id="ytick_4">
     <g id="line2d_16">
      <path clip-path="url(#pc56ad0807b)" d="M 54 116.628759 
L 388.8 116.628759 
" style="fill:none;stroke:#cccccc;stroke-linecap:round;stroke-width:0.8;"/>
     </g>
     <g id="line2d_17">
      <g>
       <use style="fill:#262626;stroke:#262626;stroke-width:0.8;" x="54" xlink:href="#m4c769c3bd5" y="116.628759"/>
      </g>
     </g>
     <g id="text_13">
      <!-- 0.2 -->
      <g style="fill:#262626;" transform="translate(31.096875 120.427977)scale(0.1 -0.1)">
       <use xlink:href="#DejaVuSans-48"/>
       <use x="63.623047" xlink:href="#DejaVuSans-46"/>
       <use x="95.410156" xlink:href="#DejaVuSans-50"/>
      </g>
     </g>
    </g>
    <g id="ytick_5">
     <g id="line2d_18">
      <path clip-path="url(#pc56ad0807b)" d="M 54 74.123289 
L 388.8 74.123289 
" style="fill:none;stroke:#cccccc;stroke-linecap:round;stroke-width:0.8;"/>
     </g>
     <g id="line2d_19">
      <g>
       <use style="fill:#262626;stroke:#262626;stroke-width:0.8;" x="54" xlink:href="#m4c769c3bd5" y="74.123289"/>
      </g>
     </g>
     <g id="text_14">
      <!-- 0.3 -->
      <defs>
       <path d="M 40.578125 39.3125 
Q 47.65625 37.796875 51.625 33 
Q 55.609375 28.21875 55.609375 21.1875 
Q 55.609375 10.40625 48.1875 4.484375 
Q 40.765625 -1.421875 27.09375 -1.421875 
Q 22.515625 -1.421875 17.65625 -0.515625 
Q 12.796875 0.390625 7.625 2.203125 
L 7.625 11.71875 
Q 11.71875 9.328125 16.59375 8.109375 
Q 21.484375 6.890625 26.8125 6.890625 
Q 36.078125 6.890625 40.9375 10.546875 
Q 45.796875 14.203125 45.796875 21.1875 
Q 45.796875 27.640625 41.28125 31.265625 
Q 36.765625 34.90625 28.71875 34.90625 
L 20.21875 34.90625 
L 20.21875 43.015625 
L 29.109375 43.015625 
Q 36.375 43.015625 40.234375 45.921875 
Q 44.09375 48.828125 44.09375 54.296875 
Q 44.09375 59.90625 40.109375 62.90625 
Q 36.140625 65.921875 28.71875 65.921875 
Q 24.65625 65.921875 20.015625 65.03125 
Q 15.375 64.15625 9.8125 62.3125 
L 9.8125 71.09375 
Q 15.4375 72.65625 20.34375 73.4375 
Q 25.25 74.21875 29.59375 74.21875 
Q 40.828125 74.21875 47.359375 69.109375 
Q 53.90625 64.015625 53.90625 55.328125 
Q 53.90625 49.265625 50.4375 45.09375 
Q 46.96875 40.921875 40.578125 39.3125 
z
" id="DejaVuSans-51"/>
      </defs>
      <g style="fill:#262626;" transform="translate(31.096875 77.922507)scale(0.1 -0.1)">
       <use xlink:href="#DejaVuSans-48"/>
       <use x="63.623047" xlink:href="#DejaVuSans-46"/>
       <use x="95.410156" xlink:href="#DejaVuSans-51"/>
      </g>
     </g>
    </g>
   </g>
   <g id="line2d_20">
    <path clip-path="url(#pc56ad0807b)" d="M 69.218182 246.24 
L 89.935626 236.027693 
L 107.606385 227.556018 
L 122.839798 220.489735 
L 136.245206 214.511359 
L 147.822608 209.583797 
L 158.18133 205.413237 
L 167.321379 201.970983 
L 175.242748 199.213958 
L 182.554792 196.900517 
L 188.952826 195.099856 
L 194.741523 193.689111 
L 200.225551 192.583019 
L 205.100245 191.824504 
L 209.67027 191.341045 
L 213.935625 191.123343 
L 217.896313 191.156609 
L 221.552335 191.419717 
L 224.903685 191.884611 
L 227.950369 192.516232 
L 230.997051 193.368923 
L 234.043734 194.463871 
L 236.785748 195.671906 
L 239.832432 197.272715 
L 242.879115 199.144458 
L 246.230466 201.48385 
L 255.675184 208.355792 
L 257.503193 209.281407 
L 259.026535 209.794126 
L 260.245208 209.989855 
L 261.463882 209.96256 
L 262.682554 209.68831 
L 263.901228 209.153301 
L 265.119901 208.358848 
L 266.643243 207.036243 
L 268.471253 205.104989 
L 271.213266 202.198422 
L 272.431941 201.271078 
L 273.345945 200.876304 
L 273.955282 200.799256 
L 274.564618 200.893882 
L 275.173955 201.169303 
L 276.697297 202.226661 
L 277.001966 202.060774 
L 277.306634 200.913318 
L 277.611302 198.000664 
L 278.829975 194.18281 
L 280.048648 189.412579 
L 281.267322 183.724815 
L 282.790663 175.47325 
L 284.618674 164.259634 
L 287.970022 141.90249 
L 291.016708 122.22647 
L 293.149383 110.003612 
L 294.977396 100.86736 
L 296.500735 94.245553 
L 298.024078 88.4988 
L 299.547421 83.566916 
L 301.07076 79.371059 
L 302.594103 75.824557 
L 304.117445 72.840738 
L 305.640785 70.337592 
L 307.164127 68.240417 
L 308.68747 66.483064 
L 310.515479 64.742381 
L 312.343488 63.324735 
L 314.476164 61.988162 
L 316.608847 60.911212 
L 319.350862 59.80139 
L 322.39754 58.813645 
L 326.662899 57.683997 
L 334.584275 55.879597 
L 344.638327 53.523027 
L 352.255034 51.500655 
L 359.871741 49.243995 
L 367.793117 46.662575 
L 373.581818 44.64 
L 373.581818 44.64 
" style="fill:none;stroke:#0000ff;stroke-linecap:round;stroke-width:1.5;"/>
   </g>
   <g id="patch_135">
    <path d="M 54 256.32 
L 54 34.56 
" style="fill:none;stroke:#cccccc;stroke-linecap:square;stroke-linejoin:miter;stroke-width:0.8;"/>
   </g>
   <g id="patch_136">
    <path d="M 388.8 256.32 
L 388.8 34.56 
" style="fill:none;stroke:#cccccc;stroke-linecap:square;stroke-linejoin:miter;stroke-width:0.8;"/>
   </g>
   <g id="patch_137">
    <path d="M 54 256.32 
L 388.8 256.32 
" style="fill:none;stroke:#cccccc;stroke-linecap:square;stroke-linejoin:miter;stroke-width:0.8;"/>
   </g>
   <g id="patch_138">
    <path d="M 54 34.56 
L 388.8 34.56 
" style="fill:none;stroke:#cccccc;stroke-linecap:square;stroke-linejoin:miter;stroke-width:0.8;"/>
   </g>
   <g id="legend_1">
    <g id="patch_139">
     <path d="M 61 57.238125 
L 117.760937 57.238125 
Q 119.760937 57.238125 119.760937 55.238125 
L 119.760937 41.56 
Q 119.760937 39.56 117.760937 39.56 
L 61 39.56 
Q 59 39.56 59 41.56 
L 59 55.238125 
Q 59 57.238125 61 57.238125 
z
" style="fill:#ffffff;opacity:0.8;stroke:#cccccc;stroke-linejoin:miter;"/>
    </g>
    <g id="line2d_21">
     <path d="M 63 47.658438 
L 83 47.658438 
" style="fill:none;stroke:#0000ff;stroke-linecap:round;stroke-width:1.5;"/>
    </g>
    <g id="line2d_22"/>
    <g id="text_15">
     <!-- sPAU -->
     <defs>
      <path d="M 44.28125 53.078125 
L 44.28125 44.578125 
Q 40.484375 46.53125 36.375 47.5 
Q 32.28125 48.484375 27.875 48.484375 
Q 21.1875 48.484375 17.84375 46.4375 
Q 14.5 44.390625 14.5 40.28125 
Q 14.5 37.15625 16.890625 35.375 
Q 19.28125 33.59375 26.515625 31.984375 
L 29.59375 31.296875 
Q 39.15625 29.25 43.1875 25.515625 
Q 47.21875 21.78125 47.21875 15.09375 
Q 47.21875 7.46875 41.1875 3.015625 
Q 35.15625 -1.421875 24.609375 -1.421875 
Q 20.21875 -1.421875 15.453125 -0.5625 
Q 10.6875 0.296875 5.421875 2 
L 5.421875 11.28125 
Q 10.40625 8.6875 15.234375 7.390625 
Q 20.0625 6.109375 24.8125 6.109375 
Q 31.15625 6.109375 34.5625 8.28125 
Q 37.984375 10.453125 37.984375 14.40625 
Q 37.984375 18.0625 35.515625 20.015625 
Q 33.0625 21.96875 24.703125 23.78125 
L 21.578125 24.515625 
Q 13.234375 26.265625 9.515625 29.90625 
Q 5.8125 33.546875 5.8125 39.890625 
Q 5.8125 47.609375 11.28125 51.796875 
Q 16.75 56 26.8125 56 
Q 31.78125 56 36.171875 55.265625 
Q 40.578125 54.546875 44.28125 53.078125 
z
" id="DejaVuSans-115"/>
      <path d="M 19.671875 64.796875 
L 19.671875 37.40625 
L 32.078125 37.40625 
Q 38.96875 37.40625 42.71875 40.96875 
Q 46.484375 44.53125 46.484375 51.125 
Q 46.484375 57.671875 42.71875 61.234375 
Q 38.96875 64.796875 32.078125 64.796875 
z
M 9.8125 72.90625 
L 32.078125 72.90625 
Q 44.34375 72.90625 50.609375 67.359375 
Q 56.890625 61.8125 56.890625 51.125 
Q 56.890625 40.328125 50.609375 34.8125 
Q 44.34375 29.296875 32.078125 29.296875 
L 19.671875 29.296875 
L 19.671875 0 
L 9.8125 0 
z
" id="DejaVuSans-80"/>
      <path d="M 34.1875 63.1875 
L 20.796875 26.90625 
L 47.609375 26.90625 
z
M 28.609375 72.90625 
L 39.796875 72.90625 
L 67.578125 0 
L 57.328125 0 
L 50.6875 18.703125 
L 17.828125 18.703125 
L 11.1875 0 
L 0.78125 0 
z
" id="DejaVuSans-65"/>
      <path d="M 8.6875 72.90625 
L 18.609375 72.90625 
L 18.609375 28.609375 
Q 18.609375 16.890625 22.84375 11.734375 
Q 27.09375 6.59375 36.625 6.59375 
Q 46.09375 6.59375 50.34375 11.734375 
Q 54.59375 16.890625 54.59375 28.609375 
L 54.59375 72.90625 
L 64.5 72.90625 
L 64.5 27.390625 
Q 64.5 13.140625 57.4375 5.859375 
Q 50.390625 -1.421875 36.625 -1.421875 
Q 22.796875 -1.421875 15.734375 5.859375 
Q 8.6875 13.140625 8.6875 27.390625 
z
" id="DejaVuSans-85"/>
     </defs>
     <g style="fill:#262626;" transform="translate(91 51.158438)scale(0.1 -0.1)">
      <use xlink:href="#DejaVuSans-115"/>
      <use x="52.099609" xlink:href="#DejaVuSans-80"/>
      <use x="106.027344" xlink:href="#DejaVuSans-65"/>
      <use x="174.435547" xlink:href="#DejaVuSans-85"/>
     </g>
    </g>
   </g>
  </g>
 </g>
 <defs>
  <clipPath id="pc56ad0807b">
   <rect height="221.76" width="334.8" x="54" y="34.56"/>
  </clipPath>
 </defs>
</svg>
