<?xml version="1.0" encoding="utf-8" standalone="no"?>
<!DOCTYPE svg PUBLIC "-//W3C//DTD SVG 1.1//EN"
  "http://www.w3.org/Graphics/SVG/1.1/DTD/svg11.dtd">
<!-- Created with matplotlib (https://matplotlib.org/) -->
<svg height="108pt" version="1.1" viewBox="0 0 216 108" width="216pt" xmlns="http://www.w3.org/2000/svg" xmlns:xlink="http://www.w3.org/1999/xlink">
 <defs>
  <style type="text/css">
*{stroke-linecap:butt;stroke-linejoin:round;}
  </style>
 </defs>
 <g id="figure_1">
  <g id="patch_1">
   <path d="M 0 108 
L 216 108 
L 216 0 
L 0 0 
z
" style="fill:#ffffff;"/>
  </g>
  <g id="axes_1">
   <g id="matplotlib.axis_1"/>
   <g id="patch_2">
    <path clip-path="url(#pcef269eb6c)" d="M 71.308431 96.12 
L 71.591824 96.12 
L 71.591824 94.137263 
L 71.308431 94.137263 
z
" style="fill:#808080;fill-opacity:0.6;stroke:#808080;stroke-linejoin:miter;stroke-opacity:0.6;"/>
   </g>
   <g id="patch_3">
    <path clip-path="url(#pcef269eb6c)" d="M 71.875216 96.12 
L 72.158609 96.12 
L 72.158609 94.011161 
L 71.875216 94.011161 
z
" style="fill:#808080;fill-opacity:0.6;stroke:#808080;stroke-linejoin:miter;stroke-opacity:0.6;"/>
   </g>
   <g id="patch_4">
    <path clip-path="url(#pcef269eb6c)" d="M 75.275927 96.12 
L 75.55932 96.12 
L 75.55932 94.20994 
L 75.275927 94.20994 
z
" style="fill:#808080;fill-opacity:0.6;stroke:#808080;stroke-linejoin:miter;stroke-opacity:0.6;"/>
   </g>
   <g id="patch_5">
    <path clip-path="url(#pcef269eb6c)" d="M 76.976282 96.12 
L 77.259675 96.12 
L 77.259675 92.887553 
L 76.976282 92.887553 
z
" style="fill:#808080;fill-opacity:0.6;stroke:#808080;stroke-linejoin:miter;stroke-opacity:0.6;"/>
   </g>
   <g id="patch_6">
    <path clip-path="url(#pcef269eb6c)" d="M 82.927526 96.12 
L 83.210919 96.12 
L 83.210919 92.830639 
L 82.927526 92.830639 
z
" style="fill:#808080;fill-opacity:0.6;stroke:#808080;stroke-linejoin:miter;stroke-opacity:0.6;"/>
   </g>
   <g id="patch_7">
    <path clip-path="url(#pcef269eb6c)" d="M 83.494312 96.12 
L 83.777704 96.12 
L 83.777704 94.172398 
L 83.494312 94.172398 
z
" style="fill:#808080;fill-opacity:0.6;stroke:#808080;stroke-linejoin:miter;stroke-opacity:0.6;"/>
   </g>
   <g id="patch_8">
    <path clip-path="url(#pcef269eb6c)" d="M 84.627882 96.12 
L 84.911274 96.12 
L 84.911274 92.836896 
L 84.627882 92.836896 
z
" style="fill:#808080;fill-opacity:0.6;stroke:#808080;stroke-linejoin:miter;stroke-opacity:0.6;"/>
   </g>
   <g id="patch_9">
    <path clip-path="url(#pcef269eb6c)" d="M 86.044845 96.12 
L 86.328237 96.12 
L 86.328237 94.158079 
L 86.044845 94.158079 
z
" style="fill:#808080;fill-opacity:0.6;stroke:#808080;stroke-linejoin:miter;stroke-opacity:0.6;"/>
   </g>
   <g id="patch_10">
    <path clip-path="url(#pcef269eb6c)" d="M 86.328237 96.12 
L 86.61163 96.12 
L 86.61163 93.532382 
L 86.328237 93.532382 
z
" style="fill:#808080;fill-opacity:0.6;stroke:#808080;stroke-linejoin:miter;stroke-opacity:0.6;"/>
   </g>
   <g id="patch_11">
    <path clip-path="url(#pcef269eb6c)" d="M 87.178415 96.12 
L 87.461808 96.12 
L 87.461808 93.806846 
L 87.178415 93.806846 
z
" style="fill:#808080;fill-opacity:0.6;stroke:#808080;stroke-linejoin:miter;stroke-opacity:0.6;"/>
   </g>
   <g id="patch_12">
    <path clip-path="url(#pcef269eb6c)" d="M 88.028593 96.12 
L 88.311985 96.12 
L 88.311985 94.03679 
L 88.028593 94.03679 
z
" style="fill:#808080;fill-opacity:0.6;stroke:#808080;stroke-linejoin:miter;stroke-opacity:0.6;"/>
   </g>
   <g id="patch_13">
    <path clip-path="url(#pcef269eb6c)" d="M 88.311985 96.12 
L 88.595378 96.12 
L 88.595378 94.046777 
L 88.311985 94.046777 
z
" style="fill:#808080;fill-opacity:0.6;stroke:#808080;stroke-linejoin:miter;stroke-opacity:0.6;"/>
   </g>
   <g id="patch_14">
    <path clip-path="url(#pcef269eb6c)" d="M 88.595378 96.12 
L 88.87877 96.12 
L 88.87877 94.029931 
L 88.595378 94.029931 
z
" style="fill:#808080;fill-opacity:0.6;stroke:#808080;stroke-linejoin:miter;stroke-opacity:0.6;"/>
   </g>
   <g id="patch_15">
    <path clip-path="url(#pcef269eb6c)" d="M 89.445556 96.12 
L 89.728948 96.12 
L 89.728948 92.763256 
L 89.445556 92.763256 
z
" style="fill:#808080;fill-opacity:0.6;stroke:#808080;stroke-linejoin:miter;stroke-opacity:0.6;"/>
   </g>
   <g id="patch_16">
    <path clip-path="url(#pcef269eb6c)" d="M 91.145911 96.12 
L 91.429304 96.12 
L 91.429304 93.897212 
L 91.145911 93.897212 
z
" style="fill:#808080;fill-opacity:0.6;stroke:#808080;stroke-linejoin:miter;stroke-opacity:0.6;"/>
   </g>
   <g id="patch_17">
    <path clip-path="url(#pcef269eb6c)" d="M 91.996089 96.12 
L 92.279481 96.12 
L 92.279481 94.127035 
L 91.996089 94.127035 
z
" style="fill:#808080;fill-opacity:0.6;stroke:#808080;stroke-linejoin:miter;stroke-opacity:0.6;"/>
   </g>
   <g id="patch_18">
    <path clip-path="url(#pcef269eb6c)" d="M 93.413052 96.12 
L 93.696444 96.12 
L 93.696444 94.179978 
L 93.413052 94.179978 
z
" style="fill:#808080;fill-opacity:0.6;stroke:#808080;stroke-linejoin:miter;stroke-opacity:0.6;"/>
   </g>
   <g id="patch_19">
    <path clip-path="url(#pcef269eb6c)" d="M 94.263229 96.12 
L 94.546622 96.12 
L 94.546622 94.121861 
L 94.263229 94.121861 
z
" style="fill:#808080;fill-opacity:0.6;stroke:#808080;stroke-linejoin:miter;stroke-opacity:0.6;"/>
   </g>
   <g id="patch_20">
    <path clip-path="url(#pcef269eb6c)" d="M 94.830014 96.12 
L 95.113407 96.12 
L 95.113407 92.76855 
L 94.830014 92.76855 
z
" style="fill:#808080;fill-opacity:0.6;stroke:#808080;stroke-linejoin:miter;stroke-opacity:0.6;"/>
   </g>
   <g id="patch_21">
    <path clip-path="url(#pcef269eb6c)" d="M 95.113407 96.12 
L 95.3968 96.12 
L 95.3968 94.259394 
L 95.113407 94.259394 
z
" style="fill:#808080;fill-opacity:0.6;stroke:#808080;stroke-linejoin:miter;stroke-opacity:0.6;"/>
   </g>
   <g id="patch_22">
    <path clip-path="url(#pcef269eb6c)" d="M 95.3968 96.12 
L 95.680192 96.12 
L 95.680192 92.739552 
L 95.3968 92.739552 
z
" style="fill:#808080;fill-opacity:0.6;stroke:#808080;stroke-linejoin:miter;stroke-opacity:0.6;"/>
   </g>
   <g id="patch_23">
    <path clip-path="url(#pcef269eb6c)" d="M 95.963585 96.12 
L 96.246977 96.12 
L 96.246977 92.66531 
L 95.963585 92.66531 
z
" style="fill:#808080;fill-opacity:0.6;stroke:#808080;stroke-linejoin:miter;stroke-opacity:0.6;"/>
   </g>
   <g id="patch_24">
    <path clip-path="url(#pcef269eb6c)" d="M 96.813762 96.12 
L 97.097155 96.12 
L 97.097155 93.861836 
L 96.813762 93.861836 
z
" style="fill:#808080;fill-opacity:0.6;stroke:#808080;stroke-linejoin:miter;stroke-opacity:0.6;"/>
   </g>
   <g id="patch_25">
    <path clip-path="url(#pcef269eb6c)" d="M 97.097155 96.12 
L 97.380548 96.12 
L 97.380548 93.899498 
L 97.097155 93.899498 
z
" style="fill:#808080;fill-opacity:0.6;stroke:#808080;stroke-linejoin:miter;stroke-opacity:0.6;"/>
   </g>
   <g id="patch_26">
    <path clip-path="url(#pcef269eb6c)" d="M 98.230725 96.12 
L 98.514118 96.12 
L 98.514118 92.749659 
L 98.230725 92.749659 
z
" style="fill:#808080;fill-opacity:0.6;stroke:#808080;stroke-linejoin:miter;stroke-opacity:0.6;"/>
   </g>
   <g id="patch_27">
    <path clip-path="url(#pcef269eb6c)" d="M 98.79751 96.12 
L 99.080903 96.12 
L 99.080903 93.938243 
L 98.79751 93.938243 
z
" style="fill:#808080;fill-opacity:0.6;stroke:#808080;stroke-linejoin:miter;stroke-opacity:0.6;"/>
   </g>
   <g id="patch_28">
    <path clip-path="url(#pcef269eb6c)" d="M 99.364296 96.12 
L 99.647688 96.12 
L 99.647688 94.057968 
L 99.364296 94.057968 
z
" style="fill:#808080;fill-opacity:0.6;stroke:#808080;stroke-linejoin:miter;stroke-opacity:0.6;"/>
   </g>
   <g id="patch_29">
    <path clip-path="url(#pcef269eb6c)" d="M 99.931081 96.12 
L 100.214473 96.12 
L 100.214473 92.580841 
L 99.931081 92.580841 
z
" style="fill:#808080;fill-opacity:0.6;stroke:#808080;stroke-linejoin:miter;stroke-opacity:0.6;"/>
   </g>
   <g id="patch_30">
    <path clip-path="url(#pcef269eb6c)" d="M 100.214473 96.12 
L 100.497866 96.12 
L 100.497866 93.867611 
L 100.214473 93.867611 
z
" style="fill:#808080;fill-opacity:0.6;stroke:#808080;stroke-linejoin:miter;stroke-opacity:0.6;"/>
   </g>
   <g id="patch_31">
    <path clip-path="url(#pcef269eb6c)" d="M 100.497866 96.12 
L 100.781258 96.12 
L 100.781258 94.18804 
L 100.497866 94.18804 
z
" style="fill:#808080;fill-opacity:0.6;stroke:#808080;stroke-linejoin:miter;stroke-opacity:0.6;"/>
   </g>
   <g id="patch_32">
    <path clip-path="url(#pcef269eb6c)" d="M 101.914829 96.12 
L 102.198221 96.12 
L 102.198221 92.544142 
L 101.914829 92.544142 
z
" style="fill:#808080;fill-opacity:0.6;stroke:#808080;stroke-linejoin:miter;stroke-opacity:0.6;"/>
   </g>
   <g id="patch_33">
    <path clip-path="url(#pcef269eb6c)" d="M 102.481614 96.12 
L 102.765006 96.12 
L 102.765006 92.924854 
L 102.481614 92.924854 
z
" style="fill:#808080;fill-opacity:0.6;stroke:#808080;stroke-linejoin:miter;stroke-opacity:0.6;"/>
   </g>
   <g id="patch_34">
    <path clip-path="url(#pcef269eb6c)" d="M 103.331792 96.12 
L 103.615184 96.12 
L 103.615184 93.556447 
L 103.331792 93.556447 
z
" style="fill:#808080;fill-opacity:0.6;stroke:#808080;stroke-linejoin:miter;stroke-opacity:0.6;"/>
   </g>
   <g id="patch_35">
    <path clip-path="url(#pcef269eb6c)" d="M 103.615184 96.12 
L 103.898577 96.12 
L 103.898577 94.210662 
L 103.615184 94.210662 
z
" style="fill:#808080;fill-opacity:0.6;stroke:#808080;stroke-linejoin:miter;stroke-opacity:0.6;"/>
   </g>
   <g id="patch_36">
    <path clip-path="url(#pcef269eb6c)" d="M 103.898577 96.12 
L 104.181969 96.12 
L 104.181969 93.59074 
L 103.898577 93.59074 
z
" style="fill:#808080;fill-opacity:0.6;stroke:#808080;stroke-linejoin:miter;stroke-opacity:0.6;"/>
   </g>
   <g id="patch_37">
    <path clip-path="url(#pcef269eb6c)" d="M 104.181969 96.12 
L 104.465362 96.12 
L 104.465362 93.47619 
L 104.181969 93.47619 
z
" style="fill:#808080;fill-opacity:0.6;stroke:#808080;stroke-linejoin:miter;stroke-opacity:0.6;"/>
   </g>
   <g id="patch_38">
    <path clip-path="url(#pcef269eb6c)" d="M 104.465362 96.12 
L 104.748754 96.12 
L 104.748754 92.753389 
L 104.465362 92.753389 
z
" style="fill:#808080;fill-opacity:0.6;stroke:#808080;stroke-linejoin:miter;stroke-opacity:0.6;"/>
   </g>
   <g id="patch_39">
    <path clip-path="url(#pcef269eb6c)" d="M 105.032147 96.12 
L 105.31554 96.12 
L 105.31554 93.315674 
L 105.032147 93.315674 
z
" style="fill:#808080;fill-opacity:0.6;stroke:#808080;stroke-linejoin:miter;stroke-opacity:0.6;"/>
   </g>
   <g id="patch_40">
    <path clip-path="url(#pcef269eb6c)" d="M 105.598932 96.12 
L 105.882325 96.12 
L 105.882325 93.367054 
L 105.598932 93.367054 
z
" style="fill:#808080;fill-opacity:0.6;stroke:#808080;stroke-linejoin:miter;stroke-opacity:0.6;"/>
   </g>
   <g id="patch_41">
    <path clip-path="url(#pcef269eb6c)" d="M 105.882325 96.12 
L 106.165717 96.12 
L 106.165717 92.65039 
L 105.882325 92.65039 
z
" style="fill:#808080;fill-opacity:0.6;stroke:#808080;stroke-linejoin:miter;stroke-opacity:0.6;"/>
   </g>
   <g id="patch_42">
    <path clip-path="url(#pcef269eb6c)" d="M 106.165717 96.12 
L 106.44911 96.12 
L 106.44911 92.235144 
L 106.165717 92.235144 
z
" style="fill:#808080;fill-opacity:0.6;stroke:#808080;stroke-linejoin:miter;stroke-opacity:0.6;"/>
   </g>
   <g id="patch_43">
    <path clip-path="url(#pcef269eb6c)" d="M 106.44911 96.12 
L 106.732502 96.12 
L 106.732502 93.326865 
L 106.44911 93.326865 
z
" style="fill:#808080;fill-opacity:0.6;stroke:#808080;stroke-linejoin:miter;stroke-opacity:0.6;"/>
   </g>
   <g id="patch_44">
    <path clip-path="url(#pcef269eb6c)" d="M 106.732502 96.12 
L 107.015895 96.12 
L 107.015895 92.113855 
L 106.732502 92.113855 
z
" style="fill:#808080;fill-opacity:0.6;stroke:#808080;stroke-linejoin:miter;stroke-opacity:0.6;"/>
   </g>
   <g id="patch_45">
    <path clip-path="url(#pcef269eb6c)" d="M 107.299288 96.12 
L 107.58268 96.12 
L 107.58268 93.517341 
L 107.299288 93.517341 
z
" style="fill:#808080;fill-opacity:0.6;stroke:#808080;stroke-linejoin:miter;stroke-opacity:0.6;"/>
   </g>
   <g id="patch_46">
    <path clip-path="url(#pcef269eb6c)" d="M 107.58268 96.12 
L 107.866073 96.12 
L 107.866073 93.239869 
L 107.58268 93.239869 
z
" style="fill:#808080;fill-opacity:0.6;stroke:#808080;stroke-linejoin:miter;stroke-opacity:0.6;"/>
   </g>
   <g id="patch_47">
    <path clip-path="url(#pcef269eb6c)" d="M 108.149465 96.12 
L 108.432858 96.12 
L 108.432858 93.206899 
L 108.149465 93.206899 
z
" style="fill:#808080;fill-opacity:0.6;stroke:#808080;stroke-linejoin:miter;stroke-opacity:0.6;"/>
   </g>
   <g id="patch_48">
    <path clip-path="url(#pcef269eb6c)" d="M 108.71625 96.12 
L 108.999643 96.12 
L 108.999643 92.969375 
L 108.71625 92.969375 
z
" style="fill:#808080;fill-opacity:0.6;stroke:#808080;stroke-linejoin:miter;stroke-opacity:0.6;"/>
   </g>
   <g id="patch_49">
    <path clip-path="url(#pcef269eb6c)" d="M 108.999643 96.12 
L 109.283036 96.12 
L 109.283036 93.385704 
L 108.999643 93.385704 
z
" style="fill:#808080;fill-opacity:0.6;stroke:#808080;stroke-linejoin:miter;stroke-opacity:0.6;"/>
   </g>
   <g id="patch_50">
    <path clip-path="url(#pcef269eb6c)" d="M 109.566428 96.12 
L 109.849821 96.12 
L 109.849821 93.342627 
L 109.566428 93.342627 
z
" style="fill:#808080;fill-opacity:0.6;stroke:#808080;stroke-linejoin:miter;stroke-opacity:0.6;"/>
   </g>
   <g id="patch_51">
    <path clip-path="url(#pcef269eb6c)" d="M 110.416606 96.12 
L 110.699998 96.12 
L 110.699998 93.631411 
L 110.416606 93.631411 
z
" style="fill:#808080;fill-opacity:0.6;stroke:#808080;stroke-linejoin:miter;stroke-opacity:0.6;"/>
   </g>
   <g id="patch_52">
    <path clip-path="url(#pcef269eb6c)" d="M 110.699998 96.12 
L 110.983391 96.12 
L 110.983391 93.587251 
L 110.699998 93.587251 
z
" style="fill:#808080;fill-opacity:0.6;stroke:#808080;stroke-linejoin:miter;stroke-opacity:0.6;"/>
   </g>
   <g id="patch_53">
    <path clip-path="url(#pcef269eb6c)" d="M 111.833569 96.12 
L 112.116961 96.12 
L 112.116961 94.06615 
L 111.833569 94.06615 
z
" style="fill:#808080;fill-opacity:0.6;stroke:#808080;stroke-linejoin:miter;stroke-opacity:0.6;"/>
   </g>
   <g id="patch_54">
    <path clip-path="url(#pcef269eb6c)" d="M 112.400354 96.12 
L 112.683746 96.12 
L 112.683746 93.525403 
L 112.400354 93.525403 
z
" style="fill:#808080;fill-opacity:0.6;stroke:#808080;stroke-linejoin:miter;stroke-opacity:0.6;"/>
   </g>
   <g id="patch_55">
    <path clip-path="url(#pcef269eb6c)" d="M 114.100709 96.12 
L 114.384102 96.12 
L 114.384102 93.858466 
L 114.100709 93.858466 
z
" style="fill:#808080;fill-opacity:0.6;stroke:#808080;stroke-linejoin:miter;stroke-opacity:0.6;"/>
   </g>
   <g id="patch_56">
    <path clip-path="url(#pcef269eb6c)" d="M 114.384102 96.12 
L 114.667494 96.12 
L 114.667494 93.686039 
L 114.384102 93.686039 
z
" style="fill:#808080;fill-opacity:0.6;stroke:#808080;stroke-linejoin:miter;stroke-opacity:0.6;"/>
   </g>
   <g id="patch_57">
    <path clip-path="url(#pcef269eb6c)" d="M 116.084457 96.12 
L 116.36785 96.12 
L 116.36785 93.467406 
L 116.084457 93.467406 
z
" style="fill:#808080;fill-opacity:0.6;stroke:#808080;stroke-linejoin:miter;stroke-opacity:0.6;"/>
   </g>
   <g id="patch_58">
    <path clip-path="url(#pcef269eb6c)" d="M 116.36785 96.12 
L 116.651242 96.12 
L 116.651242 93.7456 
L 116.36785 93.7456 
z
" style="fill:#808080;fill-opacity:0.6;stroke:#808080;stroke-linejoin:miter;stroke-opacity:0.6;"/>
   </g>
   <g id="patch_59">
    <path clip-path="url(#pcef269eb6c)" d="M 116.651242 96.12 
L 116.934635 96.12 
L 116.934635 92.507322 
L 116.651242 92.507322 
z
" style="fill:#808080;fill-opacity:0.6;stroke:#808080;stroke-linejoin:miter;stroke-opacity:0.6;"/>
   </g>
   <g id="patch_60">
    <path clip-path="url(#pcef269eb6c)" d="M 118.351598 96.12 
L 118.63499 96.12 
L 118.63499 94.233283 
L 118.351598 94.233283 
z
" style="fill:#808080;fill-opacity:0.6;stroke:#808080;stroke-linejoin:miter;stroke-opacity:0.6;"/>
   </g>
   <g id="patch_61">
    <path clip-path="url(#pcef269eb6c)" d="M 118.63499 96.12 
L 118.918383 96.12 
L 118.918383 93.925127 
L 118.63499 93.925127 
z
" style="fill:#808080;fill-opacity:0.6;stroke:#808080;stroke-linejoin:miter;stroke-opacity:0.6;"/>
   </g>
   <g id="patch_62">
    <path clip-path="url(#pcef269eb6c)" d="M 118.918383 96.12 
L 119.201776 96.12 
L 119.201776 90.118483 
L 118.918383 90.118483 
z
" style="fill:#808080;fill-opacity:0.6;stroke:#808080;stroke-linejoin:miter;stroke-opacity:0.6;"/>
   </g>
   <g id="patch_63">
    <path clip-path="url(#pcef269eb6c)" d="M 120.902131 96.12 
L 121.185524 96.12 
L 121.185524 92.445715 
L 120.902131 92.445715 
z
" style="fill:#808080;fill-opacity:0.6;stroke:#808080;stroke-linejoin:miter;stroke-opacity:0.6;"/>
   </g>
   <g id="patch_64">
    <path clip-path="url(#pcef269eb6c)" d="M 124.302842 96.12 
L 124.586234 96.12 
L 124.586234 91.558428 
L 124.302842 91.558428 
z
" style="fill:#808080;fill-opacity:0.6;stroke:#808080;stroke-linejoin:miter;stroke-opacity:0.6;"/>
   </g>
   <g id="patch_65">
    <path clip-path="url(#pcef269eb6c)" d="M 124.586234 96.12 
L 124.869627 96.12 
L 124.869627 93.729236 
L 124.586234 93.729236 
z
" style="fill:#808080;fill-opacity:0.6;stroke:#808080;stroke-linejoin:miter;stroke-opacity:0.6;"/>
   </g>
   <g id="patch_66">
    <path clip-path="url(#pcef269eb6c)" d="M 125.719805 96.12 
L 126.003197 96.12 
L 126.003197 93.858587 
L 125.719805 93.858587 
z
" style="fill:#808080;fill-opacity:0.6;stroke:#808080;stroke-linejoin:miter;stroke-opacity:0.6;"/>
   </g>
   <g id="patch_67">
    <path clip-path="url(#pcef269eb6c)" d="M 128.270338 96.12 
L 128.55373 96.12 
L 128.55373 93.909364 
L 128.270338 93.909364 
z
" style="fill:#808080;fill-opacity:0.6;stroke:#808080;stroke-linejoin:miter;stroke-opacity:0.6;"/>
   </g>
   <g id="patch_68">
    <path clip-path="url(#pcef269eb6c)" d="M 129.120515 96.12 
L 129.403908 96.12 
L 129.403908 93.504948 
L 129.120515 93.504948 
z
" style="fill:#808080;fill-opacity:0.6;stroke:#808080;stroke-linejoin:miter;stroke-opacity:0.6;"/>
   </g>
   <g id="patch_69">
    <path clip-path="url(#pcef269eb6c)" d="M 129.403908 96.12 
L 129.687301 96.12 
L 129.687301 92.668198 
L 129.403908 92.668198 
z
" style="fill:#808080;fill-opacity:0.6;stroke:#808080;stroke-linejoin:miter;stroke-opacity:0.6;"/>
   </g>
   <g id="patch_70">
    <path clip-path="url(#pcef269eb6c)" d="M 129.687301 96.12 
L 129.970693 96.12 
L 129.970693 94.044852 
L 129.687301 94.044852 
z
" style="fill:#808080;fill-opacity:0.6;stroke:#808080;stroke-linejoin:miter;stroke-opacity:0.6;"/>
   </g>
   <g id="patch_71">
    <path clip-path="url(#pcef269eb6c)" d="M 129.970693 96.12 
L 130.254086 96.12 
L 130.254086 93.994556 
L 129.970693 93.994556 
z
" style="fill:#808080;fill-opacity:0.6;stroke:#808080;stroke-linejoin:miter;stroke-opacity:0.6;"/>
   </g>
   <g id="patch_72">
    <path clip-path="url(#pcef269eb6c)" d="M 130.254086 96.12 
L 130.537478 96.12 
L 130.537478 92.253193 
L 130.254086 92.253193 
z
" style="fill:#808080;fill-opacity:0.6;stroke:#808080;stroke-linejoin:miter;stroke-opacity:0.6;"/>
   </g>
   <g id="patch_73">
    <path clip-path="url(#pcef269eb6c)" d="M 130.537478 96.12 
L 130.820871 96.12 
L 130.820871 91.539778 
L 130.537478 91.539778 
z
" style="fill:#808080;fill-opacity:0.6;stroke:#808080;stroke-linejoin:miter;stroke-opacity:0.6;"/>
   </g>
   <g id="patch_74">
    <path clip-path="url(#pcef269eb6c)" d="M 130.820871 96.12 
L 131.104263 96.12 
L 131.104263 92.316725 
L 130.820871 92.316725 
z
" style="fill:#808080;fill-opacity:0.6;stroke:#808080;stroke-linejoin:miter;stroke-opacity:0.6;"/>
   </g>
   <g id="patch_75">
    <path clip-path="url(#pcef269eb6c)" d="M 131.104263 96.12 
L 131.387656 96.12 
L 131.387656 92.516346 
L 131.104263 92.516346 
z
" style="fill:#808080;fill-opacity:0.6;stroke:#808080;stroke-linejoin:miter;stroke-opacity:0.6;"/>
   </g>
   <g id="patch_76">
    <path clip-path="url(#pcef269eb6c)" d="M 131.387656 96.12 
L 131.671049 96.12 
L 131.671049 93.893361 
L 131.387656 93.893361 
z
" style="fill:#808080;fill-opacity:0.6;stroke:#808080;stroke-linejoin:miter;stroke-opacity:0.6;"/>
   </g>
   <g id="patch_77">
    <path clip-path="url(#pcef269eb6c)" d="M 131.671049 96.12 
L 131.954441 96.12 
L 131.954441 93.023642 
L 131.671049 93.023642 
z
" style="fill:#808080;fill-opacity:0.6;stroke:#808080;stroke-linejoin:miter;stroke-opacity:0.6;"/>
   </g>
   <g id="patch_78">
    <path clip-path="url(#pcef269eb6c)" d="M 131.954441 96.12 
L 132.237834 96.12 
L 132.237834 91.447488 
L 131.954441 91.447488 
z
" style="fill:#808080;fill-opacity:0.6;stroke:#808080;stroke-linejoin:miter;stroke-opacity:0.6;"/>
   </g>
   <g id="patch_79">
    <path clip-path="url(#pcef269eb6c)" d="M 132.237834 96.12 
L 132.521226 96.12 
L 132.521226 92.368826 
L 132.237834 92.368826 
z
" style="fill:#808080;fill-opacity:0.6;stroke:#808080;stroke-linejoin:miter;stroke-opacity:0.6;"/>
   </g>
   <g id="patch_80">
    <path clip-path="url(#pcef269eb6c)" d="M 132.521226 96.12 
L 132.804619 96.12 
L 132.804619 91.919167 
L 132.521226 91.919167 
z
" style="fill:#808080;fill-opacity:0.6;stroke:#808080;stroke-linejoin:miter;stroke-opacity:0.6;"/>
   </g>
   <g id="patch_81">
    <path clip-path="url(#pcef269eb6c)" d="M 132.804619 96.12 
L 133.088011 96.12 
L 133.088011 92.084856 
L 132.804619 92.084856 
z
" style="fill:#808080;fill-opacity:0.6;stroke:#808080;stroke-linejoin:miter;stroke-opacity:0.6;"/>
   </g>
   <g id="patch_82">
    <path clip-path="url(#pcef269eb6c)" d="M 133.088011 96.12 
L 133.371404 96.12 
L 133.371404 92.353304 
L 133.088011 92.353304 
z
" style="fill:#808080;fill-opacity:0.6;stroke:#808080;stroke-linejoin:miter;stroke-opacity:0.6;"/>
   </g>
   <g id="patch_83">
    <path clip-path="url(#pcef269eb6c)" d="M 133.371404 96.12 
L 133.654797 96.12 
L 133.654797 91.309955 
L 133.371404 91.309955 
z
" style="fill:#808080;fill-opacity:0.6;stroke:#808080;stroke-linejoin:miter;stroke-opacity:0.6;"/>
   </g>
   <g id="patch_84">
    <path clip-path="url(#pcef269eb6c)" d="M 133.654797 96.12 
L 133.938189 96.12 
L 133.938189 90.413403 
L 133.654797 90.413403 
z
" style="fill:#808080;fill-opacity:0.6;stroke:#808080;stroke-linejoin:miter;stroke-opacity:0.6;"/>
   </g>
   <g id="patch_85">
    <path clip-path="url(#pcef269eb6c)" d="M 133.938189 96.12 
L 134.221582 96.12 
L 134.221582 89.951109 
L 133.938189 89.951109 
z
" style="fill:#808080;fill-opacity:0.6;stroke:#808080;stroke-linejoin:miter;stroke-opacity:0.6;"/>
   </g>
   <g id="patch_86">
    <path clip-path="url(#pcef269eb6c)" d="M 134.221582 96.12 
L 134.504974 96.12 
L 134.504974 88.627519 
L 134.221582 88.627519 
z
" style="fill:#808080;fill-opacity:0.6;stroke:#808080;stroke-linejoin:miter;stroke-opacity:0.6;"/>
   </g>
   <g id="patch_87">
    <path clip-path="url(#pcef269eb6c)" d="M 134.504974 96.12 
L 134.788367 96.12 
L 134.788367 88.411413 
L 134.504974 88.411413 
z
" style="fill:#808080;fill-opacity:0.6;stroke:#808080;stroke-linejoin:miter;stroke-opacity:0.6;"/>
   </g>
   <g id="patch_88">
    <path clip-path="url(#pcef269eb6c)" d="M 134.788367 96.12 
L 135.071759 96.12 
L 135.071759 86.012828 
L 134.788367 86.012828 
z
" style="fill:#808080;fill-opacity:0.6;stroke:#808080;stroke-linejoin:miter;stroke-opacity:0.6;"/>
   </g>
   <g id="patch_89">
    <path clip-path="url(#pcef269eb6c)" d="M 135.071759 96.12 
L 135.355152 96.12 
L 135.355152 89.213509 
L 135.071759 89.213509 
z
" style="fill:#808080;fill-opacity:0.6;stroke:#808080;stroke-linejoin:miter;stroke-opacity:0.6;"/>
   </g>
   <g id="patch_90">
    <path clip-path="url(#pcef269eb6c)" d="M 135.355152 96.12 
L 135.638545 96.12 
L 135.638545 87.866816 
L 135.355152 87.866816 
z
" style="fill:#808080;fill-opacity:0.6;stroke:#808080;stroke-linejoin:miter;stroke-opacity:0.6;"/>
   </g>
   <g id="patch_91">
    <path clip-path="url(#pcef269eb6c)" d="M 135.638545 96.12 
L 135.921937 96.12 
L 135.921937 86.534683 
L 135.638545 86.534683 
z
" style="fill:#808080;fill-opacity:0.6;stroke:#808080;stroke-linejoin:miter;stroke-opacity:0.6;"/>
   </g>
   <g id="patch_92">
    <path clip-path="url(#pcef269eb6c)" d="M 135.921937 96.12 
L 136.20533 96.12 
L 136.20533 86.439626 
L 135.921937 86.439626 
z
" style="fill:#808080;fill-opacity:0.6;stroke:#808080;stroke-linejoin:miter;stroke-opacity:0.6;"/>
   </g>
   <g id="patch_93">
    <path clip-path="url(#pcef269eb6c)" d="M 136.20533 96.12 
L 136.488722 96.12 
L 136.488722 84.511035 
L 136.20533 84.511035 
z
" style="fill:#808080;fill-opacity:0.6;stroke:#808080;stroke-linejoin:miter;stroke-opacity:0.6;"/>
   </g>
   <g id="patch_94">
    <path clip-path="url(#pcef269eb6c)" d="M 136.488722 96.12 
L 136.772115 96.12 
L 136.772115 83.637105 
L 136.488722 83.637105 
z
" style="fill:#808080;fill-opacity:0.6;stroke:#808080;stroke-linejoin:miter;stroke-opacity:0.6;"/>
   </g>
   <g id="patch_95">
    <path clip-path="url(#pcef269eb6c)" d="M 136.772115 96.12 
L 137.055507 96.12 
L 137.055507 82.487387 
L 136.772115 82.487387 
z
" style="fill:#808080;fill-opacity:0.6;stroke:#808080;stroke-linejoin:miter;stroke-opacity:0.6;"/>
   </g>
   <g id="patch_96">
    <path clip-path="url(#pcef269eb6c)" d="M 137.055507 96.12 
L 137.3389 96.12 
L 137.3389 76.869591 
L 137.055507 76.869591 
z
" style="fill:#808080;fill-opacity:0.6;stroke:#808080;stroke-linejoin:miter;stroke-opacity:0.6;"/>
   </g>
   <g id="patch_97">
    <path clip-path="url(#pcef269eb6c)" d="M 137.3389 96.12 
L 137.622293 96.12 
L 137.622293 80.075927 
L 137.3389 80.075927 
z
" style="fill:#808080;fill-opacity:0.6;stroke:#808080;stroke-linejoin:miter;stroke-opacity:0.6;"/>
   </g>
   <g id="patch_98">
    <path clip-path="url(#pcef269eb6c)" d="M 137.622293 96.12 
L 137.905685 96.12 
L 137.905685 78.313146 
L 137.622293 78.313146 
z
" style="fill:#808080;fill-opacity:0.6;stroke:#808080;stroke-linejoin:miter;stroke-opacity:0.6;"/>
   </g>
   <g id="patch_99">
    <path clip-path="url(#pcef269eb6c)" d="M 137.905685 96.12 
L 138.189078 96.12 
L 138.189078 78.568598 
L 137.905685 78.568598 
z
" style="fill:#808080;fill-opacity:0.6;stroke:#808080;stroke-linejoin:miter;stroke-opacity:0.6;"/>
   </g>
   <g id="patch_100">
    <path clip-path="url(#pcef269eb6c)" d="M 138.189078 96.12 
L 138.47247 96.12 
L 138.47247 80.612221 
L 138.189078 80.612221 
z
" style="fill:#808080;fill-opacity:0.6;stroke:#808080;stroke-linejoin:miter;stroke-opacity:0.6;"/>
   </g>
   <g id="patch_101">
    <path clip-path="url(#pcef269eb6c)" d="M 138.47247 96.12 
L 138.755863 96.12 
L 138.755863 76.571061 
L 138.47247 76.571061 
z
" style="fill:#808080;fill-opacity:0.6;stroke:#808080;stroke-linejoin:miter;stroke-opacity:0.6;"/>
   </g>
   <g id="patch_102">
    <path clip-path="url(#pcef269eb6c)" d="M 138.755863 96.12 
L 139.039255 96.12 
L 139.039255 76.636518 
L 138.755863 76.636518 
z
" style="fill:#808080;fill-opacity:0.6;stroke:#808080;stroke-linejoin:miter;stroke-opacity:0.6;"/>
   </g>
   <g id="patch_103">
    <path clip-path="url(#pcef269eb6c)" d="M 139.039255 96.12 
L 139.322648 96.12 
L 139.322648 73.966838 
L 139.039255 73.966838 
z
" style="fill:#808080;fill-opacity:0.6;stroke:#808080;stroke-linejoin:miter;stroke-opacity:0.6;"/>
   </g>
   <g id="patch_104">
    <path clip-path="url(#pcef269eb6c)" d="M 139.322648 96.12 
L 139.606041 96.12 
L 139.606041 73.823048 
L 139.322648 73.823048 
z
" style="fill:#808080;fill-opacity:0.6;stroke:#808080;stroke-linejoin:miter;stroke-opacity:0.6;"/>
   </g>
   <g id="patch_105">
    <path clip-path="url(#pcef269eb6c)" d="M 139.606041 96.12 
L 139.889433 96.12 
L 139.889433 49.285018 
L 139.606041 49.285018 
z
" style="fill:#808080;fill-opacity:0.6;stroke:#808080;stroke-linejoin:miter;stroke-opacity:0.6;"/>
   </g>
   <g id="patch_106">
    <path clip-path="url(#pcef269eb6c)" d="M 139.889433 96.12 
L 140.172826 96.12 
L 140.172826 49.470441 
L 139.889433 49.470441 
z
" style="fill:#808080;fill-opacity:0.6;stroke:#808080;stroke-linejoin:miter;stroke-opacity:0.6;"/>
   </g>
   <g id="patch_107">
    <path clip-path="url(#pcef269eb6c)" d="M 140.172826 96.12 
L 140.456218 96.12 
L 140.456218 56.861727 
L 140.172826 56.861727 
z
" style="fill:#808080;fill-opacity:0.6;stroke:#808080;stroke-linejoin:miter;stroke-opacity:0.6;"/>
   </g>
   <g id="patch_108">
    <path clip-path="url(#pcef269eb6c)" d="M 140.456218 96.12 
L 140.739611 96.12 
L 140.739611 46.165076 
L 140.456218 46.165076 
z
" style="fill:#808080;fill-opacity:0.6;stroke:#808080;stroke-linejoin:miter;stroke-opacity:0.6;"/>
   </g>
   <g id="patch_109">
    <path clip-path="url(#pcef269eb6c)" d="M 140.739611 96.12 
L 141.023003 96.12 
L 141.023003 43.540157 
L 140.739611 43.540157 
z
" style="fill:#808080;fill-opacity:0.6;stroke:#808080;stroke-linejoin:miter;stroke-opacity:0.6;"/>
   </g>
   <g id="patch_110">
    <path clip-path="url(#pcef269eb6c)" d="M 141.023003 96.12 
L 141.306396 96.12 
L 141.306396 57.210673 
L 141.023003 57.210673 
z
" style="fill:#808080;fill-opacity:0.6;stroke:#808080;stroke-linejoin:miter;stroke-opacity:0.6;"/>
   </g>
   <g id="patch_111">
    <path clip-path="url(#pcef269eb6c)" d="M 141.306396 96.12 
L 141.589789 96.12 
L 141.589789 43.476625 
L 141.306396 43.476625 
z
" style="fill:#808080;fill-opacity:0.6;stroke:#808080;stroke-linejoin:miter;stroke-opacity:0.6;"/>
   </g>
   <g id="patch_112">
    <path clip-path="url(#pcef269eb6c)" d="M 141.589789 96.12 
L 141.873181 96.12 
L 141.873181 42.75202 
L 141.589789 42.75202 
z
" style="fill:#808080;fill-opacity:0.6;stroke:#808080;stroke-linejoin:miter;stroke-opacity:0.6;"/>
   </g>
   <g id="patch_113">
    <path clip-path="url(#pcef269eb6c)" d="M 141.873181 96.12 
L 142.156574 96.12 
L 142.156574 46.369992 
L 141.873181 46.369992 
z
" style="fill:#808080;fill-opacity:0.6;stroke:#808080;stroke-linejoin:miter;stroke-opacity:0.6;"/>
   </g>
   <g id="patch_114">
    <path clip-path="url(#pcef269eb6c)" d="M 142.156574 96.12 
L 142.439966 96.12 
L 142.439966 42.427018 
L 142.156574 42.427018 
z
" style="fill:#808080;fill-opacity:0.6;stroke:#808080;stroke-linejoin:miter;stroke-opacity:0.6;"/>
   </g>
   <g id="patch_115">
    <path clip-path="url(#pcef269eb6c)" d="M 142.439966 96.12 
L 142.723359 96.12 
L 142.723359 35.353033 
L 142.439966 35.353033 
z
" style="fill:#808080;fill-opacity:0.6;stroke:#808080;stroke-linejoin:miter;stroke-opacity:0.6;"/>
   </g>
   <g id="patch_116">
    <path clip-path="url(#pcef269eb6c)" d="M 142.723359 96.12 
L 143.006751 96.12 
L 143.006751 45.428198 
L 142.723359 45.428198 
z
" style="fill:#808080;fill-opacity:0.6;stroke:#808080;stroke-linejoin:miter;stroke-opacity:0.6;"/>
   </g>
   <g id="patch_117">
    <path clip-path="url(#pcef269eb6c)" d="M 143.006751 96.12 
L 143.290144 96.12 
L 143.290144 23.619771 
L 143.006751 23.619771 
z
" style="fill:#808080;fill-opacity:0.6;stroke:#808080;stroke-linejoin:miter;stroke-opacity:0.6;"/>
   </g>
   <g id="patch_118">
    <path clip-path="url(#pcef269eb6c)" d="M 143.290144 96.12 
L 143.573537 96.12 
L 143.573537 53.469246 
L 143.290144 53.469246 
z
" style="fill:#808080;fill-opacity:0.6;stroke:#808080;stroke-linejoin:miter;stroke-opacity:0.6;"/>
   </g>
   <g id="patch_119">
    <path clip-path="url(#pcef269eb6c)" d="M 143.573537 96.12 
L 143.856929 96.12 
L 143.856929 16.92 
L 143.573537 16.92 
z
" style="fill:#808080;fill-opacity:0.6;stroke:#808080;stroke-linejoin:miter;stroke-opacity:0.6;"/>
   </g>
   <g id="patch_120">
    <path clip-path="url(#pcef269eb6c)" d="M 143.856929 96.12 
L 144.140322 96.12 
L 144.140322 58.892354 
L 143.856929 58.892354 
z
" style="fill:#808080;fill-opacity:0.6;stroke:#808080;stroke-linejoin:miter;stroke-opacity:0.6;"/>
   </g>
   <g id="patch_121">
    <path clip-path="url(#pcef269eb6c)" d="M 144.140322 96.12 
L 144.423714 96.12 
L 144.423714 63.471854 
L 144.140322 63.471854 
z
" style="fill:#808080;fill-opacity:0.6;stroke:#808080;stroke-linejoin:miter;stroke-opacity:0.6;"/>
   </g>
   <g id="patch_122">
    <path clip-path="url(#pcef269eb6c)" d="M 144.423714 96.12 
L 144.707107 96.12 
L 144.707107 33.115805 
L 144.423714 33.115805 
z
" style="fill:#808080;fill-opacity:0.6;stroke:#808080;stroke-linejoin:miter;stroke-opacity:0.6;"/>
   </g>
   <g id="patch_123">
    <path clip-path="url(#pcef269eb6c)" d="M 144.707107 96.12 
L 144.990499 96.12 
L 144.990499 73.873344 
L 144.707107 73.873344 
z
" style="fill:#808080;fill-opacity:0.6;stroke:#808080;stroke-linejoin:miter;stroke-opacity:0.6;"/>
   </g>
   <g id="patch_124">
    <path clip-path="url(#pcef269eb6c)" d="M 144.990499 96.12 
L 145.273892 96.12 
L 145.273892 67.847883 
L 144.990499 67.847883 
z
" style="fill:#808080;fill-opacity:0.6;stroke:#808080;stroke-linejoin:miter;stroke-opacity:0.6;"/>
   </g>
   <g id="patch_125">
    <path clip-path="url(#pcef269eb6c)" d="M 145.273892 96.12 
L 145.557285 96.12 
L 145.557285 79.584514 
L 145.273892 79.584514 
z
" style="fill:#808080;fill-opacity:0.6;stroke:#808080;stroke-linejoin:miter;stroke-opacity:0.6;"/>
   </g>
   <g id="patch_126">
    <path clip-path="url(#pcef269eb6c)" d="M 145.557285 96.12 
L 145.840677 96.12 
L 145.840677 26.298235 
L 145.557285 26.298235 
z
" style="fill:#808080;fill-opacity:0.6;stroke:#808080;stroke-linejoin:miter;stroke-opacity:0.6;"/>
   </g>
   <g id="patch_127">
    <path clip-path="url(#pcef269eb6c)" d="M 145.840677 96.12 
L 146.12407 96.12 
L 146.12407 84.764442 
L 145.840677 84.764442 
z
" style="fill:#808080;fill-opacity:0.6;stroke:#808080;stroke-linejoin:miter;stroke-opacity:0.6;"/>
   </g>
   <g id="patch_128">
    <path clip-path="url(#pcef269eb6c)" d="M 146.12407 96.12 
L 146.407462 96.12 
L 146.407462 86.270447 
L 146.12407 86.270447 
z
" style="fill:#808080;fill-opacity:0.6;stroke:#808080;stroke-linejoin:miter;stroke-opacity:0.6;"/>
   </g>
   <g id="patch_129">
    <path clip-path="url(#pcef269eb6c)" d="M 146.407462 96.12 
L 146.690855 96.12 
L 146.690855 87.723508 
L 146.407462 87.723508 
z
" style="fill:#808080;fill-opacity:0.6;stroke:#808080;stroke-linejoin:miter;stroke-opacity:0.6;"/>
   </g>
   <g id="patch_130">
    <path clip-path="url(#pcef269eb6c)" d="M 146.690855 96.12 
L 146.974247 96.12 
L 146.974247 89.934023 
L 146.690855 89.934023 
z
" style="fill:#808080;fill-opacity:0.6;stroke:#808080;stroke-linejoin:miter;stroke-opacity:0.6;"/>
   </g>
   <g id="patch_131">
    <path clip-path="url(#pcef269eb6c)" d="M 146.974247 96.12 
L 147.25764 96.12 
L 147.25764 92.247898 
L 146.974247 92.247898 
z
" style="fill:#808080;fill-opacity:0.6;stroke:#808080;stroke-linejoin:miter;stroke-opacity:0.6;"/>
   </g>
   <g id="patch_132">
    <path clip-path="url(#pcef269eb6c)" d="M 147.25764 96.12 
L 147.541033 96.12 
L 147.541033 92.913062 
L 147.25764 92.913062 
z
" style="fill:#808080;fill-opacity:0.6;stroke:#808080;stroke-linejoin:miter;stroke-opacity:0.6;"/>
   </g>
   <g id="patch_133">
    <path clip-path="url(#pcef269eb6c)" d="M 147.541033 96.12 
L 147.824425 96.12 
L 147.824425 93.468609 
L 147.541033 93.468609 
z
" style="fill:#808080;fill-opacity:0.6;stroke:#808080;stroke-linejoin:miter;stroke-opacity:0.6;"/>
   </g>
   <g id="patch_134">
    <path clip-path="url(#pcef269eb6c)" d="M 147.824425 96.12 
L 148.107818 96.12 
L 148.107818 93.8119 
L 147.824425 93.8119 
z
" style="fill:#808080;fill-opacity:0.6;stroke:#808080;stroke-linejoin:miter;stroke-opacity:0.6;"/>
   </g>
   <g id="patch_135">
    <path clip-path="url(#pcef269eb6c)" d="M 148.107818 96.12 
L 148.39121 96.12 
L 148.39121 92.894532 
L 148.107818 92.894532 
z
" style="fill:#808080;fill-opacity:0.6;stroke:#808080;stroke-linejoin:miter;stroke-opacity:0.6;"/>
   </g>
   <g id="patch_136">
    <path clip-path="url(#pcef269eb6c)" d="M 148.39121 96.12 
L 148.674603 96.12 
L 148.674603 94.229192 
L 148.39121 94.229192 
z
" style="fill:#808080;fill-opacity:0.6;stroke:#808080;stroke-linejoin:miter;stroke-opacity:0.6;"/>
   </g>
   <g id="patch_137">
    <path clip-path="url(#pcef269eb6c)" d="M 148.674603 96.12 
L 148.957995 96.12 
L 148.957995 92.837016 
L 148.674603 92.837016 
z
" style="fill:#808080;fill-opacity:0.6;stroke:#808080;stroke-linejoin:miter;stroke-opacity:0.6;"/>
   </g>
   <g id="patch_138">
    <path clip-path="url(#pcef269eb6c)" d="M 149.524781 96.12 
L 149.808173 96.12 
L 149.808173 93.523719 
L 149.524781 93.523719 
z
" style="fill:#808080;fill-opacity:0.6;stroke:#808080;stroke-linejoin:miter;stroke-opacity:0.6;"/>
   </g>
   <g id="patch_139">
    <path clip-path="url(#pcef269eb6c)" d="M 149.808173 96.12 
L 150.091566 96.12 
L 150.091566 93.26249 
L 149.808173 93.26249 
z
" style="fill:#808080;fill-opacity:0.6;stroke:#808080;stroke-linejoin:miter;stroke-opacity:0.6;"/>
   </g>
   <g id="patch_140">
    <path d="M 27 96.12 
L 27 12.96 
" style="fill:none;stroke:#cccccc;stroke-linecap:square;stroke-linejoin:miter;stroke-width:0.8;"/>
   </g>
   <g id="patch_141">
    <path d="M 194.4 96.12 
L 194.4 12.96 
" style="fill:none;stroke:#cccccc;stroke-linecap:square;stroke-linejoin:miter;stroke-width:0.8;"/>
   </g>
   <g id="patch_142">
    <path d="M 27 96.12 
L 194.4 96.12 
" style="fill:none;stroke:#cccccc;stroke-linecap:square;stroke-linejoin:miter;stroke-width:0.8;"/>
   </g>
   <g id="patch_143">
    <path d="M 27 12.96 
L 194.4 12.96 
" style="fill:none;stroke:#cccccc;stroke-linecap:square;stroke-linejoin:miter;stroke-width:0.8;"/>
   </g>
  </g>
  <g id="axes_2">
   <g id="matplotlib.axis_2">
    <g id="xtick_1">
     <g id="line2d_1">
      <path clip-path="url(#pcef269eb6c)" d="M 28.091064 96.12 
L 28.091064 12.96 
" style="fill:none;stroke:#cccccc;stroke-linecap:round;stroke-width:0.8;"/>
     </g>
     <g id="text_1">
      <!-- −40 -->
      <defs>
       <path d="M 10.59375 35.5 
L 73.1875 35.5 
L 73.1875 27.203125 
L 10.59375 27.203125 
z
" id="DejaVuSans-8722"/>
       <path d="M 37.796875 64.3125 
L 12.890625 25.390625 
L 37.796875 25.390625 
z
M 35.203125 72.90625 
L 47.609375 72.90625 
L 47.609375 25.390625 
L 58.015625 25.390625 
L 58.015625 17.1875 
L 47.609375 17.1875 
L 47.609375 0 
L 37.796875 0 
L 37.796875 17.1875 
L 4.890625 17.1875 
L 4.890625 26.703125 
z
" id="DejaVuSans-52"/>
       <path d="M 31.78125 66.40625 
Q 24.171875 66.40625 20.328125 58.90625 
Q 16.5 51.421875 16.5 36.375 
Q 16.5 21.390625 20.328125 13.890625 
Q 24.171875 6.390625 31.78125 6.390625 
Q 39.453125 6.390625 43.28125 13.890625 
Q 47.125 21.390625 47.125 36.375 
Q 47.125 51.421875 43.28125 58.90625 
Q 39.453125 66.40625 31.78125 66.40625 
z
M 31.78125 74.21875 
Q 44.046875 74.21875 50.515625 64.515625 
Q 56.984375 54.828125 56.984375 36.375 
Q 56.984375 17.96875 50.515625 8.265625 
Q 44.046875 -1.421875 31.78125 -1.421875 
Q 19.53125 -1.421875 13.0625 8.265625 
Q 6.59375 17.96875 6.59375 36.375 
Q 6.59375 54.828125 13.0625 64.515625 
Q 19.53125 74.21875 31.78125 74.21875 
z
" id="DejaVuSans-48"/>
      </defs>
      <g style="fill:#262626;" transform="translate(17.53872 110.718438)scale(0.1 -0.1)">
       <use xlink:href="#DejaVuSans-8722"/>
       <use x="83.789062" xlink:href="#DejaVuSans-52"/>
       <use x="147.412109" xlink:href="#DejaVuSans-48"/>
      </g>
     </g>
    </g>
    <g id="xtick_2">
     <g id="line2d_2">
      <path clip-path="url(#pcef269eb6c)" d="M 84.769578 96.12 
L 84.769578 12.96 
" style="fill:none;stroke:#cccccc;stroke-linecap:round;stroke-width:0.8;"/>
     </g>
     <g id="text_2">
      <!-- −20 -->
      <defs>
       <path d="M 19.1875 8.296875 
L 53.609375 8.296875 
L 53.609375 0 
L 7.328125 0 
L 7.328125 8.296875 
Q 12.9375 14.109375 22.625 23.890625 
Q 32.328125 33.6875 34.8125 36.53125 
Q 39.546875 41.84375 41.421875 45.53125 
Q 43.3125 49.21875 43.3125 52.78125 
Q 43.3125 58.59375 39.234375 62.25 
Q 35.15625 65.921875 28.609375 65.921875 
Q 23.96875 65.921875 18.8125 64.3125 
Q 13.671875 62.703125 7.8125 59.421875 
L 7.8125 69.390625 
Q 13.765625 71.78125 18.9375 73 
Q 24.125 74.21875 28.421875 74.21875 
Q 39.75 74.21875 46.484375 68.546875 
Q 53.21875 62.890625 53.21875 53.421875 
Q 53.21875 48.921875 51.53125 44.890625 
Q 49.859375 40.875 45.40625 35.40625 
Q 44.1875 33.984375 37.640625 27.21875 
Q 31.109375 20.453125 19.1875 8.296875 
z
" id="DejaVuSans-50"/>
      </defs>
      <g style="fill:#262626;" transform="translate(74.217234 110.718438)scale(0.1 -0.1)">
       <use xlink:href="#DejaVuSans-8722"/>
       <use x="83.789062" xlink:href="#DejaVuSans-50"/>
       <use x="147.412109" xlink:href="#DejaVuSans-48"/>
      </g>
     </g>
    </g>
    <g id="xtick_3">
     <g id="line2d_3">
      <path clip-path="url(#pcef269eb6c)" d="M 141.448092 96.12 
L 141.448092 12.96 
" style="fill:none;stroke:#cccccc;stroke-linecap:round;stroke-width:0.8;"/>
     </g>
     <g id="text_3">
      <!-- 0 -->
      <g style="fill:#262626;" transform="translate(138.266842 110.718438)scale(0.1 -0.1)">
       <use xlink:href="#DejaVuSans-48"/>
      </g>
     </g>
    </g>
   </g>
   <g id="matplotlib.axis_3">
    <g id="ytick_1">
     <g id="line2d_4">
      <path clip-path="url(#pcef269eb6c)" d="M 27 92.366482 
L 194.4 92.366482 
" style="fill:none;stroke:#cccccc;stroke-linecap:round;stroke-width:0.8;"/>
     </g>
     <g id="line2d_5">
      <defs>
       <path d="M 0 0 
L -3.5 0 
" id="me4ee42970b" style="stroke:#262626;stroke-width:0.8;"/>
      </defs>
      <g>
       <use style="fill:#262626;stroke:#262626;stroke-width:0.8;" x="27" xlink:href="#me4ee42970b" y="92.366482"/>
      </g>
     </g>
     <g id="text_4">
      <!-- −0.1 -->
      <defs>
       <path d="M 10.6875 12.40625 
L 21 12.40625 
L 21 0 
L 10.6875 0 
z
" id="DejaVuSans-46"/>
       <path d="M 12.40625 8.296875 
L 28.515625 8.296875 
L 28.515625 63.921875 
L 10.984375 60.40625 
L 10.984375 69.390625 
L 28.421875 72.90625 
L 38.28125 72.90625 
L 38.28125 8.296875 
L 54.390625 8.296875 
L 54.390625 0 
L 12.40625 0 
z
" id="DejaVuSans-49"/>
      </defs>
      <g style="fill:#262626;" transform="translate(-4.282813 96.165701)scale(0.1 -0.1)">
       <use xlink:href="#DejaVuSans-8722"/>
       <use x="83.789062" xlink:href="#DejaVuSans-48"/>
       <use x="147.412109" xlink:href="#DejaVuSans-46"/>
       <use x="179.199219" xlink:href="#DejaVuSans-49"/>
      </g>
     </g>
    </g>
    <g id="ytick_2">
     <g id="line2d_6">
      <path clip-path="url(#pcef269eb6c)" d="M 27 65.131932 
L 194.4 65.131932 
" style="fill:none;stroke:#cccccc;stroke-linecap:round;stroke-width:0.8;"/>
     </g>
     <g id="line2d_7">
      <g>
       <use style="fill:#262626;stroke:#262626;stroke-width:0.8;" x="27" xlink:href="#me4ee42970b" y="65.131932"/>
      </g>
     </g>
     <g id="text_5">
      <!-- 0.0 -->
      <g style="fill:#262626;" transform="translate(4.096875 68.93115)scale(0.1 -0.1)">
       <use xlink:href="#DejaVuSans-48"/>
       <use x="63.623047" xlink:href="#DejaVuSans-46"/>
       <use x="95.410156" xlink:href="#DejaVuSans-48"/>
      </g>
     </g>
    </g>
    <g id="ytick_3">
     <g id="line2d_8">
      <path clip-path="url(#pcef269eb6c)" d="M 27 37.897381 
L 194.4 37.897381 
" style="fill:none;stroke:#cccccc;stroke-linecap:round;stroke-width:0.8;"/>
     </g>
     <g id="line2d_9">
      <g>
       <use style="fill:#262626;stroke:#262626;stroke-width:0.8;" x="27" xlink:href="#me4ee42970b" y="37.897381"/>
      </g>
     </g>
     <g id="text_6">
      <!-- 0.1 -->
      <g style="fill:#262626;" transform="translate(4.096875 41.6966)scale(0.1 -0.1)">
       <use xlink:href="#DejaVuSans-48"/>
       <use x="63.623047" xlink:href="#DejaVuSans-46"/>
       <use x="95.410156" xlink:href="#DejaVuSans-49"/>
      </g>
     </g>
    </g>
   </g>
   <g id="line2d_10">
    <path clip-path="url(#pcef269eb6c)" d="M 34.609091 92.34 
L 58.677887 81.75235 
L 75.28231 74.675373 
L 87.316705 69.773797 
L 96.304422 66.340086 
L 103.159458 63.944058 
L 108.643489 62.252895 
L 113.06118 61.117826 
L 116.564863 60.433661 
L 119.459213 60.076492 
L 121.89656 59.979082 
L 124.029238 60.100767 
L 125.857247 60.408348 
L 127.532923 60.903659 
L 129.056264 61.577752 
L 130.427272 62.408284 
L 131.798279 63.489164 
L 133.169287 64.844265 
L 134.997296 67.00738 
L 136.520638 68.724548 
L 137.129975 69.16156 
L 137.586977 69.290601 
L 138.043979 69.177626 
L 138.500982 68.755003 
L 138.957984 67.968336 
L 139.567321 66.340937 
L 140.785994 62.073951 
L 141.090662 60.499058 
L 143.985011 34.348457 
L 144.746682 29.939947 
L 145.356019 27.525726 
L 145.965355 25.88527 
L 146.574692 24.821445 
L 147.184029 24.169675 
L 147.793365 23.80338 
L 148.555036 23.608125 
L 149.621375 23.615049 
L 151.449385 23.919134 
L 154.648402 24.433146 
L 156.933414 24.5684 
L 159.370761 24.496086 
L 162.112775 24.195177 
L 165.311793 23.618965 
L 169.120145 22.702041 
L 173.69017 21.369128 
L 179.326536 19.489003 
L 186.48624 16.856476 
L 186.790909 16.74 
L 186.790909 16.74 
" style="fill:none;stroke:#0000ff;stroke-linecap:round;stroke-opacity:0.7;stroke-width:1.5;"/>
   </g>
   <g id="patch_144">
    <path d="M 27 96.12 
L 27 12.96 
" style="fill:none;stroke:#cccccc;stroke-linecap:square;stroke-linejoin:miter;stroke-width:0.8;"/>
   </g>
   <g id="patch_145">
    <path d="M 194.4 96.12 
L 194.4 12.96 
" style="fill:none;stroke:#cccccc;stroke-linecap:square;stroke-linejoin:miter;stroke-width:0.8;"/>
   </g>
   <g id="patch_146">
    <path d="M 27 96.12 
L 194.4 96.12 
" style="fill:none;stroke:#cccccc;stroke-linecap:square;stroke-linejoin:miter;stroke-width:0.8;"/>
   </g>
   <g id="patch_147">
    <path d="M 27 12.96 
L 194.4 12.96 
" style="fill:none;stroke:#cccccc;stroke-linecap:square;stroke-linejoin:miter;stroke-width:0.8;"/>
   </g>
  </g>
 </g>
 <defs>
  <clipPath id="pcef269eb6c">
   <rect height="83.16" width="167.4" x="27" y="12.96"/>
  </clipPath>
 </defs>
</svg>
