<?xml version="1.0" encoding="utf-8" standalone="no"?>
<!DOCTYPE svg PUBLIC "-//W3C//DTD SVG 1.1//EN"
  "http://www.w3.org/Graphics/SVG/1.1/DTD/svg11.dtd">
<!-- Created with matplotlib (https://matplotlib.org/) -->
<svg height="288pt" version="1.1" viewBox="0 0 432 288" width="432pt" xmlns="http://www.w3.org/2000/svg" xmlns:xlink="http://www.w3.org/1999/xlink">
 <defs>
  <style type="text/css">
*{stroke-linecap:butt;stroke-linejoin:round;}
  </style>
 </defs>
 <g id="figure_1">
  <g id="patch_1">
   <path d="M 0 288 
L 432 288 
L 432 0 
L 0 0 
z
" style="fill:#ffffff;"/>
  </g>
  <g id="axes_1">
   <g id="matplotlib.axis_1"/>
   <g id="patch_2">
    <path clip-path="url(#p1f068bc2f3)" d="M 142.834592 256.32 
L 144.071843 256.32 
L 144.071843 248.863118 
L 142.834592 248.863118 
z
" style="fill:#808080;fill-opacity:0.6;stroke:#808080;stroke-linejoin:miter;stroke-opacity:0.6;"/>
   </g>
   <g id="patch_3">
    <path clip-path="url(#p1f068bc2f3)" d="M 145.309093 256.32 
L 146.546344 256.32 
L 146.546344 247.360677 
L 145.309093 247.360677 
z
" style="fill:#808080;fill-opacity:0.6;stroke:#808080;stroke-linejoin:miter;stroke-opacity:0.6;"/>
   </g>
   <g id="patch_4">
    <path clip-path="url(#p1f068bc2f3)" d="M 146.546344 256.32 
L 147.783595 256.32 
L 147.783595 248.749736 
L 146.546344 248.749736 
z
" style="fill:#808080;fill-opacity:0.6;stroke:#808080;stroke-linejoin:miter;stroke-opacity:0.6;"/>
   </g>
   <g id="patch_5">
    <path clip-path="url(#p1f068bc2f3)" d="M 147.783595 256.32 
L 149.020845 256.32 
L 149.020845 248.777123 
L 147.783595 248.777123 
z
" style="fill:#808080;fill-opacity:0.6;stroke:#808080;stroke-linejoin:miter;stroke-opacity:0.6;"/>
   </g>
   <g id="patch_6">
    <path clip-path="url(#p1f068bc2f3)" d="M 149.020845 256.32 
L 150.258096 256.32 
L 150.258096 248.503803 
L 149.020845 248.503803 
z
" style="fill:#808080;fill-opacity:0.6;stroke:#808080;stroke-linejoin:miter;stroke-opacity:0.6;"/>
   </g>
   <g id="patch_7">
    <path clip-path="url(#p1f068bc2f3)" d="M 150.258096 256.32 
L 151.495346 256.32 
L 151.495346 247.21005 
L 150.258096 247.21005 
z
" style="fill:#808080;fill-opacity:0.6;stroke:#808080;stroke-linejoin:miter;stroke-opacity:0.6;"/>
   </g>
   <g id="patch_8">
    <path clip-path="url(#p1f068bc2f3)" d="M 151.495346 256.32 
L 152.732597 256.32 
L 152.732597 247.118578 
L 151.495346 247.118578 
z
" style="fill:#808080;fill-opacity:0.6;stroke:#808080;stroke-linejoin:miter;stroke-opacity:0.6;"/>
   </g>
   <g id="patch_9">
    <path clip-path="url(#p1f068bc2f3)" d="M 152.732597 256.32 
L 153.969848 256.32 
L 153.969848 248.541597 
L 152.732597 248.541597 
z
" style="fill:#808080;fill-opacity:0.6;stroke:#808080;stroke-linejoin:miter;stroke-opacity:0.6;"/>
   </g>
   <g id="patch_10">
    <path clip-path="url(#p1f068bc2f3)" d="M 153.969848 256.32 
L 155.207098 256.32 
L 155.207098 247.876097 
L 153.969848 247.876097 
z
" style="fill:#808080;fill-opacity:0.6;stroke:#808080;stroke-linejoin:miter;stroke-opacity:0.6;"/>
   </g>
   <g id="patch_11">
    <path clip-path="url(#p1f068bc2f3)" d="M 155.207098 256.32 
L 156.444349 256.32 
L 156.444349 246.357224 
L 155.207098 246.357224 
z
" style="fill:#808080;fill-opacity:0.6;stroke:#808080;stroke-linejoin:miter;stroke-opacity:0.6;"/>
   </g>
   <g id="patch_12">
    <path clip-path="url(#p1f068bc2f3)" d="M 156.444349 256.32 
L 157.6816 256.32 
L 157.6816 246.463485 
L 156.444349 246.463485 
z
" style="fill:#808080;fill-opacity:0.6;stroke:#808080;stroke-linejoin:miter;stroke-opacity:0.6;"/>
   </g>
   <g id="patch_13">
    <path clip-path="url(#p1f068bc2f3)" d="M 157.6816 256.32 
L 158.91885 256.32 
L 158.91885 246.024201 
L 157.6816 246.024201 
z
" style="fill:#808080;fill-opacity:0.6;stroke:#808080;stroke-linejoin:miter;stroke-opacity:0.6;"/>
   </g>
   <g id="patch_14">
    <path clip-path="url(#p1f068bc2f3)" d="M 158.91885 256.32 
L 160.156101 256.32 
L 160.156101 244.744689 
L 158.91885 244.744689 
z
" style="fill:#808080;fill-opacity:0.6;stroke:#808080;stroke-linejoin:miter;stroke-opacity:0.6;"/>
   </g>
   <g id="patch_15">
    <path clip-path="url(#p1f068bc2f3)" d="M 160.156101 256.32 
L 161.393351 256.32 
L 161.393351 245.705418 
L 160.156101 245.705418 
z
" style="fill:#808080;fill-opacity:0.6;stroke:#808080;stroke-linejoin:miter;stroke-opacity:0.6;"/>
   </g>
   <g id="patch_16">
    <path clip-path="url(#p1f068bc2f3)" d="M 161.393351 256.32 
L 162.630602 256.32 
L 162.630602 245.784292 
L 161.393351 245.784292 
z
" style="fill:#808080;fill-opacity:0.6;stroke:#808080;stroke-linejoin:miter;stroke-opacity:0.6;"/>
   </g>
   <g id="patch_17">
    <path clip-path="url(#p1f068bc2f3)" d="M 162.630602 256.32 
L 163.867853 256.32 
L 163.867853 245.381158 
L 162.630602 245.381158 
z
" style="fill:#808080;fill-opacity:0.6;stroke:#808080;stroke-linejoin:miter;stroke-opacity:0.6;"/>
   </g>
   <g id="patch_18">
    <path clip-path="url(#p1f068bc2f3)" d="M 163.867853 256.32 
L 165.105103 256.32 
L 165.105103 243.999219 
L 163.867853 243.999219 
z
" style="fill:#808080;fill-opacity:0.6;stroke:#808080;stroke-linejoin:miter;stroke-opacity:0.6;"/>
   </g>
   <g id="patch_19">
    <path clip-path="url(#p1f068bc2f3)" d="M 165.105103 256.32 
L 166.342354 256.32 
L 166.342354 244.53381 
L 165.105103 244.53381 
z
" style="fill:#808080;fill-opacity:0.6;stroke:#808080;stroke-linejoin:miter;stroke-opacity:0.6;"/>
   </g>
   <g id="patch_20">
    <path clip-path="url(#p1f068bc2f3)" d="M 166.342354 256.32 
L 167.579605 256.32 
L 167.579605 242.421739 
L 166.342354 242.421739 
z
" style="fill:#808080;fill-opacity:0.6;stroke:#808080;stroke-linejoin:miter;stroke-opacity:0.6;"/>
   </g>
   <g id="patch_21">
    <path clip-path="url(#p1f068bc2f3)" d="M 167.579605 256.32 
L 168.816855 256.32 
L 168.816855 242.513211 
L 167.579605 242.513211 
z
" style="fill:#808080;fill-opacity:0.6;stroke:#808080;stroke-linejoin:miter;stroke-opacity:0.6;"/>
   </g>
   <g id="patch_22">
    <path clip-path="url(#p1f068bc2f3)" d="M 168.816855 256.32 
L 170.054106 256.32 
L 170.054106 242.113911 
L 168.816855 242.113911 
z
" style="fill:#808080;fill-opacity:0.6;stroke:#808080;stroke-linejoin:miter;stroke-opacity:0.6;"/>
   </g>
   <g id="patch_23">
    <path clip-path="url(#p1f068bc2f3)" d="M 170.054106 256.32 
L 171.291357 256.32 
L 171.291357 242.460628 
L 170.054106 242.460628 
z
" style="fill:#808080;fill-opacity:0.6;stroke:#808080;stroke-linejoin:miter;stroke-opacity:0.6;"/>
   </g>
   <g id="patch_24">
    <path clip-path="url(#p1f068bc2f3)" d="M 171.291357 256.32 
L 172.528607 256.32 
L 172.528607 241.618757 
L 171.291357 241.618757 
z
" style="fill:#808080;fill-opacity:0.6;stroke:#808080;stroke-linejoin:miter;stroke-opacity:0.6;"/>
   </g>
   <g id="patch_25">
    <path clip-path="url(#p1f068bc2f3)" d="M 172.528607 256.32 
L 173.765858 256.32 
L 173.765858 240.6405 
L 172.528607 240.6405 
z
" style="fill:#808080;fill-opacity:0.6;stroke:#808080;stroke-linejoin:miter;stroke-opacity:0.6;"/>
   </g>
   <g id="patch_26">
    <path clip-path="url(#p1f068bc2f3)" d="M 173.765858 256.32 
L 175.003108 256.32 
L 175.003108 240.876575 
L 173.765858 240.876575 
z
" style="fill:#808080;fill-opacity:0.6;stroke:#808080;stroke-linejoin:miter;stroke-opacity:0.6;"/>
   </g>
   <g id="patch_27">
    <path clip-path="url(#p1f068bc2f3)" d="M 175.003108 256.32 
L 176.240359 256.32 
L 176.240359 239.962403 
L 175.003108 239.962403 
z
" style="fill:#808080;fill-opacity:0.6;stroke:#808080;stroke-linejoin:miter;stroke-opacity:0.6;"/>
   </g>
   <g id="patch_28">
    <path clip-path="url(#p1f068bc2f3)" d="M 176.240359 256.32 
L 177.47761 256.32 
L 177.47761 239.426717 
L 176.240359 239.426717 
z
" style="fill:#808080;fill-opacity:0.6;stroke:#808080;stroke-linejoin:miter;stroke-opacity:0.6;"/>
   </g>
   <g id="patch_29">
    <path clip-path="url(#p1f068bc2f3)" d="M 177.47761 256.32 
L 178.71486 256.32 
L 178.71486 238.748619 
L 177.47761 238.748619 
z
" style="fill:#808080;fill-opacity:0.6;stroke:#808080;stroke-linejoin:miter;stroke-opacity:0.6;"/>
   </g>
   <g id="patch_30">
    <path clip-path="url(#p1f068bc2f3)" d="M 178.71486 256.32 
L 179.952111 256.32 
L 179.952111 238.081476 
L 178.71486 238.081476 
z
" style="fill:#808080;fill-opacity:0.6;stroke:#808080;stroke-linejoin:miter;stroke-opacity:0.6;"/>
   </g>
   <g id="patch_31">
    <path clip-path="url(#p1f068bc2f3)" d="M 179.952111 256.32 
L 181.189362 256.32 
L 181.189362 235.785366 
L 179.952111 235.785366 
z
" style="fill:#808080;fill-opacity:0.6;stroke:#808080;stroke-linejoin:miter;stroke-opacity:0.6;"/>
   </g>
   <g id="patch_32">
    <path clip-path="url(#p1f068bc2f3)" d="M 181.189362 256.32 
L 182.426612 256.32 
L 182.426612 236.501257 
L 181.189362 236.501257 
z
" style="fill:#808080;fill-opacity:0.6;stroke:#808080;stroke-linejoin:miter;stroke-opacity:0.6;"/>
   </g>
   <g id="patch_33">
    <path clip-path="url(#p1f068bc2f3)" d="M 182.426612 256.32 
L 183.663863 256.32 
L 183.663863 235.553126 
L 182.426612 235.553126 
z
" style="fill:#808080;fill-opacity:0.6;stroke:#808080;stroke-linejoin:miter;stroke-opacity:0.6;"/>
   </g>
   <g id="patch_34">
    <path clip-path="url(#p1f068bc2f3)" d="M 183.663863 256.32 
L 184.901113 256.32 
L 184.901113 235.788652 
L 183.663863 235.788652 
z
" style="fill:#808080;fill-opacity:0.6;stroke:#808080;stroke-linejoin:miter;stroke-opacity:0.6;"/>
   </g>
   <g id="patch_35">
    <path clip-path="url(#p1f068bc2f3)" d="M 184.901113 256.32 
L 186.138364 256.32 
L 186.138364 233.074619 
L 184.901113 233.074619 
z
" style="fill:#808080;fill-opacity:0.6;stroke:#808080;stroke-linejoin:miter;stroke-opacity:0.6;"/>
   </g>
   <g id="patch_36">
    <path clip-path="url(#p1f068bc2f3)" d="M 186.138364 256.32 
L 187.375615 256.32 
L 187.375615 234.046303 
L 186.138364 234.046303 
z
" style="fill:#808080;fill-opacity:0.6;stroke:#808080;stroke-linejoin:miter;stroke-opacity:0.6;"/>
   </g>
   <g id="patch_37">
    <path clip-path="url(#p1f068bc2f3)" d="M 187.375615 256.32 
L 188.612865 256.32 
L 188.612865 231.881101 
L 187.375615 231.881101 
z
" style="fill:#808080;fill-opacity:0.6;stroke:#808080;stroke-linejoin:miter;stroke-opacity:0.6;"/>
   </g>
   <g id="patch_38">
    <path clip-path="url(#p1f068bc2f3)" d="M 188.612865 256.32 
L 189.850116 256.32 
L 189.850116 231.174522 
L 188.612865 231.174522 
z
" style="fill:#808080;fill-opacity:0.6;stroke:#808080;stroke-linejoin:miter;stroke-opacity:0.6;"/>
   </g>
   <g id="patch_39">
    <path clip-path="url(#p1f068bc2f3)" d="M 189.850116 256.32 
L 191.087367 256.32 
L 191.087367 228.830758 
L 189.850116 228.830758 
z
" style="fill:#808080;fill-opacity:0.6;stroke:#808080;stroke-linejoin:miter;stroke-opacity:0.6;"/>
   </g>
   <g id="patch_40">
    <path clip-path="url(#p1f068bc2f3)" d="M 191.087367 256.32 
L 192.324617 256.32 
L 192.324617 229.405333 
L 191.087367 229.405333 
z
" style="fill:#808080;fill-opacity:0.6;stroke:#808080;stroke-linejoin:miter;stroke-opacity:0.6;"/>
   </g>
   <g id="patch_41">
    <path clip-path="url(#p1f068bc2f3)" d="M 192.324617 256.32 
L 193.561868 256.32 
L 193.561868 228.63193 
L 192.324617 228.63193 
z
" style="fill:#808080;fill-opacity:0.6;stroke:#808080;stroke-linejoin:miter;stroke-opacity:0.6;"/>
   </g>
   <g id="patch_42">
    <path clip-path="url(#p1f068bc2f3)" d="M 193.561868 256.32 
L 194.799119 256.32 
L 194.799119 227.79225 
L 193.561868 227.79225 
z
" style="fill:#808080;fill-opacity:0.6;stroke:#808080;stroke-linejoin:miter;stroke-opacity:0.6;"/>
   </g>
   <g id="patch_43">
    <path clip-path="url(#p1f068bc2f3)" d="M 194.799119 256.32 
L 196.036369 256.32 
L 196.036369 228.403524 
L 194.799119 228.403524 
z
" style="fill:#808080;fill-opacity:0.6;stroke:#808080;stroke-linejoin:miter;stroke-opacity:0.6;"/>
   </g>
   <g id="patch_44">
    <path clip-path="url(#p1f068bc2f3)" d="M 196.036369 256.32 
L 197.27362 256.32 
L 197.27362 224.717258 
L 196.036369 224.717258 
z
" style="fill:#808080;fill-opacity:0.6;stroke:#808080;stroke-linejoin:miter;stroke-opacity:0.6;"/>
   </g>
   <g id="patch_45">
    <path clip-path="url(#p1f068bc2f3)" d="M 197.27362 256.32 
L 198.51087 256.32 
L 198.51087 225.525169 
L 197.27362 225.525169 
z
" style="fill:#808080;fill-opacity:0.6;stroke:#808080;stroke-linejoin:miter;stroke-opacity:0.6;"/>
   </g>
   <g id="patch_46">
    <path clip-path="url(#p1f068bc2f3)" d="M 198.51087 256.32 
L 199.748121 256.32 
L 199.748121 222.904799 
L 198.51087 222.904799 
z
" style="fill:#808080;fill-opacity:0.6;stroke:#808080;stroke-linejoin:miter;stroke-opacity:0.6;"/>
   </g>
   <g id="patch_47">
    <path clip-path="url(#p1f068bc2f3)" d="M 199.748121 256.32 
L 200.985372 256.32 
L 200.985372 223.206054 
L 199.748121 223.206054 
z
" style="fill:#808080;fill-opacity:0.6;stroke:#808080;stroke-linejoin:miter;stroke-opacity:0.6;"/>
   </g>
   <g id="patch_48">
    <path clip-path="url(#p1f068bc2f3)" d="M 200.985372 256.32 
L 202.222622 256.32 
L 202.222622 221.576538 
L 200.985372 221.576538 
z
" style="fill:#808080;fill-opacity:0.6;stroke:#808080;stroke-linejoin:miter;stroke-opacity:0.6;"/>
   </g>
   <g id="patch_49">
    <path clip-path="url(#p1f068bc2f3)" d="M 202.222622 256.32 
L 203.459873 256.32 
L 203.459873 218.16688 
L 202.222622 218.16688 
z
" style="fill:#808080;fill-opacity:0.6;stroke:#808080;stroke-linejoin:miter;stroke-opacity:0.6;"/>
   </g>
   <g id="patch_50">
    <path clip-path="url(#p1f068bc2f3)" d="M 203.459873 256.32 
L 204.697124 256.32 
L 204.697124 217.034709 
L 203.459873 217.034709 
z
" style="fill:#808080;fill-opacity:0.6;stroke:#808080;stroke-linejoin:miter;stroke-opacity:0.6;"/>
   </g>
   <g id="patch_51">
    <path clip-path="url(#p1f068bc2f3)" d="M 204.697124 256.32 
L 205.934374 256.32 
L 205.934374 218.887701 
L 204.697124 218.887701 
z
" style="fill:#808080;fill-opacity:0.6;stroke:#808080;stroke-linejoin:miter;stroke-opacity:0.6;"/>
   </g>
   <g id="patch_52">
    <path clip-path="url(#p1f068bc2f3)" d="M 205.934374 256.32 
L 207.171625 256.32 
L 207.171625 216.312792 
L 205.934374 216.312792 
z
" style="fill:#808080;fill-opacity:0.6;stroke:#808080;stroke-linejoin:miter;stroke-opacity:0.6;"/>
   </g>
   <g id="patch_53">
    <path clip-path="url(#p1f068bc2f3)" d="M 207.171625 256.32 
L 208.408875 256.32 
L 208.408875 211.631838 
L 207.171625 211.631838 
z
" style="fill:#808080;fill-opacity:0.6;stroke:#808080;stroke-linejoin:miter;stroke-opacity:0.6;"/>
   </g>
   <g id="patch_54">
    <path clip-path="url(#p1f068bc2f3)" d="M 208.408875 256.32 
L 209.646126 256.32 
L 209.646126 212.746481 
L 208.408875 212.746481 
z
" style="fill:#808080;fill-opacity:0.6;stroke:#808080;stroke-linejoin:miter;stroke-opacity:0.6;"/>
   </g>
   <g id="patch_55">
    <path clip-path="url(#p1f068bc2f3)" d="M 209.646126 256.32 
L 210.883377 256.32 
L 210.883377 211.774249 
L 209.646126 211.774249 
z
" style="fill:#808080;fill-opacity:0.6;stroke:#808080;stroke-linejoin:miter;stroke-opacity:0.6;"/>
   </g>
   <g id="patch_56">
    <path clip-path="url(#p1f068bc2f3)" d="M 210.883377 256.32 
L 212.120627 256.32 
L 212.120627 210.588948 
L 210.883377 210.588948 
z
" style="fill:#808080;fill-opacity:0.6;stroke:#808080;stroke-linejoin:miter;stroke-opacity:0.6;"/>
   </g>
   <g id="patch_57">
    <path clip-path="url(#p1f068bc2f3)" d="M 212.120627 256.32 
L 213.357878 256.32 
L 213.357878 208.914518 
L 212.120627 208.914518 
z
" style="fill:#808080;fill-opacity:0.6;stroke:#808080;stroke-linejoin:miter;stroke-opacity:0.6;"/>
   </g>
   <g id="patch_58">
    <path clip-path="url(#p1f068bc2f3)" d="M 213.357878 256.32 
L 214.595129 256.32 
L 214.595129 205.623718 
L 213.357878 205.623718 
z
" style="fill:#808080;fill-opacity:0.6;stroke:#808080;stroke-linejoin:miter;stroke-opacity:0.6;"/>
   </g>
   <g id="patch_59">
    <path clip-path="url(#p1f068bc2f3)" d="M 214.595129 256.32 
L 215.832379 256.32 
L 215.832379 203.781133 
L 214.595129 203.781133 
z
" style="fill:#808080;fill-opacity:0.6;stroke:#808080;stroke-linejoin:miter;stroke-opacity:0.6;"/>
   </g>
   <g id="patch_60">
    <path clip-path="url(#p1f068bc2f3)" d="M 215.832379 256.32 
L 217.06963 256.32 
L 217.06963 201.284003 
L 215.832379 201.284003 
z
" style="fill:#808080;fill-opacity:0.6;stroke:#808080;stroke-linejoin:miter;stroke-opacity:0.6;"/>
   </g>
   <g id="patch_61">
    <path clip-path="url(#p1f068bc2f3)" d="M 217.06963 256.32 
L 218.306881 256.32 
L 218.306881 203.676516 
L 217.06963 203.676516 
z
" style="fill:#808080;fill-opacity:0.6;stroke:#808080;stroke-linejoin:miter;stroke-opacity:0.6;"/>
   </g>
   <g id="patch_62">
    <path clip-path="url(#p1f068bc2f3)" d="M 218.306881 256.32 
L 219.544131 256.32 
L 219.544131 199.74103 
L 218.306881 199.74103 
z
" style="fill:#808080;fill-opacity:0.6;stroke:#808080;stroke-linejoin:miter;stroke-opacity:0.6;"/>
   </g>
   <g id="patch_63">
    <path clip-path="url(#p1f068bc2f3)" d="M 219.544131 256.32 
L 220.781382 256.32 
L 220.781382 199.2645 
L 219.544131 199.2645 
z
" style="fill:#808080;fill-opacity:0.6;stroke:#808080;stroke-linejoin:miter;stroke-opacity:0.6;"/>
   </g>
   <g id="patch_64">
    <path clip-path="url(#p1f068bc2f3)" d="M 220.781382 256.32 
L 222.018632 256.32 
L 222.018632 190.273408 
L 220.781382 190.273408 
z
" style="fill:#808080;fill-opacity:0.6;stroke:#808080;stroke-linejoin:miter;stroke-opacity:0.6;"/>
   </g>
   <g id="patch_65">
    <path clip-path="url(#p1f068bc2f3)" d="M 222.018632 256.32 
L 223.255883 256.32 
L 223.255883 149.322451 
L 222.018632 149.322451 
z
" style="fill:#808080;fill-opacity:0.6;stroke:#808080;stroke-linejoin:miter;stroke-opacity:0.6;"/>
   </g>
   <g id="patch_66">
    <path clip-path="url(#p1f068bc2f3)" d="M 223.255883 256.32 
L 224.493134 256.32 
L 224.493134 145.678361 
L 223.255883 145.678361 
z
" style="fill:#808080;fill-opacity:0.6;stroke:#808080;stroke-linejoin:miter;stroke-opacity:0.6;"/>
   </g>
   <g id="patch_67">
    <path clip-path="url(#p1f068bc2f3)" d="M 224.493134 256.32 
L 225.730384 256.32 
L 225.730384 189.533964 
L 224.493134 189.533964 
z
" style="fill:#808080;fill-opacity:0.6;stroke:#808080;stroke-linejoin:miter;stroke-opacity:0.6;"/>
   </g>
   <g id="patch_68">
    <path clip-path="url(#p1f068bc2f3)" d="M 225.730384 256.32 
L 226.967635 256.32 
L 226.967635 186.540585 
L 225.730384 186.540585 
z
" style="fill:#808080;fill-opacity:0.6;stroke:#808080;stroke-linejoin:miter;stroke-opacity:0.6;"/>
   </g>
   <g id="patch_69">
    <path clip-path="url(#p1f068bc2f3)" d="M 226.967635 256.32 
L 228.204886 256.32 
L 228.204886 188.81643 
L 226.967635 188.81643 
z
" style="fill:#808080;fill-opacity:0.6;stroke:#808080;stroke-linejoin:miter;stroke-opacity:0.6;"/>
   </g>
   <g id="patch_70">
    <path clip-path="url(#p1f068bc2f3)" d="M 228.204886 256.32 
L 229.442136 256.32 
L 229.442136 185.828528 
L 228.204886 185.828528 
z
" style="fill:#808080;fill-opacity:0.6;stroke:#808080;stroke-linejoin:miter;stroke-opacity:0.6;"/>
   </g>
   <g id="patch_71">
    <path clip-path="url(#p1f068bc2f3)" d="M 229.442136 256.32 
L 230.679387 256.32 
L 230.679387 184.45371 
L 229.442136 184.45371 
z
" style="fill:#808080;fill-opacity:0.6;stroke:#808080;stroke-linejoin:miter;stroke-opacity:0.6;"/>
   </g>
   <g id="patch_72">
    <path clip-path="url(#p1f068bc2f3)" d="M 230.679387 256.32 
L 231.916637 256.32 
L 231.916637 130.342292 
L 230.679387 130.342292 
z
" style="fill:#808080;fill-opacity:0.6;stroke:#808080;stroke-linejoin:miter;stroke-opacity:0.6;"/>
   </g>
   <g id="patch_73">
    <path clip-path="url(#p1f068bc2f3)" d="M 231.916637 256.32 
L 233.153888 256.32 
L 233.153888 171.698574 
L 231.916637 171.698574 
z
" style="fill:#808080;fill-opacity:0.6;stroke:#808080;stroke-linejoin:miter;stroke-opacity:0.6;"/>
   </g>
   <g id="patch_74">
    <path clip-path="url(#p1f068bc2f3)" d="M 233.153888 256.32 
L 234.391139 256.32 
L 234.391139 120.400878 
L 233.153888 120.400878 
z
" style="fill:#808080;fill-opacity:0.6;stroke:#808080;stroke-linejoin:miter;stroke-opacity:0.6;"/>
   </g>
   <g id="patch_75">
    <path clip-path="url(#p1f068bc2f3)" d="M 234.391139 256.32 
L 235.628389 256.32 
L 235.628389 174.450402 
L 234.391139 174.450402 
z
" style="fill:#808080;fill-opacity:0.6;stroke:#808080;stroke-linejoin:miter;stroke-opacity:0.6;"/>
   </g>
   <g id="patch_76">
    <path clip-path="url(#p1f068bc2f3)" d="M 235.628389 256.32 
L 236.86564 256.32 
L 236.86564 121.999721 
L 235.628389 121.999721 
z
" style="fill:#808080;fill-opacity:0.6;stroke:#808080;stroke-linejoin:miter;stroke-opacity:0.6;"/>
   </g>
   <g id="patch_77">
    <path clip-path="url(#p1f068bc2f3)" d="M 236.86564 256.32 
L 238.102891 256.32 
L 238.102891 166.88945 
L 236.86564 166.88945 
z
" style="fill:#808080;fill-opacity:0.6;stroke:#808080;stroke-linejoin:miter;stroke-opacity:0.6;"/>
   </g>
   <g id="patch_78">
    <path clip-path="url(#p1f068bc2f3)" d="M 238.102891 256.32 
L 239.340141 256.32 
L 239.340141 64.416202 
L 238.102891 64.416202 
z
" style="fill:#808080;fill-opacity:0.6;stroke:#808080;stroke-linejoin:miter;stroke-opacity:0.6;"/>
   </g>
   <g id="patch_79">
    <path clip-path="url(#p1f068bc2f3)" d="M 239.340141 256.32 
L 240.577392 256.32 
L 240.577392 118.66565 
L 239.340141 118.66565 
z
" style="fill:#808080;fill-opacity:0.6;stroke:#808080;stroke-linejoin:miter;stroke-opacity:0.6;"/>
   </g>
   <g id="patch_80">
    <path clip-path="url(#p1f068bc2f3)" d="M 240.577392 256.32 
L 241.814642 256.32 
L 241.814642 167.197825 
L 240.577392 167.197825 
z
" style="fill:#808080;fill-opacity:0.6;stroke:#808080;stroke-linejoin:miter;stroke-opacity:0.6;"/>
   </g>
   <g id="patch_81">
    <path clip-path="url(#p1f068bc2f3)" d="M 241.814642 256.32 
L 243.051893 256.32 
L 243.051893 118.787795 
L 241.814642 118.787795 
z
" style="fill:#808080;fill-opacity:0.6;stroke:#808080;stroke-linejoin:miter;stroke-opacity:0.6;"/>
   </g>
   <g id="patch_82">
    <path clip-path="url(#p1f068bc2f3)" d="M 243.051893 256.32 
L 244.289144 256.32 
L 244.289144 58.405892 
L 243.051893 58.405892 
z
" style="fill:#808080;fill-opacity:0.6;stroke:#808080;stroke-linejoin:miter;stroke-opacity:0.6;"/>
   </g>
   <g id="patch_83">
    <path clip-path="url(#p1f068bc2f3)" d="M 244.289144 256.32 
L 245.526394 256.32 
L 245.526394 116.23863 
L 244.289144 116.23863 
z
" style="fill:#808080;fill-opacity:0.6;stroke:#808080;stroke-linejoin:miter;stroke-opacity:0.6;"/>
   </g>
   <g id="patch_84">
    <path clip-path="url(#p1f068bc2f3)" d="M 245.526394 256.32 
L 246.763645 256.32 
L 246.763645 142.357436 
L 245.526394 142.357436 
z
" style="fill:#808080;fill-opacity:0.6;stroke:#808080;stroke-linejoin:miter;stroke-opacity:0.6;"/>
   </g>
   <g id="patch_85">
    <path clip-path="url(#p1f068bc2f3)" d="M 246.763645 256.32 
L 248.000896 256.32 
L 248.000896 53.71453 
L 246.763645 53.71453 
z
" style="fill:#808080;fill-opacity:0.6;stroke:#808080;stroke-linejoin:miter;stroke-opacity:0.6;"/>
   </g>
   <g id="patch_86">
    <path clip-path="url(#p1f068bc2f3)" d="M 248.000896 256.32 
L 249.238146 256.32 
L 249.238146 95.439439 
L 248.000896 95.439439 
z
" style="fill:#808080;fill-opacity:0.6;stroke:#808080;stroke-linejoin:miter;stroke-opacity:0.6;"/>
   </g>
   <g id="patch_87">
    <path clip-path="url(#p1f068bc2f3)" d="M 249.238146 256.32 
L 250.475397 256.32 
L 250.475397 148.530972 
L 249.238146 148.530972 
z
" style="fill:#808080;fill-opacity:0.6;stroke:#808080;stroke-linejoin:miter;stroke-opacity:0.6;"/>
   </g>
   <g id="patch_88">
    <path clip-path="url(#p1f068bc2f3)" d="M 250.475397 256.32 
L 251.712648 256.32 
L 251.712648 141.570887 
L 250.475397 141.570887 
z
" style="fill:#808080;fill-opacity:0.6;stroke:#808080;stroke-linejoin:miter;stroke-opacity:0.6;"/>
   </g>
   <g id="patch_89">
    <path clip-path="url(#p1f068bc2f3)" d="M 251.712648 256.32 
L 252.949898 256.32 
L 252.949898 64.743201 
L 251.712648 64.743201 
z
" style="fill:#808080;fill-opacity:0.6;stroke:#808080;stroke-linejoin:miter;stroke-opacity:0.6;"/>
   </g>
   <g id="patch_90">
    <path clip-path="url(#p1f068bc2f3)" d="M 252.949898 256.32 
L 254.187149 256.32 
L 254.187149 154.250982 
L 252.949898 154.250982 
z
" style="fill:#808080;fill-opacity:0.6;stroke:#808080;stroke-linejoin:miter;stroke-opacity:0.6;"/>
   </g>
   <g id="patch_91">
    <path clip-path="url(#p1f068bc2f3)" d="M 254.187149 256.32 
L 255.424399 256.32 
L 255.424399 59.435088 
L 254.187149 59.435088 
z
" style="fill:#808080;fill-opacity:0.6;stroke:#808080;stroke-linejoin:miter;stroke-opacity:0.6;"/>
   </g>
   <g id="patch_92">
    <path clip-path="url(#p1f068bc2f3)" d="M 255.424399 256.32 
L 256.66165 256.32 
L 256.66165 161.641588 
L 255.424399 161.641588 
z
" style="fill:#808080;fill-opacity:0.6;stroke:#808080;stroke-linejoin:miter;stroke-opacity:0.6;"/>
   </g>
   <g id="patch_93">
    <path clip-path="url(#p1f068bc2f3)" d="M 256.66165 256.32 
L 257.898901 256.32 
L 257.898901 162.24355 
L 256.66165 162.24355 
z
" style="fill:#808080;fill-opacity:0.6;stroke:#808080;stroke-linejoin:miter;stroke-opacity:0.6;"/>
   </g>
   <g id="patch_94">
    <path clip-path="url(#p1f068bc2f3)" d="M 257.898901 256.32 
L 259.136151 256.32 
L 259.136151 65.640941 
L 257.898901 65.640941 
z
" style="fill:#808080;fill-opacity:0.6;stroke:#808080;stroke-linejoin:miter;stroke-opacity:0.6;"/>
   </g>
   <g id="patch_95">
    <path clip-path="url(#p1f068bc2f3)" d="M 259.136151 256.32 
L 260.373402 256.32 
L 260.373402 73.836719 
L 259.136151 73.836719 
z
" style="fill:#808080;fill-opacity:0.6;stroke:#808080;stroke-linejoin:miter;stroke-opacity:0.6;"/>
   </g>
   <g id="patch_96">
    <path clip-path="url(#p1f068bc2f3)" d="M 260.373402 256.32 
L 261.610653 256.32 
L 261.610653 131.002862 
L 260.373402 131.002862 
z
" style="fill:#808080;fill-opacity:0.6;stroke:#808080;stroke-linejoin:miter;stroke-opacity:0.6;"/>
   </g>
   <g id="patch_97">
    <path clip-path="url(#p1f068bc2f3)" d="M 261.610653 256.32 
L 262.847903 256.32 
L 262.847903 134.778409 
L 261.610653 134.778409 
z
" style="fill:#808080;fill-opacity:0.6;stroke:#808080;stroke-linejoin:miter;stroke-opacity:0.6;"/>
   </g>
   <g id="patch_98">
    <path clip-path="url(#p1f068bc2f3)" d="M 262.847903 256.32 
L 264.085154 256.32 
L 264.085154 45.12 
L 262.847903 45.12 
z
" style="fill:#808080;fill-opacity:0.6;stroke:#808080;stroke-linejoin:miter;stroke-opacity:0.6;"/>
   </g>
   <g id="patch_99">
    <path clip-path="url(#p1f068bc2f3)" d="M 264.085154 256.32 
L 265.322404 256.32 
L 265.322404 135.62247 
L 264.085154 135.62247 
z
" style="fill:#808080;fill-opacity:0.6;stroke:#808080;stroke-linejoin:miter;stroke-opacity:0.6;"/>
   </g>
   <g id="patch_100">
    <path clip-path="url(#p1f068bc2f3)" d="M 265.322404 256.32 
L 266.559655 256.32 
L 266.559655 195.573852 
L 265.322404 195.573852 
z
" style="fill:#808080;fill-opacity:0.6;stroke:#808080;stroke-linejoin:miter;stroke-opacity:0.6;"/>
   </g>
   <g id="patch_101">
    <path clip-path="url(#p1f068bc2f3)" d="M 266.559655 256.32 
L 267.796906 256.32 
L 267.796906 196.499527 
L 266.559655 196.499527 
z
" style="fill:#808080;fill-opacity:0.6;stroke:#808080;stroke-linejoin:miter;stroke-opacity:0.6;"/>
   </g>
   <g id="patch_102">
    <path clip-path="url(#p1f068bc2f3)" d="M 267.796906 256.32 
L 269.034156 256.32 
L 269.034156 201.581972 
L 267.796906 201.581972 
z
" style="fill:#808080;fill-opacity:0.6;stroke:#808080;stroke-linejoin:miter;stroke-opacity:0.6;"/>
   </g>
   <g id="patch_103">
    <path clip-path="url(#p1f068bc2f3)" d="M 269.034156 256.32 
L 270.271407 256.32 
L 270.271407 159.176227 
L 269.034156 159.176227 
z
" style="fill:#808080;fill-opacity:0.6;stroke:#808080;stroke-linejoin:miter;stroke-opacity:0.6;"/>
   </g>
   <g id="patch_104">
    <path clip-path="url(#p1f068bc2f3)" d="M 270.271407 256.32 
L 271.508658 256.32 
L 271.508658 163.078848 
L 270.271407 163.078848 
z
" style="fill:#808080;fill-opacity:0.6;stroke:#808080;stroke-linejoin:miter;stroke-opacity:0.6;"/>
   </g>
   <g id="patch_105">
    <path clip-path="url(#p1f068bc2f3)" d="M 271.508658 256.32 
L 272.745908 256.32 
L 272.745908 165.913384 
L 271.508658 165.913384 
z
" style="fill:#808080;fill-opacity:0.6;stroke:#808080;stroke-linejoin:miter;stroke-opacity:0.6;"/>
   </g>
   <g id="patch_106">
    <path clip-path="url(#p1f068bc2f3)" d="M 272.745908 256.32 
L 273.983159 256.32 
L 273.983159 220.403287 
L 272.745908 220.403287 
z
" style="fill:#808080;fill-opacity:0.6;stroke:#808080;stroke-linejoin:miter;stroke-opacity:0.6;"/>
   </g>
   <g id="patch_107">
    <path clip-path="url(#p1f068bc2f3)" d="M 273.983159 256.32 
L 275.22041 256.32 
L 275.22041 223.786106 
L 273.983159 223.786106 
z
" style="fill:#808080;fill-opacity:0.6;stroke:#808080;stroke-linejoin:miter;stroke-opacity:0.6;"/>
   </g>
   <g id="patch_108">
    <path clip-path="url(#p1f068bc2f3)" d="M 275.22041 256.32 
L 276.45766 256.32 
L 276.45766 226.574084 
L 275.22041 226.574084 
z
" style="fill:#808080;fill-opacity:0.6;stroke:#808080;stroke-linejoin:miter;stroke-opacity:0.6;"/>
   </g>
   <g id="patch_109">
    <path clip-path="url(#p1f068bc2f3)" d="M 276.45766 256.32 
L 277.694911 256.32 
L 277.694911 227.877697 
L 276.45766 227.877697 
z
" style="fill:#808080;fill-opacity:0.6;stroke:#808080;stroke-linejoin:miter;stroke-opacity:0.6;"/>
   </g>
   <g id="patch_110">
    <path clip-path="url(#p1f068bc2f3)" d="M 277.694911 256.32 
L 278.932161 256.32 
L 278.932161 230.167234 
L 277.694911 230.167234 
z
" style="fill:#808080;fill-opacity:0.6;stroke:#808080;stroke-linejoin:miter;stroke-opacity:0.6;"/>
   </g>
   <g id="patch_111">
    <path clip-path="url(#p1f068bc2f3)" d="M 278.932161 256.32 
L 280.169412 256.32 
L 280.169412 230.546268 
L 278.932161 230.546268 
z
" style="fill:#808080;fill-opacity:0.6;stroke:#808080;stroke-linejoin:miter;stroke-opacity:0.6;"/>
   </g>
   <g id="patch_112">
    <path clip-path="url(#p1f068bc2f3)" d="M 280.169412 256.32 
L 281.406663 256.32 
L 281.406663 235.984194 
L 280.169412 235.984194 
z
" style="fill:#808080;fill-opacity:0.6;stroke:#808080;stroke-linejoin:miter;stroke-opacity:0.6;"/>
   </g>
   <g id="patch_113">
    <path clip-path="url(#p1f068bc2f3)" d="M 281.406663 256.32 
L 282.643913 256.32 
L 282.643913 238.369586 
L 281.406663 238.369586 
z
" style="fill:#808080;fill-opacity:0.6;stroke:#808080;stroke-linejoin:miter;stroke-opacity:0.6;"/>
   </g>
   <g id="patch_114">
    <path clip-path="url(#p1f068bc2f3)" d="M 282.643913 256.32 
L 283.881164 256.32 
L 283.881164 240.665696 
L 282.643913 240.665696 
z
" style="fill:#808080;fill-opacity:0.6;stroke:#808080;stroke-linejoin:miter;stroke-opacity:0.6;"/>
   </g>
   <g id="patch_115">
    <path clip-path="url(#p1f068bc2f3)" d="M 283.881164 256.32 
L 285.118415 256.32 
L 285.118415 241.929324 
L 283.881164 241.929324 
z
" style="fill:#808080;fill-opacity:0.6;stroke:#808080;stroke-linejoin:miter;stroke-opacity:0.6;"/>
   </g>
   <g id="patch_116">
    <path clip-path="url(#p1f068bc2f3)" d="M 285.118415 256.32 
L 286.355665 256.32 
L 286.355665 241.518522 
L 285.118415 241.518522 
z
" style="fill:#808080;fill-opacity:0.6;stroke:#808080;stroke-linejoin:miter;stroke-opacity:0.6;"/>
   </g>
   <g id="patch_117">
    <path clip-path="url(#p1f068bc2f3)" d="M 286.355665 256.32 
L 287.592916 256.32 
L 287.592916 244.502589 
L 286.355665 244.502589 
z
" style="fill:#808080;fill-opacity:0.6;stroke:#808080;stroke-linejoin:miter;stroke-opacity:0.6;"/>
   </g>
   <g id="patch_118">
    <path clip-path="url(#p1f068bc2f3)" d="M 287.592916 256.32 
L 288.830166 256.32 
L 288.830166 244.523951 
L 287.592916 244.523951 
z
" style="fill:#808080;fill-opacity:0.6;stroke:#808080;stroke-linejoin:miter;stroke-opacity:0.6;"/>
   </g>
   <g id="patch_119">
    <path clip-path="url(#p1f068bc2f3)" d="M 288.830166 256.32 
L 290.067417 256.32 
L 290.067417 246.316692 
L 288.830166 246.316692 
z
" style="fill:#808080;fill-opacity:0.6;stroke:#808080;stroke-linejoin:miter;stroke-opacity:0.6;"/>
   </g>
   <g id="patch_120">
    <path clip-path="url(#p1f068bc2f3)" d="M 290.067417 256.32 
L 291.304668 256.32 
L 291.304668 245.983668 
L 290.067417 245.983668 
z
" style="fill:#808080;fill-opacity:0.6;stroke:#808080;stroke-linejoin:miter;stroke-opacity:0.6;"/>
   </g>
   <g id="patch_121">
    <path clip-path="url(#p1f068bc2f3)" d="M 291.304668 256.32 
L 292.541918 256.32 
L 292.541918 246.725303 
L 291.304668 246.725303 
z
" style="fill:#808080;fill-opacity:0.6;stroke:#808080;stroke-linejoin:miter;stroke-opacity:0.6;"/>
   </g>
   <g id="patch_122">
    <path clip-path="url(#p1f068bc2f3)" d="M 292.541918 256.32 
L 293.779169 256.32 
L 293.779169 248.553099 
L 292.541918 248.553099 
z
" style="fill:#808080;fill-opacity:0.6;stroke:#808080;stroke-linejoin:miter;stroke-opacity:0.6;"/>
   </g>
   <g id="patch_123">
    <path clip-path="url(#p1f068bc2f3)" d="M 293.779169 256.32 
L 295.01642 256.32 
L 295.01642 247.946755 
L 293.779169 247.946755 
z
" style="fill:#808080;fill-opacity:0.6;stroke:#808080;stroke-linejoin:miter;stroke-opacity:0.6;"/>
   </g>
   <g id="patch_124">
    <path clip-path="url(#p1f068bc2f3)" d="M 298.728172 256.32 
L 299.965422 256.32 
L 299.965422 248.820942 
L 298.728172 248.820942 
z
" style="fill:#808080;fill-opacity:0.6;stroke:#808080;stroke-linejoin:miter;stroke-opacity:0.6;"/>
   </g>
   <g id="patch_125">
    <path d="M 54 256.32 
L 54 34.56 
" style="fill:none;stroke:#cccccc;stroke-linecap:square;stroke-linejoin:miter;stroke-width:0.8;"/>
   </g>
   <g id="patch_126">
    <path d="M 388.8 256.32 
L 388.8 34.56 
" style="fill:none;stroke:#cccccc;stroke-linecap:square;stroke-linejoin:miter;stroke-width:0.8;"/>
   </g>
   <g id="patch_127">
    <path d="M 54 256.32 
L 388.8 256.32 
" style="fill:none;stroke:#cccccc;stroke-linecap:square;stroke-linejoin:miter;stroke-width:0.8;"/>
   </g>
   <g id="patch_128">
    <path d="M 54 34.56 
L 388.8 34.56 
" style="fill:none;stroke:#cccccc;stroke-linecap:square;stroke-linejoin:miter;stroke-width:0.8;"/>
   </g>
  </g>
  <g id="axes_2">
   <g id="matplotlib.axis_2">
    <g id="xtick_1">
     <g id="line2d_1">
      <path clip-path="url(#p1f068bc2f3)" d="M 102.623946 256.32 
L 102.623946 34.56 
" style="fill:none;stroke:#cccccc;stroke-linecap:round;stroke-width:0.8;"/>
     </g>
     <g id="text_1">
      <!-- −10 -->
      <defs>
       <path d="M 10.59375 35.5 
L 73.1875 35.5 
L 73.1875 27.203125 
L 10.59375 27.203125 
z
" id="DejaVuSans-8722"/>
       <path d="M 12.40625 8.296875 
L 28.515625 8.296875 
L 28.515625 63.921875 
L 10.984375 60.40625 
L 10.984375 69.390625 
L 28.421875 72.90625 
L 38.28125 72.90625 
L 38.28125 8.296875 
L 54.390625 8.296875 
L 54.390625 0 
L 12.40625 0 
z
" id="DejaVuSans-49"/>
       <path d="M 31.78125 66.40625 
Q 24.171875 66.40625 20.328125 58.90625 
Q 16.5 51.421875 16.5 36.375 
Q 16.5 21.390625 20.328125 13.890625 
Q 24.171875 6.390625 31.78125 6.390625 
Q 39.453125 6.390625 43.28125 13.890625 
Q 47.125 21.390625 47.125 36.375 
Q 47.125 51.421875 43.28125 58.90625 
Q 39.453125 66.40625 31.78125 66.40625 
z
M 31.78125 74.21875 
Q 44.046875 74.21875 50.515625 64.515625 
Q 56.984375 54.828125 56.984375 36.375 
Q 56.984375 17.96875 50.515625 8.265625 
Q 44.046875 -1.421875 31.78125 -1.421875 
Q 19.53125 -1.421875 13.0625 8.265625 
Q 6.59375 17.96875 6.59375 36.375 
Q 6.59375 54.828125 13.0625 64.515625 
Q 19.53125 74.21875 31.78125 74.21875 
z
" id="DejaVuSans-48"/>
      </defs>
      <g style="fill:#262626;" transform="translate(92.071603 270.918437)scale(0.1 -0.1)">
       <use xlink:href="#DejaVuSans-8722"/>
       <use x="83.789062" xlink:href="#DejaVuSans-49"/>
       <use x="147.412109" xlink:href="#DejaVuSans-48"/>
      </g>
     </g>
    </g>
    <g id="xtick_2">
     <g id="line2d_2">
      <path clip-path="url(#p1f068bc2f3)" d="M 164.486478 256.32 
L 164.486478 34.56 
" style="fill:none;stroke:#cccccc;stroke-linecap:round;stroke-width:0.8;"/>
     </g>
     <g id="text_2">
      <!-- −5 -->
      <defs>
       <path d="M 10.796875 72.90625 
L 49.515625 72.90625 
L 49.515625 64.59375 
L 19.828125 64.59375 
L 19.828125 46.734375 
Q 21.96875 47.46875 24.109375 47.828125 
Q 26.265625 48.1875 28.421875 48.1875 
Q 40.625 48.1875 47.75 41.5 
Q 54.890625 34.8125 54.890625 23.390625 
Q 54.890625 11.625 47.5625 5.09375 
Q 40.234375 -1.421875 26.90625 -1.421875 
Q 22.3125 -1.421875 17.546875 -0.640625 
Q 12.796875 0.140625 7.71875 1.703125 
L 7.71875 11.625 
Q 12.109375 9.234375 16.796875 8.0625 
Q 21.484375 6.890625 26.703125 6.890625 
Q 35.15625 6.890625 40.078125 11.328125 
Q 45.015625 15.765625 45.015625 23.390625 
Q 45.015625 31 40.078125 35.4375 
Q 35.15625 39.890625 26.703125 39.890625 
Q 22.75 39.890625 18.8125 39.015625 
Q 14.890625 38.140625 10.796875 36.28125 
z
" id="DejaVuSans-53"/>
      </defs>
      <g style="fill:#262626;" transform="translate(157.115384 270.918437)scale(0.1 -0.1)">
       <use xlink:href="#DejaVuSans-8722"/>
       <use x="83.789062" xlink:href="#DejaVuSans-53"/>
      </g>
     </g>
    </g>
    <g id="xtick_3">
     <g id="line2d_3">
      <path clip-path="url(#p1f068bc2f3)" d="M 226.34901 256.32 
L 226.34901 34.56 
" style="fill:none;stroke:#cccccc;stroke-linecap:round;stroke-width:0.8;"/>
     </g>
     <g id="text_3">
      <!-- 0 -->
      <g style="fill:#262626;" transform="translate(223.16776 270.918437)scale(0.1 -0.1)">
       <use xlink:href="#DejaVuSans-48"/>
      </g>
     </g>
    </g>
    <g id="xtick_4">
     <g id="line2d_4">
      <path clip-path="url(#p1f068bc2f3)" d="M 288.211541 256.32 
L 288.211541 34.56 
" style="fill:none;stroke:#cccccc;stroke-linecap:round;stroke-width:0.8;"/>
     </g>
     <g id="text_4">
      <!-- 5 -->
      <g style="fill:#262626;" transform="translate(285.030291 270.918437)scale(0.1 -0.1)">
       <use xlink:href="#DejaVuSans-53"/>
      </g>
     </g>
    </g>
    <g id="xtick_5">
     <g id="line2d_5">
      <path clip-path="url(#p1f068bc2f3)" d="M 350.074073 256.32 
L 350.074073 34.56 
" style="fill:none;stroke:#cccccc;stroke-linecap:round;stroke-width:0.8;"/>
     </g>
     <g id="text_5">
      <!-- 10 -->
      <g style="fill:#262626;" transform="translate(343.711573 270.918437)scale(0.1 -0.1)">
       <use xlink:href="#DejaVuSans-49"/>
       <use x="63.623047" xlink:href="#DejaVuSans-48"/>
      </g>
     </g>
    </g>
   </g>
   <g id="matplotlib.axis_3">
    <g id="ytick_1">
     <g id="line2d_6">
      <path clip-path="url(#p1f068bc2f3)" d="M 54 238.957718 
L 388.8 238.957718 
" style="fill:none;stroke:#cccccc;stroke-linecap:round;stroke-width:0.8;"/>
     </g>
     <g id="line2d_7">
      <defs>
       <path d="M 0 0 
L -3.5 0 
" id="m3e8e8d2aca" style="stroke:#262626;stroke-width:0.8;"/>
      </defs>
      <g>
       <use style="fill:#262626;stroke:#262626;stroke-width:0.8;" x="54" xlink:href="#m3e8e8d2aca" y="238.957718"/>
      </g>
     </g>
     <g id="text_6">
      <!-- 0.0 -->
      <defs>
       <path d="M 10.6875 12.40625 
L 21 12.40625 
L 21 0 
L 10.6875 0 
z
" id="DejaVuSans-46"/>
      </defs>
      <g style="fill:#262626;" transform="translate(31.096875 242.756937)scale(0.1 -0.1)">
       <use xlink:href="#DejaVuSans-48"/>
       <use x="63.623047" xlink:href="#DejaVuSans-46"/>
       <use x="95.410156" xlink:href="#DejaVuSans-48"/>
      </g>
     </g>
    </g>
    <g id="ytick_2">
     <g id="line2d_8">
      <path clip-path="url(#p1f068bc2f3)" d="M 54 207.101615 
L 388.8 207.101615 
" style="fill:none;stroke:#cccccc;stroke-linecap:round;stroke-width:0.8;"/>
     </g>
     <g id="line2d_9">
      <g>
       <use style="fill:#262626;stroke:#262626;stroke-width:0.8;" x="54" xlink:href="#m3e8e8d2aca" y="207.101615"/>
      </g>
     </g>
     <g id="text_7">
      <!-- 0.1 -->
      <g style="fill:#262626;" transform="translate(31.096875 210.900833)scale(0.1 -0.1)">
       <use xlink:href="#DejaVuSans-48"/>
       <use x="63.623047" xlink:href="#DejaVuSans-46"/>
       <use x="95.410156" xlink:href="#DejaVuSans-49"/>
      </g>
     </g>
    </g>
    <g id="ytick_3">
     <g id="line2d_10">
      <path clip-path="url(#p1f068bc2f3)" d="M 54 175.245511 
L 388.8 175.245511 
" style="fill:none;stroke:#cccccc;stroke-linecap:round;stroke-width:0.8;"/>
     </g>
     <g id="line2d_11">
      <g>
       <use style="fill:#262626;stroke:#262626;stroke-width:0.8;" x="54" xlink:href="#m3e8e8d2aca" y="175.245511"/>
      </g>
     </g>
     <g id="text_8">
      <!-- 0.2 -->
      <defs>
       <path d="M 19.1875 8.296875 
L 53.609375 8.296875 
L 53.609375 0 
L 7.328125 0 
L 7.328125 8.296875 
Q 12.9375 14.109375 22.625 23.890625 
Q 32.328125 33.6875 34.8125 36.53125 
Q 39.546875 41.84375 41.421875 45.53125 
Q 43.3125 49.21875 43.3125 52.78125 
Q 43.3125 58.59375 39.234375 62.25 
Q 35.15625 65.921875 28.609375 65.921875 
Q 23.96875 65.921875 18.8125 64.3125 
Q 13.671875 62.703125 7.8125 59.421875 
L 7.8125 69.390625 
Q 13.765625 71.78125 18.9375 73 
Q 24.125 74.21875 28.421875 74.21875 
Q 39.75 74.21875 46.484375 68.546875 
Q 53.21875 62.890625 53.21875 53.421875 
Q 53.21875 48.921875 51.53125 44.890625 
Q 49.859375 40.875 45.40625 35.40625 
Q 44.1875 33.984375 37.640625 27.21875 
Q 31.109375 20.453125 19.1875 8.296875 
z
" id="DejaVuSans-50"/>
      </defs>
      <g style="fill:#262626;" transform="translate(31.096875 179.04473)scale(0.1 -0.1)">
       <use xlink:href="#DejaVuSans-48"/>
       <use x="63.623047" xlink:href="#DejaVuSans-46"/>
       <use x="95.410156" xlink:href="#DejaVuSans-50"/>
      </g>
     </g>
    </g>
    <g id="ytick_4">
     <g id="line2d_12">
      <path clip-path="url(#p1f068bc2f3)" d="M 54 143.389407 
L 388.8 143.389407 
" style="fill:none;stroke:#cccccc;stroke-linecap:round;stroke-width:0.8;"/>
     </g>
     <g id="line2d_13">
      <g>
       <use style="fill:#262626;stroke:#262626;stroke-width:0.8;" x="54" xlink:href="#m3e8e8d2aca" y="143.389407"/>
      </g>
     </g>
     <g id="text_9">
      <!-- 0.3 -->
      <defs>
       <path d="M 40.578125 39.3125 
Q 47.65625 37.796875 51.625 33 
Q 55.609375 28.21875 55.609375 21.1875 
Q 55.609375 10.40625 48.1875 4.484375 
Q 40.765625 -1.421875 27.09375 -1.421875 
Q 22.515625 -1.421875 17.65625 -0.515625 
Q 12.796875 0.390625 7.625 2.203125 
L 7.625 11.71875 
Q 11.71875 9.328125 16.59375 8.109375 
Q 21.484375 6.890625 26.8125 6.890625 
Q 36.078125 6.890625 40.9375 10.546875 
Q 45.796875 14.203125 45.796875 21.1875 
Q 45.796875 27.640625 41.28125 31.265625 
Q 36.765625 34.90625 28.71875 34.90625 
L 20.21875 34.90625 
L 20.21875 43.015625 
L 29.109375 43.015625 
Q 36.375 43.015625 40.234375 45.921875 
Q 44.09375 48.828125 44.09375 54.296875 
Q 44.09375 59.90625 40.109375 62.90625 
Q 36.140625 65.921875 28.71875 65.921875 
Q 24.65625 65.921875 20.015625 65.03125 
Q 15.375 64.15625 9.8125 62.3125 
L 9.8125 71.09375 
Q 15.4375 72.65625 20.34375 73.4375 
Q 25.25 74.21875 29.59375 74.21875 
Q 40.828125 74.21875 47.359375 69.109375 
Q 53.90625 64.015625 53.90625 55.328125 
Q 53.90625 49.265625 50.4375 45.09375 
Q 46.96875 40.921875 40.578125 39.3125 
z
" id="DejaVuSans-51"/>
      </defs>
      <g style="fill:#262626;" transform="translate(31.096875 147.188626)scale(0.1 -0.1)">
       <use xlink:href="#DejaVuSans-48"/>
       <use x="63.623047" xlink:href="#DejaVuSans-46"/>
       <use x="95.410156" xlink:href="#DejaVuSans-51"/>
      </g>
     </g>
    </g>
    <g id="ytick_5">
     <g id="line2d_14">
      <path clip-path="url(#p1f068bc2f3)" d="M 54 111.533303 
L 388.8 111.533303 
" style="fill:none;stroke:#cccccc;stroke-linecap:round;stroke-width:0.8;"/>
     </g>
     <g id="line2d_15">
      <g>
       <use style="fill:#262626;stroke:#262626;stroke-width:0.8;" x="54" xlink:href="#m3e8e8d2aca" y="111.533303"/>
      </g>
     </g>
     <g id="text_10">
      <!-- 0.4 -->
      <defs>
       <path d="M 37.796875 64.3125 
L 12.890625 25.390625 
L 37.796875 25.390625 
z
M 35.203125 72.90625 
L 47.609375 72.90625 
L 47.609375 25.390625 
L 58.015625 25.390625 
L 58.015625 17.1875 
L 47.609375 17.1875 
L 47.609375 0 
L 37.796875 0 
L 37.796875 17.1875 
L 4.890625 17.1875 
L 4.890625 26.703125 
z
" id="DejaVuSans-52"/>
      </defs>
      <g style="fill:#262626;" transform="translate(31.096875 115.332522)scale(0.1 -0.1)">
       <use xlink:href="#DejaVuSans-48"/>
       <use x="63.623047" xlink:href="#DejaVuSans-46"/>
       <use x="95.410156" xlink:href="#DejaVuSans-52"/>
      </g>
     </g>
    </g>
    <g id="ytick_6">
     <g id="line2d_16">
      <path clip-path="url(#p1f068bc2f3)" d="M 54 79.6772 
L 388.8 79.6772 
" style="fill:none;stroke:#cccccc;stroke-linecap:round;stroke-width:0.8;"/>
     </g>
     <g id="line2d_17">
      <g>
       <use style="fill:#262626;stroke:#262626;stroke-width:0.8;" x="54" xlink:href="#m3e8e8d2aca" y="79.6772"/>
      </g>
     </g>
     <g id="text_11">
      <!-- 0.5 -->
      <g style="fill:#262626;" transform="translate(31.096875 83.476418)scale(0.1 -0.1)">
       <use xlink:href="#DejaVuSans-48"/>
       <use x="63.623047" xlink:href="#DejaVuSans-46"/>
       <use x="95.410156" xlink:href="#DejaVuSans-53"/>
      </g>
     </g>
    </g>
    <g id="ytick_7">
     <g id="line2d_18">
      <path clip-path="url(#p1f068bc2f3)" d="M 54 47.821096 
L 388.8 47.821096 
" style="fill:none;stroke:#cccccc;stroke-linecap:round;stroke-width:0.8;"/>
     </g>
     <g id="line2d_19">
      <g>
       <use style="fill:#262626;stroke:#262626;stroke-width:0.8;" x="54" xlink:href="#m3e8e8d2aca" y="47.821096"/>
      </g>
     </g>
     <g id="text_12">
      <!-- 0.6 -->
      <defs>
       <path d="M 33.015625 40.375 
Q 26.375 40.375 22.484375 35.828125 
Q 18.609375 31.296875 18.609375 23.390625 
Q 18.609375 15.53125 22.484375 10.953125 
Q 26.375 6.390625 33.015625 6.390625 
Q 39.65625 6.390625 43.53125 10.953125 
Q 47.40625 15.53125 47.40625 23.390625 
Q 47.40625 31.296875 43.53125 35.828125 
Q 39.65625 40.375 33.015625 40.375 
z
M 52.59375 71.296875 
L 52.59375 62.3125 
Q 48.875 64.0625 45.09375 64.984375 
Q 41.3125 65.921875 37.59375 65.921875 
Q 27.828125 65.921875 22.671875 59.328125 
Q 17.53125 52.734375 16.796875 39.40625 
Q 19.671875 43.65625 24.015625 45.921875 
Q 28.375 48.1875 33.59375 48.1875 
Q 44.578125 48.1875 50.953125 41.515625 
Q 57.328125 34.859375 57.328125 23.390625 
Q 57.328125 12.15625 50.6875 5.359375 
Q 44.046875 -1.421875 33.015625 -1.421875 
Q 20.359375 -1.421875 13.671875 8.265625 
Q 6.984375 17.96875 6.984375 36.375 
Q 6.984375 53.65625 15.1875 63.9375 
Q 23.390625 74.21875 37.203125 74.21875 
Q 40.921875 74.21875 44.703125 73.484375 
Q 48.484375 72.75 52.59375 71.296875 
z
" id="DejaVuSans-54"/>
      </defs>
      <g style="fill:#262626;" transform="translate(31.096875 51.620315)scale(0.1 -0.1)">
       <use xlink:href="#DejaVuSans-48"/>
       <use x="63.623047" xlink:href="#DejaVuSans-46"/>
       <use x="95.410156" xlink:href="#DejaVuSans-54"/>
      </g>
     </g>
    </g>
   </g>
   <g id="line2d_20">
    <path clip-path="url(#p1f068bc2f3)" d="M 69.218182 236.176462 
L 82.623591 233.338071 
L 94.810316 230.977301 
L 106.083041 229.017294 
L 116.441766 227.442629 
L 125.88649 226.231333 
L 134.417201 225.354075 
L 142.338577 224.754912 
L 149.650617 224.415491 
L 156.657987 224.312345 
L 163.05602 224.435809 
L 169.149389 224.773355 
L 174.938087 225.318567 
L 180.422114 226.061244 
L 185.601476 226.986703 
L 190.476168 228.07522 
L 195.350862 229.39086 
L 200.225554 230.945927 
L 205.100247 232.745269 
L 209.97494 234.779822 
L 215.763638 237.453361 
L 228.864375 243.651257 
L 231.911058 244.799637 
L 234.653073 245.598689 
L 237.090419 246.061848 
L 239.223097 246.23492 
L 241.355776 246.159767 
L 243.183785 245.880544 
L 245.011795 245.395064 
L 246.839805 244.704715 
L 248.972483 243.657063 
L 251.409829 242.191642 
L 255.065849 239.67856 
L 258.721869 237.235241 
L 260.854547 236.082274 
L 262.682557 235.372164 
L 264.205899 235.032192 
L 265.729241 234.958256 
L 266.947912 235.105479 
L 268.471255 235.544207 
L 271.822607 236.785476 
L 272.127275 236.72215 
L 272.431943 236.530383 
L 272.73661 236.127177 
L 273.041281 235.353906 
L 273.345949 233.865519 
L 273.955285 227.25625 
L 274.259953 229.664474 
L 274.56462 230.576201 
L 274.869288 230.878102 
L 275.173959 230.864372 
L 275.783295 230.329612 
L 276.39263 229.410138 
L 277.306637 227.601637 
L 278.525308 224.632208 
L 280.048651 220.208601 
L 281.571993 215.08449 
L 283.4 208.081155 
L 285.228013 200.21827 
L 287.360691 190.085142 
L 290.102704 175.844121 
L 294.063395 153.879196 
L 299.242751 125.366157 
L 301.984771 111.483753 
L 304.422114 100.254284 
L 306.554792 91.409796 
L 308.687469 83.52733 
L 310.515482 77.536676 
L 312.343489 72.231698 
L 314.171502 67.577998 
L 315.99951 63.531905 
L 317.827523 60.044242 
L 319.65553 57.063208 
L 321.483543 54.536797 
L 323.31155 52.414559 
L 325.139563 50.648606 
L 326.967576 49.19447 
L 328.795577 48.011421 
L 330.928261 46.924906 
L 333.060933 46.105529 
L 335.498287 45.438604 
L 337.93563 45.004279 
L 340.677644 44.734141 
L 344.028999 44.640114 
L 347.989684 44.761939 
L 353.473711 45.177238 
L 373.581818 47.095017 
L 373.581818 47.095017 
" style="fill:none;stroke:#0000ff;stroke-linecap:round;stroke-width:1.5;"/>
   </g>
   <g id="patch_129">
    <path d="M 54 256.32 
L 54 34.56 
" style="fill:none;stroke:#cccccc;stroke-linecap:square;stroke-linejoin:miter;stroke-width:0.8;"/>
   </g>
   <g id="patch_130">
    <path d="M 388.8 256.32 
L 388.8 34.56 
" style="fill:none;stroke:#cccccc;stroke-linecap:square;stroke-linejoin:miter;stroke-width:0.8;"/>
   </g>
   <g id="patch_131">
    <path d="M 54 256.32 
L 388.8 256.32 
" style="fill:none;stroke:#cccccc;stroke-linecap:square;stroke-linejoin:miter;stroke-width:0.8;"/>
   </g>
   <g id="patch_132">
    <path d="M 54 34.56 
L 388.8 34.56 
" style="fill:none;stroke:#cccccc;stroke-linecap:square;stroke-linejoin:miter;stroke-width:0.8;"/>
   </g>
   <g id="legend_1">
    <g id="patch_133">
     <path d="M 61 57.238125 
L 117.760937 57.238125 
Q 119.760937 57.238125 119.760937 55.238125 
L 119.760937 41.56 
Q 119.760937 39.56 117.760937 39.56 
L 61 39.56 
Q 59 39.56 59 41.56 
L 59 55.238125 
Q 59 57.238125 61 57.238125 
z
" style="fill:#ffffff;opacity:0.8;stroke:#cccccc;stroke-linejoin:miter;"/>
    </g>
    <g id="line2d_21">
     <path d="M 63 47.658438 
L 83 47.658438 
" style="fill:none;stroke:#0000ff;stroke-linecap:round;stroke-width:1.5;"/>
    </g>
    <g id="line2d_22"/>
    <g id="text_13">
     <!-- sPAU -->
     <defs>
      <path d="M 44.28125 53.078125 
L 44.28125 44.578125 
Q 40.484375 46.53125 36.375 47.5 
Q 32.28125 48.484375 27.875 48.484375 
Q 21.1875 48.484375 17.84375 46.4375 
Q 14.5 44.390625 14.5 40.28125 
Q 14.5 37.15625 16.890625 35.375 
Q 19.28125 33.59375 26.515625 31.984375 
L 29.59375 31.296875 
Q 39.15625 29.25 43.1875 25.515625 
Q 47.21875 21.78125 47.21875 15.09375 
Q 47.21875 7.46875 41.1875 3.015625 
Q 35.15625 -1.421875 24.609375 -1.421875 
Q 20.21875 -1.421875 15.453125 -0.5625 
Q 10.6875 0.296875 5.421875 2 
L 5.421875 11.28125 
Q 10.40625 8.6875 15.234375 7.390625 
Q 20.0625 6.109375 24.8125 6.109375 
Q 31.15625 6.109375 34.5625 8.28125 
Q 37.984375 10.453125 37.984375 14.40625 
Q 37.984375 18.0625 35.515625 20.015625 
Q 33.0625 21.96875 24.703125 23.78125 
L 21.578125 24.515625 
Q 13.234375 26.265625 9.515625 29.90625 
Q 5.8125 33.546875 5.8125 39.890625 
Q 5.8125 47.609375 11.28125 51.796875 
Q 16.75 56 26.8125 56 
Q 31.78125 56 36.171875 55.265625 
Q 40.578125 54.546875 44.28125 53.078125 
z
" id="DejaVuSans-115"/>
      <path d="M 19.671875 64.796875 
L 19.671875 37.40625 
L 32.078125 37.40625 
Q 38.96875 37.40625 42.71875 40.96875 
Q 46.484375 44.53125 46.484375 51.125 
Q 46.484375 57.671875 42.71875 61.234375 
Q 38.96875 64.796875 32.078125 64.796875 
z
M 9.8125 72.90625 
L 32.078125 72.90625 
Q 44.34375 72.90625 50.609375 67.359375 
Q 56.890625 61.8125 56.890625 51.125 
Q 56.890625 40.328125 50.609375 34.8125 
Q 44.34375 29.296875 32.078125 29.296875 
L 19.671875 29.296875 
L 19.671875 0 
L 9.8125 0 
z
" id="DejaVuSans-80"/>
      <path d="M 34.1875 63.1875 
L 20.796875 26.90625 
L 47.609375 26.90625 
z
M 28.609375 72.90625 
L 39.796875 72.90625 
L 67.578125 0 
L 57.328125 0 
L 50.6875 18.703125 
L 17.828125 18.703125 
L 11.1875 0 
L 0.78125 0 
z
" id="DejaVuSans-65"/>
      <path d="M 8.6875 72.90625 
L 18.609375 72.90625 
L 18.609375 28.609375 
Q 18.609375 16.890625 22.84375 11.734375 
Q 27.09375 6.59375 36.625 6.59375 
Q 46.09375 6.59375 50.34375 11.734375 
Q 54.59375 16.890625 54.59375 28.609375 
L 54.59375 72.90625 
L 64.5 72.90625 
L 64.5 27.390625 
Q 64.5 13.140625 57.4375 5.859375 
Q 50.390625 -1.421875 36.625 -1.421875 
Q 22.796875 -1.421875 15.734375 5.859375 
Q 8.6875 13.140625 8.6875 27.390625 
z
" id="DejaVuSans-85"/>
     </defs>
     <g style="fill:#262626;" transform="translate(91 51.158438)scale(0.1 -0.1)">
      <use xlink:href="#DejaVuSans-115"/>
      <use x="52.099609" xlink:href="#DejaVuSans-80"/>
      <use x="106.027344" xlink:href="#DejaVuSans-65"/>
      <use x="174.435547" xlink:href="#DejaVuSans-85"/>
     </g>
    </g>
   </g>
  </g>
 </g>
 <defs>
  <clipPath id="p1f068bc2f3">
   <rect height="221.76" width="334.8" x="54" y="34.56"/>
  </clipPath>
 </defs>
</svg>
