<?xml version="1.0" encoding="utf-8" standalone="no"?>
<!DOCTYPE svg PUBLIC "-//W3C//DTD SVG 1.1//EN"
  "http://www.w3.org/Graphics/SVG/1.1/DTD/svg11.dtd">
<!-- Created with matplotlib (https://matplotlib.org/) -->
<svg height="288pt" version="1.1" viewBox="0 0 432 288" width="432pt" xmlns="http://www.w3.org/2000/svg" xmlns:xlink="http://www.w3.org/1999/xlink">
 <defs>
  <style type="text/css">
*{stroke-linecap:butt;stroke-linejoin:round;}
  </style>
 </defs>
 <g id="figure_1">
  <g id="patch_1">
   <path d="M 0 288 
L 432 288 
L 432 0 
L 0 0 
z
" style="fill:#ffffff;"/>
  </g>
  <g id="axes_1">
   <g id="matplotlib.axis_1"/>
   <g id="patch_2">
    <path clip-path="url(#p57a3a5dfef)" d="M 139.958949 256.32 
L 141.147869 256.32 
L 141.147869 249.339567 
L 139.958949 249.339567 
z
" style="fill:#808080;fill-opacity:0.6;stroke:#808080;stroke-linejoin:miter;stroke-opacity:0.6;"/>
   </g>
   <g id="patch_3">
    <path clip-path="url(#p57a3a5dfef)" d="M 153.037074 256.32 
L 154.225995 256.32 
L 154.225995 249.306922 
L 153.037074 249.306922 
z
" style="fill:#808080;fill-opacity:0.6;stroke:#808080;stroke-linejoin:miter;stroke-opacity:0.6;"/>
   </g>
   <g id="patch_4">
    <path clip-path="url(#p57a3a5dfef)" d="M 156.603836 256.32 
L 157.792756 256.32 
L 157.792756 249.611393 
L 156.603836 249.611393 
z
" style="fill:#808080;fill-opacity:0.6;stroke:#808080;stroke-linejoin:miter;stroke-opacity:0.6;"/>
   </g>
   <g id="patch_5">
    <path clip-path="url(#p57a3a5dfef)" d="M 158.981677 256.32 
L 160.170597 256.32 
L 160.170597 248.945903 
L 158.981677 248.945903 
z
" style="fill:#808080;fill-opacity:0.6;stroke:#808080;stroke-linejoin:miter;stroke-opacity:0.6;"/>
   </g>
   <g id="patch_6">
    <path clip-path="url(#p57a3a5dfef)" d="M 161.359518 256.32 
L 162.548439 256.32 
L 162.548439 247.928307 
L 161.359518 247.928307 
z
" style="fill:#808080;fill-opacity:0.6;stroke:#808080;stroke-linejoin:miter;stroke-opacity:0.6;"/>
   </g>
   <g id="patch_7">
    <path clip-path="url(#p57a3a5dfef)" d="M 164.92628 256.32 
L 166.1152 256.32 
L 166.1152 248.313726 
L 164.92628 248.313726 
z
" style="fill:#808080;fill-opacity:0.6;stroke:#808080;stroke-linejoin:miter;stroke-opacity:0.6;"/>
   </g>
   <g id="patch_8">
    <path clip-path="url(#p57a3a5dfef)" d="M 166.1152 256.32 
L 167.304121 256.32 
L 167.304121 248.31281 
L 166.1152 248.31281 
z
" style="fill:#808080;fill-opacity:0.6;stroke:#808080;stroke-linejoin:miter;stroke-opacity:0.6;"/>
   </g>
   <g id="patch_9">
    <path clip-path="url(#p57a3a5dfef)" d="M 168.493041 256.32 
L 169.681962 256.32 
L 169.681962 251.241429 
L 168.493041 251.241429 
z
" style="fill:#808080;fill-opacity:0.6;stroke:#808080;stroke-linejoin:miter;stroke-opacity:0.6;"/>
   </g>
   <g id="patch_10">
    <path clip-path="url(#p57a3a5dfef)" d="M 169.681962 256.32 
L 170.870882 256.32 
L 170.870882 250.874415 
L 169.681962 250.874415 
z
" style="fill:#808080;fill-opacity:0.6;stroke:#808080;stroke-linejoin:miter;stroke-opacity:0.6;"/>
   </g>
   <g id="patch_11">
    <path clip-path="url(#p57a3a5dfef)" d="M 170.870882 256.32 
L 172.059803 256.32 
L 172.059803 248.223534 
L 170.870882 248.223534 
z
" style="fill:#808080;fill-opacity:0.6;stroke:#808080;stroke-linejoin:miter;stroke-opacity:0.6;"/>
   </g>
   <g id="patch_12">
    <path clip-path="url(#p57a3a5dfef)" d="M 173.248723 256.32 
L 174.437644 256.32 
L 174.437644 250.742166 
L 173.248723 250.742166 
z
" style="fill:#808080;fill-opacity:0.6;stroke:#808080;stroke-linejoin:miter;stroke-opacity:0.6;"/>
   </g>
   <g id="patch_13">
    <path clip-path="url(#p57a3a5dfef)" d="M 175.626564 256.32 
L 176.815485 256.32 
L 176.815485 247.815879 
L 175.626564 247.815879 
z
" style="fill:#808080;fill-opacity:0.6;stroke:#808080;stroke-linejoin:miter;stroke-opacity:0.6;"/>
   </g>
   <g id="patch_14">
    <path clip-path="url(#p57a3a5dfef)" d="M 176.815485 256.32 
L 178.004405 256.32 
L 178.004405 246.404786 
L 176.815485 246.404786 
z
" style="fill:#808080;fill-opacity:0.6;stroke:#808080;stroke-linejoin:miter;stroke-opacity:0.6;"/>
   </g>
   <g id="patch_15">
    <path clip-path="url(#p57a3a5dfef)" d="M 178.004405 256.32 
L 179.193326 256.32 
L 179.193326 247.775739 
L 178.004405 247.775739 
z
" style="fill:#808080;fill-opacity:0.6;stroke:#808080;stroke-linejoin:miter;stroke-opacity:0.6;"/>
   </g>
   <g id="patch_16">
    <path clip-path="url(#p57a3a5dfef)" d="M 179.193326 256.32 
L 180.382246 256.32 
L 180.382246 245.567074 
L 179.193326 245.567074 
z
" style="fill:#808080;fill-opacity:0.6;stroke:#808080;stroke-linejoin:miter;stroke-opacity:0.6;"/>
   </g>
   <g id="patch_17">
    <path clip-path="url(#p57a3a5dfef)" d="M 180.382246 256.32 
L 181.571167 256.32 
L 181.571167 245.713063 
L 180.382246 245.713063 
z
" style="fill:#808080;fill-opacity:0.6;stroke:#808080;stroke-linejoin:miter;stroke-opacity:0.6;"/>
   </g>
   <g id="patch_18">
    <path clip-path="url(#p57a3a5dfef)" d="M 181.571167 256.32 
L 182.760087 256.32 
L 182.760087 247.955706 
L 181.571167 247.955706 
z
" style="fill:#808080;fill-opacity:0.6;stroke:#808080;stroke-linejoin:miter;stroke-opacity:0.6;"/>
   </g>
   <g id="patch_19">
    <path clip-path="url(#p57a3a5dfef)" d="M 182.760087 256.32 
L 183.949008 256.32 
L 183.949008 247.960287 
L 182.760087 247.960287 
z
" style="fill:#808080;fill-opacity:0.6;stroke:#808080;stroke-linejoin:miter;stroke-opacity:0.6;"/>
   </g>
   <g id="patch_20">
    <path clip-path="url(#p57a3a5dfef)" d="M 183.949008 256.32 
L 185.137929 256.32 
L 185.137929 244.218857 
L 183.949008 244.218857 
z
" style="fill:#808080;fill-opacity:0.6;stroke:#808080;stroke-linejoin:miter;stroke-opacity:0.6;"/>
   </g>
   <g id="patch_21">
    <path clip-path="url(#p57a3a5dfef)" d="M 185.137929 256.32 
L 186.326849 256.32 
L 186.326849 246.718668 
L 185.137929 246.718668 
z
" style="fill:#808080;fill-opacity:0.6;stroke:#808080;stroke-linejoin:miter;stroke-opacity:0.6;"/>
   </g>
   <g id="patch_22">
    <path clip-path="url(#p57a3a5dfef)" d="M 186.326849 256.32 
L 187.51577 256.32 
L 187.51577 243.9442 
L 186.326849 243.9442 
z
" style="fill:#808080;fill-opacity:0.6;stroke:#808080;stroke-linejoin:miter;stroke-opacity:0.6;"/>
   </g>
   <g id="patch_23">
    <path clip-path="url(#p57a3a5dfef)" d="M 187.51577 256.32 
L 188.70469 256.32 
L 188.70469 244.564635 
L 187.51577 244.564635 
z
" style="fill:#808080;fill-opacity:0.6;stroke:#808080;stroke-linejoin:miter;stroke-opacity:0.6;"/>
   </g>
   <g id="patch_24">
    <path clip-path="url(#p57a3a5dfef)" d="M 188.70469 256.32 
L 189.893611 256.32 
L 189.893611 246.174767 
L 188.70469 246.174767 
z
" style="fill:#808080;fill-opacity:0.6;stroke:#808080;stroke-linejoin:miter;stroke-opacity:0.6;"/>
   </g>
   <g id="patch_25">
    <path clip-path="url(#p57a3a5dfef)" d="M 189.893611 256.32 
L 191.082531 256.32 
L 191.082531 246.087157 
L 189.893611 246.087157 
z
" style="fill:#808080;fill-opacity:0.6;stroke:#808080;stroke-linejoin:miter;stroke-opacity:0.6;"/>
   </g>
   <g id="patch_26">
    <path clip-path="url(#p57a3a5dfef)" d="M 191.082531 256.32 
L 192.271452 256.32 
L 192.271452 237.662068 
L 191.082531 237.662068 
z
" style="fill:#808080;fill-opacity:0.6;stroke:#808080;stroke-linejoin:miter;stroke-opacity:0.6;"/>
   </g>
   <g id="patch_27">
    <path clip-path="url(#p57a3a5dfef)" d="M 192.271452 256.32 
L 193.460372 256.32 
L 193.460372 246.174351 
L 192.271452 246.174351 
z
" style="fill:#808080;fill-opacity:0.6;stroke:#808080;stroke-linejoin:miter;stroke-opacity:0.6;"/>
   </g>
   <g id="patch_28">
    <path clip-path="url(#p57a3a5dfef)" d="M 193.460372 256.32 
L 194.649293 256.32 
L 194.649293 245.801923 
L 193.460372 245.801923 
z
" style="fill:#808080;fill-opacity:0.6;stroke:#808080;stroke-linejoin:miter;stroke-opacity:0.6;"/>
   </g>
   <g id="patch_29">
    <path clip-path="url(#p57a3a5dfef)" d="M 194.649293 256.32 
L 195.838213 256.32 
L 195.838213 241.288989 
L 194.649293 241.288989 
z
" style="fill:#808080;fill-opacity:0.6;stroke:#808080;stroke-linejoin:miter;stroke-opacity:0.6;"/>
   </g>
   <g id="patch_30">
    <path clip-path="url(#p57a3a5dfef)" d="M 195.838213 256.32 
L 197.027134 256.32 
L 197.027134 244.176884 
L 195.838213 244.176884 
z
" style="fill:#808080;fill-opacity:0.6;stroke:#808080;stroke-linejoin:miter;stroke-opacity:0.6;"/>
   </g>
   <g id="patch_31">
    <path clip-path="url(#p57a3a5dfef)" d="M 197.027134 256.32 
L 198.216054 256.32 
L 198.216054 241.24535 
L 197.027134 241.24535 
z
" style="fill:#808080;fill-opacity:0.6;stroke:#808080;stroke-linejoin:miter;stroke-opacity:0.6;"/>
   </g>
   <g id="patch_32">
    <path clip-path="url(#p57a3a5dfef)" d="M 198.216054 256.32 
L 199.404975 256.32 
L 199.404975 238.771522 
L 198.216054 238.771522 
z
" style="fill:#808080;fill-opacity:0.6;stroke:#808080;stroke-linejoin:miter;stroke-opacity:0.6;"/>
   </g>
   <g id="patch_33">
    <path clip-path="url(#p57a3a5dfef)" d="M 199.404975 256.32 
L 200.593895 256.32 
L 200.593895 242.574746 
L 199.404975 242.574746 
z
" style="fill:#808080;fill-opacity:0.6;stroke:#808080;stroke-linejoin:miter;stroke-opacity:0.6;"/>
   </g>
   <g id="patch_34">
    <path clip-path="url(#p57a3a5dfef)" d="M 200.593895 256.32 
L 201.782816 256.32 
L 201.782816 242.759627 
L 200.593895 242.759627 
z
" style="fill:#808080;fill-opacity:0.6;stroke:#808080;stroke-linejoin:miter;stroke-opacity:0.6;"/>
   </g>
   <g id="patch_35">
    <path clip-path="url(#p57a3a5dfef)" d="M 201.782816 256.32 
L 202.971736 256.32 
L 202.971736 242.918109 
L 201.782816 242.918109 
z
" style="fill:#808080;fill-opacity:0.6;stroke:#808080;stroke-linejoin:miter;stroke-opacity:0.6;"/>
   </g>
   <g id="patch_36">
    <path clip-path="url(#p57a3a5dfef)" d="M 202.971736 256.32 
L 204.160657 256.32 
L 204.160657 235.984646 
L 202.971736 235.984646 
z
" style="fill:#808080;fill-opacity:0.6;stroke:#808080;stroke-linejoin:miter;stroke-opacity:0.6;"/>
   </g>
   <g id="patch_37">
    <path clip-path="url(#p57a3a5dfef)" d="M 204.160657 256.32 
L 205.349577 256.32 
L 205.349577 202.621411 
L 204.160657 202.621411 
z
" style="fill:#808080;fill-opacity:0.6;stroke:#808080;stroke-linejoin:miter;stroke-opacity:0.6;"/>
   </g>
   <g id="patch_38">
    <path clip-path="url(#p57a3a5dfef)" d="M 205.349577 256.32 
L 206.538498 256.32 
L 206.538498 238.487455 
L 205.349577 238.487455 
z
" style="fill:#808080;fill-opacity:0.6;stroke:#808080;stroke-linejoin:miter;stroke-opacity:0.6;"/>
   </g>
   <g id="patch_39">
    <path clip-path="url(#p57a3a5dfef)" d="M 206.538498 256.32 
L 207.727418 256.32 
L 207.727418 211.367626 
L 206.538498 211.367626 
z
" style="fill:#808080;fill-opacity:0.6;stroke:#808080;stroke-linejoin:miter;stroke-opacity:0.6;"/>
   </g>
   <g id="patch_40">
    <path clip-path="url(#p57a3a5dfef)" d="M 207.727418 256.32 
L 208.916339 256.32 
L 208.916339 239.634885 
L 207.727418 239.634885 
z
" style="fill:#808080;fill-opacity:0.6;stroke:#808080;stroke-linejoin:miter;stroke-opacity:0.6;"/>
   </g>
   <g id="patch_41">
    <path clip-path="url(#p57a3a5dfef)" d="M 208.916339 256.32 
L 210.10526 256.32 
L 210.10526 203.957552 
L 208.916339 203.957552 
z
" style="fill:#808080;fill-opacity:0.6;stroke:#808080;stroke-linejoin:miter;stroke-opacity:0.6;"/>
   </g>
   <g id="patch_42">
    <path clip-path="url(#p57a3a5dfef)" d="M 210.10526 256.32 
L 211.29418 256.32 
L 211.29418 232.641877 
L 210.10526 232.641877 
z
" style="fill:#808080;fill-opacity:0.6;stroke:#808080;stroke-linejoin:miter;stroke-opacity:0.6;"/>
   </g>
   <g id="patch_43">
    <path clip-path="url(#p57a3a5dfef)" d="M 211.29418 256.32 
L 212.483101 256.32 
L 212.483101 225.183834 
L 211.29418 225.183834 
z
" style="fill:#808080;fill-opacity:0.6;stroke:#808080;stroke-linejoin:miter;stroke-opacity:0.6;"/>
   </g>
   <g id="patch_44">
    <path clip-path="url(#p57a3a5dfef)" d="M 212.483101 256.32 
L 213.672021 256.32 
L 213.672021 228.756872 
L 212.483101 228.756872 
z
" style="fill:#808080;fill-opacity:0.6;stroke:#808080;stroke-linejoin:miter;stroke-opacity:0.6;"/>
   </g>
   <g id="patch_45">
    <path clip-path="url(#p57a3a5dfef)" d="M 213.672021 256.32 
L 214.860942 256.32 
L 214.860942 229.696185 
L 213.672021 229.696185 
z
" style="fill:#808080;fill-opacity:0.6;stroke:#808080;stroke-linejoin:miter;stroke-opacity:0.6;"/>
   </g>
   <g id="patch_46">
    <path clip-path="url(#p57a3a5dfef)" d="M 214.860942 256.32 
L 216.049862 256.32 
L 216.049862 205.872655 
L 214.860942 205.872655 
z
" style="fill:#808080;fill-opacity:0.6;stroke:#808080;stroke-linejoin:miter;stroke-opacity:0.6;"/>
   </g>
   <g id="patch_47">
    <path clip-path="url(#p57a3a5dfef)" d="M 216.049862 256.32 
L 217.238783 256.32 
L 217.238783 236.002718 
L 216.049862 236.002718 
z
" style="fill:#808080;fill-opacity:0.6;stroke:#808080;stroke-linejoin:miter;stroke-opacity:0.6;"/>
   </g>
   <g id="patch_48">
    <path clip-path="url(#p57a3a5dfef)" d="M 217.238783 256.32 
L 218.427703 256.32 
L 218.427703 234.813315 
L 217.238783 234.813315 
z
" style="fill:#808080;fill-opacity:0.6;stroke:#808080;stroke-linejoin:miter;stroke-opacity:0.6;"/>
   </g>
   <g id="patch_49">
    <path clip-path="url(#p57a3a5dfef)" d="M 218.427703 256.32 
L 219.616624 256.32 
L 219.616624 198.801115 
L 218.427703 198.801115 
z
" style="fill:#808080;fill-opacity:0.6;stroke:#808080;stroke-linejoin:miter;stroke-opacity:0.6;"/>
   </g>
   <g id="patch_50">
    <path clip-path="url(#p57a3a5dfef)" d="M 219.616624 256.32 
L 220.805544 256.32 
L 220.805544 231.984715 
L 219.616624 231.984715 
z
" style="fill:#808080;fill-opacity:0.6;stroke:#808080;stroke-linejoin:miter;stroke-opacity:0.6;"/>
   </g>
   <g id="patch_51">
    <path clip-path="url(#p57a3a5dfef)" d="M 220.805544 256.32 
L 221.994465 256.32 
L 221.994465 225.671104 
L 220.805544 225.671104 
z
" style="fill:#808080;fill-opacity:0.6;stroke:#808080;stroke-linejoin:miter;stroke-opacity:0.6;"/>
   </g>
   <g id="patch_52">
    <path clip-path="url(#p57a3a5dfef)" d="M 221.994465 256.32 
L 223.183385 256.32 
L 223.183385 230.087767 
L 221.994465 230.087767 
z
" style="fill:#808080;fill-opacity:0.6;stroke:#808080;stroke-linejoin:miter;stroke-opacity:0.6;"/>
   </g>
   <g id="patch_53">
    <path clip-path="url(#p57a3a5dfef)" d="M 223.183385 256.32 
L 224.372306 256.32 
L 224.372306 228.197648 
L 223.183385 228.197648 
z
" style="fill:#808080;fill-opacity:0.6;stroke:#808080;stroke-linejoin:miter;stroke-opacity:0.6;"/>
   </g>
   <g id="patch_54">
    <path clip-path="url(#p57a3a5dfef)" d="M 224.372306 256.32 
L 225.561226 256.32 
L 225.561226 219.120645 
L 224.372306 219.120645 
z
" style="fill:#808080;fill-opacity:0.6;stroke:#808080;stroke-linejoin:miter;stroke-opacity:0.6;"/>
   </g>
   <g id="patch_55">
    <path clip-path="url(#p57a3a5dfef)" d="M 225.561226 256.32 
L 226.750147 256.32 
L 226.750147 225.616556 
L 225.561226 225.616556 
z
" style="fill:#808080;fill-opacity:0.6;stroke:#808080;stroke-linejoin:miter;stroke-opacity:0.6;"/>
   </g>
   <g id="patch_56">
    <path clip-path="url(#p57a3a5dfef)" d="M 226.750147 256.32 
L 227.939067 256.32 
L 227.939067 224.370773 
L 226.750147 224.370773 
z
" style="fill:#808080;fill-opacity:0.6;stroke:#808080;stroke-linejoin:miter;stroke-opacity:0.6;"/>
   </g>
   <g id="patch_57">
    <path clip-path="url(#p57a3a5dfef)" d="M 227.939067 256.32 
L 229.127988 256.32 
L 229.127988 217.656919 
L 227.939067 217.656919 
z
" style="fill:#808080;fill-opacity:0.6;stroke:#808080;stroke-linejoin:miter;stroke-opacity:0.6;"/>
   </g>
   <g id="patch_58">
    <path clip-path="url(#p57a3a5dfef)" d="M 229.127988 256.32 
L 230.316908 256.32 
L 230.316908 210.243598 
L 229.127988 210.243598 
z
" style="fill:#808080;fill-opacity:0.6;stroke:#808080;stroke-linejoin:miter;stroke-opacity:0.6;"/>
   </g>
   <g id="patch_59">
    <path clip-path="url(#p57a3a5dfef)" d="M 230.316908 256.32 
L 231.505829 256.32 
L 231.505829 176.352535 
L 230.316908 176.352535 
z
" style="fill:#808080;fill-opacity:0.6;stroke:#808080;stroke-linejoin:miter;stroke-opacity:0.6;"/>
   </g>
   <g id="patch_60">
    <path clip-path="url(#p57a3a5dfef)" d="M 231.505829 256.32 
L 232.69475 256.32 
L 232.69475 196.921572 
L 231.505829 196.921572 
z
" style="fill:#808080;fill-opacity:0.6;stroke:#808080;stroke-linejoin:miter;stroke-opacity:0.6;"/>
   </g>
   <g id="patch_61">
    <path clip-path="url(#p57a3a5dfef)" d="M 232.69475 256.32 
L 233.88367 256.32 
L 233.88367 194.176918 
L 232.69475 194.176918 
z
" style="fill:#808080;fill-opacity:0.6;stroke:#808080;stroke-linejoin:miter;stroke-opacity:0.6;"/>
   </g>
   <g id="patch_62">
    <path clip-path="url(#p57a3a5dfef)" d="M 233.88367 256.32 
L 235.072591 256.32 
L 235.072591 200.495776 
L 233.88367 200.495776 
z
" style="fill:#808080;fill-opacity:0.6;stroke:#808080;stroke-linejoin:miter;stroke-opacity:0.6;"/>
   </g>
   <g id="patch_63">
    <path clip-path="url(#p57a3a5dfef)" d="M 235.072591 256.32 
L 236.261511 256.32 
L 236.261511 203.27091 
L 235.072591 203.27091 
z
" style="fill:#808080;fill-opacity:0.6;stroke:#808080;stroke-linejoin:miter;stroke-opacity:0.6;"/>
   </g>
   <g id="patch_64">
    <path clip-path="url(#p57a3a5dfef)" d="M 236.261511 256.32 
L 237.450432 256.32 
L 237.450432 145.536913 
L 236.261511 145.536913 
z
" style="fill:#808080;fill-opacity:0.6;stroke:#808080;stroke-linejoin:miter;stroke-opacity:0.6;"/>
   </g>
   <g id="patch_65">
    <path clip-path="url(#p57a3a5dfef)" d="M 237.450432 256.32 
L 238.639352 256.32 
L 238.639352 200.58247 
L 237.450432 200.58247 
z
" style="fill:#808080;fill-opacity:0.6;stroke:#808080;stroke-linejoin:miter;stroke-opacity:0.6;"/>
   </g>
   <g id="patch_66">
    <path clip-path="url(#p57a3a5dfef)" d="M 238.639352 256.32 
L 239.828273 256.32 
L 239.828273 160.2687 
L 238.639352 160.2687 
z
" style="fill:#808080;fill-opacity:0.6;stroke:#808080;stroke-linejoin:miter;stroke-opacity:0.6;"/>
   </g>
   <g id="patch_67">
    <path clip-path="url(#p57a3a5dfef)" d="M 239.828273 256.32 
L 241.017193 256.32 
L 241.017193 193.29765 
L 239.828273 193.29765 
z
" style="fill:#808080;fill-opacity:0.6;stroke:#808080;stroke-linejoin:miter;stroke-opacity:0.6;"/>
   </g>
   <g id="patch_68">
    <path clip-path="url(#p57a3a5dfef)" d="M 241.017193 256.32 
L 242.206114 256.32 
L 242.206114 162.233854 
L 241.017193 162.233854 
z
" style="fill:#808080;fill-opacity:0.6;stroke:#808080;stroke-linejoin:miter;stroke-opacity:0.6;"/>
   </g>
   <g id="patch_69">
    <path clip-path="url(#p57a3a5dfef)" d="M 242.206114 256.32 
L 243.395034 256.32 
L 243.395034 177.409606 
L 242.206114 177.409606 
z
" style="fill:#808080;fill-opacity:0.6;stroke:#808080;stroke-linejoin:miter;stroke-opacity:0.6;"/>
   </g>
   <g id="patch_70">
    <path clip-path="url(#p57a3a5dfef)" d="M 243.395034 256.32 
L 244.583955 256.32 
L 244.583955 128.575808 
L 243.395034 128.575808 
z
" style="fill:#808080;fill-opacity:0.6;stroke:#808080;stroke-linejoin:miter;stroke-opacity:0.6;"/>
   </g>
   <g id="patch_71">
    <path clip-path="url(#p57a3a5dfef)" d="M 244.583955 256.32 
L 245.772875 256.32 
L 245.772875 181.784212 
L 244.583955 181.784212 
z
" style="fill:#808080;fill-opacity:0.6;stroke:#808080;stroke-linejoin:miter;stroke-opacity:0.6;"/>
   </g>
   <g id="patch_72">
    <path clip-path="url(#p57a3a5dfef)" d="M 245.772875 256.32 
L 246.961796 256.32 
L 246.961796 134.405646 
L 245.772875 134.405646 
z
" style="fill:#808080;fill-opacity:0.6;stroke:#808080;stroke-linejoin:miter;stroke-opacity:0.6;"/>
   </g>
   <g id="patch_73">
    <path clip-path="url(#p57a3a5dfef)" d="M 246.961796 256.32 
L 248.150716 256.32 
L 248.150716 45.12 
L 246.961796 45.12 
z
" style="fill:#808080;fill-opacity:0.6;stroke:#808080;stroke-linejoin:miter;stroke-opacity:0.6;"/>
   </g>
   <g id="patch_74">
    <path clip-path="url(#p57a3a5dfef)" d="M 248.150716 256.32 
L 249.339637 256.32 
L 249.339637 157.892309 
L 248.150716 157.892309 
z
" style="fill:#808080;fill-opacity:0.6;stroke:#808080;stroke-linejoin:miter;stroke-opacity:0.6;"/>
   </g>
   <g id="patch_75">
    <path clip-path="url(#p57a3a5dfef)" d="M 249.339637 256.32 
L 250.528557 256.32 
L 250.528557 146.241377 
L 249.339637 146.241377 
z
" style="fill:#808080;fill-opacity:0.6;stroke:#808080;stroke-linejoin:miter;stroke-opacity:0.6;"/>
   </g>
   <g id="patch_76">
    <path clip-path="url(#p57a3a5dfef)" d="M 250.528557 256.32 
L 251.717478 256.32 
L 251.717478 115.988893 
L 250.528557 115.988893 
z
" style="fill:#808080;fill-opacity:0.6;stroke:#808080;stroke-linejoin:miter;stroke-opacity:0.6;"/>
   </g>
   <g id="patch_77">
    <path clip-path="url(#p57a3a5dfef)" d="M 251.717478 256.32 
L 252.906398 256.32 
L 252.906398 155.328207 
L 251.717478 155.328207 
z
" style="fill:#808080;fill-opacity:0.6;stroke:#808080;stroke-linejoin:miter;stroke-opacity:0.6;"/>
   </g>
   <g id="patch_78">
    <path clip-path="url(#p57a3a5dfef)" d="M 252.906398 256.32 
L 254.095319 256.32 
L 254.095319 160.708167 
L 252.906398 160.708167 
z
" style="fill:#808080;fill-opacity:0.6;stroke:#808080;stroke-linejoin:miter;stroke-opacity:0.6;"/>
   </g>
   <g id="patch_79">
    <path clip-path="url(#p57a3a5dfef)" d="M 254.095319 256.32 
L 255.28424 256.32 
L 255.28424 176.839389 
L 254.095319 176.839389 
z
" style="fill:#808080;fill-opacity:0.6;stroke:#808080;stroke-linejoin:miter;stroke-opacity:0.6;"/>
   </g>
   <g id="patch_80">
    <path clip-path="url(#p57a3a5dfef)" d="M 255.28424 256.32 
L 256.47316 256.32 
L 256.47316 174.136791 
L 255.28424 174.136791 
z
" style="fill:#808080;fill-opacity:0.6;stroke:#808080;stroke-linejoin:miter;stroke-opacity:0.6;"/>
   </g>
   <g id="patch_81">
    <path clip-path="url(#p57a3a5dfef)" d="M 256.47316 256.32 
L 257.662081 256.32 
L 257.662081 161.385149 
L 256.47316 161.385149 
z
" style="fill:#808080;fill-opacity:0.6;stroke:#808080;stroke-linejoin:miter;stroke-opacity:0.6;"/>
   </g>
   <g id="patch_82">
    <path clip-path="url(#p57a3a5dfef)" d="M 257.662081 256.32 
L 258.851001 256.32 
L 258.851001 133.781131 
L 257.662081 133.781131 
z
" style="fill:#808080;fill-opacity:0.6;stroke:#808080;stroke-linejoin:miter;stroke-opacity:0.6;"/>
   </g>
   <g id="patch_83">
    <path clip-path="url(#p57a3a5dfef)" d="M 258.851001 256.32 
L 260.039922 256.32 
L 260.039922 155.316298 
L 258.851001 155.316298 
z
" style="fill:#808080;fill-opacity:0.6;stroke:#808080;stroke-linejoin:miter;stroke-opacity:0.6;"/>
   </g>
   <g id="patch_84">
    <path clip-path="url(#p57a3a5dfef)" d="M 260.039922 256.32 
L 261.228842 256.32 
L 261.228842 115.650028 
L 260.039922 115.650028 
z
" style="fill:#808080;fill-opacity:0.6;stroke:#808080;stroke-linejoin:miter;stroke-opacity:0.6;"/>
   </g>
   <g id="patch_85">
    <path clip-path="url(#p57a3a5dfef)" d="M 261.228842 256.32 
L 262.417763 256.32 
L 262.417763 169.117099 
L 261.228842 169.117099 
z
" style="fill:#808080;fill-opacity:0.6;stroke:#808080;stroke-linejoin:miter;stroke-opacity:0.6;"/>
   </g>
   <g id="patch_86">
    <path clip-path="url(#p57a3a5dfef)" d="M 262.417763 256.32 
L 263.606683 256.32 
L 263.606683 126.347739 
L 262.417763 126.347739 
z
" style="fill:#808080;fill-opacity:0.6;stroke:#808080;stroke-linejoin:miter;stroke-opacity:0.6;"/>
   </g>
   <g id="patch_87">
    <path clip-path="url(#p57a3a5dfef)" d="M 263.606683 256.32 
L 264.795604 256.32 
L 264.795604 133.447262 
L 263.606683 133.447262 
z
" style="fill:#808080;fill-opacity:0.6;stroke:#808080;stroke-linejoin:miter;stroke-opacity:0.6;"/>
   </g>
   <g id="patch_88">
    <path clip-path="url(#p57a3a5dfef)" d="M 264.795604 256.32 
L 265.984524 256.32 
L 265.984524 161.735341 
L 264.795604 161.735341 
z
" style="fill:#808080;fill-opacity:0.6;stroke:#808080;stroke-linejoin:miter;stroke-opacity:0.6;"/>
   </g>
   <g id="patch_89">
    <path clip-path="url(#p57a3a5dfef)" d="M 265.984524 256.32 
L 267.173445 256.32 
L 267.173445 186.935487 
L 265.984524 186.935487 
z
" style="fill:#808080;fill-opacity:0.6;stroke:#808080;stroke-linejoin:miter;stroke-opacity:0.6;"/>
   </g>
   <g id="patch_90">
    <path clip-path="url(#p57a3a5dfef)" d="M 267.173445 256.32 
L 268.362365 256.32 
L 268.362365 166.168077 
L 267.173445 166.168077 
z
" style="fill:#808080;fill-opacity:0.6;stroke:#808080;stroke-linejoin:miter;stroke-opacity:0.6;"/>
   </g>
   <g id="patch_91">
    <path clip-path="url(#p57a3a5dfef)" d="M 268.362365 256.32 
L 269.551286 256.32 
L 269.551286 196.351855 
L 268.362365 196.351855 
z
" style="fill:#808080;fill-opacity:0.6;stroke:#808080;stroke-linejoin:miter;stroke-opacity:0.6;"/>
   </g>
   <g id="patch_92">
    <path clip-path="url(#p57a3a5dfef)" d="M 269.551286 256.32 
L 270.740206 256.32 
L 270.740206 201.25787 
L 269.551286 201.25787 
z
" style="fill:#808080;fill-opacity:0.6;stroke:#808080;stroke-linejoin:miter;stroke-opacity:0.6;"/>
   </g>
   <g id="patch_93">
    <path clip-path="url(#p57a3a5dfef)" d="M 270.740206 256.32 
L 271.929127 256.32 
L 271.929127 228.286258 
L 270.740206 228.286258 
z
" style="fill:#808080;fill-opacity:0.6;stroke:#808080;stroke-linejoin:miter;stroke-opacity:0.6;"/>
   </g>
   <g id="patch_94">
    <path clip-path="url(#p57a3a5dfef)" d="M 271.929127 256.32 
L 273.118047 256.32 
L 273.118047 231.678495 
L 271.929127 231.678495 
z
" style="fill:#808080;fill-opacity:0.6;stroke:#808080;stroke-linejoin:miter;stroke-opacity:0.6;"/>
   </g>
   <g id="patch_95">
    <path clip-path="url(#p57a3a5dfef)" d="M 273.118047 256.32 
L 274.306968 256.32 
L 274.306968 239.285026 
L 273.118047 239.285026 
z
" style="fill:#808080;fill-opacity:0.6;stroke:#808080;stroke-linejoin:miter;stroke-opacity:0.6;"/>
   </g>
   <g id="patch_96">
    <path clip-path="url(#p57a3a5dfef)" d="M 274.306968 256.32 
L 275.495888 256.32 
L 275.495888 238.627865 
L 274.306968 238.627865 
z
" style="fill:#808080;fill-opacity:0.6;stroke:#808080;stroke-linejoin:miter;stroke-opacity:0.6;"/>
   </g>
   <g id="patch_97">
    <path clip-path="url(#p57a3a5dfef)" d="M 275.495888 256.32 
L 276.684809 256.32 
L 276.684809 238.569486 
L 275.495888 238.569486 
z
" style="fill:#808080;fill-opacity:0.6;stroke:#808080;stroke-linejoin:miter;stroke-opacity:0.6;"/>
   </g>
   <g id="patch_98">
    <path clip-path="url(#p57a3a5dfef)" d="M 276.684809 256.32 
L 277.873729 256.32 
L 277.873729 208.105554 
L 276.684809 208.105554 
z
" style="fill:#808080;fill-opacity:0.6;stroke:#808080;stroke-linejoin:miter;stroke-opacity:0.6;"/>
   </g>
   <g id="patch_99">
    <path clip-path="url(#p57a3a5dfef)" d="M 277.873729 256.32 
L 279.06265 256.32 
L 279.06265 243.14388 
L 277.873729 243.14388 
z
" style="fill:#808080;fill-opacity:0.6;stroke:#808080;stroke-linejoin:miter;stroke-opacity:0.6;"/>
   </g>
   <g id="patch_100">
    <path clip-path="url(#p57a3a5dfef)" d="M 279.06265 256.32 
L 280.251571 256.32 
L 280.251571 238.818742 
L 279.06265 238.818742 
z
" style="fill:#808080;fill-opacity:0.6;stroke:#808080;stroke-linejoin:miter;stroke-opacity:0.6;"/>
   </g>
   <g id="patch_101">
    <path clip-path="url(#p57a3a5dfef)" d="M 280.251571 256.32 
L 281.440491 256.32 
L 281.440491 236.800788 
L 280.251571 236.800788 
z
" style="fill:#808080;fill-opacity:0.6;stroke:#808080;stroke-linejoin:miter;stroke-opacity:0.6;"/>
   </g>
   <g id="patch_102">
    <path clip-path="url(#p57a3a5dfef)" d="M 281.440491 256.32 
L 282.629412 256.32 
L 282.629412 246.055677 
L 281.440491 246.055677 
z
" style="fill:#808080;fill-opacity:0.6;stroke:#808080;stroke-linejoin:miter;stroke-opacity:0.6;"/>
   </g>
   <g id="patch_103">
    <path clip-path="url(#p57a3a5dfef)" d="M 282.629412 256.32 
L 283.818332 256.32 
L 283.818332 244.054129 
L 282.629412 244.054129 
z
" style="fill:#808080;fill-opacity:0.6;stroke:#808080;stroke-linejoin:miter;stroke-opacity:0.6;"/>
   </g>
   <g id="patch_104">
    <path clip-path="url(#p57a3a5dfef)" d="M 283.818332 256.32 
L 285.007253 256.32 
L 285.007253 244.236345 
L 283.818332 244.236345 
z
" style="fill:#808080;fill-opacity:0.6;stroke:#808080;stroke-linejoin:miter;stroke-opacity:0.6;"/>
   </g>
   <g id="patch_105">
    <path clip-path="url(#p57a3a5dfef)" d="M 285.007253 256.32 
L 286.196173 256.32 
L 286.196173 247.216431 
L 285.007253 247.216431 
z
" style="fill:#808080;fill-opacity:0.6;stroke:#808080;stroke-linejoin:miter;stroke-opacity:0.6;"/>
   </g>
   <g id="patch_106">
    <path clip-path="url(#p57a3a5dfef)" d="M 286.196173 256.32 
L 287.385094 256.32 
L 287.385094 249.431425 
L 286.196173 249.431425 
z
" style="fill:#808080;fill-opacity:0.6;stroke:#808080;stroke-linejoin:miter;stroke-opacity:0.6;"/>
   </g>
   <g id="patch_107">
    <path clip-path="url(#p57a3a5dfef)" d="M 287.385094 256.32 
L 288.574014 256.32 
L 288.574014 251.288482 
L 287.385094 251.288482 
z
" style="fill:#808080;fill-opacity:0.6;stroke:#808080;stroke-linejoin:miter;stroke-opacity:0.6;"/>
   </g>
   <g id="patch_108">
    <path clip-path="url(#p57a3a5dfef)" d="M 289.762935 256.32 
L 290.951855 256.32 
L 290.951855 250.616997 
L 289.762935 250.616997 
z
" style="fill:#808080;fill-opacity:0.6;stroke:#808080;stroke-linejoin:miter;stroke-opacity:0.6;"/>
   </g>
   <g id="patch_109">
    <path clip-path="url(#p57a3a5dfef)" d="M 296.896458 256.32 
L 298.085378 256.32 
L 298.085378 249.705416 
L 296.896458 249.705416 
z
" style="fill:#808080;fill-opacity:0.6;stroke:#808080;stroke-linejoin:miter;stroke-opacity:0.6;"/>
   </g>
   <g id="patch_110">
    <path clip-path="url(#p57a3a5dfef)" d="M 301.65214 256.32 
L 302.841061 256.32 
L 302.841061 250.847432 
L 301.65214 250.847432 
z
" style="fill:#808080;fill-opacity:0.6;stroke:#808080;stroke-linejoin:miter;stroke-opacity:0.6;"/>
   </g>
   <g id="patch_111">
    <path d="M 54 256.32 
L 54 34.56 
" style="fill:none;stroke:#cccccc;stroke-linecap:square;stroke-linejoin:miter;stroke-width:0.8;"/>
   </g>
   <g id="patch_112">
    <path d="M 388.8 256.32 
L 388.8 34.56 
" style="fill:none;stroke:#cccccc;stroke-linecap:square;stroke-linejoin:miter;stroke-width:0.8;"/>
   </g>
   <g id="patch_113">
    <path d="M 54 256.32 
L 388.8 256.32 
" style="fill:none;stroke:#cccccc;stroke-linecap:square;stroke-linejoin:miter;stroke-width:0.8;"/>
   </g>
   <g id="patch_114">
    <path d="M 54 34.56 
L 388.8 34.56 
" style="fill:none;stroke:#cccccc;stroke-linecap:square;stroke-linejoin:miter;stroke-width:0.8;"/>
   </g>
  </g>
  <g id="axes_2">
   <g id="matplotlib.axis_2">
    <g id="xtick_1">
     <g id="line2d_1">
      <path clip-path="url(#p57a3a5dfef)" d="M 109.641475 256.32 
L 109.641475 34.56 
" style="fill:none;stroke:#cccccc;stroke-linecap:round;stroke-width:0.8;"/>
     </g>
     <g id="text_1">
      <!-- −10 -->
      <defs>
       <path d="M 10.59375 35.5 
L 73.1875 35.5 
L 73.1875 27.203125 
L 10.59375 27.203125 
z
" id="DejaVuSans-8722"/>
       <path d="M 12.40625 8.296875 
L 28.515625 8.296875 
L 28.515625 63.921875 
L 10.984375 60.40625 
L 10.984375 69.390625 
L 28.421875 72.90625 
L 38.28125 72.90625 
L 38.28125 8.296875 
L 54.390625 8.296875 
L 54.390625 0 
L 12.40625 0 
z
" id="DejaVuSans-49"/>
       <path d="M 31.78125 66.40625 
Q 24.171875 66.40625 20.328125 58.90625 
Q 16.5 51.421875 16.5 36.375 
Q 16.5 21.390625 20.328125 13.890625 
Q 24.171875 6.390625 31.78125 6.390625 
Q 39.453125 6.390625 43.28125 13.890625 
Q 47.125 21.390625 47.125 36.375 
Q 47.125 51.421875 43.28125 58.90625 
Q 39.453125 66.40625 31.78125 66.40625 
z
M 31.78125 74.21875 
Q 44.046875 74.21875 50.515625 64.515625 
Q 56.984375 54.828125 56.984375 36.375 
Q 56.984375 17.96875 50.515625 8.265625 
Q 44.046875 -1.421875 31.78125 -1.421875 
Q 19.53125 -1.421875 13.0625 8.265625 
Q 6.59375 17.96875 6.59375 36.375 
Q 6.59375 54.828125 13.0625 64.515625 
Q 19.53125 74.21875 31.78125 74.21875 
z
" id="DejaVuSans-48"/>
      </defs>
      <g style="fill:#262626;" transform="translate(99.089131 270.918437)scale(0.1 -0.1)">
       <use xlink:href="#DejaVuSans-8722"/>
       <use x="83.789062" xlink:href="#DejaVuSans-49"/>
       <use x="147.412109" xlink:href="#DejaVuSans-48"/>
      </g>
     </g>
    </g>
    <g id="xtick_2">
     <g id="line2d_2">
      <path clip-path="url(#p57a3a5dfef)" d="M 169.087501 256.32 
L 169.087501 34.56 
" style="fill:none;stroke:#cccccc;stroke-linecap:round;stroke-width:0.8;"/>
     </g>
     <g id="text_2">
      <!-- −5 -->
      <defs>
       <path d="M 10.796875 72.90625 
L 49.515625 72.90625 
L 49.515625 64.59375 
L 19.828125 64.59375 
L 19.828125 46.734375 
Q 21.96875 47.46875 24.109375 47.828125 
Q 26.265625 48.1875 28.421875 48.1875 
Q 40.625 48.1875 47.75 41.5 
Q 54.890625 34.8125 54.890625 23.390625 
Q 54.890625 11.625 47.5625 5.09375 
Q 40.234375 -1.421875 26.90625 -1.421875 
Q 22.3125 -1.421875 17.546875 -0.640625 
Q 12.796875 0.140625 7.71875 1.703125 
L 7.71875 11.625 
Q 12.109375 9.234375 16.796875 8.0625 
Q 21.484375 6.890625 26.703125 6.890625 
Q 35.15625 6.890625 40.078125 11.328125 
Q 45.015625 15.765625 45.015625 23.390625 
Q 45.015625 31 40.078125 35.4375 
Q 35.15625 39.890625 26.703125 39.890625 
Q 22.75 39.890625 18.8125 39.015625 
Q 14.890625 38.140625 10.796875 36.28125 
z
" id="DejaVuSans-53"/>
      </defs>
      <g style="fill:#262626;" transform="translate(161.716408 270.918437)scale(0.1 -0.1)">
       <use xlink:href="#DejaVuSans-8722"/>
       <use x="83.789062" xlink:href="#DejaVuSans-53"/>
      </g>
     </g>
    </g>
    <g id="xtick_3">
     <g id="line2d_3">
      <path clip-path="url(#p57a3a5dfef)" d="M 228.533528 256.32 
L 228.533528 34.56 
" style="fill:none;stroke:#cccccc;stroke-linecap:round;stroke-width:0.8;"/>
     </g>
     <g id="text_3">
      <!-- 0 -->
      <g style="fill:#262626;" transform="translate(225.352278 270.918437)scale(0.1 -0.1)">
       <use xlink:href="#DejaVuSans-48"/>
      </g>
     </g>
    </g>
    <g id="xtick_4">
     <g id="line2d_4">
      <path clip-path="url(#p57a3a5dfef)" d="M 287.979554 256.32 
L 287.979554 34.56 
" style="fill:none;stroke:#cccccc;stroke-linecap:round;stroke-width:0.8;"/>
     </g>
     <g id="text_4">
      <!-- 5 -->
      <g style="fill:#262626;" transform="translate(284.798304 270.918437)scale(0.1 -0.1)">
       <use xlink:href="#DejaVuSans-53"/>
      </g>
     </g>
    </g>
    <g id="xtick_5">
     <g id="line2d_5">
      <path clip-path="url(#p57a3a5dfef)" d="M 347.42558 256.32 
L 347.42558 34.56 
" style="fill:none;stroke:#cccccc;stroke-linecap:round;stroke-width:0.8;"/>
     </g>
     <g id="text_5">
      <!-- 10 -->
      <g style="fill:#262626;" transform="translate(341.06308 270.918437)scale(0.1 -0.1)">
       <use xlink:href="#DejaVuSans-49"/>
       <use x="63.623047" xlink:href="#DejaVuSans-48"/>
      </g>
     </g>
    </g>
   </g>
   <g id="matplotlib.axis_3">
    <g id="ytick_1">
     <g id="line2d_6">
      <path clip-path="url(#p57a3a5dfef)" d="M 54 236.577194 
L 388.8 236.577194 
" style="fill:none;stroke:#cccccc;stroke-linecap:round;stroke-width:0.8;"/>
     </g>
     <g id="line2d_7">
      <defs>
       <path d="M 0 0 
L -3.5 0 
" id="m57fbaca6a2" style="stroke:#262626;stroke-width:0.8;"/>
      </defs>
      <g>
       <use style="fill:#262626;stroke:#262626;stroke-width:0.8;" x="54" xlink:href="#m57fbaca6a2" y="236.577194"/>
      </g>
     </g>
     <g id="text_6">
      <!-- 0.0 -->
      <defs>
       <path d="M 10.6875 12.40625 
L 21 12.40625 
L 21 0 
L 10.6875 0 
z
" id="DejaVuSans-46"/>
      </defs>
      <g style="fill:#262626;" transform="translate(31.096875 240.376413)scale(0.1 -0.1)">
       <use xlink:href="#DejaVuSans-48"/>
       <use x="63.623047" xlink:href="#DejaVuSans-46"/>
       <use x="95.410156" xlink:href="#DejaVuSans-48"/>
      </g>
     </g>
    </g>
    <g id="ytick_2">
     <g id="line2d_8">
      <path clip-path="url(#p57a3a5dfef)" d="M 54 192.736067 
L 388.8 192.736067 
" style="fill:none;stroke:#cccccc;stroke-linecap:round;stroke-width:0.8;"/>
     </g>
     <g id="line2d_9">
      <g>
       <use style="fill:#262626;stroke:#262626;stroke-width:0.8;" x="54" xlink:href="#m57fbaca6a2" y="192.736067"/>
      </g>
     </g>
     <g id="text_7">
      <!-- 0.1 -->
      <g style="fill:#262626;" transform="translate(31.096875 196.535286)scale(0.1 -0.1)">
       <use xlink:href="#DejaVuSans-48"/>
       <use x="63.623047" xlink:href="#DejaVuSans-46"/>
       <use x="95.410156" xlink:href="#DejaVuSans-49"/>
      </g>
     </g>
    </g>
    <g id="ytick_3">
     <g id="line2d_10">
      <path clip-path="url(#p57a3a5dfef)" d="M 54 148.89494 
L 388.8 148.89494 
" style="fill:none;stroke:#cccccc;stroke-linecap:round;stroke-width:0.8;"/>
     </g>
     <g id="line2d_11">
      <g>
       <use style="fill:#262626;stroke:#262626;stroke-width:0.8;" x="54" xlink:href="#m57fbaca6a2" y="148.89494"/>
      </g>
     </g>
     <g id="text_8">
      <!-- 0.2 -->
      <defs>
       <path d="M 19.1875 8.296875 
L 53.609375 8.296875 
L 53.609375 0 
L 7.328125 0 
L 7.328125 8.296875 
Q 12.9375 14.109375 22.625 23.890625 
Q 32.328125 33.6875 34.8125 36.53125 
Q 39.546875 41.84375 41.421875 45.53125 
Q 43.3125 49.21875 43.3125 52.78125 
Q 43.3125 58.59375 39.234375 62.25 
Q 35.15625 65.921875 28.609375 65.921875 
Q 23.96875 65.921875 18.8125 64.3125 
Q 13.671875 62.703125 7.8125 59.421875 
L 7.8125 69.390625 
Q 13.765625 71.78125 18.9375 73 
Q 24.125 74.21875 28.421875 74.21875 
Q 39.75 74.21875 46.484375 68.546875 
Q 53.21875 62.890625 53.21875 53.421875 
Q 53.21875 48.921875 51.53125 44.890625 
Q 49.859375 40.875 45.40625 35.40625 
Q 44.1875 33.984375 37.640625 27.21875 
Q 31.109375 20.453125 19.1875 8.296875 
z
" id="DejaVuSans-50"/>
      </defs>
      <g style="fill:#262626;" transform="translate(31.096875 152.694159)scale(0.1 -0.1)">
       <use xlink:href="#DejaVuSans-48"/>
       <use x="63.623047" xlink:href="#DejaVuSans-46"/>
       <use x="95.410156" xlink:href="#DejaVuSans-50"/>
      </g>
     </g>
    </g>
    <g id="ytick_4">
     <g id="line2d_12">
      <path clip-path="url(#p57a3a5dfef)" d="M 54 105.053813 
L 388.8 105.053813 
" style="fill:none;stroke:#cccccc;stroke-linecap:round;stroke-width:0.8;"/>
     </g>
     <g id="line2d_13">
      <g>
       <use style="fill:#262626;stroke:#262626;stroke-width:0.8;" x="54" xlink:href="#m57fbaca6a2" y="105.053813"/>
      </g>
     </g>
     <g id="text_9">
      <!-- 0.3 -->
      <defs>
       <path d="M 40.578125 39.3125 
Q 47.65625 37.796875 51.625 33 
Q 55.609375 28.21875 55.609375 21.1875 
Q 55.609375 10.40625 48.1875 4.484375 
Q 40.765625 -1.421875 27.09375 -1.421875 
Q 22.515625 -1.421875 17.65625 -0.515625 
Q 12.796875 0.390625 7.625 2.203125 
L 7.625 11.71875 
Q 11.71875 9.328125 16.59375 8.109375 
Q 21.484375 6.890625 26.8125 6.890625 
Q 36.078125 6.890625 40.9375 10.546875 
Q 45.796875 14.203125 45.796875 21.1875 
Q 45.796875 27.640625 41.28125 31.265625 
Q 36.765625 34.90625 28.71875 34.90625 
L 20.21875 34.90625 
L 20.21875 43.015625 
L 29.109375 43.015625 
Q 36.375 43.015625 40.234375 45.921875 
Q 44.09375 48.828125 44.09375 54.296875 
Q 44.09375 59.90625 40.109375 62.90625 
Q 36.140625 65.921875 28.71875 65.921875 
Q 24.65625 65.921875 20.015625 65.03125 
Q 15.375 64.15625 9.8125 62.3125 
L 9.8125 71.09375 
Q 15.4375 72.65625 20.34375 73.4375 
Q 25.25 74.21875 29.59375 74.21875 
Q 40.828125 74.21875 47.359375 69.109375 
Q 53.90625 64.015625 53.90625 55.328125 
Q 53.90625 49.265625 50.4375 45.09375 
Q 46.96875 40.921875 40.578125 39.3125 
z
" id="DejaVuSans-51"/>
      </defs>
      <g style="fill:#262626;" transform="translate(31.096875 108.853032)scale(0.1 -0.1)">
       <use xlink:href="#DejaVuSans-48"/>
       <use x="63.623047" xlink:href="#DejaVuSans-46"/>
       <use x="95.410156" xlink:href="#DejaVuSans-51"/>
      </g>
     </g>
    </g>
    <g id="ytick_5">
     <g id="line2d_14">
      <path clip-path="url(#p57a3a5dfef)" d="M 54 61.212686 
L 388.8 61.212686 
" style="fill:none;stroke:#cccccc;stroke-linecap:round;stroke-width:0.8;"/>
     </g>
     <g id="line2d_15">
      <g>
       <use style="fill:#262626;stroke:#262626;stroke-width:0.8;" x="54" xlink:href="#m57fbaca6a2" y="61.212686"/>
      </g>
     </g>
     <g id="text_10">
      <!-- 0.4 -->
      <defs>
       <path d="M 37.796875 64.3125 
L 12.890625 25.390625 
L 37.796875 25.390625 
z
M 35.203125 72.90625 
L 47.609375 72.90625 
L 47.609375 25.390625 
L 58.015625 25.390625 
L 58.015625 17.1875 
L 47.609375 17.1875 
L 47.609375 0 
L 37.796875 0 
L 37.796875 17.1875 
L 4.890625 17.1875 
L 4.890625 26.703125 
z
" id="DejaVuSans-52"/>
      </defs>
      <g style="fill:#262626;" transform="translate(31.096875 65.011905)scale(0.1 -0.1)">
       <use xlink:href="#DejaVuSans-48"/>
       <use x="63.623047" xlink:href="#DejaVuSans-46"/>
       <use x="95.410156" xlink:href="#DejaVuSans-52"/>
      </g>
     </g>
    </g>
   </g>
   <g id="line2d_16">
    <path clip-path="url(#p57a3a5dfef)" d="M 69.218182 244.808825 
L 82.623585 240.737892 
L 94.810322 237.268112 
L 105.778381 234.371192 
L 115.832428 231.939498 
L 124.972483 229.948146 
L 133.503195 228.310372 
L 141.424568 227.011839 
L 148.736607 226.032936 
L 155.439309 225.348344 
L 161.837347 224.911291 
L 167.930709 224.717728 
L 173.719409 224.760632 
L 179.203439 225.029458 
L 184.382799 225.509682 
L 189.257494 226.182463 
L 194.132185 227.088249 
L 198.70221 228.164729 
L 203.272235 229.473734 
L 207.842258 231.022993 
L 212.412283 232.812039 
L 217.286976 234.968228 
L 223.075674 237.796239 
L 234.348401 243.402374 
L 237.699752 244.760361 
L 240.137099 245.531004 
L 242.269777 245.999547 
L 244.402455 246.226511 
L 246.230465 246.190781 
L 248.058474 245.908894 
L 249.581816 245.464097 
L 251.105158 244.811952 
L 252.628499 243.940331 
L 254.151839 242.84196 
L 255.979849 241.224479 
L 257.807859 239.296952 
L 259.940539 236.714294 
L 263.901225 231.438675 
L 266.033904 228.791144 
L 267.557245 227.239645 
L 268.775919 226.311653 
L 269.994591 225.702621 
L 272.12727 224.848341 
L 272.736606 224.113942 
L 273.041275 223.463445 
L 273.345944 222.498664 
L 273.650611 221.069115 
L 273.95528 218.947597 
L 274.259949 215.781154 
L 274.564616 211.000814 
L 274.869285 211.626688 
L 275.173954 213.678946 
L 275.478621 214.829894 
L 275.78329 215.348966 
L 276.087959 215.410967 
L 276.392626 215.133688 
L 277.001964 213.865197 
L 277.611297 211.96003 
L 278.525305 208.380235 
L 280.048646 201.359983 
L 282.485994 188.920174 
L 290.407367 147.774126 
L 293.149385 134.861543 
L 295.586728 124.3187 
L 298.024076 114.737694 
L 300.156755 107.16219 
L 302.289435 100.329156 
L 304.422108 94.208201 
L 306.554787 88.756052 
L 308.687467 83.921583 
L 310.820146 79.649696 
L 312.95282 75.884482 
L 315.085499 72.571327 
L 317.218178 69.658375 
L 319.350857 67.097398 
L 321.788206 64.545254 
L 324.225554 62.336475 
L 326.662897 60.419258 
L 329.404915 58.554956 
L 332.146921 56.947773 
L 335.193603 55.407513 
L 338.544959 53.951422 
L 342.505643 52.477954 
L 347.075676 51.021406 
L 352.864364 49.42823 
L 360.481079 47.579881 
L 373.581818 44.64 
L 373.581818 44.64 
" style="fill:none;stroke:#0000ff;stroke-linecap:round;stroke-width:1.5;"/>
   </g>
   <g id="patch_115">
    <path d="M 54 256.32 
L 54 34.56 
" style="fill:none;stroke:#cccccc;stroke-linecap:square;stroke-linejoin:miter;stroke-width:0.8;"/>
   </g>
   <g id="patch_116">
    <path d="M 388.8 256.32 
L 388.8 34.56 
" style="fill:none;stroke:#cccccc;stroke-linecap:square;stroke-linejoin:miter;stroke-width:0.8;"/>
   </g>
   <g id="patch_117">
    <path d="M 54 256.32 
L 388.8 256.32 
" style="fill:none;stroke:#cccccc;stroke-linecap:square;stroke-linejoin:miter;stroke-width:0.8;"/>
   </g>
   <g id="patch_118">
    <path d="M 54 34.56 
L 388.8 34.56 
" style="fill:none;stroke:#cccccc;stroke-linecap:square;stroke-linejoin:miter;stroke-width:0.8;"/>
   </g>
   <g id="legend_1">
    <g id="patch_119">
     <path d="M 61 57.238125 
L 117.760937 57.238125 
Q 119.760937 57.238125 119.760937 55.238125 
L 119.760937 41.56 
Q 119.760937 39.56 117.760937 39.56 
L 61 39.56 
Q 59 39.56 59 41.56 
L 59 55.238125 
Q 59 57.238125 61 57.238125 
z
" style="fill:#ffffff;opacity:0.8;stroke:#cccccc;stroke-linejoin:miter;"/>
    </g>
    <g id="line2d_17">
     <path d="M 63 47.658438 
L 83 47.658438 
" style="fill:none;stroke:#0000ff;stroke-linecap:round;stroke-width:1.5;"/>
    </g>
    <g id="line2d_18"/>
    <g id="text_11">
     <!-- sPAU -->
     <defs>
      <path d="M 44.28125 53.078125 
L 44.28125 44.578125 
Q 40.484375 46.53125 36.375 47.5 
Q 32.28125 48.484375 27.875 48.484375 
Q 21.1875 48.484375 17.84375 46.4375 
Q 14.5 44.390625 14.5 40.28125 
Q 14.5 37.15625 16.890625 35.375 
Q 19.28125 33.59375 26.515625 31.984375 
L 29.59375 31.296875 
Q 39.15625 29.25 43.1875 25.515625 
Q 47.21875 21.78125 47.21875 15.09375 
Q 47.21875 7.46875 41.1875 3.015625 
Q 35.15625 -1.421875 24.609375 -1.421875 
Q 20.21875 -1.421875 15.453125 -0.5625 
Q 10.6875 0.296875 5.421875 2 
L 5.421875 11.28125 
Q 10.40625 8.6875 15.234375 7.390625 
Q 20.0625 6.109375 24.8125 6.109375 
Q 31.15625 6.109375 34.5625 8.28125 
Q 37.984375 10.453125 37.984375 14.40625 
Q 37.984375 18.0625 35.515625 20.015625 
Q 33.0625 21.96875 24.703125 23.78125 
L 21.578125 24.515625 
Q 13.234375 26.265625 9.515625 29.90625 
Q 5.8125 33.546875 5.8125 39.890625 
Q 5.8125 47.609375 11.28125 51.796875 
Q 16.75 56 26.8125 56 
Q 31.78125 56 36.171875 55.265625 
Q 40.578125 54.546875 44.28125 53.078125 
z
" id="DejaVuSans-115"/>
      <path d="M 19.671875 64.796875 
L 19.671875 37.40625 
L 32.078125 37.40625 
Q 38.96875 37.40625 42.71875 40.96875 
Q 46.484375 44.53125 46.484375 51.125 
Q 46.484375 57.671875 42.71875 61.234375 
Q 38.96875 64.796875 32.078125 64.796875 
z
M 9.8125 72.90625 
L 32.078125 72.90625 
Q 44.34375 72.90625 50.609375 67.359375 
Q 56.890625 61.8125 56.890625 51.125 
Q 56.890625 40.328125 50.609375 34.8125 
Q 44.34375 29.296875 32.078125 29.296875 
L 19.671875 29.296875 
L 19.671875 0 
L 9.8125 0 
z
" id="DejaVuSans-80"/>
      <path d="M 34.1875 63.1875 
L 20.796875 26.90625 
L 47.609375 26.90625 
z
M 28.609375 72.90625 
L 39.796875 72.90625 
L 67.578125 0 
L 57.328125 0 
L 50.6875 18.703125 
L 17.828125 18.703125 
L 11.1875 0 
L 0.78125 0 
z
" id="DejaVuSans-65"/>
      <path d="M 8.6875 72.90625 
L 18.609375 72.90625 
L 18.609375 28.609375 
Q 18.609375 16.890625 22.84375 11.734375 
Q 27.09375 6.59375 36.625 6.59375 
Q 46.09375 6.59375 50.34375 11.734375 
Q 54.59375 16.890625 54.59375 28.609375 
L 54.59375 72.90625 
L 64.5 72.90625 
L 64.5 27.390625 
Q 64.5 13.140625 57.4375 5.859375 
Q 50.390625 -1.421875 36.625 -1.421875 
Q 22.796875 -1.421875 15.734375 5.859375 
Q 8.6875 13.140625 8.6875 27.390625 
z
" id="DejaVuSans-85"/>
     </defs>
     <g style="fill:#262626;" transform="translate(91 51.158438)scale(0.1 -0.1)">
      <use xlink:href="#DejaVuSans-115"/>
      <use x="52.099609" xlink:href="#DejaVuSans-80"/>
      <use x="106.027344" xlink:href="#DejaVuSans-65"/>
      <use x="174.435547" xlink:href="#DejaVuSans-85"/>
     </g>
    </g>
   </g>
  </g>
 </g>
 <defs>
  <clipPath id="p57a3a5dfef">
   <rect height="221.76" width="334.8" x="54" y="34.56"/>
  </clipPath>
 </defs>
</svg>
