<?xml version="1.0" encoding="utf-8" standalone="no"?>
<!DOCTYPE svg PUBLIC "-//W3C//DTD SVG 1.1//EN"
  "http://www.w3.org/Graphics/SVG/1.1/DTD/svg11.dtd">
<!-- Created with matplotlib (https://matplotlib.org/) -->
<svg height="288pt" version="1.1" viewBox="0 0 432 288" width="432pt" xmlns="http://www.w3.org/2000/svg" xmlns:xlink="http://www.w3.org/1999/xlink">
 <defs>
  <style type="text/css">
*{stroke-linecap:butt;stroke-linejoin:round;}
  </style>
 </defs>
 <g id="figure_1">
  <g id="patch_1">
   <path d="M 0 288 
L 432 288 
L 432 0 
L 0 0 
z
" style="fill:#ffffff;"/>
  </g>
  <g id="axes_1">
   <g id="matplotlib.axis_1"/>
   <g id="patch_2">
    <path clip-path="url(#p56134c8303)" d="M 145.071552 256.32 
L 145.388268 256.32 
L 145.388268 251.32418 
L 145.071552 251.32418 
z
" style="fill:#808080;fill-opacity:0.6;stroke:#808080;stroke-linejoin:miter;stroke-opacity:0.6;"/>
   </g>
   <g id="patch_3">
    <path clip-path="url(#p56134c8303)" d="M 146.338415 256.32 
L 146.65513 256.32 
L 146.65513 251.619695 
L 146.338415 251.619695 
z
" style="fill:#808080;fill-opacity:0.6;stroke:#808080;stroke-linejoin:miter;stroke-opacity:0.6;"/>
   </g>
   <g id="patch_4">
    <path clip-path="url(#p56134c8303)" d="M 150.139001 256.32 
L 150.455717 256.32 
L 150.455717 249.336378 
L 150.139001 249.336378 
z
" style="fill:#808080;fill-opacity:0.6;stroke:#808080;stroke-linejoin:miter;stroke-opacity:0.6;"/>
   </g>
   <g id="patch_5">
    <path clip-path="url(#p56134c8303)" d="M 150.772432 256.32 
L 151.089148 256.32 
L 151.089148 249.434085 
L 150.772432 249.434085 
z
" style="fill:#808080;fill-opacity:0.6;stroke:#808080;stroke-linejoin:miter;stroke-opacity:0.6;"/>
   </g>
   <g id="patch_6">
    <path clip-path="url(#p56134c8303)" d="M 151.089148 256.32 
L 151.405863 256.32 
L 151.405863 248.959543 
L 151.089148 248.959543 
z
" style="fill:#808080;fill-opacity:0.6;stroke:#808080;stroke-linejoin:miter;stroke-opacity:0.6;"/>
   </g>
   <g id="patch_7">
    <path clip-path="url(#p56134c8303)" d="M 151.405863 256.32 
L 151.722579 256.32 
L 151.722579 201.672432 
L 151.405863 201.672432 
z
" style="fill:#808080;fill-opacity:0.6;stroke:#808080;stroke-linejoin:miter;stroke-opacity:0.6;"/>
   </g>
   <g id="patch_8">
    <path clip-path="url(#p56134c8303)" d="M 152.35601 256.32 
L 152.672725 256.32 
L 152.672725 251.398176 
L 152.35601 251.398176 
z
" style="fill:#808080;fill-opacity:0.6;stroke:#808080;stroke-linejoin:miter;stroke-opacity:0.6;"/>
   </g>
   <g id="patch_9">
    <path clip-path="url(#p56134c8303)" d="M 152.989441 256.32 
L 153.306156 256.32 
L 153.306156 246.364559 
L 152.989441 246.364559 
z
" style="fill:#808080;fill-opacity:0.6;stroke:#808080;stroke-linejoin:miter;stroke-opacity:0.6;"/>
   </g>
   <g id="patch_10">
    <path clip-path="url(#p56134c8303)" d="M 153.306156 256.32 
L 153.622872 256.32 
L 153.622872 250.073382 
L 153.306156 250.073382 
z
" style="fill:#808080;fill-opacity:0.6;stroke:#808080;stroke-linejoin:miter;stroke-opacity:0.6;"/>
   </g>
   <g id="patch_11">
    <path clip-path="url(#p56134c8303)" d="M 153.622872 256.32 
L 153.939587 256.32 
L 153.939587 251.456866 
L 153.622872 251.456866 
z
" style="fill:#808080;fill-opacity:0.6;stroke:#808080;stroke-linejoin:miter;stroke-opacity:0.6;"/>
   </g>
   <g id="patch_12">
    <path clip-path="url(#p56134c8303)" d="M 153.939587 256.32 
L 154.256303 256.32 
L 154.256303 251.368972 
L 153.939587 251.368972 
z
" style="fill:#808080;fill-opacity:0.6;stroke:#808080;stroke-linejoin:miter;stroke-opacity:0.6;"/>
   </g>
   <g id="patch_13">
    <path clip-path="url(#p56134c8303)" d="M 154.256303 256.32 
L 154.573018 256.32 
L 154.573018 251.006222 
L 154.256303 251.006222 
z
" style="fill:#808080;fill-opacity:0.6;stroke:#808080;stroke-linejoin:miter;stroke-opacity:0.6;"/>
   </g>
   <g id="patch_14">
    <path clip-path="url(#p56134c8303)" d="M 154.573018 256.32 
L 154.889734 256.32 
L 154.889734 249.858248 
L 154.573018 249.858248 
z
" style="fill:#808080;fill-opacity:0.6;stroke:#808080;stroke-linejoin:miter;stroke-opacity:0.6;"/>
   </g>
   <g id="patch_15">
    <path clip-path="url(#p56134c8303)" d="M 154.889734 256.32 
L 155.20645 256.32 
L 155.20645 202.4123 
L 154.889734 202.4123 
z
" style="fill:#808080;fill-opacity:0.6;stroke:#808080;stroke-linejoin:miter;stroke-opacity:0.6;"/>
   </g>
   <g id="patch_16">
    <path clip-path="url(#p56134c8303)" d="M 155.20645 256.32 
L 155.523165 256.32 
L 155.523165 249.99577 
L 155.20645 249.99577 
z
" style="fill:#808080;fill-opacity:0.6;stroke:#808080;stroke-linejoin:miter;stroke-opacity:0.6;"/>
   </g>
   <g id="patch_17">
    <path clip-path="url(#p56134c8303)" d="M 155.523165 256.32 
L 155.839881 256.32 
L 155.839881 250.186677 
L 155.523165 250.186677 
z
" style="fill:#808080;fill-opacity:0.6;stroke:#808080;stroke-linejoin:miter;stroke-opacity:0.6;"/>
   </g>
   <g id="patch_18">
    <path clip-path="url(#p56134c8303)" d="M 155.839881 256.32 
L 156.156596 256.32 
L 156.156596 247.421681 
L 155.839881 247.421681 
z
" style="fill:#808080;fill-opacity:0.6;stroke:#808080;stroke-linejoin:miter;stroke-opacity:0.6;"/>
   </g>
   <g id="patch_19">
    <path clip-path="url(#p56134c8303)" d="M 156.156596 256.32 
L 156.473312 256.32 
L 156.473312 247.78476 
L 156.156596 247.78476 
z
" style="fill:#808080;fill-opacity:0.6;stroke:#808080;stroke-linejoin:miter;stroke-opacity:0.6;"/>
   </g>
   <g id="patch_20">
    <path clip-path="url(#p56134c8303)" d="M 156.473312 256.32 
L 156.790027 256.32 
L 156.790027 247.152177 
L 156.473312 247.152177 
z
" style="fill:#808080;fill-opacity:0.6;stroke:#808080;stroke-linejoin:miter;stroke-opacity:0.6;"/>
   </g>
   <g id="patch_21">
    <path clip-path="url(#p56134c8303)" d="M 156.790027 256.32 
L 157.106743 256.32 
L 157.106743 248.371329 
L 156.790027 248.371329 
z
" style="fill:#808080;fill-opacity:0.6;stroke:#808080;stroke-linejoin:miter;stroke-opacity:0.6;"/>
   </g>
   <g id="patch_22">
    <path clip-path="url(#p56134c8303)" d="M 157.106743 256.32 
L 157.423458 256.32 
L 157.423458 247.424216 
L 157.106743 247.424216 
z
" style="fill:#808080;fill-opacity:0.6;stroke:#808080;stroke-linejoin:miter;stroke-opacity:0.6;"/>
   </g>
   <g id="patch_23">
    <path clip-path="url(#p56134c8303)" d="M 157.423458 256.32 
L 157.740174 256.32 
L 157.740174 243.200144 
L 157.423458 243.200144 
z
" style="fill:#808080;fill-opacity:0.6;stroke:#808080;stroke-linejoin:miter;stroke-opacity:0.6;"/>
   </g>
   <g id="patch_24">
    <path clip-path="url(#p56134c8303)" d="M 157.740174 256.32 
L 158.056889 256.32 
L 158.056889 245.475526 
L 157.740174 245.475526 
z
" style="fill:#808080;fill-opacity:0.6;stroke:#808080;stroke-linejoin:miter;stroke-opacity:0.6;"/>
   </g>
   <g id="patch_25">
    <path clip-path="url(#p56134c8303)" d="M 158.056889 256.32 
L 158.373605 256.32 
L 158.373605 245.367959 
L 158.056889 245.367959 
z
" style="fill:#808080;fill-opacity:0.6;stroke:#808080;stroke-linejoin:miter;stroke-opacity:0.6;"/>
   </g>
   <g id="patch_26">
    <path clip-path="url(#p56134c8303)" d="M 158.373605 256.32 
L 158.69032 256.32 
L 158.69032 244.309476 
L 158.373605 244.309476 
z
" style="fill:#808080;fill-opacity:0.6;stroke:#808080;stroke-linejoin:miter;stroke-opacity:0.6;"/>
   </g>
   <g id="patch_27">
    <path clip-path="url(#p56134c8303)" d="M 158.69032 256.32 
L 159.007036 256.32 
L 159.007036 244.479536 
L 158.69032 244.479536 
z
" style="fill:#808080;fill-opacity:0.6;stroke:#808080;stroke-linejoin:miter;stroke-opacity:0.6;"/>
   </g>
   <g id="patch_28">
    <path clip-path="url(#p56134c8303)" d="M 159.007036 256.32 
L 159.323752 256.32 
L 159.323752 239.971827 
L 159.007036 239.971827 
z
" style="fill:#808080;fill-opacity:0.6;stroke:#808080;stroke-linejoin:miter;stroke-opacity:0.6;"/>
   </g>
   <g id="patch_29">
    <path clip-path="url(#p56134c8303)" d="M 159.323752 256.32 
L 159.640467 256.32 
L 159.640467 237.565731 
L 159.323752 237.565731 
z
" style="fill:#808080;fill-opacity:0.6;stroke:#808080;stroke-linejoin:miter;stroke-opacity:0.6;"/>
   </g>
   <g id="patch_30">
    <path clip-path="url(#p56134c8303)" d="M 159.640467 256.32 
L 159.957183 256.32 
L 159.957183 237.597518 
L 159.640467 237.597518 
z
" style="fill:#808080;fill-opacity:0.6;stroke:#808080;stroke-linejoin:miter;stroke-opacity:0.6;"/>
   </g>
   <g id="patch_31">
    <path clip-path="url(#p56134c8303)" d="M 159.957183 256.32 
L 160.273898 256.32 
L 160.273898 241.63397 
L 159.957183 241.63397 
z
" style="fill:#808080;fill-opacity:0.6;stroke:#808080;stroke-linejoin:miter;stroke-opacity:0.6;"/>
   </g>
   <g id="patch_32">
    <path clip-path="url(#p56134c8303)" d="M 160.273898 256.32 
L 160.590614 256.32 
L 160.590614 241.655427 
L 160.273898 241.655427 
z
" style="fill:#808080;fill-opacity:0.6;stroke:#808080;stroke-linejoin:miter;stroke-opacity:0.6;"/>
   </g>
   <g id="patch_33">
    <path clip-path="url(#p56134c8303)" d="M 160.590614 256.32 
L 160.907329 256.32 
L 160.907329 187.152142 
L 160.590614 187.152142 
z
" style="fill:#808080;fill-opacity:0.6;stroke:#808080;stroke-linejoin:miter;stroke-opacity:0.6;"/>
   </g>
   <g id="patch_34">
    <path clip-path="url(#p56134c8303)" d="M 160.907329 256.32 
L 161.224045 256.32 
L 161.224045 45.12 
L 160.907329 45.12 
z
" style="fill:#808080;fill-opacity:0.6;stroke:#808080;stroke-linejoin:miter;stroke-opacity:0.6;"/>
   </g>
   <g id="patch_35">
    <path clip-path="url(#p56134c8303)" d="M 161.224045 256.32 
L 161.54076 256.32 
L 161.54076 189.306623 
L 161.224045 189.306623 
z
" style="fill:#808080;fill-opacity:0.6;stroke:#808080;stroke-linejoin:miter;stroke-opacity:0.6;"/>
   </g>
   <g id="patch_36">
    <path clip-path="url(#p56134c8303)" d="M 161.54076 256.32 
L 161.857476 256.32 
L 161.857476 187.225857 
L 161.54076 187.225857 
z
" style="fill:#808080;fill-opacity:0.6;stroke:#808080;stroke-linejoin:miter;stroke-opacity:0.6;"/>
   </g>
   <g id="patch_37">
    <path clip-path="url(#p56134c8303)" d="M 161.857476 256.32 
L 162.174191 256.32 
L 162.174191 180.748564 
L 161.857476 180.748564 
z
" style="fill:#808080;fill-opacity:0.6;stroke:#808080;stroke-linejoin:miter;stroke-opacity:0.6;"/>
   </g>
   <g id="patch_38">
    <path clip-path="url(#p56134c8303)" d="M 162.174191 256.32 
L 162.490907 256.32 
L 162.490907 232.240074 
L 162.174191 232.240074 
z
" style="fill:#808080;fill-opacity:0.6;stroke:#808080;stroke-linejoin:miter;stroke-opacity:0.6;"/>
   </g>
   <g id="patch_39">
    <path clip-path="url(#p56134c8303)" d="M 162.490907 256.32 
L 162.807622 256.32 
L 162.807622 225.862131 
L 162.490907 225.862131 
z
" style="fill:#808080;fill-opacity:0.6;stroke:#808080;stroke-linejoin:miter;stroke-opacity:0.6;"/>
   </g>
   <g id="patch_40">
    <path clip-path="url(#p56134c8303)" d="M 162.807622 256.32 
L 163.124338 256.32 
L 163.124338 130.907037 
L 162.807622 130.907037 
z
" style="fill:#808080;fill-opacity:0.6;stroke:#808080;stroke-linejoin:miter;stroke-opacity:0.6;"/>
   </g>
   <g id="patch_41">
    <path clip-path="url(#p56134c8303)" d="M 163.124338 256.32 
L 163.441053 256.32 
L 163.441053 133.851765 
L 163.124338 133.851765 
z
" style="fill:#808080;fill-opacity:0.6;stroke:#808080;stroke-linejoin:miter;stroke-opacity:0.6;"/>
   </g>
   <g id="patch_42">
    <path clip-path="url(#p56134c8303)" d="M 163.441053 256.32 
L 163.757769 256.32 
L 163.757769 224.315396 
L 163.441053 224.315396 
z
" style="fill:#808080;fill-opacity:0.6;stroke:#808080;stroke-linejoin:miter;stroke-opacity:0.6;"/>
   </g>
   <g id="patch_43">
    <path clip-path="url(#p56134c8303)" d="M 163.757769 256.32 
L 164.074485 256.32 
L 164.074485 175.308626 
L 163.757769 175.308626 
z
" style="fill:#808080;fill-opacity:0.6;stroke:#808080;stroke-linejoin:miter;stroke-opacity:0.6;"/>
   </g>
   <g id="patch_44">
    <path clip-path="url(#p56134c8303)" d="M 164.074485 256.32 
L 164.3912 256.32 
L 164.3912 220.080337 
L 164.074485 220.080337 
z
" style="fill:#808080;fill-opacity:0.6;stroke:#808080;stroke-linejoin:miter;stroke-opacity:0.6;"/>
   </g>
   <g id="patch_45">
    <path clip-path="url(#p56134c8303)" d="M 164.3912 256.32 
L 164.707916 256.32 
L 164.707916 162.839899 
L 164.3912 162.839899 
z
" style="fill:#808080;fill-opacity:0.6;stroke:#808080;stroke-linejoin:miter;stroke-opacity:0.6;"/>
   </g>
   <g id="patch_46">
    <path clip-path="url(#p56134c8303)" d="M 164.707916 256.32 
L 165.024631 256.32 
L 165.024631 171.899216 
L 164.707916 171.899216 
z
" style="fill:#808080;fill-opacity:0.6;stroke:#808080;stroke-linejoin:miter;stroke-opacity:0.6;"/>
   </g>
   <g id="patch_47">
    <path clip-path="url(#p56134c8303)" d="M 165.024631 256.32 
L 165.341347 256.32 
L 165.341347 217.793029 
L 165.024631 217.793029 
z
" style="fill:#808080;fill-opacity:0.6;stroke:#808080;stroke-linejoin:miter;stroke-opacity:0.6;"/>
   </g>
   <g id="patch_48">
    <path clip-path="url(#p56134c8303)" d="M 165.341347 256.32 
L 165.658062 256.32 
L 165.658062 216.537301 
L 165.341347 216.537301 
z
" style="fill:#808080;fill-opacity:0.6;stroke:#808080;stroke-linejoin:miter;stroke-opacity:0.6;"/>
   </g>
   <g id="patch_49">
    <path clip-path="url(#p56134c8303)" d="M 165.658062 256.32 
L 165.974778 256.32 
L 165.974778 206.772626 
L 165.658062 206.772626 
z
" style="fill:#808080;fill-opacity:0.6;stroke:#808080;stroke-linejoin:miter;stroke-opacity:0.6;"/>
   </g>
   <g id="patch_50">
    <path clip-path="url(#p56134c8303)" d="M 165.974778 256.32 
L 166.291493 256.32 
L 166.291493 153.903361 
L 165.974778 153.903361 
z
" style="fill:#808080;fill-opacity:0.6;stroke:#808080;stroke-linejoin:miter;stroke-opacity:0.6;"/>
   </g>
   <g id="patch_51">
    <path clip-path="url(#p56134c8303)" d="M 166.291493 256.32 
L 166.608209 256.32 
L 166.608209 111.621602 
L 166.291493 111.621602 
z
" style="fill:#808080;fill-opacity:0.6;stroke:#808080;stroke-linejoin:miter;stroke-opacity:0.6;"/>
   </g>
   <g id="patch_52">
    <path clip-path="url(#p56134c8303)" d="M 166.608209 256.32 
L 166.924924 256.32 
L 166.924924 159.444949 
L 166.608209 159.444949 
z
" style="fill:#808080;fill-opacity:0.6;stroke:#808080;stroke-linejoin:miter;stroke-opacity:0.6;"/>
   </g>
   <g id="patch_53">
    <path clip-path="url(#p56134c8303)" d="M 166.924924 256.32 
L 167.24164 256.32 
L 167.24164 150.833741 
L 166.924924 150.833741 
z
" style="fill:#808080;fill-opacity:0.6;stroke:#808080;stroke-linejoin:miter;stroke-opacity:0.6;"/>
   </g>
   <g id="patch_54">
    <path clip-path="url(#p56134c8303)" d="M 167.24164 256.32 
L 167.558355 256.32 
L 167.558355 161.869216 
L 167.24164 161.869216 
z
" style="fill:#808080;fill-opacity:0.6;stroke:#808080;stroke-linejoin:miter;stroke-opacity:0.6;"/>
   </g>
   <g id="patch_55">
    <path clip-path="url(#p56134c8303)" d="M 167.558355 256.32 
L 167.875071 256.32 
L 167.875071 110.927982 
L 167.558355 110.927982 
z
" style="fill:#808080;fill-opacity:0.6;stroke:#808080;stroke-linejoin:miter;stroke-opacity:0.6;"/>
   </g>
   <g id="patch_56">
    <path clip-path="url(#p56134c8303)" d="M 167.875071 256.32 
L 168.191786 256.32 
L 168.191786 219.407141 
L 167.875071 219.407141 
z
" style="fill:#808080;fill-opacity:0.6;stroke:#808080;stroke-linejoin:miter;stroke-opacity:0.6;"/>
   </g>
   <g id="patch_57">
    <path clip-path="url(#p56134c8303)" d="M 168.191786 256.32 
L 168.508502 256.32 
L 168.508502 214.554618 
L 168.191786 214.554618 
z
" style="fill:#808080;fill-opacity:0.6;stroke:#808080;stroke-linejoin:miter;stroke-opacity:0.6;"/>
   </g>
   <g id="patch_58">
    <path clip-path="url(#p56134c8303)" d="M 168.508502 256.32 
L 168.825218 256.32 
L 168.825218 218.729907 
L 168.508502 218.729907 
z
" style="fill:#808080;fill-opacity:0.6;stroke:#808080;stroke-linejoin:miter;stroke-opacity:0.6;"/>
   </g>
   <g id="patch_59">
    <path clip-path="url(#p56134c8303)" d="M 168.825218 256.32 
L 169.141933 256.32 
L 169.141933 207.59189 
L 168.825218 207.59189 
z
" style="fill:#808080;fill-opacity:0.6;stroke:#808080;stroke-linejoin:miter;stroke-opacity:0.6;"/>
   </g>
   <g id="patch_60">
    <path clip-path="url(#p56134c8303)" d="M 169.141933 256.32 
L 169.458649 256.32 
L 169.458649 217.104433 
L 169.141933 217.104433 
z
" style="fill:#808080;fill-opacity:0.6;stroke:#808080;stroke-linejoin:miter;stroke-opacity:0.6;"/>
   </g>
   <g id="patch_61">
    <path clip-path="url(#p56134c8303)" d="M 169.458649 256.32 
L 169.775364 256.32 
L 169.775364 217.527892 
L 169.458649 217.527892 
z
" style="fill:#808080;fill-opacity:0.6;stroke:#808080;stroke-linejoin:miter;stroke-opacity:0.6;"/>
   </g>
   <g id="patch_62">
    <path clip-path="url(#p56134c8303)" d="M 169.775364 256.32 
L 170.09208 256.32 
L 170.09208 219.701764 
L 169.775364 219.701764 
z
" style="fill:#808080;fill-opacity:0.6;stroke:#808080;stroke-linejoin:miter;stroke-opacity:0.6;"/>
   </g>
   <g id="patch_63">
    <path clip-path="url(#p56134c8303)" d="M 170.09208 256.32 
L 170.408795 256.32 
L 170.408795 223.49139 
L 170.09208 223.49139 
z
" style="fill:#808080;fill-opacity:0.6;stroke:#808080;stroke-linejoin:miter;stroke-opacity:0.6;"/>
   </g>
   <g id="patch_64">
    <path clip-path="url(#p56134c8303)" d="M 170.408795 256.32 
L 170.725511 256.32 
L 170.725511 219.282014 
L 170.408795 219.282014 
z
" style="fill:#808080;fill-opacity:0.6;stroke:#808080;stroke-linejoin:miter;stroke-opacity:0.6;"/>
   </g>
   <g id="patch_65">
    <path clip-path="url(#p56134c8303)" d="M 170.725511 256.32 
L 171.042226 256.32 
L 171.042226 175.495495 
L 170.725511 175.495495 
z
" style="fill:#808080;fill-opacity:0.6;stroke:#808080;stroke-linejoin:miter;stroke-opacity:0.6;"/>
   </g>
   <g id="patch_66">
    <path clip-path="url(#p56134c8303)" d="M 171.042226 256.32 
L 171.358942 256.32 
L 171.358942 232.117671 
L 171.042226 232.117671 
z
" style="fill:#808080;fill-opacity:0.6;stroke:#808080;stroke-linejoin:miter;stroke-opacity:0.6;"/>
   </g>
   <g id="patch_67">
    <path clip-path="url(#p56134c8303)" d="M 171.358942 256.32 
L 171.675657 256.32 
L 171.675657 228.560268 
L 171.358942 228.560268 
z
" style="fill:#808080;fill-opacity:0.6;stroke:#808080;stroke-linejoin:miter;stroke-opacity:0.6;"/>
   </g>
   <g id="patch_68">
    <path clip-path="url(#p56134c8303)" d="M 171.675657 256.32 
L 171.992373 256.32 
L 171.992373 231.587161 
L 171.675657 231.587161 
z
" style="fill:#808080;fill-opacity:0.6;stroke:#808080;stroke-linejoin:miter;stroke-opacity:0.6;"/>
   </g>
   <g id="patch_69">
    <path clip-path="url(#p56134c8303)" d="M 171.992373 256.32 
L 172.309088 256.32 
L 172.309088 235.894291 
L 171.992373 235.894291 
z
" style="fill:#808080;fill-opacity:0.6;stroke:#808080;stroke-linejoin:miter;stroke-opacity:0.6;"/>
   </g>
   <g id="patch_70">
    <path clip-path="url(#p56134c8303)" d="M 172.309088 256.32 
L 172.625804 256.32 
L 172.625804 236.249623 
L 172.309088 236.249623 
z
" style="fill:#808080;fill-opacity:0.6;stroke:#808080;stroke-linejoin:miter;stroke-opacity:0.6;"/>
   </g>
   <g id="patch_71">
    <path clip-path="url(#p56134c8303)" d="M 172.625804 256.32 
L 172.94252 256.32 
L 172.94252 236.758769 
L 172.625804 236.758769 
z
" style="fill:#808080;fill-opacity:0.6;stroke:#808080;stroke-linejoin:miter;stroke-opacity:0.6;"/>
   </g>
   <g id="patch_72">
    <path clip-path="url(#p56134c8303)" d="M 172.94252 256.32 
L 173.259235 256.32 
L 173.259235 235.698878 
L 172.94252 235.698878 
z
" style="fill:#808080;fill-opacity:0.6;stroke:#808080;stroke-linejoin:miter;stroke-opacity:0.6;"/>
   </g>
   <g id="patch_73">
    <path clip-path="url(#p56134c8303)" d="M 173.259235 256.32 
L 173.575951 256.32 
L 173.575951 233.457254 
L 173.259235 233.457254 
z
" style="fill:#808080;fill-opacity:0.6;stroke:#808080;stroke-linejoin:miter;stroke-opacity:0.6;"/>
   </g>
   <g id="patch_74">
    <path clip-path="url(#p56134c8303)" d="M 173.575951 256.32 
L 173.892666 256.32 
L 173.892666 236.879999 
L 173.575951 236.879999 
z
" style="fill:#808080;fill-opacity:0.6;stroke:#808080;stroke-linejoin:miter;stroke-opacity:0.6;"/>
   </g>
   <g id="patch_75">
    <path clip-path="url(#p56134c8303)" d="M 173.892666 256.32 
L 174.209382 256.32 
L 174.209382 240.272648 
L 173.892666 240.272648 
z
" style="fill:#808080;fill-opacity:0.6;stroke:#808080;stroke-linejoin:miter;stroke-opacity:0.6;"/>
   </g>
   <g id="patch_76">
    <path clip-path="url(#p56134c8303)" d="M 174.209382 256.32 
L 174.526097 256.32 
L 174.526097 238.641868 
L 174.209382 238.641868 
z
" style="fill:#808080;fill-opacity:0.6;stroke:#808080;stroke-linejoin:miter;stroke-opacity:0.6;"/>
   </g>
   <g id="patch_77">
    <path clip-path="url(#p56134c8303)" d="M 174.526097 256.32 
L 174.842813 256.32 
L 174.842813 239.167823 
L 174.526097 239.167823 
z
" style="fill:#808080;fill-opacity:0.6;stroke:#808080;stroke-linejoin:miter;stroke-opacity:0.6;"/>
   </g>
   <g id="patch_78">
    <path clip-path="url(#p56134c8303)" d="M 174.842813 256.32 
L 175.159528 256.32 
L 175.159528 232.624751 
L 174.842813 232.624751 
z
" style="fill:#808080;fill-opacity:0.6;stroke:#808080;stroke-linejoin:miter;stroke-opacity:0.6;"/>
   </g>
   <g id="patch_79">
    <path clip-path="url(#p56134c8303)" d="M 175.159528 256.32 
L 175.476244 256.32 
L 175.476244 235.9473 
L 175.159528 235.9473 
z
" style="fill:#808080;fill-opacity:0.6;stroke:#808080;stroke-linejoin:miter;stroke-opacity:0.6;"/>
   </g>
   <g id="patch_80">
    <path clip-path="url(#p56134c8303)" d="M 175.476244 256.32 
L 175.792959 256.32 
L 175.792959 236.672754 
L 175.476244 236.672754 
z
" style="fill:#808080;fill-opacity:0.6;stroke:#808080;stroke-linejoin:miter;stroke-opacity:0.6;"/>
   </g>
   <g id="patch_81">
    <path clip-path="url(#p56134c8303)" d="M 175.792959 256.32 
L 176.109675 256.32 
L 176.109675 235.846494 
L 175.792959 235.846494 
z
" style="fill:#808080;fill-opacity:0.6;stroke:#808080;stroke-linejoin:miter;stroke-opacity:0.6;"/>
   </g>
   <g id="patch_82">
    <path clip-path="url(#p56134c8303)" d="M 176.109675 256.32 
L 176.42639 256.32 
L 176.42639 233.67436 
L 176.109675 233.67436 
z
" style="fill:#808080;fill-opacity:0.6;stroke:#808080;stroke-linejoin:miter;stroke-opacity:0.6;"/>
   </g>
   <g id="patch_83">
    <path clip-path="url(#p56134c8303)" d="M 176.42639 256.32 
L 176.743106 256.32 
L 176.743106 240.340634 
L 176.42639 240.340634 
z
" style="fill:#808080;fill-opacity:0.6;stroke:#808080;stroke-linejoin:miter;stroke-opacity:0.6;"/>
   </g>
   <g id="patch_84">
    <path clip-path="url(#p56134c8303)" d="M 176.743106 256.32 
L 177.059821 256.32 
L 177.059821 236.035851 
L 176.743106 236.035851 
z
" style="fill:#808080;fill-opacity:0.6;stroke:#808080;stroke-linejoin:miter;stroke-opacity:0.6;"/>
   </g>
   <g id="patch_85">
    <path clip-path="url(#p56134c8303)" d="M 177.059821 256.32 
L 177.376537 256.32 
L 177.376537 238.82052 
L 177.059821 238.82052 
z
" style="fill:#808080;fill-opacity:0.6;stroke:#808080;stroke-linejoin:miter;stroke-opacity:0.6;"/>
   </g>
   <g id="patch_86">
    <path clip-path="url(#p56134c8303)" d="M 177.376537 256.32 
L 177.693253 256.32 
L 177.693253 214.569689 
L 177.376537 214.569689 
z
" style="fill:#808080;fill-opacity:0.6;stroke:#808080;stroke-linejoin:miter;stroke-opacity:0.6;"/>
   </g>
   <g id="patch_87">
    <path clip-path="url(#p56134c8303)" d="M 177.693253 256.32 
L 178.009968 256.32 
L 178.009968 229.380376 
L 177.693253 229.380376 
z
" style="fill:#808080;fill-opacity:0.6;stroke:#808080;stroke-linejoin:miter;stroke-opacity:0.6;"/>
   </g>
   <g id="patch_88">
    <path clip-path="url(#p56134c8303)" d="M 178.009968 256.32 
L 178.326684 256.32 
L 178.326684 234.78017 
L 178.009968 234.78017 
z
" style="fill:#808080;fill-opacity:0.6;stroke:#808080;stroke-linejoin:miter;stroke-opacity:0.6;"/>
   </g>
   <g id="patch_89">
    <path clip-path="url(#p56134c8303)" d="M 178.326684 256.32 
L 178.643399 256.32 
L 178.643399 237.948342 
L 178.326684 237.948342 
z
" style="fill:#808080;fill-opacity:0.6;stroke:#808080;stroke-linejoin:miter;stroke-opacity:0.6;"/>
   </g>
   <g id="patch_90">
    <path clip-path="url(#p56134c8303)" d="M 178.643399 256.32 
L 178.960115 256.32 
L 178.960115 234.055656 
L 178.643399 234.055656 
z
" style="fill:#808080;fill-opacity:0.6;stroke:#808080;stroke-linejoin:miter;stroke-opacity:0.6;"/>
   </g>
   <g id="patch_91">
    <path clip-path="url(#p56134c8303)" d="M 178.960115 256.32 
L 179.27683 256.32 
L 179.27683 213.486979 
L 178.960115 213.486979 
z
" style="fill:#808080;fill-opacity:0.6;stroke:#808080;stroke-linejoin:miter;stroke-opacity:0.6;"/>
   </g>
   <g id="patch_92">
    <path clip-path="url(#p56134c8303)" d="M 179.27683 256.32 
L 179.593546 256.32 
L 179.593546 232.525448 
L 179.27683 232.525448 
z
" style="fill:#808080;fill-opacity:0.6;stroke:#808080;stroke-linejoin:miter;stroke-opacity:0.6;"/>
   </g>
   <g id="patch_93">
    <path clip-path="url(#p56134c8303)" d="M 179.593546 256.32 
L 179.910261 256.32 
L 179.910261 238.785165 
L 179.593546 238.785165 
z
" style="fill:#808080;fill-opacity:0.6;stroke:#808080;stroke-linejoin:miter;stroke-opacity:0.6;"/>
   </g>
   <g id="patch_94">
    <path clip-path="url(#p56134c8303)" d="M 179.910261 256.32 
L 180.226977 256.32 
L 180.226977 236.33916 
L 179.910261 236.33916 
z
" style="fill:#808080;fill-opacity:0.6;stroke:#808080;stroke-linejoin:miter;stroke-opacity:0.6;"/>
   </g>
   <g id="patch_95">
    <path clip-path="url(#p56134c8303)" d="M 180.226977 256.32 
L 180.543692 256.32 
L 180.543692 233.318981 
L 180.226977 233.318981 
z
" style="fill:#808080;fill-opacity:0.6;stroke:#808080;stroke-linejoin:miter;stroke-opacity:0.6;"/>
   </g>
   <g id="patch_96">
    <path clip-path="url(#p56134c8303)" d="M 180.543692 256.32 
L 180.860408 256.32 
L 180.860408 231.43884 
L 180.543692 231.43884 
z
" style="fill:#808080;fill-opacity:0.6;stroke:#808080;stroke-linejoin:miter;stroke-opacity:0.6;"/>
   </g>
   <g id="patch_97">
    <path clip-path="url(#p56134c8303)" d="M 180.860408 256.32 
L 181.177123 256.32 
L 181.177123 234.849894 
L 180.860408 234.849894 
z
" style="fill:#808080;fill-opacity:0.6;stroke:#808080;stroke-linejoin:miter;stroke-opacity:0.6;"/>
   </g>
   <g id="patch_98">
    <path clip-path="url(#p56134c8303)" d="M 181.177123 256.32 
L 181.493839 256.32 
L 181.493839 230.01202 
L 181.177123 230.01202 
z
" style="fill:#808080;fill-opacity:0.6;stroke:#808080;stroke-linejoin:miter;stroke-opacity:0.6;"/>
   </g>
   <g id="patch_99">
    <path clip-path="url(#p56134c8303)" d="M 181.493839 256.32 
L 181.810555 256.32 
L 181.810555 231.041158 
L 181.493839 231.041158 
z
" style="fill:#808080;fill-opacity:0.6;stroke:#808080;stroke-linejoin:miter;stroke-opacity:0.6;"/>
   </g>
   <g id="patch_100">
    <path clip-path="url(#p56134c8303)" d="M 181.810555 256.32 
L 182.12727 256.32 
L 182.12727 217.960507 
L 181.810555 217.960507 
z
" style="fill:#808080;fill-opacity:0.6;stroke:#808080;stroke-linejoin:miter;stroke-opacity:0.6;"/>
   </g>
   <g id="patch_101">
    <path clip-path="url(#p56134c8303)" d="M 182.12727 256.32 
L 182.443986 256.32 
L 182.443986 223.739907 
L 182.12727 223.739907 
z
" style="fill:#808080;fill-opacity:0.6;stroke:#808080;stroke-linejoin:miter;stroke-opacity:0.6;"/>
   </g>
   <g id="patch_102">
    <path clip-path="url(#p56134c8303)" d="M 182.443986 256.32 
L 182.760701 256.32 
L 182.760701 226.972262 
L 182.443986 226.972262 
z
" style="fill:#808080;fill-opacity:0.6;stroke:#808080;stroke-linejoin:miter;stroke-opacity:0.6;"/>
   </g>
   <g id="patch_103">
    <path clip-path="url(#p56134c8303)" d="M 182.760701 256.32 
L 183.077417 256.32 
L 183.077417 176.703848 
L 182.760701 176.703848 
z
" style="fill:#808080;fill-opacity:0.6;stroke:#808080;stroke-linejoin:miter;stroke-opacity:0.6;"/>
   </g>
   <g id="patch_104">
    <path clip-path="url(#p56134c8303)" d="M 183.077417 256.32 
L 183.394132 256.32 
L 183.394132 228.663844 
L 183.077417 228.663844 
z
" style="fill:#808080;fill-opacity:0.6;stroke:#808080;stroke-linejoin:miter;stroke-opacity:0.6;"/>
   </g>
   <g id="patch_105">
    <path clip-path="url(#p56134c8303)" d="M 183.394132 256.32 
L 183.710848 256.32 
L 183.710848 222.403281 
L 183.394132 222.403281 
z
" style="fill:#808080;fill-opacity:0.6;stroke:#808080;stroke-linejoin:miter;stroke-opacity:0.6;"/>
   </g>
   <g id="patch_106">
    <path clip-path="url(#p56134c8303)" d="M 183.710848 256.32 
L 184.027563 256.32 
L 184.027563 131.957491 
L 183.710848 131.957491 
z
" style="fill:#808080;fill-opacity:0.6;stroke:#808080;stroke-linejoin:miter;stroke-opacity:0.6;"/>
   </g>
   <g id="patch_107">
    <path clip-path="url(#p56134c8303)" d="M 184.027563 256.32 
L 184.344279 256.32 
L 184.344279 192.151296 
L 184.027563 192.151296 
z
" style="fill:#808080;fill-opacity:0.6;stroke:#808080;stroke-linejoin:miter;stroke-opacity:0.6;"/>
   </g>
   <g id="patch_108">
    <path clip-path="url(#p56134c8303)" d="M 184.344279 256.32 
L 184.660994 256.32 
L 184.660994 235.806398 
L 184.344279 235.806398 
z
" style="fill:#808080;fill-opacity:0.6;stroke:#808080;stroke-linejoin:miter;stroke-opacity:0.6;"/>
   </g>
   <g id="patch_109">
    <path clip-path="url(#p56134c8303)" d="M 184.660994 256.32 
L 184.97771 256.32 
L 184.97771 184.694024 
L 184.660994 184.694024 
z
" style="fill:#808080;fill-opacity:0.6;stroke:#808080;stroke-linejoin:miter;stroke-opacity:0.6;"/>
   </g>
   <g id="patch_110">
    <path clip-path="url(#p56134c8303)" d="M 184.97771 256.32 
L 185.294425 256.32 
L 185.294425 246.710829 
L 184.97771 246.710829 
z
" style="fill:#808080;fill-opacity:0.6;stroke:#808080;stroke-linejoin:miter;stroke-opacity:0.6;"/>
   </g>
   <g id="patch_111">
    <path clip-path="url(#p56134c8303)" d="M 185.294425 256.32 
L 185.611141 256.32 
L 185.611141 247.671887 
L 185.294425 247.671887 
z
" style="fill:#808080;fill-opacity:0.6;stroke:#808080;stroke-linejoin:miter;stroke-opacity:0.6;"/>
   </g>
   <g id="patch_112">
    <path clip-path="url(#p56134c8303)" d="M 185.611141 256.32 
L 185.927856 256.32 
L 185.927856 245.261003 
L 185.611141 245.261003 
z
" style="fill:#808080;fill-opacity:0.6;stroke:#808080;stroke-linejoin:miter;stroke-opacity:0.6;"/>
   </g>
   <g id="patch_113">
    <path clip-path="url(#p56134c8303)" d="M 185.927856 256.32 
L 186.244572 256.32 
L 186.244572 246.179992 
L 185.927856 246.179992 
z
" style="fill:#808080;fill-opacity:0.6;stroke:#808080;stroke-linejoin:miter;stroke-opacity:0.6;"/>
   </g>
   <g id="patch_114">
    <path clip-path="url(#p56134c8303)" d="M 186.244572 256.32 
L 186.561288 256.32 
L 186.561288 251.314132 
L 186.244572 251.314132 
z
" style="fill:#808080;fill-opacity:0.6;stroke:#808080;stroke-linejoin:miter;stroke-opacity:0.6;"/>
   </g>
   <g id="patch_115">
    <path clip-path="url(#p56134c8303)" d="M 186.561288 256.32 
L 186.878003 256.32 
L 186.878003 245.964248 
L 186.561288 245.964248 
z
" style="fill:#808080;fill-opacity:0.6;stroke:#808080;stroke-linejoin:miter;stroke-opacity:0.6;"/>
   </g>
   <g id="patch_116">
    <path clip-path="url(#p56134c8303)" d="M 186.878003 256.32 
L 187.194719 256.32 
L 187.194719 251.309859 
L 186.878003 251.309859 
z
" style="fill:#808080;fill-opacity:0.6;stroke:#808080;stroke-linejoin:miter;stroke-opacity:0.6;"/>
   </g>
   <g id="patch_117">
    <path clip-path="url(#p56134c8303)" d="M 187.194719 256.32 
L 187.511434 256.32 
L 187.511434 251.48607 
L 187.194719 251.48607 
z
" style="fill:#808080;fill-opacity:0.6;stroke:#808080;stroke-linejoin:miter;stroke-opacity:0.6;"/>
   </g>
   <g id="patch_118">
    <path clip-path="url(#p56134c8303)" d="M 188.144865 256.32 
L 188.461581 256.32 
L 188.461581 249.803315 
L 188.144865 249.803315 
z
" style="fill:#808080;fill-opacity:0.6;stroke:#808080;stroke-linejoin:miter;stroke-opacity:0.6;"/>
   </g>
   <g id="patch_119">
    <path clip-path="url(#p56134c8303)" d="M 190.678589 256.32 
L 190.995305 256.32 
L 190.995305 251.4548 
L 190.678589 251.4548 
z
" style="fill:#808080;fill-opacity:0.6;stroke:#808080;stroke-linejoin:miter;stroke-opacity:0.6;"/>
   </g>
   <g id="patch_120">
    <path clip-path="url(#p56134c8303)" d="M 198.913193 256.32 
L 199.229909 256.32 
L 199.229909 249.370465 
L 198.913193 249.370465 
z
" style="fill:#808080;fill-opacity:0.6;stroke:#808080;stroke-linejoin:miter;stroke-opacity:0.6;"/>
   </g>
   <g id="patch_121">
    <path clip-path="url(#p56134c8303)" d="M 247.37067 256.32 
L 247.687386 256.32 
L 247.687386 249.679409 
L 247.37067 249.679409 
z
" style="fill:#808080;fill-opacity:0.6;stroke:#808080;stroke-linejoin:miter;stroke-opacity:0.6;"/>
   </g>
   <g id="patch_122">
    <path clip-path="url(#p56134c8303)" d="M 297.411725 256.32 
L 297.72844 256.32 
L 297.72844 207.220172 
L 297.411725 207.220172 
z
" style="fill:#808080;fill-opacity:0.6;stroke:#808080;stroke-linejoin:miter;stroke-opacity:0.6;"/>
   </g>
   <g id="patch_123">
    <path d="M 54 256.32 
L 54 34.56 
" style="fill:none;stroke:#cccccc;stroke-linecap:square;stroke-linejoin:miter;stroke-width:0.8;"/>
   </g>
   <g id="patch_124">
    <path d="M 388.8 256.32 
L 388.8 34.56 
" style="fill:none;stroke:#cccccc;stroke-linecap:square;stroke-linejoin:miter;stroke-width:0.8;"/>
   </g>
   <g id="patch_125">
    <path d="M 54 256.32 
L 388.8 256.32 
" style="fill:none;stroke:#cccccc;stroke-linecap:square;stroke-linejoin:miter;stroke-width:0.8;"/>
   </g>
   <g id="patch_126">
    <path d="M 54 34.56 
L 388.8 34.56 
" style="fill:none;stroke:#cccccc;stroke-linecap:square;stroke-linejoin:miter;stroke-width:0.8;"/>
   </g>
  </g>
  <g id="axes_2">
   <g id="matplotlib.axis_2">
    <g id="xtick_1">
     <g id="line2d_1">
      <path clip-path="url(#p56134c8303)" d="M 56.54956 256.32 
L 56.54956 34.56 
" style="fill:none;stroke:#cccccc;stroke-linecap:round;stroke-width:0.8;"/>
     </g>
     <g id="text_1">
      <!-- −40 -->
      <defs>
       <path d="M 10.59375 35.5 
L 73.1875 35.5 
L 73.1875 27.203125 
L 10.59375 27.203125 
z
" id="DejaVuSans-8722"/>
       <path d="M 37.796875 64.3125 
L 12.890625 25.390625 
L 37.796875 25.390625 
z
M 35.203125 72.90625 
L 47.609375 72.90625 
L 47.609375 25.390625 
L 58.015625 25.390625 
L 58.015625 17.1875 
L 47.609375 17.1875 
L 47.609375 0 
L 37.796875 0 
L 37.796875 17.1875 
L 4.890625 17.1875 
L 4.890625 26.703125 
z
" id="DejaVuSans-52"/>
       <path d="M 31.78125 66.40625 
Q 24.171875 66.40625 20.328125 58.90625 
Q 16.5 51.421875 16.5 36.375 
Q 16.5 21.390625 20.328125 13.890625 
Q 24.171875 6.390625 31.78125 6.390625 
Q 39.453125 6.390625 43.28125 13.890625 
Q 47.125 21.390625 47.125 36.375 
Q 47.125 51.421875 43.28125 58.90625 
Q 39.453125 66.40625 31.78125 66.40625 
z
M 31.78125 74.21875 
Q 44.046875 74.21875 50.515625 64.515625 
Q 56.984375 54.828125 56.984375 36.375 
Q 56.984375 17.96875 50.515625 8.265625 
Q 44.046875 -1.421875 31.78125 -1.421875 
Q 19.53125 -1.421875 13.0625 8.265625 
Q 6.59375 17.96875 6.59375 36.375 
Q 6.59375 54.828125 13.0625 64.515625 
Q 19.53125 74.21875 31.78125 74.21875 
z
" id="DejaVuSans-48"/>
      </defs>
      <g style="fill:#262626;" transform="translate(45.997217 270.918437)scale(0.1 -0.1)">
       <use xlink:href="#DejaVuSans-8722"/>
       <use x="83.789062" xlink:href="#DejaVuSans-52"/>
       <use x="147.412109" xlink:href="#DejaVuSans-48"/>
      </g>
     </g>
    </g>
    <g id="xtick_2">
     <g id="line2d_2">
      <path clip-path="url(#p56134c8303)" d="M 119.892667 256.32 
L 119.892667 34.56 
" style="fill:none;stroke:#cccccc;stroke-linecap:round;stroke-width:0.8;"/>
     </g>
     <g id="text_2">
      <!-- −20 -->
      <defs>
       <path d="M 19.1875 8.296875 
L 53.609375 8.296875 
L 53.609375 0 
L 7.328125 0 
L 7.328125 8.296875 
Q 12.9375 14.109375 22.625 23.890625 
Q 32.328125 33.6875 34.8125 36.53125 
Q 39.546875 41.84375 41.421875 45.53125 
Q 43.3125 49.21875 43.3125 52.78125 
Q 43.3125 58.59375 39.234375 62.25 
Q 35.15625 65.921875 28.609375 65.921875 
Q 23.96875 65.921875 18.8125 64.3125 
Q 13.671875 62.703125 7.8125 59.421875 
L 7.8125 69.390625 
Q 13.765625 71.78125 18.9375 73 
Q 24.125 74.21875 28.421875 74.21875 
Q 39.75 74.21875 46.484375 68.546875 
Q 53.21875 62.890625 53.21875 53.421875 
Q 53.21875 48.921875 51.53125 44.890625 
Q 49.859375 40.875 45.40625 35.40625 
Q 44.1875 33.984375 37.640625 27.21875 
Q 31.109375 20.453125 19.1875 8.296875 
z
" id="DejaVuSans-50"/>
      </defs>
      <g style="fill:#262626;" transform="translate(109.340324 270.918437)scale(0.1 -0.1)">
       <use xlink:href="#DejaVuSans-8722"/>
       <use x="83.789062" xlink:href="#DejaVuSans-50"/>
       <use x="147.412109" xlink:href="#DejaVuSans-48"/>
      </g>
     </g>
    </g>
    <g id="xtick_3">
     <g id="line2d_3">
      <path clip-path="url(#p56134c8303)" d="M 183.235774 256.32 
L 183.235774 34.56 
" style="fill:none;stroke:#cccccc;stroke-linecap:round;stroke-width:0.8;"/>
     </g>
     <g id="text_3">
      <!-- 0 -->
      <g style="fill:#262626;" transform="translate(180.054524 270.918437)scale(0.1 -0.1)">
       <use xlink:href="#DejaVuSans-48"/>
      </g>
     </g>
    </g>
    <g id="xtick_4">
     <g id="line2d_4">
      <path clip-path="url(#p56134c8303)" d="M 246.578881 256.32 
L 246.578881 34.56 
" style="fill:none;stroke:#cccccc;stroke-linecap:round;stroke-width:0.8;"/>
     </g>
     <g id="text_4">
      <!-- 20 -->
      <g style="fill:#262626;" transform="translate(240.216381 270.918437)scale(0.1 -0.1)">
       <use xlink:href="#DejaVuSans-50"/>
       <use x="63.623047" xlink:href="#DejaVuSans-48"/>
      </g>
     </g>
    </g>
    <g id="xtick_5">
     <g id="line2d_5">
      <path clip-path="url(#p56134c8303)" d="M 309.921988 256.32 
L 309.921988 34.56 
" style="fill:none;stroke:#cccccc;stroke-linecap:round;stroke-width:0.8;"/>
     </g>
     <g id="text_5">
      <!-- 40 -->
      <g style="fill:#262626;" transform="translate(303.559488 270.918437)scale(0.1 -0.1)">
       <use xlink:href="#DejaVuSans-52"/>
       <use x="63.623047" xlink:href="#DejaVuSans-48"/>
      </g>
     </g>
    </g>
    <g id="xtick_6">
     <g id="line2d_6">
      <path clip-path="url(#p56134c8303)" d="M 373.265095 256.32 
L 373.265095 34.56 
" style="fill:none;stroke:#cccccc;stroke-linecap:round;stroke-width:0.8;"/>
     </g>
     <g id="text_6">
      <!-- 60 -->
      <defs>
       <path d="M 33.015625 40.375 
Q 26.375 40.375 22.484375 35.828125 
Q 18.609375 31.296875 18.609375 23.390625 
Q 18.609375 15.53125 22.484375 10.953125 
Q 26.375 6.390625 33.015625 6.390625 
Q 39.65625 6.390625 43.53125 10.953125 
Q 47.40625 15.53125 47.40625 23.390625 
Q 47.40625 31.296875 43.53125 35.828125 
Q 39.65625 40.375 33.015625 40.375 
z
M 52.59375 71.296875 
L 52.59375 62.3125 
Q 48.875 64.0625 45.09375 64.984375 
Q 41.3125 65.921875 37.59375 65.921875 
Q 27.828125 65.921875 22.671875 59.328125 
Q 17.53125 52.734375 16.796875 39.40625 
Q 19.671875 43.65625 24.015625 45.921875 
Q 28.375 48.1875 33.59375 48.1875 
Q 44.578125 48.1875 50.953125 41.515625 
Q 57.328125 34.859375 57.328125 23.390625 
Q 57.328125 12.15625 50.6875 5.359375 
Q 44.046875 -1.421875 33.015625 -1.421875 
Q 20.359375 -1.421875 13.671875 8.265625 
Q 6.984375 17.96875 6.984375 36.375 
Q 6.984375 53.65625 15.1875 63.9375 
Q 23.390625 74.21875 37.203125 74.21875 
Q 40.921875 74.21875 44.703125 73.484375 
Q 48.484375 72.75 52.59375 71.296875 
z
" id="DejaVuSans-54"/>
      </defs>
      <g style="fill:#262626;" transform="translate(366.902595 270.918437)scale(0.1 -0.1)">
       <use xlink:href="#DejaVuSans-54"/>
       <use x="63.623047" xlink:href="#DejaVuSans-48"/>
      </g>
     </g>
    </g>
   </g>
   <g id="matplotlib.axis_3">
    <g id="ytick_1">
     <g id="line2d_7">
      <path clip-path="url(#p56134c8303)" d="M 54 224.067238 
L 388.8 224.067238 
" style="fill:none;stroke:#cccccc;stroke-linecap:round;stroke-width:0.8;"/>
     </g>
     <g id="line2d_8">
      <defs>
       <path d="M 0 0 
L -3.5 0 
" id="m1ebbd6c476" style="stroke:#262626;stroke-width:0.8;"/>
      </defs>
      <g>
       <use style="fill:#262626;stroke:#262626;stroke-width:0.8;" x="54" xlink:href="#m1ebbd6c476" y="224.067238"/>
      </g>
     </g>
     <g id="text_7">
      <!-- 0.0 -->
      <defs>
       <path d="M 10.6875 12.40625 
L 21 12.40625 
L 21 0 
L 10.6875 0 
z
" id="DejaVuSans-46"/>
      </defs>
      <g style="fill:#262626;" transform="translate(31.096875 227.866457)scale(0.1 -0.1)">
       <use xlink:href="#DejaVuSans-48"/>
       <use x="63.623047" xlink:href="#DejaVuSans-46"/>
       <use x="95.410156" xlink:href="#DejaVuSans-48"/>
      </g>
     </g>
    </g>
    <g id="ytick_2">
     <g id="line2d_9">
      <path clip-path="url(#p56134c8303)" d="M 54 182.279084 
L 388.8 182.279084 
" style="fill:none;stroke:#cccccc;stroke-linecap:round;stroke-width:0.8;"/>
     </g>
     <g id="line2d_10">
      <g>
       <use style="fill:#262626;stroke:#262626;stroke-width:0.8;" x="54" xlink:href="#m1ebbd6c476" y="182.279084"/>
      </g>
     </g>
     <g id="text_8">
      <!-- 0.2 -->
      <g style="fill:#262626;" transform="translate(31.096875 186.078302)scale(0.1 -0.1)">
       <use xlink:href="#DejaVuSans-48"/>
       <use x="63.623047" xlink:href="#DejaVuSans-46"/>
       <use x="95.410156" xlink:href="#DejaVuSans-50"/>
      </g>
     </g>
    </g>
    <g id="ytick_3">
     <g id="line2d_11">
      <path clip-path="url(#p56134c8303)" d="M 54 140.490929 
L 388.8 140.490929 
" style="fill:none;stroke:#cccccc;stroke-linecap:round;stroke-width:0.8;"/>
     </g>
     <g id="line2d_12">
      <g>
       <use style="fill:#262626;stroke:#262626;stroke-width:0.8;" x="54" xlink:href="#m1ebbd6c476" y="140.490929"/>
      </g>
     </g>
     <g id="text_9">
      <!-- 0.4 -->
      <g style="fill:#262626;" transform="translate(31.096875 144.290148)scale(0.1 -0.1)">
       <use xlink:href="#DejaVuSans-48"/>
       <use x="63.623047" xlink:href="#DejaVuSans-46"/>
       <use x="95.410156" xlink:href="#DejaVuSans-52"/>
      </g>
     </g>
    </g>
    <g id="ytick_4">
     <g id="line2d_13">
      <path clip-path="url(#p56134c8303)" d="M 54 98.702774 
L 388.8 98.702774 
" style="fill:none;stroke:#cccccc;stroke-linecap:round;stroke-width:0.8;"/>
     </g>
     <g id="line2d_14">
      <g>
       <use style="fill:#262626;stroke:#262626;stroke-width:0.8;" x="54" xlink:href="#m1ebbd6c476" y="98.702774"/>
      </g>
     </g>
     <g id="text_10">
      <!-- 0.6 -->
      <g style="fill:#262626;" transform="translate(31.096875 102.501993)scale(0.1 -0.1)">
       <use xlink:href="#DejaVuSans-48"/>
       <use x="63.623047" xlink:href="#DejaVuSans-46"/>
       <use x="95.410156" xlink:href="#DejaVuSans-54"/>
      </g>
     </g>
    </g>
    <g id="ytick_5">
     <g id="line2d_15">
      <path clip-path="url(#p56134c8303)" d="M 54 56.91462 
L 388.8 56.91462 
" style="fill:none;stroke:#cccccc;stroke-linecap:round;stroke-width:0.8;"/>
     </g>
     <g id="line2d_16">
      <g>
       <use style="fill:#262626;stroke:#262626;stroke-width:0.8;" x="54" xlink:href="#m1ebbd6c476" y="56.91462"/>
      </g>
     </g>
     <g id="text_11">
      <!-- 0.8 -->
      <defs>
       <path d="M 31.78125 34.625 
Q 24.75 34.625 20.71875 30.859375 
Q 16.703125 27.09375 16.703125 20.515625 
Q 16.703125 13.921875 20.71875 10.15625 
Q 24.75 6.390625 31.78125 6.390625 
Q 38.8125 6.390625 42.859375 10.171875 
Q 46.921875 13.96875 46.921875 20.515625 
Q 46.921875 27.09375 42.890625 30.859375 
Q 38.875 34.625 31.78125 34.625 
z
M 21.921875 38.8125 
Q 15.578125 40.375 12.03125 44.71875 
Q 8.5 49.078125 8.5 55.328125 
Q 8.5 64.0625 14.71875 69.140625 
Q 20.953125 74.21875 31.78125 74.21875 
Q 42.671875 74.21875 48.875 69.140625 
Q 55.078125 64.0625 55.078125 55.328125 
Q 55.078125 49.078125 51.53125 44.71875 
Q 48 40.375 41.703125 38.8125 
Q 48.828125 37.15625 52.796875 32.3125 
Q 56.78125 27.484375 56.78125 20.515625 
Q 56.78125 9.90625 50.3125 4.234375 
Q 43.84375 -1.421875 31.78125 -1.421875 
Q 19.734375 -1.421875 13.25 4.234375 
Q 6.78125 9.90625 6.78125 20.515625 
Q 6.78125 27.484375 10.78125 32.3125 
Q 14.796875 37.15625 21.921875 38.8125 
z
M 18.3125 54.390625 
Q 18.3125 48.734375 21.84375 45.5625 
Q 25.390625 42.390625 31.78125 42.390625 
Q 38.140625 42.390625 41.71875 45.5625 
Q 45.3125 48.734375 45.3125 54.390625 
Q 45.3125 60.0625 41.71875 63.234375 
Q 38.140625 66.40625 31.78125 66.40625 
Q 25.390625 66.40625 21.84375 63.234375 
Q 18.3125 60.0625 18.3125 54.390625 
z
" id="DejaVuSans-56"/>
      </defs>
      <g style="fill:#262626;" transform="translate(31.096875 60.713839)scale(0.1 -0.1)">
       <use xlink:href="#DejaVuSans-48"/>
       <use x="63.623047" xlink:href="#DejaVuSans-46"/>
       <use x="95.410156" xlink:href="#DejaVuSans-56"/>
      </g>
     </g>
    </g>
   </g>
   <g id="line2d_17">
    <path clip-path="url(#p56134c8303)" d="M 69.218182 226.823728 
L 80.795581 221.756843 
L 90.849629 217.59641 
L 99.380346 214.301701 
L 106.692383 211.705271 
L 113.090419 209.657507 
L 118.879112 208.036224 
L 124.058475 206.822651 
L 128.628502 205.986124 
L 132.589189 205.482082 
L 136.245207 205.240696 
L 139.596558 205.249389 
L 142.643243 205.488289 
L 145.385257 205.928951 
L 147.822603 206.533649 
L 150.259949 207.374808 
L 152.392626 208.3378 
L 154.525307 209.548019 
L 156.657985 211.045672 
L 158.485994 212.593752 
L 160.314003 214.421643 
L 162.142013 216.567002 
L 163.970024 219.069737 
L 165.798033 221.968511 
L 167.626042 225.29326 
L 169.454052 229.049954 
L 171.891399 234.634153 
L 175.24275 242.429931 
L 176.461423 244.673115 
L 177.375428 245.815319 
L 177.984765 246.195236 
L 178.289433 246.24 
L 178.594101 246.172214 
L 178.89877 245.978831 
L 179.508106 245.15726 
L 180.117443 243.645407 
L 180.72678 241.285026 
L 181.336116 237.885241 
L 182.250121 230.742888 
L 182.859458 225.792674 
L 183.468794 222.328726 
L 184.078131 216.792085 
L 184.992136 205.576257 
L 186.515477 183.335184 
L 188.648156 152.02273 
L 189.866828 136.835937 
L 191.085502 124.537508 
L 191.999507 117.239863 
L 192.913512 111.455266 
L 193.827516 106.991572 
L 194.741522 103.638052 
L 195.655526 101.191259 
L 196.569532 99.468905 
L 197.483536 98.315206 
L 198.397541 97.601165 
L 199.311546 97.222481 
L 200.225551 97.09595 
L 201.444223 97.208421 
L 202.967566 97.643159 
L 205.100244 98.536834 
L 211.802946 101.519592 
L 214.54496 102.449109 
L 217.286974 103.157434 
L 220.028991 103.653184 
L 223.075674 103.976249 
L 226.427024 104.086752 
L 229.778375 103.97529 
L 233.434397 103.637791 
L 237.395081 103.057404 
L 241.965107 102.15673 
L 246.839799 100.971672 
L 252.323833 99.413722 
L 258.721863 97.354965 
L 265.729235 94.864371 
L 273.95528 91.695753 
L 283.399998 87.807216 
L 294.368054 83.037955 
L 307.164126 77.218213 
L 322.092866 70.174645 
L 339.76363 61.583986 
L 361.090412 50.958992 
L 373.581818 44.64 
L 373.581818 44.64 
" style="fill:none;stroke:#0000ff;stroke-linecap:round;stroke-width:1.5;"/>
   </g>
   <g id="patch_127">
    <path d="M 54 256.32 
L 54 34.56 
" style="fill:none;stroke:#cccccc;stroke-linecap:square;stroke-linejoin:miter;stroke-width:0.8;"/>
   </g>
   <g id="patch_128">
    <path d="M 388.8 256.32 
L 388.8 34.56 
" style="fill:none;stroke:#cccccc;stroke-linecap:square;stroke-linejoin:miter;stroke-width:0.8;"/>
   </g>
   <g id="patch_129">
    <path d="M 54 256.32 
L 388.8 256.32 
" style="fill:none;stroke:#cccccc;stroke-linecap:square;stroke-linejoin:miter;stroke-width:0.8;"/>
   </g>
   <g id="patch_130">
    <path d="M 54 34.56 
L 388.8 34.56 
" style="fill:none;stroke:#cccccc;stroke-linecap:square;stroke-linejoin:miter;stroke-width:0.8;"/>
   </g>
   <g id="legend_1">
    <g id="patch_131">
     <path d="M 61 57.238125 
L 117.760937 57.238125 
Q 119.760937 57.238125 119.760937 55.238125 
L 119.760937 41.56 
Q 119.760937 39.56 117.760937 39.56 
L 61 39.56 
Q 59 39.56 59 41.56 
L 59 55.238125 
Q 59 57.238125 61 57.238125 
z
" style="fill:#ffffff;opacity:0.8;stroke:#cccccc;stroke-linejoin:miter;"/>
    </g>
    <g id="line2d_18">
     <path d="M 63 47.658438 
L 83 47.658438 
" style="fill:none;stroke:#0000ff;stroke-linecap:round;stroke-width:1.5;"/>
    </g>
    <g id="line2d_19"/>
    <g id="text_12">
     <!-- sPAU -->
     <defs>
      <path d="M 44.28125 53.078125 
L 44.28125 44.578125 
Q 40.484375 46.53125 36.375 47.5 
Q 32.28125 48.484375 27.875 48.484375 
Q 21.1875 48.484375 17.84375 46.4375 
Q 14.5 44.390625 14.5 40.28125 
Q 14.5 37.15625 16.890625 35.375 
Q 19.28125 33.59375 26.515625 31.984375 
L 29.59375 31.296875 
Q 39.15625 29.25 43.1875 25.515625 
Q 47.21875 21.78125 47.21875 15.09375 
Q 47.21875 7.46875 41.1875 3.015625 
Q 35.15625 -1.421875 24.609375 -1.421875 
Q 20.21875 -1.421875 15.453125 -0.5625 
Q 10.6875 0.296875 5.421875 2 
L 5.421875 11.28125 
Q 10.40625 8.6875 15.234375 7.390625 
Q 20.0625 6.109375 24.8125 6.109375 
Q 31.15625 6.109375 34.5625 8.28125 
Q 37.984375 10.453125 37.984375 14.40625 
Q 37.984375 18.0625 35.515625 20.015625 
Q 33.0625 21.96875 24.703125 23.78125 
L 21.578125 24.515625 
Q 13.234375 26.265625 9.515625 29.90625 
Q 5.8125 33.546875 5.8125 39.890625 
Q 5.8125 47.609375 11.28125 51.796875 
Q 16.75 56 26.8125 56 
Q 31.78125 56 36.171875 55.265625 
Q 40.578125 54.546875 44.28125 53.078125 
z
" id="DejaVuSans-115"/>
      <path d="M 19.671875 64.796875 
L 19.671875 37.40625 
L 32.078125 37.40625 
Q 38.96875 37.40625 42.71875 40.96875 
Q 46.484375 44.53125 46.484375 51.125 
Q 46.484375 57.671875 42.71875 61.234375 
Q 38.96875 64.796875 32.078125 64.796875 
z
M 9.8125 72.90625 
L 32.078125 72.90625 
Q 44.34375 72.90625 50.609375 67.359375 
Q 56.890625 61.8125 56.890625 51.125 
Q 56.890625 40.328125 50.609375 34.8125 
Q 44.34375 29.296875 32.078125 29.296875 
L 19.671875 29.296875 
L 19.671875 0 
L 9.8125 0 
z
" id="DejaVuSans-80"/>
      <path d="M 34.1875 63.1875 
L 20.796875 26.90625 
L 47.609375 26.90625 
z
M 28.609375 72.90625 
L 39.796875 72.90625 
L 67.578125 0 
L 57.328125 0 
L 50.6875 18.703125 
L 17.828125 18.703125 
L 11.1875 0 
L 0.78125 0 
z
" id="DejaVuSans-65"/>
      <path d="M 8.6875 72.90625 
L 18.609375 72.90625 
L 18.609375 28.609375 
Q 18.609375 16.890625 22.84375 11.734375 
Q 27.09375 6.59375 36.625 6.59375 
Q 46.09375 6.59375 50.34375 11.734375 
Q 54.59375 16.890625 54.59375 28.609375 
L 54.59375 72.90625 
L 64.5 72.90625 
L 64.5 27.390625 
Q 64.5 13.140625 57.4375 5.859375 
Q 50.390625 -1.421875 36.625 -1.421875 
Q 22.796875 -1.421875 15.734375 5.859375 
Q 8.6875 13.140625 8.6875 27.390625 
z
" id="DejaVuSans-85"/>
     </defs>
     <g style="fill:#262626;" transform="translate(91 51.158438)scale(0.1 -0.1)">
      <use xlink:href="#DejaVuSans-115"/>
      <use x="52.099609" xlink:href="#DejaVuSans-80"/>
      <use x="106.027344" xlink:href="#DejaVuSans-65"/>
      <use x="174.435547" xlink:href="#DejaVuSans-85"/>
     </g>
    </g>
   </g>
  </g>
 </g>
 <defs>
  <clipPath id="p56134c8303">
   <rect height="221.76" width="334.8" x="54" y="34.56"/>
  </clipPath>
 </defs>
</svg>
