<?xml version="1.0" encoding="utf-8" standalone="no"?>
<!DOCTYPE svg PUBLIC "-//W3C//DTD SVG 1.1//EN"
  "http://www.w3.org/Graphics/SVG/1.1/DTD/svg11.dtd">
<!-- Created with matplotlib (https://matplotlib.org/) -->
<svg height="288pt" version="1.1" viewBox="0 0 432 288" width="432pt" xmlns="http://www.w3.org/2000/svg" xmlns:xlink="http://www.w3.org/1999/xlink">
 <defs>
  <style type="text/css">
*{stroke-linecap:butt;stroke-linejoin:round;}
  </style>
 </defs>
 <g id="figure_1">
  <g id="patch_1">
   <path d="M 0 288 
L 432 288 
L 432 0 
L 0 0 
z
" style="fill:#ffffff;"/>
  </g>
  <g id="axes_1">
   <g id="matplotlib.axis_1"/>
   <g id="patch_2">
    <path clip-path="url(#p0b2272414d)" d="M 143.964726 256.32 
L 145.040216 256.32 
L 145.040216 251.390755 
L 143.964726 251.390755 
z
" style="fill:#808080;fill-opacity:0.6;stroke:#808080;stroke-linejoin:miter;stroke-opacity:0.6;"/>
   </g>
   <g id="patch_3">
    <path clip-path="url(#p0b2272414d)" d="M 155.795115 256.32 
L 156.870605 256.32 
L 156.870605 250.599587 
L 155.795115 250.599587 
z
" style="fill:#808080;fill-opacity:0.6;stroke:#808080;stroke-linejoin:miter;stroke-opacity:0.6;"/>
   </g>
   <g id="patch_4">
    <path clip-path="url(#p0b2272414d)" d="M 157.946095 256.32 
L 159.021585 256.32 
L 159.021585 251.662779 
L 157.946095 251.662779 
z
" style="fill:#808080;fill-opacity:0.6;stroke:#808080;stroke-linejoin:miter;stroke-opacity:0.6;"/>
   </g>
   <g id="patch_5">
    <path clip-path="url(#p0b2272414d)" d="M 162.248055 256.32 
L 163.323545 256.32 
L 163.323545 251.075271 
L 162.248055 251.075271 
z
" style="fill:#808080;fill-opacity:0.6;stroke:#808080;stroke-linejoin:miter;stroke-opacity:0.6;"/>
   </g>
   <g id="patch_6">
    <path clip-path="url(#p0b2272414d)" d="M 164.399035 256.32 
L 165.474525 256.32 
L 165.474525 251.875357 
L 164.399035 251.875357 
z
" style="fill:#808080;fill-opacity:0.6;stroke:#808080;stroke-linejoin:miter;stroke-opacity:0.6;"/>
   </g>
   <g id="patch_7">
    <path clip-path="url(#p0b2272414d)" d="M 166.550015 256.32 
L 167.625504 256.32 
L 167.625504 250.06056 
L 166.550015 250.06056 
z
" style="fill:#808080;fill-opacity:0.6;stroke:#808080;stroke-linejoin:miter;stroke-opacity:0.6;"/>
   </g>
   <g id="patch_8">
    <path clip-path="url(#p0b2272414d)" d="M 171.927464 256.32 
L 173.002954 256.32 
L 173.002954 251.539169 
L 171.927464 251.539169 
z
" style="fill:#808080;fill-opacity:0.6;stroke:#808080;stroke-linejoin:miter;stroke-opacity:0.6;"/>
   </g>
   <g id="patch_9">
    <path clip-path="url(#p0b2272414d)" d="M 177.304914 256.32 
L 178.380404 256.32 
L 178.380404 249.385725 
L 177.304914 249.385725 
z
" style="fill:#808080;fill-opacity:0.6;stroke:#808080;stroke-linejoin:miter;stroke-opacity:0.6;"/>
   </g>
   <g id="patch_10">
    <path clip-path="url(#p0b2272414d)" d="M 178.380404 256.32 
L 179.455894 256.32 
L 179.455894 247.418721 
L 178.380404 247.418721 
z
" style="fill:#808080;fill-opacity:0.6;stroke:#808080;stroke-linejoin:miter;stroke-opacity:0.6;"/>
   </g>
   <g id="patch_11">
    <path clip-path="url(#p0b2272414d)" d="M 181.606873 256.32 
L 182.682363 256.32 
L 182.682363 251.497351 
L 181.606873 251.497351 
z
" style="fill:#808080;fill-opacity:0.6;stroke:#808080;stroke-linejoin:miter;stroke-opacity:0.6;"/>
   </g>
   <g id="patch_12">
    <path clip-path="url(#p0b2272414d)" d="M 182.682363 256.32 
L 183.757853 256.32 
L 183.757853 250.606557 
L 182.682363 250.606557 
z
" style="fill:#808080;fill-opacity:0.6;stroke:#808080;stroke-linejoin:miter;stroke-opacity:0.6;"/>
   </g>
   <g id="patch_13">
    <path clip-path="url(#p0b2272414d)" d="M 183.757853 256.32 
L 184.833343 256.32 
L 184.833343 251.913998 
L 183.757853 251.913998 
z
" style="fill:#808080;fill-opacity:0.6;stroke:#808080;stroke-linejoin:miter;stroke-opacity:0.6;"/>
   </g>
   <g id="patch_14">
    <path clip-path="url(#p0b2272414d)" d="M 186.984323 256.32 
L 188.059813 256.32 
L 188.059813 251.733912 
L 186.984323 251.733912 
z
" style="fill:#808080;fill-opacity:0.6;stroke:#808080;stroke-linejoin:miter;stroke-opacity:0.6;"/>
   </g>
   <g id="patch_15">
    <path clip-path="url(#p0b2272414d)" d="M 188.059813 256.32 
L 189.135303 256.32 
L 189.135303 249.44384 
L 188.059813 249.44384 
z
" style="fill:#808080;fill-opacity:0.6;stroke:#808080;stroke-linejoin:miter;stroke-opacity:0.6;"/>
   </g>
   <g id="patch_16">
    <path clip-path="url(#p0b2272414d)" d="M 189.135303 256.32 
L 190.210793 256.32 
L 190.210793 251.239983 
L 189.135303 251.239983 
z
" style="fill:#808080;fill-opacity:0.6;stroke:#808080;stroke-linejoin:miter;stroke-opacity:0.6;"/>
   </g>
   <g id="patch_17">
    <path clip-path="url(#p0b2272414d)" d="M 190.210793 256.32 
L 191.286283 256.32 
L 191.286283 251.84635 
L 190.210793 251.84635 
z
" style="fill:#808080;fill-opacity:0.6;stroke:#808080;stroke-linejoin:miter;stroke-opacity:0.6;"/>
   </g>
   <g id="patch_18">
    <path clip-path="url(#p0b2272414d)" d="M 191.286283 256.32 
L 192.361772 256.32 
L 192.361772 251.607227 
L 191.286283 251.607227 
z
" style="fill:#808080;fill-opacity:0.6;stroke:#808080;stroke-linejoin:miter;stroke-opacity:0.6;"/>
   </g>
   <g id="patch_19">
    <path clip-path="url(#p0b2272414d)" d="M 192.361772 256.32 
L 193.437262 256.32 
L 193.437262 251.17213 
L 192.361772 251.17213 
z
" style="fill:#808080;fill-opacity:0.6;stroke:#808080;stroke-linejoin:miter;stroke-opacity:0.6;"/>
   </g>
   <g id="patch_20">
    <path clip-path="url(#p0b2272414d)" d="M 193.437262 256.32 
L 194.512752 256.32 
L 194.512752 250.777725 
L 193.437262 250.777725 
z
" style="fill:#808080;fill-opacity:0.6;stroke:#808080;stroke-linejoin:miter;stroke-opacity:0.6;"/>
   </g>
   <g id="patch_21">
    <path clip-path="url(#p0b2272414d)" d="M 194.512752 256.32 
L 195.588242 256.32 
L 195.588242 246.428403 
L 194.512752 246.428403 
z
" style="fill:#808080;fill-opacity:0.6;stroke:#808080;stroke-linejoin:miter;stroke-opacity:0.6;"/>
   </g>
   <g id="patch_22">
    <path clip-path="url(#p0b2272414d)" d="M 196.663732 256.32 
L 197.739222 256.32 
L 197.739222 251.131234 
L 196.663732 251.131234 
z
" style="fill:#808080;fill-opacity:0.6;stroke:#808080;stroke-linejoin:miter;stroke-opacity:0.6;"/>
   </g>
   <g id="patch_23">
    <path clip-path="url(#p0b2272414d)" d="M 198.814712 256.32 
L 199.890202 256.32 
L 199.890202 251.621781 
L 198.814712 251.621781 
z
" style="fill:#808080;fill-opacity:0.6;stroke:#808080;stroke-linejoin:miter;stroke-opacity:0.6;"/>
   </g>
   <g id="patch_24">
    <path clip-path="url(#p0b2272414d)" d="M 199.890202 256.32 
L 200.965692 256.32 
L 200.965692 246.182822 
L 199.890202 246.182822 
z
" style="fill:#808080;fill-opacity:0.6;stroke:#808080;stroke-linejoin:miter;stroke-opacity:0.6;"/>
   </g>
   <g id="patch_25">
    <path clip-path="url(#p0b2272414d)" d="M 200.965692 256.32 
L 202.041182 256.32 
L 202.041182 249.38593 
L 200.965692 249.38593 
z
" style="fill:#808080;fill-opacity:0.6;stroke:#808080;stroke-linejoin:miter;stroke-opacity:0.6;"/>
   </g>
   <g id="patch_26">
    <path clip-path="url(#p0b2272414d)" d="M 202.041182 256.32 
L 203.116672 256.32 
L 203.116672 251.385322 
L 202.041182 251.385322 
z
" style="fill:#808080;fill-opacity:0.6;stroke:#808080;stroke-linejoin:miter;stroke-opacity:0.6;"/>
   </g>
   <g id="patch_27">
    <path clip-path="url(#p0b2272414d)" d="M 203.116672 256.32 
L 204.192161 256.32 
L 204.192161 250.988765 
L 203.116672 250.988765 
z
" style="fill:#808080;fill-opacity:0.6;stroke:#808080;stroke-linejoin:miter;stroke-opacity:0.6;"/>
   </g>
   <g id="patch_28">
    <path clip-path="url(#p0b2272414d)" d="M 204.192161 256.32 
L 205.267651 256.32 
L 205.267651 247.433173 
L 204.192161 247.433173 
z
" style="fill:#808080;fill-opacity:0.6;stroke:#808080;stroke-linejoin:miter;stroke-opacity:0.6;"/>
   </g>
   <g id="patch_29">
    <path clip-path="url(#p0b2272414d)" d="M 205.267651 256.32 
L 206.343141 256.32 
L 206.343141 251.373433 
L 205.267651 251.373433 
z
" style="fill:#808080;fill-opacity:0.6;stroke:#808080;stroke-linejoin:miter;stroke-opacity:0.6;"/>
   </g>
   <g id="patch_30">
    <path clip-path="url(#p0b2272414d)" d="M 206.343141 256.32 
L 207.418631 256.32 
L 207.418631 250.283796 
L 206.343141 250.283796 
z
" style="fill:#808080;fill-opacity:0.6;stroke:#808080;stroke-linejoin:miter;stroke-opacity:0.6;"/>
   </g>
   <g id="patch_31">
    <path clip-path="url(#p0b2272414d)" d="M 207.418631 256.32 
L 208.494121 256.32 
L 208.494121 249.535369 
L 207.418631 249.535369 
z
" style="fill:#808080;fill-opacity:0.6;stroke:#808080;stroke-linejoin:miter;stroke-opacity:0.6;"/>
   </g>
   <g id="patch_32">
    <path clip-path="url(#p0b2272414d)" d="M 208.494121 256.32 
L 209.569611 256.32 
L 209.569611 247.92126 
L 208.494121 247.92126 
z
" style="fill:#808080;fill-opacity:0.6;stroke:#808080;stroke-linejoin:miter;stroke-opacity:0.6;"/>
   </g>
   <g id="patch_33">
    <path clip-path="url(#p0b2272414d)" d="M 209.569611 256.32 
L 210.645101 256.32 
L 210.645101 250.120622 
L 209.569611 250.120622 
z
" style="fill:#808080;fill-opacity:0.6;stroke:#808080;stroke-linejoin:miter;stroke-opacity:0.6;"/>
   </g>
   <g id="patch_34">
    <path clip-path="url(#p0b2272414d)" d="M 210.645101 256.32 
L 211.720591 256.32 
L 211.720591 249.576573 
L 210.645101 249.576573 
z
" style="fill:#808080;fill-opacity:0.6;stroke:#808080;stroke-linejoin:miter;stroke-opacity:0.6;"/>
   </g>
   <g id="patch_35">
    <path clip-path="url(#p0b2272414d)" d="M 211.720591 256.32 
L 212.796081 256.32 
L 212.796081 248.927054 
L 211.720591 248.927054 
z
" style="fill:#808080;fill-opacity:0.6;stroke:#808080;stroke-linejoin:miter;stroke-opacity:0.6;"/>
   </g>
   <g id="patch_36">
    <path clip-path="url(#p0b2272414d)" d="M 212.796081 256.32 
L 213.871571 256.32 
L 213.871571 250.10945 
L 212.796081 250.10945 
z
" style="fill:#808080;fill-opacity:0.6;stroke:#808080;stroke-linejoin:miter;stroke-opacity:0.6;"/>
   </g>
   <g id="patch_37">
    <path clip-path="url(#p0b2272414d)" d="M 213.871571 256.32 
L 214.947061 256.32 
L 214.947061 250.463164 
L 213.871571 250.463164 
z
" style="fill:#808080;fill-opacity:0.6;stroke:#808080;stroke-linejoin:miter;stroke-opacity:0.6;"/>
   </g>
   <g id="patch_38">
    <path clip-path="url(#p0b2272414d)" d="M 214.947061 256.32 
L 216.02255 256.32 
L 216.02255 246.513475 
L 214.947061 246.513475 
z
" style="fill:#808080;fill-opacity:0.6;stroke:#808080;stroke-linejoin:miter;stroke-opacity:0.6;"/>
   </g>
   <g id="patch_39">
    <path clip-path="url(#p0b2272414d)" d="M 216.02255 256.32 
L 217.09804 256.32 
L 217.09804 247.535362 
L 216.02255 247.535362 
z
" style="fill:#808080;fill-opacity:0.6;stroke:#808080;stroke-linejoin:miter;stroke-opacity:0.6;"/>
   </g>
   <g id="patch_40">
    <path clip-path="url(#p0b2272414d)" d="M 217.09804 256.32 
L 218.17353 256.32 
L 218.17353 247.883541 
L 217.09804 247.883541 
z
" style="fill:#808080;fill-opacity:0.6;stroke:#808080;stroke-linejoin:miter;stroke-opacity:0.6;"/>
   </g>
   <g id="patch_41">
    <path clip-path="url(#p0b2272414d)" d="M 218.17353 256.32 
L 219.24902 256.32 
L 219.24902 246.558983 
L 218.17353 246.558983 
z
" style="fill:#808080;fill-opacity:0.6;stroke:#808080;stroke-linejoin:miter;stroke-opacity:0.6;"/>
   </g>
   <g id="patch_42">
    <path clip-path="url(#p0b2272414d)" d="M 219.24902 256.32 
L 220.32451 256.32 
L 220.32451 248.109033 
L 219.24902 248.109033 
z
" style="fill:#808080;fill-opacity:0.6;stroke:#808080;stroke-linejoin:miter;stroke-opacity:0.6;"/>
   </g>
   <g id="patch_43">
    <path clip-path="url(#p0b2272414d)" d="M 220.32451 256.32 
L 221.4 256.32 
L 221.4 248.05266 
L 220.32451 248.05266 
z
" style="fill:#808080;fill-opacity:0.6;stroke:#808080;stroke-linejoin:miter;stroke-opacity:0.6;"/>
   </g>
   <g id="patch_44">
    <path clip-path="url(#p0b2272414d)" d="M 221.4 256.32 
L 222.47549 256.32 
L 222.47549 248.183035 
L 221.4 248.183035 
z
" style="fill:#808080;fill-opacity:0.6;stroke:#808080;stroke-linejoin:miter;stroke-opacity:0.6;"/>
   </g>
   <g id="patch_45">
    <path clip-path="url(#p0b2272414d)" d="M 222.47549 256.32 
L 223.55098 256.32 
L 223.55098 240.89935 
L 222.47549 240.89935 
z
" style="fill:#808080;fill-opacity:0.6;stroke:#808080;stroke-linejoin:miter;stroke-opacity:0.6;"/>
   </g>
   <g id="patch_46">
    <path clip-path="url(#p0b2272414d)" d="M 223.55098 256.32 
L 224.62647 256.32 
L 224.62647 244.173385 
L 223.55098 244.173385 
z
" style="fill:#808080;fill-opacity:0.6;stroke:#808080;stroke-linejoin:miter;stroke-opacity:0.6;"/>
   </g>
   <g id="patch_47">
    <path clip-path="url(#p0b2272414d)" d="M 224.62647 256.32 
L 225.70196 256.32 
L 225.70196 248.039335 
L 224.62647 248.039335 
z
" style="fill:#808080;fill-opacity:0.6;stroke:#808080;stroke-linejoin:miter;stroke-opacity:0.6;"/>
   </g>
   <g id="patch_48">
    <path clip-path="url(#p0b2272414d)" d="M 225.70196 256.32 
L 226.77745 256.32 
L 226.77745 244.619756 
L 225.70196 244.619756 
z
" style="fill:#808080;fill-opacity:0.6;stroke:#808080;stroke-linejoin:miter;stroke-opacity:0.6;"/>
   </g>
   <g id="patch_49">
    <path clip-path="url(#p0b2272414d)" d="M 226.77745 256.32 
L 227.852939 256.32 
L 227.852939 245.443005 
L 226.77745 245.443005 
z
" style="fill:#808080;fill-opacity:0.6;stroke:#808080;stroke-linejoin:miter;stroke-opacity:0.6;"/>
   </g>
   <g id="patch_50">
    <path clip-path="url(#p0b2272414d)" d="M 227.852939 256.32 
L 228.928429 256.32 
L 228.928429 247.901068 
L 227.852939 247.901068 
z
" style="fill:#808080;fill-opacity:0.6;stroke:#808080;stroke-linejoin:miter;stroke-opacity:0.6;"/>
   </g>
   <g id="patch_51">
    <path clip-path="url(#p0b2272414d)" d="M 228.928429 256.32 
L 230.003919 256.32 
L 230.003919 241.354536 
L 228.928429 241.354536 
z
" style="fill:#808080;fill-opacity:0.6;stroke:#808080;stroke-linejoin:miter;stroke-opacity:0.6;"/>
   </g>
   <g id="patch_52">
    <path clip-path="url(#p0b2272414d)" d="M 230.003919 256.32 
L 231.079409 256.32 
L 231.079409 242.031625 
L 230.003919 242.031625 
z
" style="fill:#808080;fill-opacity:0.6;stroke:#808080;stroke-linejoin:miter;stroke-opacity:0.6;"/>
   </g>
   <g id="patch_53">
    <path clip-path="url(#p0b2272414d)" d="M 231.079409 256.32 
L 232.154899 256.32 
L 232.154899 245.362341 
L 231.079409 245.362341 
z
" style="fill:#808080;fill-opacity:0.6;stroke:#808080;stroke-linejoin:miter;stroke-opacity:0.6;"/>
   </g>
   <g id="patch_54">
    <path clip-path="url(#p0b2272414d)" d="M 232.154899 256.32 
L 233.230389 256.32 
L 233.230389 241.870399 
L 232.154899 241.870399 
z
" style="fill:#808080;fill-opacity:0.6;stroke:#808080;stroke-linejoin:miter;stroke-opacity:0.6;"/>
   </g>
   <g id="patch_55">
    <path clip-path="url(#p0b2272414d)" d="M 233.230389 256.32 
L 234.305879 256.32 
L 234.305879 242.443865 
L 233.230389 242.443865 
z
" style="fill:#808080;fill-opacity:0.6;stroke:#808080;stroke-linejoin:miter;stroke-opacity:0.6;"/>
   </g>
   <g id="patch_56">
    <path clip-path="url(#p0b2272414d)" d="M 234.305879 256.32 
L 235.381369 256.32 
L 235.381369 237.865361 
L 234.305879 237.865361 
z
" style="fill:#808080;fill-opacity:0.6;stroke:#808080;stroke-linejoin:miter;stroke-opacity:0.6;"/>
   </g>
   <g id="patch_57">
    <path clip-path="url(#p0b2272414d)" d="M 235.381369 256.32 
L 236.456859 256.32 
L 236.456859 245.475394 
L 235.381369 245.475394 
z
" style="fill:#808080;fill-opacity:0.6;stroke:#808080;stroke-linejoin:miter;stroke-opacity:0.6;"/>
   </g>
   <g id="patch_58">
    <path clip-path="url(#p0b2272414d)" d="M 236.456859 256.32 
L 237.532349 256.32 
L 237.532349 244.463859 
L 236.456859 244.463859 
z
" style="fill:#808080;fill-opacity:0.6;stroke:#808080;stroke-linejoin:miter;stroke-opacity:0.6;"/>
   </g>
   <g id="patch_59">
    <path clip-path="url(#p0b2272414d)" d="M 237.532349 256.32 
L 238.607839 256.32 
L 238.607839 244.438338 
L 237.532349 244.438338 
z
" style="fill:#808080;fill-opacity:0.6;stroke:#808080;stroke-linejoin:miter;stroke-opacity:0.6;"/>
   </g>
   <g id="patch_60">
    <path clip-path="url(#p0b2272414d)" d="M 238.607839 256.32 
L 239.683328 256.32 
L 239.683328 243.249485 
L 238.607839 243.249485 
z
" style="fill:#808080;fill-opacity:0.6;stroke:#808080;stroke-linejoin:miter;stroke-opacity:0.6;"/>
   </g>
   <g id="patch_61">
    <path clip-path="url(#p0b2272414d)" d="M 239.683328 256.32 
L 240.758818 256.32 
L 240.758818 241.435815 
L 239.683328 241.435815 
z
" style="fill:#808080;fill-opacity:0.6;stroke:#808080;stroke-linejoin:miter;stroke-opacity:0.6;"/>
   </g>
   <g id="patch_62">
    <path clip-path="url(#p0b2272414d)" d="M 240.758818 256.32 
L 241.834308 256.32 
L 241.834308 238.079066 
L 240.758818 238.079066 
z
" style="fill:#808080;fill-opacity:0.6;stroke:#808080;stroke-linejoin:miter;stroke-opacity:0.6;"/>
   </g>
   <g id="patch_63">
    <path clip-path="url(#p0b2272414d)" d="M 241.834308 256.32 
L 242.909798 256.32 
L 242.909798 241.072159 
L 241.834308 241.072159 
z
" style="fill:#808080;fill-opacity:0.6;stroke:#808080;stroke-linejoin:miter;stroke-opacity:0.6;"/>
   </g>
   <g id="patch_64">
    <path clip-path="url(#p0b2272414d)" d="M 242.909798 256.32 
L 243.985288 256.32 
L 243.985288 241.396867 
L 242.909798 241.396867 
z
" style="fill:#808080;fill-opacity:0.6;stroke:#808080;stroke-linejoin:miter;stroke-opacity:0.6;"/>
   </g>
   <g id="patch_65">
    <path clip-path="url(#p0b2272414d)" d="M 243.985288 256.32 
L 245.060778 256.32 
L 245.060778 238.589497 
L 243.985288 238.589497 
z
" style="fill:#808080;fill-opacity:0.6;stroke:#808080;stroke-linejoin:miter;stroke-opacity:0.6;"/>
   </g>
   <g id="patch_66">
    <path clip-path="url(#p0b2272414d)" d="M 245.060778 256.32 
L 246.136268 256.32 
L 246.136268 232.587629 
L 245.060778 232.587629 
z
" style="fill:#808080;fill-opacity:0.6;stroke:#808080;stroke-linejoin:miter;stroke-opacity:0.6;"/>
   </g>
   <g id="patch_67">
    <path clip-path="url(#p0b2272414d)" d="M 246.136268 256.32 
L 247.211758 256.32 
L 247.211758 234.951806 
L 246.136268 234.951806 
z
" style="fill:#808080;fill-opacity:0.6;stroke:#808080;stroke-linejoin:miter;stroke-opacity:0.6;"/>
   </g>
   <g id="patch_68">
    <path clip-path="url(#p0b2272414d)" d="M 247.211758 256.32 
L 248.287248 256.32 
L 248.287248 232.750701 
L 247.211758 232.750701 
z
" style="fill:#808080;fill-opacity:0.6;stroke:#808080;stroke-linejoin:miter;stroke-opacity:0.6;"/>
   </g>
   <g id="patch_69">
    <path clip-path="url(#p0b2272414d)" d="M 248.287248 256.32 
L 249.362738 256.32 
L 249.362738 234.942683 
L 248.287248 234.942683 
z
" style="fill:#808080;fill-opacity:0.6;stroke:#808080;stroke-linejoin:miter;stroke-opacity:0.6;"/>
   </g>
   <g id="patch_70">
    <path clip-path="url(#p0b2272414d)" d="M 249.362738 256.32 
L 250.438228 256.32 
L 250.438228 232.460124 
L 249.362738 232.460124 
z
" style="fill:#808080;fill-opacity:0.6;stroke:#808080;stroke-linejoin:miter;stroke-opacity:0.6;"/>
   </g>
   <g id="patch_71">
    <path clip-path="url(#p0b2272414d)" d="M 250.438228 256.32 
L 251.513717 256.32 
L 251.513717 232.271428 
L 250.438228 232.271428 
z
" style="fill:#808080;fill-opacity:0.6;stroke:#808080;stroke-linejoin:miter;stroke-opacity:0.6;"/>
   </g>
   <g id="patch_72">
    <path clip-path="url(#p0b2272414d)" d="M 251.513717 256.32 
L 252.589207 256.32 
L 252.589207 230.981104 
L 251.513717 230.981104 
z
" style="fill:#808080;fill-opacity:0.6;stroke:#808080;stroke-linejoin:miter;stroke-opacity:0.6;"/>
   </g>
   <g id="patch_73">
    <path clip-path="url(#p0b2272414d)" d="M 252.589207 256.32 
L 253.664697 256.32 
L 253.664697 228.650547 
L 252.589207 228.650547 
z
" style="fill:#808080;fill-opacity:0.6;stroke:#808080;stroke-linejoin:miter;stroke-opacity:0.6;"/>
   </g>
   <g id="patch_74">
    <path clip-path="url(#p0b2272414d)" d="M 253.664697 256.32 
L 254.740187 256.32 
L 254.740187 222.656571 
L 253.664697 222.656571 
z
" style="fill:#808080;fill-opacity:0.6;stroke:#808080;stroke-linejoin:miter;stroke-opacity:0.6;"/>
   </g>
   <g id="patch_75">
    <path clip-path="url(#p0b2272414d)" d="M 254.740187 256.32 
L 255.815677 256.32 
L 255.815677 226.242194 
L 254.740187 226.242194 
z
" style="fill:#808080;fill-opacity:0.6;stroke:#808080;stroke-linejoin:miter;stroke-opacity:0.6;"/>
   </g>
   <g id="patch_76">
    <path clip-path="url(#p0b2272414d)" d="M 255.815677 256.32 
L 256.891167 256.32 
L 256.891167 224.585036 
L 255.815677 224.585036 
z
" style="fill:#808080;fill-opacity:0.6;stroke:#808080;stroke-linejoin:miter;stroke-opacity:0.6;"/>
   </g>
   <g id="patch_77">
    <path clip-path="url(#p0b2272414d)" d="M 256.891167 256.32 
L 257.966657 256.32 
L 257.966657 223.89944 
L 256.891167 223.89944 
z
" style="fill:#808080;fill-opacity:0.6;stroke:#808080;stroke-linejoin:miter;stroke-opacity:0.6;"/>
   </g>
   <g id="patch_78">
    <path clip-path="url(#p0b2272414d)" d="M 257.966657 256.32 
L 259.042147 256.32 
L 259.042147 212.355195 
L 257.966657 212.355195 
z
" style="fill:#808080;fill-opacity:0.6;stroke:#808080;stroke-linejoin:miter;stroke-opacity:0.6;"/>
   </g>
   <g id="patch_79">
    <path clip-path="url(#p0b2272414d)" d="M 259.042147 256.32 
L 260.117637 256.32 
L 260.117637 215.07288 
L 259.042147 215.07288 
z
" style="fill:#808080;fill-opacity:0.6;stroke:#808080;stroke-linejoin:miter;stroke-opacity:0.6;"/>
   </g>
   <g id="patch_80">
    <path clip-path="url(#p0b2272414d)" d="M 260.117637 256.32 
L 261.193127 256.32 
L 261.193127 211.073685 
L 260.117637 211.073685 
z
" style="fill:#808080;fill-opacity:0.6;stroke:#808080;stroke-linejoin:miter;stroke-opacity:0.6;"/>
   </g>
   <g id="patch_81">
    <path clip-path="url(#p0b2272414d)" d="M 261.193127 256.32 
L 262.268617 256.32 
L 262.268617 194.363019 
L 261.193127 194.363019 
z
" style="fill:#808080;fill-opacity:0.6;stroke:#808080;stroke-linejoin:miter;stroke-opacity:0.6;"/>
   </g>
   <g id="patch_82">
    <path clip-path="url(#p0b2272414d)" d="M 262.268617 256.32 
L 263.344106 256.32 
L 263.344106 193.811794 
L 262.268617 193.811794 
z
" style="fill:#808080;fill-opacity:0.6;stroke:#808080;stroke-linejoin:miter;stroke-opacity:0.6;"/>
   </g>
   <g id="patch_83">
    <path clip-path="url(#p0b2272414d)" d="M 263.344106 256.32 
L 264.419596 256.32 
L 264.419596 200.380773 
L 263.344106 200.380773 
z
" style="fill:#808080;fill-opacity:0.6;stroke:#808080;stroke-linejoin:miter;stroke-opacity:0.6;"/>
   </g>
   <g id="patch_84">
    <path clip-path="url(#p0b2272414d)" d="M 264.419596 256.32 
L 265.495086 256.32 
L 265.495086 201.281612 
L 264.419596 201.281612 
z
" style="fill:#808080;fill-opacity:0.6;stroke:#808080;stroke-linejoin:miter;stroke-opacity:0.6;"/>
   </g>
   <g id="patch_85">
    <path clip-path="url(#p0b2272414d)" d="M 265.495086 256.32 
L 266.570576 256.32 
L 266.570576 188.856105 
L 265.495086 188.856105 
z
" style="fill:#808080;fill-opacity:0.6;stroke:#808080;stroke-linejoin:miter;stroke-opacity:0.6;"/>
   </g>
   <g id="patch_86">
    <path clip-path="url(#p0b2272414d)" d="M 266.570576 256.32 
L 267.646066 256.32 
L 267.646066 180.642883 
L 266.570576 180.642883 
z
" style="fill:#808080;fill-opacity:0.6;stroke:#808080;stroke-linejoin:miter;stroke-opacity:0.6;"/>
   </g>
   <g id="patch_87">
    <path clip-path="url(#p0b2272414d)" d="M 267.646066 256.32 
L 268.721556 256.32 
L 268.721556 163.250924 
L 267.646066 163.250924 
z
" style="fill:#808080;fill-opacity:0.6;stroke:#808080;stroke-linejoin:miter;stroke-opacity:0.6;"/>
   </g>
   <g id="patch_88">
    <path clip-path="url(#p0b2272414d)" d="M 268.721556 256.32 
L 269.797046 256.32 
L 269.797046 170.219023 
L 268.721556 170.219023 
z
" style="fill:#808080;fill-opacity:0.6;stroke:#808080;stroke-linejoin:miter;stroke-opacity:0.6;"/>
   </g>
   <g id="patch_89">
    <path clip-path="url(#p0b2272414d)" d="M 269.797046 256.32 
L 270.872536 256.32 
L 270.872536 148.028605 
L 269.797046 148.028605 
z
" style="fill:#808080;fill-opacity:0.6;stroke:#808080;stroke-linejoin:miter;stroke-opacity:0.6;"/>
   </g>
   <g id="patch_90">
    <path clip-path="url(#p0b2272414d)" d="M 270.872536 256.32 
L 271.948026 256.32 
L 271.948026 133.592123 
L 270.872536 133.592123 
z
" style="fill:#808080;fill-opacity:0.6;stroke:#808080;stroke-linejoin:miter;stroke-opacity:0.6;"/>
   </g>
   <g id="patch_91">
    <path clip-path="url(#p0b2272414d)" d="M 271.948026 256.32 
L 273.023516 256.32 
L 273.023516 151.253236 
L 271.948026 151.253236 
z
" style="fill:#808080;fill-opacity:0.6;stroke:#808080;stroke-linejoin:miter;stroke-opacity:0.6;"/>
   </g>
   <g id="patch_92">
    <path clip-path="url(#p0b2272414d)" d="M 273.023516 256.32 
L 274.099006 256.32 
L 274.099006 144.754262 
L 273.023516 144.754262 
z
" style="fill:#808080;fill-opacity:0.6;stroke:#808080;stroke-linejoin:miter;stroke-opacity:0.6;"/>
   </g>
   <g id="patch_93">
    <path clip-path="url(#p0b2272414d)" d="M 274.099006 256.32 
L 275.174496 256.32 
L 275.174496 125.193588 
L 274.099006 125.193588 
z
" style="fill:#808080;fill-opacity:0.6;stroke:#808080;stroke-linejoin:miter;stroke-opacity:0.6;"/>
   </g>
   <g id="patch_94">
    <path clip-path="url(#p0b2272414d)" d="M 275.174496 256.32 
L 276.249985 256.32 
L 276.249985 79.830632 
L 275.174496 79.830632 
z
" style="fill:#808080;fill-opacity:0.6;stroke:#808080;stroke-linejoin:miter;stroke-opacity:0.6;"/>
   </g>
   <g id="patch_95">
    <path clip-path="url(#p0b2272414d)" d="M 276.249985 256.32 
L 277.325475 256.32 
L 277.325475 123.806815 
L 276.249985 123.806815 
z
" style="fill:#808080;fill-opacity:0.6;stroke:#808080;stroke-linejoin:miter;stroke-opacity:0.6;"/>
   </g>
   <g id="patch_96">
    <path clip-path="url(#p0b2272414d)" d="M 277.325475 256.32 
L 278.400965 256.32 
L 278.400965 129.67103 
L 277.325475 129.67103 
z
" style="fill:#808080;fill-opacity:0.6;stroke:#808080;stroke-linejoin:miter;stroke-opacity:0.6;"/>
   </g>
   <g id="patch_97">
    <path clip-path="url(#p0b2272414d)" d="M 278.400965 256.32 
L 279.476455 256.32 
L 279.476455 119.752989 
L 278.400965 119.752989 
z
" style="fill:#808080;fill-opacity:0.6;stroke:#808080;stroke-linejoin:miter;stroke-opacity:0.6;"/>
   </g>
   <g id="patch_98">
    <path clip-path="url(#p0b2272414d)" d="M 279.476455 256.32 
L 280.551945 256.32 
L 280.551945 45.12 
L 279.476455 45.12 
z
" style="fill:#808080;fill-opacity:0.6;stroke:#808080;stroke-linejoin:miter;stroke-opacity:0.6;"/>
   </g>
   <g id="patch_99">
    <path clip-path="url(#p0b2272414d)" d="M 280.551945 256.32 
L 281.627435 256.32 
L 281.627435 132.134423 
L 280.551945 132.134423 
z
" style="fill:#808080;fill-opacity:0.6;stroke:#808080;stroke-linejoin:miter;stroke-opacity:0.6;"/>
   </g>
   <g id="patch_100">
    <path clip-path="url(#p0b2272414d)" d="M 281.627435 256.32 
L 282.702925 256.32 
L 282.702925 119.904068 
L 281.627435 119.904068 
z
" style="fill:#808080;fill-opacity:0.6;stroke:#808080;stroke-linejoin:miter;stroke-opacity:0.6;"/>
   </g>
   <g id="patch_101">
    <path clip-path="url(#p0b2272414d)" d="M 282.702925 256.32 
L 283.778415 256.32 
L 283.778415 66.495472 
L 282.702925 66.495472 
z
" style="fill:#808080;fill-opacity:0.6;stroke:#808080;stroke-linejoin:miter;stroke-opacity:0.6;"/>
   </g>
   <g id="patch_102">
    <path clip-path="url(#p0b2272414d)" d="M 283.778415 256.32 
L 284.853905 256.32 
L 284.853905 153.010225 
L 283.778415 153.010225 
z
" style="fill:#808080;fill-opacity:0.6;stroke:#808080;stroke-linejoin:miter;stroke-opacity:0.6;"/>
   </g>
   <g id="patch_103">
    <path clip-path="url(#p0b2272414d)" d="M 284.853905 256.32 
L 285.929395 256.32 
L 285.929395 196.292304 
L 284.853905 196.292304 
z
" style="fill:#808080;fill-opacity:0.6;stroke:#808080;stroke-linejoin:miter;stroke-opacity:0.6;"/>
   </g>
   <g id="patch_104">
    <path clip-path="url(#p0b2272414d)" d="M 285.929395 256.32 
L 287.004885 256.32 
L 287.004885 185.559521 
L 285.929395 185.559521 
z
" style="fill:#808080;fill-opacity:0.6;stroke:#808080;stroke-linejoin:miter;stroke-opacity:0.6;"/>
   </g>
   <g id="patch_105">
    <path clip-path="url(#p0b2272414d)" d="M 287.004885 256.32 
L 288.080374 256.32 
L 288.080374 155.782849 
L 287.004885 155.782849 
z
" style="fill:#808080;fill-opacity:0.6;stroke:#808080;stroke-linejoin:miter;stroke-opacity:0.6;"/>
   </g>
   <g id="patch_106">
    <path clip-path="url(#p0b2272414d)" d="M 288.080374 256.32 
L 289.155864 256.32 
L 289.155864 176.765145 
L 288.080374 176.765145 
z
" style="fill:#808080;fill-opacity:0.6;stroke:#808080;stroke-linejoin:miter;stroke-opacity:0.6;"/>
   </g>
   <g id="patch_107">
    <path clip-path="url(#p0b2272414d)" d="M 289.155864 256.32 
L 290.231354 256.32 
L 290.231354 193.188925 
L 289.155864 193.188925 
z
" style="fill:#808080;fill-opacity:0.6;stroke:#808080;stroke-linejoin:miter;stroke-opacity:0.6;"/>
   </g>
   <g id="patch_108">
    <path clip-path="url(#p0b2272414d)" d="M 290.231354 256.32 
L 291.306844 256.32 
L 291.306844 229.882448 
L 290.231354 229.882448 
z
" style="fill:#808080;fill-opacity:0.6;stroke:#808080;stroke-linejoin:miter;stroke-opacity:0.6;"/>
   </g>
   <g id="patch_109">
    <path clip-path="url(#p0b2272414d)" d="M 291.306844 256.32 
L 292.382334 256.32 
L 292.382334 233.128399 
L 291.306844 233.128399 
z
" style="fill:#808080;fill-opacity:0.6;stroke:#808080;stroke-linejoin:miter;stroke-opacity:0.6;"/>
   </g>
   <g id="patch_110">
    <path clip-path="url(#p0b2272414d)" d="M 292.382334 256.32 
L 293.457824 256.32 
L 293.457824 231.57343 
L 292.382334 231.57343 
z
" style="fill:#808080;fill-opacity:0.6;stroke:#808080;stroke-linejoin:miter;stroke-opacity:0.6;"/>
   </g>
   <g id="patch_111">
    <path clip-path="url(#p0b2272414d)" d="M 293.457824 256.32 
L 294.533314 256.32 
L 294.533314 239.218721 
L 293.457824 239.218721 
z
" style="fill:#808080;fill-opacity:0.6;stroke:#808080;stroke-linejoin:miter;stroke-opacity:0.6;"/>
   </g>
   <g id="patch_112">
    <path clip-path="url(#p0b2272414d)" d="M 294.533314 256.32 
L 295.608804 256.32 
L 295.608804 241.884953 
L 294.533314 241.884953 
z
" style="fill:#808080;fill-opacity:0.6;stroke:#808080;stroke-linejoin:miter;stroke-opacity:0.6;"/>
   </g>
   <g id="patch_113">
    <path clip-path="url(#p0b2272414d)" d="M 295.608804 256.32 
L 296.684294 256.32 
L 296.684294 245.809326 
L 295.608804 245.809326 
z
" style="fill:#808080;fill-opacity:0.6;stroke:#808080;stroke-linejoin:miter;stroke-opacity:0.6;"/>
   </g>
   <g id="patch_114">
    <path clip-path="url(#p0b2272414d)" d="M 296.684294 256.32 
L 297.759784 256.32 
L 297.759784 248.78356 
L 296.684294 248.78356 
z
" style="fill:#808080;fill-opacity:0.6;stroke:#808080;stroke-linejoin:miter;stroke-opacity:0.6;"/>
   </g>
   <g id="patch_115">
    <path clip-path="url(#p0b2272414d)" d="M 297.759784 256.32 
L 298.835274 256.32 
L 298.835274 251.566843 
L 297.759784 251.566843 
z
" style="fill:#808080;fill-opacity:0.6;stroke:#808080;stroke-linejoin:miter;stroke-opacity:0.6;"/>
   </g>
   <g id="patch_116">
    <path d="M 54 256.32 
L 54 34.56 
" style="fill:none;stroke:#cccccc;stroke-linecap:square;stroke-linejoin:miter;stroke-width:0.8;"/>
   </g>
   <g id="patch_117">
    <path d="M 388.8 256.32 
L 388.8 34.56 
" style="fill:none;stroke:#cccccc;stroke-linecap:square;stroke-linejoin:miter;stroke-width:0.8;"/>
   </g>
   <g id="patch_118">
    <path d="M 54 256.32 
L 388.8 256.32 
" style="fill:none;stroke:#cccccc;stroke-linecap:square;stroke-linejoin:miter;stroke-width:0.8;"/>
   </g>
   <g id="patch_119">
    <path d="M 54 34.56 
L 388.8 34.56 
" style="fill:none;stroke:#cccccc;stroke-linecap:square;stroke-linejoin:miter;stroke-width:0.8;"/>
   </g>
  </g>
  <g id="axes_2">
   <g id="matplotlib.axis_2">
    <g id="xtick_1">
     <g id="line2d_1">
      <path clip-path="url(#p0b2272414d)" d="M 68.142688 256.32 
L 68.142688 34.56 
" style="fill:none;stroke:#cccccc;stroke-linecap:round;stroke-width:0.8;"/>
     </g>
     <g id="text_1">
      <!-- −20 -->
      <defs>
       <path d="M 10.59375 35.5 
L 73.1875 35.5 
L 73.1875 27.203125 
L 10.59375 27.203125 
z
" id="DejaVuSans-8722"/>
       <path d="M 19.1875 8.296875 
L 53.609375 8.296875 
L 53.609375 0 
L 7.328125 0 
L 7.328125 8.296875 
Q 12.9375 14.109375 22.625 23.890625 
Q 32.328125 33.6875 34.8125 36.53125 
Q 39.546875 41.84375 41.421875 45.53125 
Q 43.3125 49.21875 43.3125 52.78125 
Q 43.3125 58.59375 39.234375 62.25 
Q 35.15625 65.921875 28.609375 65.921875 
Q 23.96875 65.921875 18.8125 64.3125 
Q 13.671875 62.703125 7.8125 59.421875 
L 7.8125 69.390625 
Q 13.765625 71.78125 18.9375 73 
Q 24.125 74.21875 28.421875 74.21875 
Q 39.75 74.21875 46.484375 68.546875 
Q 53.21875 62.890625 53.21875 53.421875 
Q 53.21875 48.921875 51.53125 44.890625 
Q 49.859375 40.875 45.40625 35.40625 
Q 44.1875 33.984375 37.640625 27.21875 
Q 31.109375 20.453125 19.1875 8.296875 
z
" id="DejaVuSans-50"/>
       <path d="M 31.78125 66.40625 
Q 24.171875 66.40625 20.328125 58.90625 
Q 16.5 51.421875 16.5 36.375 
Q 16.5 21.390625 20.328125 13.890625 
Q 24.171875 6.390625 31.78125 6.390625 
Q 39.453125 6.390625 43.28125 13.890625 
Q 47.125 21.390625 47.125 36.375 
Q 47.125 51.421875 43.28125 58.90625 
Q 39.453125 66.40625 31.78125 66.40625 
z
M 31.78125 74.21875 
Q 44.046875 74.21875 50.515625 64.515625 
Q 56.984375 54.828125 56.984375 36.375 
Q 56.984375 17.96875 50.515625 8.265625 
Q 44.046875 -1.421875 31.78125 -1.421875 
Q 19.53125 -1.421875 13.0625 8.265625 
Q 6.59375 17.96875 6.59375 36.375 
Q 6.59375 54.828125 13.0625 64.515625 
Q 19.53125 74.21875 31.78125 74.21875 
z
" id="DejaVuSans-48"/>
      </defs>
      <g style="fill:#262626;" transform="translate(57.590344 270.918437)scale(0.1 -0.1)">
       <use xlink:href="#DejaVuSans-8722"/>
       <use x="83.789062" xlink:href="#DejaVuSans-50"/>
       <use x="147.412109" xlink:href="#DejaVuSans-48"/>
      </g>
     </g>
    </g>
    <g id="xtick_2">
     <g id="line2d_2">
      <path clip-path="url(#p0b2272414d)" d="M 121.917183 256.32 
L 121.917183 34.56 
" style="fill:none;stroke:#cccccc;stroke-linecap:round;stroke-width:0.8;"/>
     </g>
     <g id="text_2">
      <!-- −15 -->
      <defs>
       <path d="M 12.40625 8.296875 
L 28.515625 8.296875 
L 28.515625 63.921875 
L 10.984375 60.40625 
L 10.984375 69.390625 
L 28.421875 72.90625 
L 38.28125 72.90625 
L 38.28125 8.296875 
L 54.390625 8.296875 
L 54.390625 0 
L 12.40625 0 
z
" id="DejaVuSans-49"/>
       <path d="M 10.796875 72.90625 
L 49.515625 72.90625 
L 49.515625 64.59375 
L 19.828125 64.59375 
L 19.828125 46.734375 
Q 21.96875 47.46875 24.109375 47.828125 
Q 26.265625 48.1875 28.421875 48.1875 
Q 40.625 48.1875 47.75 41.5 
Q 54.890625 34.8125 54.890625 23.390625 
Q 54.890625 11.625 47.5625 5.09375 
Q 40.234375 -1.421875 26.90625 -1.421875 
Q 22.3125 -1.421875 17.546875 -0.640625 
Q 12.796875 0.140625 7.71875 1.703125 
L 7.71875 11.625 
Q 12.109375 9.234375 16.796875 8.0625 
Q 21.484375 6.890625 26.703125 6.890625 
Q 35.15625 6.890625 40.078125 11.328125 
Q 45.015625 15.765625 45.015625 23.390625 
Q 45.015625 31 40.078125 35.4375 
Q 35.15625 39.890625 26.703125 39.890625 
Q 22.75 39.890625 18.8125 39.015625 
Q 14.890625 38.140625 10.796875 36.28125 
z
" id="DejaVuSans-53"/>
      </defs>
      <g style="fill:#262626;" transform="translate(111.36484 270.918437)scale(0.1 -0.1)">
       <use xlink:href="#DejaVuSans-8722"/>
       <use x="83.789062" xlink:href="#DejaVuSans-49"/>
       <use x="147.412109" xlink:href="#DejaVuSans-53"/>
      </g>
     </g>
    </g>
    <g id="xtick_3">
     <g id="line2d_3">
      <path clip-path="url(#p0b2272414d)" d="M 175.691679 256.32 
L 175.691679 34.56 
" style="fill:none;stroke:#cccccc;stroke-linecap:round;stroke-width:0.8;"/>
     </g>
     <g id="text_3">
      <!-- −10 -->
      <g style="fill:#262626;" transform="translate(165.139335 270.918437)scale(0.1 -0.1)">
       <use xlink:href="#DejaVuSans-8722"/>
       <use x="83.789062" xlink:href="#DejaVuSans-49"/>
       <use x="147.412109" xlink:href="#DejaVuSans-48"/>
      </g>
     </g>
    </g>
    <g id="xtick_4">
     <g id="line2d_4">
      <path clip-path="url(#p0b2272414d)" d="M 229.466174 256.32 
L 229.466174 34.56 
" style="fill:none;stroke:#cccccc;stroke-linecap:round;stroke-width:0.8;"/>
     </g>
     <g id="text_4">
      <!-- −5 -->
      <g style="fill:#262626;" transform="translate(222.095081 270.918437)scale(0.1 -0.1)">
       <use xlink:href="#DejaVuSans-8722"/>
       <use x="83.789062" xlink:href="#DejaVuSans-53"/>
      </g>
     </g>
    </g>
    <g id="xtick_5">
     <g id="line2d_5">
      <path clip-path="url(#p0b2272414d)" d="M 283.24067 256.32 
L 283.24067 34.56 
" style="fill:none;stroke:#cccccc;stroke-linecap:round;stroke-width:0.8;"/>
     </g>
     <g id="text_5">
      <!-- 0 -->
      <g style="fill:#262626;" transform="translate(280.05942 270.918437)scale(0.1 -0.1)">
       <use xlink:href="#DejaVuSans-48"/>
      </g>
     </g>
    </g>
    <g id="xtick_6">
     <g id="line2d_6">
      <path clip-path="url(#p0b2272414d)" d="M 337.015165 256.32 
L 337.015165 34.56 
" style="fill:none;stroke:#cccccc;stroke-linecap:round;stroke-width:0.8;"/>
     </g>
     <g id="text_6">
      <!-- 5 -->
      <g style="fill:#262626;" transform="translate(333.833915 270.918437)scale(0.1 -0.1)">
       <use xlink:href="#DejaVuSans-53"/>
      </g>
     </g>
    </g>
   </g>
   <g id="matplotlib.axis_3">
    <g id="ytick_1">
     <g id="line2d_7">
      <path clip-path="url(#p0b2272414d)" d="M 54 238.12962 
L 388.8 238.12962 
" style="fill:none;stroke:#cccccc;stroke-linecap:round;stroke-width:0.8;"/>
     </g>
     <g id="line2d_8">
      <defs>
       <path d="M 0 0 
L -3.5 0 
" id="mf31d6c2cde" style="stroke:#262626;stroke-width:0.8;"/>
      </defs>
      <g>
       <use style="fill:#262626;stroke:#262626;stroke-width:0.8;" x="54" xlink:href="#mf31d6c2cde" y="238.12962"/>
      </g>
     </g>
     <g id="text_7">
      <!-- 0.00 -->
      <defs>
       <path d="M 10.6875 12.40625 
L 21 12.40625 
L 21 0 
L 10.6875 0 
z
" id="DejaVuSans-46"/>
      </defs>
      <g style="fill:#262626;" transform="translate(24.734375 241.928838)scale(0.1 -0.1)">
       <use xlink:href="#DejaVuSans-48"/>
       <use x="63.623047" xlink:href="#DejaVuSans-46"/>
       <use x="95.410156" xlink:href="#DejaVuSans-48"/>
       <use x="159.033203" xlink:href="#DejaVuSans-48"/>
      </g>
     </g>
    </g>
    <g id="ytick_2">
     <g id="line2d_9">
      <path clip-path="url(#p0b2272414d)" d="M 54 212.749164 
L 388.8 212.749164 
" style="fill:none;stroke:#cccccc;stroke-linecap:round;stroke-width:0.8;"/>
     </g>
     <g id="line2d_10">
      <g>
       <use style="fill:#262626;stroke:#262626;stroke-width:0.8;" x="54" xlink:href="#mf31d6c2cde" y="212.749164"/>
      </g>
     </g>
     <g id="text_8">
      <!-- 0.05 -->
      <g style="fill:#262626;" transform="translate(24.734375 216.548383)scale(0.1 -0.1)">
       <use xlink:href="#DejaVuSans-48"/>
       <use x="63.623047" xlink:href="#DejaVuSans-46"/>
       <use x="95.410156" xlink:href="#DejaVuSans-48"/>
       <use x="159.033203" xlink:href="#DejaVuSans-53"/>
      </g>
     </g>
    </g>
    <g id="ytick_3">
     <g id="line2d_11">
      <path clip-path="url(#p0b2272414d)" d="M 54 187.368708 
L 388.8 187.368708 
" style="fill:none;stroke:#cccccc;stroke-linecap:round;stroke-width:0.8;"/>
     </g>
     <g id="line2d_12">
      <g>
       <use style="fill:#262626;stroke:#262626;stroke-width:0.8;" x="54" xlink:href="#mf31d6c2cde" y="187.368708"/>
      </g>
     </g>
     <g id="text_9">
      <!-- 0.10 -->
      <g style="fill:#262626;" transform="translate(24.734375 191.167927)scale(0.1 -0.1)">
       <use xlink:href="#DejaVuSans-48"/>
       <use x="63.623047" xlink:href="#DejaVuSans-46"/>
       <use x="95.410156" xlink:href="#DejaVuSans-49"/>
       <use x="159.033203" xlink:href="#DejaVuSans-48"/>
      </g>
     </g>
    </g>
    <g id="ytick_4">
     <g id="line2d_13">
      <path clip-path="url(#p0b2272414d)" d="M 54 161.988252 
L 388.8 161.988252 
" style="fill:none;stroke:#cccccc;stroke-linecap:round;stroke-width:0.8;"/>
     </g>
     <g id="line2d_14">
      <g>
       <use style="fill:#262626;stroke:#262626;stroke-width:0.8;" x="54" xlink:href="#mf31d6c2cde" y="161.988252"/>
      </g>
     </g>
     <g id="text_10">
      <!-- 0.15 -->
      <g style="fill:#262626;" transform="translate(24.734375 165.787471)scale(0.1 -0.1)">
       <use xlink:href="#DejaVuSans-48"/>
       <use x="63.623047" xlink:href="#DejaVuSans-46"/>
       <use x="95.410156" xlink:href="#DejaVuSans-49"/>
       <use x="159.033203" xlink:href="#DejaVuSans-53"/>
      </g>
     </g>
    </g>
    <g id="ytick_5">
     <g id="line2d_15">
      <path clip-path="url(#p0b2272414d)" d="M 54 136.607797 
L 388.8 136.607797 
" style="fill:none;stroke:#cccccc;stroke-linecap:round;stroke-width:0.8;"/>
     </g>
     <g id="line2d_16">
      <g>
       <use style="fill:#262626;stroke:#262626;stroke-width:0.8;" x="54" xlink:href="#mf31d6c2cde" y="136.607797"/>
      </g>
     </g>
     <g id="text_11">
      <!-- 0.20 -->
      <g style="fill:#262626;" transform="translate(24.734375 140.407015)scale(0.1 -0.1)">
       <use xlink:href="#DejaVuSans-48"/>
       <use x="63.623047" xlink:href="#DejaVuSans-46"/>
       <use x="95.410156" xlink:href="#DejaVuSans-50"/>
       <use x="159.033203" xlink:href="#DejaVuSans-48"/>
      </g>
     </g>
    </g>
    <g id="ytick_6">
     <g id="line2d_17">
      <path clip-path="url(#p0b2272414d)" d="M 54 111.227341 
L 388.8 111.227341 
" style="fill:none;stroke:#cccccc;stroke-linecap:round;stroke-width:0.8;"/>
     </g>
     <g id="line2d_18">
      <g>
       <use style="fill:#262626;stroke:#262626;stroke-width:0.8;" x="54" xlink:href="#mf31d6c2cde" y="111.227341"/>
      </g>
     </g>
     <g id="text_12">
      <!-- 0.25 -->
      <g style="fill:#262626;" transform="translate(24.734375 115.02656)scale(0.1 -0.1)">
       <use xlink:href="#DejaVuSans-48"/>
       <use x="63.623047" xlink:href="#DejaVuSans-46"/>
       <use x="95.410156" xlink:href="#DejaVuSans-50"/>
       <use x="159.033203" xlink:href="#DejaVuSans-53"/>
      </g>
     </g>
    </g>
    <g id="ytick_7">
     <g id="line2d_19">
      <path clip-path="url(#p0b2272414d)" d="M 54 85.846885 
L 388.8 85.846885 
" style="fill:none;stroke:#cccccc;stroke-linecap:round;stroke-width:0.8;"/>
     </g>
     <g id="line2d_20">
      <g>
       <use style="fill:#262626;stroke:#262626;stroke-width:0.8;" x="54" xlink:href="#mf31d6c2cde" y="85.846885"/>
      </g>
     </g>
     <g id="text_13">
      <!-- 0.30 -->
      <defs>
       <path d="M 40.578125 39.3125 
Q 47.65625 37.796875 51.625 33 
Q 55.609375 28.21875 55.609375 21.1875 
Q 55.609375 10.40625 48.1875 4.484375 
Q 40.765625 -1.421875 27.09375 -1.421875 
Q 22.515625 -1.421875 17.65625 -0.515625 
Q 12.796875 0.390625 7.625 2.203125 
L 7.625 11.71875 
Q 11.71875 9.328125 16.59375 8.109375 
Q 21.484375 6.890625 26.8125 6.890625 
Q 36.078125 6.890625 40.9375 10.546875 
Q 45.796875 14.203125 45.796875 21.1875 
Q 45.796875 27.640625 41.28125 31.265625 
Q 36.765625 34.90625 28.71875 34.90625 
L 20.21875 34.90625 
L 20.21875 43.015625 
L 29.109375 43.015625 
Q 36.375 43.015625 40.234375 45.921875 
Q 44.09375 48.828125 44.09375 54.296875 
Q 44.09375 59.90625 40.109375 62.90625 
Q 36.140625 65.921875 28.71875 65.921875 
Q 24.65625 65.921875 20.015625 65.03125 
Q 15.375 64.15625 9.8125 62.3125 
L 9.8125 71.09375 
Q 15.4375 72.65625 20.34375 73.4375 
Q 25.25 74.21875 29.59375 74.21875 
Q 40.828125 74.21875 47.359375 69.109375 
Q 53.90625 64.015625 53.90625 55.328125 
Q 53.90625 49.265625 50.4375 45.09375 
Q 46.96875 40.921875 40.578125 39.3125 
z
" id="DejaVuSans-51"/>
      </defs>
      <g style="fill:#262626;" transform="translate(24.734375 89.646104)scale(0.1 -0.1)">
       <use xlink:href="#DejaVuSans-48"/>
       <use x="63.623047" xlink:href="#DejaVuSans-46"/>
       <use x="95.410156" xlink:href="#DejaVuSans-51"/>
       <use x="159.033203" xlink:href="#DejaVuSans-48"/>
      </g>
     </g>
    </g>
    <g id="ytick_8">
     <g id="line2d_21">
      <path clip-path="url(#p0b2272414d)" d="M 54 60.466429 
L 388.8 60.466429 
" style="fill:none;stroke:#cccccc;stroke-linecap:round;stroke-width:0.8;"/>
     </g>
     <g id="line2d_22">
      <g>
       <use style="fill:#262626;stroke:#262626;stroke-width:0.8;" x="54" xlink:href="#mf31d6c2cde" y="60.466429"/>
      </g>
     </g>
     <g id="text_14">
      <!-- 0.35 -->
      <g style="fill:#262626;" transform="translate(24.734375 64.265648)scale(0.1 -0.1)">
       <use xlink:href="#DejaVuSans-48"/>
       <use x="63.623047" xlink:href="#DejaVuSans-46"/>
       <use x="95.410156" xlink:href="#DejaVuSans-51"/>
       <use x="159.033203" xlink:href="#DejaVuSans-53"/>
      </g>
     </g>
    </g>
    <g id="ytick_9">
     <g id="line2d_23">
      <path clip-path="url(#p0b2272414d)" d="M 54 35.085974 
L 388.8 35.085974 
" style="fill:none;stroke:#cccccc;stroke-linecap:round;stroke-width:0.8;"/>
     </g>
     <g id="line2d_24">
      <g>
       <use style="fill:#262626;stroke:#262626;stroke-width:0.8;" x="54" xlink:href="#mf31d6c2cde" y="35.085974"/>
      </g>
     </g>
     <g id="text_15">
      <!-- 0.40 -->
      <defs>
       <path d="M 37.796875 64.3125 
L 12.890625 25.390625 
L 37.796875 25.390625 
z
M 35.203125 72.90625 
L 47.609375 72.90625 
L 47.609375 25.390625 
L 58.015625 25.390625 
L 58.015625 17.1875 
L 47.609375 17.1875 
L 47.609375 0 
L 37.796875 0 
L 37.796875 17.1875 
L 4.890625 17.1875 
L 4.890625 26.703125 
z
" id="DejaVuSans-52"/>
      </defs>
      <g style="fill:#262626;" transform="translate(24.734375 38.885192)scale(0.1 -0.1)">
       <use xlink:href="#DejaVuSans-48"/>
       <use x="63.623047" xlink:href="#DejaVuSans-46"/>
       <use x="95.410156" xlink:href="#DejaVuSans-52"/>
       <use x="159.033203" xlink:href="#DejaVuSans-48"/>
      </g>
     </g>
    </g>
   </g>
   <g id="line2d_25">
    <path clip-path="url(#p0b2272414d)" d="M 69.218182 246.24 
L 89.935632 240.851532 
L 107.911063 236.399079 
L 123.753804 232.698686 
L 137.76855 229.650351 
L 150.259955 227.160238 
L 161.228008 225.195816 
L 170.977395 223.666547 
L 179.812778 222.497608 
L 187.734149 221.663225 
L 195.046191 221.10958 
L 201.748895 220.820886 
L 207.84226 220.774315 
L 213.630956 220.954787 
L 218.810319 221.333224 
L 223.685012 221.906302 
L 228.255036 222.66251 
L 232.52039 223.585093 
L 236.78575 224.742385 
L 240.746436 226.048912 
L 244.707126 227.596588 
L 248.667814 229.395411 
L 252.628502 231.438944 
L 257.503192 234.226424 
L 264.510564 238.27028 
L 266.947911 239.419454 
L 268.775921 240.071754 
L 270.299263 240.423735 
L 271.822604 240.56138 
L 273.345945 240.461723 
L 274.869286 240.140417 
L 278.220638 239.289598 
L 279.439311 239.294697 
L 280.657984 239.364812 
L 281.267321 239.181741 
L 281.876658 238.604785 
L 282.485994 237.399026 
L 283.095331 235.349235 
L 283.704668 232.318419 
L 284.314004 228.281001 
L 285.228009 220.524933 
L 286.446682 207.78881 
L 288.274692 185.709941 
L 294.977395 101.165558 
L 296.500736 85.6471 
L 297.71941 75.071421 
L 298.938083 66.235333 
L 300.156756 59.126809 
L 301.07076 54.874695 
L 301.984766 51.480351 
L 302.898771 48.869754 
L 303.812775 46.962334 
L 304.72678 45.675598 
L 305.336116 45.12249 
L 305.945455 44.78609 
L 306.554791 44.644387 
L 307.164127 44.676594 
L 308.078132 45.008653 
L 308.992137 45.628398 
L 310.210809 46.811614 
L 311.734151 48.716886 
L 313.562161 51.413047 
L 316.608844 56.37941 
L 321.788206 64.831052 
L 324.834889 69.378115 
L 327.576905 73.104669 
L 330.318918 76.47325 
L 333.060931 79.495024 
L 335.80295 82.191593 
L 338.544963 84.588886 
L 341.286977 86.713815 
L 344.333659 88.787068 
L 347.380342 90.589395 
L 350.731694 92.294827 
L 354.083045 93.744007 
L 357.739067 95.068684 
L 361.395083 96.159332 
L 365.355773 97.110622 
L 369.621133 97.902372 
L 373.581818 98.449746 
L 373.581818 98.449746 
" style="fill:none;stroke:#0000ff;stroke-linecap:round;stroke-width:1.5;"/>
   </g>
   <g id="patch_120">
    <path d="M 54 256.32 
L 54 34.56 
" style="fill:none;stroke:#cccccc;stroke-linecap:square;stroke-linejoin:miter;stroke-width:0.8;"/>
   </g>
   <g id="patch_121">
    <path d="M 388.8 256.32 
L 388.8 34.56 
" style="fill:none;stroke:#cccccc;stroke-linecap:square;stroke-linejoin:miter;stroke-width:0.8;"/>
   </g>
   <g id="patch_122">
    <path d="M 54 256.32 
L 388.8 256.32 
" style="fill:none;stroke:#cccccc;stroke-linecap:square;stroke-linejoin:miter;stroke-width:0.8;"/>
   </g>
   <g id="patch_123">
    <path d="M 54 34.56 
L 388.8 34.56 
" style="fill:none;stroke:#cccccc;stroke-linecap:square;stroke-linejoin:miter;stroke-width:0.8;"/>
   </g>
   <g id="legend_1">
    <g id="patch_124">
     <path d="M 325.039062 57.238125 
L 381.8 57.238125 
Q 383.8 57.238125 383.8 55.238125 
L 383.8 41.56 
Q 383.8 39.56 381.8 39.56 
L 325.039062 39.56 
Q 323.039062 39.56 323.039062 41.56 
L 323.039062 55.238125 
Q 323.039062 57.238125 325.039062 57.238125 
z
" style="fill:#ffffff;opacity:0.8;stroke:#cccccc;stroke-linejoin:miter;"/>
    </g>
    <g id="line2d_26">
     <path d="M 327.039062 47.658438 
L 347.039062 47.658438 
" style="fill:none;stroke:#0000ff;stroke-linecap:round;stroke-width:1.5;"/>
    </g>
    <g id="line2d_27"/>
    <g id="text_16">
     <!-- sPAU -->
     <defs>
      <path d="M 44.28125 53.078125 
L 44.28125 44.578125 
Q 40.484375 46.53125 36.375 47.5 
Q 32.28125 48.484375 27.875 48.484375 
Q 21.1875 48.484375 17.84375 46.4375 
Q 14.5 44.390625 14.5 40.28125 
Q 14.5 37.15625 16.890625 35.375 
Q 19.28125 33.59375 26.515625 31.984375 
L 29.59375 31.296875 
Q 39.15625 29.25 43.1875 25.515625 
Q 47.21875 21.78125 47.21875 15.09375 
Q 47.21875 7.46875 41.1875 3.015625 
Q 35.15625 -1.421875 24.609375 -1.421875 
Q 20.21875 -1.421875 15.453125 -0.5625 
Q 10.6875 0.296875 5.421875 2 
L 5.421875 11.28125 
Q 10.40625 8.6875 15.234375 7.390625 
Q 20.0625 6.109375 24.8125 6.109375 
Q 31.15625 6.109375 34.5625 8.28125 
Q 37.984375 10.453125 37.984375 14.40625 
Q 37.984375 18.0625 35.515625 20.015625 
Q 33.0625 21.96875 24.703125 23.78125 
L 21.578125 24.515625 
Q 13.234375 26.265625 9.515625 29.90625 
Q 5.8125 33.546875 5.8125 39.890625 
Q 5.8125 47.609375 11.28125 51.796875 
Q 16.75 56 26.8125 56 
Q 31.78125 56 36.171875 55.265625 
Q 40.578125 54.546875 44.28125 53.078125 
z
" id="DejaVuSans-115"/>
      <path d="M 19.671875 64.796875 
L 19.671875 37.40625 
L 32.078125 37.40625 
Q 38.96875 37.40625 42.71875 40.96875 
Q 46.484375 44.53125 46.484375 51.125 
Q 46.484375 57.671875 42.71875 61.234375 
Q 38.96875 64.796875 32.078125 64.796875 
z
M 9.8125 72.90625 
L 32.078125 72.90625 
Q 44.34375 72.90625 50.609375 67.359375 
Q 56.890625 61.8125 56.890625 51.125 
Q 56.890625 40.328125 50.609375 34.8125 
Q 44.34375 29.296875 32.078125 29.296875 
L 19.671875 29.296875 
L 19.671875 0 
L 9.8125 0 
z
" id="DejaVuSans-80"/>
      <path d="M 34.1875 63.1875 
L 20.796875 26.90625 
L 47.609375 26.90625 
z
M 28.609375 72.90625 
L 39.796875 72.90625 
L 67.578125 0 
L 57.328125 0 
L 50.6875 18.703125 
L 17.828125 18.703125 
L 11.1875 0 
L 0.78125 0 
z
" id="DejaVuSans-65"/>
      <path d="M 8.6875 72.90625 
L 18.609375 72.90625 
L 18.609375 28.609375 
Q 18.609375 16.890625 22.84375 11.734375 
Q 27.09375 6.59375 36.625 6.59375 
Q 46.09375 6.59375 50.34375 11.734375 
Q 54.59375 16.890625 54.59375 28.609375 
L 54.59375 72.90625 
L 64.5 72.90625 
L 64.5 27.390625 
Q 64.5 13.140625 57.4375 5.859375 
Q 50.390625 -1.421875 36.625 -1.421875 
Q 22.796875 -1.421875 15.734375 5.859375 
Q 8.6875 13.140625 8.6875 27.390625 
z
" id="DejaVuSans-85"/>
     </defs>
     <g style="fill:#262626;" transform="translate(355.039062 51.158438)scale(0.1 -0.1)">
      <use xlink:href="#DejaVuSans-115"/>
      <use x="52.099609" xlink:href="#DejaVuSans-80"/>
      <use x="106.027344" xlink:href="#DejaVuSans-65"/>
      <use x="174.435547" xlink:href="#DejaVuSans-85"/>
     </g>
    </g>
   </g>
  </g>
 </g>
 <defs>
  <clipPath id="p0b2272414d">
   <rect height="221.76" width="334.8" x="54" y="34.56"/>
  </clipPath>
 </defs>
</svg>
